<?xml version="1.0" encoding="us-ascii" standalone="no"?><svg xmlns="http://www.w3.org/2000/svg" xmlns:xlink="http://www.w3.org/1999/xlink" contentStyleType="text/css" height="143px" preserveAspectRatio="none" style="width:230px;height:143px;background:#FFFFFF;" version="1.1" viewBox="0 0 230 143" width="230px" zoomAndPan="magnify"><defs/><g><!--class GatewayDb--><g id="elem_GatewayDb"><rect codeLine="2" fill="#F1F1F1" height="122.4844" id="GatewayDb" rx="2.5" ry="2.5" style="stroke:#181818;stroke-width:0.5;" width="209" x="7" y="7"/><ellipse cx="70.75" cy="23" fill="#ADD1B2" rx="11" ry="11" style="stroke:#181818;stroke-width:1.0;"/><path d="M69.6094,23.7969 L69.6094,26.2969 L73.9375,26.2969 L73.9375,25.375 Q73.9375,24.7656 74.1719,24.5 Q74.4219,24.2344 74.7969,24.2344 Q75.1719,24.2344 75.4063,24.5 Q75.6406,24.7656 75.6406,25.375 L75.6406,28 L67.6406,28 Q67.0156,28 66.75,27.7656 Q66.5,27.5313 66.5,27.1406 Q66.5,26.7656 66.7656,26.5313 Q67.0313,26.2969 67.6406,26.2969 L67.9063,26.2969 L67.9063,19.6406 L67.6406,19.6406 Q67.0156,19.6406 66.75,19.4063 Q66.5,19.1719 66.5,18.7813 Q66.5,18.4063 66.75,18.1719 Q67.0156,17.9375 67.6406,17.9375 L75.2656,17.9375 L75.2656,20.5313 Q75.2656,21.1406 75.0313,21.4063 Q74.8125,21.6563 74.4219,21.6563 Q74.0469,21.6563 73.8125,21.4063 Q73.5781,21.1406 73.5781,20.5313 L73.5781,19.6406 L69.6094,19.6406 L69.6094,22.0938 L71.0938,22.0938 Q71.0938,21.4375 71.2188,21.25 Q71.4844,20.8438 71.9531,20.8438 Q72.3281,20.8438 72.5625,21.1094 Q72.7969,21.3594 72.7969,21.9688 L72.7969,23.9375 Q72.7969,24.4844 72.6719,24.6719 Q72.4063,25.0625 71.9531,25.0625 Q71.4844,25.0625 71.2188,24.6563 Q71.0938,24.4688 71.0938,23.7969 L69.6094,23.7969 Z " fill="#000000"/><text fill="#000000" font-family="sans-serif" font-size="14" lengthAdjust="spacing" textLength="73" x="91.25" y="28.7969">GatewayDb</text><line style="stroke:#181818;stroke-width:0.5;" x1="8" x2="215" y1="39" y2="39"/><ellipse cx="18" cy="53.8105" fill="#000000" rx="3" ry="3" style="stroke:#000000;stroke-width:1.0;"/><text fill="#000000" font-family="sans-serif" font-size="14" lengthAdjust="spacing" textLength="42" x="27" y="58.1074">PK - id</text><line style="stroke:#181818;stroke-width:1.0;" x1="8" x2="215" y1="65.6211" y2="65.6211"/><ellipse cx="18" cy="80.4316" fill="#000000" rx="3" ry="3" style="stroke:#000000;stroke-width:1.0;"/><text fill="#000000" font-family="sans-serif" font-size="14" lengthAdjust="spacing" textLength="129" x="27" y="84.7285">String - endpoint_url</text><ellipse cx="18" cy="99.0527" fill="#000000" rx="3" ry="3" style="stroke:#000000;stroke-width:1.0;"/><text fill="#000000" font-family="sans-serif" font-size="14" lengthAdjust="spacing" textLength="139" x="27" y="103.3496">String - friendly_name</text><text fill="#000000" font-family="sans-serif" font-size="14" lengthAdjust="spacing" textLength="183" x="27" y="121.9707">String - description (optional)</text></g><!--SRC=[IyqhoIofL71FB4ajJwnqILAevb800Ys506y5NONC531FLnSg65nIb9cN3fH8pKifoC_CAualBSf1bqihoWHAvrJ6voNcfe8buL8fgSN9HPa59PdvUGeQ-M0wCKUJgvOB0000]--></g></svg>