<?xml version="1.0" encoding="us-ascii" standalone="no"?><svg xmlns="http://www.w3.org/2000/svg" xmlns:xlink="http://www.w3.org/1999/xlink" contentStyleType="text/css" height="162px" preserveAspectRatio="none" style="width:240px;height:162px;background:#FFFFFF;" version="1.1" viewBox="0 0 240 162" width="240px" zoomAndPan="magnify"><defs/><g><!--class GatewayDb--><g id="elem_GatewayDb"><rect codeLine="2" fill="#F1F1F1" height="141.1055" id="GatewayDb" rx="2.5" ry="2.5" style="stroke:#181818;stroke-width:0.5;" width="219" x="7" y="7"/><ellipse cx="75.75" cy="23" fill="#ADD1B2" rx="11" ry="11" style="stroke:#181818;stroke-width:1.0;"/><path d="M74.6094,23.7969 L74.6094,26.2969 L78.9375,26.2969 L78.9375,25.375 Q78.9375,24.7656 79.1719,24.5 Q79.4219,24.2344 79.7969,24.2344 Q80.1719,24.2344 80.4063,24.5 Q80.6406,24.7656 80.6406,25.375 L80.6406,28 L72.6406,28 Q72.0156,28 71.75,27.7656 Q71.5,27.5313 71.5,27.1406 Q71.5,26.7656 71.7656,26.5313 Q72.0313,26.2969 72.6406,26.2969 L72.9063,26.2969 L72.9063,19.6406 L72.6406,19.6406 Q72.0156,19.6406 71.75,19.4063 Q71.5,19.1719 71.5,18.7813 Q71.5,18.4063 71.75,18.1719 Q72.0156,17.9375 72.6406,17.9375 L80.2656,17.9375 L80.2656,20.5313 Q80.2656,21.1406 80.0313,21.4063 Q79.8125,21.6563 79.4219,21.6563 Q79.0469,21.6563 78.8125,21.4063 Q78.5781,21.1406 78.5781,20.5313 L78.5781,19.6406 L74.6094,19.6406 L74.6094,22.0938 L76.0938,22.0938 Q76.0938,21.4375 76.2188,21.25 Q76.4844,20.8438 76.9531,20.8438 Q77.3281,20.8438 77.5625,21.1094 Q77.7969,21.3594 77.7969,21.9688 L77.7969,23.9375 Q77.7969,24.4844 77.6719,24.6719 Q77.4063,25.0625 76.9531,25.0625 Q76.4844,25.0625 76.2188,24.6563 Q76.0938,24.4688 76.0938,23.7969 L74.6094,23.7969 Z " fill="#000000"/><text fill="#000000" font-family="sans-serif" font-size="14" lengthAdjust="spacing" textLength="73" x="96.25" y="28.7969">GatewayDb</text><line style="stroke:#181818;stroke-width:0.5;" x1="8" x2="225" y1="39" y2="39"/><ellipse cx="18" cy="53.8105" fill="#000000" rx="3" ry="3" style="stroke:#000000;stroke-width:1.0;"/><text fill="#000000" font-family="sans-serif" font-size="14" lengthAdjust="spacing" textLength="50" x="27" y="58.1074">PK - _id</text><line style="stroke:#181818;stroke-width:1.0;" x1="8" x2="225" y1="65.6211" y2="65.6211"/><ellipse cx="18" cy="80.4316" fill="#000000" rx="3" ry="3" style="stroke:#000000;stroke-width:1.0;"/><text fill="#000000" font-family="sans-serif" font-size="14" lengthAdjust="spacing" textLength="122" x="27" y="84.7285">String - endpointUrl</text><ellipse cx="18" cy="99.0527" fill="#000000" rx="3" ry="3" style="stroke:#000000;stroke-width:1.0;"/><text fill="#000000" font-family="sans-serif" font-size="14" lengthAdjust="spacing" textLength="132" x="27" y="103.3496">String - friendlyName</text><text fill="#000000" font-family="sans-serif" font-size="14" lengthAdjust="spacing" textLength="193" x="27" y="121.9707">String - dateCreated (optional)</text><text fill="#000000" font-family="sans-serif" font-size="14" lengthAdjust="spacing" textLength="183" x="27" y="140.5918">String - description (optional)</text></g><!--SRC=[IyqhoIofL71FB4ajJwnqILAevb800Ys506y5NONup1GmLrSNAXfSKfIPbmwKISrBASZFp2i9BSf1bqehoWJAvbJw9UQcWkNWCYb0MvoBKe5aYe96Va59PdvUOeuccfhKukIYJB0SiffQBW00]--></g></svg>