<?xml version="1.0" encoding="us-ascii" standalone="no"?><svg xmlns="http://www.w3.org/2000/svg" xmlns:xlink="http://www.w3.org/1999/xlink" contentStyleType="text/css" height="796px" preserveAspectRatio="none" style="width:2611px;height:796px;background:#FFFFFF;" version="1.1" viewBox="0 0 2611 796" width="2611px" zoomAndPan="magnify"><defs/><g><!--cluster communicationApis--><g id="cluster_communicationApis"><path d="M8.5,140 L151.5,140 A3.75,3.75 0 0 1 154,142.5 L161,164.6211 L2601.5,164.6211 A2.5,2.5 0 0 1 2604,167.1211 L2604,786.5 A2.5,2.5 0 0 1 2601.5,789 L8.5,789 A2.5,2.5 0 0 1 6,786.5 L6,142.5 A2.5,2.5 0 0 1 8.5,140 " fill="none" style="stroke:#000000;stroke-width:1.5;"/><line style="stroke:#000000;stroke-width:1.5;" x1="6" x2="161" y1="164.6211" y2="164.6211"/><text fill="#000000" font-family="sans-serif" font-size="14" font-weight="bold" lengthAdjust="spacing" textLength="142" x="10" y="157.1074">Communication APIs</text></g><!--entity webportalBFFApi--><g id="elem_webportalBFFApi"><rect fill="#F1F1F1" height="48.6211" rx="2.5" ry="2.5" style="stroke:#181818;stroke-width:0.5;" width="148" x="576" y="7"/><rect fill="#F1F1F1" height="10" style="stroke:#181818;stroke-width:0.5;" width="15" x="704" y="12"/><rect fill="#F1F1F1" height="2" style="stroke:#181818;stroke-width:0.5;" width="4" x="702" y="14"/><rect fill="#F1F1F1" height="2" style="stroke:#181818;stroke-width:0.5;" width="4" x="702" y="18"/><text fill="#000000" font-family="sans-serif" font-size="14" lengthAdjust="spacing" textLength="108" x="591" y="42.1074">webportalBFFApi</text></g><!--class gatewayController--><g id="elem_gatewayController"><rect codeLine="12" fill="#F1F1F1" height="141.1055" id="gatewayController" rx="2.5" ry="2.5" style="stroke:#181818;stroke-width:0.5;" width="1195" x="878.5" y="286"/><ellipse cx="1414.75" cy="302" fill="#B4A7E5" rx="11" ry="11" style="stroke:#181818;stroke-width:1.0;"/><path d="M1415.7031,298.6406 L1415.7031,305.2969 L1417.4219,305.2969 Q1418.0313,305.2969 1418.2969,305.5313 Q1418.5625,305.7656 1418.5625,306.1563 Q1418.5625,306.5313 1418.2969,306.7656 Q1418.0313,307 1417.4219,307 L1412.2813,307 Q1411.6719,307 1411.4063,306.7656 Q1411.1406,306.5313 1411.1406,306.1406 Q1411.1406,305.7656 1411.4063,305.5313 Q1411.6719,305.2969 1412.2813,305.2969 L1414,305.2969 L1414,298.6406 L1412.2813,298.6406 Q1411.6719,298.6406 1411.4063,298.4063 Q1411.1406,298.1719 1411.1406,297.7813 Q1411.1406,297.4063 1411.4063,297.1719 Q1411.6719,296.9375 1412.2813,296.9375 L1417.4219,296.9375 Q1418.0313,296.9375 1418.2969,297.1719 Q1418.5625,297.4063 1418.5625,297.7813 Q1418.5625,298.1719 1418.2969,298.4063 Q1418.0313,298.6406 1417.4219,298.6406 L1415.7031,298.6406 Z " fill="#000000"/><text fill="#000000" font-family="sans-serif" font-size="14" font-style="italic" lengthAdjust="spacing" textLength="114" x="1435.25" y="307.7969">gatewayController</text><line style="stroke:#181818;stroke-width:0.5;" x1="879.5" x2="2072.5" y1="318" y2="318"/><line style="stroke:#181818;stroke-width:0.5;" x1="879.5" x2="2072.5" y1="326" y2="326"/><ellipse cx="889.5" cy="340.8105" fill="#84BE84" rx="3" ry="3" style="stroke:#038048;stroke-width:1.0;"/><text fill="#000000" font-family="sans-serif" font-size="14" lengthAdjust="spacing" textLength="1169" x="898.5" y="345.1074">ResponseEntity&lt;Page&lt;Gateways&gt;&gt; getAllGateways(String pageNumber, String pageSize, String friendlyName, String endpointUrl, String description, String sortField, String sortDirection)</text><ellipse cx="889.5" cy="359.4316" fill="#84BE84" rx="3" ry="3" style="stroke:#038048;stroke-width:1.0;"/><text fill="#000000" font-family="sans-serif" font-size="14" lengthAdjust="spacing" textLength="575" x="898.5" y="363.7285">ResponseEntity&lt;Gateway&gt; createGateway(Gateway gateway, BindingResult bindingResult)</text><ellipse cx="889.5" cy="378.0527" fill="#84BE84" rx="3" ry="3" style="stroke:#038048;stroke-width:1.0;"/><text fill="#000000" font-family="sans-serif" font-size="14" lengthAdjust="spacing" textLength="338" x="898.5" y="382.3496">ResponseEntity&lt;Gateway&gt; getGatewayById(String id)</text><ellipse cx="889.5" cy="396.6738" fill="#84BE84" rx="3" ry="3" style="stroke:#038048;stroke-width:1.0;"/><text fill="#000000" font-family="sans-serif" font-size="14" lengthAdjust="spacing" textLength="339" x="898.5" y="400.9707">ResponseEntity&lt;String&gt; deleteGatewayById(String id)</text><ellipse cx="889.5" cy="415.2949" fill="#84BE84" rx="3" ry="3" style="stroke:#038048;stroke-width:1.0;"/><text fill="#000000" font-family="sans-serif" font-size="14" lengthAdjust="spacing" textLength="464" x="898.5" y="419.5918">Gateway updateGateway(Gateway gateway, BindingResult bindingResult)</text></g><!--class gatewayService--><g id="elem_gatewayService"><rect codeLine="20" fill="#F1F1F1" height="141.1055" id="gatewayService" rx="2.5" ry="2.5" style="stroke:#181818;stroke-width:0.5;" width="1065" x="1045.5" y="487"/><ellipse cx="1524.75" cy="503" fill="#B4A7E5" rx="11" ry="11" style="stroke:#181818;stroke-width:1.0;"/><path d="M1525.7031,499.6406 L1525.7031,506.2969 L1527.4219,506.2969 Q1528.0313,506.2969 1528.2969,506.5313 Q1528.5625,506.7656 1528.5625,507.1563 Q1528.5625,507.5313 1528.2969,507.7656 Q1528.0313,508 1527.4219,508 L1522.2813,508 Q1521.6719,508 1521.4063,507.7656 Q1521.1406,507.5313 1521.1406,507.1406 Q1521.1406,506.7656 1521.4063,506.5313 Q1521.6719,506.2969 1522.2813,506.2969 L1524,506.2969 L1524,499.6406 L1522.2813,499.6406 Q1521.6719,499.6406 1521.4063,499.4063 Q1521.1406,499.1719 1521.1406,498.7813 Q1521.1406,498.4063 1521.4063,498.1719 Q1521.6719,497.9375 1522.2813,497.9375 L1527.4219,497.9375 Q1528.0313,497.9375 1528.2969,498.1719 Q1528.5625,498.4063 1528.5625,498.7813 Q1528.5625,499.1719 1528.2969,499.4063 Q1528.0313,499.6406 1527.4219,499.6406 L1525.7031,499.6406 Z " fill="#000000"/><text fill="#000000" font-family="sans-serif" font-size="14" font-style="italic" lengthAdjust="spacing" textLength="98" x="1545.25" y="508.7969">gatewayService</text><line style="stroke:#181818;stroke-width:0.5;" x1="1046.5" x2="2109.5" y1="519" y2="519"/><line style="stroke:#181818;stroke-width:0.5;" x1="1046.5" x2="2109.5" y1="527" y2="527"/><ellipse cx="1056.5" cy="541.8105" fill="#84BE84" rx="3" ry="3" style="stroke:#038048;stroke-width:1.0;"/><text fill="#000000" font-family="sans-serif" font-size="14" lengthAdjust="spacing" textLength="1039" x="1065.5" y="546.1074">Page&lt;Gateways&gt; getGateways(String pageNumber, String pageSize, String friendlyName, String endpointUrl, String description, String sortField, String sortDirection)</text><ellipse cx="1056.5" cy="560.4316" fill="#84BE84" rx="3" ry="3" style="stroke:#038048;stroke-width:1.0;"/><text fill="#000000" font-family="sans-serif" font-size="14" lengthAdjust="spacing" textLength="275" x="1065.5" y="564.7285">Gateway createGateway(Gateway gateway)</text><ellipse cx="1056.5" cy="579.0527" fill="#84BE84" rx="3" ry="3" style="stroke:#038048;stroke-width:1.0;"/><text fill="#000000" font-family="sans-serif" font-size="14" lengthAdjust="spacing" textLength="279" x="1065.5" y="583.3496">Gateway updateGateway(Gateway gateway)</text><ellipse cx="1056.5" cy="597.6738" fill="#84BE84" rx="3" ry="3" style="stroke:#038048;stroke-width:1.0;"/><text fill="#000000" font-family="sans-serif" font-size="14" lengthAdjust="spacing" textLength="223" x="1065.5" y="601.9707">Gateway getGatewayById(String id)</text><ellipse cx="1056.5" cy="616.2949" fill="#84BE84" rx="3" ry="3" style="stroke:#038048;stroke-width:1.0;"/><text fill="#000000" font-family="sans-serif" font-size="14" lengthAdjust="spacing" textLength="213" x="1065.5" y="620.5918">void deleteGatewayById(String id)</text></g><!--class MongoRepository--><g id="elem_MongoRepository"><rect codeLine="28" fill="#F1F1F1" height="122.4844" id="MongoRepository" rx="2.5" ry="2.5" style="stroke:#181818;stroke-width:0.5;" width="259" x="751.5" y="496.5"/><ellipse cx="820.75" cy="512.5" fill="#B4A7E5" rx="11" ry="11" style="stroke:#181818;stroke-width:1.0;"/><path d="M821.7031,509.1406 L821.7031,515.7969 L823.4219,515.7969 Q824.0313,515.7969 824.2969,516.0313 Q824.5625,516.2656 824.5625,516.6563 Q824.5625,517.0313 824.2969,517.2656 Q824.0313,517.5 823.4219,517.5 L818.2813,517.5 Q817.6719,517.5 817.4063,517.2656 Q817.1406,517.0313 817.1406,516.6406 Q817.1406,516.2656 817.4063,516.0313 Q817.6719,515.7969 818.2813,515.7969 L820,515.7969 L820,509.1406 L818.2813,509.1406 Q817.6719,509.1406 817.4063,508.9063 Q817.1406,508.6719 817.1406,508.2813 Q817.1406,507.9063 817.4063,507.6719 Q817.6719,507.4375 818.2813,507.4375 L823.4219,507.4375 Q824.0313,507.4375 824.2969,507.6719 Q824.5625,507.9063 824.5625,508.2813 Q824.5625,508.6719 824.2969,508.9063 Q824.0313,509.1406 823.4219,509.1406 L821.7031,509.1406 Z " fill="#000000"/><text fill="#000000" font-family="sans-serif" font-size="14" font-style="italic" lengthAdjust="spacing" textLength="112" x="841.25" y="518.2969">MongoRepository</text><line style="stroke:#181818;stroke-width:0.5;" x1="752.5" x2="1009.5" y1="528.5" y2="528.5"/><line style="stroke:#181818;stroke-width:0.5;" x1="752.5" x2="1009.5" y1="536.5" y2="536.5"/><ellipse cx="762.5" cy="551.3105" fill="#84BE84" rx="3" ry="3" style="stroke:#038048;stroke-width:1.0;"/><text fill="#000000" font-family="sans-serif" font-size="14" lengthAdjust="spacing" textLength="233" x="771.5" y="555.6074">Page&lt;T&gt; findAll(Pageable pageable)</text><ellipse cx="762.5" cy="569.9316" fill="#84BE84" rx="3" ry="3" style="stroke:#038048;stroke-width:1.0;"/><text fill="#000000" font-family="sans-serif" font-size="14" lengthAdjust="spacing" textLength="178" x="771.5" y="574.2285">Iterable&lt;T&gt; findAll(Sort sort)</text><ellipse cx="762.5" cy="588.5527" fill="#84BE84" rx="3" ry="3" style="stroke:#038048;stroke-width:1.0;"/><text fill="#000000" font-family="sans-serif" font-size="14" lengthAdjust="spacing" textLength="125" x="771.5" y="592.8496">T findById(String id)</text><ellipse cx="762.5" cy="607.1738" fill="#84BE84" rx="3" ry="3" style="stroke:#038048;stroke-width:1.0;"/><text fill="#000000" font-family="sans-serif" font-size="14" lengthAdjust="spacing" textLength="158" x="771.5" y="611.4707">void deleteById(String id)</text></g><!--class gatewayRepository--><g id="elem_gatewayRepository"><rect codeLine="36" fill="#F1F1F1" height="85.2422" id="gatewayRepository" rx="2.5" ry="2.5" style="stroke:#181818;stroke-width:0.5;" width="1084" x="1036" y="688"/><ellipse cx="1513.75" cy="704" fill="#B4A7E5" rx="11" ry="11" style="stroke:#181818;stroke-width:1.0;"/><path d="M1514.7031,700.6406 L1514.7031,707.2969 L1516.4219,707.2969 Q1517.0313,707.2969 1517.2969,707.5313 Q1517.5625,707.7656 1517.5625,708.1563 Q1517.5625,708.5313 1517.2969,708.7656 Q1517.0313,709 1516.4219,709 L1511.2813,709 Q1510.6719,709 1510.4063,708.7656 Q1510.1406,708.5313 1510.1406,708.1406 Q1510.1406,707.7656 1510.4063,707.5313 Q1510.6719,707.2969 1511.2813,707.2969 L1513,707.2969 L1513,700.6406 L1511.2813,700.6406 Q1510.6719,700.6406 1510.4063,700.4063 Q1510.1406,700.1719 1510.1406,699.7813 Q1510.1406,699.4063 1510.4063,699.1719 Q1510.6719,698.9375 1511.2813,698.9375 L1516.4219,698.9375 Q1517.0313,698.9375 1517.2969,699.1719 Q1517.5625,699.4063 1517.5625,699.7813 Q1517.5625,700.1719 1517.2969,700.4063 Q1517.0313,700.6406 1516.4219,700.6406 L1514.7031,700.6406 Z " fill="#000000"/><text fill="#000000" font-family="sans-serif" font-size="14" font-style="italic" lengthAdjust="spacing" textLength="120" x="1534.25" y="709.7969">gatewayRepository</text><line style="stroke:#181818;stroke-width:0.5;" x1="1037" x2="2119" y1="720" y2="720"/><line style="stroke:#181818;stroke-width:0.5;" x1="1037" x2="2119" y1="728" y2="728"/><ellipse cx="1047" cy="742.8105" fill="#84BE84" rx="3" ry="3" style="stroke:#038048;stroke-width:1.0;"/><text fill="#000000" font-family="sans-serif" font-size="14" lengthAdjust="spacing" textLength="279" x="1056" y="747.1074">Page&lt;Gateway&gt; findAll(Pageable pageable)</text><ellipse cx="1047" cy="761.4316" fill="#84BE84" rx="3" ry="3" style="stroke:#038048;stroke-width:1.0;"/><text fill="#000000" font-family="sans-serif" font-size="14" lengthAdjust="spacing" textLength="1058" x="1056" y="765.7285">Page&lt;Gateway&gt; findByFriendlyNameRegexAndEndpointUrlRegexAndDescriptionRegex(String friendlyName, String dateCreated, String description, Pageable pageable)</text></g><!--class preferencesController--><g id="elem_preferencesController"><rect codeLine="51" fill="#F1F1F1" height="103.8633" id="preferencesController" rx="2.5" ry="2.5" style="stroke:#181818;stroke-width:0.5;" width="784" x="22" y="304.5"/><ellipse cx="340.75" cy="320.5" fill="#B4A7E5" rx="11" ry="11" style="stroke:#181818;stroke-width:1.0;"/><path d="M341.7031,317.1406 L341.7031,323.7969 L343.4219,323.7969 Q344.0313,323.7969 344.2969,324.0313 Q344.5625,324.2656 344.5625,324.6563 Q344.5625,325.0313 344.2969,325.2656 Q344.0313,325.5 343.4219,325.5 L338.2813,325.5 Q337.6719,325.5 337.4063,325.2656 Q337.1406,325.0313 337.1406,324.6406 Q337.1406,324.2656 337.4063,324.0313 Q337.6719,323.7969 338.2813,323.7969 L340,323.7969 L340,317.1406 L338.2813,317.1406 Q337.6719,317.1406 337.4063,316.9063 Q337.1406,316.6719 337.1406,316.2813 Q337.1406,315.9063 337.4063,315.6719 Q337.6719,315.4375 338.2813,315.4375 L343.4219,315.4375 Q344.0313,315.4375 344.2969,315.6719 Q344.5625,315.9063 344.5625,316.2813 Q344.5625,316.6719 344.2969,316.9063 Q344.0313,317.1406 343.4219,317.1406 L341.7031,317.1406 Z " fill="#000000"/><text fill="#000000" font-family="sans-serif" font-size="14" font-style="italic" lengthAdjust="spacing" textLength="138" x="361.25" y="326.2969">preferencesController</text><line style="stroke:#181818;stroke-width:0.5;" x1="23" x2="805" y1="336.5" y2="336.5"/><line style="stroke:#181818;stroke-width:0.5;" x1="23" x2="805" y1="344.5" y2="344.5"/><ellipse cx="33" cy="359.3105" fill="#84BE84" rx="3" ry="3" style="stroke:#038048;stroke-width:1.0;"/><text fill="#000000" font-family="sans-serif" font-size="14" lengthAdjust="spacing" textLength="303" x="42" y="363.6074">ResponseEntity&lt;Preferences&gt; getPreferences()</text><ellipse cx="33" cy="377.9316" fill="#84BE84" rx="3" ry="3" style="stroke:#038048;stroke-width:1.0;"/><text fill="#000000" font-family="sans-serif" font-size="14" lengthAdjust="spacing" textLength="616" x="42" y="382.2285">ResponseEntity&lt;RetryPolicy&gt; setRetryPolicy(RetryPolicy retryPolicy, BindingResult bindingResult)</text><ellipse cx="33" cy="396.5527" fill="#84BE84" rx="3" ry="3" style="stroke:#038048;stroke-width:1.0;"/><text fill="#000000" font-family="sans-serif" font-size="14" lengthAdjust="spacing" textLength="758" x="42" y="400.8496">ResponseEntity&lt;GatewayTimeout&gt; setGatewayTimeout(GatewayTimeout gatewayTimeout, BindingResult bindingResult)</text></g><!--class preferencesService--><g id="elem_preferencesService"><rect codeLine="57" fill="#F1F1F1" height="103.8633" id="preferencesService" rx="2.5" ry="2.5" style="stroke:#181818;stroke-width:0.5;" width="539" x="160.5" y="505.5"/><ellipse cx="364.75" cy="521.5" fill="#B4A7E5" rx="11" ry="11" style="stroke:#181818;stroke-width:1.0;"/><path d="M365.7031,518.1406 L365.7031,524.7969 L367.4219,524.7969 Q368.0313,524.7969 368.2969,525.0313 Q368.5625,525.2656 368.5625,525.6563 Q368.5625,526.0313 368.2969,526.2656 Q368.0313,526.5 367.4219,526.5 L362.2813,526.5 Q361.6719,526.5 361.4063,526.2656 Q361.1406,526.0313 361.1406,525.6406 Q361.1406,525.2656 361.4063,525.0313 Q361.6719,524.7969 362.2813,524.7969 L364,524.7969 L364,518.1406 L362.2813,518.1406 Q361.6719,518.1406 361.4063,517.9063 Q361.1406,517.6719 361.1406,517.2813 Q361.1406,516.9063 361.4063,516.6719 Q361.6719,516.4375 362.2813,516.4375 L367.4219,516.4375 Q368.0313,516.4375 368.2969,516.6719 Q368.5625,516.9063 368.5625,517.2813 Q368.5625,517.6719 368.2969,517.9063 Q368.0313,518.1406 367.4219,518.1406 L365.7031,518.1406 Z " fill="#000000"/><text fill="#000000" font-family="sans-serif" font-size="14" font-style="italic" lengthAdjust="spacing" textLength="122" x="385.25" y="527.2969">preferencesService</text><line style="stroke:#181818;stroke-width:0.5;" x1="161.5" x2="698.5" y1="537.5" y2="537.5"/><line style="stroke:#181818;stroke-width:0.5;" x1="161.5" x2="698.5" y1="545.5" y2="545.5"/><ellipse cx="171.5" cy="560.3105" fill="#84BE84" rx="3" ry="3" style="stroke:#038048;stroke-width:1.0;"/><text fill="#000000" font-family="sans-serif" font-size="14" lengthAdjust="spacing" textLength="188" x="180.5" y="564.6074">Preferences getPreferences()</text><ellipse cx="171.5" cy="578.9316" fill="#84BE84" rx="3" ry="3" style="stroke:#038048;stroke-width:1.0;"/><text fill="#000000" font-family="sans-serif" font-size="14" lengthAdjust="spacing" textLength="316" x="180.5" y="583.2285">RetryPolicy setRetryPolicy(RetryPolicy retryPolicy)</text><ellipse cx="171.5" cy="597.5527" fill="#84BE84" rx="3" ry="3" style="stroke:#038048;stroke-width:1.0;"/><text fill="#000000" font-family="sans-serif" font-size="14" lengthAdjust="spacing" textLength="513" x="180.5" y="601.8496">GatewayTimeout setGatewayTimeoutSeconds(GatewayTimeout gatewayTimeout)</text></g><!--class authController--><g id="elem_authController"><rect codeLine="71" fill="#F1F1F1" height="85.2422" id="authController" rx="2.5" ry="2.5" style="stroke:#181818;stroke-width:0.5;" width="367" x="2183.5" y="314"/><ellipse cx="2317.75" cy="330" fill="#B4A7E5" rx="11" ry="11" style="stroke:#181818;stroke-width:1.0;"/><path d="M2318.7031,326.6406 L2318.7031,333.2969 L2320.4219,333.2969 Q2321.0313,333.2969 2321.2969,333.5313 Q2321.5625,333.7656 2321.5625,334.1563 Q2321.5625,334.5313 2321.2969,334.7656 Q2321.0313,335 2320.4219,335 L2315.2813,335 Q2314.6719,335 2314.4063,334.7656 Q2314.1406,334.5313 2314.1406,334.1406 Q2314.1406,333.7656 2314.4063,333.5313 Q2314.6719,333.2969 2315.2813,333.2969 L2317,333.2969 L2317,326.6406 L2315.2813,326.6406 Q2314.6719,326.6406 2314.4063,326.4063 Q2314.1406,326.1719 2314.1406,325.7813 Q2314.1406,325.4063 2314.4063,325.1719 Q2314.6719,324.9375 2315.2813,324.9375 L2320.4219,324.9375 Q2321.0313,324.9375 2321.2969,325.1719 Q2321.5625,325.4063 2321.5625,325.7813 Q2321.5625,326.1719 2321.2969,326.4063 Q2321.0313,326.6406 2320.4219,326.6406 L2318.7031,326.6406 Z " fill="#000000"/><text fill="#000000" font-family="sans-serif" font-size="14" font-style="italic" lengthAdjust="spacing" textLength="90" x="2338.25" y="335.7969">authController</text><line style="stroke:#181818;stroke-width:0.5;" x1="2184.5" x2="2549.5" y1="346" y2="346"/><line style="stroke:#181818;stroke-width:0.5;" x1="2184.5" x2="2549.5" y1="354" y2="354"/><ellipse cx="2194.5" cy="368.8105" fill="#84BE84" rx="3" ry="3" style="stroke:#038048;stroke-width:1.0;"/><text fill="#000000" font-family="sans-serif" font-size="14" lengthAdjust="spacing" textLength="341" x="2203.5" y="373.1074">ResponseEntity&lt;JwtDTO&gt; getJwt(List&lt;String&gt; scopes)</text><ellipse cx="2194.5" cy="387.4316" fill="#84BE84" rx="3" ry="3" style="stroke:#038048;stroke-width:1.0;"/><text fill="#000000" font-family="sans-serif" font-size="14" lengthAdjust="spacing" textLength="302" x="2203.5" y="391.7285">ResponseEntity&lt;Mao&lt;String, Object&gt;&gt; getKey()</text></g><!--class authService--><g id="elem_authService"><rect codeLine="76" fill="#F1F1F1" height="85.2422" id="authService" rx="2.5" ry="2.5" style="stroke:#181818;stroke-width:0.5;" width="298" x="2254" y="515"/><ellipse cx="2361.75" cy="531" fill="#B4A7E5" rx="11" ry="11" style="stroke:#181818;stroke-width:1.0;"/><path d="M2362.7031,527.6406 L2362.7031,534.2969 L2364.4219,534.2969 Q2365.0313,534.2969 2365.2969,534.5313 Q2365.5625,534.7656 2365.5625,535.1563 Q2365.5625,535.5313 2365.2969,535.7656 Q2365.0313,536 2364.4219,536 L2359.2813,536 Q2358.6719,536 2358.4063,535.7656 Q2358.1406,535.5313 2358.1406,535.1406 Q2358.1406,534.7656 2358.4063,534.5313 Q2358.6719,534.2969 2359.2813,534.2969 L2361,534.2969 L2361,527.6406 L2359.2813,527.6406 Q2358.6719,527.6406 2358.4063,527.4063 Q2358.1406,527.1719 2358.1406,526.7813 Q2358.1406,526.4063 2358.4063,526.1719 Q2358.6719,525.9375 2359.2813,525.9375 L2364.4219,525.9375 Q2365.0313,525.9375 2365.2969,526.1719 Q2365.5625,526.4063 2365.5625,526.7813 Q2365.5625,527.1719 2365.2969,527.4063 Q2365.0313,527.6406 2364.4219,527.6406 L2362.7031,527.6406 Z " fill="#000000"/><text fill="#000000" font-family="sans-serif" font-size="14" font-style="italic" lengthAdjust="spacing" textLength="74" x="2382.25" y="536.7969">authService</text><line style="stroke:#181818;stroke-width:0.5;" x1="2255" x2="2551" y1="547" y2="547"/><line style="stroke:#181818;stroke-width:0.5;" x1="2255" x2="2551" y1="555" y2="555"/><ellipse cx="2265" cy="569.8105" fill="#84BE84" rx="3" ry="3" style="stroke:#038048;stroke-width:1.0;"/><text fill="#000000" font-family="sans-serif" font-size="14" lengthAdjust="spacing" textLength="272" x="2274" y="574.1074">JwtDTO generateJWT(List&lt;String&gt; scopes)</text><ellipse cx="2265" cy="588.4316" fill="#84BE84" rx="3" ry="3" style="stroke:#038048;stroke-width:1.0;"/><text fill="#000000" font-family="sans-serif" font-size="14" lengthAdjust="spacing" textLength="192" x="2274" y="592.7285">Map&lt;String, Object&gt; getJwks()</text></g><!--entity gatewayApi--><g id="elem_gatewayApi"><rect fill="#F1F1F1" height="48.6211" rx="2.5" ry="2.5" style="stroke:#181818;stroke-width:0.5;" width="112" x="2054" y="177"/><rect fill="#F1F1F1" height="10" style="stroke:#181818;stroke-width:0.5;" width="15" x="2146" y="182"/><rect fill="#F1F1F1" height="2" style="stroke:#181818;stroke-width:0.5;" width="4" x="2144" y="184"/><rect fill="#F1F1F1" height="2" style="stroke:#181818;stroke-width:0.5;" width="4" x="2144" y="188"/><text fill="#000000" font-family="sans-serif" font-size="14" lengthAdjust="spacing" textLength="72" x="2069" y="212.1074">gatewayApi</text></g><!--entity preferencesApi--><g id="elem_preferencesApi"><rect fill="#F1F1F1" height="48.6211" rx="2.5" ry="2.5" style="stroke:#181818;stroke-width:0.5;" width="136" x="774" y="177"/><rect fill="#F1F1F1" height="10" style="stroke:#181818;stroke-width:0.5;" width="15" x="890" y="182"/><rect fill="#F1F1F1" height="2" style="stroke:#181818;stroke-width:0.5;" width="4" x="888" y="184"/><rect fill="#F1F1F1" height="2" style="stroke:#181818;stroke-width:0.5;" width="4" x="888" y="188"/><text fill="#000000" font-family="sans-serif" font-size="14" lengthAdjust="spacing" textLength="96" x="789" y="212.1074">preferencesApi</text></g><!--entity authApi--><g id="elem_authApi"><rect fill="#F1F1F1" height="48.6211" rx="2.5" ry="2.5" style="stroke:#181818;stroke-width:0.5;" width="88" x="2411" y="177"/><rect fill="#F1F1F1" height="10" style="stroke:#181818;stroke-width:0.5;" width="15" x="2479" y="182"/><rect fill="#F1F1F1" height="2" style="stroke:#181818;stroke-width:0.5;" width="4" x="2477" y="184"/><rect fill="#F1F1F1" height="2" style="stroke:#181818;stroke-width:0.5;" width="4" x="2477" y="188"/><text fill="#000000" font-family="sans-serif" font-size="14" lengthAdjust="spacing" textLength="48" x="2426" y="212.1074">authApi</text></g><!--reverse link MongoRepository to gatewayRepository--><g id="link_MongoRepository_gatewayRepository"><path d="M1018.6973,625.2122 C1027.4173,628.6322 1019.4,625.23 1028,628 C1106.43,653.3 1193.31,672.98 1274.42,687.99 " fill="none" id="MongoRepository-backto-gatewayRepository" style="stroke:#181818;stroke-width:1.0;"/><polygon fill="none" points="1001.94,618.64,1016.5065,630.798,1020.888,619.6265,1001.94,618.64" style="stroke:#181818;stroke-width:1.0;"/></g><!--link gatewayApi to gatewayService--><g id="link_gatewayApi_gatewayService"><path codeLine="41" d="M2115.99,226.14 C2125.85,271.08 2139.86,369.45 2091,427 C2071.23,450.28 2044.3261,464.9231 1989.8461,481.6631 " fill="none" id="gatewayApi-to-gatewayService" style="stroke:#181818;stroke-width:1.0;"/><polygon fill="none" points="1972.64,486.95,1991.6084,487.3985,1988.0838,475.9278,1972.64,486.95" style="stroke:#181818;stroke-width:1.0;"/></g><!--link gatewayApi to gatewayRepository--><g id="link_gatewayApi_gatewayRepository"><path codeLine="42" d="M2114.98,226.2 C2131.26,306.5 2179.03,566.7 2128,628 C2106.26,654.12 2072.83,669.5068 2010.23,683.9368 " fill="none" id="gatewayApi-to-gatewayRepository" style="stroke:#181818;stroke-width:1.0;"/><polygon fill="none" points="1992.69,687.98,2011.5778,689.7835,2008.8823,678.0901,1992.69,687.98" style="stroke:#181818;stroke-width:1.0;"/></g><!--link gatewayApi to gatewayController--><g id="link_gatewayApi_gatewayController"><path codeLine="43" d="M2053.74,216.08 C1987.82,231.98 1891.1478,255.3177 1781.6178,281.7477 " fill="none" id="gatewayApi-to-gatewayController" style="stroke:#181818;stroke-width:1.0;"/><polygon fill="none" points="1764.12,285.97,1783.0252,287.5803,1780.2104,275.9151,1764.12,285.97" style="stroke:#181818;stroke-width:1.0;"/></g><!--link gatewayController to gatewayService--><g id="link_gatewayController_gatewayService"><path codeLine="44" d="M1511.67,427.1 C1521.61,446.49 1529.6729,462.2107 1539.6129,481.6007 " fill="none" id="gatewayController-to-gatewayService" style="stroke:#181818;stroke-width:1.0;"/><polygon fill="#181818" points="1542.35,486.94,1541.8039,477.1063,1540.0691,482.4906,1534.6848,480.7558,1542.35,486.94" style="stroke:#181818;stroke-width:1.0;"/></g><!--link gatewayService to gatewayRepository--><g id="link_gatewayService_gatewayRepository"><path codeLine="45" d="M1578,628.05 C1578,648.39 1578,663.99 1578,682 " fill="none" id="gatewayService-to-gatewayRepository" style="stroke:#181818;stroke-width:1.0;"/><polygon fill="#181818" points="1578,688,1582,679,1578,683,1574,679,1578,688" style="stroke:#181818;stroke-width:1.0;"/></g><!--link preferencesApi to preferencesService--><g id="link_preferencesApi_preferencesService"><path codeLine="63" d="M847.82,226.17 C857.27,270.71 870.54,367.85 824,427 C800.63,456.71 747.4334,478.8363 672.4234,500.4963 " fill="none" id="preferencesApi-to-preferencesService" style="stroke:#181818;stroke-width:1.0;"/><polygon fill="none" points="655.13,505.49,674.088,506.2608,670.7589,494.7318,655.13,505.49" style="stroke:#181818;stroke-width:1.0;"/></g><!--link preferencesApi to preferencesController--><g id="link_preferencesApi_preferencesController"><path codeLine="64" d="M776.06,226.07 C717.79,246.9 647.75,271.9422 573.63,298.4322 " fill="none" id="preferencesApi-to-preferencesController" style="stroke:#181818;stroke-width:1.0;"/><polygon fill="none" points="556.68,304.49,575.6493,304.0822,571.6107,292.7822,556.68,304.49" style="stroke:#181818;stroke-width:1.0;"/></g><!--link preferencesController to preferencesService--><g id="link_preferencesController_preferencesService"><path codeLine="65" d="M418.12,408.75 C420.51,438.46 423.0306,469.7592 425.4106,499.4492 " fill="none" id="preferencesController-to-preferencesService" style="stroke:#181818;stroke-width:1.0;"/><polygon fill="#181818" points="425.89,505.43,429.1581,496.1392,425.4905,500.446,421.1836,496.7784,425.89,505.43" style="stroke:#181818;stroke-width:1.0;"/></g><!--link authApi to authService--><g id="link_authApi_authService"><path codeLine="81" d="M2499.22,222.38 C2524.36,236.27 2553.61,257.47 2568,286 C2596.22,341.95 2595.41,370.65 2568,427 C2550.08,463.84 2531.075,483.398 2498.545,504.858 " fill="none" id="authApi-to-authService" style="stroke:#181818;stroke-width:1.0;"/><polygon fill="none" points="2483.52,514.77,2501.8491,509.8663,2495.241,499.8496,2483.52,514.77" style="stroke:#181818;stroke-width:1.0;"/></g><!--link authApi to authController--><g id="link_authApi_authController"><path codeLine="82" d="M2441.44,226.07 C2428.04,249.37 2416.211,269.9248 2400.011,298.1048 " fill="none" id="authApi-to-authController" style="stroke:#181818;stroke-width:1.0;"/><polygon fill="none" points="2391.04,313.71,2405.2127,301.0952,2394.8093,295.1145,2391.04,313.71" style="stroke:#181818;stroke-width:1.0;"/></g><!--link authController to authService--><g id="link_authController_authService"><path codeLine="83" d="M2374.55,399.22 C2380.69,433.18 2388.2522,474.9858 2394.3922,508.9358 " fill="none" id="authController-to-authService" style="stroke:#181818;stroke-width:1.0;"/><polygon fill="#181818" points="2395.46,514.84,2397.7944,505.2718,2394.5702,509.9198,2389.9222,506.6955,2395.46,514.84" style="stroke:#181818;stroke-width:1.0;"/></g><!--link webportalBFFApi to gatewayController--><g id="link_webportalBFFApi_gatewayController"><path codeLine="89" d="M647.86,56.16 C645.58,97.19 647.45,181.41 695,226 C728.02,256.97 789.8979,279.291 872.3079,297.271 " fill="none" id="webportalBFFApi-to-gatewayController" style="stroke:#181818;stroke-width:1.0;"/><polygon fill="#181818" points="878.17,298.55,870.2295,292.7235,873.2849,297.4842,868.5242,300.5396,878.17,298.55" style="stroke:#181818;stroke-width:1.0;"/></g><!--link webportalBFFApi to preferencesController--><g id="link_webportalBFFApi_preferencesController"><path codeLine="90" d="M632.65,56.25 C594.59,108.33 506.6194,228.7352 454.8594,299.5852 " fill="none" id="webportalBFFApi-to-preferencesController" style="stroke:#181818;stroke-width:1.0;"/><polygon fill="#181818" points="451.32,304.43,459.859,299.5224,454.2695,300.3926,453.3993,294.8031,451.32,304.43" style="stroke:#181818;stroke-width:1.0;"/></g><!--link webportalBFFApi to authController--><g id="link_webportalBFFApi_authController"><path codeLine="91" d="M661.5,56.25 C685.68,105.71 740.85,215.98 757,226 C883.08,304.22 1944.2,264.44 2091,286 C2135.12,292.48 2176.6271,301.5431 2219.3971,312.4831 " fill="none" id="webportalBFFApi-to-authController" style="stroke:#181818;stroke-width:1.0;"/><polygon fill="#181818" points="2225.21,313.97,2217.482,307.8645,2220.366,312.731,2215.4995,315.615,2225.21,313.97" style="stroke:#181818;stroke-width:1.0;"/></g><!--SRC=[pLRRRXen47tdAwmyBIByGOJ49KIa9K50rMVZ7QYRnLxP9cJRvjyxU_VUp4fzAI_OuxcUEHula-TG2X26NE4GIcLeC5ikfo4dlmU3py5W45BsHaz0xkRoVBu8pgZXKf3fPgNl2DM4sMAqqsX8yCSAnoTgu4gZp6Tyzfd-SM507Ic3N6KkXL4o241bJlBVY6n1epiDZy9m4priCAM7fzHAJoRa16OQ1Bd0snd5nOc4gFLoEHz0tHDBjEE_e10S5GVX1z4BFPT2b8GIq_kcWaBcWsQAXt6PXKmZO4iEWL-HBBW25kiDtKLawKu8Ku3BREjb_paezsJ6XO- -qVeI67AmTtqZ83xPUXQj_1mVxj-mJ_KcM7i0HO9k3tdsbz3_vvgwUB83zSvnMv9aHAgCi0h-3zbGekJiV9k14zOsWzkT7v5toVtRFMvqOot5IMuXb9eRgQ9cE_OJSiJEuitquZqz19107Y_i-2lq6CjiWnr2b-1dA-wJurw5T5JGJYYh2FWms6zzkxZYRlKgiMaoYvOMsRPmWe-fy1zBhkMYHKcrHEIvk1gpOvwGoc_dQaUMMNEjMJqU_vdKBfnBfOJAfLLEU5lBcllZiIjeVl4jBIjkxTq95Hn1WM2WNM-FfTRw_ZJVdj8WcJFMtXjscst1g6WZ0ywG01gCjVUiDL7bkkUOx1hxUtu6UJ59jAh8gsvpBBDjZx0k55kdStdiXgp4eHz4BIClBwfHzGwOnAljBhvINur22PERbVPHhH6_dNGnhLlSrtXDB-Q7Yz3nUJycFr_DOl-Qa1YNtbUkJV7aQoP3q0wIhQdCbE_9w-4dld7fTzWNYBnXTsPjx4ZpG6E1xu21v-_xMxciQLWFdbRnfgl1Sx2IVbZnsmzhNQeX6RV7Tf5-8DU_cyU-DPqiXsrwuowET2XN4_eB]--></g></svg>