<?xml version="1.0" encoding="us-ascii" standalone="no"?><svg xmlns="http://www.w3.org/2000/svg" xmlns:xlink="http://www.w3.org/1999/xlink" contentStyleType="text/css" height="869px" preserveAspectRatio="none" style="width:2613px;height:869px;background:#FFFFFF;" version="1.1" viewBox="0 0 2613 869" width="2613px" zoomAndPan="magnify"><defs/><g><!--cluster communicationApis--><g id="cluster_communicationApis"><path d="M8.5,140 L151.5,140 A3.75,3.75 0 0 1 154,142.5 L161,164.6211 L2601.5,164.6211 A2.5,2.5 0 0 1 2604,167.1211 L2604,859.5 A2.5,2.5 0 0 1 2601.5,862 L8.5,862 A2.5,2.5 0 0 1 6,859.5 L6,142.5 A2.5,2.5 0 0 1 8.5,140 " fill="none" style="stroke:#000000;stroke-width:1.5;"/><line style="stroke:#000000;stroke-width:1.5;" x1="6" x2="161" y1="164.6211" y2="164.6211"/><text fill="#000000" font-family="sans-serif" font-size="14" font-weight="bold" lengthAdjust="spacing" textLength="142" x="10" y="157.1074">Communication APIs</text></g><!--entity webportalBFFApi--><g id="elem_webportalBFFApi"><rect fill="#F1F1F1" height="48.6211" rx="2.5" ry="2.5" style="stroke:#181818;stroke-width:0.5;" width="148" x="576" y="7"/><rect fill="#F1F1F1" height="10" style="stroke:#181818;stroke-width:0.5;" width="15" x="704" y="12"/><rect fill="#F1F1F1" height="2" style="stroke:#181818;stroke-width:0.5;" width="4" x="702" y="14"/><rect fill="#F1F1F1" height="2" style="stroke:#181818;stroke-width:0.5;" width="4" x="702" y="18"/><text fill="#000000" font-family="sans-serif" font-size="14" lengthAdjust="spacing" textLength="108" x="591" y="42.1074">webportalBFFApi</text></g><!--class gatewayController--><g id="elem_gatewayController"><rect codeLine="12" fill="#F1F1F1" height="141.1055" id="gatewayController" rx="2.5" ry="2.5" style="stroke:#181818;stroke-width:0.5;" width="1195" x="878.5" y="359"/><ellipse cx="1414.75" cy="375" fill="#B4A7E5" rx="11" ry="11" style="stroke:#181818;stroke-width:1.0;"/><path d="M1415.7031,371.6406 L1415.7031,378.2969 L1417.4219,378.2969 Q1418.0313,378.2969 1418.2969,378.5313 Q1418.5625,378.7656 1418.5625,379.1563 Q1418.5625,379.5313 1418.2969,379.7656 Q1418.0313,380 1417.4219,380 L1412.2813,380 Q1411.6719,380 1411.4063,379.7656 Q1411.1406,379.5313 1411.1406,379.1406 Q1411.1406,378.7656 1411.4063,378.5313 Q1411.6719,378.2969 1412.2813,378.2969 L1414,378.2969 L1414,371.6406 L1412.2813,371.6406 Q1411.6719,371.6406 1411.4063,371.4063 Q1411.1406,371.1719 1411.1406,370.7813 Q1411.1406,370.4063 1411.4063,370.1719 Q1411.6719,369.9375 1412.2813,369.9375 L1417.4219,369.9375 Q1418.0313,369.9375 1418.2969,370.1719 Q1418.5625,370.4063 1418.5625,370.7813 Q1418.5625,371.1719 1418.2969,371.4063 Q1418.0313,371.6406 1417.4219,371.6406 L1415.7031,371.6406 Z " fill="#000000"/><text fill="#000000" font-family="sans-serif" font-size="14" font-style="italic" lengthAdjust="spacing" textLength="114" x="1435.25" y="380.7969">gatewayController</text><line style="stroke:#181818;stroke-width:0.5;" x1="879.5" x2="2072.5" y1="391" y2="391"/><line style="stroke:#181818;stroke-width:0.5;" x1="879.5" x2="2072.5" y1="399" y2="399"/><ellipse cx="889.5" cy="413.8105" fill="#84BE84" rx="3" ry="3" style="stroke:#038048;stroke-width:1.0;"/><text fill="#000000" font-family="sans-serif" font-size="14" lengthAdjust="spacing" textLength="1169" x="898.5" y="418.1074">ResponseEntity&lt;Page&lt;Gateways&gt;&gt; getAllGateways(String pageNumber, String pageSize, String friendlyName, String endpointUrl, String description, String sortField, String sortDirection)</text><ellipse cx="889.5" cy="432.4316" fill="#84BE84" rx="3" ry="3" style="stroke:#038048;stroke-width:1.0;"/><text fill="#000000" font-family="sans-serif" font-size="14" lengthAdjust="spacing" textLength="575" x="898.5" y="436.7285">ResponseEntity&lt;Gateway&gt; createGateway(Gateway gateway, BindingResult bindingResult)</text><ellipse cx="889.5" cy="451.0527" fill="#84BE84" rx="3" ry="3" style="stroke:#038048;stroke-width:1.0;"/><text fill="#000000" font-family="sans-serif" font-size="14" lengthAdjust="spacing" textLength="338" x="898.5" y="455.3496">ResponseEntity&lt;Gateway&gt; getGatewayById(String id)</text><ellipse cx="889.5" cy="469.6738" fill="#84BE84" rx="3" ry="3" style="stroke:#038048;stroke-width:1.0;"/><text fill="#000000" font-family="sans-serif" font-size="14" lengthAdjust="spacing" textLength="339" x="898.5" y="473.9707">ResponseEntity&lt;String&gt; deleteGatewayById(String id)</text><ellipse cx="889.5" cy="488.2949" fill="#84BE84" rx="3" ry="3" style="stroke:#038048;stroke-width:1.0;"/><text fill="#000000" font-family="sans-serif" font-size="14" lengthAdjust="spacing" textLength="464" x="898.5" y="492.5918">Gateway updateGateway(Gateway gateway, BindingResult bindingResult)</text></g><!--class gatewayService--><g id="elem_gatewayService"><rect codeLine="20" fill="#F1F1F1" height="141.1055" id="gatewayService" rx="2.5" ry="2.5" style="stroke:#181818;stroke-width:0.5;" width="1065" x="1045.5" y="560"/><ellipse cx="1524.75" cy="576" fill="#B4A7E5" rx="11" ry="11" style="stroke:#181818;stroke-width:1.0;"/><path d="M1525.7031,572.6406 L1525.7031,579.2969 L1527.4219,579.2969 Q1528.0313,579.2969 1528.2969,579.5313 Q1528.5625,579.7656 1528.5625,580.1563 Q1528.5625,580.5313 1528.2969,580.7656 Q1528.0313,581 1527.4219,581 L1522.2813,581 Q1521.6719,581 1521.4063,580.7656 Q1521.1406,580.5313 1521.1406,580.1406 Q1521.1406,579.7656 1521.4063,579.5313 Q1521.6719,579.2969 1522.2813,579.2969 L1524,579.2969 L1524,572.6406 L1522.2813,572.6406 Q1521.6719,572.6406 1521.4063,572.4063 Q1521.1406,572.1719 1521.1406,571.7813 Q1521.1406,571.4063 1521.4063,571.1719 Q1521.6719,570.9375 1522.2813,570.9375 L1527.4219,570.9375 Q1528.0313,570.9375 1528.2969,571.1719 Q1528.5625,571.4063 1528.5625,571.7813 Q1528.5625,572.1719 1528.2969,572.4063 Q1528.0313,572.6406 1527.4219,572.6406 L1525.7031,572.6406 Z " fill="#000000"/><text fill="#000000" font-family="sans-serif" font-size="14" font-style="italic" lengthAdjust="spacing" textLength="98" x="1545.25" y="581.7969">gatewayService</text><line style="stroke:#181818;stroke-width:0.5;" x1="1046.5" x2="2109.5" y1="592" y2="592"/><line style="stroke:#181818;stroke-width:0.5;" x1="1046.5" x2="2109.5" y1="600" y2="600"/><ellipse cx="1056.5" cy="614.8105" fill="#84BE84" rx="3" ry="3" style="stroke:#038048;stroke-width:1.0;"/><text fill="#000000" font-family="sans-serif" font-size="14" lengthAdjust="spacing" textLength="1039" x="1065.5" y="619.1074">Page&lt;Gateways&gt; getGateways(String pageNumber, String pageSize, String friendlyName, String endpointUrl, String description, String sortField, String sortDirection)</text><ellipse cx="1056.5" cy="633.4316" fill="#84BE84" rx="3" ry="3" style="stroke:#038048;stroke-width:1.0;"/><text fill="#000000" font-family="sans-serif" font-size="14" lengthAdjust="spacing" textLength="275" x="1065.5" y="637.7285">Gateway createGateway(Gateway gateway)</text><ellipse cx="1056.5" cy="652.0527" fill="#84BE84" rx="3" ry="3" style="stroke:#038048;stroke-width:1.0;"/><text fill="#000000" font-family="sans-serif" font-size="14" lengthAdjust="spacing" textLength="279" x="1065.5" y="656.3496">Gateway updateGateway(Gateway gateway)</text><ellipse cx="1056.5" cy="670.6738" fill="#84BE84" rx="3" ry="3" style="stroke:#038048;stroke-width:1.0;"/><text fill="#000000" font-family="sans-serif" font-size="14" lengthAdjust="spacing" textLength="223" x="1065.5" y="674.9707">Gateway getGatewayById(String id)</text><ellipse cx="1056.5" cy="689.2949" fill="#84BE84" rx="3" ry="3" style="stroke:#038048;stroke-width:1.0;"/><text fill="#000000" font-family="sans-serif" font-size="14" lengthAdjust="spacing" textLength="213" x="1065.5" y="693.5918">void deleteGatewayById(String id)</text></g><!--class PagingAndSortingRepository--><g id="elem_PagingAndSortingRepository"><rect codeLine="28" fill="#F1F1F1" height="122.4844" id="PagingAndSortingRepository" rx="2.5" ry="2.5" style="stroke:#181818;stroke-width:0.5;" width="259" x="2328.5" y="177"/><ellipse cx="2363.75" cy="193" fill="#B4A7E5" rx="11" ry="11" style="stroke:#181818;stroke-width:1.0;"/><path d="M2364.7031,189.6406 L2364.7031,196.2969 L2366.4219,196.2969 Q2367.0313,196.2969 2367.2969,196.5313 Q2367.5625,196.7656 2367.5625,197.1563 Q2367.5625,197.5313 2367.2969,197.7656 Q2367.0313,198 2366.4219,198 L2361.2813,198 Q2360.6719,198 2360.4063,197.7656 Q2360.1406,197.5313 2360.1406,197.1406 Q2360.1406,196.7656 2360.4063,196.5313 Q2360.6719,196.2969 2361.2813,196.2969 L2363,196.2969 L2363,189.6406 L2361.2813,189.6406 Q2360.6719,189.6406 2360.4063,189.4063 Q2360.1406,189.1719 2360.1406,188.7813 Q2360.1406,188.4063 2360.4063,188.1719 Q2360.6719,187.9375 2361.2813,187.9375 L2366.4219,187.9375 Q2367.0313,187.9375 2367.2969,188.1719 Q2367.5625,188.4063 2367.5625,188.7813 Q2367.5625,189.1719 2367.2969,189.4063 Q2367.0313,189.6406 2366.4219,189.6406 L2364.7031,189.6406 Z " fill="#000000"/><text fill="#000000" font-family="sans-serif" font-size="14" font-style="italic" lengthAdjust="spacing" textLength="182" x="2382.25" y="198.7969">PagingAndSortingRepository</text><line style="stroke:#181818;stroke-width:0.5;" x1="2329.5" x2="2586.5" y1="209" y2="209"/><line style="stroke:#181818;stroke-width:0.5;" x1="2329.5" x2="2586.5" y1="217" y2="217"/><ellipse cx="2339.5" cy="231.8105" fill="#84BE84" rx="3" ry="3" style="stroke:#038048;stroke-width:1.0;"/><text fill="#000000" font-family="sans-serif" font-size="14" lengthAdjust="spacing" textLength="233" x="2348.5" y="236.1074">Page&lt;T&gt; findAll(Pageable pageable)</text><ellipse cx="2339.5" cy="250.4316" fill="#84BE84" rx="3" ry="3" style="stroke:#038048;stroke-width:1.0;"/><text fill="#000000" font-family="sans-serif" font-size="14" lengthAdjust="spacing" textLength="178" x="2348.5" y="254.7285">Iterable&lt;T&gt; findAll(Sort sort)</text><ellipse cx="2339.5" cy="269.0527" fill="#84BE84" rx="3" ry="3" style="stroke:#038048;stroke-width:1.0;"/><text fill="#000000" font-family="sans-serif" font-size="14" lengthAdjust="spacing" textLength="125" x="2348.5" y="273.3496">T findById(String id)</text><ellipse cx="2339.5" cy="287.6738" fill="#84BE84" rx="3" ry="3" style="stroke:#038048;stroke-width:1.0;"/><text fill="#000000" font-family="sans-serif" font-size="14" lengthAdjust="spacing" textLength="158" x="2348.5" y="291.9707">void deleteById(String id)</text></g><!--class gatewayRepository--><g id="elem_gatewayRepository"><rect codeLine="36" fill="#F1F1F1" height="85.2422" id="gatewayRepository" rx="2.5" ry="2.5" style="stroke:#181818;stroke-width:0.5;" width="1084" x="1036" y="761"/><ellipse cx="1513.75" cy="777" fill="#B4A7E5" rx="11" ry="11" style="stroke:#181818;stroke-width:1.0;"/><path d="M1514.7031,773.6406 L1514.7031,780.2969 L1516.4219,780.2969 Q1517.0313,780.2969 1517.2969,780.5313 Q1517.5625,780.7656 1517.5625,781.1563 Q1517.5625,781.5313 1517.2969,781.7656 Q1517.0313,782 1516.4219,782 L1511.2813,782 Q1510.6719,782 1510.4063,781.7656 Q1510.1406,781.5313 1510.1406,781.1406 Q1510.1406,780.7656 1510.4063,780.5313 Q1510.6719,780.2969 1511.2813,780.2969 L1513,780.2969 L1513,773.6406 L1511.2813,773.6406 Q1510.6719,773.6406 1510.4063,773.4063 Q1510.1406,773.1719 1510.1406,772.7813 Q1510.1406,772.4063 1510.4063,772.1719 Q1510.6719,771.9375 1511.2813,771.9375 L1516.4219,771.9375 Q1517.0313,771.9375 1517.2969,772.1719 Q1517.5625,772.4063 1517.5625,772.7813 Q1517.5625,773.1719 1517.2969,773.4063 Q1517.0313,773.6406 1516.4219,773.6406 L1514.7031,773.6406 Z " fill="#000000"/><text fill="#000000" font-family="sans-serif" font-size="14" font-style="italic" lengthAdjust="spacing" textLength="120" x="1534.25" y="782.7969">gatewayRepository</text><line style="stroke:#181818;stroke-width:0.5;" x1="1037" x2="2119" y1="793" y2="793"/><line style="stroke:#181818;stroke-width:0.5;" x1="1037" x2="2119" y1="801" y2="801"/><ellipse cx="1047" cy="815.8105" fill="#84BE84" rx="3" ry="3" style="stroke:#038048;stroke-width:1.0;"/><text fill="#000000" font-family="sans-serif" font-size="14" lengthAdjust="spacing" textLength="279" x="1056" y="820.1074">Page&lt;Gateway&gt; findAll(Pageable pageable)</text><ellipse cx="1047" cy="834.4316" fill="#84BE84" rx="3" ry="3" style="stroke:#038048;stroke-width:1.0;"/><text fill="#000000" font-family="sans-serif" font-size="14" lengthAdjust="spacing" textLength="1058" x="1056" y="838.7285">Page&lt;Gateway&gt; findByFriendlyNameRegexAndEndpointUrlRegexAndDescriptionRegex(String friendlyName, String dateCreated, String description, Pageable pageable)</text></g><!--class MongoRepository--><g id="elem_MongoRepository"><rect fill="#F1F1F1" height="48" id="MongoRepository" rx="2.5" ry="2.5" style="stroke:#181818;stroke-width:0.5;" width="144" x="866" y="606.5"/><ellipse cx="881" cy="622.5" fill="#B4A7E5" rx="11" ry="11" style="stroke:#181818;stroke-width:1.0;"/><path d="M881.9531,619.1406 L881.9531,625.7969 L883.6719,625.7969 Q884.2813,625.7969 884.5469,626.0313 Q884.8125,626.2656 884.8125,626.6563 Q884.8125,627.0313 884.5469,627.2656 Q884.2813,627.5 883.6719,627.5 L878.5313,627.5 Q877.9219,627.5 877.6563,627.2656 Q877.3906,627.0313 877.3906,626.6406 Q877.3906,626.2656 877.6563,626.0313 Q877.9219,625.7969 878.5313,625.7969 L880.25,625.7969 L880.25,619.1406 L878.5313,619.1406 Q877.9219,619.1406 877.6563,618.9063 Q877.3906,618.6719 877.3906,618.2813 Q877.3906,617.9063 877.6563,617.6719 Q877.9219,617.4375 878.5313,617.4375 L883.6719,617.4375 Q884.2813,617.4375 884.5469,617.6719 Q884.8125,617.9063 884.8125,618.2813 Q884.8125,618.6719 884.5469,618.9063 Q884.2813,619.1406 883.6719,619.1406 L881.9531,619.1406 Z " fill="#000000"/><text fill="#000000" font-family="sans-serif" font-size="14" font-style="italic" lengthAdjust="spacing" textLength="112" x="895" y="628.2969">MongoRepository</text><line style="stroke:#181818;stroke-width:0.5;" x1="867" x2="1009" y1="638.5" y2="638.5"/><line style="stroke:#181818;stroke-width:0.5;" x1="867" x2="1009" y1="646.5" y2="646.5"/></g><!--class preferencesController--><g id="elem_preferencesController"><rect codeLine="51" fill="#F1F1F1" height="103.8633" id="preferencesController" rx="2.5" ry="2.5" style="stroke:#181818;stroke-width:0.5;" width="784" x="22" y="377.5"/><ellipse cx="340.75" cy="393.5" fill="#B4A7E5" rx="11" ry="11" style="stroke:#181818;stroke-width:1.0;"/><path d="M341.7031,390.1406 L341.7031,396.7969 L343.4219,396.7969 Q344.0313,396.7969 344.2969,397.0313 Q344.5625,397.2656 344.5625,397.6563 Q344.5625,398.0313 344.2969,398.2656 Q344.0313,398.5 343.4219,398.5 L338.2813,398.5 Q337.6719,398.5 337.4063,398.2656 Q337.1406,398.0313 337.1406,397.6406 Q337.1406,397.2656 337.4063,397.0313 Q337.6719,396.7969 338.2813,396.7969 L340,396.7969 L340,390.1406 L338.2813,390.1406 Q337.6719,390.1406 337.4063,389.9063 Q337.1406,389.6719 337.1406,389.2813 Q337.1406,388.9063 337.4063,388.6719 Q337.6719,388.4375 338.2813,388.4375 L343.4219,388.4375 Q344.0313,388.4375 344.2969,388.6719 Q344.5625,388.9063 344.5625,389.2813 Q344.5625,389.6719 344.2969,389.9063 Q344.0313,390.1406 343.4219,390.1406 L341.7031,390.1406 Z " fill="#000000"/><text fill="#000000" font-family="sans-serif" font-size="14" font-style="italic" lengthAdjust="spacing" textLength="138" x="361.25" y="399.2969">preferencesController</text><line style="stroke:#181818;stroke-width:0.5;" x1="23" x2="805" y1="409.5" y2="409.5"/><line style="stroke:#181818;stroke-width:0.5;" x1="23" x2="805" y1="417.5" y2="417.5"/><ellipse cx="33" cy="432.3105" fill="#84BE84" rx="3" ry="3" style="stroke:#038048;stroke-width:1.0;"/><text fill="#000000" font-family="sans-serif" font-size="14" lengthAdjust="spacing" textLength="303" x="42" y="436.6074">ResponseEntity&lt;Preferences&gt; getPreferences()</text><ellipse cx="33" cy="450.9316" fill="#84BE84" rx="3" ry="3" style="stroke:#038048;stroke-width:1.0;"/><text fill="#000000" font-family="sans-serif" font-size="14" lengthAdjust="spacing" textLength="616" x="42" y="455.2285">ResponseEntity&lt;RetryPolicy&gt; setRetryPolicy(RetryPolicy retryPolicy, BindingResult bindingResult)</text><ellipse cx="33" cy="469.5527" fill="#84BE84" rx="3" ry="3" style="stroke:#038048;stroke-width:1.0;"/><text fill="#000000" font-family="sans-serif" font-size="14" lengthAdjust="spacing" textLength="758" x="42" y="473.8496">ResponseEntity&lt;GatewayTimeout&gt; setGatewayTimeout(GatewayTimeout gatewayTimeout, BindingResult bindingResult)</text></g><!--class preferencesService--><g id="elem_preferencesService"><rect codeLine="57" fill="#F1F1F1" height="103.8633" id="preferencesService" rx="2.5" ry="2.5" style="stroke:#181818;stroke-width:0.5;" width="539" x="217.5" y="578.5"/><ellipse cx="421.75" cy="594.5" fill="#B4A7E5" rx="11" ry="11" style="stroke:#181818;stroke-width:1.0;"/><path d="M422.7031,591.1406 L422.7031,597.7969 L424.4219,597.7969 Q425.0313,597.7969 425.2969,598.0313 Q425.5625,598.2656 425.5625,598.6563 Q425.5625,599.0313 425.2969,599.2656 Q425.0313,599.5 424.4219,599.5 L419.2813,599.5 Q418.6719,599.5 418.4063,599.2656 Q418.1406,599.0313 418.1406,598.6406 Q418.1406,598.2656 418.4063,598.0313 Q418.6719,597.7969 419.2813,597.7969 L421,597.7969 L421,591.1406 L419.2813,591.1406 Q418.6719,591.1406 418.4063,590.9063 Q418.1406,590.6719 418.1406,590.2813 Q418.1406,589.9063 418.4063,589.6719 Q418.6719,589.4375 419.2813,589.4375 L424.4219,589.4375 Q425.0313,589.4375 425.2969,589.6719 Q425.5625,589.9063 425.5625,590.2813 Q425.5625,590.6719 425.2969,590.9063 Q425.0313,591.1406 424.4219,591.1406 L422.7031,591.1406 Z " fill="#000000"/><text fill="#000000" font-family="sans-serif" font-size="14" font-style="italic" lengthAdjust="spacing" textLength="122" x="442.25" y="600.2969">preferencesService</text><line style="stroke:#181818;stroke-width:0.5;" x1="218.5" x2="755.5" y1="610.5" y2="610.5"/><line style="stroke:#181818;stroke-width:0.5;" x1="218.5" x2="755.5" y1="618.5" y2="618.5"/><ellipse cx="228.5" cy="633.3105" fill="#84BE84" rx="3" ry="3" style="stroke:#038048;stroke-width:1.0;"/><text fill="#000000" font-family="sans-serif" font-size="14" lengthAdjust="spacing" textLength="188" x="237.5" y="637.6074">Preferences getPreferences()</text><ellipse cx="228.5" cy="651.9316" fill="#84BE84" rx="3" ry="3" style="stroke:#038048;stroke-width:1.0;"/><text fill="#000000" font-family="sans-serif" font-size="14" lengthAdjust="spacing" textLength="316" x="237.5" y="656.2285">RetryPolicy setRetryPolicy(RetryPolicy retryPolicy)</text><ellipse cx="228.5" cy="670.5527" fill="#84BE84" rx="3" ry="3" style="stroke:#038048;stroke-width:1.0;"/><text fill="#000000" font-family="sans-serif" font-size="14" lengthAdjust="spacing" textLength="513" x="237.5" y="674.8496">GatewayTimeout setGatewayTimeoutSeconds(GatewayTimeout gatewayTimeout)</text></g><!--class authController--><g id="elem_authController"><rect codeLine="71" fill="#F1F1F1" height="85.2422" id="authController" rx="2.5" ry="2.5" style="stroke:#181818;stroke-width:0.5;" width="367" x="2183.5" y="387"/><ellipse cx="2317.75" cy="403" fill="#B4A7E5" rx="11" ry="11" style="stroke:#181818;stroke-width:1.0;"/><path d="M2318.7031,399.6406 L2318.7031,406.2969 L2320.4219,406.2969 Q2321.0313,406.2969 2321.2969,406.5313 Q2321.5625,406.7656 2321.5625,407.1563 Q2321.5625,407.5313 2321.2969,407.7656 Q2321.0313,408 2320.4219,408 L2315.2813,408 Q2314.6719,408 2314.4063,407.7656 Q2314.1406,407.5313 2314.1406,407.1406 Q2314.1406,406.7656 2314.4063,406.5313 Q2314.6719,406.2969 2315.2813,406.2969 L2317,406.2969 L2317,399.6406 L2315.2813,399.6406 Q2314.6719,399.6406 2314.4063,399.4063 Q2314.1406,399.1719 2314.1406,398.7813 Q2314.1406,398.4063 2314.4063,398.1719 Q2314.6719,397.9375 2315.2813,397.9375 L2320.4219,397.9375 Q2321.0313,397.9375 2321.2969,398.1719 Q2321.5625,398.4063 2321.5625,398.7813 Q2321.5625,399.1719 2321.2969,399.4063 Q2321.0313,399.6406 2320.4219,399.6406 L2318.7031,399.6406 Z " fill="#000000"/><text fill="#000000" font-family="sans-serif" font-size="14" font-style="italic" lengthAdjust="spacing" textLength="90" x="2338.25" y="408.7969">authController</text><line style="stroke:#181818;stroke-width:0.5;" x1="2184.5" x2="2549.5" y1="419" y2="419"/><line style="stroke:#181818;stroke-width:0.5;" x1="2184.5" x2="2549.5" y1="427" y2="427"/><ellipse cx="2194.5" cy="441.8105" fill="#84BE84" rx="3" ry="3" style="stroke:#038048;stroke-width:1.0;"/><text fill="#000000" font-family="sans-serif" font-size="14" lengthAdjust="spacing" textLength="341" x="2203.5" y="446.1074">ResponseEntity&lt;JwtDTO&gt; getJwt(List&lt;String&gt; scopes)</text><ellipse cx="2194.5" cy="460.4316" fill="#84BE84" rx="3" ry="3" style="stroke:#038048;stroke-width:1.0;"/><text fill="#000000" font-family="sans-serif" font-size="14" lengthAdjust="spacing" textLength="302" x="2203.5" y="464.7285">ResponseEntity&lt;Mao&lt;String, Object&gt;&gt; getKey()</text></g><!--class authService--><g id="elem_authService"><rect codeLine="76" fill="#F1F1F1" height="85.2422" id="authService" rx="2.5" ry="2.5" style="stroke:#181818;stroke-width:0.5;" width="298" x="2254" y="588"/><ellipse cx="2361.75" cy="604" fill="#B4A7E5" rx="11" ry="11" style="stroke:#181818;stroke-width:1.0;"/><path d="M2362.7031,600.6406 L2362.7031,607.2969 L2364.4219,607.2969 Q2365.0313,607.2969 2365.2969,607.5313 Q2365.5625,607.7656 2365.5625,608.1563 Q2365.5625,608.5313 2365.2969,608.7656 Q2365.0313,609 2364.4219,609 L2359.2813,609 Q2358.6719,609 2358.4063,608.7656 Q2358.1406,608.5313 2358.1406,608.1406 Q2358.1406,607.7656 2358.4063,607.5313 Q2358.6719,607.2969 2359.2813,607.2969 L2361,607.2969 L2361,600.6406 L2359.2813,600.6406 Q2358.6719,600.6406 2358.4063,600.4063 Q2358.1406,600.1719 2358.1406,599.7813 Q2358.1406,599.4063 2358.4063,599.1719 Q2358.6719,598.9375 2359.2813,598.9375 L2364.4219,598.9375 Q2365.0313,598.9375 2365.2969,599.1719 Q2365.5625,599.4063 2365.5625,599.7813 Q2365.5625,600.1719 2365.2969,600.4063 Q2365.0313,600.6406 2364.4219,600.6406 L2362.7031,600.6406 Z " fill="#000000"/><text fill="#000000" font-family="sans-serif" font-size="14" font-style="italic" lengthAdjust="spacing" textLength="74" x="2382.25" y="609.7969">authService</text><line style="stroke:#181818;stroke-width:0.5;" x1="2255" x2="2551" y1="620" y2="620"/><line style="stroke:#181818;stroke-width:0.5;" x1="2255" x2="2551" y1="628" y2="628"/><ellipse cx="2265" cy="642.8105" fill="#84BE84" rx="3" ry="3" style="stroke:#038048;stroke-width:1.0;"/><text fill="#000000" font-family="sans-serif" font-size="14" lengthAdjust="spacing" textLength="272" x="2274" y="647.1074">JwtDTO generateJWT(List&lt;String&gt; scopes)</text><ellipse cx="2265" cy="661.4316" fill="#84BE84" rx="3" ry="3" style="stroke:#038048;stroke-width:1.0;"/><text fill="#000000" font-family="sans-serif" font-size="14" lengthAdjust="spacing" textLength="192" x="2274" y="665.7285">Map&lt;String, Object&gt; getJwks()</text></g><!--entity gatewayApi--><g id="elem_gatewayApi"><rect fill="#F1F1F1" height="48.6211" rx="2.5" ry="2.5" style="stroke:#181818;stroke-width:0.5;" width="112" x="2054" y="213.5"/><rect fill="#F1F1F1" height="10" style="stroke:#181818;stroke-width:0.5;" width="15" x="2146" y="218.5"/><rect fill="#F1F1F1" height="2" style="stroke:#181818;stroke-width:0.5;" width="4" x="2144" y="220.5"/><rect fill="#F1F1F1" height="2" style="stroke:#181818;stroke-width:0.5;" width="4" x="2144" y="224.5"/><text fill="#000000" font-family="sans-serif" font-size="14" lengthAdjust="spacing" textLength="72" x="2069" y="248.6074">gatewayApi</text></g><!--entity preferencesApi--><g id="elem_preferencesApi"><rect fill="#F1F1F1" height="48.6211" rx="2.5" ry="2.5" style="stroke:#181818;stroke-width:0.5;" width="136" x="774" y="213.5"/><rect fill="#F1F1F1" height="10" style="stroke:#181818;stroke-width:0.5;" width="15" x="890" y="218.5"/><rect fill="#F1F1F1" height="2" style="stroke:#181818;stroke-width:0.5;" width="4" x="888" y="220.5"/><rect fill="#F1F1F1" height="2" style="stroke:#181818;stroke-width:0.5;" width="4" x="888" y="224.5"/><text fill="#000000" font-family="sans-serif" font-size="14" lengthAdjust="spacing" textLength="96" x="789" y="248.6074">preferencesApi</text></g><!--entity authApi--><g id="elem_authApi"><rect fill="#F1F1F1" height="48.6211" rx="2.5" ry="2.5" style="stroke:#181818;stroke-width:0.5;" width="88" x="2205" y="213.5"/><rect fill="#F1F1F1" height="10" style="stroke:#181818;stroke-width:0.5;" width="15" x="2273" y="218.5"/><rect fill="#F1F1F1" height="2" style="stroke:#181818;stroke-width:0.5;" width="4" x="2271" y="220.5"/><rect fill="#F1F1F1" height="2" style="stroke:#181818;stroke-width:0.5;" width="4" x="2271" y="224.5"/><text fill="#000000" font-family="sans-serif" font-size="14" lengthAdjust="spacing" textLength="48" x="2220" y="248.6074">authApi</text></g><!--reverse link MongoRepository to gatewayRepository--><g id="link_MongoRepository_gatewayRepository"><path d="M974.825,666.8824 C991.875,682.3924 1002.94,689.81 1028,701 C1086.51,727.13 1151.41,746.54 1215.52,760.95 " fill="none" id="MongoRepository-backto-gatewayRepository" style="stroke:#181818;stroke-width:1.0;"/><polygon fill="none" points="961.51,654.77,970.7876,671.3207,978.8625,662.444,961.51,654.77" style="stroke:#181818;stroke-width:1.0;"/></g><!--link gatewayApi to gatewayService--><g id="link_gatewayApi_gatewayService"><path codeLine="41" d="M2116.42,262.51 C2128.57,312.64 2148.82,431.09 2091,500 C2071.44,523.31 2044.8493,537.9213 1990.6793,554.6413 " fill="none" id="gatewayApi-to-gatewayService" style="stroke:#181818;stroke-width:1.0;"/><polygon fill="none" points="1973.48,559.95,1992.4489,560.3744,1988.9098,548.9082,1973.48,559.95" style="stroke:#181818;stroke-width:1.0;"/></g><!--link gatewayApi to gatewayRepository--><g id="link_gatewayApi_gatewayRepository"><path codeLine="42" d="M2114.89,262.65 C2131.8,347.33 2183.84,633.91 2128,701 C2106.26,727.12 2072.83,742.5068 2010.23,756.9368 " fill="none" id="gatewayApi-to-gatewayRepository" style="stroke:#181818;stroke-width:1.0;"/><polygon fill="none" points="1992.69,760.98,2011.5778,762.7835,2008.8823,751.0901,1992.69,760.98" style="stroke:#181818;stroke-width:1.0;"/></g><!--link gatewayApi to gatewayController--><g id="link_gatewayApi_gatewayController"><path codeLine="43" d="M2053.74,255.82 C1976.61,278.87 1850.6562,316.5154 1726.1262,353.7354 " fill="none" id="gatewayApi-to-gatewayController" style="stroke:#181818;stroke-width:1.0;"/><polygon fill="none" points="1708.88,358.89,1727.8444,359.4841,1724.408,347.9867,1708.88,358.89" style="stroke:#181818;stroke-width:1.0;"/></g><!--link gatewayController to gatewayService--><g id="link_gatewayController_gatewayService"><path codeLine="44" d="M1511.67,500.1 C1521.61,519.49 1529.6729,535.2107 1539.6129,554.6007 " fill="none" id="gatewayController-to-gatewayService" style="stroke:#181818;stroke-width:1.0;"/><polygon fill="#181818" points="1542.35,559.94,1541.8039,550.1063,1540.0691,555.4906,1534.6848,553.7558,1542.35,559.94" style="stroke:#181818;stroke-width:1.0;"/></g><!--link gatewayService to gatewayRepository--><g id="link_gatewayService_gatewayRepository"><path codeLine="45" d="M1578,701.05 C1578,721.39 1578,736.99 1578,755 " fill="none" id="gatewayService-to-gatewayRepository" style="stroke:#181818;stroke-width:1.0;"/><polygon fill="#181818" points="1578,761,1582,752,1578,756,1574,752,1578,761" style="stroke:#181818;stroke-width:1.0;"/></g><!--link preferencesApi to preferencesService--><g id="link_preferencesApi_preferencesService"><path codeLine="63" d="M848.05,262.73 C859.17,312.27 877.18,428.04 824,500 C798.48,534.53 778.744,552.1165 739.714,570.6865 " fill="none" id="preferencesApi-to-preferencesService" style="stroke:#181818;stroke-width:1.0;"/><polygon fill="none" points="723.46,578.42,742.2919,576.1045,737.1362,565.2685,723.46,578.42" style="stroke:#181818;stroke-width:1.0;"/></g><!--link preferencesApi to preferencesController--><g id="link_preferencesApi_preferencesController"><path codeLine="64" d="M788.66,262.62 C724.12,291.19 630.0988,332.8225 545.7888,370.1525 " fill="none" id="preferencesApi-to-preferencesController" style="stroke:#181818;stroke-width:1.0;"/><polygon fill="none" points="529.33,377.44,548.218,375.6388,543.3597,364.6662,529.33,377.44" style="stroke:#181818;stroke-width:1.0;"/></g><!--link preferencesController to preferencesService--><g id="link_preferencesController_preferencesService"><path codeLine="65" d="M432.8,481.75 C443.7,511.46 455.3155,543.1064 466.1955,572.7964 " fill="none" id="preferencesController-to-preferencesService" style="stroke:#181818;stroke-width:1.0;"/><polygon fill="#181818" points="468.26,578.43,468.9191,568.6032,466.5396,573.7353,461.4075,571.3558,468.26,578.43" style="stroke:#181818;stroke-width:1.0;"/></g><!--link authApi to authService--><g id="link_authApi_authService"><path codeLine="81" d="M2267.91,262.71 C2279.15,275.29 2294.43,289.97 2311,299 C2413.98,355.15 2495.1,267.12 2568,359 C2606.95,408.09 2595.41,443.65 2568,500 C2550.08,536.84 2531.075,556.398 2498.545,577.858 " fill="none" id="authApi-to-authService" style="stroke:#181818;stroke-width:1.0;"/><polygon fill="none" points="2483.52,587.77,2501.8491,582.8663,2495.241,572.8496,2483.52,587.77" style="stroke:#181818;stroke-width:1.0;"/></g><!--link authApi to authController--><g id="link_authApi_authController"><path codeLine="82" d="M2263.71,262.62 C2283.04,293.67 2307.8263,333.4696 2331.5663,371.5996 " fill="none" id="authApi-to-authController" style="stroke:#181818;stroke-width:1.0;"/><polygon fill="none" points="2341.08,386.88,2336.6598,368.4284,2326.4729,374.7708,2341.08,386.88" style="stroke:#181818;stroke-width:1.0;"/></g><!--link authController to authService--><g id="link_authController_authService"><path codeLine="83" d="M2374.55,472.22 C2380.69,506.18 2388.2522,547.9858 2394.3922,581.9358 " fill="none" id="authController-to-authService" style="stroke:#181818;stroke-width:1.0;"/><polygon fill="#181818" points="2395.46,587.84,2397.7944,578.2718,2394.5702,582.9198,2389.9222,579.6955,2395.46,587.84" style="stroke:#181818;stroke-width:1.0;"/></g><!--link webportalBFFApi to gatewayController--><g id="link_webportalBFFApi_gatewayController"><path codeLine="89" d="M645.92,56.06 C638.41,107.98 628.71,232.91 695,299 C715.33,319.27 799.6928,339.1164 912.0728,357.9864 " fill="none" id="webportalBFFApi-to-gatewayController" style="stroke:#181818;stroke-width:1.0;"/><polygon fill="#181818" points="917.99,358.98,909.7766,353.5449,913.059,358.152,908.4519,361.4344,917.99,358.98" style="stroke:#181818;stroke-width:1.0;"/></g><!--link webportalBFFApi to preferencesController--><g id="link_webportalBFFApi_preferencesController"><path codeLine="90" d="M635.94,56.09 C598.58,118.78 499.2213,285.4957 447.6313,372.0757 " fill="none" id="webportalBFFApi-to-preferencesController" style="stroke:#181818;stroke-width:1.0;"/><polygon fill="#181818" points="444.56,377.23,452.6032,371.546,447.1194,372.9347,445.7307,367.451,444.56,377.23" style="stroke:#181818;stroke-width:1.0;"/></g><!--link webportalBFFApi to authController--><g id="link_webportalBFFApi_authController"><path codeLine="91" d="M660.53,56.1 C669.42,76.19 682.35,105.86 693,132 C722.99,205.61 692.53,252.5 757,299 C877.33,385.8 1944.2,337.44 2091,359 C2135.12,365.48 2176.6271,374.5431 2219.3971,385.4831 " fill="none" id="webportalBFFApi-to-authController" style="stroke:#181818;stroke-width:1.0;"/><polygon fill="#181818" points="2225.21,386.97,2217.482,380.8645,2220.366,385.731,2215.4995,388.615,2225.21,386.97" style="stroke:#181818;stroke-width:1.0;"/></g><!--SRC=[pLRRRjim37tFLmXzSf3c3ue0kJH5kgKDaWnxLcGcq-f8XgGqzRR- - -YxV5CCx6L-iKIH57buJ9h9SoW524EkS0YbCZIOBPVJa9FVWy7dO308ANkZ9o1tSta-NmHdr70fo7IpqdU4Qi9iCTffD2JuiCBnYHguqYZp6PzzfYyk3AWZPP2hpAKmIWO1gCn9_ep85ZIwq_0e33VHmmP3UdXAhVHaGavWfa6G2xoTKLoSI8XQBvVp0TGziKGx_WiAmL5n47uGlT1pAKH9A36yRoeeP3vefdWOfrd8D0Asv13u5Sc2As2ntj2TH1RkX305kCosNlREGRadCovyz8tMby2GWxthUmFYawrdqShFyU7-3VjKRuAv1r04wFQGHty9_N_EgOidEr3l7BSbIKQaoWWhuV-G3ILApigt6JXXRJEuNVaHUPVSlrtZHZKGSZoV2d-7QIRb2wNcHggeMPdzX1onoFYHUl6U7W98q8yNTYWhT1xBR8FOVGAbhRXFZdlbr95CExUi9E33OEarMKjnagxaYi-iLufDarcqj7YtXHDy8AgF9UroqQ9aNIBoNBIDYJ9F-EMtqxOZogpELjiUZ_zCQj-UIwM4ogLLDdjRone1ux7hqhm7M5hMlRKH52euWWB1GBl6aANMEegQOwWqI5gEjVU6tMPRC2hQo80p9806O-qzQqrKkUxPCRicm9wVGLvCSbjLv5MtEPRPjiUrBXHR6tLvx8QinA4VH2tTBq-gaVKEcCHFsvry9RyQXH8cDpFjereZVZlfObgtkA_ncbxC3nUXu_D-J7w-ciN-DI4nBhslN9jY-cicGz0Eagsfp9JloUlX9uwxz9Vi2qJUi3koDdQaSQ2nm3bWuFdx_bOiQnhMBq-pUDFLotEmadfOzxSVrgfKGp8kZ-qY_LUk_qAFVQixMGxRzCPT7EbGhWRq5m00]--></g></svg>