<?xml version="1.0" encoding="us-ascii" standalone="no"?><svg xmlns="http://www.w3.org/2000/svg" xmlns:xlink="http://www.w3.org/1999/xlink" contentStyleType="text/css" height="499.8px" preserveAspectRatio="none" style="width:1009px;height:499px;background:#FFFFFF;" version="1.1" viewBox="0 0 1009 499" width="1009.2px" zoomAndPan="magnify"><defs/><g><!--cluster communicationApis--><g id="cluster_communicationApis"><path d="M5.1,84 L90.9,84 A2.25,2.25 0 0 1 92.4,85.5 L96.6,98.7727 L1003.5,98.7727 A1.5,1.5 0 0 1 1005,100.2727 L1005,494.1 A1.5,1.5 0 0 1 1003.5,495.6 L5.1,495.6 A1.5,1.5 0 0 1 3.6,494.1 L3.6,85.5 A1.5,1.5 0 0 1 5.1,84 " fill="none" style="stroke:#000000;stroke-width:0.8999999999999999;"/><line style="stroke:#000000;stroke-width:0.8999999999999999;" x1="3.6" x2="96.6" y1="98.7727" y2="98.7727"/><text fill="#000000" font-family="sans-serif" font-size="8.4" font-weight="bold" lengthAdjust="spacing" textLength="85.2" x="6" y="94.2645">Communication APIs</text></g><!--entity webportalBFFApi--><g id="elem_webportalBFFApi"><rect fill="#F1F1F1" height="29.1727" rx="1.5" ry="1.5" style="stroke:#181818;stroke-width:0.3;" width="88.8" x="130.8" y="4.2"/><rect fill="#F1F1F1" height="6" style="stroke:#181818;stroke-width:0.3;" width="9" x="207.6" y="7.2"/><rect fill="#F1F1F1" height="1.2" style="stroke:#181818;stroke-width:0.3;" width="2.4" x="206.4" y="8.4"/><rect fill="#F1F1F1" height="1.2" style="stroke:#181818;stroke-width:0.3;" width="2.4" x="206.4" y="10.8"/><text fill="#000000" font-family="sans-serif" font-size="8.4" lengthAdjust="spacing" textLength="64.8" x="139.8" y="25.2645">webportalBFFApi</text></g><!--class gatewayController--><g id="elem_gatewayController"><rect codeLine="12" fill="#F1F1F1" height="84.6633" id="gatewayController" rx="1.5" ry="1.5" style="stroke:#181818;stroke-width:0.3;" width="372.6" x="329.7" y="171.6"/><ellipse cx="479.25" cy="181.2" fill="#B4A7E5" rx="6.6" ry="6.6" style="stroke:#181818;stroke-width:0.6;"/><path d="M479.8219,179.1844 L479.8219,183.1781 L480.8531,183.1781 Q481.2188,183.1781 481.3781,183.3188 Q481.5375,183.4594 481.5375,183.6938 Q481.5375,183.9188 481.3781,184.0594 Q481.2188,184.2 480.8531,184.2 L477.7687,184.2 Q477.4031,184.2 477.2438,184.0594 Q477.0844,183.9188 477.0844,183.6844 Q477.0844,183.4594 477.2438,183.3188 Q477.4031,183.1781 477.7687,183.1781 L478.8,183.1781 L478.8,179.1844 L477.7687,179.1844 Q477.4031,179.1844 477.2438,179.0438 Q477.0844,178.9031 477.0844,178.6688 Q477.0844,178.4438 477.2438,178.3031 Q477.4031,178.1625 477.7687,178.1625 L480.8531,178.1625 Q481.2188,178.1625 481.3781,178.3031 Q481.5375,178.4438 481.5375,178.6688 Q481.5375,178.9031 481.3781,179.0438 Q481.2188,179.1844 480.8531,179.1844 L479.8219,179.1844 Z " fill="#000000"/><text fill="#000000" font-family="sans-serif" font-size="8.4" font-style="italic" lengthAdjust="spacing" textLength="68.4" x="491.55" y="184.6781">gatewayController</text><line style="stroke:#181818;stroke-width:0.3;" x1="330.3" x2="701.7" y1="190.8" y2="190.8"/><line style="stroke:#181818;stroke-width:0.3;" x1="330.3" x2="701.7" y1="195.6" y2="195.6"/><ellipse cx="336.3" cy="204.4863" fill="#84BE84" rx="1.8" ry="1.8" style="stroke:#038048;stroke-width:0.6;"/><text fill="#000000" font-family="sans-serif" font-size="8.4" lengthAdjust="spacing" textLength="311.4" x="341.7" y="207.0645">List&lt;Gateways&gt; getGateways(Optional&lt;int&gt; pageNumber, Optional&lt;int&gt; pageSize)</text><ellipse cx="336.3" cy="215.659" fill="#84BE84" rx="1.8" ry="1.8" style="stroke:#038048;stroke-width:0.6;"/><text fill="#000000" font-family="sans-serif" font-size="8.4" lengthAdjust="spacing" textLength="357" x="341.7" y="218.2371">Gateway createGateway(String endpointUrl, String friendlyName, Optional&lt;String&gt; description)</text><ellipse cx="336.3" cy="226.8316" fill="#84BE84" rx="1.8" ry="1.8" style="stroke:#038048;stroke-width:0.6;"/><text fill="#000000" font-family="sans-serif" font-size="8.4" lengthAdjust="spacing" textLength="167.4" x="341.7" y="229.4098">Gateway updateGateway(Gateway gateway)</text><ellipse cx="336.3" cy="238.0043" fill="#84BE84" rx="1.8" ry="1.8" style="stroke:#038048;stroke-width:0.6;"/><text fill="#000000" font-family="sans-serif" font-size="8.4" lengthAdjust="spacing" textLength="133.8" x="341.7" y="240.5824">Gateway getGatewayById(String id)</text><ellipse cx="336.3" cy="249.177" fill="#84BE84" rx="1.8" ry="1.8" style="stroke:#038048;stroke-width:0.6;"/><text fill="#000000" font-family="sans-serif" font-size="8.4" lengthAdjust="spacing" textLength="127.8" x="341.7" y="251.7551">void deleteGatewayById(String id)</text></g><!--class gatewayService--><g id="elem_gatewayService"><rect codeLine="20" fill="#F1F1F1" height="84.6633" id="gatewayService" rx="1.5" ry="1.5" style="stroke:#181818;stroke-width:0.3;" width="372.6" x="407.7" y="292.2"/><ellipse cx="562.05" cy="301.8" fill="#B4A7E5" rx="6.6" ry="6.6" style="stroke:#181818;stroke-width:0.6;"/><path d="M562.6219,299.7844 L562.6219,303.7781 L563.6531,303.7781 Q564.0188,303.7781 564.1781,303.9188 Q564.3375,304.0594 564.3375,304.2938 Q564.3375,304.5188 564.1781,304.6594 Q564.0188,304.8 563.6531,304.8 L560.5688,304.8 Q560.2031,304.8 560.0437,304.6594 Q559.8844,304.5188 559.8844,304.2844 Q559.8844,304.0594 560.0437,303.9188 Q560.2031,303.7781 560.5688,303.7781 L561.6,303.7781 L561.6,299.7844 L560.5688,299.7844 Q560.2031,299.7844 560.0437,299.6438 Q559.8844,299.5031 559.8844,299.2688 Q559.8844,299.0438 560.0437,298.9031 Q560.2031,298.7625 560.5688,298.7625 L563.6531,298.7625 Q564.0188,298.7625 564.1781,298.9031 Q564.3375,299.0438 564.3375,299.2688 Q564.3375,299.5031 564.1781,299.6438 Q564.0188,299.7844 563.6531,299.7844 L562.6219,299.7844 Z " fill="#000000"/><text fill="#000000" font-family="sans-serif" font-size="8.4" font-style="italic" lengthAdjust="spacing" textLength="58.8" x="574.35" y="305.2781">gatewayService</text><line style="stroke:#181818;stroke-width:0.3;" x1="408.3" x2="779.7" y1="311.4" y2="311.4"/><line style="stroke:#181818;stroke-width:0.3;" x1="408.3" x2="779.7" y1="316.2" y2="316.2"/><ellipse cx="414.3" cy="325.0863" fill="#84BE84" rx="1.8" ry="1.8" style="stroke:#038048;stroke-width:0.6;"/><text fill="#000000" font-family="sans-serif" font-size="8.4" lengthAdjust="spacing" textLength="228.6" x="419.7" y="327.6645">List&lt;Gateways&gt; getGateways(int pageNumber, int pageSize)</text><ellipse cx="414.3" cy="336.259" fill="#84BE84" rx="1.8" ry="1.8" style="stroke:#038048;stroke-width:0.6;"/><text fill="#000000" font-family="sans-serif" font-size="8.4" lengthAdjust="spacing" textLength="357" x="419.7" y="338.8371">Gateway createGateway(String endpointUrl, String friendlyName, Optional&lt;String&gt; description)</text><ellipse cx="414.3" cy="347.4316" fill="#84BE84" rx="1.8" ry="1.8" style="stroke:#038048;stroke-width:0.6;"/><text fill="#000000" font-family="sans-serif" font-size="8.4" lengthAdjust="spacing" textLength="167.4" x="419.7" y="350.0098">Gateway updateGateway(Gateway gateway)</text><ellipse cx="414.3" cy="358.6043" fill="#84BE84" rx="1.8" ry="1.8" style="stroke:#038048;stroke-width:0.6;"/><text fill="#000000" font-family="sans-serif" font-size="8.4" lengthAdjust="spacing" textLength="133.8" x="419.7" y="361.1824">Gateway getGatewayById(String id)</text><ellipse cx="414.3" cy="369.777" fill="#84BE84" rx="1.8" ry="1.8" style="stroke:#038048;stroke-width:0.6;"/><text fill="#000000" font-family="sans-serif" font-size="8.4" lengthAdjust="spacing" textLength="127.8" x="419.7" y="372.3551">void deleteGatewayById(String id)</text></g><!--class PagingAndSortingRepository--><g id="elem_PagingAndSortingRepository"><rect codeLine="28" fill="#F1F1F1" height="51.1453" id="PagingAndSortingRepository" rx="1.5" ry="1.5" style="stroke:#181818;stroke-width:0.3;" width="147" x="239.7" y="309"/><ellipse cx="257.07" cy="318.6" fill="#B4A7E5" rx="6.6" ry="6.6" style="stroke:#181818;stroke-width:0.6;"/><path d="M257.6419,316.5844 L257.6419,320.5781 L258.6731,320.5781 Q259.0388,320.5781 259.1981,320.7188 Q259.3575,320.8594 259.3575,321.0938 Q259.3575,321.3187 259.1981,321.4594 Q259.0388,321.6 258.6731,321.6 L255.5887,321.6 Q255.2231,321.6 255.0637,321.4594 Q254.9044,321.3187 254.9044,321.0844 Q254.9044,320.8594 255.0637,320.7188 Q255.2231,320.5781 255.5887,320.5781 L256.62,320.5781 L256.62,316.5844 L255.5887,316.5844 Q255.2231,316.5844 255.0637,316.4437 Q254.9044,316.3031 254.9044,316.0687 Q254.9044,315.8438 255.0637,315.7031 Q255.2231,315.5625 255.5887,315.5625 L258.6731,315.5625 Q259.0388,315.5625 259.1981,315.7031 Q259.3575,315.8438 259.3575,316.0687 Q259.3575,316.3031 259.1981,316.4437 Q259.0388,316.5844 258.6731,316.5844 L257.6419,316.5844 Z " fill="#000000"/><text fill="#000000" font-family="sans-serif" font-size="8.4" font-style="italic" lengthAdjust="spacing" textLength="109.2" x="267.33" y="322.0781">PagingAndSortingRepository</text><line style="stroke:#181818;stroke-width:0.3;" x1="240.3" x2="386.1" y1="328.2" y2="328.2"/><line style="stroke:#181818;stroke-width:0.3;" x1="240.3" x2="386.1" y1="333" y2="333"/><text fill="#000000" font-family="sans-serif" font-size="8.4" lengthAdjust="spacing" textLength="139.8" x="243.3" y="344.4645">Page&lt;T&gt; findAll(Pageable pageable)</text><text fill="#000000" font-family="sans-serif" font-size="8.4" lengthAdjust="spacing" textLength="106.8" x="243.3" y="355.6371">Iterable&lt;T&gt; findAll(Sort sort)</text></g><!--class gatewayRepository--><g id="elem_gatewayRepository"><rect codeLine="34" fill="#F1F1F1" height="73.4906" id="gatewayRepository" rx="1.5" ry="1.5" style="stroke:#181818;stroke-width:0.3;" width="189" x="499.5" y="412.8"/><ellipse cx="555.45" cy="422.4" fill="#B4A7E5" rx="6.6" ry="6.6" style="stroke:#181818;stroke-width:0.6;"/><path d="M556.0219,420.3844 L556.0219,424.3781 L557.0531,424.3781 Q557.4187,424.3781 557.5781,424.5188 Q557.7375,424.6594 557.7375,424.8938 Q557.7375,425.1188 557.5781,425.2594 Q557.4187,425.4 557.0531,425.4 L553.9688,425.4 Q553.6031,425.4 553.4438,425.2594 Q553.2844,425.1188 553.2844,424.8844 Q553.2844,424.6594 553.4438,424.5188 Q553.6031,424.3781 553.9688,424.3781 L555,424.3781 L555,420.3844 L553.9688,420.3844 Q553.6031,420.3844 553.4438,420.2438 Q553.2844,420.1031 553.2844,419.8688 Q553.2844,419.6438 553.4438,419.5031 Q553.6031,419.3625 553.9688,419.3625 L557.0531,419.3625 Q557.4187,419.3625 557.5781,419.5031 Q557.7375,419.6438 557.7375,419.8688 Q557.7375,420.1031 557.5781,420.2438 Q557.4187,420.3844 557.0531,420.3844 L556.0219,420.3844 Z " fill="#000000"/><text fill="#000000" font-family="sans-serif" font-size="8.4" font-style="italic" lengthAdjust="spacing" textLength="72" x="567.75" y="425.8781">gatewayRepository</text><line style="stroke:#181818;stroke-width:0.3;" x1="500.1" x2="687.9" y1="432" y2="432"/><line style="stroke:#181818;stroke-width:0.3;" x1="500.1" x2="687.9" y1="436.8" y2="436.8"/><ellipse cx="506.1" cy="445.6863" fill="#84BE84" rx="1.8" ry="1.8" style="stroke:#038048;stroke-width:0.6;"/><text fill="#000000" font-family="sans-serif" font-size="8.4" lengthAdjust="spacing" textLength="92.4" x="511.5" y="448.2645">Gateway save(Gateway)</text><ellipse cx="506.1" cy="456.859" fill="#84BE84" rx="1.8" ry="1.8" style="stroke:#038048;stroke-width:0.6;"/><text fill="#000000" font-family="sans-serif" font-size="8.4" lengthAdjust="spacing" textLength="173.4" x="511.5" y="459.4371">List&lt;Gateway&gt; getAll(pageNumber, pageSize)</text><ellipse cx="506.1" cy="468.0316" fill="#84BE84" rx="1.8" ry="1.8" style="stroke:#038048;stroke-width:0.6;"/><text fill="#000000" font-family="sans-serif" font-size="8.4" lengthAdjust="spacing" textLength="133.8" x="511.5" y="470.6098">Gateway findById(String gatewayId)</text><ellipse cx="506.1" cy="479.2043" fill="#84BE84" rx="1.8" ry="1.8" style="stroke:#038048;stroke-width:0.6;"/><text fill="#000000" font-family="sans-serif" font-size="8.4" lengthAdjust="spacing" textLength="126" x="511.5" y="481.7824">void deleteById(String gatewayId)</text></g><!--class preferencesController--><g id="elem_preferencesController"><rect codeLine="51" fill="#F1F1F1" height="51.1453" id="preferencesController" rx="1.5" ry="1.5" style="stroke:#181818;stroke-width:0.3;" width="205.2" x="30" y="188.4"/><ellipse cx="88.65" cy="198" fill="#B4A7E5" rx="6.6" ry="6.6" style="stroke:#181818;stroke-width:0.6;"/><path d="M89.2219,195.9844 L89.2219,199.9781 L90.2531,199.9781 Q90.6187,199.9781 90.7781,200.1188 Q90.9375,200.2594 90.9375,200.4938 Q90.9375,200.7188 90.7781,200.8594 Q90.6187,201 90.2531,201 L87.1688,201 Q86.8031,201 86.6438,200.8594 Q86.4844,200.7188 86.4844,200.4844 Q86.4844,200.2594 86.6438,200.1188 Q86.8031,199.9781 87.1688,199.9781 L88.2,199.9781 L88.2,195.9844 L87.1688,195.9844 Q86.8031,195.9844 86.6438,195.8438 Q86.4844,195.7031 86.4844,195.4688 Q86.4844,195.2438 86.6438,195.1031 Q86.8031,194.9625 87.1688,194.9625 L90.2531,194.9625 Q90.6187,194.9625 90.7781,195.1031 Q90.9375,195.2438 90.9375,195.4688 Q90.9375,195.7031 90.7781,195.8438 Q90.6187,195.9844 90.2531,195.9844 L89.2219,195.9844 Z " fill="#000000"/><text fill="#000000" font-family="sans-serif" font-size="8.4" font-style="italic" lengthAdjust="spacing" textLength="82.8" x="100.95" y="201.4781">preferencesController</text><line style="stroke:#181818;stroke-width:0.3;" x1="30.6" x2="234.6" y1="207.6" y2="207.6"/><line style="stroke:#181818;stroke-width:0.3;" x1="30.6" x2="234.6" y1="212.4" y2="212.4"/><ellipse cx="36.6" cy="221.2863" fill="#84BE84" rx="1.8" ry="1.8" style="stroke:#038048;stroke-width:0.6;"/><text fill="#000000" font-family="sans-serif" font-size="8.4" lengthAdjust="spacing" textLength="105.6" x="42" y="223.8645">RetryPolicy getRetryPolicy()</text><ellipse cx="36.6" cy="232.459" fill="#84BE84" rx="1.8" ry="1.8" style="stroke:#038048;stroke-width:0.6;"/><text fill="#000000" font-family="sans-serif" font-size="8.4" lengthAdjust="spacing" textLength="189.6" x="42" y="235.0371">RetryPolicy setRetryPolicy(RetryPolicy retryPolicy)</text></g><!--class preferencesService--><g id="elem_preferencesService"><rect codeLine="56" fill="#F1F1F1" height="51.1453" id="preferencesService" rx="1.5" ry="1.5" style="stroke:#181818;stroke-width:0.3;" width="205.2" x="13.2" y="309"/><ellipse cx="76.65" cy="318.6" fill="#B4A7E5" rx="6.6" ry="6.6" style="stroke:#181818;stroke-width:0.6;"/><path d="M77.2219,316.5844 L77.2219,320.5781 L78.2531,320.5781 Q78.6187,320.5781 78.7781,320.7188 Q78.9375,320.8594 78.9375,321.0938 Q78.9375,321.3187 78.7781,321.4594 Q78.6187,321.6 78.2531,321.6 L75.1688,321.6 Q74.8031,321.6 74.6438,321.4594 Q74.4844,321.3187 74.4844,321.0844 Q74.4844,320.8594 74.6438,320.7188 Q74.8031,320.5781 75.1688,320.5781 L76.2,320.5781 L76.2,316.5844 L75.1688,316.5844 Q74.8031,316.5844 74.6438,316.4437 Q74.4844,316.3031 74.4844,316.0687 Q74.4844,315.8438 74.6438,315.7031 Q74.8031,315.5625 75.1688,315.5625 L78.2531,315.5625 Q78.6187,315.5625 78.7781,315.7031 Q78.9375,315.8438 78.9375,316.0687 Q78.9375,316.3031 78.7781,316.4437 Q78.6187,316.5844 78.2531,316.5844 L77.2219,316.5844 Z " fill="#000000"/><text fill="#000000" font-family="sans-serif" font-size="8.4" font-style="italic" lengthAdjust="spacing" textLength="73.2" x="88.95" y="322.0781">preferencesService</text><line style="stroke:#181818;stroke-width:0.3;" x1="13.8" x2="217.8" y1="328.2" y2="328.2"/><line style="stroke:#181818;stroke-width:0.3;" x1="13.8" x2="217.8" y1="333" y2="333"/><ellipse cx="19.8" cy="341.8863" fill="#84BE84" rx="1.8" ry="1.8" style="stroke:#038048;stroke-width:0.6;"/><text fill="#000000" font-family="sans-serif" font-size="8.4" lengthAdjust="spacing" textLength="105.6" x="25.2" y="344.4645">RetryPolicy getRetryPolicy()</text><ellipse cx="19.8" cy="353.059" fill="#84BE84" rx="1.8" ry="1.8" style="stroke:#038048;stroke-width:0.6;"/><text fill="#000000" font-family="sans-serif" font-size="8.4" lengthAdjust="spacing" textLength="189.6" x="25.2" y="355.6371">RetryPolicy setRetryPolicy(RetryPolicy retryPolicy)</text></g><!--class authController--><g id="elem_authController"><rect codeLine="69" fill="#F1F1F1" height="39.9727" id="authController" rx="1.5" ry="1.5" style="stroke:#181818;stroke-width:0.3;" width="171.6" x="801.6" y="193.8"/><ellipse cx="857.85" cy="203.4" fill="#B4A7E5" rx="6.6" ry="6.6" style="stroke:#181818;stroke-width:0.6;"/><path d="M858.4219,201.3844 L858.4219,205.3781 L859.4531,205.3781 Q859.8188,205.3781 859.9781,205.5187 Q860.1375,205.6594 860.1375,205.8937 Q860.1375,206.1188 859.9781,206.2594 Q859.8188,206.4 859.4531,206.4 L856.3688,206.4 Q856.0031,206.4 855.8438,206.2594 Q855.6844,206.1188 855.6844,205.8844 Q855.6844,205.6594 855.8438,205.5187 Q856.0031,205.3781 856.3688,205.3781 L857.4,205.3781 L857.4,201.3844 L856.3688,201.3844 Q856.0031,201.3844 855.8438,201.2438 Q855.6844,201.1031 855.6844,200.8688 Q855.6844,200.6437 855.8438,200.5031 Q856.0031,200.3625 856.3688,200.3625 L859.4531,200.3625 Q859.8188,200.3625 859.9781,200.5031 Q860.1375,200.6437 860.1375,200.8688 Q860.1375,201.1031 859.9781,201.2438 Q859.8188,201.3844 859.4531,201.3844 L858.4219,201.3844 Z " fill="#000000"/><text fill="#000000" font-family="sans-serif" font-size="8.4" font-style="italic" lengthAdjust="spacing" textLength="54" x="870.15" y="206.8781">authController</text><line style="stroke:#181818;stroke-width:0.3;" x1="802.2" x2="972.6" y1="213" y2="213"/><line style="stroke:#181818;stroke-width:0.3;" x1="802.2" x2="972.6" y1="217.8" y2="217.8"/><ellipse cx="808.2" cy="226.6863" fill="#84BE84" rx="1.8" ry="1.8" style="stroke:#038048;stroke-width:0.6;"/><text fill="#000000" font-family="sans-serif" font-size="8.4" lengthAdjust="spacing" textLength="156" x="813.6" y="229.2645">String generateJWT(List&lt;String&gt; scopes)</text></g><!--class authService--><g id="elem_authService"><rect codeLine="73" fill="#F1F1F1" height="39.9727" id="authService" rx="1.5" ry="1.5" style="stroke:#181818;stroke-width:0.3;" width="171.6" x="823.8" y="314.4"/><ellipse cx="884.85" cy="324" fill="#B4A7E5" rx="6.6" ry="6.6" style="stroke:#181818;stroke-width:0.6;"/><path d="M885.4219,321.9844 L885.4219,325.9781 L886.4531,325.9781 Q886.8188,325.9781 886.9781,326.1188 Q887.1375,326.2594 887.1375,326.4938 Q887.1375,326.7188 886.9781,326.8594 Q886.8188,327 886.4531,327 L883.3688,327 Q883.0031,327 882.8438,326.8594 Q882.6844,326.7188 882.6844,326.4844 Q882.6844,326.2594 882.8438,326.1188 Q883.0031,325.9781 883.3688,325.9781 L884.4,325.9781 L884.4,321.9844 L883.3688,321.9844 Q883.0031,321.9844 882.8438,321.8438 Q882.6844,321.7031 882.6844,321.4688 Q882.6844,321.2438 882.8438,321.1031 Q883.0031,320.9625 883.3688,320.9625 L886.4531,320.9625 Q886.8188,320.9625 886.9781,321.1031 Q887.1375,321.2438 887.1375,321.4688 Q887.1375,321.7031 886.9781,321.8438 Q886.8188,321.9844 886.4531,321.9844 L885.4219,321.9844 Z " fill="#000000"/><text fill="#000000" font-family="sans-serif" font-size="8.4" font-style="italic" lengthAdjust="spacing" textLength="44.4" x="897.15" y="327.4781">authService</text><line style="stroke:#181818;stroke-width:0.3;" x1="824.4" x2="994.8" y1="333.6" y2="333.6"/><line style="stroke:#181818;stroke-width:0.3;" x1="824.4" x2="994.8" y1="338.4" y2="338.4"/><ellipse cx="830.4" cy="347.2863" fill="#84BE84" rx="1.8" ry="1.8" style="stroke:#038048;stroke-width:0.6;"/><text fill="#000000" font-family="sans-serif" font-size="8.4" lengthAdjust="spacing" textLength="156" x="835.8" y="349.8645">String generateJWT(List&lt;String&gt; scopes)</text></g><!--entity gatewayApi--><g id="elem_gatewayApi"><rect fill="#F1F1F1" height="29.1727" rx="1.5" ry="1.5" style="stroke:#181818;stroke-width:0.3;" width="67.2" x="690.6" y="106.2"/><rect fill="#F1F1F1" height="6" style="stroke:#181818;stroke-width:0.3;" width="9" x="745.8" y="109.2"/><rect fill="#F1F1F1" height="1.2" style="stroke:#181818;stroke-width:0.3;" width="2.4" x="744.6" y="110.4"/><rect fill="#F1F1F1" height="1.2" style="stroke:#181818;stroke-width:0.3;" width="2.4" x="744.6" y="112.8"/><text fill="#000000" font-family="sans-serif" font-size="8.4" lengthAdjust="spacing" textLength="43.2" x="699.6" y="127.2645">gatewayApi</text></g><!--entity preferencesApi--><g id="elem_preferencesApi"><rect fill="#F1F1F1" height="29.1727" rx="1.5" ry="1.5" style="stroke:#181818;stroke-width:0.3;" width="81.6" x="249.6" y="106.2"/><rect fill="#F1F1F1" height="6" style="stroke:#181818;stroke-width:0.3;" width="9" x="319.2" y="109.2"/><rect fill="#F1F1F1" height="1.2" style="stroke:#181818;stroke-width:0.3;" width="2.4" x="318" y="110.4"/><rect fill="#F1F1F1" height="1.2" style="stroke:#181818;stroke-width:0.3;" width="2.4" x="318" y="112.8"/><text fill="#000000" font-family="sans-serif" font-size="8.4" lengthAdjust="spacing" textLength="57.6" x="258.6" y="127.2645">preferencesApi</text></g><!--entity authApi--><g id="elem_authApi"><rect fill="#F1F1F1" height="29.1727" rx="1.5" ry="1.5" style="stroke:#181818;stroke-width:0.3;" width="52.8" x="901.8" y="106.2"/><rect fill="#F1F1F1" height="6" style="stroke:#181818;stroke-width:0.3;" width="9" x="942.6" y="109.2"/><rect fill="#F1F1F1" height="1.2" style="stroke:#181818;stroke-width:0.3;" width="2.4" x="941.4" y="110.4"/><rect fill="#F1F1F1" height="1.2" style="stroke:#181818;stroke-width:0.3;" width="2.4" x="941.4" y="112.8"/><text fill="#000000" font-family="sans-serif" font-size="8.4" lengthAdjust="spacing" textLength="28.8" x="910.8" y="127.2645">authApi</text></g><!--reverse link PagingAndSortingRepository to gatewayRepository--><g id="link_PagingAndSortingRepository_gatewayRepository"><path d="M370.8746,364.83 C382.5446,370.584 385.38,371.724 397.2,376.8 C430.044,390.906 466.662,404.796 499.326,416.55 " fill="none" id="PagingAndSortingRepository-backto-gatewayRepository" style="stroke:#181818;stroke-width:0.6;"/><polygon fill="none" points="361.188,360.054,369.2825,368.0589,372.4666,361.6012,361.188,360.054" style="stroke:#181818;stroke-width:0.6;"/></g><!--link gatewayApi to gatewayService--><g id="link_gatewayApi_gatewayService"><path codeLine="41" d="M726.81,135.696 C730.812,161.67 735.768,217.704 712.8,256.2 C704.466,270.168 701.1175,275.544 687.9955,285.558 " fill="none" id="gatewayApi-to-gatewayService" style="stroke:#181818;stroke-width:0.6;"/><polygon fill="none" points="679.41,292.11,690.1795,288.4198,685.8115,282.6962,679.41,292.11" style="stroke:#181818;stroke-width:0.6;"/></g><!--link gatewayApi to gatewayRepository--><g id="link_gatewayApi_gatewayRepository"><path codeLine="42" d="M731.904,135.792 C746.856,164.448 779.358,231.396 790.8,292.2 C797.754,329.154 812.34,345.984 790.8,376.8 C767.454,410.196 737.3436,425.5188 699.0696,435.1488 " fill="none" id="gatewayApi-to-gatewayRepository" style="stroke:#181818;stroke-width:0.6;"/><polygon fill="none" points="688.596,437.784,699.948,438.64,698.1912,431.6576,688.596,437.784" style="stroke:#181818;stroke-width:0.6;"/></g><!--link gatewayApi to gatewayController--><g id="link_gatewayApi_gatewayController"><path codeLine="43" d="M692.124,135.642 C670.224,145.302 649.8664,154.2776 620.6164,167.1716 " fill="none" id="gatewayApi-to-gatewayController" style="stroke:#181818;stroke-width:0.6;"/><polygon fill="none" points="610.734,171.528,622.0685,170.4658,619.1643,163.8775,610.734,171.528" style="stroke:#181818;stroke-width:0.6;"/></g><!--link gatewayController to gatewayService--><g id="link_gatewayController_gatewayService"><path codeLine="44" d="M543.282,256.26 C550.878,267.894 557.1648,277.5163 564.7668,289.1503 " fill="none" id="gatewayController-to-gatewayService" style="stroke:#181818;stroke-width:0.6;"/><polygon fill="#181818" points="566.736,292.164,565.7913,286.3307,565.095,289.6526,561.7731,288.9563,566.736,292.164" style="stroke:#181818;stroke-width:0.6;"/></g><!--link gatewayService to gatewayRepository--><g id="link_gatewayService_gatewayRepository"><path codeLine="45" d="M594,376.956 C594,388.668 594,397.698 594,409.05 " fill="none" id="gatewayService-to-gatewayRepository" style="stroke:#181818;stroke-width:0.6;"/><polygon fill="#181818" points="594,412.65,596.4,407.25,594,409.65,591.6,407.25,594,412.65" style="stroke:#181818;stroke-width:0.6;"/></g><!--link preferencesApi to preferencesService--><g id="link_preferencesApi_preferencesService"><path codeLine="61" d="M289.008,135.63 C285.756,161.988 275.562,219.306 246,256.2 C227.892,278.796 210.898,291.3528 186.466,303.9948 " fill="none" id="preferencesApi-to-preferencesService" style="stroke:#181818;stroke-width:0.6;"/><polygon fill="none" points="176.874,308.958,188.1204,307.1921,184.8116,300.7974,176.874,308.958" style="stroke:#181818;stroke-width:0.6;"/></g><!--link preferencesApi to preferencesController--><g id="link_preferencesApi_preferencesController"><path codeLine="62" d="M266.088,135.642 C242.01,149.652 213.9655,165.9657 184.8775,182.8857 " fill="none" id="preferencesApi-to-preferencesController" style="stroke:#181818;stroke-width:0.6;"/><polygon fill="none" points="175.542,188.316,186.6876,185.9975,183.0674,179.7739,175.542,188.316" style="stroke:#181818;stroke-width:0.6;"/></g><!--link preferencesController to preferencesService--><g id="link_preferencesController_preferencesService"><path codeLine="63" d="M129.078,239.532 C126.21,259.908 122.6859,284.9692 119.8179,305.3392 " fill="none" id="preferencesController-to-preferencesService" style="stroke:#181818;stroke-width:0.6;"/><polygon fill="#181818" points="119.316,308.904,122.4454,303.8913,119.7343,305.9333,117.6923,303.2221,119.316,308.904" style="stroke:#181818;stroke-width:0.6;"/></g><!--link authApi to authService--><g id="link_authApi_authService"><path codeLine="77" d="M951.87,135.756 C963.912,144.444 977.37,156.738 984,171.6 C999.318,205.938 998.01,221.31 984,256.2 C974.502,279.858 962.3307,293.5341 945.2427,307.5321 " fill="none" id="authApi-to-authService" style="stroke:#181818;stroke-width:0.6;"/><polygon fill="none" points="936.888,314.376,947.524,310.317,942.9614,304.7472,936.888,314.376" style="stroke:#181818;stroke-width:0.6;"/></g><!--link authApi to authController--><g id="link_authApi_authController"><path codeLine="78" d="M921.912,135.642 C915.006,151.182 908.2487,166.3801 900.5027,183.8161 " fill="none" id="authApi-to-authController" style="stroke:#181818;stroke-width:0.6;"/><polygon fill="none" points="896.118,193.686,903.7927,185.2777,897.2128,182.3546,896.118,193.686" style="stroke:#181818;stroke-width:0.6;"/></g><!--link authController to authService--><g id="link_authController_authService"><path codeLine="79" d="M891.066,234.216 C895.194,256.404 901.1962,288.6966 905.3062,310.8126 " fill="none" id="authController-to-authService" style="stroke:#181818;stroke-width:0.6;"/><polygon fill="#181818" points="905.964,314.352,907.337,308.6044,905.4159,311.4025,902.6178,309.4814,905.964,314.352" style="stroke:#181818;stroke-width:0.6;"/></g><!--link webportalBFFApi to gatewayController--><g id="link_webportalBFFApi_gatewayController"><path codeLine="85" d="M174.132,33.666 C173.118,58.002 174.816,107.82 202.2,135.6 C221.802,155.484 270.0544,170.8732 326.0284,183.2092 " fill="none" id="webportalBFFApi-to-gatewayController" style="stroke:#181818;stroke-width:0.6;"/><polygon fill="#181818" points="329.544,183.984,324.7871,180.478,326.6143,183.3383,323.754,185.1656,329.544,183.984" style="stroke:#181818;stroke-width:0.6;"/></g><!--link webportalBFFApi to preferencesController--><g id="link_webportalBFFApi_preferencesController"><path codeLine="87" d="M170.316,33.63 C166.992,43.596 162.654,57.312 159.6,69.6 C149.37,110.736 141.5592,155.7986 136.9752,184.6346 " fill="none" id="webportalBFFApi-to-preferencesController" style="stroke:#181818;stroke-width:0.6;"/><polygon fill="#181818" points="136.41,188.19,139.628,183.2338,136.881,185.2272,134.8875,182.4802,136.41,188.19" style="stroke:#181818;stroke-width:0.6;"/></g><!--link webportalBFFApi to authController--><g id="link_webportalBFFApi_authController"><path codeLine="89" d="M182.118,33.732 C196.65,63.36 229.806,129.438 239.4,135.6 C328.176,192.606 608.562,155.292 712.8,171.6 C747.438,177.018 781.8635,184.841 813.4835,192.899 " fill="none" id="webportalBFFApi-to-authController" style="stroke:#181818;stroke-width:0.6;"/><polygon fill="#181818" points="816.972,193.788,812.3319,190.1288,814.0649,193.0472,811.1466,194.7802,816.972,193.788" style="stroke:#181818;stroke-width:0.6;"/></g><!--SRC=[xLPDRnen4BtpAwnS0chs7o0a4YaHKPMYaAfdunt0Yh4jsq1fc__UyR8VayMxGJtqb3t0slFyPkRDUBJ2RAtHe0CxmD8Q5xYwlR-VMib-3mPlWy70Sl7Ary2kxinskzDIy22DPjFvp5ynxfcWstZEuq66ZwY9rpp0WHzBpcXxE_r97S2jk80AScTqS4OfS2L9VBwmhzA7ySC9uYTi3Q5Q3B_Pw9QhCN9DcCL0dtRR9RWRTcvPo5ym8hGb2HCEyArS3HV1IRrce7DhyEXtfsvOkRTo4hVLyOblWJWuMISi1o-SB7PJRdOs9swgtJBpr84cpzlZBAy2apd5xetCqR62cZc5xT9x0MulSNcXs7Z-dSJL-bFOMjWvNwDzglC5NYLyUmPhl0p67Od828BnouIjfCwdIWtZcYyL56B6boQG6HB77GgFrCpZJnr3khh4D_mCAB2_BBn6AC_tK0awwkYHeaLYMBGp-heYfa6rBAETTSdVWotb9mCco_vCMjtT1sdoxqCrOucYoB3AiZwdrIqZAEAtDIojWnKuq09yty0ai8wX-Gp17UT6IL4qF5aEHnqm_nv6JQvv7tqOKMgi_9zmMkeLHJmFx19eg-PflMD54_Ijal9TsFJLCjexYbYrFMWS0m4UVxmCYxjNJKOlZ0K_wkPDbU8VIAiK2fK8RzhOqgwLNnIDKXIOubEZ_GMIvUJA4DBhCs34RJ07l504b-BBkggS9lLY0_bEmSUihSIlwvDAnYOOPrbDXgVGdN6lAsKEn5vcWEQ_]--></g></svg>