<?xml version="1.0" encoding="us-ascii" standalone="no"?><svg xmlns="http://www.w3.org/2000/svg" xmlns:xlink="http://www.w3.org/1999/xlink" contentStyleType="text/css" height="476px" preserveAspectRatio="none" style="width:1968px;height:476px;background:#FFFFFF;" version="1.1" viewBox="0 0 1968 476" width="1968px" zoomAndPan="magnify"><defs/><g><!--class WorkflowInterface--><g id="elem_WorkflowInterface"><rect codeLine="2" fill="#F1F1F1" height="48" id="WorkflowInterface" rx="2.5" ry="2.5" style="stroke:#181818;stroke-width:0.5;" width="147" x="169.5" y="93"/><ellipse cx="184.5" cy="109" fill="#B4A7E5" rx="11" ry="11" style="stroke:#181818;stroke-width:1.0;"/><path d="M185.4531,105.6406 L185.4531,112.2969 L187.1719,112.2969 Q187.7813,112.2969 188.0469,112.5313 Q188.3125,112.7656 188.3125,113.1563 Q188.3125,113.5313 188.0469,113.7656 Q187.7813,114 187.1719,114 L182.0313,114 Q181.4219,114 181.1563,113.7656 Q180.8906,113.5313 180.8906,113.1406 Q180.8906,112.7656 181.1563,112.5313 Q181.4219,112.2969 182.0313,112.2969 L183.75,112.2969 L183.75,105.6406 L182.0313,105.6406 Q181.4219,105.6406 181.1563,105.4063 Q180.8906,105.1719 180.8906,104.7813 Q180.8906,104.4063 181.1563,104.1719 Q181.4219,103.9375 182.0313,103.9375 L187.1719,103.9375 Q187.7813,103.9375 188.0469,104.1719 Q188.3125,104.4063 188.3125,104.7813 Q188.3125,105.1719 188.0469,105.4063 Q187.7813,105.6406 187.1719,105.6406 L185.4531,105.6406 Z " fill="#000000"/><text fill="#000000" font-family="sans-serif" font-size="14" font-style="italic" lengthAdjust="spacing" textLength="115" x="198.5" y="114.7969">WorkflowInterface</text><line style="stroke:#181818;stroke-width:0.5;" x1="170.5" x2="315.5" y1="125" y2="125"/><line style="stroke:#181818;stroke-width:0.5;" x1="170.5" x2="315.5" y1="133" y2="133"/></g><!--class ActivityInterface--><g id="elem_ActivityInterface"><rect codeLine="5" fill="#F1F1F1" height="48" id="ActivityInterface" rx="2.5" ry="2.5" style="stroke:#181818;stroke-width:0.5;" width="131" x="928.5" y="93"/><ellipse cx="943.5" cy="109" fill="#B4A7E5" rx="11" ry="11" style="stroke:#181818;stroke-width:1.0;"/><path d="M944.4531,105.6406 L944.4531,112.2969 L946.1719,112.2969 Q946.7813,112.2969 947.0469,112.5313 Q947.3125,112.7656 947.3125,113.1563 Q947.3125,113.5313 947.0469,113.7656 Q946.7813,114 946.1719,114 L941.0313,114 Q940.4219,114 940.1563,113.7656 Q939.8906,113.5313 939.8906,113.1406 Q939.8906,112.7656 940.1563,112.5313 Q940.4219,112.2969 941.0313,112.2969 L942.75,112.2969 L942.75,105.6406 L941.0313,105.6406 Q940.4219,105.6406 940.1563,105.4063 Q939.8906,105.1719 939.8906,104.7813 Q939.8906,104.4063 940.1563,104.1719 Q940.4219,103.9375 941.0313,103.9375 L946.1719,103.9375 Q946.7813,103.9375 947.0469,104.1719 Q947.3125,104.4063 947.3125,104.7813 Q947.3125,105.1719 947.0469,105.4063 Q946.7813,105.6406 946.1719,105.6406 L944.4531,105.6406 Z " fill="#000000"/><text fill="#000000" font-family="sans-serif" font-size="14" font-style="italic" lengthAdjust="spacing" textLength="99" x="957.5" y="114.7969">ActivityInterface</text><line style="stroke:#181818;stroke-width:0.5;" x1="929.5" x2="1058.5" y1="125" y2="125"/><line style="stroke:#181818;stroke-width:0.5;" x1="929.5" x2="1058.5" y1="133" y2="133"/></g><g id="elem_GMN4"><path d="M149.5,6 L149.5,33.291 A0,0 0 0 0 149.5,33.291 L239,33.291 L243,92.72 L247,33.291 L336.5,33.291 A0,0 0 0 0 336.5,33.291 L336.5,16 L326.5,6 L149.5,6 A0,0 0 0 0 149.5,6 " fill="#FEFFDD" style="stroke:#181818;stroke-width:0.5;"/><path d="M326.5,6 L326.5,16 L336.5,16 L326.5,6 " fill="#FEFFDD" style="stroke:#181818;stroke-width:0.5;"/><text fill="#000000" font-family="sans-serif" font-size="13" lengthAdjust="spacing" textLength="166" x="155.5" y="25.0283">Interface from Temporal SDK</text></g><g id="elem_GMN7"><path d="M900.5,6 L900.5,33.291 A0,0 0 0 0 900.5,33.291 L990,33.291 L994,92.72 L998,33.291 L1087.5,33.291 A0,0 0 0 0 1087.5,33.291 L1087.5,16 L1077.5,6 L900.5,6 A0,0 0 0 0 900.5,6 " fill="#FEFFDD" style="stroke:#181818;stroke-width:0.5;"/><path d="M1077.5,6 L1077.5,16 L1087.5,16 L1077.5,6 " fill="#FEFFDD" style="stroke:#181818;stroke-width:0.5;"/><text fill="#000000" font-family="sans-serif" font-size="13" lengthAdjust="spacing" textLength="166" x="906.5" y="25.0283">Interface from Temporal SDK</text></g><!--class CommunicationWorkflow--><g id="elem_CommunicationWorkflow"><rect codeLine="17" fill="#F1F1F1" height="66.6211" id="CommunicationWorkflow" rx="2.5" ry="2.5" style="stroke:#181818;stroke-width:0.5;" width="472" x="7" y="201"/><ellipse cx="160.75" cy="217" fill="#B4A7E5" rx="11" ry="11" style="stroke:#181818;stroke-width:1.0;"/><path d="M161.7031,213.6406 L161.7031,220.2969 L163.4219,220.2969 Q164.0313,220.2969 164.2969,220.5313 Q164.5625,220.7656 164.5625,221.1563 Q164.5625,221.5313 164.2969,221.7656 Q164.0313,222 163.4219,222 L158.2813,222 Q157.6719,222 157.4063,221.7656 Q157.1406,221.5313 157.1406,221.1406 Q157.1406,220.7656 157.4063,220.5313 Q157.6719,220.2969 158.2813,220.2969 L160,220.2969 L160,213.6406 L158.2813,213.6406 Q157.6719,213.6406 157.4063,213.4063 Q157.1406,213.1719 157.1406,212.7813 Q157.1406,212.4063 157.4063,212.1719 Q157.6719,211.9375 158.2813,211.9375 L163.4219,211.9375 Q164.0313,211.9375 164.2969,212.1719 Q164.5625,212.4063 164.5625,212.7813 Q164.5625,213.1719 164.2969,213.4063 Q164.0313,213.6406 163.4219,213.6406 L161.7031,213.6406 Z " fill="#000000"/><text fill="#000000" font-family="sans-serif" font-size="14" font-style="italic" lengthAdjust="spacing" textLength="156" x="181.25" y="222.7969">CommunicationWorkflow</text><line style="stroke:#181818;stroke-width:0.5;" x1="8" x2="478" y1="233" y2="233"/><line style="stroke:#181818;stroke-width:0.5;" x1="8" x2="478" y1="241" y2="241"/><ellipse cx="18" cy="255.8105" fill="#84BE84" rx="3" ry="3" style="stroke:#038048;stroke-width:1.0;"/><text fill="#000000" font-family="sans-serif" font-size="14" lengthAdjust="spacing" textLength="446" x="27" y="260.1074">Map&lt;String, String&gt; sendCommunication(Map&lt;String, String&gt; payload)</text></g><!--class CommunicationWorkflowImpl--><g id="elem_CommunicationWorkflowImpl"><rect codeLine="21" fill="#F1F1F1" height="103.8633" id="CommunicationWorkflowImpl" rx="2.5" ry="2.5" style="stroke:#181818;stroke-width:0.5;" width="472" x="7" y="346.5"/><ellipse cx="149.25" cy="362.5" fill="#ADD1B2" rx="11" ry="11" style="stroke:#181818;stroke-width:1.0;"/><path d="M152.0156,358.375 Q152.1719,358.1563 152.3594,358.0469 Q152.5469,357.9375 152.7656,357.9375 Q153.1406,357.9375 153.375,358.2031 Q153.6094,358.4531 153.6094,359.0625 L153.6094,360.5156 Q153.6094,361.125 153.375,361.3906 Q153.1406,361.6563 152.7656,361.6563 Q152.4219,361.6563 152.2188,361.4531 Q152.0156,361.2656 151.9063,360.75 Q151.8594,360.3906 151.6719,360.2031 Q151.3438,359.8281 150.7344,359.6094 Q150.125,359.3906 149.5,359.3906 Q148.7344,359.3906 148.0938,359.7188 Q147.4688,360.0469 146.9688,360.7969 Q146.4844,361.5469 146.4844,362.5781 L146.4844,363.6719 Q146.4844,364.9063 147.375,365.7344 Q148.2656,366.5469 149.8594,366.5469 Q150.7969,366.5469 151.4531,366.2969 Q151.8438,366.1406 152.2656,365.7031 Q152.5313,365.4375 152.6719,365.3594 Q152.8281,365.2813 153.0313,365.2813 Q153.3594,365.2813 153.6094,365.5469 Q153.875,365.7969 153.875,366.1406 Q153.875,366.4844 153.5313,366.8906 Q153.0313,367.4688 152.2344,367.7969 Q151.1563,368.25 149.8594,368.25 Q148.3438,368.25 147.1406,367.625 Q146.1563,367.125 145.4688,366.0625 Q144.7813,364.9844 144.7813,363.7031 L144.7813,362.5469 Q144.7813,361.2188 145.3906,360.0781 Q146.0156,358.9219 147.1094,358.3125 Q148.2031,357.6875 149.4375,357.6875 Q150.1719,357.6875 150.8125,357.8594 Q151.4688,358.0156 152.0156,358.375 Z " fill="#000000"/><text fill="#000000" font-family="sans-serif" font-size="14" lengthAdjust="spacing" textLength="179" x="169.75" y="368.2969">CommunicationWorkflowImpl</text><line style="stroke:#181818;stroke-width:0.5;" x1="8" x2="478" y1="378.5" y2="378.5"/><rect fill="none" height="6" style="stroke:#C82930;stroke-width:1.0;" width="6" x="15" y="390.3105"/><text fill="#000000" font-family="sans-serif" font-size="14" lengthAdjust="spacing" textLength="110" x="27" y="397.6074">String taskQueue</text><rect fill="none" height="6" style="stroke:#C82930;stroke-width:1.0;" width="6" x="15" y="408.9316"/><text fill="#000000" font-family="sans-serif" font-size="14" lengthAdjust="spacing" textLength="263" x="27" y="416.2285">GetPreferencesActivity getSettingsActivity</text><line style="stroke:#181818;stroke-width:0.5;" x1="8" x2="478" y1="423.7422" y2="423.7422"/><ellipse cx="18" cy="438.5527" fill="#84BE84" rx="3" ry="3" style="stroke:#038048;stroke-width:1.0;"/><text fill="#000000" font-family="sans-serif" font-size="14" lengthAdjust="spacing" textLength="446" x="27" y="442.8496">Map&lt;String, String&gt; sendCommunication(Map&lt;String, String&gt; payload)</text></g><!--class GetPreferencesActivity--><g id="elem_GetPreferencesActivity"><rect codeLine="28" fill="#F1F1F1" height="66.6211" id="GetPreferencesActivity" rx="2.5" ry="2.5" style="stroke:#181818;stroke-width:0.5;" width="214" x="560" y="201"/><ellipse cx="592.55" cy="217" fill="#B4A7E5" rx="11" ry="11" style="stroke:#181818;stroke-width:1.0;"/><path d="M593.5031,213.6406 L593.5031,220.2969 L595.2219,220.2969 Q595.8313,220.2969 596.0969,220.5313 Q596.3625,220.7656 596.3625,221.1563 Q596.3625,221.5313 596.0969,221.7656 Q595.8313,222 595.2219,222 L590.0813,222 Q589.4719,222 589.2063,221.7656 Q588.9406,221.5313 588.9406,221.1406 Q588.9406,220.7656 589.2063,220.5313 Q589.4719,220.2969 590.0813,220.2969 L591.8,220.2969 L591.8,213.6406 L590.0813,213.6406 Q589.4719,213.6406 589.2063,213.4063 Q588.9406,213.1719 588.9406,212.7813 Q588.9406,212.4063 589.2063,212.1719 Q589.4719,211.9375 590.0813,211.9375 L595.2219,211.9375 Q595.8313,211.9375 596.0969,212.1719 Q596.3625,212.4063 596.3625,212.7813 Q596.3625,213.1719 596.0969,213.4063 Q595.8313,213.6406 595.2219,213.6406 L593.5031,213.6406 Z " fill="#000000"/><text fill="#000000" font-family="sans-serif" font-size="14" font-style="italic" lengthAdjust="spacing" textLength="143" x="610.45" y="222.7969">GetPreferencesActivity</text><line style="stroke:#181818;stroke-width:0.5;" x1="561" x2="773" y1="233" y2="233"/><line style="stroke:#181818;stroke-width:0.5;" x1="561" x2="773" y1="241" y2="241"/><ellipse cx="571" cy="255.8105" fill="#84BE84" rx="3" ry="3" style="stroke:#038048;stroke-width:1.0;"/><text fill="#000000" font-family="sans-serif" font-size="14" lengthAdjust="spacing" textLength="188" x="580" y="260.1074">Preferences getPreferences()</text></g><!--class GetPreferencesActivityImpl--><g id="elem_GetPreferencesActivityImpl"><rect codeLine="32" fill="#F1F1F1" height="122.4844" id="GetPreferencesActivityImpl" rx="2.5" ry="2.5" style="stroke:#181818;stroke-width:0.5;" width="275" x="514.5" y="337.5"/><ellipse cx="563.25" cy="353.5" fill="#ADD1B2" rx="11" ry="11" style="stroke:#181818;stroke-width:1.0;"/><path d="M566.0156,349.375 Q566.1719,349.1563 566.3594,349.0469 Q566.5469,348.9375 566.7656,348.9375 Q567.1406,348.9375 567.375,349.2031 Q567.6094,349.4531 567.6094,350.0625 L567.6094,351.5156 Q567.6094,352.125 567.375,352.3906 Q567.1406,352.6563 566.7656,352.6563 Q566.4219,352.6563 566.2188,352.4531 Q566.0156,352.2656 565.9063,351.75 Q565.8594,351.3906 565.6719,351.2031 Q565.3438,350.8281 564.7344,350.6094 Q564.125,350.3906 563.5,350.3906 Q562.7344,350.3906 562.0938,350.7188 Q561.4688,351.0469 560.9688,351.7969 Q560.4844,352.5469 560.4844,353.5781 L560.4844,354.6719 Q560.4844,355.9063 561.375,356.7344 Q562.2656,357.5469 563.8594,357.5469 Q564.7969,357.5469 565.4531,357.2969 Q565.8438,357.1406 566.2656,356.7031 Q566.5313,356.4375 566.6719,356.3594 Q566.8281,356.2813 567.0313,356.2813 Q567.3594,356.2813 567.6094,356.5469 Q567.875,356.7969 567.875,357.1406 Q567.875,357.4844 567.5313,357.8906 Q567.0313,358.4688 566.2344,358.7969 Q565.1563,359.25 563.8594,359.25 Q562.3438,359.25 561.1406,358.625 Q560.1563,358.125 559.4688,357.0625 Q558.7813,355.9844 558.7813,354.7031 L558.7813,353.5469 Q558.7813,352.2188 559.3906,351.0781 Q560.0156,349.9219 561.1094,349.3125 Q562.2031,348.6875 563.4375,348.6875 Q564.1719,348.6875 564.8125,348.8594 Q565.4688,349.0156 566.0156,349.375 Z " fill="#000000"/><text fill="#000000" font-family="sans-serif" font-size="14" lengthAdjust="spacing" textLength="169" x="583.75" y="359.2969">GetPreferencesActivityImpl</text><line style="stroke:#181818;stroke-width:0.5;" x1="515.5" x2="788.5" y1="369.5" y2="369.5"/><rect fill="none" height="6" style="stroke:#C82930;stroke-width:1.0;" width="6" x="522.5" y="381.3105"/><text fill="#000000" font-family="sans-serif" font-size="14" lengthAdjust="spacing" textLength="146" x="534.5" y="388.6074">KubernetesClient client</text><rect fill="none" height="6" style="stroke:#C82930;stroke-width:1.0;" width="6" x="522.5" y="399.9316"/><text fill="#000000" font-family="sans-serif" font-size="14" lengthAdjust="spacing" textLength="249" x="534.5" y="407.2285">TemporalProperties temporalProperties</text><rect fill="none" height="6" style="stroke:#C82930;stroke-width:1.0;" width="6" x="522.5" y="418.5527"/><text fill="#000000" font-family="sans-serif" font-size="14" lengthAdjust="spacing" textLength="179" x="534.5" y="425.8496">ObjectMapper objectMapper</text><ellipse cx="525.5" cy="440.1738" fill="none" rx="3" ry="3" style="stroke:#038048;stroke-width:1.0;"/><text fill="#000000" font-family="sans-serif" font-size="14" lengthAdjust="spacing" textLength="178" x="534.5" y="444.4707">Preferences getPreferences</text><line style="stroke:#181818;stroke-width:0.5;" x1="515.5" x2="788.5" y1="451.9844" y2="451.9844"/></g><!--class GetGatewayFromDbActivity--><g id="elem_GetGatewayFromDbActivity"><rect codeLine="40" fill="#F1F1F1" height="66.6211" id="GetGatewayFromDbActivity" rx="2.5" ry="2.5" style="stroke:#181818;stroke-width:0.5;" width="339" x="824.5" y="201"/><ellipse cx="903.75" cy="217" fill="#B4A7E5" rx="11" ry="11" style="stroke:#181818;stroke-width:1.0;"/><path d="M904.7031,213.6406 L904.7031,220.2969 L906.4219,220.2969 Q907.0313,220.2969 907.2969,220.5313 Q907.5625,220.7656 907.5625,221.1563 Q907.5625,221.5313 907.2969,221.7656 Q907.0313,222 906.4219,222 L901.2813,222 Q900.6719,222 900.4063,221.7656 Q900.1406,221.5313 900.1406,221.1406 Q900.1406,220.7656 900.4063,220.5313 Q900.6719,220.2969 901.2813,220.2969 L903,220.2969 L903,213.6406 L901.2813,213.6406 Q900.6719,213.6406 900.4063,213.4063 Q900.1406,213.1719 900.1406,212.7813 Q900.1406,212.4063 900.4063,212.1719 Q900.6719,211.9375 901.2813,211.9375 L906.4219,211.9375 Q907.0313,211.9375 907.2969,212.1719 Q907.5625,212.4063 907.5625,212.7813 Q907.5625,213.1719 907.2969,213.4063 Q907.0313,213.6406 906.4219,213.6406 L904.7031,213.6406 Z " fill="#000000"/><text fill="#000000" font-family="sans-serif" font-size="14" font-style="italic" lengthAdjust="spacing" textLength="172" x="924.25" y="222.7969">GetGatewayFromDbActivity</text><line style="stroke:#181818;stroke-width:0.5;" x1="825.5" x2="1162.5" y1="233" y2="233"/><line style="stroke:#181818;stroke-width:0.5;" x1="825.5" x2="1162.5" y1="241" y2="241"/><ellipse cx="835.5" cy="255.8105" fill="#84BE84" rx="3" ry="3" style="stroke:#038048;stroke-width:1.0;"/><text fill="#000000" font-family="sans-serif" font-size="14" lengthAdjust="spacing" textLength="313" x="844.5" y="260.1074">String getGatewayEndpointURL(String gatewayId)</text></g><!--class GetGatewayFromDbActivityImpl--><g id="elem_GetGatewayFromDbActivityImpl"><rect codeLine="44" fill="#F1F1F1" height="85.2422" id="GetGatewayFromDbActivityImpl" rx="2.5" ry="2.5" style="stroke:#181818;stroke-width:0.5;" width="339" x="824.5" y="356"/><ellipse cx="890.75" cy="372" fill="#ADD1B2" rx="11" ry="11" style="stroke:#181818;stroke-width:1.0;"/><path d="M893.5156,367.875 Q893.6719,367.6563 893.8594,367.5469 Q894.0469,367.4375 894.2656,367.4375 Q894.6406,367.4375 894.875,367.7031 Q895.1094,367.9531 895.1094,368.5625 L895.1094,370.0156 Q895.1094,370.625 894.875,370.8906 Q894.6406,371.1563 894.2656,371.1563 Q893.9219,371.1563 893.7188,370.9531 Q893.5156,370.7656 893.4063,370.25 Q893.3594,369.8906 893.1719,369.7031 Q892.8438,369.3281 892.2344,369.1094 Q891.625,368.8906 891,368.8906 Q890.2344,368.8906 889.5938,369.2188 Q888.9688,369.5469 888.4688,370.2969 Q887.9844,371.0469 887.9844,372.0781 L887.9844,373.1719 Q887.9844,374.4063 888.875,375.2344 Q889.7656,376.0469 891.3594,376.0469 Q892.2969,376.0469 892.9531,375.7969 Q893.3438,375.6406 893.7656,375.2031 Q894.0313,374.9375 894.1719,374.8594 Q894.3281,374.7813 894.5313,374.7813 Q894.8594,374.7813 895.1094,375.0469 Q895.375,375.2969 895.375,375.6406 Q895.375,375.9844 895.0313,376.3906 Q894.5313,376.9688 893.7344,377.2969 Q892.6563,377.75 891.3594,377.75 Q889.8438,377.75 888.6406,377.125 Q887.6563,376.625 886.9688,375.5625 Q886.2813,374.4844 886.2813,373.2031 L886.2813,372.0469 Q886.2813,370.7188 886.8906,369.5781 Q887.5156,368.4219 888.6094,367.8125 Q889.7031,367.1875 890.9375,367.1875 Q891.6719,367.1875 892.3125,367.3594 Q892.9688,367.5156 893.5156,367.875 Z " fill="#000000"/><text fill="#000000" font-family="sans-serif" font-size="14" lengthAdjust="spacing" textLength="198" x="911.25" y="377.7969">GetGatewayFromDbActivityImpl</text><line style="stroke:#181818;stroke-width:0.5;" x1="825.5" x2="1162.5" y1="388" y2="388"/><rect fill="none" height="6" style="stroke:#C82930;stroke-width:1.0;" width="6" x="832.5" y="399.8105"/><text fill="#000000" font-family="sans-serif" font-size="14" lengthAdjust="spacing" textLength="247" x="844.5" y="407.1074">GatewayRepository gatewayRepository</text><line style="stroke:#181818;stroke-width:0.5;" x1="825.5" x2="1162.5" y1="414.6211" y2="414.6211"/><ellipse cx="835.5" cy="429.4316" fill="#84BE84" rx="3" ry="3" style="stroke:#038048;stroke-width:1.0;"/><text fill="#000000" font-family="sans-serif" font-size="14" lengthAdjust="spacing" textLength="313" x="844.5" y="433.7285">String getGatewayEndpointURL(String gatewayId)</text></g><!--class SendMessageToGatewayActivity--><g id="elem_SendMessageToGatewayActivity"><rect codeLine="49" fill="#F1F1F1" height="66.6211" id="SendMessageToGatewayActivity" rx="2.5" ry="2.5" style="stroke:#181818;stroke-width:0.5;" width="763" x="1198.5" y="201"/><ellipse cx="1472.75" cy="217" fill="#B4A7E5" rx="11" ry="11" style="stroke:#181818;stroke-width:1.0;"/><path d="M1473.7031,213.6406 L1473.7031,220.2969 L1475.4219,220.2969 Q1476.0313,220.2969 1476.2969,220.5313 Q1476.5625,220.7656 1476.5625,221.1563 Q1476.5625,221.5313 1476.2969,221.7656 Q1476.0313,222 1475.4219,222 L1470.2813,222 Q1469.6719,222 1469.4063,221.7656 Q1469.1406,221.5313 1469.1406,221.1406 Q1469.1406,220.7656 1469.4063,220.5313 Q1469.6719,220.2969 1470.2813,220.2969 L1472,220.2969 L1472,213.6406 L1470.2813,213.6406 Q1469.6719,213.6406 1469.4063,213.4063 Q1469.1406,213.1719 1469.1406,212.7813 Q1469.1406,212.4063 1469.4063,212.1719 Q1469.6719,211.9375 1470.2813,211.9375 L1475.4219,211.9375 Q1476.0313,211.9375 1476.2969,212.1719 Q1476.5625,212.4063 1476.5625,212.7813 Q1476.5625,213.1719 1476.2969,213.4063 Q1476.0313,213.6406 1475.4219,213.6406 L1473.7031,213.6406 Z " fill="#000000"/><text fill="#000000" font-family="sans-serif" font-size="14" font-style="italic" lengthAdjust="spacing" textLength="206" x="1493.25" y="222.7969">SendMessageToGatewayActivity</text><line style="stroke:#181818;stroke-width:0.5;" x1="1199.5" x2="1960.5" y1="233" y2="233"/><line style="stroke:#181818;stroke-width:0.5;" x1="1199.5" x2="1960.5" y1="241" y2="241"/><ellipse cx="1209.5" cy="255.8105" fill="#84BE84" rx="3" ry="3" style="stroke:#038048;stroke-width:1.0;"/><text fill="#000000" font-family="sans-serif" font-size="14" lengthAdjust="spacing" textLength="737" x="1218.5" y="260.1074">Map&lt;String, String&gt; invokeGateway(String userId, String workflowRunId, String gatewayUrl, Preferences preferences)</text></g><!--class SendMessageToGatewayActivityImpl--><g id="elem_SendMessageToGatewayActivityImpl"><rect codeLine="53" fill="#F1F1F1" height="141.1055" id="SendMessageToGatewayActivityImpl" rx="2.5" ry="2.5" style="stroke:#181818;stroke-width:0.5;" width="763" x="1198.5" y="328"/><ellipse cx="1460.25" cy="344" fill="#ADD1B2" rx="11" ry="11" style="stroke:#181818;stroke-width:1.0;"/><path d="M1463.0156,339.875 Q1463.1719,339.6563 1463.3594,339.5469 Q1463.5469,339.4375 1463.7656,339.4375 Q1464.1406,339.4375 1464.375,339.7031 Q1464.6094,339.9531 1464.6094,340.5625 L1464.6094,342.0156 Q1464.6094,342.625 1464.375,342.8906 Q1464.1406,343.1563 1463.7656,343.1563 Q1463.4219,343.1563 1463.2188,342.9531 Q1463.0156,342.7656 1462.9063,342.25 Q1462.8594,341.8906 1462.6719,341.7031 Q1462.3438,341.3281 1461.7344,341.1094 Q1461.125,340.8906 1460.5,340.8906 Q1459.7344,340.8906 1459.0938,341.2188 Q1458.4688,341.5469 1457.9688,342.2969 Q1457.4844,343.0469 1457.4844,344.0781 L1457.4844,345.1719 Q1457.4844,346.4063 1458.375,347.2344 Q1459.2656,348.0469 1460.8594,348.0469 Q1461.7969,348.0469 1462.4531,347.7969 Q1462.8438,347.6406 1463.2656,347.2031 Q1463.5313,346.9375 1463.6719,346.8594 Q1463.8281,346.7813 1464.0313,346.7813 Q1464.3594,346.7813 1464.6094,347.0469 Q1464.875,347.2969 1464.875,347.6406 Q1464.875,347.9844 1464.5313,348.3906 Q1464.0313,348.9688 1463.2344,349.2969 Q1462.1563,349.75 1460.8594,349.75 Q1459.3438,349.75 1458.1406,349.125 Q1457.1563,348.625 1456.4688,347.5625 Q1455.7813,346.4844 1455.7813,345.2031 L1455.7813,344.0469 Q1455.7813,342.7188 1456.3906,341.5781 Q1457.0156,340.4219 1458.1094,339.8125 Q1459.2031,339.1875 1460.4375,339.1875 Q1461.1719,339.1875 1461.8125,339.3594 Q1462.4688,339.5156 1463.0156,339.875 Z " fill="#000000"/><text fill="#000000" font-family="sans-serif" font-size="14" lengthAdjust="spacing" textLength="231" x="1480.75" y="349.7969">SendMessageToGatewayActivityImpl</text><line style="stroke:#181818;stroke-width:0.5;" x1="1199.5" x2="1960.5" y1="360" y2="360"/><rect fill="none" height="6" style="stroke:#C82930;stroke-width:1.0;" width="6" x="1206.5" y="371.8105"/><text fill="#000000" font-family="sans-serif" font-size="14" lengthAdjust="spacing" text-decoration="underline" textLength="132" x="1218.5" y="379.1074">String HEADER_KEY</text><rect fill="none" height="6" style="stroke:#C82930;stroke-width:1.0;" width="6" x="1206.5" y="390.4316"/><text fill="#000000" font-family="sans-serif" font-size="14" lengthAdjust="spacing" textLength="130" x="1218.5" y="397.7285">WebClient webClient</text><rect fill="none" height="6" style="stroke:#C82930;stroke-width:1.0;" width="6" x="1206.5" y="409.0527"/><text fill="#000000" font-family="sans-serif" font-size="14" lengthAdjust="spacing" textLength="84" x="1218.5" y="416.3496">String apiKey</text><line style="stroke:#181818;stroke-width:0.5;" x1="1199.5" x2="1960.5" y1="423.8633" y2="423.8633"/><ellipse cx="1209.5" cy="438.6738" fill="#84BE84" rx="3" ry="3" style="stroke:#038048;stroke-width:1.0;"/><text fill="#000000" font-family="sans-serif" font-size="14" lengthAdjust="spacing" textLength="463" x="1218.5" y="442.9707">SendMessageToGatewayActivityImpl(WebClient webClient, String apiKey)</text><ellipse cx="1209.5" cy="457.2949" fill="#84BE84" rx="3" ry="3" style="stroke:#038048;stroke-width:1.0;"/><text fill="#000000" font-family="sans-serif" font-size="14" lengthAdjust="spacing" textLength="737" x="1218.5" y="461.5918">Map&lt;String, String&gt; invokeGateway(String userId, String workflowRunId, String gatewayUrl, Preferences preferences)</text></g><!--reverse link WorkflowInterface to CommunicationWorkflow--><g id="link_WorkflowInterface_CommunicationWorkflow"><path d="M243,159.1 C243,176.21 243,181.77 243,200.82 " fill="none" id="WorkflowInterface-backto-CommunicationWorkflow" style="stroke:#181818;stroke-width:1.0;"/><polygon fill="none" points="243,141.1,237,159.1,249,159.1,243,141.1" style="stroke:#181818;stroke-width:1.0;"/></g><!--reverse link CommunicationWorkflow to CommunicationWorkflowImpl--><g id="link_CommunicationWorkflow_CommunicationWorkflowImpl"><path d="M243,286.28 C243,308.66 243,320.75 243,346.26 " fill="none" id="CommunicationWorkflow-backto-CommunicationWorkflowImpl" style="stroke:#181818;stroke-width:1.0;stroke-dasharray:7.0,7.0;"/><polygon fill="none" points="243,268.28,237,286.28,249,286.28,243,268.28" style="stroke:#181818;stroke-width:1.0;"/></g><!--reverse link ActivityInterface to GetPreferencesActivity--><g id="link_ActivityInterface_GetPreferencesActivity"><path d="M911.6367,147.0922 C863.0867,164.2322 813.19,181.86 759.21,200.93 " fill="none" id="ActivityInterface-backto-GetPreferencesActivity" style="stroke:#181818;stroke-width:1.0;"/><polygon fill="none" points="928.61,141.1,909.6393,141.4345,913.6341,152.75,928.61,141.1" style="stroke:#181818;stroke-width:1.0;"/></g><!--reverse link GetPreferencesActivity to GetPreferencesActivityImpl--><g id="link_GetPreferencesActivity_GetPreferencesActivityImpl"><path d="M662.3026,286.2035 C660.4726,305.9935 659.74,313.89 657.58,337.24 " fill="none" id="GetPreferencesActivity-backto-GetPreferencesActivityImpl" style="stroke:#181818;stroke-width:1.0;stroke-dasharray:7.0,7.0;"/><polygon fill="none" points="663.96,268.28,656.3281,285.6511,668.2771,286.756,663.96,268.28" style="stroke:#181818;stroke-width:1.0;"/></g><!--reverse link ActivityInterface to GetGatewayFromDbActivity--><g id="link_ActivityInterface_GetGatewayFromDbActivity"><path d="M994,159.1 C994,176.21 994,181.77 994,200.82 " fill="none" id="ActivityInterface-backto-GetGatewayFromDbActivity" style="stroke:#181818;stroke-width:1.0;"/><polygon fill="none" points="994,141.1,988,159.1,1000,159.1,994,141.1" style="stroke:#181818;stroke-width:1.0;"/></g><!--reverse link GetGatewayFromDbActivity to GetGatewayFromDbActivityImpl--><g id="link_GetGatewayFromDbActivity_GetGatewayFromDbActivityImpl"><path d="M994,286.28 C994,311.52 994,328.58 994,355.82 " fill="none" id="GetGatewayFromDbActivity-backto-GetGatewayFromDbActivityImpl" style="stroke:#181818;stroke-width:1.0;stroke-dasharray:7.0,7.0;"/><polygon fill="none" points="994,268.28,988,286.28,1000,286.28,994,268.28" style="stroke:#181818;stroke-width:1.0;"/></g><!--reverse link ActivityInterface to SendMessageToGatewayActivity--><g id="link_ActivityInterface_SendMessageToGatewayActivity"><path d="M1077.1803,134.3907 C1162.5203,151.2107 1297.06,177.73 1414.91,200.96 " fill="none" id="ActivityInterface-backto-SendMessageToGatewayActivity" style="stroke:#181818;stroke-width:1.0;"/><polygon fill="none" points="1059.52,130.91,1076.02,140.2775,1078.3405,128.504,1059.52,130.91" style="stroke:#181818;stroke-width:1.0;"/></g><!--reverse link SendMessageToGatewayActivity to SendMessageToGatewayActivityImpl--><g id="link_SendMessageToGatewayActivity_SendMessageToGatewayActivityImpl"><path d="M1580,286.28 C1580,303.48 1580,307.24 1580,327.97 " fill="none" id="SendMessageToGatewayActivity-backto-SendMessageToGatewayActivityImpl" style="stroke:#181818;stroke-width:1.0;stroke-dasharray:7.0,7.0;"/><polygon fill="none" points="1580,268.28,1574,286.28,1586,286.28,1580,268.28" style="stroke:#181818;stroke-width:1.0;"/></g><!--SRC=[nPHHJy8m4CVVzodk4ID-0sDY19MWKK5ZV39bkv7ArclQcqYCtzrEsh7103Kcyi3Mwzt__lsrdLIC9XKnmYEPMPhHV515tgEFA9BLy3Hc-IfviPQWY16OD52wgH61-wqAKaCvt6EkoOWCnhrXX2g1Kg6fiz7g1pernsUKvuMIiM19AdW3V6ENRLiNNBOvX6kXZyTif9fsOVay0Ujg6dgTjYmj5Xc9vA044sV2sdOFWrnd8DqVvgXuIzBIpP7N1XPsTbTWWJvyWNnhC4M3AaORYC4KUOpChgAA_TsgcWTYYuF0TsCJ0zvQKMctDkpKmBMhhvFRuY6m6nOJD0ePxLacNG74Nmy_6qxGhI6DXgNpmniXdtipUS6O7HqN1geDzYwgN5AJseLWd8l5kJl5lSdtkVc3CAq4-YhHv9GVHbUTCBcS6IHDagqTMrYsvWMOVdA4cgnaCelGRHNvjTCLdx63S8tMYYdUao_VpsZdtPNgbMRejKB_mg8P9249vlxMZGfLYtgJ3oRhDdPOhzvhe7TPNuUzSvc1-BjbTolZZs3did_Qwu-UX_qdd_284t-mv-6j-TKGMWwnsfOz_ZejSjscqi6_Oeu-0G00]--></g></svg>