<?xml version="1.0" encoding="us-ascii" standalone="no"?><svg xmlns="http://www.w3.org/2000/svg" xmlns:xlink="http://www.w3.org/1999/xlink" contentStyleType="text/css" height="1089px" preserveAspectRatio="none" style="width:3058px;height:1089px;background:#FFFFFF;" version="1.1" viewBox="0 0 3058 1089" width="3058px" zoomAndPan="magnify"><defs/><g><!--cluster communicationGateway--><g id="cluster_communicationGateway"><path d="M8.5,249 L180.5,249 A3.75,3.75 0 0 1 183,251.5 L190,273.6211 L3048.5,273.6211 A2.5,2.5 0 0 1 3051,276.1211 L3051,1079.5 A2.5,2.5 0 0 1 3048.5,1082 L8.5,1082 A2.5,2.5 0 0 1 6,1079.5 L6,251.5 A2.5,2.5 0 0 1 8.5,249 " fill="none" style="stroke:#000000;stroke-width:1.5;"/><line style="stroke:#000000;stroke-width:1.5;" x1="6" x2="190" y1="273.6211" y2="273.6211"/><text fill="#000000" font-family="sans-serif" font-size="14" font-weight="bold" lengthAdjust="spacing" textLength="171" x="10" y="266.1074">Communication Gateway</text></g><!--entity Worker--><g id="elem_Worker"><rect fill="#F1F1F1" height="48.6211" rx="2.5" ry="2.5" style="stroke:#181818;stroke-width:0.5;" width="86" x="1812" y="7"/><rect fill="#F1F1F1" height="10" style="stroke:#181818;stroke-width:0.5;" width="15" x="1878" y="12"/><rect fill="#F1F1F1" height="2" style="stroke:#181818;stroke-width:0.5;" width="4" x="1876" y="14"/><rect fill="#F1F1F1" height="2" style="stroke:#181818;stroke-width:0.5;" width="4" x="1876" y="18"/><text fill="#000000" font-family="sans-serif" font-size="14" lengthAdjust="spacing" textLength="46" x="1827" y="42.1074">Worker</text></g><!--class GatewayHelper--><g id="elem_GatewayHelper"><rect codeLine="15" fill="#F1F1F1" height="66.6211" id="GatewayHelper" rx="2.5" ry="2.5" style="stroke:#181818;stroke-width:0.5;" width="460" x="1267" y="826"/><ellipse cx="1444.75" cy="842" fill="#ADD1B2" rx="11" ry="11" style="stroke:#181818;stroke-width:1.0;"/><path d="M1447.5156,837.875 Q1447.6719,837.6563 1447.8594,837.5469 Q1448.0469,837.4375 1448.2656,837.4375 Q1448.6406,837.4375 1448.875,837.7031 Q1449.1094,837.9531 1449.1094,838.5625 L1449.1094,840.0156 Q1449.1094,840.625 1448.875,840.8906 Q1448.6406,841.1563 1448.2656,841.1563 Q1447.9219,841.1563 1447.7188,840.9531 Q1447.5156,840.7656 1447.4063,840.25 Q1447.3594,839.8906 1447.1719,839.7031 Q1446.8438,839.3281 1446.2344,839.1094 Q1445.625,838.8906 1445,838.8906 Q1444.2344,838.8906 1443.5938,839.2188 Q1442.9688,839.5469 1442.4688,840.2969 Q1441.9844,841.0469 1441.9844,842.0781 L1441.9844,843.1719 Q1441.9844,844.4063 1442.875,845.2344 Q1443.7656,846.0469 1445.3594,846.0469 Q1446.2969,846.0469 1446.9531,845.7969 Q1447.3438,845.6406 1447.7656,845.2031 Q1448.0313,844.9375 1448.1719,844.8594 Q1448.3281,844.7813 1448.5313,844.7813 Q1448.8594,844.7813 1449.1094,845.0469 Q1449.375,845.2969 1449.375,845.6406 Q1449.375,845.9844 1449.0313,846.3906 Q1448.5313,846.9688 1447.7344,847.2969 Q1446.6563,847.75 1445.3594,847.75 Q1443.8438,847.75 1442.6406,847.125 Q1441.6563,846.625 1440.9688,845.5625 Q1440.2813,844.4844 1440.2813,843.2031 L1440.2813,842.0469 Q1440.2813,840.7188 1440.8906,839.5781 Q1441.5156,838.4219 1442.6094,837.8125 Q1443.7031,837.1875 1444.9375,837.1875 Q1445.6719,837.1875 1446.3125,837.3594 Q1446.9688,837.5156 1447.5156,837.875 Z " fill="#000000"/><text fill="#000000" font-family="sans-serif" font-size="14" lengthAdjust="spacing" textLength="96" x="1465.25" y="847.7969">GatewayHelper</text><line style="stroke:#181818;stroke-width:0.5;" x1="1268" x2="1726" y1="858" y2="858"/><line style="stroke:#181818;stroke-width:0.5;" x1="1268" x2="1726" y1="866" y2="866"/><ellipse cx="1278" cy="880.8105" fill="#84BE84" rx="3" ry="3" style="stroke:#038048;stroke-width:1.0;"/><text fill="#000000" font-family="sans-serif" font-size="14" lengthAdjust="spacing" textLength="434" x="1287" y="885.1074">String messageHash(String workflowRunId, String messageContents)</text></g><!--class CommunicationHistoryAccessProvider--><g id="elem_CommunicationHistoryAccessProvider"><rect codeLine="19" fill="#F1F1F1" height="85.2422" id="CommunicationHistoryAccessProvider" rx="2.5" ry="2.5" style="stroke:#181818;stroke-width:0.5;" width="552" x="2483" y="653"/><ellipse cx="2635.75" cy="669" fill="#B4A7E5" rx="11" ry="11" style="stroke:#181818;stroke-width:1.0;"/><path d="M2636.7031,665.6406 L2636.7031,672.2969 L2638.4219,672.2969 Q2639.0313,672.2969 2639.2969,672.5313 Q2639.5625,672.7656 2639.5625,673.1563 Q2639.5625,673.5313 2639.2969,673.7656 Q2639.0313,674 2638.4219,674 L2633.2813,674 Q2632.6719,674 2632.4063,673.7656 Q2632.1406,673.5313 2632.1406,673.1406 Q2632.1406,672.7656 2632.4063,672.5313 Q2632.6719,672.2969 2633.2813,672.2969 L2635,672.2969 L2635,665.6406 L2633.2813,665.6406 Q2632.6719,665.6406 2632.4063,665.4063 Q2632.1406,665.1719 2632.1406,664.7813 Q2632.1406,664.4063 2632.4063,664.1719 Q2632.6719,663.9375 2633.2813,663.9375 L2638.4219,663.9375 Q2639.0313,663.9375 2639.2969,664.1719 Q2639.5625,664.4063 2639.5625,664.7813 Q2639.5625,665.1719 2639.2969,665.4063 Q2639.0313,665.6406 2638.4219,665.6406 L2636.7031,665.6406 Z " fill="#000000"/><text fill="#000000" font-family="sans-serif" font-size="14" font-style="italic" lengthAdjust="spacing" textLength="238" x="2656.25" y="674.7969">CommunicationHistoryAccessProvider</text><line style="stroke:#181818;stroke-width:0.5;" x1="2484" x2="3034" y1="685" y2="685"/><line style="stroke:#181818;stroke-width:0.5;" x1="2484" x2="3034" y1="693" y2="693"/><ellipse cx="2494" cy="707.8105" fill="#84BE84" rx="3" ry="3" style="stroke:#038048;stroke-width:1.0;"/><text fill="#000000" font-family="sans-serif" font-size="14" lengthAdjust="spacing" textLength="502" x="2503" y="712.1074">Communication getPreviousCommunicationMessageHash(String messageHash)</text><ellipse cx="2494" cy="726.4316" fill="#84BE84" rx="3" ry="3" style="stroke:#038048;stroke-width:1.0;"/><text fill="#000000" font-family="sans-serif" font-size="14" lengthAdjust="spacing" textLength="526" x="2503" y="730.7285">void storeCommunication(String workflowRunId, String userId, String messageHash)</text></g><!--class DefaultCommunicationHistoryAccessProvider--><g id="elem_DefaultCommunicationHistoryAccessProvider"><rect codeLine="24" fill="#F1F1F1" height="85.2422" id="DefaultCommunicationHistoryAccessProvider" rx="2.5" ry="2.5" style="stroke:#181818;stroke-width:0.5;" width="552" x="2395" y="817"/><ellipse cx="2525.25" cy="833" fill="#ADD1B2" rx="11" ry="11" style="stroke:#181818;stroke-width:1.0;"/><path d="M2528.0156,828.875 Q2528.1719,828.6563 2528.3594,828.5469 Q2528.5469,828.4375 2528.7656,828.4375 Q2529.1406,828.4375 2529.375,828.7031 Q2529.6094,828.9531 2529.6094,829.5625 L2529.6094,831.0156 Q2529.6094,831.625 2529.375,831.8906 Q2529.1406,832.1563 2528.7656,832.1563 Q2528.4219,832.1563 2528.2188,831.9531 Q2528.0156,831.7656 2527.9063,831.25 Q2527.8594,830.8906 2527.6719,830.7031 Q2527.3438,830.3281 2526.7344,830.1094 Q2526.125,829.8906 2525.5,829.8906 Q2524.7344,829.8906 2524.0938,830.2188 Q2523.4688,830.5469 2522.9688,831.2969 Q2522.4844,832.0469 2522.4844,833.0781 L2522.4844,834.1719 Q2522.4844,835.4063 2523.375,836.2344 Q2524.2656,837.0469 2525.8594,837.0469 Q2526.7969,837.0469 2527.4531,836.7969 Q2527.8438,836.6406 2528.2656,836.2031 Q2528.5313,835.9375 2528.6719,835.8594 Q2528.8281,835.7813 2529.0313,835.7813 Q2529.3594,835.7813 2529.6094,836.0469 Q2529.875,836.2969 2529.875,836.6406 Q2529.875,836.9844 2529.5313,837.3906 Q2529.0313,837.9688 2528.2344,838.2969 Q2527.1563,838.75 2525.8594,838.75 Q2524.3438,838.75 2523.1406,838.125 Q2522.1563,837.625 2521.4688,836.5625 Q2520.7813,835.4844 2520.7813,834.2031 L2520.7813,833.0469 Q2520.7813,831.7188 2521.3906,830.5781 Q2522.0156,829.4219 2523.1094,828.8125 Q2524.2031,828.1875 2525.4375,828.1875 Q2526.1719,828.1875 2526.8125,828.3594 Q2527.4688,828.5156 2528.0156,828.875 Z " fill="#000000"/><text fill="#000000" font-family="sans-serif" font-size="14" lengthAdjust="spacing" textLength="283" x="2545.75" y="838.7969">DefaultCommunicationHistoryAccessProvider</text><line style="stroke:#181818;stroke-width:0.5;" x1="2396" x2="2946" y1="849" y2="849"/><line style="stroke:#181818;stroke-width:0.5;" x1="2396" x2="2946" y1="857" y2="857"/><ellipse cx="2406" cy="871.8105" fill="#84BE84" rx="3" ry="3" style="stroke:#038048;stroke-width:1.0;"/><text fill="#000000" font-family="sans-serif" font-size="14" lengthAdjust="spacing" textLength="502" x="2415" y="876.1074">Communication getPreviousCommunicationMessageHash(String messageHash)</text><ellipse cx="2406" cy="890.4316" fill="#84BE84" rx="3" ry="3" style="stroke:#038048;stroke-width:1.0;"/><text fill="#000000" font-family="sans-serif" font-size="14" lengthAdjust="spacing" textLength="526" x="2415" y="894.7285">void storeCommunication(String workflowRunId, String userId, String messageHash)</text></g><!--class GatewayController--><g id="elem_GatewayController"><rect codeLine="29" fill="#F1F1F1" height="66.6211" id="GatewayController" rx="2.5" ry="2.5" style="stroke:#181818;stroke-width:0.5;" width="404" x="1653" y="286"/><ellipse cx="1792.25" cy="302" fill="#B4A7E5" rx="11" ry="11" style="stroke:#181818;stroke-width:1.0;"/><path d="M1793.2031,298.6406 L1793.2031,305.2969 L1794.9219,305.2969 Q1795.5313,305.2969 1795.7969,305.5313 Q1796.0625,305.7656 1796.0625,306.1563 Q1796.0625,306.5313 1795.7969,306.7656 Q1795.5313,307 1794.9219,307 L1789.7813,307 Q1789.1719,307 1788.9063,306.7656 Q1788.6406,306.5313 1788.6406,306.1406 Q1788.6406,305.7656 1788.9063,305.5313 Q1789.1719,305.2969 1789.7813,305.2969 L1791.5,305.2969 L1791.5,298.6406 L1789.7813,298.6406 Q1789.1719,298.6406 1788.9063,298.4063 Q1788.6406,298.1719 1788.6406,297.7813 Q1788.6406,297.4063 1788.9063,297.1719 Q1789.1719,296.9375 1789.7813,296.9375 L1794.9219,296.9375 Q1795.5313,296.9375 1795.7969,297.1719 Q1796.0625,297.4063 1796.0625,297.7813 Q1796.0625,298.1719 1795.7969,298.4063 Q1795.5313,298.6406 1794.9219,298.6406 L1793.2031,298.6406 Z " fill="#000000"/><text fill="#000000" font-family="sans-serif" font-size="14" font-style="italic" lengthAdjust="spacing" textLength="117" x="1812.75" y="307.7969">GatewayController</text><line style="stroke:#181818;stroke-width:0.5;" x1="1654" x2="2056" y1="318" y2="318"/><line style="stroke:#181818;stroke-width:0.5;" x1="1654" x2="2056" y1="326" y2="326"/><ellipse cx="1664" cy="340.8105" fill="#84BE84" rx="3" ry="3" style="stroke:#038048;stroke-width:1.0;"/><text fill="#000000" font-family="sans-serif" font-size="14" lengthAdjust="spacing" textLength="378" x="1673" y="345.1074">ResponseEntity sendCommunication(userId, workflowRunId)</text></g><!--class EmailGatewayController--><g id="elem_EmailGatewayController"><rect codeLine="33" fill="#F1F1F1" height="66.6211" id="EmailGatewayController" rx="2.5" ry="2.5" style="stroke:#181818;stroke-width:0.5;" width="404" x="1653" y="460.5"/><ellipse cx="1775.25" cy="476.5" fill="#ADD1B2" rx="11" ry="11" style="stroke:#181818;stroke-width:1.0;"/><path d="M1778.0156,472.375 Q1778.1719,472.1563 1778.3594,472.0469 Q1778.5469,471.9375 1778.7656,471.9375 Q1779.1406,471.9375 1779.375,472.2031 Q1779.6094,472.4531 1779.6094,473.0625 L1779.6094,474.5156 Q1779.6094,475.125 1779.375,475.3906 Q1779.1406,475.6563 1778.7656,475.6563 Q1778.4219,475.6563 1778.2188,475.4531 Q1778.0156,475.2656 1777.9063,474.75 Q1777.8594,474.3906 1777.6719,474.2031 Q1777.3438,473.8281 1776.7344,473.6094 Q1776.125,473.3906 1775.5,473.3906 Q1774.7344,473.3906 1774.0938,473.7188 Q1773.4688,474.0469 1772.9688,474.7969 Q1772.4844,475.5469 1772.4844,476.5781 L1772.4844,477.6719 Q1772.4844,478.9063 1773.375,479.7344 Q1774.2656,480.5469 1775.8594,480.5469 Q1776.7969,480.5469 1777.4531,480.2969 Q1777.8438,480.1406 1778.2656,479.7031 Q1778.5313,479.4375 1778.6719,479.3594 Q1778.8281,479.2813 1779.0313,479.2813 Q1779.3594,479.2813 1779.6094,479.5469 Q1779.875,479.7969 1779.875,480.1406 Q1779.875,480.4844 1779.5313,480.8906 Q1779.0313,481.4688 1778.2344,481.7969 Q1777.1563,482.25 1775.8594,482.25 Q1774.3438,482.25 1773.1406,481.625 Q1772.1563,481.125 1771.4688,480.0625 Q1770.7813,478.9844 1770.7813,477.7031 L1770.7813,476.5469 Q1770.7813,475.2188 1771.3906,474.0781 Q1772.0156,472.9219 1773.1094,472.3125 Q1774.2031,471.6875 1775.4375,471.6875 Q1776.1719,471.6875 1776.8125,471.8594 Q1777.4688,472.0156 1778.0156,472.375 Z " fill="#000000"/><text fill="#000000" font-family="sans-serif" font-size="14" lengthAdjust="spacing" textLength="151" x="1795.75" y="482.2969">EmailGatewayController</text><line style="stroke:#181818;stroke-width:0.5;" x1="1654" x2="2056" y1="492.5" y2="492.5"/><line style="stroke:#181818;stroke-width:0.5;" x1="1654" x2="2056" y1="500.5" y2="500.5"/><ellipse cx="1664" cy="515.3105" fill="#84BE84" rx="3" ry="3" style="stroke:#038048;stroke-width:1.0;"/><text fill="#000000" font-family="sans-serif" font-size="14" lengthAdjust="spacing" textLength="378" x="1673" y="519.6074">ResponseEntity sendCommunication(userId, workflowRunId)</text></g><!--class GatewayProperties--><g id="elem_GatewayProperties"><rect codeLine="37" fill="#F1F1F1" height="159.7266" id="GatewayProperties" rx="2.5" ry="2.5" style="stroke:#181818;stroke-width:0.5;" width="503" x="2121.5" y="414"/><ellipse cx="2308.75" cy="430" fill="#ADD1B2" rx="11" ry="11" style="stroke:#181818;stroke-width:1.0;"/><path d="M2311.5156,425.875 Q2311.6719,425.6563 2311.8594,425.5469 Q2312.0469,425.4375 2312.2656,425.4375 Q2312.6406,425.4375 2312.875,425.7031 Q2313.1094,425.9531 2313.1094,426.5625 L2313.1094,428.0156 Q2313.1094,428.625 2312.875,428.8906 Q2312.6406,429.1563 2312.2656,429.1563 Q2311.9219,429.1563 2311.7188,428.9531 Q2311.5156,428.7656 2311.4063,428.25 Q2311.3594,427.8906 2311.1719,427.7031 Q2310.8438,427.3281 2310.2344,427.1094 Q2309.625,426.8906 2309,426.8906 Q2308.2344,426.8906 2307.5938,427.2188 Q2306.9688,427.5469 2306.4688,428.2969 Q2305.9844,429.0469 2305.9844,430.0781 L2305.9844,431.1719 Q2305.9844,432.4063 2306.875,433.2344 Q2307.7656,434.0469 2309.3594,434.0469 Q2310.2969,434.0469 2310.9531,433.7969 Q2311.3438,433.6406 2311.7656,433.2031 Q2312.0313,432.9375 2312.1719,432.8594 Q2312.3281,432.7813 2312.5313,432.7813 Q2312.8594,432.7813 2313.1094,433.0469 Q2313.375,433.2969 2313.375,433.6406 Q2313.375,433.9844 2313.0313,434.3906 Q2312.5313,434.9688 2311.7344,435.2969 Q2310.6563,435.75 2309.3594,435.75 Q2307.8438,435.75 2306.6406,435.125 Q2305.6563,434.625 2304.9688,433.5625 Q2304.2813,432.4844 2304.2813,431.2031 L2304.2813,430.0469 Q2304.2813,428.7188 2304.8906,427.5781 Q2305.5156,426.4219 2306.6094,425.8125 Q2307.7031,425.1875 2308.9375,425.1875 Q2309.6719,425.1875 2310.3125,425.3594 Q2310.9688,425.5156 2311.5156,425.875 Z " fill="#000000"/><text fill="#000000" font-family="sans-serif" font-size="14" lengthAdjust="spacing" textLength="120" x="2329.25" y="435.7969">GatewayProperties</text><line style="stroke:#181818;stroke-width:0.5;" x1="2122.5" x2="2623.5" y1="446" y2="446"/><rect fill="none" height="6" style="stroke:#C82930;stroke-width:1.0;" width="6" x="2129.5" y="457.8105"/><text fill="#000000" font-family="sans-serif" font-size="14" lengthAdjust="spacing" textLength="80" x="2141.5" y="465.1074">String userId</text><rect fill="none" height="6" style="stroke:#C82930;stroke-width:1.0;" width="6" x="2129.5" y="476.4316"/><text fill="#000000" font-family="sans-serif" font-size="14" lengthAdjust="spacing" textLength="131" x="2141.5" y="483.7285">String workflowRunId</text><rect fill="none" height="6" style="stroke:#C82930;stroke-width:1.0;" width="6" x="2129.5" y="495.0527"/><text fill="#000000" font-family="sans-serif" font-size="14" lengthAdjust="spacing" textLength="297" x="2141.5" y="502.3496">ContentDeliveryService contentDeliveryService</text><rect fill="none" height="6" style="stroke:#C82930;stroke-width:1.0;" width="6" x="2129.5" y="513.6738"/><text fill="#000000" font-family="sans-serif" font-size="14" lengthAdjust="spacing" textLength="295" x="2141.5" y="520.9707">UserContentService&lt;?, ?&gt; userContentService</text><rect fill="none" height="6" style="stroke:#C82930;stroke-width:1.0;" width="6" x="2129.5" y="532.2949"/><text fill="#000000" font-family="sans-serif" font-size="14" lengthAdjust="spacing" textLength="477" x="2141.5" y="539.5918">CommunicationHistoryAccessProvider communicationHistoryAccessProvider</text><line style="stroke:#181818;stroke-width:0.5;" x1="2122.5" x2="2623.5" y1="547.1055" y2="547.1055"/><ellipse cx="2132.5" cy="561.916" fill="#84BE84" rx="3" ry="3" style="stroke:#038048;stroke-width:1.0;"/><text fill="#000000" font-family="sans-serif" font-size="14" lengthAdjust="spacing" textLength="191" x="2141.5" y="566.2129">Standard Getters() &amp; Setters()</text></g><!--class GatewayService--><g id="elem_GatewayService"><rect codeLine="46" fill="#F1F1F1" height="66.6211" id="GatewayService" rx="2.5" ry="2.5" style="stroke:#181818;stroke-width:0.5;" width="508" x="1110" y="460.5"/><ellipse cx="1309.25" cy="476.5" fill="#B4A7E5" rx="11" ry="11" style="stroke:#181818;stroke-width:1.0;"/><path d="M1310.2031,473.1406 L1310.2031,479.7969 L1311.9219,479.7969 Q1312.5313,479.7969 1312.7969,480.0313 Q1313.0625,480.2656 1313.0625,480.6563 Q1313.0625,481.0313 1312.7969,481.2656 Q1312.5313,481.5 1311.9219,481.5 L1306.7813,481.5 Q1306.1719,481.5 1305.9063,481.2656 Q1305.6406,481.0313 1305.6406,480.6406 Q1305.6406,480.2656 1305.9063,480.0313 Q1306.1719,479.7969 1306.7813,479.7969 L1308.5,479.7969 L1308.5,473.1406 L1306.7813,473.1406 Q1306.1719,473.1406 1305.9063,472.9063 Q1305.6406,472.6719 1305.6406,472.2813 Q1305.6406,471.9063 1305.9063,471.6719 Q1306.1719,471.4375 1306.7813,471.4375 L1311.9219,471.4375 Q1312.5313,471.4375 1312.7969,471.6719 Q1313.0625,471.9063 1313.0625,472.2813 Q1313.0625,472.6719 1312.7969,472.9063 Q1312.5313,473.1406 1311.9219,473.1406 L1310.2031,473.1406 Z " fill="#000000"/><text fill="#000000" font-family="sans-serif" font-size="14" font-style="italic" lengthAdjust="spacing" textLength="101" x="1329.75" y="482.2969">GatewayService</text><line style="stroke:#181818;stroke-width:0.5;" x1="1111" x2="1617" y1="492.5" y2="492.5"/><line style="stroke:#181818;stroke-width:0.5;" x1="1111" x2="1617" y1="500.5" y2="500.5"/><ellipse cx="1121" cy="515.3105" fill="#84BE84" rx="3" ry="3" style="stroke:#038048;stroke-width:1.0;"/><text fill="#000000" font-family="sans-serif" font-size="14" lengthAdjust="spacing" textLength="482" x="1130" y="519.6074">ResponseEntity sendCommunication(GatewayProperties gatewayProperties)</text></g><!--class CommunicationGatewayService--><g id="elem_CommunicationGatewayService"><rect codeLine="50" fill="#F1F1F1" height="66.6211" id="CommunicationGatewayService" rx="2.5" ry="2.5" style="stroke:#181818;stroke-width:0.5;" width="513" x="1240.5" y="662"/><ellipse cx="1393.25" cy="678" fill="#ADD1B2" rx="11" ry="11" style="stroke:#181818;stroke-width:1.0;"/><path d="M1396.0156,673.875 Q1396.1719,673.6563 1396.3594,673.5469 Q1396.5469,673.4375 1396.7656,673.4375 Q1397.1406,673.4375 1397.375,673.7031 Q1397.6094,673.9531 1397.6094,674.5625 L1397.6094,676.0156 Q1397.6094,676.625 1397.375,676.8906 Q1397.1406,677.1563 1396.7656,677.1563 Q1396.4219,677.1563 1396.2188,676.9531 Q1396.0156,676.7656 1395.9063,676.25 Q1395.8594,675.8906 1395.6719,675.7031 Q1395.3438,675.3281 1394.7344,675.1094 Q1394.125,674.8906 1393.5,674.8906 Q1392.7344,674.8906 1392.0938,675.2188 Q1391.4688,675.5469 1390.9688,676.2969 Q1390.4844,677.0469 1390.4844,678.0781 L1390.4844,679.1719 Q1390.4844,680.4063 1391.375,681.2344 Q1392.2656,682.0469 1393.8594,682.0469 Q1394.7969,682.0469 1395.4531,681.7969 Q1395.8438,681.6406 1396.2656,681.2031 Q1396.5313,680.9375 1396.6719,680.8594 Q1396.8281,680.7813 1397.0313,680.7813 Q1397.3594,680.7813 1397.6094,681.0469 Q1397.875,681.2969 1397.875,681.6406 Q1397.875,681.9844 1397.5313,682.3906 Q1397.0313,682.9688 1396.2344,683.2969 Q1395.1563,683.75 1393.8594,683.75 Q1392.3438,683.75 1391.1406,683.125 Q1390.1563,682.625 1389.4688,681.5625 Q1388.7813,680.4844 1388.7813,679.2031 L1388.7813,678.0469 Q1388.7813,676.7188 1389.3906,675.5781 Q1390.0156,674.4219 1391.1094,673.8125 Q1392.2031,673.1875 1393.4375,673.1875 Q1394.1719,673.1875 1394.8125,673.3594 Q1395.4688,673.5156 1396.0156,673.875 Z " fill="#000000"/><text fill="#000000" font-family="sans-serif" font-size="14" lengthAdjust="spacing" textLength="199" x="1413.75" y="683.7969">CommunicationGatewayService</text><line style="stroke:#181818;stroke-width:0.5;" x1="1241.5" x2="1752.5" y1="694" y2="694"/><line style="stroke:#181818;stroke-width:0.5;" x1="1241.5" x2="1752.5" y1="702" y2="702"/><ellipse cx="1251.5" cy="716.8105" fill="#84BE84" rx="3" ry="3" style="stroke:#038048;stroke-width:1.0;"/><text fill="#000000" font-family="sans-serif" font-size="14" lengthAdjust="spacing" textLength="487" x="1260.5" y="721.1074">ResponseEntity sendCommunication(GatewayProperties gatewayProperties))</text></g><g id="elem_GMN17"><path d="M1788.5,673 L1788.5,691.5 L1753.75,695.5 L1788.5,699.5 L1788.5,717.582 A0,0 0 0 0 1788.5,717.582 L2077.5,717.582 A0,0 0 0 0 2077.5,717.582 L2077.5,683 L2067.5,673 L1788.5,673 A0,0 0 0 0 1788.5,673 " fill="#FEFFDD" style="stroke:#181818;stroke-width:0.5;"/><path d="M2067.5,673 L2067.5,683 L2077.5,683 L2067.5,673 " fill="#FEFFDD" style="stroke:#181818;stroke-width:0.5;"/><text fill="#000000" font-family="sans-serif" font-size="13" lengthAdjust="spacing" textLength="268" x="1794.5" y="692.0283">GatewayProperties object can be created by a</text><text fill="#000000" font-family="sans-serif" font-size="13" lengthAdjust="spacing" textLength="200" x="1794.5" y="709.3193">builder and passed to this method.</text></g><!--class GetUserWithContent--><g id="elem_GetUserWithContent"><rect codeLine="58" fill="#F1F1F1" height="66.6211" id="GetUserWithContent" rx="2.5" ry="2.5" style="stroke:#181818;stroke-width:0.5;" width="431" x="22.5" y="662"/><ellipse cx="121.25" cy="678" fill="#B4A7E5" rx="11" ry="11" style="stroke:#181818;stroke-width:1.0;"/><path d="M122.2031,674.6406 L122.2031,681.2969 L123.9219,681.2969 Q124.5313,681.2969 124.7969,681.5313 Q125.0625,681.7656 125.0625,682.1563 Q125.0625,682.5313 124.7969,682.7656 Q124.5313,683 123.9219,683 L118.7813,683 Q118.1719,683 117.9063,682.7656 Q117.6406,682.5313 117.6406,682.1406 Q117.6406,681.7656 117.9063,681.5313 Q118.1719,681.2969 118.7813,681.2969 L120.5,681.2969 L120.5,674.6406 L118.7813,674.6406 Q118.1719,674.6406 117.9063,674.4063 Q117.6406,674.1719 117.6406,673.7813 Q117.6406,673.4063 117.9063,673.1719 Q118.1719,672.9375 118.7813,672.9375 L123.9219,672.9375 Q124.5313,672.9375 124.7969,673.1719 Q125.0625,673.4063 125.0625,673.7813 Q125.0625,674.1719 124.7969,674.4063 Q124.5313,674.6406 123.9219,674.6406 L122.2031,674.6406 Z " fill="#000000"/><text fill="#000000" font-family="sans-serif" font-size="14" font-style="italic" lengthAdjust="spacing" textLength="132" x="141.75" y="683.7969">GetUserWithContent</text><rect fill="#FFFFFF" height="17.9609" style="stroke:#181818;stroke-width:1.0;stroke-dasharray:2.0,2.0;" width="91" x="365.5" y="659"/><text fill="#000000" font-family="sans-serif" font-size="12" font-style="italic" lengthAdjust="spacing" textLength="89" x="366.5" y="672.9492">TUser, TContent</text><line style="stroke:#181818;stroke-width:0.5;" x1="23.5" x2="452.5" y1="694" y2="694"/><line style="stroke:#181818;stroke-width:0.5;" x1="23.5" x2="452.5" y1="702" y2="702"/><ellipse cx="33.5" cy="716.8105" fill="#84BE84" rx="3" ry="3" style="stroke:#038048;stroke-width:1.0;"/><text fill="#000000" font-family="sans-serif" font-size="14" lengthAdjust="spacing" textLength="405" x="42.5" y="721.1074">UserAndContent&lt;TUser, TContent&gt; getUserWithContent(userId)</text></g><g id="elem_GMN21"><path d="M96,463 L96,524.873 A0,0 0 0 0 96,524.873 L234,524.873 L238,661.92 L242,524.873 L380,524.873 A0,0 0 0 0 380,524.873 L380,473 L370,463 L96,463 A0,0 0 0 0 96,463 " fill="#FEFFDD" style="stroke:#181818;stroke-width:0.5;"/><path d="M370,463 L370,473 L380,473 L370,463 " fill="#FEFFDD" style="stroke:#181818;stroke-width:0.5;"/><text fill="#000000" font-family="sans-serif" font-size="13" lengthAdjust="spacing" textLength="255" x="102" y="482.0283">This interface is for when using a JOIN when</text><text fill="#000000" font-family="sans-serif" font-size="13" lengthAdjust="spacing" textLength="263" x="102" y="499.3193">accessing the database to retrieve the results</text><text fill="#000000" font-family="sans-serif" font-size="13" lengthAdjust="spacing" textLength="88" x="102" y="516.6104">with one query.</text></g><!--class GetUserAndContent--><g id="elem_GetUserAndContent"><rect codeLine="67" fill="#F1F1F1" height="85.2422" id="GetUserAndContent" rx="2.5" ry="2.5" style="stroke:#181818;stroke-width:0.5;" width="253" x="952.5" y="653"/><ellipse cx="967.5" cy="669" fill="#B4A7E5" rx="11" ry="11" style="stroke:#181818;stroke-width:1.0;"/><path d="M968.4531,665.6406 L968.4531,672.2969 L970.1719,672.2969 Q970.7813,672.2969 971.0469,672.5313 Q971.3125,672.7656 971.3125,673.1563 Q971.3125,673.5313 971.0469,673.7656 Q970.7813,674 970.1719,674 L965.0313,674 Q964.4219,674 964.1563,673.7656 Q963.8906,673.5313 963.8906,673.1406 Q963.8906,672.7656 964.1563,672.5313 Q964.4219,672.2969 965.0313,672.2969 L966.75,672.2969 L966.75,665.6406 L965.0313,665.6406 Q964.4219,665.6406 964.1563,665.4063 Q963.8906,665.1719 963.8906,664.7813 Q963.8906,664.4063 964.1563,664.1719 Q964.4219,663.9375 965.0313,663.9375 L970.1719,663.9375 Q970.7813,663.9375 971.0469,664.1719 Q971.3125,664.4063 971.3125,664.7813 Q971.3125,665.1719 971.0469,665.4063 Q970.7813,665.6406 970.1719,665.6406 L968.4531,665.6406 Z " fill="#000000"/><text fill="#000000" font-family="sans-serif" font-size="14" font-style="italic" lengthAdjust="spacing" textLength="128" x="981.5" y="674.7969">GetUserAndContent</text><rect fill="#FFFFFF" height="17.9609" style="stroke:#181818;stroke-width:1.0;stroke-dasharray:2.0,2.0;" width="91" x="1117.5" y="650"/><text fill="#000000" font-family="sans-serif" font-size="12" font-style="italic" lengthAdjust="spacing" textLength="89" x="1118.5" y="663.9492">TUser, TContent</text><line style="stroke:#181818;stroke-width:0.5;" x1="953.5" x2="1204.5" y1="685" y2="685"/><line style="stroke:#181818;stroke-width:0.5;" x1="953.5" x2="1204.5" y1="693" y2="693"/><ellipse cx="963.5" cy="707.8105" fill="#84BE84" rx="3" ry="3" style="stroke:#038048;stroke-width:1.0;"/><text fill="#000000" font-family="sans-serif" font-size="14" lengthAdjust="spacing" textLength="140" x="972.5" y="712.1074">TUser getUser(userId)</text><ellipse cx="963.5" cy="726.4316" fill="#84BE84" rx="3" ry="3" style="stroke:#038048;stroke-width:1.0;"/><text fill="#000000" font-family="sans-serif" font-size="14" lengthAdjust="spacing" textLength="182" x="972.5" y="730.7285">TContent getContent(userId)</text></g><!--class UserAndContent--><g id="elem_UserAndContent"><rect codeLine="72" fill="#F1F1F1" height="85.2422" id="UserAndContent" rx="2.5" ry="2.5" style="stroke:#181818;stroke-width:0.5;" width="229" x="732.5" y="981"/><ellipse cx="747.5" cy="997" fill="#ADD1B2" rx="11" ry="11" style="stroke:#181818;stroke-width:1.0;"/><path d="M750.2656,992.875 Q750.4219,992.6563 750.6094,992.5469 Q750.7969,992.4375 751.0156,992.4375 Q751.3906,992.4375 751.625,992.7031 Q751.8594,992.9531 751.8594,993.5625 L751.8594,995.0156 Q751.8594,995.625 751.625,995.8906 Q751.3906,996.1563 751.0156,996.1563 Q750.6719,996.1563 750.4688,995.9531 Q750.2656,995.7656 750.1563,995.25 Q750.1094,994.8906 749.9219,994.7031 Q749.5938,994.3281 748.9844,994.1094 Q748.375,993.8906 747.75,993.8906 Q746.9844,993.8906 746.3438,994.2188 Q745.7188,994.5469 745.2188,995.2969 Q744.7344,996.0469 744.7344,997.0781 L744.7344,998.1719 Q744.7344,999.4063 745.625,1000.2344 Q746.5156,1001.0469 748.1094,1001.0469 Q749.0469,1001.0469 749.7031,1000.7969 Q750.0938,1000.6406 750.5156,1000.2031 Q750.7813,999.9375 750.9219,999.8594 Q751.0781,999.7813 751.2813,999.7813 Q751.6094,999.7813 751.8594,1000.0469 Q752.125,1000.2969 752.125,1000.6406 Q752.125,1000.9844 751.7813,1001.3906 Q751.2813,1001.9688 750.4844,1002.2969 Q749.4063,1002.75 748.1094,1002.75 Q746.5938,1002.75 745.3906,1002.125 Q744.4063,1001.625 743.7188,1000.5625 Q743.0313,999.4844 743.0313,998.2031 L743.0313,997.0469 Q743.0313,995.7188 743.6406,994.5781 Q744.2656,993.4219 745.3594,992.8125 Q746.4531,992.1875 747.6875,992.1875 Q748.4219,992.1875 749.0625,992.3594 Q749.7188,992.5156 750.2656,992.875 Z " fill="#000000"/><text fill="#000000" font-family="sans-serif" font-size="14" lengthAdjust="spacing" textLength="104" x="761.5" y="1002.7969">UserAndContent</text><rect fill="#FFFFFF" height="17.9609" style="stroke:#181818;stroke-width:1.0;stroke-dasharray:2.0,2.0;" width="91" x="873.5" y="978"/><text fill="#000000" font-family="sans-serif" font-size="12" font-style="italic" lengthAdjust="spacing" textLength="89" x="874.5" y="991.9492">TUser, TContent</text><line style="stroke:#181818;stroke-width:0.5;" x1="733.5" x2="960.5" y1="1013" y2="1013"/><rect fill="none" height="6" style="stroke:#C82930;stroke-width:1.0;" width="6" x="740.5" y="1024.8105"/><text fill="#000000" font-family="sans-serif" font-size="14" lengthAdjust="spacing" textLength="70" x="752.5" y="1032.1074">TUser user</text><rect fill="none" height="6" style="stroke:#C82930;stroke-width:1.0;" width="6" x="740.5" y="1043.4316"/><text fill="#000000" font-family="sans-serif" font-size="14" lengthAdjust="spacing" textLength="110" x="752.5" y="1050.7285">TContent content</text><line style="stroke:#181818;stroke-width:0.5;" x1="733.5" x2="960.5" y1="1058.2422" y2="1058.2422"/></g><!--class UserContentService--><g id="elem_UserContentService"><rect codeLine="77" fill="#F1F1F1" height="66.6211" id="UserContentService" rx="2.5" ry="2.5" style="stroke:#181818;stroke-width:0.5;" width="428" x="489" y="662"/><ellipse cx="589.25" cy="678" fill="#B4A7E5" rx="11" ry="11" style="stroke:#181818;stroke-width:1.0;"/><path d="M590.2031,674.6406 L590.2031,681.2969 L591.9219,681.2969 Q592.5313,681.2969 592.7969,681.5313 Q593.0625,681.7656 593.0625,682.1563 Q593.0625,682.5313 592.7969,682.7656 Q592.5313,683 591.9219,683 L586.7813,683 Q586.1719,683 585.9063,682.7656 Q585.6406,682.5313 585.6406,682.1406 Q585.6406,681.7656 585.9063,681.5313 Q586.1719,681.2969 586.7813,681.2969 L588.5,681.2969 L588.5,674.6406 L586.7813,674.6406 Q586.1719,674.6406 585.9063,674.4063 Q585.6406,674.1719 585.6406,673.7813 Q585.6406,673.4063 585.9063,673.1719 Q586.1719,672.9375 586.7813,672.9375 L591.9219,672.9375 Q592.5313,672.9375 592.7969,673.1719 Q593.0625,673.4063 593.0625,673.7813 Q593.0625,674.1719 592.7969,674.4063 Q592.5313,674.6406 591.9219,674.6406 L590.2031,674.6406 Z " fill="#000000"/><text fill="#000000" font-family="sans-serif" font-size="14" font-style="italic" lengthAdjust="spacing" textLength="126" x="609.75" y="683.7969">UserContentService</text><rect fill="#FFFFFF" height="17.9609" style="stroke:#181818;stroke-width:1.0;stroke-dasharray:2.0,2.0;" width="91" x="829" y="659"/><text fill="#000000" font-family="sans-serif" font-size="12" font-style="italic" lengthAdjust="spacing" textLength="89" x="830" y="672.9492">TUser, TContent</text><line style="stroke:#181818;stroke-width:0.5;" x1="490" x2="916" y1="694" y2="694"/><line style="stroke:#181818;stroke-width:0.5;" x1="490" x2="916" y1="702" y2="702"/><ellipse cx="500" cy="716.8105" fill="#84BE84" rx="3" ry="3" style="stroke:#038048;stroke-width:1.0;"/><text fill="#000000" font-family="sans-serif" font-size="14" lengthAdjust="spacing" textLength="402" x="509" y="721.1074">UserAndContent&lt;TUser, TContent&gt; getUserAndContent(userId)</text></g><!--class EmailUserContentService--><g id="elem_EmailUserContentService"><rect codeLine="81" fill="#F1F1F1" height="66.6211" id="EmailUserContentService" rx="2.5" ry="2.5" style="stroke:#181818;stroke-width:0.5;" width="428" x="633" y="826"/><ellipse cx="716.25" cy="842" fill="#ADD1B2" rx="11" ry="11" style="stroke:#181818;stroke-width:1.0;"/><path d="M719.0156,837.875 Q719.1719,837.6563 719.3594,837.5469 Q719.5469,837.4375 719.7656,837.4375 Q720.1406,837.4375 720.375,837.7031 Q720.6094,837.9531 720.6094,838.5625 L720.6094,840.0156 Q720.6094,840.625 720.375,840.8906 Q720.1406,841.1563 719.7656,841.1563 Q719.4219,841.1563 719.2188,840.9531 Q719.0156,840.7656 718.9063,840.25 Q718.8594,839.8906 718.6719,839.7031 Q718.3438,839.3281 717.7344,839.1094 Q717.125,838.8906 716.5,838.8906 Q715.7344,838.8906 715.0938,839.2188 Q714.4688,839.5469 713.9688,840.2969 Q713.4844,841.0469 713.4844,842.0781 L713.4844,843.1719 Q713.4844,844.4063 714.375,845.2344 Q715.2656,846.0469 716.8594,846.0469 Q717.7969,846.0469 718.4531,845.7969 Q718.8438,845.6406 719.2656,845.2031 Q719.5313,844.9375 719.6719,844.8594 Q719.8281,844.7813 720.0313,844.7813 Q720.3594,844.7813 720.6094,845.0469 Q720.875,845.2969 720.875,845.6406 Q720.875,845.9844 720.5313,846.3906 Q720.0313,846.9688 719.2344,847.2969 Q718.1563,847.75 716.8594,847.75 Q715.3438,847.75 714.1406,847.125 Q713.1563,846.625 712.4688,845.5625 Q711.7813,844.4844 711.7813,843.2031 L711.7813,842.0469 Q711.7813,840.7188 712.3906,839.5781 Q713.0156,838.4219 714.1094,837.8125 Q715.2031,837.1875 716.4375,837.1875 Q717.1719,837.1875 717.8125,837.3594 Q718.4688,837.5156 719.0156,837.875 Z " fill="#000000"/><text fill="#000000" font-family="sans-serif" font-size="14" lengthAdjust="spacing" textLength="160" x="736.75" y="847.7969">EmailUserContentService</text><rect fill="#FFFFFF" height="17.9609" style="stroke:#181818;stroke-width:1.0;stroke-dasharray:2.0,2.0;" width="91" x="973" y="823"/><text fill="#000000" font-family="sans-serif" font-size="12" font-style="italic" lengthAdjust="spacing" textLength="89" x="974" y="836.9492">TUser, TContent</text><line style="stroke:#181818;stroke-width:0.5;" x1="634" x2="1060" y1="858" y2="858"/><line style="stroke:#181818;stroke-width:0.5;" x1="634" x2="1060" y1="866" y2="866"/><ellipse cx="644" cy="880.8105" fill="#84BE84" rx="3" ry="3" style="stroke:#038048;stroke-width:1.0;"/><text fill="#000000" font-family="sans-serif" font-size="14" lengthAdjust="spacing" textLength="402" x="653" y="885.1074">UserAndContent&lt;TUser, TContent&gt; getUserAndContent(userId)</text></g><!--class ContentDeliveryService--><g id="elem_ContentDeliveryService"><rect codeLine="85" fill="#F1F1F1" height="66.6211" id="ContentDeliveryService" rx="2.5" ry="2.5" style="stroke:#181818;stroke-width:0.5;" width="335" x="2112.5" y="662"/><ellipse cx="2156.3" cy="678" fill="#B4A7E5" rx="11" ry="11" style="stroke:#181818;stroke-width:1.0;"/><path d="M2157.2531,674.6406 L2157.2531,681.2969 L2158.9719,681.2969 Q2159.5813,681.2969 2159.8469,681.5313 Q2160.1125,681.7656 2160.1125,682.1563 Q2160.1125,682.5313 2159.8469,682.7656 Q2159.5813,683 2158.9719,683 L2153.8313,683 Q2153.2219,683 2152.9563,682.7656 Q2152.6906,682.5313 2152.6906,682.1406 Q2152.6906,681.7656 2152.9563,681.5313 Q2153.2219,681.2969 2153.8313,681.2969 L2155.55,681.2969 L2155.55,674.6406 L2153.8313,674.6406 Q2153.2219,674.6406 2152.9563,674.4063 Q2152.6906,674.1719 2152.6906,673.7813 Q2152.6906,673.4063 2152.9563,673.1719 Q2153.2219,672.9375 2153.8313,672.9375 L2158.9719,672.9375 Q2159.5813,672.9375 2159.8469,673.1719 Q2160.1125,673.4063 2160.1125,673.7813 Q2160.1125,674.1719 2159.8469,674.4063 Q2159.5813,674.6406 2158.9719,674.6406 L2157.2531,674.6406 Z " fill="#000000"/><text fill="#000000" font-family="sans-serif" font-size="14" font-style="italic" lengthAdjust="spacing" textLength="146" x="2176.7" y="683.7969">ContentDeliveryService</text><rect fill="#FFFFFF" height="17.9609" style="stroke:#181818;stroke-width:1.0;stroke-dasharray:2.0,2.0;" width="91" x="2359.5" y="659"/><text fill="#000000" font-family="sans-serif" font-size="12" font-style="italic" lengthAdjust="spacing" textLength="89" x="2360.5" y="672.9492">TUser, TContent</text><line style="stroke:#181818;stroke-width:0.5;" x1="2113.5" x2="2446.5" y1="694" y2="694"/><line style="stroke:#181818;stroke-width:0.5;" x1="2113.5" x2="2446.5" y1="702" y2="702"/><ellipse cx="2123.5" cy="716.8105" fill="#84BE84" rx="3" ry="3" style="stroke:#038048;stroke-width:1.0;"/><text fill="#000000" font-family="sans-serif" font-size="14" lengthAdjust="spacing" textLength="309" x="2132.5" y="721.1074">void sendContent(TUser user, TContent content)</text></g><!--class EmailContentDeliveryService--><g id="elem_EmailContentDeliveryService"><rect codeLine="89" fill="#F1F1F1" height="66.6211" id="EmailContentDeliveryService" rx="2.5" ry="2.5" style="stroke:#181818;stroke-width:0.5;" width="335" x="1937.5" y="826"/><ellipse cx="1965.1" cy="842" fill="#ADD1B2" rx="11" ry="11" style="stroke:#181818;stroke-width:1.0;"/><path d="M1967.8656,837.875 Q1968.0219,837.6563 1968.2094,837.5469 Q1968.3969,837.4375 1968.6156,837.4375 Q1968.9906,837.4375 1969.225,837.7031 Q1969.4594,837.9531 1969.4594,838.5625 L1969.4594,840.0156 Q1969.4594,840.625 1969.225,840.8906 Q1968.9906,841.1563 1968.6156,841.1563 Q1968.2719,841.1563 1968.0688,840.9531 Q1967.8656,840.7656 1967.7563,840.25 Q1967.7094,839.8906 1967.5219,839.7031 Q1967.1938,839.3281 1966.5844,839.1094 Q1965.975,838.8906 1965.35,838.8906 Q1964.5844,838.8906 1963.9438,839.2188 Q1963.3188,839.5469 1962.8188,840.2969 Q1962.3344,841.0469 1962.3344,842.0781 L1962.3344,843.1719 Q1962.3344,844.4063 1963.225,845.2344 Q1964.1156,846.0469 1965.7094,846.0469 Q1966.6469,846.0469 1967.3031,845.7969 Q1967.6938,845.6406 1968.1156,845.2031 Q1968.3813,844.9375 1968.5219,844.8594 Q1968.6781,844.7813 1968.8813,844.7813 Q1969.2094,844.7813 1969.4594,845.0469 Q1969.725,845.2969 1969.725,845.6406 Q1969.725,845.9844 1969.3813,846.3906 Q1968.8813,846.9688 1968.0844,847.2969 Q1967.0063,847.75 1965.7094,847.75 Q1964.1938,847.75 1962.9906,847.125 Q1962.0063,846.625 1961.3188,845.5625 Q1960.6313,844.4844 1960.6313,843.2031 L1960.6313,842.0469 Q1960.6313,840.7188 1961.2406,839.5781 Q1961.8656,838.4219 1962.9594,837.8125 Q1964.0531,837.1875 1965.2875,837.1875 Q1966.0219,837.1875 1966.6625,837.3594 Q1967.3188,837.5156 1967.8656,837.875 Z " fill="#000000"/><text fill="#000000" font-family="sans-serif" font-size="14" lengthAdjust="spacing" textLength="182" x="1981.9" y="847.7969">EmailContentDeliveryService</text><rect fill="#FFFFFF" height="17.9609" style="stroke:#181818;stroke-width:1.0;stroke-dasharray:2.0,2.0;" width="91" x="2184.5" y="823"/><text fill="#000000" font-family="sans-serif" font-size="12" font-style="italic" lengthAdjust="spacing" textLength="89" x="2185.5" y="836.9492">TUser, TContent</text><line style="stroke:#181818;stroke-width:0.5;" x1="1938.5" x2="2271.5" y1="858" y2="858"/><line style="stroke:#181818;stroke-width:0.5;" x1="1938.5" x2="2271.5" y1="866" y2="866"/><ellipse cx="1948.5" cy="880.8105" fill="#84BE84" rx="3" ry="3" style="stroke:#038048;stroke-width:1.0;"/><text fill="#000000" font-family="sans-serif" font-size="14" lengthAdjust="spacing" textLength="309" x="1957.5" y="885.1074">void sendContent(TUser user, TContent content)</text></g><g id="elem_GMN34"><path d="M322,837 L322,881.582 A0,0 0 0 0 322,881.582 L598,881.582 A0,0 0 0 0 598,881.582 L598,863.5 L632.81,859.5 L598,855.5 L598,847 L588,837 L322,837 A0,0 0 0 0 322,837 " fill="#FEFFDD" style="stroke:#181818;stroke-width:0.5;"/><path d="M588,837 L588,847 L598,847 L588,837 " fill="#FEFFDD" style="stroke:#181818;stroke-width:0.5;"/><text fill="#000000" font-family="sans-serif" font-size="13" lengthAdjust="spacing" textLength="163" x="328" y="856.0283">This interface extends either</text><text fill="#000000" font-family="sans-serif" font-size="13" lengthAdjust="spacing" textLength="255" x="328" y="873.3193">GetUserWithContent or GetUserAndContent</text></g><!--entity gateway--><g id="elem_gateway"><rect fill="#F1F1F1" height="48.6211" rx="2.5" ry="2.5" style="stroke:#181818;stroke-width:0.5;" width="92" x="953" y="295"/><rect fill="#F1F1F1" height="10" style="stroke:#181818;stroke-width:0.5;" width="15" x="1025" y="300"/><rect fill="#F1F1F1" height="2" style="stroke:#181818;stroke-width:0.5;" width="4" x="1023" y="302"/><rect fill="#F1F1F1" height="2" style="stroke:#181818;stroke-width:0.5;" width="4" x="1023" y="306"/><text fill="#000000" font-family="sans-serif" font-size="14" lengthAdjust="spacing" textLength="52" x="968" y="330.1074">gateway</text></g><!--class SendMessageToGateway--><g id="elem_SendMessageToGateway"><rect codeLine="5" fill="#F1F1F1" height="66.6211" id="SendMessageToGateway" rx="2.5" ry="2.5" style="stroke:#181818;stroke-width:0.5;" width="598" x="1556" y="117"/><ellipse cx="1769.25" cy="133" fill="#B4A7E5" rx="11" ry="11" style="stroke:#181818;stroke-width:1.0;"/><path d="M1770.2031,129.6406 L1770.2031,136.2969 L1771.9219,136.2969 Q1772.5313,136.2969 1772.7969,136.5313 Q1773.0625,136.7656 1773.0625,137.1563 Q1773.0625,137.5313 1772.7969,137.7656 Q1772.5313,138 1771.9219,138 L1766.7813,138 Q1766.1719,138 1765.9063,137.7656 Q1765.6406,137.5313 1765.6406,137.1406 Q1765.6406,136.7656 1765.9063,136.5313 Q1766.1719,136.2969 1766.7813,136.2969 L1768.5,136.2969 L1768.5,129.6406 L1766.7813,129.6406 Q1766.1719,129.6406 1765.9063,129.4063 Q1765.6406,129.1719 1765.6406,128.7813 Q1765.6406,128.4063 1765.9063,128.1719 Q1766.1719,127.9375 1766.7813,127.9375 L1771.9219,127.9375 Q1772.5313,127.9375 1772.7969,128.1719 Q1773.0625,128.4063 1773.0625,128.7813 Q1773.0625,129.1719 1772.7969,129.4063 Q1772.5313,129.6406 1771.9219,129.6406 L1770.2031,129.6406 Z " fill="#000000"/><text fill="#000000" font-family="sans-serif" font-size="14" font-style="italic" lengthAdjust="spacing" textLength="163" x="1789.75" y="138.7969">SendMessageToGateway</text><line style="stroke:#181818;stroke-width:0.5;" x1="1557" x2="2153" y1="149" y2="149"/><line style="stroke:#181818;stroke-width:0.5;" x1="1557" x2="2153" y1="157" y2="157"/><ellipse cx="1567" cy="171.8105" fill="#84BE84" rx="3" ry="3" style="stroke:#038048;stroke-width:1.0;"/><text fill="#000000" font-family="sans-serif" font-size="14" lengthAdjust="spacing" textLength="572" x="1576" y="176.1074">Map&lt;String, String&gt; invokeGateway(String userId, String workflowRunId, String gatewayUrl)</text></g><!--reverse link CommunicationHistoryAccessProvider to DefaultCommunicationHistoryAccessProvider--><g id="link_CommunicationHistoryAccessProvider_DefaultCommunicationHistoryAccessProvider"><path d="M2727.7482,754.0371 C2714.6082,778.2271 2706.71,792.76 2693.59,816.92 " fill="none" id="CommunicationHistoryAccessProvider-backto-DefaultCommunicationHistoryAccessProvider" style="stroke:#181818;stroke-width:1.0;stroke-dasharray:7.0,7.0;"/><polygon fill="none" points="2736.34,738.22,2722.4758,751.1731,2733.0205,756.901,2736.34,738.22" style="stroke:#181818;stroke-width:1.0;"/></g><!--reverse link GatewayController to EmailGatewayController--><g id="link_GatewayController_EmailGatewayController"><path d="M1855,371.35 C1855,402.05 1855,429.62 1855,460.27 " fill="none" id="GatewayController-backto-EmailGatewayController" style="stroke:#181818;stroke-width:1.0;stroke-dasharray:7.0,7.0;"/><polygon fill="none" points="1855,353.35,1849,371.35,1861,371.35,1855,353.35" style="stroke:#181818;stroke-width:1.0;"/></g><!--reverse link GatewayService to CommunicationGatewayService--><g id="link_GatewayService_CommunicationGatewayService"><path d="M1395.9446,542.9169 C1420.6646,579.9969 1450.59,624.88 1475.23,661.84 " fill="none" id="GatewayService-backto-CommunicationGatewayService" style="stroke:#181818;stroke-width:1.0;stroke-dasharray:7.0,7.0;"/><polygon fill="none" points="1385.96,527.94,1390.9523,546.2451,1400.9369,539.5887,1385.96,527.94" style="stroke:#181818;stroke-width:1.0;"/></g><!--reverse link UserContentService to EmailUserContentService--><g id="link_UserContentService_EmailUserContentService"><path d="M744.0968,742.735 C769.0768,770.845 792.93,797.67 817.9,825.77 " fill="none" id="UserContentService-backto-EmailUserContentService" style="stroke:#181818;stroke-width:1.0;stroke-dasharray:7.0,7.0;"/><polygon fill="none" points="732.14,729.28,739.6118,746.7205,748.5818,738.7494,732.14,729.28" style="stroke:#181818;stroke-width:1.0;"/></g><!--reverse link GetUserWithContent to EmailUserContentService--><g id="link_GetUserWithContent_EmailUserContentService"><path d="M377.9051,733.7171 C483.8451,761.8971 618.81,797.8 724.69,825.96 " fill="none" id="GetUserWithContent-backto-EmailUserContentService" style="stroke:#181818;stroke-width:1.0;stroke-dasharray:7.0,7.0;"/><polygon fill="none" points="360.51,729.09,376.3627,739.5155,379.4475,727.9187,360.51,729.09" style="stroke:#181818;stroke-width:1.0;"/></g><!--reverse link GetUserAndContent to EmailUserContentService--><g id="link_GetUserAndContent_EmailUserContentService"><path d="M1004.8016,748.3148 C965.7316,775.5948 930.09,800.48 893.86,825.78 " fill="none" id="GetUserAndContent-backto-EmailUserContentService" style="stroke:#181818;stroke-width:1.0;stroke-dasharray:7.0,7.0;"/><polygon fill="none" points="1019.56,738.01,1001.3667,743.3954,1008.2365,753.2343,1019.56,738.01" style="stroke:#181818;stroke-width:1.0;"/></g><!--reverse link ContentDeliveryService to EmailContentDeliveryService--><g id="link_ContentDeliveryService_EmailContentDeliveryService"><path d="M2231.3801,741.5069 C2201.0101,769.6169 2170.71,797.67 2140.36,825.77 " fill="none" id="ContentDeliveryService-backto-EmailContentDeliveryService" style="stroke:#181818;stroke-width:1.0;stroke-dasharray:7.0,7.0;"/><polygon fill="none" points="2244.59,729.28,2227.3044,737.1036,2235.4557,745.9102,2244.59,729.28" style="stroke:#181818;stroke-width:1.0;"/></g><!--link CommunicationGatewayService to EmailContentDeliveryService--><g id="link_CommunicationGatewayService_EmailContentDeliveryService"><path codeLine="99" d="M1619.31,729.09 C1725.07,757.27 1871.3822,796.2555 1977.0922,824.4155 " fill="none" id="CommunicationGatewayService-to-EmailContentDeliveryService" style="stroke:#181818;stroke-width:1.0;"/><polygon fill="#181818" points="1982.89,825.96,1975.2229,819.7781,1978.0585,824.6729,1973.1636,827.5085,1982.89,825.96" style="stroke:#181818;stroke-width:1.0;"/><text fill="#000000" font-family="sans-serif" font-size="13" lengthAdjust="spacing" textLength="28" x="1820" y="783.0283">uses</text></g><!--link CommunicationGatewayService to EmailUserContentService--><g id="link_CommunicationGatewayService_EmailUserContentService"><path codeLine="100" d="M1366.24,729.09 C1253.17,757.27 1096.382,796.3493 983.372,824.5093 " fill="none" id="CommunicationGatewayService-to-EmailUserContentService" style="stroke:#181818;stroke-width:1.0;"/><polygon fill="#181818" points="977.55,825.96,987.2501,827.6652,982.4016,824.7511,985.3158,819.9026,977.55,825.96" style="stroke:#181818;stroke-width:1.0;"/><text fill="#000000" font-family="sans-serif" font-size="13" lengthAdjust="spacing" textLength="28" x="1192" y="783.0283">uses</text></g><!--link CommunicationGatewayService to DefaultCommunicationHistoryAccessProvider--><g id="link_CommunicationGatewayService_DefaultCommunicationHistoryAccessProvider"><path codeLine="101" d="M1709.36,729.03 C1730.18,732.11 1751,735.15 1771,738 C1979.93,767.81 2210.5209,798.6098 2388.6509,821.9698 " fill="none" id="CommunicationGatewayService-to-DefaultCommunicationHistoryAccessProvider" style="stroke:#181818;stroke-width:1.0;"/><polygon fill="#181818" points="2394.6,822.75,2386.1965,817.6137,2389.6424,822.0999,2385.1563,825.5458,2394.6,822.75" style="stroke:#181818;stroke-width:1.0;"/><text fill="#000000" font-family="sans-serif" font-size="13" lengthAdjust="spacing" textLength="28" x="2118" y="783.0283">uses</text></g><!--link CommunicationGatewayService to GatewayHelper--><g id="link_CommunicationGatewayService_GatewayHelper"><path codeLine="102" d="M1497,729.28 C1497,757.39 1497,791.67 1497,819.77 " fill="none" id="CommunicationGatewayService-to-GatewayHelper" style="stroke:#181818;stroke-width:1.0;"/><polygon fill="#181818" points="1497,825.77,1501,816.77,1497,820.77,1493,816.77,1497,825.77" style="stroke:#181818;stroke-width:1.0;"/><text fill="#000000" font-family="sans-serif" font-size="13" lengthAdjust="spacing" textLength="28" x="1498" y="783.0283">uses</text></g><!--link EmailGatewayController to CommunicationGatewayService--><g id="link_EmailGatewayController_CommunicationGatewayService"><path codeLine="103" d="M1796.28,527.72 C1729.73,564.81 1627.131,621.979 1560.691,659.009 " fill="none" id="EmailGatewayController-to-CommunicationGatewayService" style="stroke:#181818;stroke-width:1.0;"/><polygon fill="#181818" points="1555.45,661.93,1565.2588,661.0424,1559.8175,659.4958,1561.3641,654.0545,1555.45,661.93" style="stroke:#181818;stroke-width:1.0;"/><text fill="#000000" font-family="sans-serif" font-size="13" lengthAdjust="spacing" textLength="28" x="1655" y="619.0283">uses</text></g><!--link EmailGatewayController to GatewayProperties--><g id="link_EmailGatewayController_GatewayProperties"><path codeLine="104" d="M2057.13,494 C2078.14,494 2093.67,494 2115.14,494 " fill="none" id="EmailGatewayController-to-GatewayProperties" style="stroke:#181818;stroke-width:1.0;"/><polygon fill="#181818" points="2121.14,494,2112.14,490,2116.14,494,2112.14,498,2121.14,494" style="stroke:#181818;stroke-width:1.0;"/><text fill="#000000" font-family="sans-serif" font-size="13" lengthAdjust="spacing" textLength="28" x="2075.25" y="487.0283">uses</text></g><!--link Worker to SendMessageToGateway--><g id="link_Worker_SendMessageToGateway"><path codeLine="105" d="M1855,56.18 C1855,73.67 1855,79.7 1855,98.99 " fill="none" id="Worker-to-SendMessageToGateway" style="stroke:#181818;stroke-width:1.0;"/><polygon fill="none" points="1855,116.99,1861,98.99,1849,98.99,1855,116.99" style="stroke:#181818;stroke-width:1.0;"/></g><!--link SendMessageToGateway to GatewayController--><g id="link_SendMessageToGateway_GatewayController"><path codeLine="106" d="M1855,184.1 C1855,213.52 1855,250.59 1855,279.99 " fill="none" id="SendMessageToGateway-to-GatewayController" style="stroke:#181818;stroke-width:1.0;"/><polygon fill="#181818" points="1855,285.99,1859,276.99,1855,280.99,1851,276.99,1855,285.99" style="stroke:#181818;stroke-width:1.0;"/><text fill="#000000" font-family="sans-serif" font-size="13" lengthAdjust="spacing" textLength="28" x="1856" y="229.0283">uses</text></g><!--link EmailUserContentService to UserAndContent--><g id="link_EmailUserContentService_UserAndContent"><path codeLine="107" d="M847,893.28 C847,918.52 847,947.58 847,974.82 " fill="none" id="EmailUserContentService-to-UserAndContent" style="stroke:#181818;stroke-width:1.0;"/><polygon fill="#181818" points="847,980.82,851,971.82,847,975.82,843,971.82,847,980.82" style="stroke:#181818;stroke-width:1.0;"/><text fill="#000000" font-family="sans-serif" font-size="13" lengthAdjust="spacing" textLength="40" x="848" y="947.0283">returns</text></g><!--SRC=[tLVTRjem5BxdAOvwCHKL-W1LHLMrLTj9tQgMgjScEGIlmMQs0qDRttt7mI4s3W4aj8jnKQZFttU-y-CaaTEP52WCl4lrWGf-Tpux7IuCgZ5B45vHf4-eDSjmAE-PmGLRaWxGvmoUsEporIWkiXwilWV0nLn-eDCyNPr2eL4zffKIB2ZKE9UBbq9ufzdAvatbNOjXnf8FYWedDt8wBGHFcE5IWFDy0an3uaj2SCawhsnzNWh8yqeXPrfNtXumdvMvW_kSLQ2cgzmVc9wSjg9tYZUIg1D6TwjWzgkcCyZbWMiZrV8wISZsMSavJpT0XAbdQ9uLphaiT21uYZ5wiBkUlxdaATYW63XepsoZU97hJv_GMnop8ZTxvCcdinodbgl_cPMwzAxLR8CecUSRERsWfdxLU2SCDqlGD7OXc2fUWAQX07TJnlCubiVsFmBYmb05QRGCH-s5wOSinkU1Sq_inkiMSpv7jNn5DUV4RT9uxDczKHndwuINLpsu6fG0Ga4GRMTV9ZjLWft2HCfK2lTeg2tqQHU-q8PrlrlRfihqe5B59SWsJneATzEmLQlmSHivoT5nLS3iNo4DWkBPn80Sj-5RWuWZoD4FJ0maJC286aOXQQGmMW9R6uqAdjkQKf5WHaoGt4Wm4wvflCr4fkUbAgLJ8eegXSQssJit4zTHS3cq9pqOkeD1K3yhkxRSbB9ODuiSkk6Bk35oPfc94QoZsS_GPbBZfN_6Ki5YWeB6m4uTWw_V7x-L9u4XAnlQQfW9GieC6p5jeu92cbUSOobGg6drwy1qGLY0BcBuMT1WdgzbEqYiQTd1OIcic0heSVBA3Qaqa-Xr_W6H-owozUKVLhQ9ntyqq_4sEawdr2hRSoplXxq0UBCUw_SQcgtNKBsZP-4_IpNU1UrChkvwh4FKPUn5rTj6tzwHWsUSHfkZO2jtG8xZSZrkAN1donR0NwIKQa2gezVA3SkCTaLKtqumogLrs_NHxm_Q6BomkUhzlSHP7k1XxoVL0tm6hnEUtPQ7CclIud8F1uFuflEit2jTl_zdqFWYLoerlk5voTJXDl4qR15h5tR8XRqZ2YMqVQVx2m00]--></g></svg>