<?xml version="1.0" encoding="us-ascii" standalone="no"?><svg xmlns="http://www.w3.org/2000/svg" xmlns:xlink="http://www.w3.org/1999/xlink" contentStyleType="text/css" height="1201px" preserveAspectRatio="none" style="width:2773px;height:1201px;background:#FFFFFF;" version="1.1" viewBox="0 0 2773 1201" width="2773px" zoomAndPan="magnify"><defs/><g><!--cluster communicationGateway--><g id="cluster_communicationGateway"><path d="M8.5,249 L180.5,249 A3.75,3.75 0 0 1 183,251.5 L190,273.6211 L2763.5,273.6211 A2.5,2.5 0 0 1 2766,276.1211 L2766,1191.5 A2.5,2.5 0 0 1 2763.5,1194 L8.5,1194 A2.5,2.5 0 0 1 6,1191.5 L6,251.5 A2.5,2.5 0 0 1 8.5,249 " fill="none" style="stroke:#000000;stroke-width:1.5;"/><line style="stroke:#000000;stroke-width:1.5;" x1="6" x2="190" y1="273.6211" y2="273.6211"/><text fill="#000000" font-family="sans-serif" font-size="14" font-weight="bold" lengthAdjust="spacing" textLength="171" x="10" y="266.1074">Communication Gateway</text></g><!--entity Worker--><g id="elem_Worker"><rect fill="#F1F1F1" height="48.6211" rx="2.5" ry="2.5" style="stroke:#181818;stroke-width:0.5;" width="86" x="1459" y="7"/><rect fill="#F1F1F1" height="10" style="stroke:#181818;stroke-width:0.5;" width="15" x="1525" y="12"/><rect fill="#F1F1F1" height="2" style="stroke:#181818;stroke-width:0.5;" width="4" x="1523" y="14"/><rect fill="#F1F1F1" height="2" style="stroke:#181818;stroke-width:0.5;" width="4" x="1523" y="18"/><text fill="#000000" font-family="sans-serif" font-size="14" lengthAdjust="spacing" textLength="46" x="1474" y="42.1074">Worker</text></g><!--class Content--><g id="elem_Content"><rect codeLine="14" fill="#F1F1F1" height="66.6211" id="Content" rx="2.5" ry="2.5" style="stroke:#181818;stroke-width:0.5;" width="184" x="2309" y="304.5"/><ellipse cx="2371.75" cy="320.5" fill="#B4A7E5" rx="11" ry="11" style="stroke:#181818;stroke-width:1.0;"/><path d="M2372.7031,317.1406 L2372.7031,323.7969 L2374.4219,323.7969 Q2375.0313,323.7969 2375.2969,324.0313 Q2375.5625,324.2656 2375.5625,324.6563 Q2375.5625,325.0313 2375.2969,325.2656 Q2375.0313,325.5 2374.4219,325.5 L2369.2813,325.5 Q2368.6719,325.5 2368.4063,325.2656 Q2368.1406,325.0313 2368.1406,324.6406 Q2368.1406,324.2656 2368.4063,324.0313 Q2368.6719,323.7969 2369.2813,323.7969 L2371,323.7969 L2371,317.1406 L2369.2813,317.1406 Q2368.6719,317.1406 2368.4063,316.9063 Q2368.1406,316.6719 2368.1406,316.2813 Q2368.1406,315.9063 2368.4063,315.6719 Q2368.6719,315.4375 2369.2813,315.4375 L2374.4219,315.4375 Q2375.0313,315.4375 2375.2969,315.6719 Q2375.5625,315.9063 2375.5625,316.2813 Q2375.5625,316.6719 2375.2969,316.9063 Q2375.0313,317.1406 2374.4219,317.1406 L2372.7031,317.1406 Z " fill="#000000"/><text fill="#000000" font-family="sans-serif" font-size="14" font-style="italic" lengthAdjust="spacing" textLength="50" x="2392.25" y="326.2969">Content</text><line style="stroke:#181818;stroke-width:0.5;" x1="2310" x2="2492" y1="336.5" y2="336.5"/><line style="stroke:#181818;stroke-width:0.5;" x1="2310" x2="2492" y1="344.5" y2="344.5"/><ellipse cx="2320" cy="359.3105" fill="#84BE84" rx="3" ry="3" style="stroke:#038048;stroke-width:1.0;"/><text fill="#000000" font-family="sans-serif" font-size="14" lengthAdjust="spacing" textLength="158" x="2329" y="363.6074">String getContentString()</text></g><!--class HashHelper--><g id="elem_HashHelper"><rect codeLine="19" fill="#F1F1F1" height="66.6211" id="HashHelper" rx="2.5" ry="2.5" style="stroke:#181818;stroke-width:0.5;" width="460" x="1411" y="910"/><ellipse cx="1600.25" cy="926" fill="#ADD1B2" rx="11" ry="11" style="stroke:#181818;stroke-width:1.0;"/><path d="M1603.0156,921.875 Q1603.1719,921.6563 1603.3594,921.5469 Q1603.5469,921.4375 1603.7656,921.4375 Q1604.1406,921.4375 1604.375,921.7031 Q1604.6094,921.9531 1604.6094,922.5625 L1604.6094,924.0156 Q1604.6094,924.625 1604.375,924.8906 Q1604.1406,925.1563 1603.7656,925.1563 Q1603.4219,925.1563 1603.2188,924.9531 Q1603.0156,924.7656 1602.9063,924.25 Q1602.8594,923.8906 1602.6719,923.7031 Q1602.3438,923.3281 1601.7344,923.1094 Q1601.125,922.8906 1600.5,922.8906 Q1599.7344,922.8906 1599.0938,923.2188 Q1598.4688,923.5469 1597.9688,924.2969 Q1597.4844,925.0469 1597.4844,926.0781 L1597.4844,927.1719 Q1597.4844,928.4063 1598.375,929.2344 Q1599.2656,930.0469 1600.8594,930.0469 Q1601.7969,930.0469 1602.4531,929.7969 Q1602.8438,929.6406 1603.2656,929.2031 Q1603.5313,928.9375 1603.6719,928.8594 Q1603.8281,928.7813 1604.0313,928.7813 Q1604.3594,928.7813 1604.6094,929.0469 Q1604.875,929.2969 1604.875,929.6406 Q1604.875,929.9844 1604.5313,930.3906 Q1604.0313,930.9688 1603.2344,931.2969 Q1602.1563,931.75 1600.8594,931.75 Q1599.3438,931.75 1598.1406,931.125 Q1597.1563,930.625 1596.4688,929.5625 Q1595.7813,928.4844 1595.7813,927.2031 L1595.7813,926.0469 Q1595.7813,924.7188 1596.3906,923.5781 Q1597.0156,922.4219 1598.1094,921.8125 Q1599.2031,921.1875 1600.4375,921.1875 Q1601.1719,921.1875 1601.8125,921.3594 Q1602.4688,921.5156 1603.0156,921.875 Z " fill="#000000"/><text fill="#000000" font-family="sans-serif" font-size="14" lengthAdjust="spacing" textLength="73" x="1620.75" y="931.7969">HashHelper</text><line style="stroke:#181818;stroke-width:0.5;" x1="1412" x2="1870" y1="942" y2="942"/><line style="stroke:#181818;stroke-width:0.5;" x1="1412" x2="1870" y1="950" y2="950"/><ellipse cx="1422" cy="964.8105" fill="#84BE84" rx="3" ry="3" style="stroke:#038048;stroke-width:1.0;"/><text fill="#000000" font-family="sans-serif" font-size="14" lengthAdjust="spacing" textLength="434" x="1431" y="969.1074">String messageHash(String workflowRunId, String messageContents)</text></g><!--class CommunicationHistoryAccessProvider--><g id="elem_CommunicationHistoryAccessProvider"><rect codeLine="23" fill="#F1F1F1" height="103.8633" id="CommunicationHistoryAccessProvider" rx="2.5" ry="2.5" style="stroke:#181818;stroke-width:0.5;" width="571" x="2178.5" y="690"/><ellipse cx="2340.75" cy="706" fill="#B4A7E5" rx="11" ry="11" style="stroke:#181818;stroke-width:1.0;"/><path d="M2341.7031,702.6406 L2341.7031,709.2969 L2343.4219,709.2969 Q2344.0313,709.2969 2344.2969,709.5313 Q2344.5625,709.7656 2344.5625,710.1563 Q2344.5625,710.5313 2344.2969,710.7656 Q2344.0313,711 2343.4219,711 L2338.2813,711 Q2337.6719,711 2337.4063,710.7656 Q2337.1406,710.5313 2337.1406,710.1406 Q2337.1406,709.7656 2337.4063,709.5313 Q2337.6719,709.2969 2338.2813,709.2969 L2340,709.2969 L2340,702.6406 L2338.2813,702.6406 Q2337.6719,702.6406 2337.4063,702.4063 Q2337.1406,702.1719 2337.1406,701.7813 Q2337.1406,701.4063 2337.4063,701.1719 Q2337.6719,700.9375 2338.2813,700.9375 L2343.4219,700.9375 Q2344.0313,700.9375 2344.2969,701.1719 Q2344.5625,701.4063 2344.5625,701.7813 Q2344.5625,702.1719 2344.2969,702.4063 Q2344.0313,702.6406 2343.4219,702.6406 L2341.7031,702.6406 Z " fill="#000000"/><text fill="#000000" font-family="sans-serif" font-size="14" font-style="italic" lengthAdjust="spacing" textLength="238" x="2361.25" y="711.7969">CommunicationHistoryAccessProvider</text><line style="stroke:#181818;stroke-width:0.5;" x1="2179.5" x2="2748.5" y1="722" y2="722"/><line style="stroke:#181818;stroke-width:0.5;" x1="2179.5" x2="2748.5" y1="730" y2="730"/><ellipse cx="2189.5" cy="744.8105" fill="#84BE84" rx="3" ry="3" style="stroke:#038048;stroke-width:1.0;"/><text fill="#000000" font-family="sans-serif" font-size="14" lengthAdjust="spacing" textLength="545" x="2198.5" y="749.1074">CommunicationHistory getPreviousCommunicationMessageHash(String messageHash)</text><ellipse cx="2189.5" cy="763.4316" fill="#84BE84" rx="3" ry="3" style="stroke:#038048;stroke-width:1.0;"/><text fill="#000000" font-family="sans-serif" font-size="14" lengthAdjust="spacing" textLength="462" x="2198.5" y="767.7285">void removeCommunicationHistoryByMessageHash(String messageHash)</text><ellipse cx="2189.5" cy="782.0527" fill="#84BE84" rx="3" ry="3" style="stroke:#038048;stroke-width:1.0;"/><text fill="#000000" font-family="sans-serif" font-size="14" lengthAdjust="spacing" textLength="526" x="2198.5" y="786.3496">void storeCommunication(String workflowRunId, String userId, String messageHash)</text></g><!--class DefaultCommunicationHistoryAccessProvider--><g id="elem_DefaultCommunicationHistoryAccessProvider"><rect codeLine="29" fill="#F1F1F1" height="141.1055" id="DefaultCommunicationHistoryAccessProvider" rx="2.5" ry="2.5" style="stroke:#181818;stroke-width:0.5;" width="583" x="2036.5" y="873"/><ellipse cx="2182.25" cy="889" fill="#ADD1B2" rx="11" ry="11" style="stroke:#181818;stroke-width:1.0;"/><path d="M2185.0156,884.875 Q2185.1719,884.6563 2185.3594,884.5469 Q2185.5469,884.4375 2185.7656,884.4375 Q2186.1406,884.4375 2186.375,884.7031 Q2186.6094,884.9531 2186.6094,885.5625 L2186.6094,887.0156 Q2186.6094,887.625 2186.375,887.8906 Q2186.1406,888.1563 2185.7656,888.1563 Q2185.4219,888.1563 2185.2188,887.9531 Q2185.0156,887.7656 2184.9063,887.25 Q2184.8594,886.8906 2184.6719,886.7031 Q2184.3438,886.3281 2183.7344,886.1094 Q2183.125,885.8906 2182.5,885.8906 Q2181.7344,885.8906 2181.0938,886.2188 Q2180.4688,886.5469 2179.9688,887.2969 Q2179.4844,888.0469 2179.4844,889.0781 L2179.4844,890.1719 Q2179.4844,891.4063 2180.375,892.2344 Q2181.2656,893.0469 2182.8594,893.0469 Q2183.7969,893.0469 2184.4531,892.7969 Q2184.8438,892.6406 2185.2656,892.2031 Q2185.5313,891.9375 2185.6719,891.8594 Q2185.8281,891.7813 2186.0313,891.7813 Q2186.3594,891.7813 2186.6094,892.0469 Q2186.875,892.2969 2186.875,892.6406 Q2186.875,892.9844 2186.5313,893.3906 Q2186.0313,893.9688 2185.2344,894.2969 Q2184.1563,894.75 2182.8594,894.75 Q2181.3438,894.75 2180.1406,894.125 Q2179.1563,893.625 2178.4688,892.5625 Q2177.7813,891.4844 2177.7813,890.2031 L2177.7813,889.0469 Q2177.7813,887.7188 2178.3906,886.5781 Q2179.0156,885.4219 2180.1094,884.8125 Q2181.2031,884.1875 2182.4375,884.1875 Q2183.1719,884.1875 2183.8125,884.3594 Q2184.4688,884.5156 2185.0156,884.875 Z " fill="#000000"/><text fill="#000000" font-family="sans-serif" font-size="14" lengthAdjust="spacing" textLength="283" x="2202.75" y="894.7969">DefaultCommunicationHistoryAccessProvider</text><line style="stroke:#181818;stroke-width:0.5;" x1="2037.5" x2="2618.5" y1="905" y2="905"/><rect fill="none" height="6" style="stroke:#C82930;stroke-width:1.0;" width="6" x="2044.5" y="916.8105"/><text fill="#000000" font-family="sans-serif" font-size="14" lengthAdjust="spacing" textLength="290" x="2056.5" y="924.1074">DynamoDbAsyncClient dynamoDbAsyncClient</text><rect fill="none" height="6" style="stroke:#C82930;stroke-width:1.0;" width="6" x="2044.5" y="935.4316"/><text fill="#000000" font-family="sans-serif" font-size="14" lengthAdjust="spacing" textLength="557" x="2056.5" y="942.7285">DefaultCommunicationHistoryAccessProviderProperties historyAccessProviderProperties</text><line style="stroke:#181818;stroke-width:0.5;" x1="2037.5" x2="2618.5" y1="950.2422" y2="950.2422"/><ellipse cx="2047.5" cy="965.0527" fill="#84BE84" rx="3" ry="3" style="stroke:#038048;stroke-width:1.0;"/><text fill="#000000" font-family="sans-serif" font-size="14" lengthAdjust="spacing" textLength="502" x="2056.5" y="969.3496">Communication getPreviousCommunicationMessageHash(String messageHash)</text><ellipse cx="2047.5" cy="983.6738" fill="#84BE84" rx="3" ry="3" style="stroke:#038048;stroke-width:1.0;"/><text fill="#000000" font-family="sans-serif" font-size="14" lengthAdjust="spacing" textLength="526" x="2056.5" y="987.9707">void storeCommunication(String workflowRunId, String userId, String messageHash)</text><ellipse cx="2047.5" cy="1002.2949" fill="#84BE84" rx="3" ry="3" style="stroke:#038048;stroke-width:1.0;"/><text fill="#000000" font-family="sans-serif" font-size="14" lengthAdjust="spacing" textLength="462" x="2056.5" y="1006.5918">void removeCommunicationHistoryByMessageHash(String messageHash)</text></g><!--class GatewayRequest--><g id="elem_GatewayRequest"><rect codeLine="37" fill="#F1F1F1" height="103.8633" id="GatewayRequest" rx="2.5" ry="2.5" style="stroke:#181818;stroke-width:0.5;" width="222" x="2528" y="286"/><ellipse cx="2580.75" cy="302" fill="#ADD1B2" rx="11" ry="11" style="stroke:#181818;stroke-width:1.0;"/><path d="M2583.5156,297.875 Q2583.6719,297.6563 2583.8594,297.5469 Q2584.0469,297.4375 2584.2656,297.4375 Q2584.6406,297.4375 2584.875,297.7031 Q2585.1094,297.9531 2585.1094,298.5625 L2585.1094,300.0156 Q2585.1094,300.625 2584.875,300.8906 Q2584.6406,301.1563 2584.2656,301.1563 Q2583.9219,301.1563 2583.7188,300.9531 Q2583.5156,300.7656 2583.4063,300.25 Q2583.3594,299.8906 2583.1719,299.7031 Q2582.8438,299.3281 2582.2344,299.1094 Q2581.625,298.8906 2581,298.8906 Q2580.2344,298.8906 2579.5938,299.2188 Q2578.9688,299.5469 2578.4688,300.2969 Q2577.9844,301.0469 2577.9844,302.0781 L2577.9844,303.1719 Q2577.9844,304.4063 2578.875,305.2344 Q2579.7656,306.0469 2581.3594,306.0469 Q2582.2969,306.0469 2582.9531,305.7969 Q2583.3438,305.6406 2583.7656,305.2031 Q2584.0313,304.9375 2584.1719,304.8594 Q2584.3281,304.7813 2584.5313,304.7813 Q2584.8594,304.7813 2585.1094,305.0469 Q2585.375,305.2969 2585.375,305.6406 Q2585.375,305.9844 2585.0313,306.3906 Q2584.5313,306.9688 2583.7344,307.2969 Q2582.6563,307.75 2581.3594,307.75 Q2579.8438,307.75 2578.6406,307.125 Q2577.6563,306.625 2576.9688,305.5625 Q2576.2813,304.4844 2576.2813,303.2031 L2576.2813,302.0469 Q2576.2813,300.7188 2576.8906,299.5781 Q2577.5156,298.4219 2578.6094,297.8125 Q2579.7031,297.1875 2580.9375,297.1875 Q2581.6719,297.1875 2582.3125,297.3594 Q2582.9688,297.5156 2583.5156,297.875 Z " fill="#000000"/><text fill="#000000" font-family="sans-serif" font-size="14" lengthAdjust="spacing" textLength="108" x="2601.25" y="307.7969">GatewayRequest</text><line style="stroke:#181818;stroke-width:0.5;" x1="2529" x2="2749" y1="318" y2="318"/><rect fill="none" height="6" style="stroke:#C82930;stroke-width:1.0;" width="6" x="2536" y="329.8105"/><text fill="#000000" font-family="sans-serif" font-size="14" lengthAdjust="spacing" textLength="80" x="2548" y="337.1074">String userId</text><rect fill="none" height="6" style="stroke:#C82930;stroke-width:1.0;" width="6" x="2536" y="348.4316"/><text fill="#000000" font-family="sans-serif" font-size="14" lengthAdjust="spacing" textLength="131" x="2548" y="355.7285">String workflowRunId</text><line style="stroke:#181818;stroke-width:0.5;" x1="2529" x2="2749" y1="363.2422" y2="363.2422"/><ellipse cx="2539" cy="378.0527" fill="#84BE84" rx="3" ry="3" style="stroke:#038048;stroke-width:1.0;"/><text fill="#000000" font-family="sans-serif" font-size="14" lengthAdjust="spacing" textLength="196" x="2548" y="382.3496">Standard Getters and Setters()</text></g><!--class GatewayResponse--><g id="elem_GatewayResponse"><rect codeLine="43" fill="#F1F1F1" height="122.4844" id="GatewayResponse" rx="2.5" ry="2.5" style="stroke:#181818;stroke-width:0.5;" width="222" x="2430" y="470"/><ellipse cx="2477.25" cy="486" fill="#ADD1B2" rx="11" ry="11" style="stroke:#181818;stroke-width:1.0;"/><path d="M2480.0156,481.875 Q2480.1719,481.6563 2480.3594,481.5469 Q2480.5469,481.4375 2480.7656,481.4375 Q2481.1406,481.4375 2481.375,481.7031 Q2481.6094,481.9531 2481.6094,482.5625 L2481.6094,484.0156 Q2481.6094,484.625 2481.375,484.8906 Q2481.1406,485.1563 2480.7656,485.1563 Q2480.4219,485.1563 2480.2188,484.9531 Q2480.0156,484.7656 2479.9063,484.25 Q2479.8594,483.8906 2479.6719,483.7031 Q2479.3438,483.3281 2478.7344,483.1094 Q2478.125,482.8906 2477.5,482.8906 Q2476.7344,482.8906 2476.0938,483.2188 Q2475.4688,483.5469 2474.9688,484.2969 Q2474.4844,485.0469 2474.4844,486.0781 L2474.4844,487.1719 Q2474.4844,488.4063 2475.375,489.2344 Q2476.2656,490.0469 2477.8594,490.0469 Q2478.7969,490.0469 2479.4531,489.7969 Q2479.8438,489.6406 2480.2656,489.2031 Q2480.5313,488.9375 2480.6719,488.8594 Q2480.8281,488.7813 2481.0313,488.7813 Q2481.3594,488.7813 2481.6094,489.0469 Q2481.875,489.2969 2481.875,489.6406 Q2481.875,489.9844 2481.5313,490.3906 Q2481.0313,490.9688 2480.2344,491.2969 Q2479.1563,491.75 2477.8594,491.75 Q2476.3438,491.75 2475.1406,491.125 Q2474.1563,490.625 2473.4688,489.5625 Q2472.7813,488.4844 2472.7813,487.2031 L2472.7813,486.0469 Q2472.7813,484.7188 2473.3906,483.5781 Q2474.0156,482.4219 2475.1094,481.8125 Q2476.2031,481.1875 2477.4375,481.1875 Q2478.1719,481.1875 2478.8125,481.3594 Q2479.4688,481.5156 2480.0156,481.875 Z " fill="#000000"/><text fill="#000000" font-family="sans-serif" font-size="14" lengthAdjust="spacing" textLength="119" x="2497.75" y="491.7969">GatewayResponse</text><line style="stroke:#181818;stroke-width:0.5;" x1="2431" x2="2651" y1="502" y2="502"/><rect fill="none" height="6" style="stroke:#C82930;stroke-width:1.0;" width="6" x="2438" y="513.8105"/><text fill="#000000" font-family="sans-serif" font-size="14" lengthAdjust="spacing" textLength="80" x="2450" y="521.1074">String userId</text><rect fill="none" height="6" style="stroke:#C82930;stroke-width:1.0;" width="6" x="2438" y="532.4316"/><text fill="#000000" font-family="sans-serif" font-size="14" lengthAdjust="spacing" textLength="130" x="2450" y="539.7285">String messageHash</text><rect fill="none" height="6" style="stroke:#C82930;stroke-width:1.0;" width="6" x="2438" y="551.0527"/><text fill="#000000" font-family="sans-serif" font-size="14" lengthAdjust="spacing" textLength="129" x="2450" y="558.3496">String errorMessage</text><line style="stroke:#181818;stroke-width:0.5;" x1="2431" x2="2651" y1="565.8633" y2="565.8633"/><ellipse cx="2441" cy="580.6738" fill="#84BE84" rx="3" ry="3" style="stroke:#038048;stroke-width:1.0;"/><text fill="#000000" font-family="sans-serif" font-size="14" lengthAdjust="spacing" textLength="196" x="2450" y="584.9707">Standard Getters and Setters()</text></g><!--class GatewayController--><g id="elem_GatewayController"><rect codeLine="50" fill="#F1F1F1" height="85.2422" id="GatewayController" rx="2.5" ry="2.5" style="stroke:#181818;stroke-width:0.5;" width="1517" x="743.5" y="295.5"/><ellipse cx="1346.75" cy="311.5" fill="#B4A7E5" rx="11" ry="11" style="stroke:#181818;stroke-width:1.0;"/><path d="M1347.7031,308.1406 L1347.7031,314.7969 L1349.4219,314.7969 Q1350.0313,314.7969 1350.2969,315.0313 Q1350.5625,315.2656 1350.5625,315.6563 Q1350.5625,316.0313 1350.2969,316.2656 Q1350.0313,316.5 1349.4219,316.5 L1344.2813,316.5 Q1343.6719,316.5 1343.4063,316.2656 Q1343.1406,316.0313 1343.1406,315.6406 Q1343.1406,315.2656 1343.4063,315.0313 Q1343.6719,314.7969 1344.2813,314.7969 L1346,314.7969 L1346,308.1406 L1344.2813,308.1406 Q1343.6719,308.1406 1343.4063,307.9063 Q1343.1406,307.6719 1343.1406,307.2813 Q1343.1406,306.9063 1343.4063,306.6719 Q1343.6719,306.4375 1344.2813,306.4375 L1349.4219,306.4375 Q1350.0313,306.4375 1350.2969,306.6719 Q1350.5625,306.9063 1350.5625,307.2813 Q1350.5625,307.6719 1350.2969,307.9063 Q1350.0313,308.1406 1349.4219,308.1406 L1347.7031,308.1406 Z " fill="#000000"/><text fill="#000000" font-family="sans-serif" font-size="14" font-style="italic" lengthAdjust="spacing" textLength="117" x="1367.25" y="317.2969">GatewayController</text><rect fill="#FFFFFF" height="17.9609" style="stroke:#181818;stroke-width:1.0;stroke-dasharray:2.0,2.0;" width="183" x="2080.5" y="292.5"/><text fill="#000000" font-family="sans-serif" font-size="12" font-style="italic" lengthAdjust="spacing" textLength="181" x="2081.5" y="306.4492">TUser, TContent extends Content</text><line style="stroke:#181818;stroke-width:0.5;" x1="744.5" x2="2259.5" y1="327.5" y2="327.5"/><line style="stroke:#181818;stroke-width:0.5;" x1="744.5" x2="2259.5" y1="335.5" y2="335.5"/><ellipse cx="754.5" cy="350.3105" fill="#84BE84" rx="3" ry="3" style="stroke:#038048;stroke-width:1.0;"/><text fill="#000000" font-family="sans-serif" font-size="14" lengthAdjust="spacing" text-decoration="underline" textLength="1491" x="763.5" y="354.6074">ResponseEntity&lt;GatewayResponse&gt; sendCommunication(GatewayRequest gatewayRequest, GatewayProperties&lt;TUser, TContent&gt; gatewayProperties, CommunicationGatewayService&lt;TUser, TContent&gt; communicationGatewayService)</text><ellipse cx="754.5" cy="368.9316" fill="#84BE84" rx="3" ry="3" style="stroke:#038048;stroke-width:1.0;"/><text fill="#000000" font-family="sans-serif" font-size="14" lengthAdjust="spacing" textLength="623" x="763.5" y="373.2285">ResponseEntity&lt;GatewayResponse&gt; processGatewayRequest(GatewayRequest gatewayRequest)</text></g><!--class EmailGatewayController--><g id="elem_EmailGatewayController"><rect codeLine="55" fill="#F1F1F1" height="66.6211" id="EmailGatewayController" rx="2.5" ry="2.5" style="stroke:#181818;stroke-width:0.5;" width="649" x="1177.5" y="497.5"/><ellipse cx="1422.25" cy="513.5" fill="#ADD1B2" rx="11" ry="11" style="stroke:#181818;stroke-width:1.0;"/><path d="M1425.0156,509.375 Q1425.1719,509.1563 1425.3594,509.0469 Q1425.5469,508.9375 1425.7656,508.9375 Q1426.1406,508.9375 1426.375,509.2031 Q1426.6094,509.4531 1426.6094,510.0625 L1426.6094,511.5156 Q1426.6094,512.125 1426.375,512.3906 Q1426.1406,512.6563 1425.7656,512.6563 Q1425.4219,512.6563 1425.2188,512.4531 Q1425.0156,512.2656 1424.9063,511.75 Q1424.8594,511.3906 1424.6719,511.2031 Q1424.3438,510.8281 1423.7344,510.6094 Q1423.125,510.3906 1422.5,510.3906 Q1421.7344,510.3906 1421.0938,510.7188 Q1420.4688,511.0469 1419.9688,511.7969 Q1419.4844,512.5469 1419.4844,513.5781 L1419.4844,514.6719 Q1419.4844,515.9063 1420.375,516.7344 Q1421.2656,517.5469 1422.8594,517.5469 Q1423.7969,517.5469 1424.4531,517.2969 Q1424.8438,517.1406 1425.2656,516.7031 Q1425.5313,516.4375 1425.6719,516.3594 Q1425.8281,516.2813 1426.0313,516.2813 Q1426.3594,516.2813 1426.6094,516.5469 Q1426.875,516.7969 1426.875,517.1406 Q1426.875,517.4844 1426.5313,517.8906 Q1426.0313,518.4688 1425.2344,518.7969 Q1424.1563,519.25 1422.8594,519.25 Q1421.3438,519.25 1420.1406,518.625 Q1419.1563,518.125 1418.4688,517.0625 Q1417.7813,515.9844 1417.7813,514.7031 L1417.7813,513.5469 Q1417.7813,512.2188 1418.3906,511.0781 Q1419.0156,509.9219 1420.1094,509.3125 Q1421.2031,508.6875 1422.4375,508.6875 Q1423.1719,508.6875 1423.8125,508.8594 Q1424.4688,509.0156 1425.0156,509.375 Z " fill="#000000"/><text fill="#000000" font-family="sans-serif" font-size="14" lengthAdjust="spacing" textLength="151" x="1442.75" y="519.2969">EmailGatewayController</text><line style="stroke:#181818;stroke-width:0.5;" x1="1178.5" x2="1825.5" y1="529.5" y2="529.5"/><line style="stroke:#181818;stroke-width:0.5;" x1="1178.5" x2="1825.5" y1="537.5" y2="537.5"/><ellipse cx="1188.5" cy="552.3105" fill="#84BE84" rx="3" ry="3" style="stroke:#038048;stroke-width:1.0;"/><text fill="#000000" font-family="sans-serif" font-size="14" lengthAdjust="spacing" textLength="623" x="1197.5" y="556.6074">ResponseEntity&lt;GatewayResponse&gt; processGatewayRequest(GatewayRequest gatewayRequest)</text></g><!--class GatewayProperties--><g id="elem_GatewayProperties"><rect codeLine="59" fill="#F1F1F1" height="159.7266" id="GatewayProperties" rx="2.5" ry="2.5" style="stroke:#181818;stroke-width:0.5;" width="503" x="1891.5" y="451"/><ellipse cx="1986.25" cy="467" fill="#A9DCDF" rx="11" ry="11" style="stroke:#181818;stroke-width:1.0;"/><path d="M1988.4375,468.7656 L1984.2969,468.7656 L1983.875,469.7969 L1984.2969,469.7969 Q1984.9063,469.7969 1985.1719,470.0313 Q1985.4375,470.2656 1985.4375,470.6563 Q1985.4375,471.0313 1985.1719,471.2656 Q1984.9063,471.5 1984.2969,471.5 L1982,471.5 Q1981.3906,471.5 1981.1406,471.2656 Q1980.875,471.0313 1980.875,470.6406 Q1980.875,470.2656 1981.1563,470.0313 Q1981.4219,469.7813 1982.0469,469.7969 L1984.7188,463.1406 L1983.6094,463.1406 Q1983,463.1406 1982.7344,462.9063 Q1982.4688,462.6719 1982.4688,462.2813 Q1982.4688,461.9063 1982.7344,461.6719 Q1983,461.4375 1983.6094,461.4375 L1987.2813,461.4375 L1990.6719,469.7969 Q1991.2656,469.7969 1991.4531,469.9375 Q1991.8438,470.2031 1991.8438,470.6563 Q1991.8438,471.0313 1991.5781,471.2656 Q1991.3281,471.5 1990.7188,471.5 L1988.4219,471.5 Q1987.8125,471.5 1987.5469,471.2656 Q1987.2813,471.0313 1987.2813,470.6406 Q1987.2813,470.2656 1987.5469,470.0313 Q1987.8125,469.7969 1988.4219,469.7969 L1988.8438,469.7969 L1988.4375,468.7656 Z M1987.7188,467.0625 L1986.3594,463.6875 L1984.9844,467.0625 L1987.7188,467.0625 Z " fill="#000000"/><text fill="#000000" font-family="sans-serif" font-size="14" font-style="italic" lengthAdjust="spacing" textLength="120" x="2006.75" y="472.7969">GatewayProperties</text><rect fill="#FFFFFF" height="17.9609" style="stroke:#181818;stroke-width:1.0;stroke-dasharray:2.0,2.0;" width="183" x="2214.5" y="448"/><text fill="#000000" font-family="sans-serif" font-size="12" font-style="italic" lengthAdjust="spacing" textLength="181" x="2215.5" y="461.9492">TUser, TContent extends Content</text><line style="stroke:#181818;stroke-width:0.5;" x1="1892.5" x2="2393.5" y1="483" y2="483"/><rect fill="none" height="6" style="stroke:#C82930;stroke-width:1.0;" width="6" x="1899.5" y="494.8105"/><text fill="#000000" font-family="sans-serif" font-size="14" lengthAdjust="spacing" textLength="80" x="1911.5" y="502.1074">String userId</text><rect fill="none" height="6" style="stroke:#C82930;stroke-width:1.0;" width="6" x="1899.5" y="513.4316"/><text fill="#000000" font-family="sans-serif" font-size="14" lengthAdjust="spacing" textLength="131" x="1911.5" y="520.7285">String workflowRunId</text><rect fill="none" height="6" style="stroke:#C82930;stroke-width:1.0;" width="6" x="1899.5" y="532.0527"/><text fill="#000000" font-family="sans-serif" font-size="14" lengthAdjust="spacing" textLength="418" x="1911.5" y="539.3496">ContentDeliveryService&lt;TUser, TContent&gt; contentDeliveryService</text><rect fill="none" height="6" style="stroke:#C82930;stroke-width:1.0;" width="6" x="1899.5" y="550.6738"/><text fill="#000000" font-family="sans-serif" font-size="14" lengthAdjust="spacing" textLength="384" x="1911.5" y="557.9707">UserContentService&lt;TUser, TContent?&gt; userContentService</text><rect fill="none" height="6" style="stroke:#C82930;stroke-width:1.0;" width="6" x="1899.5" y="569.2949"/><text fill="#000000" font-family="sans-serif" font-size="14" lengthAdjust="spacing" textLength="477" x="1911.5" y="576.5918">CommunicationHistoryAccessProvider communicationHistoryAccessProvider</text><line style="stroke:#181818;stroke-width:0.5;" x1="1892.5" x2="2393.5" y1="584.1055" y2="584.1055"/><ellipse cx="1902.5" cy="598.916" fill="#84BE84" rx="3" ry="3" style="stroke:#038048;stroke-width:1.0;"/><text fill="#000000" font-family="sans-serif" font-size="14" lengthAdjust="spacing" textLength="300" x="1911.5" y="603.2129">Standard Getters() &amp; Setters() &amp; SuperBuilder()</text></g><!--class GatewayService--><g id="elem_GatewayService"><rect codeLine="68" fill="#F1F1F1" height="66.6211" id="GatewayService" rx="2.5" ry="2.5" style="stroke:#181818;stroke-width:0.5;" width="764" x="378" y="497.5"/><ellipse cx="658.75" cy="513.5" fill="#B4A7E5" rx="11" ry="11" style="stroke:#181818;stroke-width:1.0;"/><path d="M659.7031,510.1406 L659.7031,516.7969 L661.4219,516.7969 Q662.0313,516.7969 662.2969,517.0313 Q662.5625,517.2656 662.5625,517.6563 Q662.5625,518.0313 662.2969,518.2656 Q662.0313,518.5 661.4219,518.5 L656.2813,518.5 Q655.6719,518.5 655.4063,518.2656 Q655.1406,518.0313 655.1406,517.6406 Q655.1406,517.2656 655.4063,517.0313 Q655.6719,516.7969 656.2813,516.7969 L658,516.7969 L658,510.1406 L656.2813,510.1406 Q655.6719,510.1406 655.4063,509.9063 Q655.1406,509.6719 655.1406,509.2813 Q655.1406,508.9063 655.4063,508.6719 Q655.6719,508.4375 656.2813,508.4375 L661.4219,508.4375 Q662.0313,508.4375 662.2969,508.6719 Q662.5625,508.9063 662.5625,509.2813 Q662.5625,509.6719 662.2969,509.9063 Q662.0313,510.1406 661.4219,510.1406 L659.7031,510.1406 Z " fill="#000000"/><text fill="#000000" font-family="sans-serif" font-size="14" font-style="italic" lengthAdjust="spacing" textLength="101" x="679.25" y="519.2969">GatewayService</text><rect fill="#FFFFFF" height="17.9609" style="stroke:#181818;stroke-width:1.0;stroke-dasharray:2.0,2.0;" width="91" x="1054" y="494.5"/><text fill="#000000" font-family="sans-serif" font-size="12" font-style="italic" lengthAdjust="spacing" textLength="89" x="1055" y="508.4492">TUser, TContent</text><line style="stroke:#181818;stroke-width:0.5;" x1="379" x2="1141" y1="529.5" y2="529.5"/><line style="stroke:#181818;stroke-width:0.5;" x1="379" x2="1141" y1="537.5" y2="537.5"/><ellipse cx="389" cy="552.3105" fill="#84BE84" rx="3" ry="3" style="stroke:#038048;stroke-width:1.0;"/><text fill="#000000" font-family="sans-serif" font-size="14" lengthAdjust="spacing" textLength="738" x="398" y="556.6074">ResponseEntity&lt;GatewayResponse&gt; sendCommunication(GatewayProperties&lt;TUser, TContent&gt; gatewayProperties)</text></g><!--class CommunicationGatewayService--><g id="elem_CommunicationGatewayService"><rect codeLine="72" fill="#F1F1F1" height="66.6211" id="CommunicationGatewayService" rx="2.5" ry="2.5" style="stroke:#181818;stroke-width:0.5;" width="634" x="1185" y="708.5"/><ellipse cx="1305.75" cy="724.5" fill="#ADD1B2" rx="11" ry="11" style="stroke:#181818;stroke-width:1.0;"/><path d="M1308.5156,720.375 Q1308.6719,720.1563 1308.8594,720.0469 Q1309.0469,719.9375 1309.2656,719.9375 Q1309.6406,719.9375 1309.875,720.2031 Q1310.1094,720.4531 1310.1094,721.0625 L1310.1094,722.5156 Q1310.1094,723.125 1309.875,723.3906 Q1309.6406,723.6563 1309.2656,723.6563 Q1308.9219,723.6563 1308.7188,723.4531 Q1308.5156,723.2656 1308.4063,722.75 Q1308.3594,722.3906 1308.1719,722.2031 Q1307.8438,721.8281 1307.2344,721.6094 Q1306.625,721.3906 1306,721.3906 Q1305.2344,721.3906 1304.5938,721.7188 Q1303.9688,722.0469 1303.4688,722.7969 Q1302.9844,723.5469 1302.9844,724.5781 L1302.9844,725.6719 Q1302.9844,726.9063 1303.875,727.7344 Q1304.7656,728.5469 1306.3594,728.5469 Q1307.2969,728.5469 1307.9531,728.2969 Q1308.3438,728.1406 1308.7656,727.7031 Q1309.0313,727.4375 1309.1719,727.3594 Q1309.3281,727.2813 1309.5313,727.2813 Q1309.8594,727.2813 1310.1094,727.5469 Q1310.375,727.7969 1310.375,728.1406 Q1310.375,728.4844 1310.0313,728.8906 Q1309.5313,729.4688 1308.7344,729.7969 Q1307.6563,730.25 1306.3594,730.25 Q1304.8438,730.25 1303.6406,729.625 Q1302.6563,729.125 1301.9688,728.0625 Q1301.2813,726.9844 1301.2813,725.7031 L1301.2813,724.5469 Q1301.2813,723.2188 1301.8906,722.0781 Q1302.5156,720.9219 1303.6094,720.3125 Q1304.7031,719.6875 1305.9375,719.6875 Q1306.6719,719.6875 1307.3125,719.8594 Q1307.9688,720.0156 1308.5156,720.375 Z " fill="#000000"/><text fill="#000000" font-family="sans-serif" font-size="14" lengthAdjust="spacing" textLength="199" x="1326.25" y="730.2969">CommunicationGatewayService</text><rect fill="#FFFFFF" height="17.9609" style="stroke:#181818;stroke-width:1.0;stroke-dasharray:2.0,2.0;" width="183" x="1639" y="705.5"/><text fill="#000000" font-family="sans-serif" font-size="12" font-style="italic" lengthAdjust="spacing" textLength="181" x="1640" y="719.4492">TUser, TContent extends Content</text><line style="stroke:#181818;stroke-width:0.5;" x1="1186" x2="1818" y1="740.5" y2="740.5"/><line style="stroke:#181818;stroke-width:0.5;" x1="1186" x2="1818" y1="748.5" y2="748.5"/><ellipse cx="1196" cy="763.3105" fill="#84BE84" rx="3" ry="3" style="stroke:#038048;stroke-width:1.0;"/><text fill="#000000" font-family="sans-serif" font-size="14" lengthAdjust="spacing" textLength="608" x="1205" y="767.6074">ResponseEntity sendCommunication(GatewayProperties&lt;TUser, TContent&gt; gatewayProperties))</text></g><g id="elem_GMN20"><path d="M1854.5,719.5 L1854.5,738 L1819.42,742 L1854.5,746 L1854.5,764.082 A0,0 0 0 0 1854.5,764.082 L2143.5,764.082 A0,0 0 0 0 2143.5,764.082 L2143.5,729.5 L2133.5,719.5 L1854.5,719.5 A0,0 0 0 0 1854.5,719.5 " fill="#FEFFDD" style="stroke:#181818;stroke-width:0.5;"/><path d="M2133.5,719.5 L2133.5,729.5 L2143.5,729.5 L2133.5,719.5 " fill="#FEFFDD" style="stroke:#181818;stroke-width:0.5;"/><text fill="#000000" font-family="sans-serif" font-size="13" lengthAdjust="spacing" textLength="268" x="1860.5" y="738.5283">GatewayProperties object can be created by a</text><text fill="#000000" font-family="sans-serif" font-size="13" lengthAdjust="spacing" textLength="200" x="1860.5" y="755.8193">builder and passed to this method.</text></g><!--class GetUserAndContent--><g id="elem_GetUserAndContent"><rect codeLine="80" fill="#F1F1F1" height="85.2422" id="GetUserAndContent" rx="2.5" ry="2.5" style="stroke:#181818;stroke-width:0.5;" width="253" x="22.5" y="699.5"/><ellipse cx="37.5" cy="715.5" fill="#A9DCDF" rx="11" ry="11" style="stroke:#181818;stroke-width:1.0;"/><path d="M39.6875,717.2656 L35.5469,717.2656 L35.125,718.2969 L35.5469,718.2969 Q36.1563,718.2969 36.4219,718.5313 Q36.6875,718.7656 36.6875,719.1563 Q36.6875,719.5313 36.4219,719.7656 Q36.1563,720 35.5469,720 L33.25,720 Q32.6406,720 32.3906,719.7656 Q32.125,719.5313 32.125,719.1406 Q32.125,718.7656 32.4063,718.5313 Q32.6719,718.2813 33.2969,718.2969 L35.9688,711.6406 L34.8594,711.6406 Q34.25,711.6406 33.9844,711.4063 Q33.7188,711.1719 33.7188,710.7813 Q33.7188,710.4063 33.9844,710.1719 Q34.25,709.9375 34.8594,709.9375 L38.5313,709.9375 L41.9219,718.2969 Q42.5156,718.2969 42.7031,718.4375 Q43.0938,718.7031 43.0938,719.1563 Q43.0938,719.5313 42.8281,719.7656 Q42.5781,720 41.9688,720 L39.6719,720 Q39.0625,720 38.7969,719.7656 Q38.5313,719.5313 38.5313,719.1406 Q38.5313,718.7656 38.7969,718.5313 Q39.0625,718.2969 39.6719,718.2969 L40.0938,718.2969 L39.6875,717.2656 Z M38.9688,715.5625 L37.6094,712.1875 L36.2344,715.5625 L38.9688,715.5625 Z " fill="#000000"/><text fill="#000000" font-family="sans-serif" font-size="14" font-style="italic" lengthAdjust="spacing" textLength="128" x="51.5" y="721.2969">GetUserAndContent</text><rect fill="#FFFFFF" height="17.9609" style="stroke:#181818;stroke-width:1.0;stroke-dasharray:2.0,2.0;" width="91" x="187.5" y="696.5"/><text fill="#000000" font-family="sans-serif" font-size="12" font-style="italic" lengthAdjust="spacing" textLength="89" x="188.5" y="710.4492">TUser, TContent</text><line style="stroke:#181818;stroke-width:0.5;" x1="23.5" x2="274.5" y1="731.5" y2="731.5"/><line style="stroke:#181818;stroke-width:0.5;" x1="23.5" x2="274.5" y1="739.5" y2="739.5"/><polygon fill="#FFFF44" points="33.5,749.3105,37.5,753.3105,33.5,757.3105,29.5,753.3105" style="stroke:#B38D22;stroke-width:1.0;"/><text fill="#000000" font-family="sans-serif" font-size="14" lengthAdjust="spacing" textLength="181" x="42.5" y="758.6074">TUser getUser(String userId)</text><polygon fill="#FFFF44" points="33.5,767.9316,37.5,771.9316,33.5,775.9316,29.5,771.9316" style="stroke:#B38D22;stroke-width:1.0;"/><text fill="#000000" font-family="sans-serif" font-size="14" lengthAdjust="spacing" textLength="223" x="42.5" y="777.2285">TContent getContent(String userId)</text></g><!--class UserAndContent--><g id="elem_UserAndContent"><rect codeLine="85" fill="#F1F1F1" height="85.2422" id="UserAndContent" rx="2.5" ry="2.5" style="stroke:#181818;stroke-width:0.5;" width="321" x="535.5" y="1093"/><ellipse cx="550.5" cy="1109" fill="#ADD1B2" rx="11" ry="11" style="stroke:#181818;stroke-width:1.0;"/><path d="M553.2656,1104.875 Q553.4219,1104.6563 553.6094,1104.5469 Q553.7969,1104.4375 554.0156,1104.4375 Q554.3906,1104.4375 554.625,1104.7031 Q554.8594,1104.9531 554.8594,1105.5625 L554.8594,1107.0156 Q554.8594,1107.625 554.625,1107.8906 Q554.3906,1108.1563 554.0156,1108.1563 Q553.6719,1108.1563 553.4688,1107.9531 Q553.2656,1107.7656 553.1563,1107.25 Q553.1094,1106.8906 552.9219,1106.7031 Q552.5938,1106.3281 551.9844,1106.1094 Q551.375,1105.8906 550.75,1105.8906 Q549.9844,1105.8906 549.3438,1106.2188 Q548.7188,1106.5469 548.2188,1107.2969 Q547.7344,1108.0469 547.7344,1109.0781 L547.7344,1110.1719 Q547.7344,1111.4063 548.625,1112.2344 Q549.5156,1113.0469 551.1094,1113.0469 Q552.0469,1113.0469 552.7031,1112.7969 Q553.0938,1112.6406 553.5156,1112.2031 Q553.7813,1111.9375 553.9219,1111.8594 Q554.0781,1111.7813 554.2813,1111.7813 Q554.6094,1111.7813 554.8594,1112.0469 Q555.125,1112.2969 555.125,1112.6406 Q555.125,1112.9844 554.7813,1113.3906 Q554.2813,1113.9688 553.4844,1114.2969 Q552.4063,1114.75 551.1094,1114.75 Q549.5938,1114.75 548.3906,1114.125 Q547.4063,1113.625 546.7188,1112.5625 Q546.0313,1111.4844 546.0313,1110.2031 L546.0313,1109.0469 Q546.0313,1107.7188 546.6406,1106.5781 Q547.2656,1105.4219 548.3594,1104.8125 Q549.4531,1104.1875 550.6875,1104.1875 Q551.4219,1104.1875 552.0625,1104.3594 Q552.7188,1104.5156 553.2656,1104.875 Z " fill="#000000"/><text fill="#000000" font-family="sans-serif" font-size="14" lengthAdjust="spacing" textLength="104" x="564.5" y="1114.7969">UserAndContent</text><rect fill="#FFFFFF" height="17.9609" style="stroke:#181818;stroke-width:1.0;stroke-dasharray:2.0,2.0;" width="183" x="676.5" y="1090"/><text fill="#000000" font-family="sans-serif" font-size="12" font-style="italic" lengthAdjust="spacing" textLength="181" x="677.5" y="1103.9492">TUser, TContent extends Content</text><line style="stroke:#181818;stroke-width:0.5;" x1="536.5" x2="855.5" y1="1125" y2="1125"/><rect fill="none" height="6" style="stroke:#C82930;stroke-width:1.0;" width="6" x="543.5" y="1136.8105"/><text fill="#000000" font-family="sans-serif" font-size="14" lengthAdjust="spacing" textLength="70" x="555.5" y="1144.1074">TUser user</text><rect fill="none" height="6" style="stroke:#C82930;stroke-width:1.0;" width="6" x="543.5" y="1155.4316"/><text fill="#000000" font-family="sans-serif" font-size="14" lengthAdjust="spacing" textLength="110" x="555.5" y="1162.7285">TContent content</text><line style="stroke:#181818;stroke-width:0.5;" x1="536.5" x2="855.5" y1="1170.2422" y2="1170.2422"/></g><!--class UserContentService--><g id="elem_UserContentService"><rect codeLine="90" fill="#F1F1F1" height="66.6211" id="UserContentService" rx="2.5" ry="2.5" style="stroke:#181818;stroke-width:0.5;" width="469" x="310.5" y="708.5"/><ellipse cx="385.25" cy="724.5" fill="#B4A7E5" rx="11" ry="11" style="stroke:#181818;stroke-width:1.0;"/><path d="M386.2031,721.1406 L386.2031,727.7969 L387.9219,727.7969 Q388.5313,727.7969 388.7969,728.0313 Q389.0625,728.2656 389.0625,728.6563 Q389.0625,729.0313 388.7969,729.2656 Q388.5313,729.5 387.9219,729.5 L382.7813,729.5 Q382.1719,729.5 381.9063,729.2656 Q381.6406,729.0313 381.6406,728.6406 Q381.6406,728.2656 381.9063,728.0313 Q382.1719,727.7969 382.7813,727.7969 L384.5,727.7969 L384.5,721.1406 L382.7813,721.1406 Q382.1719,721.1406 381.9063,720.9063 Q381.6406,720.6719 381.6406,720.2813 Q381.6406,719.9063 381.9063,719.6719 Q382.1719,719.4375 382.7813,719.4375 L387.9219,719.4375 Q388.5313,719.4375 388.7969,719.6719 Q389.0625,719.9063 389.0625,720.2813 Q389.0625,720.6719 388.7969,720.9063 Q388.5313,721.1406 387.9219,721.1406 L386.2031,721.1406 Z " fill="#000000"/><text fill="#000000" font-family="sans-serif" font-size="14" font-style="italic" lengthAdjust="spacing" textLength="126" x="405.75" y="730.2969">UserContentService</text><rect fill="#FFFFFF" height="17.9609" style="stroke:#181818;stroke-width:1.0;stroke-dasharray:2.0,2.0;" width="183" x="599.5" y="705.5"/><text fill="#000000" font-family="sans-serif" font-size="12" font-style="italic" lengthAdjust="spacing" textLength="181" x="600.5" y="719.4492">TUser, TContent extends Content</text><line style="stroke:#181818;stroke-width:0.5;" x1="311.5" x2="778.5" y1="740.5" y2="740.5"/><line style="stroke:#181818;stroke-width:0.5;" x1="311.5" x2="778.5" y1="748.5" y2="748.5"/><ellipse cx="321.5" cy="763.3105" fill="#84BE84" rx="3" ry="3" style="stroke:#038048;stroke-width:1.0;"/><text fill="#000000" font-family="sans-serif" font-size="14" lengthAdjust="spacing" textLength="443" x="330.5" y="767.6074">UserAndContent&lt;TUser, TContent&gt; getUserAndContent(String userId)</text></g><!--class EmailUserContentService--><g id="elem_EmailUserContentService"><rect codeLine="94" fill="#F1F1F1" height="103.8633" id="EmailUserContentService" rx="2.5" ry="2.5" style="stroke:#181818;stroke-width:0.5;" width="519" x="436.5" y="891.5"/><ellipse cx="540.25" cy="907.5" fill="#ADD1B2" rx="11" ry="11" style="stroke:#181818;stroke-width:1.0;"/><path d="M543.0156,903.375 Q543.1719,903.1563 543.3594,903.0469 Q543.5469,902.9375 543.7656,902.9375 Q544.1406,902.9375 544.375,903.2031 Q544.6094,903.4531 544.6094,904.0625 L544.6094,905.5156 Q544.6094,906.125 544.375,906.3906 Q544.1406,906.6563 543.7656,906.6563 Q543.4219,906.6563 543.2188,906.4531 Q543.0156,906.2656 542.9063,905.75 Q542.8594,905.3906 542.6719,905.2031 Q542.3438,904.8281 541.7344,904.6094 Q541.125,904.3906 540.5,904.3906 Q539.7344,904.3906 539.0938,904.7188 Q538.4688,905.0469 537.9688,905.7969 Q537.4844,906.5469 537.4844,907.5781 L537.4844,908.6719 Q537.4844,909.9063 538.375,910.7344 Q539.2656,911.5469 540.8594,911.5469 Q541.7969,911.5469 542.4531,911.2969 Q542.8438,911.1406 543.2656,910.7031 Q543.5313,910.4375 543.6719,910.3594 Q543.8281,910.2813 544.0313,910.2813 Q544.3594,910.2813 544.6094,910.5469 Q544.875,910.7969 544.875,911.1406 Q544.875,911.4844 544.5313,911.8906 Q544.0313,912.4688 543.2344,912.7969 Q542.1563,913.25 540.8594,913.25 Q539.3438,913.25 538.1406,912.625 Q537.1563,912.125 536.4688,911.0625 Q535.7813,909.9844 535.7813,908.7031 L535.7813,907.5469 Q535.7813,906.2188 536.3906,905.0781 Q537.0156,903.9219 538.1094,903.3125 Q539.2031,902.6875 540.4375,902.6875 Q541.1719,902.6875 541.8125,902.8594 Q542.4688,903.0156 543.0156,903.375 Z " fill="#000000"/><text fill="#000000" font-family="sans-serif" font-size="14" lengthAdjust="spacing" textLength="160" x="560.75" y="913.2969">EmailUserContentService</text><rect fill="#FFFFFF" height="17.9609" style="stroke:#181818;stroke-width:1.0;stroke-dasharray:2.0,2.0;" width="141" x="817.5" y="888.5"/><text fill="#000000" font-family="sans-serif" font-size="12" font-style="italic" lengthAdjust="spacing" textLength="139" x="818.5" y="902.4492">EmailUser, EmailContent</text><line style="stroke:#181818;stroke-width:0.5;" x1="437.5" x2="954.5" y1="923.5" y2="923.5"/><line style="stroke:#181818;stroke-width:0.5;" x1="437.5" x2="954.5" y1="931.5" y2="931.5"/><ellipse cx="447.5" cy="946.3105" fill="#84BE84" rx="3" ry="3" style="stroke:#038048;stroke-width:1.0;"/><text fill="#000000" font-family="sans-serif" font-size="14" lengthAdjust="spacing" textLength="493" x="456.5" y="950.6074">UserAndContent&lt;EmailUser, EmailContent&gt; getUserAndContent(String userId)</text><ellipse cx="447.5" cy="964.9316" fill="#84BE84" rx="3" ry="3" style="stroke:#038048;stroke-width:1.0;"/><text fill="#000000" font-family="sans-serif" font-size="14" lengthAdjust="spacing" textLength="206" x="456.5" y="969.2285">EmailUser getUser(String userId)</text><ellipse cx="447.5" cy="983.5527" fill="#84BE84" rx="3" ry="3" style="stroke:#038048;stroke-width:1.0;"/><text fill="#000000" font-family="sans-serif" font-size="14" lengthAdjust="spacing" textLength="248" x="456.5" y="987.8496">EmailContent getContent(String userId)</text></g><!--class ContentDeliveryService--><g id="elem_ContentDeliveryService"><rect codeLine="100" fill="#F1F1F1" height="66.6211" id="ContentDeliveryService" rx="2.5" ry="2.5" style="stroke:#181818;stroke-width:0.5;" width="335" x="814.5" y="708.5"/><ellipse cx="858.3" cy="724.5" fill="#B4A7E5" rx="11" ry="11" style="stroke:#181818;stroke-width:1.0;"/><path d="M859.2531,721.1406 L859.2531,727.7969 L860.9719,727.7969 Q861.5813,727.7969 861.8469,728.0313 Q862.1125,728.2656 862.1125,728.6563 Q862.1125,729.0313 861.8469,729.2656 Q861.5813,729.5 860.9719,729.5 L855.8313,729.5 Q855.2219,729.5 854.9563,729.2656 Q854.6906,729.0313 854.6906,728.6406 Q854.6906,728.2656 854.9563,728.0313 Q855.2219,727.7969 855.8313,727.7969 L857.55,727.7969 L857.55,721.1406 L855.8313,721.1406 Q855.2219,721.1406 854.9563,720.9063 Q854.6906,720.6719 854.6906,720.2813 Q854.6906,719.9063 854.9563,719.6719 Q855.2219,719.4375 855.8313,719.4375 L860.9719,719.4375 Q861.5813,719.4375 861.8469,719.6719 Q862.1125,719.9063 862.1125,720.2813 Q862.1125,720.6719 861.8469,720.9063 Q861.5813,721.1406 860.9719,721.1406 L859.2531,721.1406 Z " fill="#000000"/><text fill="#000000" font-family="sans-serif" font-size="14" font-style="italic" lengthAdjust="spacing" textLength="146" x="878.7" y="730.2969">ContentDeliveryService</text><rect fill="#FFFFFF" height="17.9609" style="stroke:#181818;stroke-width:1.0;stroke-dasharray:2.0,2.0;" width="91" x="1061.5" y="705.5"/><text fill="#000000" font-family="sans-serif" font-size="12" font-style="italic" lengthAdjust="spacing" textLength="89" x="1062.5" y="719.4492">TUser, TContent</text><line style="stroke:#181818;stroke-width:0.5;" x1="815.5" x2="1148.5" y1="740.5" y2="740.5"/><line style="stroke:#181818;stroke-width:0.5;" x1="815.5" x2="1148.5" y1="748.5" y2="748.5"/><ellipse cx="825.5" cy="763.3105" fill="#84BE84" rx="3" ry="3" style="stroke:#038048;stroke-width:1.0;"/><text fill="#000000" font-family="sans-serif" font-size="14" lengthAdjust="spacing" textLength="309" x="834.5" y="767.6074">void sendContent(TUser user, TContent content)</text></g><!--class EmailContentDeliveryService--><g id="elem_EmailContentDeliveryService"><rect codeLine="104" fill="#F1F1F1" height="66.6211" id="EmailContentDeliveryService" rx="2.5" ry="2.5" style="stroke:#181818;stroke-width:0.5;" width="385" x="990.5" y="910"/><ellipse cx="1018.1" cy="926" fill="#ADD1B2" rx="11" ry="11" style="stroke:#181818;stroke-width:1.0;"/><path d="M1020.8656,921.875 Q1021.0219,921.6563 1021.2094,921.5469 Q1021.3969,921.4375 1021.6156,921.4375 Q1021.9906,921.4375 1022.225,921.7031 Q1022.4594,921.9531 1022.4594,922.5625 L1022.4594,924.0156 Q1022.4594,924.625 1022.225,924.8906 Q1021.9906,925.1563 1021.6156,925.1563 Q1021.2719,925.1563 1021.0688,924.9531 Q1020.8656,924.7656 1020.7563,924.25 Q1020.7094,923.8906 1020.5219,923.7031 Q1020.1938,923.3281 1019.5844,923.1094 Q1018.975,922.8906 1018.35,922.8906 Q1017.5844,922.8906 1016.9438,923.2188 Q1016.3188,923.5469 1015.8188,924.2969 Q1015.3344,925.0469 1015.3344,926.0781 L1015.3344,927.1719 Q1015.3344,928.4063 1016.225,929.2344 Q1017.1156,930.0469 1018.7094,930.0469 Q1019.6469,930.0469 1020.3031,929.7969 Q1020.6938,929.6406 1021.1156,929.2031 Q1021.3813,928.9375 1021.5219,928.8594 Q1021.6781,928.7813 1021.8813,928.7813 Q1022.2094,928.7813 1022.4594,929.0469 Q1022.725,929.2969 1022.725,929.6406 Q1022.725,929.9844 1022.3813,930.3906 Q1021.8813,930.9688 1021.0844,931.2969 Q1020.0063,931.75 1018.7094,931.75 Q1017.1938,931.75 1015.9906,931.125 Q1015.0063,930.625 1014.3188,929.5625 Q1013.6313,928.4844 1013.6313,927.2031 L1013.6313,926.0469 Q1013.6313,924.7188 1014.2406,923.5781 Q1014.8656,922.4219 1015.9594,921.8125 Q1017.0531,921.1875 1018.2875,921.1875 Q1019.0219,921.1875 1019.6625,921.3594 Q1020.3188,921.5156 1020.8656,921.875 Z " fill="#000000"/><text fill="#000000" font-family="sans-serif" font-size="14" lengthAdjust="spacing" textLength="182" x="1034.9" y="931.7969">EmailContentDeliveryService</text><rect fill="#FFFFFF" height="17.9609" style="stroke:#181818;stroke-width:1.0;stroke-dasharray:2.0,2.0;" width="141" x="1237.5" y="907"/><text fill="#000000" font-family="sans-serif" font-size="12" font-style="italic" lengthAdjust="spacing" textLength="139" x="1238.5" y="920.9492">EmailUser, EmailContent</text><line style="stroke:#181818;stroke-width:0.5;" x1="991.5" x2="1374.5" y1="942" y2="942"/><line style="stroke:#181818;stroke-width:0.5;" x1="991.5" x2="1374.5" y1="950" y2="950"/><ellipse cx="1001.5" cy="964.8105" fill="#84BE84" rx="3" ry="3" style="stroke:#038048;stroke-width:1.0;"/><text fill="#000000" font-family="sans-serif" font-size="14" lengthAdjust="spacing" textLength="359" x="1010.5" y="969.1074">void sendContent(EmailUser user, EmailContent content)</text></g><g id="elem_GMN32"><path d="M22.5,912.5 L22.5,974.373 A0,0 0 0 0 22.5,974.373 L401.5,974.373 A0,0 0 0 0 401.5,974.373 L401.5,947.5 L436.33,943.5 L401.5,939.5 L401.5,922.5 L391.5,912.5 L22.5,912.5 A0,0 0 0 0 22.5,912.5 " fill="#FEFFDD" style="stroke:#181818;stroke-width:0.5;"/><path d="M391.5,912.5 L391.5,922.5 L401.5,922.5 L391.5,912.5 " fill="#FEFFDD" style="stroke:#181818;stroke-width:0.5;"/><text fill="#000000" font-family="sans-serif" font-size="13" lengthAdjust="spacing" textLength="349" x="28.5" y="931.5283">This class can extend GetUserAndContent when not using a</text><text fill="#000000" font-family="sans-serif" font-size="13" lengthAdjust="spacing" textLength="358" x="28.5" y="948.8193">JOIN operation to get the user with the message contents and</text><text fill="#000000" font-family="sans-serif" font-size="13" lengthAdjust="spacing" textLength="313" x="28.5" y="966.1104">you want to get the entities in separate database calls</text></g><!--entity gateway--><g id="elem_gateway"><rect fill="#F1F1F1" height="48.6211" rx="2.5" ry="2.5" style="stroke:#181818;stroke-width:0.5;" width="92" x="319" y="313.5"/><rect fill="#F1F1F1" height="10" style="stroke:#181818;stroke-width:0.5;" width="15" x="391" y="318.5"/><rect fill="#F1F1F1" height="2" style="stroke:#181818;stroke-width:0.5;" width="4" x="389" y="320.5"/><rect fill="#F1F1F1" height="2" style="stroke:#181818;stroke-width:0.5;" width="4" x="389" y="324.5"/><text fill="#000000" font-family="sans-serif" font-size="14" lengthAdjust="spacing" textLength="52" x="334" y="348.6074">gateway</text></g><!--class SendMessageToGatewayActivity--><g id="elem_SendMessageToGatewayActivity"><rect codeLine="5" fill="#F1F1F1" height="66.6211" id="SendMessageToGatewayActivity" rx="2.5" ry="2.5" style="stroke:#181818;stroke-width:0.5;" width="763" x="1120.5" y="117"/><ellipse cx="1394.75" cy="133" fill="#B4A7E5" rx="11" ry="11" style="stroke:#181818;stroke-width:1.0;"/><path d="M1395.7031,129.6406 L1395.7031,136.2969 L1397.4219,136.2969 Q1398.0313,136.2969 1398.2969,136.5313 Q1398.5625,136.7656 1398.5625,137.1563 Q1398.5625,137.5313 1398.2969,137.7656 Q1398.0313,138 1397.4219,138 L1392.2813,138 Q1391.6719,138 1391.4063,137.7656 Q1391.1406,137.5313 1391.1406,137.1406 Q1391.1406,136.7656 1391.4063,136.5313 Q1391.6719,136.2969 1392.2813,136.2969 L1394,136.2969 L1394,129.6406 L1392.2813,129.6406 Q1391.6719,129.6406 1391.4063,129.4063 Q1391.1406,129.1719 1391.1406,128.7813 Q1391.1406,128.4063 1391.4063,128.1719 Q1391.6719,127.9375 1392.2813,127.9375 L1397.4219,127.9375 Q1398.0313,127.9375 1398.2969,128.1719 Q1398.5625,128.4063 1398.5625,128.7813 Q1398.5625,129.1719 1398.2969,129.4063 Q1398.0313,129.6406 1397.4219,129.6406 L1395.7031,129.6406 Z " fill="#000000"/><text fill="#000000" font-family="sans-serif" font-size="14" font-style="italic" lengthAdjust="spacing" textLength="206" x="1415.25" y="138.7969">SendMessageToGatewayActivity</text><line style="stroke:#181818;stroke-width:0.5;" x1="1121.5" x2="1882.5" y1="149" y2="149"/><line style="stroke:#181818;stroke-width:0.5;" x1="1121.5" x2="1882.5" y1="157" y2="157"/><ellipse cx="1131.5" cy="171.8105" fill="#84BE84" rx="3" ry="3" style="stroke:#038048;stroke-width:1.0;"/><text fill="#000000" font-family="sans-serif" font-size="14" lengthAdjust="spacing" textLength="737" x="1140.5" y="176.1074">Map&lt;String, String&gt; invokeGateway(String userId, String workflowRunId, String gatewayUrl, Preferences preferences)</text></g><!--reverse link CommunicationHistoryAccessProvider to DefaultCommunicationHistoryAccessProvider--><g id="link_CommunicationHistoryAccessProvider_DefaultCommunicationHistoryAccessProvider"><path d="M2419.0094,808.9917 C2402.7194,832.8817 2393.21,846.84 2375.58,872.71 " fill="none" id="CommunicationHistoryAccessProvider-backto-DefaultCommunicationHistoryAccessProvider" style="stroke:#181818;stroke-width:1.0;stroke-dasharray:7.0,7.0;"/><polygon fill="none" points="2429.15,794.12,2414.0521,805.6115,2423.9666,812.3719,2429.15,794.12" style="stroke:#181818;stroke-width:1.0;"/></g><!--reverse link GatewayController to EmailGatewayController--><g id="link_GatewayController_EmailGatewayController"><path d="M1502,398.92 C1502,433.95 1502,465.2 1502,497.35 " fill="none" id="GatewayController-backto-EmailGatewayController" style="stroke:#181818;stroke-width:1.0;stroke-dasharray:7.0,7.0;"/><polygon fill="none" points="1502,380.92,1496,398.92,1508,398.92,1502,380.92" style="stroke:#181818;stroke-width:1.0;"/></g><!--reverse link GatewayService to CommunicationGatewayService--><g id="link_GatewayService_CommunicationGatewayService"><path d="M892.8558,569.4203 C1032.0558,608.6303 1247.22,669.24 1386.44,708.45 " fill="none" id="GatewayService-backto-CommunicationGatewayService" style="stroke:#181818;stroke-width:1.0;stroke-dasharray:7.0,7.0;"/><polygon fill="none" points="875.53,564.54,891.229,575.1956,894.4825,563.6451,875.53,564.54" style="stroke:#181818;stroke-width:1.0;"/></g><!--reverse link GetUserAndContent to EmailUserContentService--><g id="link_GetUserAndContent_EmailUserContentService"><path d="M279.9105,790.7471 C365.1605,821.8371 465.26,858.35 556.16,891.5 " fill="none" id="GetUserAndContent-backto-EmailUserContentService" style="stroke:#181818;stroke-width:1.0;"/><polygon fill="none" points="263,784.58,277.8548,796.384,281.9663,785.1103,263,784.58" style="stroke:#181818;stroke-width:1.0;"/></g><!--reverse link UserContentService to EmailUserContentService--><g id="link_UserContentService_EmailUserContentService"><path d="M580.7944,790.2915 C604.5044,821.6115 629.66,854.85 657.13,891.14 " fill="none" id="UserContentService-backto-EmailUserContentService" style="stroke:#181818;stroke-width:1.0;stroke-dasharray:7.0,7.0;"/><polygon fill="none" points="569.93,775.94,576.0106,793.9129,585.5782,786.67,569.93,775.94" style="stroke:#181818;stroke-width:1.0;"/></g><!--reverse link ContentDeliveryService to EmailContentDeliveryService--><g id="link_ContentDeliveryService_EmailContentDeliveryService"><path d="M1027.964,788.6217 C1065.314,825.7017 1112.86,872.88 1150.09,909.84 " fill="none" id="ContentDeliveryService-backto-EmailContentDeliveryService" style="stroke:#181818;stroke-width:1.0;stroke-dasharray:7.0,7.0;"/><polygon fill="none" points="1015.19,775.94,1023.7368,792.8797,1032.1912,784.3637,1015.19,775.94" style="stroke:#181818;stroke-width:1.0;"/></g><!--link CommunicationGatewayService to EmailContentDeliveryService--><g id="link_CommunicationGatewayService_EmailContentDeliveryService"><path codeLine="115" d="M1449.68,775.72 C1390.38,812.81 1299.3771,869.7185 1240.1671,906.7485 " fill="none" id="CommunicationGatewayService-to-EmailContentDeliveryService" style="stroke:#181818;stroke-width:1.0;"/><polygon fill="#181818" points="1235.08,909.93,1244.8316,908.5492,1239.3192,907.2788,1240.5896,901.7664,1235.08,909.93" style="stroke:#181818;stroke-width:1.0;"/><text fill="#000000" font-family="sans-serif" font-size="13" lengthAdjust="spacing" textLength="28" x="1372" y="839.0283">uses</text></g><!--link CommunicationGatewayService to EmailUserContentService--><g id="link_CommunicationGatewayService_EmailUserContentService"><path codeLine="116" d="M1368.79,775.55 C1261.8,801.73 1107.69,839.55 973,873 C949.06,878.94 929.7804,883.7431 904.8904,889.9731 " fill="none" id="CommunicationGatewayService-to-EmailUserContentService" style="stroke:#181818;stroke-width:1.0;"/><polygon fill="#181818" points="899.07,891.43,908.7719,893.125,903.9204,890.2159,906.8294,885.3644,899.07,891.43" style="stroke:#181818;stroke-width:1.0;"/><text fill="#000000" font-family="sans-serif" font-size="13" lengthAdjust="spacing" textLength="28" x="1163" y="839.0283">uses</text></g><!--link CommunicationGatewayService to DefaultCommunicationHistoryAccessProvider--><g id="link_CommunicationGatewayService_DefaultCommunicationHistoryAccessProvider"><path codeLine="117" d="M1637.01,775.61 C1745.99,801.93 1897.3377,838.4813 2034.2577,871.5513 " fill="none" id="CommunicationGatewayService-to-DefaultCommunicationHistoryAccessProvider" style="stroke:#181818;stroke-width:1.0;"/><polygon fill="#181818" points="2040.09,872.96,2032.2807,866.9588,2035.2298,871.7861,2030.4024,874.7352,2040.09,872.96" style="stroke:#181818;stroke-width:1.0;"/><text fill="#000000" font-family="sans-serif" font-size="13" lengthAdjust="spacing" textLength="28" x="1916" y="839.0283">uses</text></g><!--link CommunicationGatewayService to HashHelper--><g id="link_CommunicationGatewayService_HashHelper"><path codeLine="118" d="M1524.95,775.94 C1550.78,813.02 1589.0601,867.957 1614.8101,904.917 " fill="none" id="CommunicationGatewayService-to-HashHelper" style="stroke:#181818;stroke-width:1.0;"/><polygon fill="#181818" points="1618.24,909.84,1616.3772,900.1689,1615.3818,905.7375,1609.8132,904.7421,1618.24,909.84" style="stroke:#181818;stroke-width:1.0;"/><text fill="#000000" font-family="sans-serif" font-size="13" lengthAdjust="spacing" textLength="28" x="1572" y="839.0283">uses</text></g><!--link EmailGatewayController to CommunicationGatewayService--><g id="link_EmailGatewayController_CommunicationGatewayService"><path codeLine="119" d="M1502,564.66 C1502,603.81 1502,663.03 1502,702.23 " fill="none" id="EmailGatewayController-to-CommunicationGatewayService" style="stroke:#181818;stroke-width:1.0;"/><polygon fill="#181818" points="1502,708.23,1506,699.23,1502,703.23,1498,699.23,1502,708.23" style="stroke:#181818;stroke-width:1.0;"/><text fill="#000000" font-family="sans-serif" font-size="13" lengthAdjust="spacing" textLength="28" x="1503" y="656.0283">uses</text></g><!--link EmailGatewayController to GatewayProperties--><g id="link_EmailGatewayController_GatewayProperties"><path codeLine="120" d="M1826.73,531 C1848.44,531 1864.13,531 1885.39,531 " fill="none" id="EmailGatewayController-to-GatewayProperties" style="stroke:#181818;stroke-width:1.0;"/><polygon fill="#181818" points="1891.39,531,1882.39,527,1886.39,531,1882.39,535,1891.39,531" style="stroke:#181818;stroke-width:1.0;"/><text fill="#000000" font-family="sans-serif" font-size="13" lengthAdjust="spacing" textLength="28" x="1845" y="524.0283">uses</text></g><!--link Worker to SendMessageToGatewayActivity--><g id="link_Worker_SendMessageToGatewayActivity"><path codeLine="121" d="M1502,56.18 C1502,73.67 1502,79.7 1502,98.99 " fill="none" id="Worker-to-SendMessageToGatewayActivity" style="stroke:#181818;stroke-width:1.0;"/><polygon fill="none" points="1502,116.99,1508,98.99,1496,98.99,1502,116.99" style="stroke:#181818;stroke-width:1.0;"/></g><!--link SendMessageToGatewayActivity to GatewayController--><g id="link_SendMessageToGatewayActivity_GatewayController"><path codeLine="122" d="M1502,184.24 C1502,215.23 1502,255.9 1502,289.49 " fill="none" id="SendMessageToGatewayActivity-to-GatewayController" style="stroke:#181818;stroke-width:1.0;"/><polygon fill="#181818" points="1502,295.49,1506,286.49,1502,290.49,1498,286.49,1502,295.49" style="stroke:#181818;stroke-width:1.0;"/><text fill="#000000" font-family="sans-serif" font-size="13" lengthAdjust="spacing" textLength="28" x="1503" y="229.0283">uses</text></g><!--link EmailUserContentService to UserAndContent--><g id="link_EmailUserContentService_UserAndContent"><path codeLine="123" d="M696,995.67 C696,1026.11 696,1058.25 696,1086.85 " fill="none" id="EmailUserContentService-to-UserAndContent" style="stroke:#181818;stroke-width:1.0;"/><polygon fill="#181818" points="696,1092.85,700,1083.85,696,1087.85,692,1083.85,696,1092.85" style="stroke:#181818;stroke-width:1.0;"/><text fill="#000000" font-family="sans-serif" font-size="13" lengthAdjust="spacing" textLength="40" x="697" y="1059.0283">returns</text></g><!--SRC=[lLZRRjiu47tFLmowmC96xFs08l0YJOgc2sItQ5BiCosDRJOIgIKfkqQQVz-XhgGeoLORD0-HJCxbpEs8KYJJJ0eK1lwLwWaLF5-yN5nmOL1jM8JmW2A-HwtP5X_b1sRmm8xNaU5xReua2_Ht2VSiktemYelj0ihh2hZOooUiD6RbAkGQrSUu5e83kTmayl0v5yxgjjJvef85V5AuGOKYGWrPUp-t83CMFH4iU7CZqpGNF6A6Im6LopV0D4JkJhLHeOwQmBVDUh7nKbxQ5Dn8kYMvKg-Ck8QAfjej5sRpsaJf8s5QmntJkpjCiYAvWOcqJAuLcescfHAi_Edv45WduZkkZLHKBqgP_gJadiST47tYDYhA-vxBN7lxzo5K1_tSCRkNF0Q5gTnZduTtnucch9PlQJnNdJuBJB-uzRd53SiJSqRcU9ebcDhiJylp4cwFWgNoTdsjZoAwIRZjfpXSSpNEHKLNQYt3QK9su_j3TN-jWhzsbLwnbxo2LqJm6V_BKHklJXwoSDsBmvjb9cAcOlY0XYPH0_qawYpkPsC8D76GnYaGdD32JLHAgYeVFmIl9P8AegKR9PE4-ldgyGjXMi1ZJOZuZIwnhWbovHBBipPKfUW5wXZV2qEFZAjEv2lGPCBlcKvvjjxFHGsiRUikhbMjqeei_8QlJ3oWslC8G_reMDZjp5EXPKhQGVJZ6G-lfrVUfumdOJKSBWetdtyXIhRMHh78-AtjiDB9lldv2LpMjcunuNjKOwNjatCCMONwcTvlvCzLWSuNyg2SV3H49qL6fdSsXz_RwRNtEQNwNSuJqZinpXNQe2QhAHqpEBAJPhAdrISCQTX4uK3KmGx7zbgXrB7O_q8Q1CMtEmDoCnPIWoeS6Rd-YdQYc80rGgIG969O7u4rIkkotWMLPvGysZSI31q1w15XTZB-en2b-0f4_REAniPsRNDGPZKCjatURr1isjE2lVfd-hahLbjhZyTzmbxfJ-0OvumIbxNjBjQgrSZtpqKuxfDyNtQ0zpHBDySdKr4GVX-kPcDHoZG-Qe1XFPsXwB4u4iUWhxFYAKqsDawrpANduxos2TxFEfG-sihrWHNRADeUMWIjCrIaWOVEOEwyzuTUqACGstpcWV4-g0KJ9RWfY6YWgnf_ZvOvojWixPGjrTDHXnqAQvamsCgqXFJNFn__1ijWvJi5aH7LaGW92xHmu6PN_AeEi3NWuZ3Q63dA70wCt3ZgQAdQiY8Nb8wCaGE4c1csPdHqZbYI56ysBTCLraQ85vRBrLW1trh4-dmhOLOdM3ZxFM-2pVQBWwCqS8wqyYFspZ2m2XzWZbRrMMcv_BuQ_PXK28z-RLgsdbhtNNmzB6Vr_2P-I- -J9bT2syz8_mC0]--></g></svg>