<?xml version="1.0" encoding="us-ascii" standalone="no"?><svg xmlns="http://www.w3.org/2000/svg" xmlns:xlink="http://www.w3.org/1999/xlink" contentStyleType="text/css" height="177.2px" preserveAspectRatio="none" style="width:458px;height:177px;background:#FFFFFF;" version="1.1" viewBox="0 0 458 177" width="458.4px" zoomAndPan="magnify"><defs/><g><!--cluster communicationGateway--><g id="cluster_communicationGateway"><path d="M3.4,2.4055 L72.2,2.4055 A1.5,1.5 0 0 1 73.2,3.4055 L76,12.2539 L454.6,12.2539 A1,1 0 0 1 455.6,13.2539 L455.6,173.4055 A1,1 0 0 1 454.6,174.4055 L3.4,174.4055 A1,1 0 0 1 2.4,173.4055 L2.4,3.4055 A1,1 0 0 1 3.4,2.4055 " fill="none" style="stroke:#000000;stroke-width:0.6000000000000001;"/><line style="stroke:#000000;stroke-width:0.6000000000000001;" x1="2.4" x2="76" y1="12.2539" y2="12.2539"/><text fill="#000000" font-family="sans-serif" font-size="5.6" font-weight="bold" lengthAdjust="spacing" textLength="68.4" x="4" y="9.2484">Communication Gateway</text></g><!--class GatewayHelper--><g id="elem_GatewayHelper"><rect codeLine="10" fill="#F1F1F1" height="26.6484" id="GatewayHelper" rx="1" ry="1" style="stroke:#181818;stroke-width:0.20000000000000004;" width="184" x="19.6" y="137.6055"/><ellipse cx="90.7" cy="144.0055" fill="#ADD1B2" rx="4.4" ry="4.4" style="stroke:#181818;stroke-width:0.4000000000000001;"/><path d="M91.8063,142.3555 Q91.8688,142.268 91.9438,142.2242 Q92.0188,142.1805 92.1063,142.1805 Q92.2563,142.1805 92.35,142.2867 Q92.4438,142.3867 92.4438,142.6305 L92.4438,143.2117 Q92.4438,143.4555 92.35,143.5617 Q92.2563,143.668 92.1063,143.668 Q91.9688,143.668 91.8875,143.5867 Q91.8063,143.5117 91.7625,143.3055 Q91.7438,143.1617 91.6688,143.0867 Q91.5375,142.9367 91.2938,142.8492 Q91.05,142.7617 90.8,142.7617 Q90.4938,142.7617 90.2375,142.893 Q89.9875,143.0242 89.7875,143.3242 Q89.5938,143.6242 89.5938,144.0367 L89.5938,144.4742 Q89.5938,144.968 89.95,145.2992 Q90.3063,145.6242 90.9438,145.6242 Q91.3188,145.6242 91.5813,145.5242 Q91.7375,145.4617 91.9063,145.2867 Q92.0125,145.1805 92.0688,145.1492 Q92.1313,145.118 92.2125,145.118 Q92.3438,145.118 92.4438,145.2242 Q92.55,145.3242 92.55,145.4617 Q92.55,145.5992 92.4125,145.7617 Q92.2125,145.993 91.8938,146.1242 Q91.4625,146.3055 90.9438,146.3055 Q90.3375,146.3055 89.8563,146.0555 Q89.4625,145.8555 89.1875,145.4305 Q88.9125,144.9992 88.9125,144.4867 L88.9125,144.0242 Q88.9125,143.493 89.1563,143.0367 Q89.4063,142.5742 89.8438,142.3305 Q90.2813,142.0805 90.775,142.0805 Q91.0688,142.0805 91.325,142.1492 Q91.5875,142.2117 91.8063,142.3555 Z " fill="#000000"/><text fill="#000000" font-family="sans-serif" font-size="5.6" lengthAdjust="spacing" textLength="38.4" x="98.9" y="146.3242">GatewayHelper</text><line style="stroke:#181818;stroke-width:0.20000000000000004;" x1="20" x2="203.2" y1="150.4055" y2="150.4055"/><line style="stroke:#181818;stroke-width:0.20000000000000004;" x1="20" x2="203.2" y1="153.6055" y2="153.6055"/><ellipse cx="24" cy="159.5297" fill="#84BE84" rx="1.2" ry="1.2" style="stroke:#038048;stroke-width:0.4000000000000001;"/><text fill="#000000" font-family="sans-serif" font-size="5.6" lengthAdjust="spacing" textLength="173.6" x="27.6" y="161.2484">String messageHash(String workflowRunId, String messageContents)</text></g><!--class CommunicationHistoryAccessProvider--><g id="elem_CommunicationHistoryAccessProvider"><rect codeLine="14" fill="#F1F1F1" height="34.0969" id="CommunicationHistoryAccessProvider" rx="1" ry="1" style="stroke:#181818;stroke-width:0.20000000000000004;" width="220.8" x="228.4" y="68.4055"/><ellipse cx="289.5" cy="74.8055" fill="#B4A7E5" rx="4.4" ry="4.4" style="stroke:#181818;stroke-width:0.4000000000000001;"/><path d="M289.8813,73.4617 L289.8813,76.1242 L290.5688,76.1242 Q290.8125,76.1242 290.9188,76.218 Q291.025,76.3117 291.025,76.468 Q291.025,76.618 290.9188,76.7117 Q290.8125,76.8055 290.5688,76.8055 L288.5125,76.8055 Q288.2688,76.8055 288.1625,76.7117 Q288.0563,76.618 288.0563,76.4617 Q288.0563,76.3117 288.1625,76.218 Q288.2688,76.1242 288.5125,76.1242 L289.2,76.1242 L289.2,73.4617 L288.5125,73.4617 Q288.2688,73.4617 288.1625,73.368 Q288.0563,73.2742 288.0563,73.118 Q288.0563,72.968 288.1625,72.8742 Q288.2688,72.7805 288.5125,72.7805 L290.5688,72.7805 Q290.8125,72.7805 290.9188,72.8742 Q291.025,72.968 291.025,73.118 Q291.025,73.2742 290.9188,73.368 Q290.8125,73.4617 290.5688,73.4617 L289.8813,73.4617 Z " fill="#000000"/><text fill="#000000" font-family="sans-serif" font-size="5.6" font-style="italic" lengthAdjust="spacing" textLength="95.2" x="297.7" y="77.1242">CommunicationHistoryAccessProvider</text><line style="stroke:#181818;stroke-width:0.20000000000000004;" x1="228.8" x2="448.8" y1="81.2055" y2="81.2055"/><line style="stroke:#181818;stroke-width:0.20000000000000004;" x1="228.8" x2="448.8" y1="84.4055" y2="84.4055"/><ellipse cx="232.8" cy="90.3297" fill="#84BE84" rx="1.2" ry="1.2" style="stroke:#038048;stroke-width:0.4000000000000001;"/><text fill="#000000" font-family="sans-serif" font-size="5.6" lengthAdjust="spacing" textLength="200.8" x="236.4" y="92.0484">Communication getPreviousCommunicationMessageHash(String messageHash)</text><ellipse cx="232.8" cy="97.7781" fill="#84BE84" rx="1.2" ry="1.2" style="stroke:#038048;stroke-width:0.4000000000000001;"/><text fill="#000000" font-family="sans-serif" font-size="5.6" lengthAdjust="spacing" textLength="210.4" x="236.4" y="99.4969">void storeCommunication(String workflowRunId, String userId, String messageHash)</text></g><!--class DefaultCommunicationHistoryAccessProvider--><g id="elem_DefaultCommunicationHistoryAccessProvider"><rect codeLine="19" fill="#F1F1F1" height="34.0969" id="DefaultCommunicationHistoryAccessProvider" rx="1" ry="1" style="stroke:#181818;stroke-width:0.20000000000000004;" width="220.8" x="222.8" y="134.0055"/><ellipse cx="274.9" cy="140.4055" fill="#ADD1B2" rx="4.4" ry="4.4" style="stroke:#181818;stroke-width:0.4000000000000001;"/><path d="M276.0063,138.7555 Q276.0688,138.668 276.1438,138.6242 Q276.2188,138.5805 276.3063,138.5805 Q276.4563,138.5805 276.55,138.6867 Q276.6438,138.7867 276.6438,139.0305 L276.6438,139.6117 Q276.6438,139.8555 276.55,139.9617 Q276.4563,140.068 276.3063,140.068 Q276.1688,140.068 276.0875,139.9867 Q276.0063,139.9117 275.9625,139.7055 Q275.9438,139.5617 275.8688,139.4867 Q275.7375,139.3367 275.4938,139.2492 Q275.25,139.1617 275,139.1617 Q274.6938,139.1617 274.4375,139.293 Q274.1875,139.4242 273.9875,139.7242 Q273.7938,140.0242 273.7938,140.4367 L273.7938,140.8742 Q273.7938,141.368 274.15,141.6992 Q274.5063,142.0242 275.1438,142.0242 Q275.5188,142.0242 275.7813,141.9242 Q275.9375,141.8617 276.1063,141.6867 Q276.2125,141.5805 276.2688,141.5492 Q276.3313,141.518 276.4125,141.518 Q276.5438,141.518 276.6438,141.6242 Q276.75,141.7242 276.75,141.8617 Q276.75,141.9992 276.6125,142.1617 Q276.4125,142.393 276.0938,142.5242 Q275.6625,142.7055 275.1438,142.7055 Q274.5375,142.7055 274.0563,142.4555 Q273.6625,142.2555 273.3875,141.8305 Q273.1125,141.3992 273.1125,140.8867 L273.1125,140.4242 Q273.1125,139.893 273.3563,139.4367 Q273.6063,138.9742 274.0438,138.7305 Q274.4813,138.4805 274.975,138.4805 Q275.2688,138.4805 275.525,138.5492 Q275.7875,138.6117 276.0063,138.7555 Z " fill="#000000"/><text fill="#000000" font-family="sans-serif" font-size="5.6" lengthAdjust="spacing" textLength="113.2" x="283.1" y="142.7242">DefaultCommunicationHistoryAccessProvider</text><line style="stroke:#181818;stroke-width:0.20000000000000004;" x1="223.2" x2="443.2" y1="146.8055" y2="146.8055"/><line style="stroke:#181818;stroke-width:0.20000000000000004;" x1="223.2" x2="443.2" y1="150.0055" y2="150.0055"/><ellipse cx="227.2" cy="155.9297" fill="#84BE84" rx="1.2" ry="1.2" style="stroke:#038048;stroke-width:0.4000000000000001;"/><text fill="#000000" font-family="sans-serif" font-size="5.6" lengthAdjust="spacing" textLength="200.8" x="230.8" y="157.6484">Communication getPreviousCommunicationMessageHash(String messageHash)</text><ellipse cx="227.2" cy="163.3781" fill="#84BE84" rx="1.2" ry="1.2" style="stroke:#038048;stroke-width:0.4000000000000001;"/><text fill="#000000" font-family="sans-serif" font-size="5.6" lengthAdjust="spacing" textLength="210.4" x="230.8" y="165.0969">void storeCommunication(String workflowRunId, String userId, String messageHash)</text></g><!--class GatewayService--><g id="elem_GatewayService"><rect codeLine="28" fill="#F1F1F1" height="26.6484" id="GatewayService" rx="1" ry="1" style="stroke:#181818;stroke-width:0.20000000000000004;" width="203.2" x="59.6" y="17.2055"/><ellipse cx="139.3" cy="23.6055" fill="#B4A7E5" rx="4.4" ry="4.4" style="stroke:#181818;stroke-width:0.4000000000000001;"/><path d="M139.6813,22.2617 L139.6813,24.9242 L140.3688,24.9242 Q140.6125,24.9242 140.7188,25.018 Q140.825,25.1117 140.825,25.268 Q140.825,25.418 140.7188,25.5117 Q140.6125,25.6055 140.3688,25.6055 L138.3125,25.6055 Q138.0688,25.6055 137.9625,25.5117 Q137.8563,25.418 137.8563,25.2617 Q137.8563,25.1117 137.9625,25.018 Q138.0688,24.9242 138.3125,24.9242 L139,24.9242 L139,22.2617 L138.3125,22.2617 Q138.0688,22.2617 137.9625,22.168 Q137.8563,22.0742 137.8563,21.918 Q137.8563,21.768 137.9625,21.6742 Q138.0688,21.5805 138.3125,21.5805 L140.3688,21.5805 Q140.6125,21.5805 140.7188,21.6742 Q140.825,21.768 140.825,21.918 Q140.825,22.0742 140.7188,22.168 Q140.6125,22.2617 140.3688,22.2617 L139.6813,22.2617 Z " fill="#000000"/><text fill="#000000" font-family="sans-serif" font-size="5.6" font-style="italic" lengthAdjust="spacing" textLength="40.4" x="147.5" y="25.9242">GatewayService</text><line style="stroke:#181818;stroke-width:0.20000000000000004;" x1="60" x2="262.4" y1="30.0055" y2="30.0055"/><line style="stroke:#181818;stroke-width:0.20000000000000004;" x1="60" x2="262.4" y1="33.2055" y2="33.2055"/><ellipse cx="64" cy="39.1297" fill="#84BE84" rx="1.2" ry="1.2" style="stroke:#038048;stroke-width:0.4000000000000001;"/><text fill="#000000" font-family="sans-serif" font-size="5.6" lengthAdjust="spacing" textLength="192.8" x="67.6" y="40.8484">ResponseEntity sendCommunication(GatewayProperties gatewayProperties)</text></g><!--class CommunicationGatewayService--><g id="elem_CommunicationGatewayService"><rect codeLine="32" fill="#F1F1F1" height="26.6484" id="CommunicationGatewayService" rx="1" ry="1" style="stroke:#181818;stroke-width:0.20000000000000004;" width="205.2" x="9" y="72.0055"/><ellipse cx="70.1" cy="78.4055" fill="#ADD1B2" rx="4.4" ry="4.4" style="stroke:#181818;stroke-width:0.4000000000000001;"/><path d="M71.2063,76.7555 Q71.2688,76.668 71.3438,76.6242 Q71.4188,76.5805 71.5063,76.5805 Q71.6563,76.5805 71.75,76.6867 Q71.8438,76.7867 71.8438,77.0305 L71.8438,77.6117 Q71.8438,77.8555 71.75,77.9617 Q71.6563,78.068 71.5063,78.068 Q71.3688,78.068 71.2875,77.9867 Q71.2063,77.9117 71.1625,77.7055 Q71.1438,77.5617 71.0688,77.4867 Q70.9375,77.3367 70.6938,77.2492 Q70.45,77.1617 70.2,77.1617 Q69.8938,77.1617 69.6375,77.293 Q69.3875,77.4242 69.1875,77.7242 Q68.9938,78.0242 68.9938,78.4367 L68.9938,78.8742 Q68.9938,79.368 69.35,79.6992 Q69.7063,80.0242 70.3438,80.0242 Q70.7188,80.0242 70.9813,79.9242 Q71.1375,79.8617 71.3063,79.6867 Q71.4125,79.5805 71.4688,79.5492 Q71.5313,79.518 71.6125,79.518 Q71.7438,79.518 71.8438,79.6242 Q71.95,79.7242 71.95,79.8617 Q71.95,79.9992 71.8125,80.1617 Q71.6125,80.393 71.2938,80.5242 Q70.8625,80.7055 70.3438,80.7055 Q69.7375,80.7055 69.2563,80.4555 Q68.8625,80.2555 68.5875,79.8305 Q68.3125,79.3992 68.3125,78.8867 L68.3125,78.4242 Q68.3125,77.893 68.5563,77.4367 Q68.8063,76.9742 69.2438,76.7305 Q69.6813,76.4805 70.175,76.4805 Q70.4688,76.4805 70.725,76.5492 Q70.9875,76.6117 71.2063,76.7555 Z " fill="#000000"/><text fill="#000000" font-family="sans-serif" font-size="5.6" lengthAdjust="spacing" textLength="79.6" x="78.3" y="80.7242">CommunicationGatewayService</text><line style="stroke:#181818;stroke-width:0.20000000000000004;" x1="9.4" x2="213.8" y1="84.8055" y2="84.8055"/><line style="stroke:#181818;stroke-width:0.20000000000000004;" x1="9.4" x2="213.8" y1="88.0055" y2="88.0055"/><ellipse cx="13.4" cy="93.9297" fill="#84BE84" rx="1.2" ry="1.2" style="stroke:#038048;stroke-width:0.4000000000000001;"/><text fill="#000000" font-family="sans-serif" font-size="5.6" lengthAdjust="spacing" textLength="194.8" x="17" y="95.6484">ResponseEntity sendCommunication(GatewayProperties gatewayProperties))</text></g><!--entity gateway--><g id="elem_gateway"><rect fill="#F1F1F1" height="19.4484" rx="1" ry="1" style="stroke:#181818;stroke-width:0.20000000000000004;" width="36.8" x="8.8" y="20.8055"/><rect fill="#F1F1F1" height="4" style="stroke:#181818;stroke-width:0.20000000000000004;" width="6" x="37.6" y="22.8055"/><rect fill="#F1F1F1" height="0.8" style="stroke:#181818;stroke-width:0.20000000000000004;" width="1.6" x="36.8" y="23.6055"/><rect fill="#F1F1F1" height="0.8" style="stroke:#181818;stroke-width:0.20000000000000004;" width="1.6" x="36.8" y="25.2055"/><text fill="#000000" font-family="sans-serif" font-size="5.6" lengthAdjust="spacing" textLength="20.8" x="14.8" y="34.8484">gateway</text></g><!--reverse link CommunicationHistoryAccessProvider to DefaultCommunicationHistoryAccessProvider--><g id="link_CommunicationHistoryAccessProvider_DefaultCommunicationHistoryAccessProvider"><path d="M336.7362,109.6667 C335.9002,119.3427 335.472,124.3095 334.636,133.9735 " fill="none" id="CommunicationHistoryAccessProvider-backto-DefaultCommunicationHistoryAccessProvider" style="stroke:#181818;stroke-width:0.4000000000000001;stroke-dasharray:7.0,7.0;"/><polygon fill="none" points="337.356,102.4935,334.3451,109.4602,339.1273,109.8733,337.356,102.4935" style="stroke:#181818;stroke-width:0.4000000000000001;"/></g><!--reverse link GatewayService to CommunicationGatewayService--><g id="link_GatewayService_CommunicationGatewayService"><path d="M144.3219,49.3805 C136.5819,57.8085 131.42,63.4255 123.668,71.8655 " fill="none" id="GatewayService-backto-CommunicationGatewayService" style="stroke:#181818;stroke-width:0.4000000000000001;stroke-dasharray:7.0,7.0;"/><polygon fill="none" points="149.192,44.0775,142.5542,47.7571,146.0896,51.0039,149.192,44.0775" style="stroke:#181818;stroke-width:0.4000000000000001;"/></g><!--link CommunicationGatewayService to DefaultCommunicationHistoryAccessProvider--><g id="link_CommunicationGatewayService_DefaultCommunicationHistoryAccessProvider"><path codeLine="39" d="M156.176,98.8415 C190.776,108.9575 236.6805,122.3799 274.0525,133.3079 " fill="none" id="CommunicationGatewayService-to-DefaultCommunicationHistoryAccessProvider" style="stroke:#181818;stroke-width:0.4000000000000001;"/><polygon fill="#181818" points="276.356,133.9815,273.3497,131.4354,274.4364,133.4202,272.4516,134.5068,276.356,133.9815" style="stroke:#181818;stroke-width:0.4000000000000001;"/><text fill="#000000" font-family="sans-serif" font-size="5.2" lengthAdjust="spacing" textLength="11.2" x="229.2" y="120.4168">uses</text></g><!--link CommunicationGatewayService to GatewayHelper--><g id="link_CommunicationGatewayService_GatewayHelper"><path codeLine="40" d="M111.6,98.9175 C111.6,110.1615 111.6,123.8735 111.6,135.1135 " fill="none" id="CommunicationGatewayService-to-GatewayHelper" style="stroke:#181818;stroke-width:0.4000000000000001;"/><polygon fill="#181818" points="111.6,137.5135,113.2,133.9135,111.6,135.5135,110,133.9135,111.6,137.5135" style="stroke:#181818;stroke-width:0.4000000000000001;"/><text fill="#000000" font-family="sans-serif" font-size="5.2" lengthAdjust="spacing" textLength="11.2" x="112" y="120.4168">uses</text></g><!--SRC=[tLFDJiCm3BxlAQoTc60lm0495SHsG9gs9uXIhrXhaofEErLexuuBAKkwQUg14xb4yHVRt-UVMkc3AX3ccQsgnf1Mdgo1D-NngBevA0OT8m60pnd84QYs1es7ujV-3PncFxSk5VCGROLbZIwuzkSUTjwHAQ12Pc6nKlnn5qn7wmxxqXwtZLdd3wEFcJLUil9YIDPV93QtLneXqR8YzjPrprgBxyRPbl8HYLHwWNxZi2NRS0AyNtACQ2-YUAsb7Fgac0IuhQnXT9T2pw5FSK5VSA-Qqa_GILLTOjNNwhzMHUeoxd-OjnswbkGPgzeYoyGolXfFlWD6awTqWg-KH6RL4_8mscVBbOPaLtPaI1-r84N-d5TCB2pWBMBBvTFqINhiUy6JOYRh7lo4r1S0]--></g></svg>