<?xml version="1.0" encoding="us-ascii" standalone="no"?><svg xmlns="http://www.w3.org/2000/svg" xmlns:xlink="http://www.w3.org/1999/xlink" contentStyleType="text/css" height="518px" preserveAspectRatio="none" style="width:1381px;height:518px;background:#FFFFFF;" version="1.1" viewBox="0 0 1381 518" width="1381px" zoomAndPan="magnify"><defs/><g><!--cluster communicationGateway--><g id="cluster_communicationGateway"><path d="M8.5,6.0137 L180.5,6.0137 A3.75,3.75 0 0 1 183,8.5137 L190,30.6348 L1371.5,30.6348 A2.5,2.5 0 0 1 1374,33.1348 L1374,508.5137 A2.5,2.5 0 0 1 1371.5,511.0137 L8.5,511.0137 A2.5,2.5 0 0 1 6,508.5137 L6,8.5137 A2.5,2.5 0 0 1 8.5,6.0137 " fill="none" style="stroke:#000000;stroke-width:1.5;"/><line style="stroke:#000000;stroke-width:1.5;" x1="6" x2="190" y1="30.6348" y2="30.6348"/><text fill="#000000" font-family="sans-serif" font-size="14" font-weight="bold" lengthAdjust="spacing" textLength="171" x="10" y="23.1211">Communication Gateway</text></g><!--class HashHelper--><g id="elem_HashHelper"><rect codeLine="10" fill="#F1F1F1" height="66.6211" id="HashHelper" rx="2.5" ry="2.5" style="stroke:#181818;stroke-width:0.5;" width="460" x="641" y="391.0137"/><ellipse cx="830.25" cy="407.0137" fill="#ADD1B2" rx="11" ry="11" style="stroke:#181818;stroke-width:1.0;"/><path d="M833.0156,402.8887 Q833.1719,402.6699 833.3594,402.5605 Q833.5469,402.4512 833.7656,402.4512 Q834.1406,402.4512 834.375,402.7168 Q834.6094,402.9668 834.6094,403.5762 L834.6094,405.0293 Q834.6094,405.6387 834.375,405.9043 Q834.1406,406.1699 833.7656,406.1699 Q833.4219,406.1699 833.2188,405.9668 Q833.0156,405.7793 832.9063,405.2637 Q832.8594,404.9043 832.6719,404.7168 Q832.3438,404.3418 831.7344,404.123 Q831.125,403.9043 830.5,403.9043 Q829.7344,403.9043 829.0938,404.2324 Q828.4688,404.5605 827.9688,405.3105 Q827.4844,406.0605 827.4844,407.0918 L827.4844,408.1855 Q827.4844,409.4199 828.375,410.248 Q829.2656,411.0605 830.8594,411.0605 Q831.7969,411.0605 832.4531,410.8105 Q832.8438,410.6543 833.2656,410.2168 Q833.5313,409.9512 833.6719,409.873 Q833.8281,409.7949 834.0313,409.7949 Q834.3594,409.7949 834.6094,410.0605 Q834.875,410.3105 834.875,410.6543 Q834.875,410.998 834.5313,411.4043 Q834.0313,411.9824 833.2344,412.3105 Q832.1563,412.7637 830.8594,412.7637 Q829.3438,412.7637 828.1406,412.1387 Q827.1563,411.6387 826.4688,410.5762 Q825.7813,409.498 825.7813,408.2168 L825.7813,407.0605 Q825.7813,405.7324 826.3906,404.5918 Q827.0156,403.4355 828.1094,402.8262 Q829.2031,402.2012 830.4375,402.2012 Q831.1719,402.2012 831.8125,402.373 Q832.4688,402.5293 833.0156,402.8887 Z " fill="#000000"/><text fill="#000000" font-family="sans-serif" font-size="14" lengthAdjust="spacing" textLength="73" x="850.75" y="412.8105">HashHelper</text><line style="stroke:#181818;stroke-width:0.5;" x1="642" x2="1100" y1="423.0137" y2="423.0137"/><line style="stroke:#181818;stroke-width:0.5;" x1="642" x2="1100" y1="431.0137" y2="431.0137"/><ellipse cx="652" cy="445.8242" fill="#84BE84" rx="3" ry="3" style="stroke:#038048;stroke-width:1.0;"/><text fill="#000000" font-family="sans-serif" font-size="14" lengthAdjust="spacing" textLength="434" x="661" y="450.1211">String messageHash(String workflowRunId, String messageContents)</text></g><!--class CommunicationHistoryAccessProvider--><g id="elem_CommunicationHistoryAccessProvider"><rect codeLine="14" fill="#F1F1F1" height="103.8633" id="CommunicationHistoryAccessProvider" rx="2.5" ry="2.5" style="stroke:#181818;stroke-width:0.5;" width="571" x="25.5" y="171.0137"/><ellipse cx="187.75" cy="187.0137" fill="#B4A7E5" rx="11" ry="11" style="stroke:#181818;stroke-width:1.0;"/><path d="M188.7031,183.6543 L188.7031,190.3105 L190.4219,190.3105 Q191.0313,190.3105 191.2969,190.5449 Q191.5625,190.7793 191.5625,191.1699 Q191.5625,191.5449 191.2969,191.7793 Q191.0313,192.0137 190.4219,192.0137 L185.2813,192.0137 Q184.6719,192.0137 184.4063,191.7793 Q184.1406,191.5449 184.1406,191.1543 Q184.1406,190.7793 184.4063,190.5449 Q184.6719,190.3105 185.2813,190.3105 L187,190.3105 L187,183.6543 L185.2813,183.6543 Q184.6719,183.6543 184.4063,183.4199 Q184.1406,183.1855 184.1406,182.7949 Q184.1406,182.4199 184.4063,182.1855 Q184.6719,181.9512 185.2813,181.9512 L190.4219,181.9512 Q191.0313,181.9512 191.2969,182.1855 Q191.5625,182.4199 191.5625,182.7949 Q191.5625,183.1855 191.2969,183.4199 Q191.0313,183.6543 190.4219,183.6543 L188.7031,183.6543 Z " fill="#000000"/><text fill="#000000" font-family="sans-serif" font-size="14" font-style="italic" lengthAdjust="spacing" textLength="238" x="208.25" y="192.8105">CommunicationHistoryAccessProvider</text><line style="stroke:#181818;stroke-width:0.5;" x1="26.5" x2="595.5" y1="203.0137" y2="203.0137"/><line style="stroke:#181818;stroke-width:0.5;" x1="26.5" x2="595.5" y1="211.0137" y2="211.0137"/><ellipse cx="36.5" cy="225.8242" fill="#84BE84" rx="3" ry="3" style="stroke:#038048;stroke-width:1.0;"/><text fill="#000000" font-family="sans-serif" font-size="14" lengthAdjust="spacing" textLength="545" x="45.5" y="230.1211">CommunicationHistory getPreviousCommunicationMessageHash(String messageHash)</text><ellipse cx="36.5" cy="244.4453" fill="#84BE84" rx="3" ry="3" style="stroke:#038048;stroke-width:1.0;"/><text fill="#000000" font-family="sans-serif" font-size="14" lengthAdjust="spacing" textLength="462" x="45.5" y="248.7422">void removeCommunicationHistoryByMessageHash(String messageHash)</text><ellipse cx="36.5" cy="263.0664" fill="#84BE84" rx="3" ry="3" style="stroke:#038048;stroke-width:1.0;"/><text fill="#000000" font-family="sans-serif" font-size="14" lengthAdjust="spacing" textLength="526" x="45.5" y="267.3633">void storeCommunication(String workflowRunId, String userId, String messageHash)</text></g><!--class DefaultCommunicationHistoryAccessProvider--><g id="elem_DefaultCommunicationHistoryAccessProvider"><rect codeLine="20" fill="#F1F1F1" height="141.1055" id="DefaultCommunicationHistoryAccessProvider" rx="2.5" ry="2.5" style="stroke:#181818;stroke-width:0.5;" width="583" x="22.5" y="354.0137"/><ellipse cx="168.25" cy="370.0137" fill="#ADD1B2" rx="11" ry="11" style="stroke:#181818;stroke-width:1.0;"/><path d="M171.0156,365.8887 Q171.1719,365.6699 171.3594,365.5605 Q171.5469,365.4512 171.7656,365.4512 Q172.1406,365.4512 172.375,365.7168 Q172.6094,365.9668 172.6094,366.5762 L172.6094,368.0293 Q172.6094,368.6387 172.375,368.9043 Q172.1406,369.1699 171.7656,369.1699 Q171.4219,369.1699 171.2188,368.9668 Q171.0156,368.7793 170.9063,368.2637 Q170.8594,367.9043 170.6719,367.7168 Q170.3438,367.3418 169.7344,367.123 Q169.125,366.9043 168.5,366.9043 Q167.7344,366.9043 167.0938,367.2324 Q166.4688,367.5605 165.9688,368.3105 Q165.4844,369.0605 165.4844,370.0918 L165.4844,371.1855 Q165.4844,372.4199 166.375,373.248 Q167.2656,374.0605 168.8594,374.0605 Q169.7969,374.0605 170.4531,373.8105 Q170.8438,373.6543 171.2656,373.2168 Q171.5313,372.9512 171.6719,372.873 Q171.8281,372.7949 172.0313,372.7949 Q172.3594,372.7949 172.6094,373.0605 Q172.875,373.3105 172.875,373.6543 Q172.875,373.998 172.5313,374.4043 Q172.0313,374.9824 171.2344,375.3105 Q170.1563,375.7637 168.8594,375.7637 Q167.3438,375.7637 166.1406,375.1387 Q165.1563,374.6387 164.4688,373.5762 Q163.7813,372.498 163.7813,371.2168 L163.7813,370.0605 Q163.7813,368.7324 164.3906,367.5918 Q165.0156,366.4355 166.1094,365.8262 Q167.2031,365.2012 168.4375,365.2012 Q169.1719,365.2012 169.8125,365.373 Q170.4688,365.5293 171.0156,365.8887 Z " fill="#000000"/><text fill="#000000" font-family="sans-serif" font-size="14" lengthAdjust="spacing" textLength="283" x="188.75" y="375.8105">DefaultCommunicationHistoryAccessProvider</text><line style="stroke:#181818;stroke-width:0.5;" x1="23.5" x2="604.5" y1="386.0137" y2="386.0137"/><rect fill="none" height="6" style="stroke:#C82930;stroke-width:1.0;" width="6" x="30.5" y="397.8242"/><text fill="#000000" font-family="sans-serif" font-size="14" lengthAdjust="spacing" textLength="290" x="42.5" y="405.1211">DynamoDbAsyncClient dynamoDbAsyncClient</text><rect fill="none" height="6" style="stroke:#C82930;stroke-width:1.0;" width="6" x="30.5" y="416.4453"/><text fill="#000000" font-family="sans-serif" font-size="14" lengthAdjust="spacing" textLength="557" x="42.5" y="423.7422">DefaultCommunicationHistoryAccessProviderProperties historyAccessProviderProperties</text><line style="stroke:#181818;stroke-width:0.5;" x1="23.5" x2="604.5" y1="431.2559" y2="431.2559"/><ellipse cx="33.5" cy="446.0664" fill="#84BE84" rx="3" ry="3" style="stroke:#038048;stroke-width:1.0;"/><text fill="#000000" font-family="sans-serif" font-size="14" lengthAdjust="spacing" textLength="502" x="42.5" y="450.3633">Communication getPreviousCommunicationMessageHash(String messageHash)</text><ellipse cx="33.5" cy="464.6875" fill="#84BE84" rx="3" ry="3" style="stroke:#038048;stroke-width:1.0;"/><text fill="#000000" font-family="sans-serif" font-size="14" lengthAdjust="spacing" textLength="526" x="42.5" y="468.9844">void storeCommunication(String workflowRunId, String userId, String messageHash)</text><ellipse cx="33.5" cy="483.3086" fill="#84BE84" rx="3" ry="3" style="stroke:#038048;stroke-width:1.0;"/><text fill="#000000" font-family="sans-serif" font-size="14" lengthAdjust="spacing" textLength="462" x="42.5" y="487.6055">void removeCommunicationHistoryByMessageHash(String messageHash)</text></g><!--class GatewayService--><g id="elem_GatewayService"><rect codeLine="28" fill="#F1F1F1" height="66.6211" id="GatewayService" rx="2.5" ry="2.5" style="stroke:#181818;stroke-width:0.5;" width="764" x="567" y="43.0137"/><ellipse cx="847.75" cy="59.0137" fill="#B4A7E5" rx="11" ry="11" style="stroke:#181818;stroke-width:1.0;"/><path d="M848.7031,55.6543 L848.7031,62.3105 L850.4219,62.3105 Q851.0313,62.3105 851.2969,62.5449 Q851.5625,62.7793 851.5625,63.1699 Q851.5625,63.5449 851.2969,63.7793 Q851.0313,64.0137 850.4219,64.0137 L845.2813,64.0137 Q844.6719,64.0137 844.4063,63.7793 Q844.1406,63.5449 844.1406,63.1543 Q844.1406,62.7793 844.4063,62.5449 Q844.6719,62.3105 845.2813,62.3105 L847,62.3105 L847,55.6543 L845.2813,55.6543 Q844.6719,55.6543 844.4063,55.4199 Q844.1406,55.1855 844.1406,54.7949 Q844.1406,54.4199 844.4063,54.1855 Q844.6719,53.9512 845.2813,53.9512 L850.4219,53.9512 Q851.0313,53.9512 851.2969,54.1855 Q851.5625,54.4199 851.5625,54.7949 Q851.5625,55.1855 851.2969,55.4199 Q851.0313,55.6543 850.4219,55.6543 L848.7031,55.6543 Z " fill="#000000"/><text fill="#000000" font-family="sans-serif" font-size="14" font-style="italic" lengthAdjust="spacing" textLength="101" x="868.25" y="64.8105">GatewayService</text><rect fill="#FFFFFF" height="17.9609" style="stroke:#181818;stroke-width:1.0;stroke-dasharray:2.0,2.0;" width="91" x="1243" y="40.0137"/><text fill="#000000" font-family="sans-serif" font-size="12" font-style="italic" lengthAdjust="spacing" textLength="89" x="1244" y="53.9629">TUser, TContent</text><line style="stroke:#181818;stroke-width:0.5;" x1="568" x2="1330" y1="75.0137" y2="75.0137"/><line style="stroke:#181818;stroke-width:0.5;" x1="568" x2="1330" y1="83.0137" y2="83.0137"/><ellipse cx="578" cy="97.8242" fill="#84BE84" rx="3" ry="3" style="stroke:#038048;stroke-width:1.0;"/><text fill="#000000" font-family="sans-serif" font-size="14" lengthAdjust="spacing" textLength="738" x="587" y="102.1211">ResponseEntity&lt;GatewayResponse&gt; sendCommunication(GatewayProperties&lt;TUser, TContent&gt; gatewayProperties)</text></g><!--class GatewayResponse--><g id="elem_GatewayResponse"><rect codeLine="32" fill="#F1F1F1" height="122.4844" id="GatewayResponse" rx="2.5" ry="2.5" style="stroke:#181818;stroke-width:0.5;" width="222" x="1136" y="363.5137"/><ellipse cx="1183.25" cy="379.5137" fill="#ADD1B2" rx="11" ry="11" style="stroke:#181818;stroke-width:1.0;"/><path d="M1186.0156,375.3887 Q1186.1719,375.1699 1186.3594,375.0605 Q1186.5469,374.9512 1186.7656,374.9512 Q1187.1406,374.9512 1187.375,375.2168 Q1187.6094,375.4668 1187.6094,376.0762 L1187.6094,377.5293 Q1187.6094,378.1387 1187.375,378.4043 Q1187.1406,378.6699 1186.7656,378.6699 Q1186.4219,378.6699 1186.2188,378.4668 Q1186.0156,378.2793 1185.9063,377.7637 Q1185.8594,377.4043 1185.6719,377.2168 Q1185.3438,376.8418 1184.7344,376.623 Q1184.125,376.4043 1183.5,376.4043 Q1182.7344,376.4043 1182.0938,376.7324 Q1181.4688,377.0605 1180.9688,377.8105 Q1180.4844,378.5605 1180.4844,379.5918 L1180.4844,380.6855 Q1180.4844,381.9199 1181.375,382.748 Q1182.2656,383.5605 1183.8594,383.5605 Q1184.7969,383.5605 1185.4531,383.3105 Q1185.8438,383.1543 1186.2656,382.7168 Q1186.5313,382.4512 1186.6719,382.373 Q1186.8281,382.2949 1187.0313,382.2949 Q1187.3594,382.2949 1187.6094,382.5605 Q1187.875,382.8105 1187.875,383.1543 Q1187.875,383.498 1187.5313,383.9043 Q1187.0313,384.4824 1186.2344,384.8105 Q1185.1563,385.2637 1183.8594,385.2637 Q1182.3438,385.2637 1181.1406,384.6387 Q1180.1563,384.1387 1179.4688,383.0762 Q1178.7813,381.998 1178.7813,380.7168 L1178.7813,379.5605 Q1178.7813,378.2324 1179.3906,377.0918 Q1180.0156,375.9355 1181.1094,375.3262 Q1182.2031,374.7012 1183.4375,374.7012 Q1184.1719,374.7012 1184.8125,374.873 Q1185.4688,375.0293 1186.0156,375.3887 Z " fill="#000000"/><text fill="#000000" font-family="sans-serif" font-size="14" lengthAdjust="spacing" textLength="119" x="1203.75" y="385.3105">GatewayResponse</text><line style="stroke:#181818;stroke-width:0.5;" x1="1137" x2="1357" y1="395.5137" y2="395.5137"/><rect fill="none" height="6" style="stroke:#C82930;stroke-width:1.0;" width="6" x="1144" y="407.3242"/><text fill="#000000" font-family="sans-serif" font-size="14" lengthAdjust="spacing" textLength="80" x="1156" y="414.6211">String userId</text><rect fill="none" height="6" style="stroke:#C82930;stroke-width:1.0;" width="6" x="1144" y="425.9453"/><text fill="#000000" font-family="sans-serif" font-size="14" lengthAdjust="spacing" textLength="130" x="1156" y="433.2422">String messageHash</text><rect fill="none" height="6" style="stroke:#C82930;stroke-width:1.0;" width="6" x="1144" y="444.5664"/><text fill="#000000" font-family="sans-serif" font-size="14" lengthAdjust="spacing" textLength="129" x="1156" y="451.8633">String errorMessage</text><line style="stroke:#181818;stroke-width:0.5;" x1="1137" x2="1357" y1="459.377" y2="459.377"/><ellipse cx="1147" cy="474.1875" fill="#84BE84" rx="3" ry="3" style="stroke:#038048;stroke-width:1.0;"/><text fill="#000000" font-family="sans-serif" font-size="14" lengthAdjust="spacing" textLength="196" x="1156" y="478.4844">Standard Getters and Setters()</text></g><!--class CommunicationGatewayService--><g id="elem_CommunicationGatewayService"><rect codeLine="39" fill="#F1F1F1" height="66.6211" id="CommunicationGatewayService" rx="2.5" ry="2.5" style="stroke:#181818;stroke-width:0.5;" width="634" x="632" y="189.5137"/><ellipse cx="752.75" cy="205.5137" fill="#ADD1B2" rx="11" ry="11" style="stroke:#181818;stroke-width:1.0;"/><path d="M755.5156,201.3887 Q755.6719,201.1699 755.8594,201.0605 Q756.0469,200.9512 756.2656,200.9512 Q756.6406,200.9512 756.875,201.2168 Q757.1094,201.4668 757.1094,202.0762 L757.1094,203.5293 Q757.1094,204.1387 756.875,204.4043 Q756.6406,204.6699 756.2656,204.6699 Q755.9219,204.6699 755.7188,204.4668 Q755.5156,204.2793 755.4063,203.7637 Q755.3594,203.4043 755.1719,203.2168 Q754.8438,202.8418 754.2344,202.623 Q753.625,202.4043 753,202.4043 Q752.2344,202.4043 751.5938,202.7324 Q750.9688,203.0605 750.4688,203.8105 Q749.9844,204.5605 749.9844,205.5918 L749.9844,206.6855 Q749.9844,207.9199 750.875,208.748 Q751.7656,209.5605 753.3594,209.5605 Q754.2969,209.5605 754.9531,209.3105 Q755.3438,209.1543 755.7656,208.7168 Q756.0313,208.4512 756.1719,208.373 Q756.3281,208.2949 756.5313,208.2949 Q756.8594,208.2949 757.1094,208.5605 Q757.375,208.8105 757.375,209.1543 Q757.375,209.498 757.0313,209.9043 Q756.5313,210.4824 755.7344,210.8105 Q754.6563,211.2637 753.3594,211.2637 Q751.8438,211.2637 750.6406,210.6387 Q749.6563,210.1387 748.9688,209.0762 Q748.2813,207.998 748.2813,206.7168 L748.2813,205.5605 Q748.2813,204.2324 748.8906,203.0918 Q749.5156,201.9355 750.6094,201.3262 Q751.7031,200.7012 752.9375,200.7012 Q753.6719,200.7012 754.3125,200.873 Q754.9688,201.0293 755.5156,201.3887 Z " fill="#000000"/><text fill="#000000" font-family="sans-serif" font-size="14" lengthAdjust="spacing" textLength="199" x="773.25" y="211.3105">CommunicationGatewayService</text><rect fill="#FFFFFF" height="17.9609" style="stroke:#181818;stroke-width:1.0;stroke-dasharray:2.0,2.0;" width="183" x="1086" y="186.5137"/><text fill="#000000" font-family="sans-serif" font-size="12" font-style="italic" lengthAdjust="spacing" textLength="181" x="1087" y="200.4629">TUser, TContent extends Content</text><line style="stroke:#181818;stroke-width:0.5;" x1="633" x2="1265" y1="221.5137" y2="221.5137"/><line style="stroke:#181818;stroke-width:0.5;" x1="633" x2="1265" y1="229.5137" y2="229.5137"/><ellipse cx="643" cy="244.3242" fill="#84BE84" rx="3" ry="3" style="stroke:#038048;stroke-width:1.0;"/><text fill="#000000" font-family="sans-serif" font-size="14" lengthAdjust="spacing" textLength="608" x="652" y="248.6211">ResponseEntity sendCommunication(GatewayProperties&lt;TUser, TContent&gt; gatewayProperties))</text></g><!--entity gateway--><g id="elem_gateway"><rect fill="#F1F1F1" height="48.6211" rx="2.5" ry="2.5" style="stroke:#181818;stroke-width:0.5;" width="92" x="233" y="52.0137"/><rect fill="#F1F1F1" height="10" style="stroke:#181818;stroke-width:0.5;" width="15" x="305" y="57.0137"/><rect fill="#F1F1F1" height="2" style="stroke:#181818;stroke-width:0.5;" width="4" x="303" y="59.0137"/><rect fill="#F1F1F1" height="2" style="stroke:#181818;stroke-width:0.5;" width="4" x="303" y="63.0137"/><text fill="#000000" font-family="sans-serif" font-size="14" lengthAdjust="spacing" textLength="52" x="248" y="87.1211">gateway</text></g><!--reverse link CommunicationHistoryAccessProvider to DefaultCommunicationHistoryAccessProvider--><g id="link_CommunicationHistoryAccessProvider_DefaultCommunicationHistoryAccessProvider"><path d="M312.0412,293.1316 C312.4012,317.0216 312.56,327.8537 312.95,353.7237 " fill="none" id="CommunicationHistoryAccessProvider-backto-DefaultCommunicationHistoryAccessProvider" style="stroke:#181818;stroke-width:1.0;stroke-dasharray:7.0,7.0;"/><polygon fill="none" points="311.77,275.1337,306.0419,293.222,318.0405,293.0412,311.77,275.1337" style="stroke:#181818;stroke-width:1.0;"/></g><!--reverse link GatewayService to CommunicationGatewayService--><g id="link_GatewayService_CommunicationGatewayService"><path d="M949,128.3037 C949,151.9537 949,165.7337 949,189.3537 " fill="none" id="GatewayService-backto-CommunicationGatewayService" style="stroke:#181818;stroke-width:1.0;stroke-dasharray:7.0,7.0;"/><polygon fill="none" points="949,110.3037,943,128.3037,955,128.3037,949,110.3037" style="stroke:#181818;stroke-width:1.0;"/></g><!--link CommunicationGatewayService to DefaultCommunicationHistoryAccessProvider--><g id="link_CommunicationGatewayService_DefaultCommunicationHistoryAccessProvider"><path codeLine="44" d="M845.21,256.6237 C761.43,282.9437 646.3242,319.1054 541.0542,352.1754 " fill="none" id="CommunicationGatewayService-to-DefaultCommunicationHistoryAccessProvider" style="stroke:#181818;stroke-width:1.0;"/><polygon fill="#181818" points="535.33,353.9737,545.1151,355.0925,540.1002,352.4752,542.7175,347.4602,535.33,353.9737" style="stroke:#181818;stroke-width:1.0;"/><text fill="#000000" font-family="sans-serif" font-size="13" lengthAdjust="spacing" textLength="28" x="689" y="320.042">uses</text></g><!--link CommunicationGatewayService to HashHelper--><g id="link_CommunicationGatewayService_HashHelper"><path codeLine="45" d="M936.12,256.9537 C921.62,294.0337 900.4047,348.3056 885.9547,385.2656 " fill="none" id="CommunicationGatewayService-to-HashHelper" style="stroke:#181818;stroke-width:1.0;"/><polygon fill="#181818" points="883.77,390.8537,890.7725,383.928,885.5906,386.1969,883.3217,381.015,883.77,390.8537" style="stroke:#181818;stroke-width:1.0;"/><text fill="#000000" font-family="sans-serif" font-size="13" lengthAdjust="spacing" textLength="28" x="917" y="320.042">uses</text></g><!--link CommunicationGatewayService to GatewayResponse--><g id="link_CommunicationGatewayService_GatewayResponse"><path codeLine="46" d="M997.87,256.7337 C1040.97,285.5837 1099.8839,325.0262 1152.1739,360.0262 " fill="none" id="CommunicationGatewayService-to-GatewayResponse" style="stroke:#181818;stroke-width:1.0;"/><polygon fill="#181818" points="1157.16,363.3637,1151.9058,355.0334,1153.0049,360.5825,1147.4558,361.6816,1157.16,363.3637" style="stroke:#181818;stroke-width:1.0;"/><text fill="#000000" font-family="sans-serif" font-size="13" lengthAdjust="spacing" textLength="40" x="1099" y="320.042">returns</text></g><!--SRC=[hLLBRi8m4DrpYX4hKE42225HgA2BIWZe0Tnu21Q97NcSqAZYxdMAQRwW8CMRYUVdcJUVHCmxCH-Xlr1X64lXCIEKX1KpU6Pf7nY1LvGu0Vpqm1uhYfH4QS3_v_y9BhqhzG9616j6npK64MfdbvqNs1ajf0yX4jaGCgM1OvsLFXq2TTx6yfsFAeeB9OrzaeQtbp8YB4yVc8TGIcGjo2YTpZtFscwqIWIl1D6a3ZwQZSP4g9XAyezwg8NeXmMtYH8SD8OgmQONNjCdNMLMPK-FiOe9THswtFMbM9yb7bWSc1R8YJ0ACCpGVmxdCInJoKAr_9fJAhr58BAcuNLUqQ9jL9RQrZ822OwFvVVgtbN1kwvIXxrKcnCtoJlKYR3NwVxJ1ZE2lHklMN58jaXspWdVf14cdJhJ6tS6X9ANqtOgEVGr_xULaQiqT6RbfL97bJ2iymi8r8MejT8Ejj96Of8ppM65nk94OA-mktuF6i9RDAn61sWrNy1lItXcu_8lp5Ab5lUXxmhfOMbBFqW3nkDP-qcSPDMWLZxpVy8JHfLscDYfCB6MrBEP_080]--></g></svg>