<?xml version="1.0" encoding="us-ascii" standalone="no"?><svg xmlns="http://www.w3.org/2000/svg" xmlns:xlink="http://www.w3.org/1999/xlink" contentStyleType="text/css" height="401.6px" preserveAspectRatio="none" style="width:491px;height:401px;background:#FFFFFF;" version="1.1" viewBox="0 0 491 401" width="491.2px" zoomAndPan="magnify"><defs/><g><!--cluster communicationGateway--><g id="cluster_communicationGateway"><path d="M3.4,2.4055 L72.2,2.4055 A1.5,1.5 0 0 1 73.2,3.4055 L76,12.2539 L487.4,12.2539 A1,1 0 0 1 488.4,13.2539 L488.4,397.8055 A1,1 0 0 1 487.4,398.8055 L3.4,398.8055 A1,1 0 0 1 2.4,397.8055 L2.4,3.4055 A1,1 0 0 1 3.4,2.4055 " fill="none" style="stroke:#000000;stroke-width:0.6000000000000001;"/><line style="stroke:#000000;stroke-width:0.6000000000000001;" x1="2.4" x2="76" y1="12.2539" y2="12.2539"/><text fill="#000000" font-family="sans-serif" font-size="5.6" font-weight="bold" lengthAdjust="spacing" textLength="68.4" x="4" y="9.2484">Communication Gateway</text></g><!--class GatewayHelper--><g id="elem_GatewayHelper"><rect codeLine="8" fill="#F1F1F1" height="26.6484" id="GatewayHelper" rx="1" ry="1" style="stroke:#181818;stroke-width:0.20000000000000004;" width="184" x="133.6" y="365.6055"/><ellipse cx="204.7" cy="372.0055" fill="#ADD1B2" rx="4.4" ry="4.4" style="stroke:#181818;stroke-width:0.4000000000000001;"/><path d="M205.8063,370.3555 Q205.8688,370.268 205.9438,370.2242 Q206.0188,370.1805 206.1063,370.1805 Q206.2563,370.1805 206.35,370.2867 Q206.4438,370.3867 206.4438,370.6305 L206.4438,371.2117 Q206.4438,371.4555 206.35,371.5617 Q206.2563,371.668 206.1063,371.668 Q205.9688,371.668 205.8875,371.5867 Q205.8063,371.5117 205.7625,371.3055 Q205.7438,371.1617 205.6688,371.0867 Q205.5375,370.9367 205.2938,370.8492 Q205.05,370.7617 204.8,370.7617 Q204.4938,370.7617 204.2375,370.893 Q203.9875,371.0242 203.7875,371.3242 Q203.5938,371.6242 203.5938,372.0367 L203.5938,372.4742 Q203.5938,372.968 203.95,373.2992 Q204.3063,373.6242 204.9438,373.6242 Q205.3188,373.6242 205.5813,373.5242 Q205.7375,373.4617 205.9063,373.2867 Q206.0125,373.1805 206.0688,373.1492 Q206.1313,373.118 206.2125,373.118 Q206.3438,373.118 206.4438,373.2242 Q206.55,373.3242 206.55,373.4617 Q206.55,373.5992 206.4125,373.7617 Q206.2125,373.993 205.8938,374.1242 Q205.4625,374.3055 204.9438,374.3055 Q204.3375,374.3055 203.8563,374.0555 Q203.4625,373.8555 203.1875,373.4305 Q202.9125,372.9992 202.9125,372.4867 L202.9125,372.0242 Q202.9125,371.493 203.1563,371.0367 Q203.4063,370.5742 203.8438,370.3305 Q204.2813,370.0805 204.775,370.0805 Q205.0688,370.0805 205.325,370.1492 Q205.5875,370.2117 205.8063,370.3555 Z " fill="#000000"/><text fill="#000000" font-family="sans-serif" font-size="5.6" lengthAdjust="spacing" textLength="38.4" x="212.9" y="374.3242">GatewayHelper</text><line style="stroke:#181818;stroke-width:0.20000000000000004;" x1="134" x2="317.2" y1="378.4055" y2="378.4055"/><line style="stroke:#181818;stroke-width:0.20000000000000004;" x1="134" x2="317.2" y1="381.6055" y2="381.6055"/><ellipse cx="138" cy="387.5297" fill="#84BE84" rx="1.2" ry="1.2" style="stroke:#038048;stroke-width:0.4000000000000001;"/><text fill="#000000" font-family="sans-serif" font-size="5.6" lengthAdjust="spacing" textLength="173.6" x="141.6" y="389.2484">String messageHash(String workflowRunId, String messageContents)</text></g><!--class GatewayService--><g id="elem_GatewayService"><rect codeLine="13" fill="#F1F1F1" height="26.6484" id="GatewayService" rx="1" ry="1" style="stroke:#181818;stroke-width:0.20000000000000004;" width="203.2" x="240" y="248.8055"/><ellipse cx="319.7" cy="255.2055" fill="#B4A7E5" rx="4.4" ry="4.4" style="stroke:#181818;stroke-width:0.4000000000000001;"/><path d="M320.0813,253.8617 L320.0813,256.5242 L320.7688,256.5242 Q321.0125,256.5242 321.1188,256.618 Q321.225,256.7117 321.225,256.868 Q321.225,257.018 321.1188,257.1117 Q321.0125,257.2055 320.7688,257.2055 L318.7125,257.2055 Q318.4688,257.2055 318.3625,257.1117 Q318.2563,257.018 318.2563,256.8617 Q318.2563,256.7117 318.3625,256.618 Q318.4688,256.5242 318.7125,256.5242 L319.4,256.5242 L319.4,253.8617 L318.7125,253.8617 Q318.4688,253.8617 318.3625,253.768 Q318.2563,253.6742 318.2563,253.518 Q318.2563,253.368 318.3625,253.2742 Q318.4688,253.1805 318.7125,253.1805 L320.7688,253.1805 Q321.0125,253.1805 321.1188,253.2742 Q321.225,253.368 321.225,253.518 Q321.225,253.6742 321.1188,253.768 Q321.0125,253.8617 320.7688,253.8617 L320.0813,253.8617 Z " fill="#000000"/><text fill="#000000" font-family="sans-serif" font-size="5.6" font-style="italic" lengthAdjust="spacing" textLength="40.4" x="327.9" y="257.5242">GatewayService</text><line style="stroke:#181818;stroke-width:0.20000000000000004;" x1="240.4" x2="442.8" y1="261.6055" y2="261.6055"/><line style="stroke:#181818;stroke-width:0.20000000000000004;" x1="240.4" x2="442.8" y1="264.8055" y2="264.8055"/><ellipse cx="244.4" cy="270.7297" fill="#84BE84" rx="1.2" ry="1.2" style="stroke:#038048;stroke-width:0.4000000000000001;"/><text fill="#000000" font-family="sans-serif" font-size="5.6" lengthAdjust="spacing" textLength="192.8" x="248" y="272.4484">ResponseEntity sendCommunication(GatewayProperties gatewayProperties)</text></g><!--class CommunicationGatewayService--><g id="elem_CommunicationGatewayService"><rect codeLine="17" fill="#F1F1F1" height="26.6484" id="CommunicationGatewayService" rx="1" ry="1" style="stroke:#181818;stroke-width:0.20000000000000004;" width="205.2" x="123" y="307.2055"/><ellipse cx="184.1" cy="313.6055" fill="#ADD1B2" rx="4.4" ry="4.4" style="stroke:#181818;stroke-width:0.4000000000000001;"/><path d="M185.2063,311.9555 Q185.2688,311.868 185.3438,311.8242 Q185.4188,311.7805 185.5063,311.7805 Q185.6563,311.7805 185.75,311.8867 Q185.8438,311.9867 185.8438,312.2305 L185.8438,312.8117 Q185.8438,313.0555 185.75,313.1617 Q185.6563,313.268 185.5063,313.268 Q185.3688,313.268 185.2875,313.1867 Q185.2063,313.1117 185.1625,312.9055 Q185.1438,312.7617 185.0688,312.6867 Q184.9375,312.5367 184.6938,312.4492 Q184.45,312.3617 184.2,312.3617 Q183.8938,312.3617 183.6375,312.493 Q183.3875,312.6242 183.1875,312.9242 Q182.9938,313.2242 182.9938,313.6367 L182.9938,314.0742 Q182.9938,314.568 183.35,314.8992 Q183.7063,315.2242 184.3438,315.2242 Q184.7188,315.2242 184.9813,315.1242 Q185.1375,315.0617 185.3063,314.8867 Q185.4125,314.7805 185.4688,314.7492 Q185.5313,314.718 185.6125,314.718 Q185.7438,314.718 185.8438,314.8242 Q185.95,314.9242 185.95,315.0617 Q185.95,315.1992 185.8125,315.3617 Q185.6125,315.593 185.2938,315.7242 Q184.8625,315.9055 184.3438,315.9055 Q183.7375,315.9055 183.2563,315.6555 Q182.8625,315.4555 182.5875,315.0305 Q182.3125,314.5992 182.3125,314.0867 L182.3125,313.6242 Q182.3125,313.093 182.5563,312.6367 Q182.8063,312.1742 183.2438,311.9305 Q183.6813,311.6805 184.175,311.6805 Q184.4688,311.6805 184.725,311.7492 Q184.9875,311.8117 185.2063,311.9555 Z " fill="#000000"/><text fill="#000000" font-family="sans-serif" font-size="5.6" lengthAdjust="spacing" textLength="79.6" x="192.3" y="315.9242">CommunicationGatewayService</text><line style="stroke:#181818;stroke-width:0.20000000000000004;" x1="123.4" x2="327.8" y1="320.0055" y2="320.0055"/><line style="stroke:#181818;stroke-width:0.20000000000000004;" x1="123.4" x2="327.8" y1="323.2055" y2="323.2055"/><ellipse cx="127.4" cy="329.1297" fill="#84BE84" rx="1.2" ry="1.2" style="stroke:#038048;stroke-width:0.4000000000000001;"/><text fill="#000000" font-family="sans-serif" font-size="5.6" lengthAdjust="spacing" textLength="194.8" x="131" y="330.8484">ResponseEntity sendCommunication(GatewayProperties gatewayProperties))</text></g><!--class GetUserWithContent--><g id="elem_GetUserWithContent"><rect codeLine="20" fill="#F1F1F1" height="26.6484" id="GetUserWithContent" rx="1" ry="1" style="stroke:#181818;stroke-width:0.20000000000000004;" width="172.4" x="309.4" y="70.0055"/><ellipse cx="348.9" cy="76.4055" fill="#B4A7E5" rx="4.4" ry="4.4" style="stroke:#181818;stroke-width:0.4000000000000001;"/><path d="M349.2813,75.0617 L349.2813,77.7242 L349.9688,77.7242 Q350.2125,77.7242 350.3188,77.818 Q350.425,77.9117 350.425,78.068 Q350.425,78.218 350.3188,78.3117 Q350.2125,78.4055 349.9688,78.4055 L347.9125,78.4055 Q347.6688,78.4055 347.5625,78.3117 Q347.4563,78.218 347.4563,78.0617 Q347.4563,77.9117 347.5625,77.818 Q347.6688,77.7242 347.9125,77.7242 L348.6,77.7242 L348.6,75.0617 L347.9125,75.0617 Q347.6688,75.0617 347.5625,74.968 Q347.4563,74.8742 347.4563,74.718 Q347.4563,74.568 347.5625,74.4742 Q347.6688,74.3805 347.9125,74.3805 L349.9688,74.3805 Q350.2125,74.3805 350.3188,74.4742 Q350.425,74.568 350.425,74.718 Q350.425,74.8742 350.3188,74.968 Q350.2125,75.0617 349.9688,75.0617 L349.2813,75.0617 Z " fill="#000000"/><text fill="#000000" font-family="sans-serif" font-size="5.6" font-style="italic" lengthAdjust="spacing" textLength="52.8" x="357.1" y="78.7242">GetUserWithContent</text><rect fill="#FFFFFF" height="7.1844" style="stroke:#181818;stroke-width:0.4000000000000001;stroke-dasharray:2.0,2.0;" width="36.4" x="446.6" y="68.8055"/><text fill="#000000" font-family="sans-serif" font-size="4.8" font-style="italic" lengthAdjust="spacing" textLength="35.6" x="447" y="74.3852">TUser, TContent</text><line style="stroke:#181818;stroke-width:0.20000000000000004;" x1="309.8" x2="481.4" y1="82.8055" y2="82.8055"/><line style="stroke:#181818;stroke-width:0.20000000000000004;" x1="309.8" x2="481.4" y1="86.0055" y2="86.0055"/><ellipse cx="313.8" cy="91.9297" fill="#84BE84" rx="1.2" ry="1.2" style="stroke:#038048;stroke-width:0.4000000000000001;"/><text fill="#000000" font-family="sans-serif" font-size="5.6" lengthAdjust="spacing" textLength="162" x="317.4" y="93.6484">UserAndContent&lt;TUser, TContent&gt; getUserWithContent(userId)</text></g><g id="elem_GMN9"><path d="M338.8,17.2055 L338.8,41.9547 A0,0 0 0 0 338.8,41.9547 L394,41.9547 L395.6,69.9135 L397.2,41.9547 L452.4,41.9547 A0,0 0 0 0 452.4,41.9547 L452.4,21.2055 L448.4,17.2055 L338.8,17.2055 A0,0 0 0 0 338.8,17.2055 " fill="#FEFFDD" style="stroke:#181818;stroke-width:0.20000000000000004;"/><path d="M448.4,17.2055 L448.4,21.2055 L452.4,21.2055 L448.4,17.2055 " fill="#FEFFDD" style="stroke:#181818;stroke-width:0.20000000000000004;"/><text fill="#000000" font-family="sans-serif" font-size="5.2" lengthAdjust="spacing" textLength="102" x="341.2" y="24.8168">This interface is for when using a JOIN when</text><text fill="#000000" font-family="sans-serif" font-size="5.2" lengthAdjust="spacing" textLength="105.2" x="341.2" y="31.7332">accessing the database to retrieve the results</text><text fill="#000000" font-family="sans-serif" font-size="5.2" lengthAdjust="spacing" textLength="35.2" x="341.2" y="38.6496">with one query.</text></g><!--class GetUserAndContent--><g id="elem_GetUserAndContent"><rect codeLine="29" fill="#F1F1F1" height="34.0969" id="GetUserAndContent" rx="1" ry="1" style="stroke:#181818;stroke-width:0.20000000000000004;" width="101.2" x="194.2" y="66.4055"/><ellipse cx="200.2" cy="72.8055" fill="#B4A7E5" rx="4.4" ry="4.4" style="stroke:#181818;stroke-width:0.4000000000000001;"/><path d="M200.5813,71.4617 L200.5813,74.1242 L201.2688,74.1242 Q201.5125,74.1242 201.6188,74.218 Q201.725,74.3117 201.725,74.468 Q201.725,74.618 201.6188,74.7117 Q201.5125,74.8055 201.2688,74.8055 L199.2125,74.8055 Q198.9688,74.8055 198.8625,74.7117 Q198.7563,74.618 198.7563,74.4617 Q198.7563,74.3117 198.8625,74.218 Q198.9688,74.1242 199.2125,74.1242 L199.9,74.1242 L199.9,71.4617 L199.2125,71.4617 Q198.9688,71.4617 198.8625,71.368 Q198.7563,71.2742 198.7563,71.118 Q198.7563,70.968 198.8625,70.8742 Q198.9688,70.7805 199.2125,70.7805 L201.2688,70.7805 Q201.5125,70.7805 201.6188,70.8742 Q201.725,70.968 201.725,71.118 Q201.725,71.2742 201.6188,71.368 Q201.5125,71.4617 201.2688,71.4617 L200.5813,71.4617 Z " fill="#000000"/><text fill="#000000" font-family="sans-serif" font-size="5.6" font-style="italic" lengthAdjust="spacing" textLength="51.2" x="205.8" y="75.1242">GetUserAndContent</text><rect fill="#FFFFFF" height="7.1844" style="stroke:#181818;stroke-width:0.4000000000000001;stroke-dasharray:2.0,2.0;" width="36.4" x="260.2" y="65.2055"/><text fill="#000000" font-family="sans-serif" font-size="4.8" font-style="italic" lengthAdjust="spacing" textLength="35.6" x="260.6" y="70.7852">TUser, TContent</text><line style="stroke:#181818;stroke-width:0.20000000000000004;" x1="194.6" x2="295" y1="79.2055" y2="79.2055"/><line style="stroke:#181818;stroke-width:0.20000000000000004;" x1="194.6" x2="295" y1="82.4055" y2="82.4055"/><ellipse cx="198.6" cy="88.3297" fill="#84BE84" rx="1.2" ry="1.2" style="stroke:#038048;stroke-width:0.4000000000000001;"/><text fill="#000000" font-family="sans-serif" font-size="5.6" lengthAdjust="spacing" textLength="56" x="202.2" y="90.0484">TUser getUser(userId)</text><ellipse cx="198.6" cy="95.7781" fill="#84BE84" rx="1.2" ry="1.2" style="stroke:#038048;stroke-width:0.4000000000000001;"/><text fill="#000000" font-family="sans-serif" font-size="5.6" lengthAdjust="spacing" textLength="72.8" x="202.2" y="97.4969">TContent getContent(userId)</text></g><!--class UserAndContent--><g id="elem_UserAndContent"><rect codeLine="34" fill="#F1F1F1" height="34.0969" id="UserAndContent" rx="1" ry="1" style="stroke:#181818;stroke-width:0.20000000000000004;" width="91.6" x="240.2" y="183.2055"/><ellipse cx="246.2" cy="189.6055" fill="#ADD1B2" rx="4.4" ry="4.4" style="stroke:#181818;stroke-width:0.4000000000000001;"/><path d="M247.3063,187.9555 Q247.3688,187.868 247.4438,187.8242 Q247.5188,187.7805 247.6063,187.7805 Q247.7563,187.7805 247.85,187.8867 Q247.9438,187.9867 247.9438,188.2305 L247.9438,188.8117 Q247.9438,189.0555 247.85,189.1617 Q247.7563,189.268 247.6063,189.268 Q247.4688,189.268 247.3875,189.1867 Q247.3063,189.1117 247.2625,188.9055 Q247.2438,188.7617 247.1688,188.6867 Q247.0375,188.5367 246.7938,188.4492 Q246.55,188.3617 246.3,188.3617 Q245.9938,188.3617 245.7375,188.493 Q245.4875,188.6242 245.2875,188.9242 Q245.0938,189.2242 245.0938,189.6367 L245.0938,190.0742 Q245.0938,190.568 245.45,190.8992 Q245.8063,191.2242 246.4438,191.2242 Q246.8188,191.2242 247.0813,191.1242 Q247.2375,191.0617 247.4063,190.8867 Q247.5125,190.7805 247.5688,190.7492 Q247.6313,190.718 247.7125,190.718 Q247.8438,190.718 247.9438,190.8242 Q248.05,190.9242 248.05,191.0617 Q248.05,191.1992 247.9125,191.3617 Q247.7125,191.593 247.3938,191.7242 Q246.9625,191.9055 246.4438,191.9055 Q245.8375,191.9055 245.3563,191.6555 Q244.9625,191.4555 244.6875,191.0305 Q244.4125,190.5992 244.4125,190.0867 L244.4125,189.6242 Q244.4125,189.093 244.6563,188.6367 Q244.9063,188.1742 245.3438,187.9305 Q245.7813,187.6805 246.275,187.6805 Q246.5688,187.6805 246.825,187.7492 Q247.0875,187.8117 247.3063,187.9555 Z " fill="#000000"/><text fill="#000000" font-family="sans-serif" font-size="5.6" lengthAdjust="spacing" textLength="41.6" x="251.8" y="191.9242">UserAndContent</text><rect fill="#FFFFFF" height="7.1844" style="stroke:#181818;stroke-width:0.4000000000000001;stroke-dasharray:2.0,2.0;" width="36.4" x="296.6" y="182.0055"/><text fill="#000000" font-family="sans-serif" font-size="4.8" font-style="italic" lengthAdjust="spacing" textLength="35.6" x="297" y="187.5852">TUser, TContent</text><line style="stroke:#181818;stroke-width:0.20000000000000004;" x1="240.6" x2="331.4" y1="196.0055" y2="196.0055"/><rect fill="none" height="2.4" style="stroke:#C82930;stroke-width:0.4000000000000001;" width="2.4" x="243.4" y="200.7297"/><text fill="#000000" font-family="sans-serif" font-size="5.6" lengthAdjust="spacing" textLength="28" x="248.2" y="203.6484">TUser user</text><rect fill="none" height="2.4" style="stroke:#C82930;stroke-width:0.4000000000000001;" width="2.4" x="243.4" y="208.1781"/><text fill="#000000" font-family="sans-serif" font-size="5.6" lengthAdjust="spacing" textLength="44" x="248.2" y="211.0969">TContent content</text><line style="stroke:#181818;stroke-width:0.20000000000000004;" x1="240.6" x2="331.4" y1="214.1023" y2="214.1023"/></g><!--class UserContentService--><g id="elem_UserContentService"><rect codeLine="39" fill="#F1F1F1" height="26.6484" id="UserContentService" rx="1" ry="1" style="stroke:#181818;stroke-width:0.20000000000000004;" width="171.2" x="8.8" y="70.0055"/><ellipse cx="48.9" cy="76.4055" fill="#B4A7E5" rx="4.4" ry="4.4" style="stroke:#181818;stroke-width:0.4000000000000001;"/><path d="M49.2813,75.0617 L49.2813,77.7242 L49.9688,77.7242 Q50.2125,77.7242 50.3188,77.818 Q50.425,77.9117 50.425,78.068 Q50.425,78.218 50.3188,78.3117 Q50.2125,78.4055 49.9688,78.4055 L47.9125,78.4055 Q47.6688,78.4055 47.5625,78.3117 Q47.4563,78.218 47.4563,78.0617 Q47.4563,77.9117 47.5625,77.818 Q47.6688,77.7242 47.9125,77.7242 L48.6,77.7242 L48.6,75.0617 L47.9125,75.0617 Q47.6688,75.0617 47.5625,74.968 Q47.4563,74.8742 47.4563,74.718 Q47.4563,74.568 47.5625,74.4742 Q47.6688,74.3805 47.9125,74.3805 L49.9688,74.3805 Q50.2125,74.3805 50.3188,74.4742 Q50.425,74.568 50.425,74.718 Q50.425,74.8742 50.3188,74.968 Q50.2125,75.0617 49.9688,75.0617 L49.2813,75.0617 Z " fill="#000000"/><text fill="#000000" font-family="sans-serif" font-size="5.6" font-style="italic" lengthAdjust="spacing" textLength="50.4" x="57.1" y="78.7242">UserContentService</text><rect fill="#FFFFFF" height="7.1844" style="stroke:#181818;stroke-width:0.4000000000000001;stroke-dasharray:2.0,2.0;" width="36.4" x="144.8" y="68.8055"/><text fill="#000000" font-family="sans-serif" font-size="4.8" font-style="italic" lengthAdjust="spacing" textLength="35.6" x="145.2" y="74.3852">TUser, TContent</text><line style="stroke:#181818;stroke-width:0.20000000000000004;" x1="9.2" x2="179.6" y1="82.8055" y2="82.8055"/><line style="stroke:#181818;stroke-width:0.20000000000000004;" x1="9.2" x2="179.6" y1="86.0055" y2="86.0055"/><ellipse cx="13.2" cy="91.9297" fill="#84BE84" rx="1.2" ry="1.2" style="stroke:#038048;stroke-width:0.4000000000000001;"/><text fill="#000000" font-family="sans-serif" font-size="5.6" lengthAdjust="spacing" textLength="160.8" x="16.8" y="93.6484">UserAndContent&lt;TUser, TContent&gt; getUserAndContent(userId)</text></g><!--class EmailUserContentService--><g id="elem_EmailUserContentService"><rect codeLine="43" fill="#F1F1F1" height="26.6484" id="EmailUserContentService" rx="1" ry="1" style="stroke:#181818;stroke-width:0.20000000000000004;" width="171.2" x="159.2" y="124.8055"/><ellipse cx="192.5" cy="131.2055" fill="#ADD1B2" rx="4.4" ry="4.4" style="stroke:#181818;stroke-width:0.4000000000000001;"/><path d="M193.6063,129.5555 Q193.6688,129.468 193.7438,129.4242 Q193.8188,129.3805 193.9063,129.3805 Q194.0563,129.3805 194.15,129.4867 Q194.2438,129.5867 194.2438,129.8305 L194.2438,130.4117 Q194.2438,130.6555 194.15,130.7617 Q194.0563,130.868 193.9063,130.868 Q193.7688,130.868 193.6875,130.7867 Q193.6063,130.7117 193.5625,130.5055 Q193.5438,130.3617 193.4688,130.2867 Q193.3375,130.1367 193.0938,130.0492 Q192.85,129.9617 192.6,129.9617 Q192.2938,129.9617 192.0375,130.093 Q191.7875,130.2242 191.5875,130.5242 Q191.3938,130.8242 191.3938,131.2367 L191.3938,131.6742 Q191.3938,132.168 191.75,132.4992 Q192.1063,132.8242 192.7438,132.8242 Q193.1188,132.8242 193.3813,132.7242 Q193.5375,132.6617 193.7063,132.4867 Q193.8125,132.3805 193.8688,132.3492 Q193.9313,132.318 194.0125,132.318 Q194.1438,132.318 194.2438,132.4242 Q194.35,132.5242 194.35,132.6617 Q194.35,132.7992 194.2125,132.9617 Q194.0125,133.193 193.6938,133.3242 Q193.2625,133.5055 192.7438,133.5055 Q192.1375,133.5055 191.6563,133.2555 Q191.2625,133.0555 190.9875,132.6305 Q190.7125,132.1992 190.7125,131.6867 L190.7125,131.2242 Q190.7125,130.693 190.9563,130.2367 Q191.2063,129.7742 191.6438,129.5305 Q192.0813,129.2805 192.575,129.2805 Q192.8688,129.2805 193.125,129.3492 Q193.3875,129.4117 193.6063,129.5555 Z " fill="#000000"/><text fill="#000000" font-family="sans-serif" font-size="5.6" lengthAdjust="spacing" textLength="64" x="200.7" y="133.5242">EmailUserContentService</text><rect fill="#FFFFFF" height="7.1844" style="stroke:#181818;stroke-width:0.4000000000000001;stroke-dasharray:2.0,2.0;" width="36.4" x="295.2" y="123.6055"/><text fill="#000000" font-family="sans-serif" font-size="4.8" font-style="italic" lengthAdjust="spacing" textLength="35.6" x="295.6" y="129.1852">TUser, TContent</text><line style="stroke:#181818;stroke-width:0.20000000000000004;" x1="159.6" x2="330" y1="137.6055" y2="137.6055"/><line style="stroke:#181818;stroke-width:0.20000000000000004;" x1="159.6" x2="330" y1="140.8055" y2="140.8055"/><ellipse cx="163.6" cy="146.7297" fill="#84BE84" rx="1.2" ry="1.2" style="stroke:#038048;stroke-width:0.4000000000000001;"/><text fill="#000000" font-family="sans-serif" font-size="5.6" lengthAdjust="spacing" textLength="160.8" x="167.2" y="148.4484">UserAndContent&lt;TUser, TContent&gt; getUserAndContent(userId)</text></g><!--class ContentDeliveryService--><g id="elem_ContentDeliveryService"><rect codeLine="47" fill="#F1F1F1" height="26.6484" id="ContentDeliveryService" rx="1" ry="1" style="stroke:#181818;stroke-width:0.20000000000000004;" width="134" x="77" y="186.8055"/><ellipse cx="94.52" cy="193.2055" fill="#B4A7E5" rx="4.4" ry="4.4" style="stroke:#181818;stroke-width:0.4000000000000001;"/><path d="M94.9013,191.8617 L94.9013,194.5242 L95.5888,194.5242 Q95.8325,194.5242 95.9388,194.618 Q96.045,194.7117 96.045,194.868 Q96.045,195.018 95.9388,195.1117 Q95.8325,195.2055 95.5888,195.2055 L93.5325,195.2055 Q93.2888,195.2055 93.1825,195.1117 Q93.0763,195.018 93.0763,194.8617 Q93.0763,194.7117 93.1825,194.618 Q93.2888,194.5242 93.5325,194.5242 L94.22,194.5242 L94.22,191.8617 L93.5325,191.8617 Q93.2888,191.8617 93.1825,191.768 Q93.0763,191.6742 93.0763,191.518 Q93.0763,191.368 93.1825,191.2742 Q93.2888,191.1805 93.5325,191.1805 L95.5888,191.1805 Q95.8325,191.1805 95.9388,191.2742 Q96.045,191.368 96.045,191.518 Q96.045,191.6742 95.9388,191.768 Q95.8325,191.8617 95.5888,191.8617 L94.9013,191.8617 Z " fill="#000000"/><text fill="#000000" font-family="sans-serif" font-size="5.6" font-style="italic" lengthAdjust="spacing" textLength="58.4" x="102.68" y="195.5242">ContentDeliveryService</text><rect fill="#FFFFFF" height="7.1844" style="stroke:#181818;stroke-width:0.4000000000000001;stroke-dasharray:2.0,2.0;" width="36.4" x="175.8" y="185.6055"/><text fill="#000000" font-family="sans-serif" font-size="4.8" font-style="italic" lengthAdjust="spacing" textLength="35.6" x="176.2" y="191.1852">TUser, TContent</text><line style="stroke:#181818;stroke-width:0.20000000000000004;" x1="77.4" x2="210.6" y1="199.6055" y2="199.6055"/><line style="stroke:#181818;stroke-width:0.20000000000000004;" x1="77.4" x2="210.6" y1="202.8055" y2="202.8055"/><ellipse cx="81.4" cy="208.7297" fill="#84BE84" rx="1.2" ry="1.2" style="stroke:#038048;stroke-width:0.4000000000000001;"/><text fill="#000000" font-family="sans-serif" font-size="5.6" lengthAdjust="spacing" textLength="123.6" x="85" y="210.4484">void sendContent(TUser user, TContent content)</text></g><!--class EmailContentDeliveryService--><g id="elem_EmailContentDeliveryService"><rect codeLine="51" fill="#F1F1F1" height="26.6484" id="EmailContentDeliveryService" rx="1" ry="1" style="stroke:#181818;stroke-width:0.20000000000000004;" width="134" x="77" y="248.8055"/><ellipse cx="88.04" cy="255.2055" fill="#ADD1B2" rx="4.4" ry="4.4" style="stroke:#181818;stroke-width:0.4000000000000001;"/><path d="M89.1463,253.5555 Q89.2088,253.468 89.2838,253.4242 Q89.3588,253.3805 89.4463,253.3805 Q89.5963,253.3805 89.69,253.4867 Q89.7838,253.5867 89.7838,253.8305 L89.7838,254.4117 Q89.7838,254.6555 89.69,254.7617 Q89.5963,254.868 89.4463,254.868 Q89.3088,254.868 89.2275,254.7867 Q89.1463,254.7117 89.1025,254.5055 Q89.0838,254.3617 89.0088,254.2867 Q88.8775,254.1367 88.6338,254.0492 Q88.39,253.9617 88.14,253.9617 Q87.8338,253.9617 87.5775,254.093 Q87.3275,254.2242 87.1275,254.5242 Q86.9338,254.8242 86.9338,255.2367 L86.9338,255.6742 Q86.9338,256.168 87.29,256.4992 Q87.6463,256.8242 88.2838,256.8242 Q88.6588,256.8242 88.9213,256.7242 Q89.0775,256.6617 89.2463,256.4867 Q89.3525,256.3805 89.4088,256.3492 Q89.4713,256.318 89.5525,256.318 Q89.6838,256.318 89.7838,256.4242 Q89.89,256.5242 89.89,256.6617 Q89.89,256.7992 89.7525,256.9617 Q89.5525,257.193 89.2338,257.3242 Q88.8025,257.5055 88.2838,257.5055 Q87.6775,257.5055 87.1963,257.2555 Q86.8025,257.0555 86.5275,256.6305 Q86.2525,256.1992 86.2525,255.6867 L86.2525,255.2242 Q86.2525,254.693 86.4963,254.2367 Q86.7463,253.7742 87.1838,253.5305 Q87.6213,253.2805 88.115,253.2805 Q88.4088,253.2805 88.665,253.3492 Q88.9275,253.4117 89.1463,253.5555 Z " fill="#000000"/><text fill="#000000" font-family="sans-serif" font-size="5.6" lengthAdjust="spacing" textLength="72.8" x="94.76" y="257.5242">EmailContentDeliveryService</text><rect fill="#FFFFFF" height="7.1844" style="stroke:#181818;stroke-width:0.4000000000000001;stroke-dasharray:2.0,2.0;" width="36.4" x="175.8" y="247.6055"/><text fill="#000000" font-family="sans-serif" font-size="4.8" font-style="italic" lengthAdjust="spacing" textLength="35.6" x="176.2" y="253.1852">TUser, TContent</text><line style="stroke:#181818;stroke-width:0.20000000000000004;" x1="77.4" x2="210.6" y1="261.6055" y2="261.6055"/><line style="stroke:#181818;stroke-width:0.20000000000000004;" x1="77.4" x2="210.6" y1="264.8055" y2="264.8055"/><ellipse cx="81.4" cy="270.7297" fill="#84BE84" rx="1.2" ry="1.2" style="stroke:#038048;stroke-width:0.4000000000000001;"/><text fill="#000000" font-family="sans-serif" font-size="5.6" lengthAdjust="spacing" textLength="123.6" x="85" y="272.4484">void sendContent(TUser user, TContent content)</text></g><g id="elem_GMN22"><path d="M34.8,129.2055 L34.8,147.0383 A0,0 0 0 0 34.8,147.0383 L145.2,147.0383 A0,0 0 0 0 145.2,147.0383 L145.2,139.8055 L159.124,138.2055 L145.2,136.6055 L145.2,133.2055 L141.2,129.2055 L34.8,129.2055 A0,0 0 0 0 34.8,129.2055 " fill="#FEFFDD" style="stroke:#181818;stroke-width:0.20000000000000004;"/><path d="M141.2,129.2055 L141.2,133.2055 L145.2,133.2055 L141.2,129.2055 " fill="#FEFFDD" style="stroke:#181818;stroke-width:0.20000000000000004;"/><text fill="#000000" font-family="sans-serif" font-size="5.2" lengthAdjust="spacing" textLength="65.2" x="37.2" y="136.8168">This interface extends either</text><text fill="#000000" font-family="sans-serif" font-size="5.2" lengthAdjust="spacing" textLength="102" x="37.2" y="143.7332">GetUserWithContent or GetUserAndContent</text></g><!--entity gateway--><g id="elem_gateway"><rect fill="#F1F1F1" height="19.4484" rx="1" ry="1" style="stroke:#181818;stroke-width:0.20000000000000004;" width="36.8" x="148.4" y="19.8055"/><rect fill="#F1F1F1" height="4" style="stroke:#181818;stroke-width:0.20000000000000004;" width="6" x="177.2" y="21.8055"/><rect fill="#F1F1F1" height="0.8" style="stroke:#181818;stroke-width:0.20000000000000004;" width="1.6" x="176.4" y="22.6055"/><rect fill="#F1F1F1" height="0.8" style="stroke:#181818;stroke-width:0.20000000000000004;" width="1.6" x="176.4" y="24.2055"/><text fill="#000000" font-family="sans-serif" font-size="5.6" lengthAdjust="spacing" textLength="20.8" x="154.4" y="33.8484">gateway</text></g><!--reverse link GatewayService to CommunicationGatewayService--><g id="link_GatewayService_CommunicationGatewayService"><path d="M308.8269,278.8789 C289.8429,288.3029 270.78,297.7735 251.82,307.1855 " fill="none" id="GatewayService-backto-CommunicationGatewayService" style="stroke:#181818;stroke-width:0.4000000000000001;stroke-dasharray:7.0,7.0;"/><polygon fill="none" points="315.276,275.6775,307.7598,276.7292,309.8941,281.0286,315.276,275.6775" style="stroke:#181818;stroke-width:0.4000000000000001;"/></g><!--reverse link UserContentService to EmailUserContentService--><g id="link_UserContentService_EmailUserContentService"><path d="M137.3926,99.2421 C160.9926,107.7141 184.892,116.2975 208.508,124.7735 " fill="none" id="UserContentService-backto-EmailUserContentService" style="stroke:#181818;stroke-width:0.4000000000000001;stroke-dasharray:7.0,7.0;"/><polygon fill="none" points="130.616,96.8095,136.5817,101.501,138.2035,96.9833,130.616,96.8095" style="stroke:#181818;stroke-width:0.4000000000000001;"/></g><!--reverse link GetUserWithContent to EmailUserContentService--><g id="link_GetUserWithContent_EmailUserContentService"><path d="M352.5095,99.2367 C328.8495,107.7087 304.864,116.2975 281.188,124.7735 " fill="none" id="GetUserWithContent-backto-EmailUserContentService" style="stroke:#181818;stroke-width:0.4000000000000001;stroke-dasharray:7.0,7.0;"/><polygon fill="none" points="359.288,96.8095,351.7004,96.9772,353.3185,101.4962,359.288,96.8095" style="stroke:#181818;stroke-width:0.4000000000000001;"/></g><!--reverse link GetUserAndContent to EmailUserContentService--><g id="link_GetUserAndContent_EmailUserContentService"><path d="M244.8,107.6495 C244.8,115.4575 244.8,117.4295 244.8,124.7295 " fill="none" id="GetUserAndContent-backto-EmailUserContentService" style="stroke:#181818;stroke-width:0.4000000000000001;stroke-dasharray:7.0,7.0;"/><polygon fill="none" points="244.8,100.4495,242.4,107.6495,247.2,107.6495,244.8,100.4495" style="stroke:#181818;stroke-width:0.4000000000000001;"/></g><!--reverse link ContentDeliveryService to EmailContentDeliveryService--><g id="link_ContentDeliveryService_EmailContentDeliveryService"><path d="M144,220.9335 C144,231.2935 144,238.4735 144,248.8015 " fill="none" id="ContentDeliveryService-backto-EmailContentDeliveryService" style="stroke:#181818;stroke-width:0.4000000000000001;stroke-dasharray:7.0,7.0;"/><polygon fill="none" points="144,213.7335,141.6,220.9335,146.4,220.9335,144,213.7335" style="stroke:#181818;stroke-width:0.4000000000000001;"/></g><!--reverse link EmailContentDeliveryService to CommunicationGatewayService--><g id="link_EmailContentDeliveryService_CommunicationGatewayService"><path codeLine="61" d="M164.477,277.0611 C177.833,286.4851 193.82,297.7735 207.156,307.1855 " fill="none" id="EmailContentDeliveryService-backto-CommunicationGatewayService" style="stroke:#181818;stroke-width:0.4000000000000001;"/><polygon fill="#181818" points="162.516,275.6775,164.535,279.0603,164.1502,276.8305,166.3799,276.4457,162.516,275.6775" style="stroke:#181818;stroke-width:0.4000000000000001;"/><text fill="#000000" font-family="sans-serif" font-size="5.2" lengthAdjust="spacing" textLength="11.2" x="190" y="293.6168">uses</text></g><!--reverse link EmailUserContentService to CommunicationGatewayService--><g id="link_EmailUserContentService_CommunicationGatewayService"><path codeLine="62" d="M239.9688,154.0314 C237.3688,162.8434 234.88,172.4535 233.2,183.2055 C226.16,228.2775 225.4,282.5775 225.464,307.0815 " fill="none" id="EmailUserContentService-backto-CommunicationGatewayService" style="stroke:#181818;stroke-width:0.4000000000000001;"/><polygon fill="#181818" points="240.648,151.7295,238.0946,154.7295,240.082,153.6477,241.1638,155.6351,240.648,151.7295" style="stroke:#181818;stroke-width:0.4000000000000001;"/><text fill="#000000" font-family="sans-serif" font-size="5.2" lengthAdjust="spacing" textLength="11.2" x="228.4" y="235.2168">uses</text></g><!--link CommunicationGatewayService to GatewayHelper--><g id="link_CommunicationGatewayService_GatewayHelper"><path codeLine="63" d="M225.6,334.0775 C225.6,343.5015 225.6,353.7735 225.6,363.1855 " fill="none" id="CommunicationGatewayService-to-GatewayHelper" style="stroke:#181818;stroke-width:0.4000000000000001;"/><polygon fill="#181818" points="225.6,365.5855,227.2,361.9855,225.6,363.5855,224,361.9855,225.6,365.5855" style="stroke:#181818;stroke-width:0.4000000000000001;"/><text fill="#000000" font-family="sans-serif" font-size="5.2" lengthAdjust="spacing" textLength="11.2" x="226" y="352.0168">uses</text></g><!--link EmailUserContentService to UserAndContent--><g id="link_EmailUserContentService_UserAndContent"><path codeLine="64" d="M253.64,151.7335 C259.832,160.9375 266.8238,171.3185 273.4798,181.2065 " fill="none" id="EmailUserContentService-to-UserAndContent" style="stroke:#181818;stroke-width:0.4000000000000001;"/><polygon fill="#181818" points="274.82,183.1975,274.137,179.3176,273.7032,181.5383,271.4824,181.1045,274.82,183.1975" style="stroke:#181818;stroke-width:0.4000000000000001;"/><text fill="#000000" font-family="sans-serif" font-size="5.2" lengthAdjust="spacing" textLength="16" x="266.8" y="169.6168">returns</text></g><!--SRC=[hLLDRzim3BtxLn0zPPYp7r0C1OQiMDD3DxGPTjPiEXPgIvuenmk6_lTHhXpBiTrvG7G9pA_t-4WfbKYUnHxXQgFBibOo4LPg1L-4nKOShq0G9A77E-1F17pOLMc5oiB-P6yTBz7hRr88egxQ7HOL6f_gpdjuiaQgFPH8n2pk1EKhRsgqUSuAtJpMQfl6Pu4RhIoZqhi1c6IZoKI27U0JceFapn3n4Oaf4zugA-qH25KwQ7tbSxyPpMIjHEfwwoqdsBx5pOH87Rmigm9Bn_UCsCLvTSJEr43xdT3ya3Rtmi77dRF4iFE6cu56plV9uRU-SUn-L71Ly_Ss3V6LjWXMLw2p2GOdD7TskQI0Btzasa2JeuAQtDW5t7_TFhIMGQ984bu85s5pX5HOyLEGGmM3l31umDPXaEh2qY2rOIx0kmk_QZJ73oSVwzvIZwP5x6NvXuQjirDg88_tTsKuP5h4OBl-0tdjaLsjqDZb9e7-B-TDkamVs2tlHJQb3vdlyROKibX48BXFu_XuOjdYYUbTl8jUHH_q6GjvuDrQfkH1ozJV-bU8VepnQ7fpyYr63YISoRa8j_ODA32pxX6O6N0qymhWRmvA2P3d6Apon6F6RyLelj7WAhVPRptHwtfzyvQ4rwvPMb9ctHKQTxgq25SO_6C6UNENnEKC1RXsJs1j54KyYhy0]--></g></svg>