<?xml version="1.0" encoding="us-ascii" standalone="no"?><svg xmlns="http://www.w3.org/2000/svg" xmlns:xlink="http://www.w3.org/1999/xlink" contentStyleType="text/css" height="355.6px" preserveAspectRatio="none" style="width:624px;height:355px;background:#FFFFFF;" version="1.1" viewBox="0 0 624 355" width="624px" zoomAndPan="magnify"><defs/><g><!--cluster communicationGateway--><g id="cluster_communicationGateway"><path d="M3.4,99.6 L72.2,99.6 A1.5,1.5 0 0 1 73.2,100.6 L76,109.4484 L620.2,109.4484 A1,1 0 0 1 621.2,110.4484 L621.2,351.8 A1,1 0 0 1 620.2,352.8 L3.4,352.8 A1,1 0 0 1 2.4,351.8 L2.4,100.6 A1,1 0 0 1 3.4,99.6 " fill="none" style="stroke:#000000;stroke-width:0.6000000000000001;"/><line style="stroke:#000000;stroke-width:0.6000000000000001;" x1="2.4" x2="76" y1="109.4484" y2="109.4484"/><text fill="#000000" font-family="sans-serif" font-size="5.6" font-weight="bold" lengthAdjust="spacing" textLength="68.4" x="4" y="106.443">Communication Gateway</text></g><!--entity Worker--><g id="elem_Worker"><rect fill="#F1F1F1" height="19.4484" rx="1" ry="1" style="stroke:#181818;stroke-width:0.20000000000000004;" width="34.4" x="289.6" y="2.8"/><rect fill="#F1F1F1" height="4" style="stroke:#181818;stroke-width:0.20000000000000004;" width="6" x="316" y="4.8"/><rect fill="#F1F1F1" height="0.8" style="stroke:#181818;stroke-width:0.20000000000000004;" width="1.6" x="315.2" y="5.6"/><rect fill="#F1F1F1" height="0.8" style="stroke:#181818;stroke-width:0.20000000000000004;" width="1.6" x="315.2" y="7.2"/><text fill="#000000" font-family="sans-serif" font-size="5.6" lengthAdjust="spacing" textLength="18.4" x="295.6" y="16.843">Worker</text></g><!--class GatewayHelper--><g id="elem_GatewayHelper"><rect codeLine="15" fill="#F1F1F1" height="26.6484" id="GatewayHelper" rx="1" ry="1" style="stroke:#181818;stroke-width:0.20000000000000004;" width="184" x="72" y="319.6"/><ellipse cx="143.1" cy="326" fill="#ADD1B2" rx="4.4" ry="4.4" style="stroke:#181818;stroke-width:0.4000000000000001;"/><path d="M144.2063,324.35 Q144.2688,324.2625 144.3438,324.2188 Q144.4188,324.175 144.5063,324.175 Q144.6563,324.175 144.75,324.2813 Q144.8438,324.3813 144.8438,324.625 L144.8438,325.2063 Q144.8438,325.45 144.75,325.5563 Q144.6563,325.6625 144.5063,325.6625 Q144.3688,325.6625 144.2875,325.5813 Q144.2063,325.5063 144.1625,325.3 Q144.1438,325.1563 144.0688,325.0813 Q143.9375,324.9313 143.6938,324.8438 Q143.45,324.7563 143.2,324.7563 Q142.8938,324.7563 142.6375,324.8875 Q142.3875,325.0188 142.1875,325.3188 Q141.9938,325.6188 141.9938,326.0313 L141.9938,326.4688 Q141.9938,326.9625 142.35,327.2938 Q142.7063,327.6188 143.3438,327.6188 Q143.7188,327.6188 143.9813,327.5188 Q144.1375,327.4563 144.3063,327.2813 Q144.4125,327.175 144.4688,327.1438 Q144.5313,327.1125 144.6125,327.1125 Q144.7438,327.1125 144.8438,327.2188 Q144.95,327.3188 144.95,327.4563 Q144.95,327.5938 144.8125,327.7563 Q144.6125,327.9875 144.2938,328.1188 Q143.8625,328.3 143.3438,328.3 Q142.7375,328.3 142.2563,328.05 Q141.8625,327.85 141.5875,327.425 Q141.3125,326.9938 141.3125,326.4813 L141.3125,326.0188 Q141.3125,325.4875 141.5563,325.0313 Q141.8063,324.5688 142.2438,324.325 Q142.6813,324.075 143.175,324.075 Q143.4688,324.075 143.725,324.1438 Q143.9875,324.2063 144.2063,324.35 Z " fill="#000000"/><text fill="#000000" font-family="sans-serif" font-size="5.6" lengthAdjust="spacing" textLength="38.4" x="151.3" y="328.3188">GatewayHelper</text><line style="stroke:#181818;stroke-width:0.20000000000000004;" x1="72.4" x2="255.6" y1="332.4" y2="332.4"/><line style="stroke:#181818;stroke-width:0.20000000000000004;" x1="72.4" x2="255.6" y1="335.6" y2="335.6"/><ellipse cx="76.4" cy="341.5242" fill="#84BE84" rx="1.2" ry="1.2" style="stroke:#038048;stroke-width:0.4000000000000001;"/><text fill="#000000" font-family="sans-serif" font-size="5.6" lengthAdjust="spacing" textLength="173.6" x="80" y="343.243">String messageHash(String workflowRunId, String messageContents)</text></g><!--class GatewayController--><g id="elem_GatewayController"><rect codeLine="21" fill="#F1F1F1" height="26.6484" id="GatewayController" rx="1" ry="1" style="stroke:#181818;stroke-width:0.20000000000000004;" width="161.6" x="226" y="114.4"/><ellipse cx="281.7" cy="120.8" fill="#B4A7E5" rx="4.4" ry="4.4" style="stroke:#181818;stroke-width:0.4000000000000001;"/><path d="M282.0813,119.4563 L282.0813,122.1188 L282.7688,122.1188 Q283.0125,122.1188 283.1188,122.2125 Q283.225,122.3063 283.225,122.4625 Q283.225,122.6125 283.1188,122.7063 Q283.0125,122.8 282.7688,122.8 L280.7125,122.8 Q280.4688,122.8 280.3625,122.7063 Q280.2563,122.6125 280.2563,122.4563 Q280.2563,122.3063 280.3625,122.2125 Q280.4688,122.1188 280.7125,122.1188 L281.4,122.1188 L281.4,119.4563 L280.7125,119.4563 Q280.4688,119.4563 280.3625,119.3625 Q280.2563,119.2688 280.2563,119.1125 Q280.2563,118.9625 280.3625,118.8688 Q280.4688,118.775 280.7125,118.775 L282.7688,118.775 Q283.0125,118.775 283.1188,118.8688 Q283.225,118.9625 283.225,119.1125 Q283.225,119.2688 283.1188,119.3625 Q283.0125,119.4563 282.7688,119.4563 L282.0813,119.4563 Z " fill="#000000"/><text fill="#000000" font-family="sans-serif" font-size="5.6" font-style="italic" lengthAdjust="spacing" textLength="46.8" x="289.9" y="123.1188">GatewayController</text><line style="stroke:#181818;stroke-width:0.20000000000000004;" x1="226.4" x2="387.2" y1="127.2" y2="127.2"/><line style="stroke:#181818;stroke-width:0.20000000000000004;" x1="226.4" x2="387.2" y1="130.4" y2="130.4"/><ellipse cx="230.4" cy="136.3242" fill="#84BE84" rx="1.2" ry="1.2" style="stroke:#038048;stroke-width:0.4000000000000001;"/><text fill="#000000" font-family="sans-serif" font-size="5.6" lengthAdjust="spacing" textLength="151.2" x="234" y="138.043">ResponseEntity sendCommunication(userId, workflowRunId)</text></g><!--class EmailGatewayController--><g id="elem_EmailGatewayController"><rect codeLine="25" fill="#F1F1F1" height="26.6484" id="EmailGatewayController" rx="1" ry="1" style="stroke:#181818;stroke-width:0.20000000000000004;" width="161.6" x="226" y="184.2"/><ellipse cx="274.9" cy="190.6" fill="#ADD1B2" rx="4.4" ry="4.4" style="stroke:#181818;stroke-width:0.4000000000000001;"/><path d="M276.0063,188.95 Q276.0688,188.8625 276.1438,188.8188 Q276.2188,188.775 276.3063,188.775 Q276.4563,188.775 276.55,188.8813 Q276.6438,188.9813 276.6438,189.225 L276.6438,189.8063 Q276.6438,190.05 276.55,190.1563 Q276.4563,190.2625 276.3063,190.2625 Q276.1688,190.2625 276.0875,190.1813 Q276.0063,190.1063 275.9625,189.9 Q275.9438,189.7563 275.8688,189.6813 Q275.7375,189.5313 275.4938,189.4438 Q275.25,189.3563 275,189.3563 Q274.6938,189.3563 274.4375,189.4875 Q274.1875,189.6188 273.9875,189.9188 Q273.7938,190.2188 273.7938,190.6313 L273.7938,191.0688 Q273.7938,191.5625 274.15,191.8938 Q274.5063,192.2188 275.1438,192.2188 Q275.5188,192.2188 275.7813,192.1188 Q275.9375,192.0563 276.1063,191.8813 Q276.2125,191.775 276.2688,191.7438 Q276.3313,191.7125 276.4125,191.7125 Q276.5438,191.7125 276.6438,191.8188 Q276.75,191.9188 276.75,192.0563 Q276.75,192.1938 276.6125,192.3563 Q276.4125,192.5875 276.0938,192.7188 Q275.6625,192.9 275.1438,192.9 Q274.5375,192.9 274.0563,192.65 Q273.6625,192.45 273.3875,192.025 Q273.1125,191.5938 273.1125,191.0813 L273.1125,190.6188 Q273.1125,190.0875 273.3563,189.6313 Q273.6063,189.1688 274.0438,188.925 Q274.4813,188.675 274.975,188.675 Q275.2688,188.675 275.525,188.7438 Q275.7875,188.8063 276.0063,188.95 Z " fill="#000000"/><text fill="#000000" font-family="sans-serif" font-size="5.6" lengthAdjust="spacing" textLength="60.4" x="283.1" y="192.9188">EmailGatewayController</text><line style="stroke:#181818;stroke-width:0.20000000000000004;" x1="226.4" x2="387.2" y1="197" y2="197"/><line style="stroke:#181818;stroke-width:0.20000000000000004;" x1="226.4" x2="387.2" y1="200.2" y2="200.2"/><ellipse cx="230.4" cy="206.1242" fill="#84BE84" rx="1.2" ry="1.2" style="stroke:#038048;stroke-width:0.4000000000000001;"/><text fill="#000000" font-family="sans-serif" font-size="5.6" lengthAdjust="spacing" textLength="151.2" x="234" y="207.843">ResponseEntity sendCommunication(userId, workflowRunId)</text></g><!--class GatewayProperties--><g id="elem_GatewayProperties"><rect codeLine="29" fill="#F1F1F1" height="63.8906" id="GatewayProperties" rx="1" ry="1" style="stroke:#181818;stroke-width:0.20000000000000004;" width="201.2" x="413.4" y="165.6"/><ellipse cx="488.3" cy="172" fill="#ADD1B2" rx="4.4" ry="4.4" style="stroke:#181818;stroke-width:0.4000000000000001;"/><path d="M489.4063,170.35 Q489.4688,170.2625 489.5438,170.2188 Q489.6188,170.175 489.7063,170.175 Q489.8563,170.175 489.95,170.2813 Q490.0438,170.3813 490.0438,170.625 L490.0438,171.2063 Q490.0438,171.45 489.95,171.5563 Q489.8563,171.6625 489.7063,171.6625 Q489.5688,171.6625 489.4875,171.5813 Q489.4063,171.5063 489.3625,171.3 Q489.3438,171.1563 489.2688,171.0813 Q489.1375,170.9313 488.8938,170.8438 Q488.65,170.7563 488.4,170.7563 Q488.0938,170.7563 487.8375,170.8875 Q487.5875,171.0188 487.3875,171.3188 Q487.1938,171.6188 487.1938,172.0313 L487.1938,172.4688 Q487.1938,172.9625 487.55,173.2938 Q487.9063,173.6188 488.5438,173.6188 Q488.9188,173.6188 489.1813,173.5188 Q489.3375,173.4563 489.5063,173.2813 Q489.6125,173.175 489.6688,173.1438 Q489.7313,173.1125 489.8125,173.1125 Q489.9438,173.1125 490.0438,173.2188 Q490.15,173.3188 490.15,173.4563 Q490.15,173.5938 490.0125,173.7563 Q489.8125,173.9875 489.4938,174.1188 Q489.0625,174.3 488.5438,174.3 Q487.9375,174.3 487.4563,174.05 Q487.0625,173.85 486.7875,173.425 Q486.5125,172.9938 486.5125,172.4813 L486.5125,172.0188 Q486.5125,171.4875 486.7563,171.0313 Q487.0063,170.5688 487.4438,170.325 Q487.8813,170.075 488.375,170.075 Q488.6688,170.075 488.925,170.1438 Q489.1875,170.2063 489.4063,170.35 Z " fill="#000000"/><text fill="#000000" font-family="sans-serif" font-size="5.6" lengthAdjust="spacing" textLength="48" x="496.5" y="174.3188">GatewayProperties</text><line style="stroke:#181818;stroke-width:0.20000000000000004;" x1="413.8" x2="614.2" y1="178.4" y2="178.4"/><rect fill="none" height="2.4" style="stroke:#C82930;stroke-width:0.4000000000000001;" width="2.4" x="416.6" y="183.1242"/><text fill="#000000" font-family="sans-serif" font-size="5.6" lengthAdjust="spacing" textLength="32" x="421.4" y="186.043">String userId</text><rect fill="none" height="2.4" style="stroke:#C82930;stroke-width:0.4000000000000001;" width="2.4" x="416.6" y="190.5727"/><text fill="#000000" font-family="sans-serif" font-size="5.6" lengthAdjust="spacing" textLength="52.4" x="421.4" y="193.4914">String workflowRunId</text><rect fill="none" height="2.4" style="stroke:#C82930;stroke-width:0.4000000000000001;" width="2.4" x="416.6" y="198.0211"/><text fill="#000000" font-family="sans-serif" font-size="5.6" lengthAdjust="spacing" textLength="118.8" x="421.4" y="200.9398">ContentDeliveryService contentDeliveryService</text><rect fill="none" height="2.4" style="stroke:#C82930;stroke-width:0.4000000000000001;" width="2.4" x="416.6" y="205.4695"/><text fill="#000000" font-family="sans-serif" font-size="5.6" lengthAdjust="spacing" textLength="118" x="421.4" y="208.3883">UserContentService&lt;?, ?&gt; userContentService</text><rect fill="none" height="2.4" style="stroke:#C82930;stroke-width:0.4000000000000001;" width="2.4" x="416.6" y="212.918"/><text fill="#000000" font-family="sans-serif" font-size="5.6" lengthAdjust="spacing" textLength="190.8" x="421.4" y="215.8367">CommunicationHistoryAccessProvider communicationHistoryAccessProvider</text><line style="stroke:#181818;stroke-width:0.20000000000000004;" x1="413.8" x2="614.2" y1="218.8422" y2="218.8422"/><ellipse cx="417.8" cy="224.7664" fill="#84BE84" rx="1.2" ry="1.2" style="stroke:#038048;stroke-width:0.4000000000000001;"/><text fill="#000000" font-family="sans-serif" font-size="5.6" lengthAdjust="spacing" textLength="76.4" x="421.4" y="226.4852">Standard Getters() &amp; Setters()</text></g><!--class GatewayService--><g id="elem_GatewayService"><rect codeLine="38" fill="#F1F1F1" height="26.6484" id="GatewayService" rx="1" ry="1" style="stroke:#181818;stroke-width:0.20000000000000004;" width="203.2" x="8.8" y="184.2"/><ellipse cx="88.5" cy="190.6" fill="#B4A7E5" rx="4.4" ry="4.4" style="stroke:#181818;stroke-width:0.4000000000000001;"/><path d="M88.8813,189.2563 L88.8813,191.9188 L89.5688,191.9188 Q89.8125,191.9188 89.9188,192.0125 Q90.025,192.1063 90.025,192.2625 Q90.025,192.4125 89.9188,192.5063 Q89.8125,192.6 89.5688,192.6 L87.5125,192.6 Q87.2688,192.6 87.1625,192.5063 Q87.0563,192.4125 87.0563,192.2563 Q87.0563,192.1063 87.1625,192.0125 Q87.2688,191.9188 87.5125,191.9188 L88.2,191.9188 L88.2,189.2563 L87.5125,189.2563 Q87.2688,189.2563 87.1625,189.1625 Q87.0563,189.0688 87.0563,188.9125 Q87.0563,188.7625 87.1625,188.6688 Q87.2688,188.575 87.5125,188.575 L89.5688,188.575 Q89.8125,188.575 89.9188,188.6688 Q90.025,188.7625 90.025,188.9125 Q90.025,189.0688 89.9188,189.1625 Q89.8125,189.2563 89.5688,189.2563 L88.8813,189.2563 Z " fill="#000000"/><text fill="#000000" font-family="sans-serif" font-size="5.6" font-style="italic" lengthAdjust="spacing" textLength="40.4" x="96.7" y="192.9188">GatewayService</text><line style="stroke:#181818;stroke-width:0.20000000000000004;" x1="9.2" x2="211.6" y1="197" y2="197"/><line style="stroke:#181818;stroke-width:0.20000000000000004;" x1="9.2" x2="211.6" y1="200.2" y2="200.2"/><ellipse cx="13.2" cy="206.1242" fill="#84BE84" rx="1.2" ry="1.2" style="stroke:#038048;stroke-width:0.4000000000000001;"/><text fill="#000000" font-family="sans-serif" font-size="5.6" lengthAdjust="spacing" textLength="192.8" x="16.8" y="207.843">ResponseEntity sendCommunication(GatewayProperties gatewayProperties)</text></g><!--class CommunicationGatewayService--><g id="elem_CommunicationGatewayService"><rect codeLine="42" fill="#F1F1F1" height="26.6484" id="CommunicationGatewayService" rx="1" ry="1" style="stroke:#181818;stroke-width:0.20000000000000004;" width="205.2" x="61.4" y="261.2"/><ellipse cx="122.5" cy="267.6" fill="#ADD1B2" rx="4.4" ry="4.4" style="stroke:#181818;stroke-width:0.4000000000000001;"/><path d="M123.6063,265.95 Q123.6688,265.8625 123.7438,265.8188 Q123.8188,265.775 123.9063,265.775 Q124.0563,265.775 124.15,265.8813 Q124.2438,265.9813 124.2438,266.225 L124.2438,266.8063 Q124.2438,267.05 124.15,267.1563 Q124.0563,267.2625 123.9063,267.2625 Q123.7688,267.2625 123.6875,267.1813 Q123.6063,267.1063 123.5625,266.9 Q123.5438,266.7563 123.4688,266.6813 Q123.3375,266.5313 123.0938,266.4438 Q122.85,266.3563 122.6,266.3563 Q122.2938,266.3563 122.0375,266.4875 Q121.7875,266.6188 121.5875,266.9188 Q121.3938,267.2188 121.3938,267.6313 L121.3938,268.0688 Q121.3938,268.5625 121.75,268.8938 Q122.1063,269.2188 122.7438,269.2188 Q123.1188,269.2188 123.3813,269.1188 Q123.5375,269.0563 123.7063,268.8813 Q123.8125,268.775 123.8688,268.7438 Q123.9313,268.7125 124.0125,268.7125 Q124.1438,268.7125 124.2438,268.8188 Q124.35,268.9188 124.35,269.0563 Q124.35,269.1938 124.2125,269.3563 Q124.0125,269.5875 123.6938,269.7188 Q123.2625,269.9 122.7438,269.9 Q122.1375,269.9 121.6563,269.65 Q121.2625,269.45 120.9875,269.025 Q120.7125,268.5938 120.7125,268.0813 L120.7125,267.6188 Q120.7125,267.0875 120.9563,266.6313 Q121.2063,266.1688 121.6438,265.925 Q122.0813,265.675 122.575,265.675 Q122.8688,265.675 123.125,265.7438 Q123.3875,265.8063 123.6063,265.95 Z " fill="#000000"/><text fill="#000000" font-family="sans-serif" font-size="5.6" lengthAdjust="spacing" textLength="79.6" x="130.7" y="269.9188">CommunicationGatewayService</text><line style="stroke:#181818;stroke-width:0.20000000000000004;" x1="61.8" x2="266.2" y1="274" y2="274"/><line style="stroke:#181818;stroke-width:0.20000000000000004;" x1="61.8" x2="266.2" y1="277.2" y2="277.2"/><ellipse cx="65.8" cy="283.1242" fill="#84BE84" rx="1.2" ry="1.2" style="stroke:#038048;stroke-width:0.4000000000000001;"/><text fill="#000000" font-family="sans-serif" font-size="5.6" lengthAdjust="spacing" textLength="194.8" x="69.4" y="284.843">ResponseEntity sendCommunication(GatewayProperties gatewayProperties))</text></g><g id="elem_GMN14"><path d="M280.6,265.6 L280.6,273 L266.7,274.6 L280.6,276.2 L280.6,283.4328 A0,0 0 0 0 280.6,283.4328 L396.2,283.4328 A0,0 0 0 0 396.2,283.4328 L396.2,269.6 L392.2,265.6 L280.6,265.6 A0,0 0 0 0 280.6,265.6 " fill="#FEFFDD" style="stroke:#181818;stroke-width:0.20000000000000004;"/><path d="M392.2,265.6 L392.2,269.6 L396.2,269.6 L392.2,265.6 " fill="#FEFFDD" style="stroke:#181818;stroke-width:0.20000000000000004;"/><text fill="#000000" font-family="sans-serif" font-size="5.2" lengthAdjust="spacing" textLength="107.2" x="283" y="273.2113">GatewayProperties object can be created by a</text><text fill="#000000" font-family="sans-serif" font-size="5.2" lengthAdjust="spacing" textLength="80" x="283" y="280.1277">builder and passed to this method.</text></g><!--entity gateway--><g id="elem_gateway"><rect fill="#F1F1F1" height="19.4484" rx="1" ry="1" style="stroke:#181818;stroke-width:0.20000000000000004;" width="36.8" x="92" y="118"/><rect fill="#F1F1F1" height="4" style="stroke:#181818;stroke-width:0.20000000000000004;" width="6" x="120.8" y="120"/><rect fill="#F1F1F1" height="0.8" style="stroke:#181818;stroke-width:0.20000000000000004;" width="1.6" x="120" y="120.8"/><rect fill="#F1F1F1" height="0.8" style="stroke:#181818;stroke-width:0.20000000000000004;" width="1.6" x="120" y="122.4"/><text fill="#000000" font-family="sans-serif" font-size="5.6" lengthAdjust="spacing" textLength="20.8" x="98" y="132.043">gateway</text></g><!--class SendMessageToGateway--><g id="elem_SendMessageToGateway"><rect codeLine="5" fill="#F1F1F1" height="26.6484" id="SendMessageToGateway" rx="1" ry="1" style="stroke:#181818;stroke-width:0.20000000000000004;" width="239.2" x="187.2" y="46.8"/><ellipse cx="272.5" cy="53.2" fill="#B4A7E5" rx="4.4" ry="4.4" style="stroke:#181818;stroke-width:0.4000000000000001;"/><path d="M272.8813,51.8563 L272.8813,54.5188 L273.5688,54.5188 Q273.8125,54.5188 273.9188,54.6125 Q274.025,54.7063 274.025,54.8625 Q274.025,55.0125 273.9188,55.1063 Q273.8125,55.2 273.5688,55.2 L271.5125,55.2 Q271.2688,55.2 271.1625,55.1063 Q271.0563,55.0125 271.0563,54.8563 Q271.0563,54.7063 271.1625,54.6125 Q271.2688,54.5188 271.5125,54.5188 L272.2,54.5188 L272.2,51.8563 L271.5125,51.8563 Q271.2688,51.8563 271.1625,51.7625 Q271.0563,51.6688 271.0563,51.5125 Q271.0563,51.3625 271.1625,51.2688 Q271.2688,51.175 271.5125,51.175 L273.5688,51.175 Q273.8125,51.175 273.9188,51.2688 Q274.025,51.3625 274.025,51.5125 Q274.025,51.6688 273.9188,51.7625 Q273.8125,51.8563 273.5688,51.8563 L272.8813,51.8563 Z " fill="#000000"/><text fill="#000000" font-family="sans-serif" font-size="5.6" font-style="italic" lengthAdjust="spacing" textLength="65.2" x="280.7" y="55.5188">SendMessageToGateway</text><line style="stroke:#181818;stroke-width:0.20000000000000004;" x1="187.6" x2="426" y1="59.6" y2="59.6"/><line style="stroke:#181818;stroke-width:0.20000000000000004;" x1="187.6" x2="426" y1="62.8" y2="62.8"/><ellipse cx="191.6" cy="68.7242" fill="#84BE84" rx="1.2" ry="1.2" style="stroke:#038048;stroke-width:0.4000000000000001;"/><text fill="#000000" font-family="sans-serif" font-size="5.6" lengthAdjust="spacing" textLength="228.8" x="195.2" y="70.443">Map&lt;String, String&gt; invokeGateway(String userId, String workflowRunId, String gatewayUrl)</text></g><!--reverse link GatewayController to EmailGatewayController--><g id="link_GatewayController_EmailGatewayController"><path d="M306.8,148.54 C306.8,160.82 306.8,171.848 306.8,184.108 " fill="none" id="GatewayController-backto-EmailGatewayController" style="stroke:#181818;stroke-width:0.4000000000000001;stroke-dasharray:7.0,7.0;"/><polygon fill="none" points="306.8,141.34,304.4,148.54,309.2,148.54,306.8,141.34" style="stroke:#181818;stroke-width:0.4000000000000001;"/></g><!--reverse link GatewayService to CommunicationGatewayService--><g id="link_GatewayService_CommunicationGatewayService"><path d="M123.7573,216.9898 C133.6013,230.9898 144.98,247.16 154.816,261.144 " fill="none" id="GatewayService-backto-CommunicationGatewayService" style="stroke:#181818;stroke-width:0.4000000000000001;stroke-dasharray:7.0,7.0;"/><polygon fill="none" points="119.616,211.1,121.7941,218.3702,125.7206,215.6093,119.616,211.1" style="stroke:#181818;stroke-width:0.4000000000000001;"/></g><!--link CommunicationGatewayService to GatewayHelper--><g id="link_CommunicationGatewayService_GatewayHelper"><path codeLine="50" d="M164,288.072 C164,297.496 164,307.768 164,317.18 " fill="none" id="CommunicationGatewayService-to-GatewayHelper" style="stroke:#181818;stroke-width:0.4000000000000001;"/><polygon fill="#181818" points="164,319.58,165.6,315.98,164,317.58,162.4,315.98,164,319.58" style="stroke:#181818;stroke-width:0.4000000000000001;"/><text fill="#000000" font-family="sans-serif" font-size="5.2" lengthAdjust="spacing" textLength="11.2" x="164.4" y="306.0113">uses</text></g><!--link EmailGatewayController to CommunicationGatewayService--><g id="link_EmailGatewayController_CommunicationGatewayService"><path codeLine="51" d="M282.416,211.012 C256.168,225.02 216.7775,246.0383 190.5215,260.0463 " fill="none" id="EmailGatewayController-to-CommunicationGatewayService" style="stroke:#181818;stroke-width:0.4000000000000001;"/><polygon fill="#181818" points="188.404,261.176,192.3334,260.8931,190.1686,260.2346,190.8271,258.0698,188.404,261.176" style="stroke:#181818;stroke-width:0.4000000000000001;"/><text fill="#000000" font-family="sans-serif" font-size="5.2" lengthAdjust="spacing" textLength="11.2" x="222.8" y="247.6113">uses</text></g><!--link EmailGatewayController to GatewayProperties--><g id="link_EmailGatewayController_GatewayProperties"><path codeLine="52" d="M387.652,197.6 C396.056,197.6 402.268,197.6 410.856,197.6 " fill="none" id="EmailGatewayController-to-GatewayProperties" style="stroke:#181818;stroke-width:0.4000000000000001;"/><polygon fill="#181818" points="413.256,197.6,409.656,196,411.256,197.6,409.656,199.2,413.256,197.6" style="stroke:#181818;stroke-width:0.4000000000000001;"/><text fill="#000000" font-family="sans-serif" font-size="5.2" lengthAdjust="spacing" textLength="11.2" x="394.9" y="194.8113">uses</text></g><!--link Worker to SendMessageToGateway--><g id="link_Worker_SendMessageToGateway"><path codeLine="53" d="M306.8,22.472 C306.8,29.468 306.8,31.88 306.8,39.596 " fill="none" id="Worker-to-SendMessageToGateway" style="stroke:#181818;stroke-width:0.4000000000000001;"/><polygon fill="none" points="306.8,46.796,309.2,39.596,304.4,39.596,306.8,46.796" style="stroke:#181818;stroke-width:0.4000000000000001;"/></g><!--link SendMessageToGateway to GatewayController--><g id="link_SendMessageToGateway_GatewayController"><path codeLine="54" d="M306.8,73.64 C306.8,85.408 306.8,100.236 306.8,111.996 " fill="none" id="SendMessageToGateway-to-GatewayController" style="stroke:#181818;stroke-width:0.4000000000000001;"/><polygon fill="#181818" points="306.8,114.396,308.4,110.796,306.8,112.396,305.2,110.796,306.8,114.396" style="stroke:#181818;stroke-width:0.4000000000000001;"/><text fill="#000000" font-family="sans-serif" font-size="5.2" lengthAdjust="spacing" textLength="11.2" x="307.2" y="91.6113">uses</text></g><!--SRC=[lLHDJ-Cm4BttLumue5OGVi0A1QswY790Mb7GdbrdcfewTcIxhQA5_yuaSLARPBkx4YA799glz-RDs5mNfLQe7FpIPei6Va_U9XEX79erumXBLDa3MijoVD9tpE61LHG3z5p00oklbyu8bLz2-qr1gBtUee-SjbROMJJtMHS41u9QItrutAd0chSvpqREQWuburj2XREvBegT4fmveHNuocV0BF3G4vFZVLzvRsySLBaDaCpQhje2PTdq3lwvw4WLRUyBPZVJa-nzu5oJTChPMG_M_1m5zOXrdD5IVa1zH4kqBTug9rm5bjIFsfzsIaOaUh1ZOxS54tA89OfIOb4J_2eY7kQdqQIm4sW3c0IY_HZQe-A1swly0wNOewcMQFQ2jEMZvY3lcN1yhdTUtrp2JTeGY1qHMj3uGbYdJVMTSneuTRKN6Kd7_neIhHPJ6JCPtA6ZjR3J6PpJGVF_eOI3jUaw_QzH3KUGVxIC36u-ShWw-E4QUS-dy-g8rM-b7O8H-SQ1Nf_YrvCO8kZL2t87d2bOqS8Of8WCLXMmFccr4xAUAGq9IbA2_4w3smXBXznjT7RLX58x3QDMirDg9KaQNpJVwdspJTuVpccTSgBaFnH8Xyq7MVwoJvBNTFIARu96x_wWcIEShqpxymu0]--></g></svg>