<?xml version="1.0" encoding="us-ascii" standalone="no"?><svg xmlns="http://www.w3.org/2000/svg" xmlns:xlink="http://www.w3.org/1999/xlink" contentStyleType="text/css" height="981px" preserveAspectRatio="none" style="width:2062px;height:981px;background:#FFFFFF;" version="1.1" viewBox="0 0 2062 981" width="2062px" zoomAndPan="magnify"><defs/><g><!--cluster communicationGateway--><g id="cluster_communicationGateway"><path d="M8.5,249 L180.5,249 A3.75,3.75 0 0 1 183,251.5 L190,273.6211 L2052.5,273.6211 A2.5,2.5 0 0 1 2055,276.1211 L2055,971.5 A2.5,2.5 0 0 1 2052.5,974 L8.5,974 A2.5,2.5 0 0 1 6,971.5 L6,251.5 A2.5,2.5 0 0 1 8.5,249 " fill="none" style="stroke:#000000;stroke-width:1.5;"/><line style="stroke:#000000;stroke-width:1.5;" x1="6" x2="190" y1="273.6211" y2="273.6211"/><text fill="#000000" font-family="sans-serif" font-size="14" font-weight="bold" lengthAdjust="spacing" textLength="171" x="10" y="266.1074">Communication Gateway</text></g><!--entity Worker--><g id="elem_Worker"><rect fill="#F1F1F1" height="48.6211" rx="2.5" ry="2.5" style="stroke:#181818;stroke-width:0.5;" width="86" x="980" y="7"/><rect fill="#F1F1F1" height="10" style="stroke:#181818;stroke-width:0.5;" width="15" x="1046" y="12"/><rect fill="#F1F1F1" height="2" style="stroke:#181818;stroke-width:0.5;" width="4" x="1044" y="14"/><rect fill="#F1F1F1" height="2" style="stroke:#181818;stroke-width:0.5;" width="4" x="1044" y="18"/><text fill="#000000" font-family="sans-serif" font-size="14" lengthAdjust="spacing" textLength="46" x="995" y="42.1074">Worker</text></g><!--class HashHelper--><g id="elem_HashHelper"><rect codeLine="15" fill="#F1F1F1" height="66.6211" id="HashHelper" rx="2.5" ry="2.5" style="stroke:#181818;stroke-width:0.5;" width="460" x="174" y="891"/><ellipse cx="363.25" cy="907" fill="#ADD1B2" rx="11" ry="11" style="stroke:#181818;stroke-width:1.0;"/><path d="M366.0156,902.875 Q366.1719,902.6563 366.3594,902.5469 Q366.5469,902.4375 366.7656,902.4375 Q367.1406,902.4375 367.375,902.7031 Q367.6094,902.9531 367.6094,903.5625 L367.6094,905.0156 Q367.6094,905.625 367.375,905.8906 Q367.1406,906.1563 366.7656,906.1563 Q366.4219,906.1563 366.2188,905.9531 Q366.0156,905.7656 365.9063,905.25 Q365.8594,904.8906 365.6719,904.7031 Q365.3438,904.3281 364.7344,904.1094 Q364.125,903.8906 363.5,903.8906 Q362.7344,903.8906 362.0938,904.2188 Q361.4688,904.5469 360.9688,905.2969 Q360.4844,906.0469 360.4844,907.0781 L360.4844,908.1719 Q360.4844,909.4063 361.375,910.2344 Q362.2656,911.0469 363.8594,911.0469 Q364.7969,911.0469 365.4531,910.7969 Q365.8438,910.6406 366.2656,910.2031 Q366.5313,909.9375 366.6719,909.8594 Q366.8281,909.7813 367.0313,909.7813 Q367.3594,909.7813 367.6094,910.0469 Q367.875,910.2969 367.875,910.6406 Q367.875,910.9844 367.5313,911.3906 Q367.0313,911.9688 366.2344,912.2969 Q365.1563,912.75 363.8594,912.75 Q362.3438,912.75 361.1406,912.125 Q360.1563,911.625 359.4688,910.5625 Q358.7813,909.4844 358.7813,908.2031 L358.7813,907.0469 Q358.7813,905.7188 359.3906,904.5781 Q360.0156,903.4219 361.1094,902.8125 Q362.2031,902.1875 363.4375,902.1875 Q364.1719,902.1875 364.8125,902.3594 Q365.4688,902.5156 366.0156,902.875 Z " fill="#000000"/><text fill="#000000" font-family="sans-serif" font-size="14" lengthAdjust="spacing" textLength="73" x="383.75" y="912.7969">HashHelper</text><line style="stroke:#181818;stroke-width:0.5;" x1="175" x2="633" y1="923" y2="923"/><line style="stroke:#181818;stroke-width:0.5;" x1="175" x2="633" y1="931" y2="931"/><ellipse cx="185" cy="945.8105" fill="#84BE84" rx="3" ry="3" style="stroke:#038048;stroke-width:1.0;"/><text fill="#000000" font-family="sans-serif" font-size="14" lengthAdjust="spacing" textLength="434" x="194" y="950.1074">String messageHash(String workflowRunId, String messageContents)</text></g><!--class GatewayRequest--><g id="elem_GatewayRequest"><rect codeLine="20" fill="#F1F1F1" height="103.8633" id="GatewayRequest" rx="2.5" ry="2.5" style="stroke:#181818;stroke-width:0.5;" width="222" x="1817" y="286"/><ellipse cx="1869.75" cy="302" fill="#ADD1B2" rx="11" ry="11" style="stroke:#181818;stroke-width:1.0;"/><path d="M1872.5156,297.875 Q1872.6719,297.6563 1872.8594,297.5469 Q1873.0469,297.4375 1873.2656,297.4375 Q1873.6406,297.4375 1873.875,297.7031 Q1874.1094,297.9531 1874.1094,298.5625 L1874.1094,300.0156 Q1874.1094,300.625 1873.875,300.8906 Q1873.6406,301.1563 1873.2656,301.1563 Q1872.9219,301.1563 1872.7188,300.9531 Q1872.5156,300.7656 1872.4063,300.25 Q1872.3594,299.8906 1872.1719,299.7031 Q1871.8438,299.3281 1871.2344,299.1094 Q1870.625,298.8906 1870,298.8906 Q1869.2344,298.8906 1868.5938,299.2188 Q1867.9688,299.5469 1867.4688,300.2969 Q1866.9844,301.0469 1866.9844,302.0781 L1866.9844,303.1719 Q1866.9844,304.4063 1867.875,305.2344 Q1868.7656,306.0469 1870.3594,306.0469 Q1871.2969,306.0469 1871.9531,305.7969 Q1872.3438,305.6406 1872.7656,305.2031 Q1873.0313,304.9375 1873.1719,304.8594 Q1873.3281,304.7813 1873.5313,304.7813 Q1873.8594,304.7813 1874.1094,305.0469 Q1874.375,305.2969 1874.375,305.6406 Q1874.375,305.9844 1874.0313,306.3906 Q1873.5313,306.9688 1872.7344,307.2969 Q1871.6563,307.75 1870.3594,307.75 Q1868.8438,307.75 1867.6406,307.125 Q1866.6563,306.625 1865.9688,305.5625 Q1865.2813,304.4844 1865.2813,303.2031 L1865.2813,302.0469 Q1865.2813,300.7188 1865.8906,299.5781 Q1866.5156,298.4219 1867.6094,297.8125 Q1868.7031,297.1875 1869.9375,297.1875 Q1870.6719,297.1875 1871.3125,297.3594 Q1871.9688,297.5156 1872.5156,297.875 Z " fill="#000000"/><text fill="#000000" font-family="sans-serif" font-size="14" lengthAdjust="spacing" textLength="108" x="1890.25" y="307.7969">GatewayRequest</text><line style="stroke:#181818;stroke-width:0.5;" x1="1818" x2="2038" y1="318" y2="318"/><rect fill="none" height="6" style="stroke:#C82930;stroke-width:1.0;" width="6" x="1825" y="329.8105"/><text fill="#000000" font-family="sans-serif" font-size="14" lengthAdjust="spacing" textLength="80" x="1837" y="337.1074">String userId</text><rect fill="none" height="6" style="stroke:#C82930;stroke-width:1.0;" width="6" x="1825" y="348.4316"/><text fill="#000000" font-family="sans-serif" font-size="14" lengthAdjust="spacing" textLength="131" x="1837" y="355.7285">String workflowRunId</text><line style="stroke:#181818;stroke-width:0.5;" x1="1818" x2="2038" y1="363.2422" y2="363.2422"/><ellipse cx="1828" cy="378.0527" fill="#84BE84" rx="3" ry="3" style="stroke:#038048;stroke-width:1.0;"/><text fill="#000000" font-family="sans-serif" font-size="14" lengthAdjust="spacing" textLength="196" x="1837" y="382.3496">Standard Getters and Setters()</text></g><!--class GatewayResponse--><g id="elem_GatewayResponse"><rect codeLine="26" fill="#F1F1F1" height="122.4844" id="GatewayResponse" rx="2.5" ry="2.5" style="stroke:#181818;stroke-width:0.5;" width="222" x="1081" y="690"/><ellipse cx="1128.25" cy="706" fill="#ADD1B2" rx="11" ry="11" style="stroke:#181818;stroke-width:1.0;"/><path d="M1131.0156,701.875 Q1131.1719,701.6563 1131.3594,701.5469 Q1131.5469,701.4375 1131.7656,701.4375 Q1132.1406,701.4375 1132.375,701.7031 Q1132.6094,701.9531 1132.6094,702.5625 L1132.6094,704.0156 Q1132.6094,704.625 1132.375,704.8906 Q1132.1406,705.1563 1131.7656,705.1563 Q1131.4219,705.1563 1131.2188,704.9531 Q1131.0156,704.7656 1130.9063,704.25 Q1130.8594,703.8906 1130.6719,703.7031 Q1130.3438,703.3281 1129.7344,703.1094 Q1129.125,702.8906 1128.5,702.8906 Q1127.7344,702.8906 1127.0938,703.2188 Q1126.4688,703.5469 1125.9688,704.2969 Q1125.4844,705.0469 1125.4844,706.0781 L1125.4844,707.1719 Q1125.4844,708.4063 1126.375,709.2344 Q1127.2656,710.0469 1128.8594,710.0469 Q1129.7969,710.0469 1130.4531,709.7969 Q1130.8438,709.6406 1131.2656,709.2031 Q1131.5313,708.9375 1131.6719,708.8594 Q1131.8281,708.7813 1132.0313,708.7813 Q1132.3594,708.7813 1132.6094,709.0469 Q1132.875,709.2969 1132.875,709.6406 Q1132.875,709.9844 1132.5313,710.3906 Q1132.0313,710.9688 1131.2344,711.2969 Q1130.1563,711.75 1128.8594,711.75 Q1127.3438,711.75 1126.1406,711.125 Q1125.1563,710.625 1124.4688,709.5625 Q1123.7813,708.4844 1123.7813,707.2031 L1123.7813,706.0469 Q1123.7813,704.7188 1124.3906,703.5781 Q1125.0156,702.4219 1126.1094,701.8125 Q1127.2031,701.1875 1128.4375,701.1875 Q1129.1719,701.1875 1129.8125,701.3594 Q1130.4688,701.5156 1131.0156,701.875 Z " fill="#000000"/><text fill="#000000" font-family="sans-serif" font-size="14" lengthAdjust="spacing" textLength="119" x="1148.75" y="711.7969">GatewayResponse</text><line style="stroke:#181818;stroke-width:0.5;" x1="1082" x2="1302" y1="722" y2="722"/><rect fill="none" height="6" style="stroke:#C82930;stroke-width:1.0;" width="6" x="1089" y="733.8105"/><text fill="#000000" font-family="sans-serif" font-size="14" lengthAdjust="spacing" textLength="80" x="1101" y="741.1074">String userId</text><rect fill="none" height="6" style="stroke:#C82930;stroke-width:1.0;" width="6" x="1089" y="752.4316"/><text fill="#000000" font-family="sans-serif" font-size="14" lengthAdjust="spacing" textLength="130" x="1101" y="759.7285">String messageHash</text><rect fill="none" height="6" style="stroke:#C82930;stroke-width:1.0;" width="6" x="1089" y="771.0527"/><text fill="#000000" font-family="sans-serif" font-size="14" lengthAdjust="spacing" textLength="129" x="1101" y="778.3496">String errorMessage</text><line style="stroke:#181818;stroke-width:0.5;" x1="1082" x2="1302" y1="785.8633" y2="785.8633"/><ellipse cx="1092" cy="800.6738" fill="#84BE84" rx="3" ry="3" style="stroke:#038048;stroke-width:1.0;"/><text fill="#000000" font-family="sans-serif" font-size="14" lengthAdjust="spacing" textLength="196" x="1101" y="804.9707">Standard Getters and Setters()</text></g><!--class GatewayController--><g id="elem_GatewayController"><rect codeLine="34" fill="#F1F1F1" height="85.2422" id="GatewayController" rx="2.5" ry="2.5" style="stroke:#181818;stroke-width:0.5;" width="1517" x="264.5" y="295.5"/><ellipse cx="867.75" cy="311.5" fill="#B4A7E5" rx="11" ry="11" style="stroke:#181818;stroke-width:1.0;"/><path d="M868.7031,308.1406 L868.7031,314.7969 L870.4219,314.7969 Q871.0313,314.7969 871.2969,315.0313 Q871.5625,315.2656 871.5625,315.6563 Q871.5625,316.0313 871.2969,316.2656 Q871.0313,316.5 870.4219,316.5 L865.2813,316.5 Q864.6719,316.5 864.4063,316.2656 Q864.1406,316.0313 864.1406,315.6406 Q864.1406,315.2656 864.4063,315.0313 Q864.6719,314.7969 865.2813,314.7969 L867,314.7969 L867,308.1406 L865.2813,308.1406 Q864.6719,308.1406 864.4063,307.9063 Q864.1406,307.6719 864.1406,307.2813 Q864.1406,306.9063 864.4063,306.6719 Q864.6719,306.4375 865.2813,306.4375 L870.4219,306.4375 Q871.0313,306.4375 871.2969,306.6719 Q871.5625,306.9063 871.5625,307.2813 Q871.5625,307.6719 871.2969,307.9063 Q871.0313,308.1406 870.4219,308.1406 L868.7031,308.1406 Z " fill="#000000"/><text fill="#000000" font-family="sans-serif" font-size="14" font-style="italic" lengthAdjust="spacing" textLength="117" x="888.25" y="317.2969">GatewayController</text><rect fill="#FFFFFF" height="17.9609" style="stroke:#181818;stroke-width:1.0;stroke-dasharray:2.0,2.0;" width="183" x="1601.5" y="292.5"/><text fill="#000000" font-family="sans-serif" font-size="12" font-style="italic" lengthAdjust="spacing" textLength="181" x="1602.5" y="306.4492">TUser, TContent extends Content</text><line style="stroke:#181818;stroke-width:0.5;" x1="265.5" x2="1780.5" y1="327.5" y2="327.5"/><line style="stroke:#181818;stroke-width:0.5;" x1="265.5" x2="1780.5" y1="335.5" y2="335.5"/><ellipse cx="275.5" cy="350.3105" fill="#84BE84" rx="3" ry="3" style="stroke:#038048;stroke-width:1.0;"/><text fill="#000000" font-family="sans-serif" font-size="14" lengthAdjust="spacing" text-decoration="underline" textLength="1491" x="284.5" y="354.6074">ResponseEntity&lt;GatewayResponse&gt; sendCommunication(GatewayRequest gatewayRequest, GatewayProperties&lt;TUser, TContent&gt; gatewayProperties, CommunicationGatewayService&lt;TUser, TContent&gt; communicationGatewayService)</text><ellipse cx="275.5" cy="368.9316" fill="#84BE84" rx="3" ry="3" style="stroke:#038048;stroke-width:1.0;"/><text fill="#000000" font-family="sans-serif" font-size="14" lengthAdjust="spacing" textLength="623" x="284.5" y="373.2285">ResponseEntity&lt;GatewayResponse&gt; processGatewayRequest(GatewayRequest gatewayRequest)</text></g><!--class EmailGatewayController--><g id="elem_EmailGatewayController"><rect codeLine="39" fill="#F1F1F1" height="66.6211" id="EmailGatewayController" rx="2.5" ry="2.5" style="stroke:#181818;stroke-width:0.5;" width="649" x="821.5" y="497.5"/><ellipse cx="1066.25" cy="513.5" fill="#ADD1B2" rx="11" ry="11" style="stroke:#181818;stroke-width:1.0;"/><path d="M1069.0156,509.375 Q1069.1719,509.1563 1069.3594,509.0469 Q1069.5469,508.9375 1069.7656,508.9375 Q1070.1406,508.9375 1070.375,509.2031 Q1070.6094,509.4531 1070.6094,510.0625 L1070.6094,511.5156 Q1070.6094,512.125 1070.375,512.3906 Q1070.1406,512.6563 1069.7656,512.6563 Q1069.4219,512.6563 1069.2188,512.4531 Q1069.0156,512.2656 1068.9063,511.75 Q1068.8594,511.3906 1068.6719,511.2031 Q1068.3438,510.8281 1067.7344,510.6094 Q1067.125,510.3906 1066.5,510.3906 Q1065.7344,510.3906 1065.0938,510.7188 Q1064.4688,511.0469 1063.9688,511.7969 Q1063.4844,512.5469 1063.4844,513.5781 L1063.4844,514.6719 Q1063.4844,515.9063 1064.375,516.7344 Q1065.2656,517.5469 1066.8594,517.5469 Q1067.7969,517.5469 1068.4531,517.2969 Q1068.8438,517.1406 1069.2656,516.7031 Q1069.5313,516.4375 1069.6719,516.3594 Q1069.8281,516.2813 1070.0313,516.2813 Q1070.3594,516.2813 1070.6094,516.5469 Q1070.875,516.7969 1070.875,517.1406 Q1070.875,517.4844 1070.5313,517.8906 Q1070.0313,518.4688 1069.2344,518.7969 Q1068.1563,519.25 1066.8594,519.25 Q1065.3438,519.25 1064.1406,518.625 Q1063.1563,518.125 1062.4688,517.0625 Q1061.7813,515.9844 1061.7813,514.7031 L1061.7813,513.5469 Q1061.7813,512.2188 1062.3906,511.0781 Q1063.0156,509.9219 1064.1094,509.3125 Q1065.2031,508.6875 1066.4375,508.6875 Q1067.1719,508.6875 1067.8125,508.8594 Q1068.4688,509.0156 1069.0156,509.375 Z " fill="#000000"/><text fill="#000000" font-family="sans-serif" font-size="14" lengthAdjust="spacing" textLength="151" x="1086.75" y="519.2969">EmailGatewayController</text><line style="stroke:#181818;stroke-width:0.5;" x1="822.5" x2="1469.5" y1="529.5" y2="529.5"/><line style="stroke:#181818;stroke-width:0.5;" x1="822.5" x2="1469.5" y1="537.5" y2="537.5"/><ellipse cx="832.5" cy="552.3105" fill="#84BE84" rx="3" ry="3" style="stroke:#038048;stroke-width:1.0;"/><text fill="#000000" font-family="sans-serif" font-size="14" lengthAdjust="spacing" textLength="623" x="841.5" y="556.6074">ResponseEntity&lt;GatewayResponse&gt; processGatewayRequest(GatewayRequest gatewayRequest)</text></g><!--class GatewayProperties--><g id="elem_GatewayProperties"><rect codeLine="43" fill="#F1F1F1" height="159.7266" id="GatewayProperties" rx="2.5" ry="2.5" style="stroke:#181818;stroke-width:0.5;" width="503" x="1535.5" y="451"/><ellipse cx="1630.25" cy="467" fill="#A9DCDF" rx="11" ry="11" style="stroke:#181818;stroke-width:1.0;"/><path d="M1632.4375,468.7656 L1628.2969,468.7656 L1627.875,469.7969 L1628.2969,469.7969 Q1628.9063,469.7969 1629.1719,470.0313 Q1629.4375,470.2656 1629.4375,470.6563 Q1629.4375,471.0313 1629.1719,471.2656 Q1628.9063,471.5 1628.2969,471.5 L1626,471.5 Q1625.3906,471.5 1625.1406,471.2656 Q1624.875,471.0313 1624.875,470.6406 Q1624.875,470.2656 1625.1563,470.0313 Q1625.4219,469.7813 1626.0469,469.7969 L1628.7188,463.1406 L1627.6094,463.1406 Q1627,463.1406 1626.7344,462.9063 Q1626.4688,462.6719 1626.4688,462.2813 Q1626.4688,461.9063 1626.7344,461.6719 Q1627,461.4375 1627.6094,461.4375 L1631.2813,461.4375 L1634.6719,469.7969 Q1635.2656,469.7969 1635.4531,469.9375 Q1635.8438,470.2031 1635.8438,470.6563 Q1635.8438,471.0313 1635.5781,471.2656 Q1635.3281,471.5 1634.7188,471.5 L1632.4219,471.5 Q1631.8125,471.5 1631.5469,471.2656 Q1631.2813,471.0313 1631.2813,470.6406 Q1631.2813,470.2656 1631.5469,470.0313 Q1631.8125,469.7969 1632.4219,469.7969 L1632.8438,469.7969 L1632.4375,468.7656 Z M1631.7188,467.0625 L1630.3594,463.6875 L1628.9844,467.0625 L1631.7188,467.0625 Z " fill="#000000"/><text fill="#000000" font-family="sans-serif" font-size="14" font-style="italic" lengthAdjust="spacing" textLength="120" x="1650.75" y="472.7969">GatewayProperties</text><rect fill="#FFFFFF" height="17.9609" style="stroke:#181818;stroke-width:1.0;stroke-dasharray:2.0,2.0;" width="183" x="1858.5" y="448"/><text fill="#000000" font-family="sans-serif" font-size="12" font-style="italic" lengthAdjust="spacing" textLength="181" x="1859.5" y="461.9492">TUser, TContent extends Content</text><line style="stroke:#181818;stroke-width:0.5;" x1="1536.5" x2="2037.5" y1="483" y2="483"/><rect fill="none" height="6" style="stroke:#C82930;stroke-width:1.0;" width="6" x="1543.5" y="494.8105"/><text fill="#000000" font-family="sans-serif" font-size="14" lengthAdjust="spacing" textLength="80" x="1555.5" y="502.1074">String userId</text><rect fill="none" height="6" style="stroke:#C82930;stroke-width:1.0;" width="6" x="1543.5" y="513.4316"/><text fill="#000000" font-family="sans-serif" font-size="14" lengthAdjust="spacing" textLength="131" x="1555.5" y="520.7285">String workflowRunId</text><rect fill="none" height="6" style="stroke:#C82930;stroke-width:1.0;" width="6" x="1543.5" y="532.0527"/><text fill="#000000" font-family="sans-serif" font-size="14" lengthAdjust="spacing" textLength="418" x="1555.5" y="539.3496">ContentDeliveryService&lt;TUser, TContent&gt; contentDeliveryService</text><rect fill="none" height="6" style="stroke:#C82930;stroke-width:1.0;" width="6" x="1543.5" y="550.6738"/><text fill="#000000" font-family="sans-serif" font-size="14" lengthAdjust="spacing" textLength="384" x="1555.5" y="557.9707">UserContentService&lt;TUser, TContent?&gt; userContentService</text><rect fill="none" height="6" style="stroke:#C82930;stroke-width:1.0;" width="6" x="1543.5" y="569.2949"/><text fill="#000000" font-family="sans-serif" font-size="14" lengthAdjust="spacing" textLength="477" x="1555.5" y="576.5918">CommunicationHistoryAccessProvider communicationHistoryAccessProvider</text><line style="stroke:#181818;stroke-width:0.5;" x1="1536.5" x2="2037.5" y1="584.1055" y2="584.1055"/><ellipse cx="1546.5" cy="598.916" fill="#84BE84" rx="3" ry="3" style="stroke:#038048;stroke-width:1.0;"/><text fill="#000000" font-family="sans-serif" font-size="14" lengthAdjust="spacing" textLength="300" x="1555.5" y="603.2129">Standard Getters() &amp; Setters() &amp; SuperBuilder()</text></g><!--class GatewayService--><g id="elem_GatewayService"><rect codeLine="52" fill="#F1F1F1" height="66.6211" id="GatewayService" rx="2.5" ry="2.5" style="stroke:#181818;stroke-width:0.5;" width="764" x="22" y="497.5"/><ellipse cx="302.75" cy="513.5" fill="#B4A7E5" rx="11" ry="11" style="stroke:#181818;stroke-width:1.0;"/><path d="M303.7031,510.1406 L303.7031,516.7969 L305.4219,516.7969 Q306.0313,516.7969 306.2969,517.0313 Q306.5625,517.2656 306.5625,517.6563 Q306.5625,518.0313 306.2969,518.2656 Q306.0313,518.5 305.4219,518.5 L300.2813,518.5 Q299.6719,518.5 299.4063,518.2656 Q299.1406,518.0313 299.1406,517.6406 Q299.1406,517.2656 299.4063,517.0313 Q299.6719,516.7969 300.2813,516.7969 L302,516.7969 L302,510.1406 L300.2813,510.1406 Q299.6719,510.1406 299.4063,509.9063 Q299.1406,509.6719 299.1406,509.2813 Q299.1406,508.9063 299.4063,508.6719 Q299.6719,508.4375 300.2813,508.4375 L305.4219,508.4375 Q306.0313,508.4375 306.2969,508.6719 Q306.5625,508.9063 306.5625,509.2813 Q306.5625,509.6719 306.2969,509.9063 Q306.0313,510.1406 305.4219,510.1406 L303.7031,510.1406 Z " fill="#000000"/><text fill="#000000" font-family="sans-serif" font-size="14" font-style="italic" lengthAdjust="spacing" textLength="101" x="323.25" y="519.2969">GatewayService</text><rect fill="#FFFFFF" height="17.9609" style="stroke:#181818;stroke-width:1.0;stroke-dasharray:2.0,2.0;" width="91" x="698" y="494.5"/><text fill="#000000" font-family="sans-serif" font-size="12" font-style="italic" lengthAdjust="spacing" textLength="89" x="699" y="508.4492">TUser, TContent</text><line style="stroke:#181818;stroke-width:0.5;" x1="23" x2="785" y1="529.5" y2="529.5"/><line style="stroke:#181818;stroke-width:0.5;" x1="23" x2="785" y1="537.5" y2="537.5"/><ellipse cx="33" cy="552.3105" fill="#84BE84" rx="3" ry="3" style="stroke:#038048;stroke-width:1.0;"/><text fill="#000000" font-family="sans-serif" font-size="14" lengthAdjust="spacing" textLength="738" x="42" y="556.6074">ResponseEntity&lt;GatewayResponse&gt; sendCommunication(GatewayProperties&lt;TUser, TContent&gt; gatewayProperties)</text></g><!--class CommunicationGatewayService--><g id="elem_CommunicationGatewayService"><rect codeLine="56" fill="#F1F1F1" height="66.6211" id="CommunicationGatewayService" rx="2.5" ry="2.5" style="stroke:#181818;stroke-width:0.5;" width="634" x="87" y="717.5"/><ellipse cx="207.75" cy="733.5" fill="#ADD1B2" rx="11" ry="11" style="stroke:#181818;stroke-width:1.0;"/><path d="M210.5156,729.375 Q210.6719,729.1563 210.8594,729.0469 Q211.0469,728.9375 211.2656,728.9375 Q211.6406,728.9375 211.875,729.2031 Q212.1094,729.4531 212.1094,730.0625 L212.1094,731.5156 Q212.1094,732.125 211.875,732.3906 Q211.6406,732.6563 211.2656,732.6563 Q210.9219,732.6563 210.7188,732.4531 Q210.5156,732.2656 210.4063,731.75 Q210.3594,731.3906 210.1719,731.2031 Q209.8438,730.8281 209.2344,730.6094 Q208.625,730.3906 208,730.3906 Q207.2344,730.3906 206.5938,730.7188 Q205.9688,731.0469 205.4688,731.7969 Q204.9844,732.5469 204.9844,733.5781 L204.9844,734.6719 Q204.9844,735.9063 205.875,736.7344 Q206.7656,737.5469 208.3594,737.5469 Q209.2969,737.5469 209.9531,737.2969 Q210.3438,737.1406 210.7656,736.7031 Q211.0313,736.4375 211.1719,736.3594 Q211.3281,736.2813 211.5313,736.2813 Q211.8594,736.2813 212.1094,736.5469 Q212.375,736.7969 212.375,737.1406 Q212.375,737.4844 212.0313,737.8906 Q211.5313,738.4688 210.7344,738.7969 Q209.6563,739.25 208.3594,739.25 Q206.8438,739.25 205.6406,738.625 Q204.6563,738.125 203.9688,737.0625 Q203.2813,735.9844 203.2813,734.7031 L203.2813,733.5469 Q203.2813,732.2188 203.8906,731.0781 Q204.5156,729.9219 205.6094,729.3125 Q206.7031,728.6875 207.9375,728.6875 Q208.6719,728.6875 209.3125,728.8594 Q209.9688,729.0156 210.5156,729.375 Z " fill="#000000"/><text fill="#000000" font-family="sans-serif" font-size="14" lengthAdjust="spacing" textLength="199" x="228.25" y="739.2969">CommunicationGatewayService</text><rect fill="#FFFFFF" height="17.9609" style="stroke:#181818;stroke-width:1.0;stroke-dasharray:2.0,2.0;" width="183" x="541" y="714.5"/><text fill="#000000" font-family="sans-serif" font-size="12" font-style="italic" lengthAdjust="spacing" textLength="181" x="542" y="728.4492">TUser, TContent extends Content</text><line style="stroke:#181818;stroke-width:0.5;" x1="88" x2="720" y1="749.5" y2="749.5"/><line style="stroke:#181818;stroke-width:0.5;" x1="88" x2="720" y1="757.5" y2="757.5"/><ellipse cx="98" cy="772.3105" fill="#84BE84" rx="3" ry="3" style="stroke:#038048;stroke-width:1.0;"/><text fill="#000000" font-family="sans-serif" font-size="14" lengthAdjust="spacing" textLength="608" x="107" y="776.6074">ResponseEntity sendCommunication(GatewayProperties&lt;TUser, TContent&gt; gatewayProperties))</text></g><g id="elem_GMN16"><path d="M756.5,728.5 L756.5,747 L721.42,751 L756.5,755 L756.5,773.082 A0,0 0 0 0 756.5,773.082 L1045.5,773.082 A0,0 0 0 0 1045.5,773.082 L1045.5,738.5 L1035.5,728.5 L756.5,728.5 A0,0 0 0 0 756.5,728.5 " fill="#FEFFDD" style="stroke:#181818;stroke-width:0.5;"/><path d="M1035.5,728.5 L1035.5,738.5 L1045.5,738.5 L1035.5,728.5 " fill="#FEFFDD" style="stroke:#181818;stroke-width:0.5;"/><text fill="#000000" font-family="sans-serif" font-size="13" lengthAdjust="spacing" textLength="268" x="762.5" y="747.5283">GatewayProperties object can be created by a</text><text fill="#000000" font-family="sans-serif" font-size="13" lengthAdjust="spacing" textLength="200" x="762.5" y="764.8193">builder and passed to this method.</text></g><!--entity gateway--><g id="elem_gateway"><rect fill="#F1F1F1" height="48.6211" rx="2.5" ry="2.5" style="stroke:#181818;stroke-width:0.5;" width="92" x="80" y="313.5"/><rect fill="#F1F1F1" height="10" style="stroke:#181818;stroke-width:0.5;" width="15" x="152" y="318.5"/><rect fill="#F1F1F1" height="2" style="stroke:#181818;stroke-width:0.5;" width="4" x="150" y="320.5"/><rect fill="#F1F1F1" height="2" style="stroke:#181818;stroke-width:0.5;" width="4" x="150" y="324.5"/><text fill="#000000" font-family="sans-serif" font-size="14" lengthAdjust="spacing" textLength="52" x="95" y="348.6074">gateway</text></g><!--class SendMessageToGatewayActivity--><g id="elem_SendMessageToGatewayActivity"><rect codeLine="5" fill="#F1F1F1" height="66.6211" id="SendMessageToGatewayActivity" rx="2.5" ry="2.5" style="stroke:#181818;stroke-width:0.5;" width="763" x="641.5" y="117"/><ellipse cx="915.75" cy="133" fill="#B4A7E5" rx="11" ry="11" style="stroke:#181818;stroke-width:1.0;"/><path d="M916.7031,129.6406 L916.7031,136.2969 L918.4219,136.2969 Q919.0313,136.2969 919.2969,136.5313 Q919.5625,136.7656 919.5625,137.1563 Q919.5625,137.5313 919.2969,137.7656 Q919.0313,138 918.4219,138 L913.2813,138 Q912.6719,138 912.4063,137.7656 Q912.1406,137.5313 912.1406,137.1406 Q912.1406,136.7656 912.4063,136.5313 Q912.6719,136.2969 913.2813,136.2969 L915,136.2969 L915,129.6406 L913.2813,129.6406 Q912.6719,129.6406 912.4063,129.4063 Q912.1406,129.1719 912.1406,128.7813 Q912.1406,128.4063 912.4063,128.1719 Q912.6719,127.9375 913.2813,127.9375 L918.4219,127.9375 Q919.0313,127.9375 919.2969,128.1719 Q919.5625,128.4063 919.5625,128.7813 Q919.5625,129.1719 919.2969,129.4063 Q919.0313,129.6406 918.4219,129.6406 L916.7031,129.6406 Z " fill="#000000"/><text fill="#000000" font-family="sans-serif" font-size="14" font-style="italic" lengthAdjust="spacing" textLength="206" x="936.25" y="138.7969">SendMessageToGatewayActivity</text><line style="stroke:#181818;stroke-width:0.5;" x1="642.5" x2="1403.5" y1="149" y2="149"/><line style="stroke:#181818;stroke-width:0.5;" x1="642.5" x2="1403.5" y1="157" y2="157"/><ellipse cx="652.5" cy="171.8105" fill="#84BE84" rx="3" ry="3" style="stroke:#038048;stroke-width:1.0;"/><text fill="#000000" font-family="sans-serif" font-size="14" lengthAdjust="spacing" textLength="737" x="661.5" y="176.1074">Map&lt;String, String&gt; invokeGateway(String userId, String workflowRunId, String gatewayUrl, Preferences preferences)</text></g><!--reverse link GatewayController to EmailGatewayController--><g id="link_GatewayController_EmailGatewayController"><path d="M1059.7361,396.0532 C1082.2961,431.0832 1104.27,465.2 1124.98,497.35 " fill="none" id="GatewayController-backto-EmailGatewayController" style="stroke:#181818;stroke-width:1.0;stroke-dasharray:7.0,7.0;"/><polygon fill="none" points="1049.99,380.92,1054.6917,399.3019,1064.7805,392.8045,1049.99,380.92" style="stroke:#181818;stroke-width:1.0;"/></g><!--reverse link GatewayService to CommunicationGatewayService--><g id="link_GatewayService_CommunicationGatewayService"><path d="M404,582.64 C404,623.85 404,676.34 404,717.5 " fill="none" id="GatewayService-backto-CommunicationGatewayService" style="stroke:#181818;stroke-width:1.0;stroke-dasharray:7.0,7.0;"/><polygon fill="none" points="404,564.64,398,582.64,410,582.64,404,564.64" style="stroke:#181818;stroke-width:1.0;"/></g><!--link CommunicationGatewayService to HashHelper--><g id="link_CommunicationGatewayService_HashHelper"><path codeLine="65" d="M404,784.66 C404,815.18 404,854.48 404,884.96 " fill="none" id="CommunicationGatewayService-to-HashHelper" style="stroke:#181818;stroke-width:1.0;"/><polygon fill="#181818" points="404,890.96,408,881.96,404,885.96,400,881.96,404,890.96" style="stroke:#181818;stroke-width:1.0;"/><text fill="#000000" font-family="sans-serif" font-size="13" lengthAdjust="spacing" textLength="28" x="405" y="857.0283">uses</text></g><!--link EmailGatewayController to CommunicationGatewayService--><g id="link_EmailGatewayController_CommunicationGatewayService"><path codeLine="66" d="M1035.32,564.52 C895.13,605.71 660.7367,674.5686 520.5167,715.7686 " fill="none" id="EmailGatewayController-to-CommunicationGatewayService" style="stroke:#181818;stroke-width:1.0;"/><polygon fill="#181818" points="514.76,717.46,524.5226,718.7606,519.5572,716.0505,522.2673,711.0851,514.76,717.46" style="stroke:#181818;stroke-width:1.0;"/><text fill="#000000" font-family="sans-serif" font-size="13" lengthAdjust="spacing" textLength="28" x="776" y="656.0283">uses</text></g><!--link EmailGatewayController to GatewayProperties--><g id="link_EmailGatewayController_GatewayProperties"><path codeLine="67" d="M1470.73,531 C1492.44,531 1508.13,531 1529.39,531 " fill="none" id="EmailGatewayController-to-GatewayProperties" style="stroke:#181818;stroke-width:1.0;"/><polygon fill="#181818" points="1535.39,531,1526.39,527,1530.39,531,1526.39,535,1535.39,531" style="stroke:#181818;stroke-width:1.0;"/><text fill="#000000" font-family="sans-serif" font-size="13" lengthAdjust="spacing" textLength="28" x="1489" y="524.0283">uses</text></g><!--link Worker to SendMessageToGatewayActivity--><g id="link_Worker_SendMessageToGatewayActivity"><path codeLine="68" d="M1023,56.18 C1023,73.67 1023,79.7 1023,98.99 " fill="none" id="Worker-to-SendMessageToGatewayActivity" style="stroke:#181818;stroke-width:1.0;"/><polygon fill="none" points="1023,116.99,1029,98.99,1017,98.99,1023,116.99" style="stroke:#181818;stroke-width:1.0;"/></g><!--link SendMessageToGatewayActivity to GatewayController--><g id="link_SendMessageToGatewayActivity_GatewayController"><path codeLine="69" d="M1023,184.24 C1023,215.23 1023,255.9 1023,289.49 " fill="none" id="SendMessageToGatewayActivity-to-GatewayController" style="stroke:#181818;stroke-width:1.0;"/><polygon fill="#181818" points="1023,295.49,1027,286.49,1023,290.49,1019,286.49,1023,295.49" style="stroke:#181818;stroke-width:1.0;"/><text fill="#000000" font-family="sans-serif" font-size="13" lengthAdjust="spacing" textLength="28" x="1024" y="229.0283">uses</text></g><!--link EmailGatewayController to GatewayResponse--><g id="link_EmailGatewayController_GatewayResponse"><path codeLine="70" d="M1152.89,564.64 C1159.85,597.66 1169.5523,643.5991 1178.0823,684.0591 " fill="none" id="EmailGatewayController-to-GatewayResponse" style="stroke:#181818;stroke-width:1.0;"/><polygon fill="#181818" points="1179.32,689.93,1181.3773,680.2984,1178.2885,685.0375,1173.5494,681.9487,1179.32,689.93" style="stroke:#181818;stroke-width:1.0;"/><text fill="#000000" font-family="sans-serif" font-size="13" lengthAdjust="spacing" textLength="40" x="1172" y="656.0283">returns</text></g><!--SRC=[lLPTRzem57tdLrprOGALx0TKADF6ghA7IbMXshDnBi4biJFRWI7M_xwRn2492Q5eK_EI3vzhdtFlkOwvYXCbKLhugVG6DHm6RuE1a1RrYd64EShW4OrX8IxK0xEuO_klt8gji7l20bstyCYIoTng8SCn57SVXDog3Rg8OV4LKeFwHr22O4TBhYArUqvbxMjOnBpeQ0nF6bUeKN8qa5JFeunamlY6QC7DLCLnAWLdLYW9RiaRO0PuVSGDEDRyA3myViy7QEO2435ZOCRCUePHacS6t7LRKesBp6IWOQyc1vmgIgoqnB-zagFtZBzIDBQscWUDxBM_DvPia6GoO3g01xHKJmFqIWNDduT72XqC36N6u3KKQebe3wBMIZiJNKqllrT-T1opH6eLHLIMoUA5I8rXuP8B-9jkWG7txjVhTZ2MlC3Ve1HvBoqvUN8YtGT3KpHyDJofJzXu7PV4dhGYhrY1vfINNuPKa35CEmmwHxqL7Dln_3nuLDDuILgY5RMGQUhfbzTXblkOYQXT3H4d4SQPnpjATVX0bcnfh6RSDhrTvVwoR_wz1RrohkyOYItglj9suMeJPG4EVMQIBtxEhWbgKAcvPoQCLPfsyYp7b9Ij2AW-_2Aafts78_XKjM_sd5AglwKYehZcTjDgPyUsLHF_6iUSRTchUhB3wbSqQTj4xOOenPxNzh-aDBH8PH6q2DSMrAfFqv5MksVKyXMpbc8IbWXS8o42MEw17OEMHS7ppJoXxD6uLM3Nmj1FmgvLy3c7ai2SKS6jXmrudb_x2zzb9ZTvq9aTACFtpFUE2VosybgKEoTvtX-_ztIKWtkFJrwrKhNyE_W5LLpfcplGQ5CjJNOm-Wi0]--></g></svg>