<?xml version="1.0" encoding="us-ascii" standalone="no"?><svg xmlns="http://www.w3.org/2000/svg" xmlns:xlink="http://www.w3.org/1999/xlink" contentStyleType="text/css" height="610.2px" preserveAspectRatio="none" style="width:1279px;height:610px;background:#FFFFFF;" version="1.1" viewBox="0 0 1279 610" width="1279.8px" zoomAndPan="magnify"><defs/><g><!--cluster communicationApis--><g id="cluster_communicationApis"><path d="M30.492,135.6 L116.292,135.6 A2.25,2.25 0 0 1 117.792,137.1 L121.992,150.3727 L1274.292,150.3727 A1.5,1.5 0 0 1 1275.792,151.8727 L1275.792,604.5 A1.5,1.5 0 0 1 1274.292,606 L30.492,606 A1.5,1.5 0 0 1 28.992,604.5 L28.992,137.1 A1.5,1.5 0 0 1 30.492,135.6 " fill="none" style="stroke:#000000;stroke-width:0.8999999999999999;"/><line style="stroke:#000000;stroke-width:0.8999999999999999;" x1="28.992" x2="121.992" y1="150.3727" y2="150.3727"/><text fill="#000000" font-family="sans-serif" font-size="8.4" font-weight="bold" lengthAdjust="spacing" textLength="85.2" x="31.392" y="145.8645">Communication APIs</text></g><!--entity webportalBFFApi--><g id="elem_webportalBFFApi"><rect fill="#F1F1F1" height="29.1727" rx="1.5" ry="1.5" style="stroke:#181818;stroke-width:0.3;" width="88.8" x="905.592" y="74.1"/><rect fill="#F1F1F1" height="6" style="stroke:#181818;stroke-width:0.3;" width="9" x="982.392" y="77.1"/><rect fill="#F1F1F1" height="1.2" style="stroke:#181818;stroke-width:0.3;" width="2.4" x="981.192" y="78.3"/><rect fill="#F1F1F1" height="1.2" style="stroke:#181818;stroke-width:0.3;" width="2.4" x="981.192" y="80.7"/><text fill="#000000" font-family="sans-serif" font-size="8.4" lengthAdjust="spacing" textLength="64.8" x="914.592" y="95.1645">webportalBFFApi</text></g><!--entity temporal--><g id="elem_temporal"><rect fill="#F1F1F1" height="29.1727" rx="1.5" ry="1.5" style="stroke:#181818;stroke-width:0.3;" width="57" x="676.692" y="4.2"/><rect fill="#F1F1F1" height="6" style="stroke:#181818;stroke-width:0.3;" width="9" x="721.692" y="7.2"/><rect fill="#F1F1F1" height="1.2" style="stroke:#181818;stroke-width:0.3;" width="2.4" x="720.492" y="8.4"/><rect fill="#F1F1F1" height="1.2" style="stroke:#181818;stroke-width:0.3;" width="2.4" x="720.492" y="10.8"/><text fill="#000000" font-family="sans-serif" font-size="8.4" lengthAdjust="spacing" textLength="33" x="685.692" y="25.2645">temporal</text></g><!--class scheduleController--><g id="elem_scheduleController"><rect codeLine="24" fill="#F1F1F1" height="162.8719" id="scheduleController" rx="1.5" ry="1.5" style="stroke:#181818;stroke-width:0.3;" width="444" x="822.192" y="234.6"/><ellipse cx="1005.942" cy="244.2" fill="#B4A7E5" rx="6.6" ry="6.6" style="stroke:#181818;stroke-width:0.6;"/><path d="M1006.5139,242.1844 L1006.5139,246.1781 L1007.5451,246.1781 Q1007.9107,246.1781 1008.0701,246.3188 Q1008.2295,246.4594 1008.2295,246.6938 Q1008.2295,246.9188 1008.0701,247.0594 Q1007.9107,247.2 1007.5451,247.2 L1004.4608,247.2 Q1004.0951,247.2 1003.9357,247.0594 Q1003.7764,246.9188 1003.7764,246.6844 Q1003.7764,246.4594 1003.9357,246.3188 Q1004.0951,246.1781 1004.4608,246.1781 L1005.492,246.1781 L1005.492,242.1844 L1004.4608,242.1844 Q1004.0951,242.1844 1003.9357,242.0438 Q1003.7764,241.9031 1003.7764,241.6688 Q1003.7764,241.4438 1003.9357,241.3031 Q1004.0951,241.1625 1004.4608,241.1625 L1007.5451,241.1625 Q1007.9107,241.1625 1008.0701,241.3031 Q1008.2295,241.4438 1008.2295,241.6688 Q1008.2295,241.9031 1008.0701,242.0438 Q1007.9107,242.1844 1007.5451,242.1844 L1006.5139,242.1844 Z " fill="#000000"/><text fill="#000000" font-family="sans-serif" font-size="8.4" font-style="italic" lengthAdjust="spacing" textLength="71.4" x="1018.242" y="247.6781">scheduleController</text><line style="stroke:#181818;stroke-width:0.3;" x1="822.792" x2="1265.592" y1="253.8" y2="253.8"/><line style="stroke:#181818;stroke-width:0.3;" x1="822.792" x2="1265.592" y1="258.6" y2="258.6"/><ellipse cx="828.792" cy="267.4863" fill="#84BE84" rx="1.8" ry="1.8" style="stroke:#038048;stroke-width:0.6;"/><text fill="#000000" font-family="sans-serif" font-size="8.4" lengthAdjust="spacing" textLength="403.2" x="834.192" y="270.0645">Schedule createSchedule(String endpointUrl, String userId, CalendarSpec calendarSpec, boolean paused)</text><ellipse cx="828.792" cy="278.659" fill="#84BE84" rx="1.8" ry="1.8" style="stroke:#038048;stroke-width:0.6;"/><text fill="#000000" font-family="sans-serif" font-size="8.4" lengthAdjust="spacing" textLength="177.6" x="834.192" y="281.2371">Schedule updateSchedule(Schedule schedule)</text><ellipse cx="828.792" cy="289.8316" fill="#84BE84" rx="1.8" ry="1.8" style="stroke:#038048;stroke-width:0.6;"/><text fill="#000000" font-family="sans-serif" font-size="8.4" lengthAdjust="spacing" textLength="312" x="834.192" y="292.4098">List&lt;Schedule&gt; getSchedules(Optional&lt;int&gt; pageNumber, Optional&lt;int&gt; pageSize)</text><ellipse cx="828.792" cy="301.0043" fill="#84BE84" rx="1.8" ry="1.8" style="stroke:#038048;stroke-width:0.6;"/><text fill="#000000" font-family="sans-serif" font-size="8.4" lengthAdjust="spacing" textLength="312" x="834.192" y="303.5824">List&lt;Schedule&gt; getSchedules(Optional&lt;int&gt; pageNumber, Optional&lt;int&gt; pageSize)</text><ellipse cx="828.792" cy="312.177" fill="#84BE84" rx="1.8" ry="1.8" style="stroke:#038048;stroke-width:0.6;"/><text fill="#000000" font-family="sans-serif" font-size="8.4" lengthAdjust="spacing" textLength="130.2" x="834.192" y="314.7551">void deleteScheduleById(String id)</text><ellipse cx="828.792" cy="323.3496" fill="#84BE84" rx="1.8" ry="1.8" style="stroke:#038048;stroke-width:0.6;"/><text fill="#000000" font-family="sans-serif" font-size="8.4" lengthAdjust="spacing" textLength="175.2" x="834.192" y="325.9277">Schedule schedule getScheduleById(String id)</text><ellipse cx="828.792" cy="334.5223" fill="#84BE84" rx="1.8" ry="1.8" style="stroke:#038048;stroke-width:0.6;"/><text fill="#000000" font-family="sans-serif" font-size="8.4" lengthAdjust="spacing" textLength="428.4" x="834.192" y="337.1004">List&lt;Schedule&gt; getSchedulesByGatewayId(String gatewayId, Optional&lt;int&gt; pageNumber, Optional&lt;int&gt; pageSize)</text><ellipse cx="828.792" cy="345.6949" fill="#84BE84" rx="1.8" ry="1.8" style="stroke:#038048;stroke-width:0.6;"/><text fill="#000000" font-family="sans-serif" font-size="8.4" lengthAdjust="spacing" textLength="321" x="834.192" y="348.273">List&lt;Schedule&gt; updateSchedulesByGatewayId(String gatewayId, Schedule schedule)</text><ellipse cx="828.792" cy="356.8676" fill="#84BE84" rx="1.8" ry="1.8" style="stroke:#038048;stroke-width:0.6;"/><text fill="#000000" font-family="sans-serif" font-size="8.4" lengthAdjust="spacing" textLength="198.6" x="834.192" y="359.4457">void deleteSchedulesByGatewayId(String gatewayId)</text><ellipse cx="828.792" cy="368.0402" fill="#84BE84" rx="1.8" ry="1.8" style="stroke:#038048;stroke-width:0.6;"/><text fill="#000000" font-family="sans-serif" font-size="8.4" lengthAdjust="spacing" textLength="199.8" x="834.192" y="370.6184">List&lt;Schedule&gt; getSchedulesByUserId(String userId)</text><ellipse cx="828.792" cy="379.2129" fill="#84BE84" rx="1.8" ry="1.8" style="stroke:#038048;stroke-width:0.6;"/><text fill="#000000" font-family="sans-serif" font-size="8.4" lengthAdjust="spacing" textLength="291" x="834.192" y="381.791">List&lt;Schedule&gt; updateSchedulesByUserId(String userId, Schedule schedule)</text><ellipse cx="828.792" cy="390.3855" fill="#84BE84" rx="1.8" ry="1.8" style="stroke:#038048;stroke-width:0.6;"/><text fill="#000000" font-family="sans-serif" font-size="8.4" lengthAdjust="spacing" textLength="168.6" x="834.192" y="392.9637">void deleteSchedulesByUserId(String userId)</text></g><!--class scheduleService--><g id="elem_scheduleService"><rect codeLine="39" fill="#F1F1F1" height="151.6992" id="scheduleService" rx="1.5" ry="1.5" style="stroke:#181818;stroke-width:0.3;" width="564.6" x="673.092" y="444.6"/><ellipse cx="921.942" cy="454.2" fill="#B4A7E5" rx="6.6" ry="6.6" style="stroke:#181818;stroke-width:0.6;"/><path d="M922.5139,452.1844 L922.5139,456.1781 L923.5451,456.1781 Q923.9107,456.1781 924.0701,456.3187 Q924.2295,456.4594 924.2295,456.6937 Q924.2295,456.9188 924.0701,457.0594 Q923.9107,457.2 923.5451,457.2 L920.4608,457.2 Q920.0951,457.2 919.9358,457.0594 Q919.7764,456.9188 919.7764,456.6844 Q919.7764,456.4594 919.9358,456.3187 Q920.0951,456.1781 920.4608,456.1781 L921.492,456.1781 L921.492,452.1844 L920.4608,452.1844 Q920.0951,452.1844 919.9358,452.0438 Q919.7764,451.9031 919.7764,451.6688 Q919.7764,451.4437 919.9358,451.3031 Q920.0951,451.1625 920.4608,451.1625 L923.5451,451.1625 Q923.9107,451.1625 924.0701,451.3031 Q924.2295,451.4437 924.2295,451.6688 Q924.2295,451.9031 924.0701,452.0438 Q923.9107,452.1844 923.5451,452.1844 L922.5139,452.1844 Z " fill="#000000"/><text fill="#000000" font-family="sans-serif" font-size="8.4" font-style="italic" lengthAdjust="spacing" textLength="61.8" x="934.242" y="457.6781">scheduleService</text><line style="stroke:#181818;stroke-width:0.3;" x1="673.692" x2="1237.092" y1="463.8" y2="463.8"/><line style="stroke:#181818;stroke-width:0.3;" x1="673.692" x2="1237.092" y1="468.6" y2="468.6"/><ellipse cx="679.692" cy="477.4863" fill="#84BE84" rx="1.8" ry="1.8" style="stroke:#038048;stroke-width:0.6;"/><text fill="#000000" font-family="sans-serif" font-size="8.4" lengthAdjust="spacing" textLength="403.2" x="685.092" y="480.0645">Schedule createSchedule(String endpointUrl, String userId, CalendarSpec calendarSpec, boolean paused)</text><ellipse cx="679.692" cy="488.659" fill="#84BE84" rx="1.8" ry="1.8" style="stroke:#038048;stroke-width:0.6;"/><text fill="#000000" font-family="sans-serif" font-size="8.4" lengthAdjust="spacing" textLength="441.6" x="685.092" y="491.2371">Schedule updateSchedule(String id, String endpointUrl, String userId, CalendarSpec calendarSpec, boolean paused)</text><ellipse cx="679.692" cy="499.8316" fill="#84BE84" rx="1.8" ry="1.8" style="stroke:#038048;stroke-width:0.6;"/><text fill="#000000" font-family="sans-serif" font-size="8.4" lengthAdjust="spacing" textLength="229.2" x="685.092" y="502.4098">List&lt;Schedule&gt; getSchedules(int pageNumber, int pageSize)</text><ellipse cx="679.692" cy="511.0043" fill="#84BE84" rx="1.8" ry="1.8" style="stroke:#038048;stroke-width:0.6;"/><text fill="#000000" font-family="sans-serif" font-size="8.4" lengthAdjust="spacing" textLength="130.2" x="685.092" y="513.5824">void deleteScheduleById(String id)</text><ellipse cx="679.692" cy="522.177" fill="#84BE84" rx="1.8" ry="1.8" style="stroke:#038048;stroke-width:0.6;"/><text fill="#000000" font-family="sans-serif" font-size="8.4" lengthAdjust="spacing" textLength="175.2" x="685.092" y="524.7551">Schedule schedule getScheduleById(String id)</text><ellipse cx="679.692" cy="533.3496" fill="#84BE84" rx="1.8" ry="1.8" style="stroke:#038048;stroke-width:0.6;"/><text fill="#000000" font-family="sans-serif" font-size="8.4" lengthAdjust="spacing" textLength="345.6" x="685.092" y="535.9277">List&lt;Schedule&gt; getSchedulesByGatewayId(String gatewayId, int pageNumber, int pageSize)</text><ellipse cx="679.692" cy="544.5223" fill="#84BE84" rx="1.8" ry="1.8" style="stroke:#038048;stroke-width:0.6;"/><text fill="#000000" font-family="sans-serif" font-size="8.4" lengthAdjust="spacing" textLength="198.6" x="685.092" y="547.1004">void deleteSchedulesByGatewayId(String gatewayId)</text><ellipse cx="679.692" cy="555.6949" fill="#84BE84" rx="1.8" ry="1.8" style="stroke:#038048;stroke-width:0.6;"/><text fill="#000000" font-family="sans-serif" font-size="8.4" lengthAdjust="spacing" textLength="549" x="685.092" y="558.273">List&lt;Schedule&gt; updateSchedulesByGatewayId(String gatewayId, String endpointUrl, String userId, CalendarSpec calendarSpec, boolean paused)</text><ellipse cx="679.692" cy="566.8676" fill="#84BE84" rx="1.8" ry="1.8" style="stroke:#038048;stroke-width:0.6;"/><text fill="#000000" font-family="sans-serif" font-size="8.4" lengthAdjust="spacing" textLength="199.8" x="685.092" y="569.4457">List&lt;Schedule&gt; getSchedulesByUserId(String userId)</text><ellipse cx="679.692" cy="578.0402" fill="#84BE84" rx="1.8" ry="1.8" style="stroke:#038048;stroke-width:0.6;"/><text fill="#000000" font-family="sans-serif" font-size="8.4" lengthAdjust="spacing" textLength="168.6" x="685.092" y="580.6184">void deleteSchedulesByUserId(String userId)</text><ellipse cx="679.692" cy="589.2129" fill="#84BE84" rx="1.8" ry="1.8" style="stroke:#038048;stroke-width:0.6;"/><text fill="#000000" font-family="sans-serif" font-size="8.4" lengthAdjust="spacing" textLength="519" x="685.092" y="591.791">List&lt;Schedule&gt; updateSchedulesByUserId(String userId, String endpointUrl, String userId, CalendarSpec calendarSpec, boolean paused)</text></g><!--class historyController--><g id="elem_historyController"><rect codeLine="62" fill="#F1F1F1" height="62.318" id="historyController" rx="1.5" ry="1.5" style="stroke:#181818;stroke-width:0.3;" width="667.2" x="60.792" y="284.7"/><ellipse cx="360.642" cy="294.3" fill="#B4A7E5" rx="6.6" ry="6.6" style="stroke:#181818;stroke-width:0.6;"/><path d="M361.2139,292.2844 L361.2139,296.2781 L362.2451,296.2781 Q362.6108,296.2781 362.7701,296.4188 Q362.9295,296.5594 362.9295,296.7938 Q362.9295,297.0188 362.7701,297.1594 Q362.6108,297.3 362.2451,297.3 L359.1608,297.3 Q358.7951,297.3 358.6358,297.1594 Q358.4764,297.0188 358.4764,296.7844 Q358.4764,296.5594 358.6358,296.4188 Q358.7951,296.2781 359.1608,296.2781 L360.192,296.2781 L360.192,292.2844 L359.1608,292.2844 Q358.7951,292.2844 358.6358,292.1438 Q358.4764,292.0031 358.4764,291.7688 Q358.4764,291.5438 358.6358,291.4031 Q358.7951,291.2625 359.1608,291.2625 L362.2451,291.2625 Q362.6108,291.2625 362.7701,291.4031 Q362.9295,291.5438 362.9295,291.7688 Q362.9295,292.0031 362.7701,292.1438 Q362.6108,292.2844 362.2451,292.2844 L361.2139,292.2844 Z " fill="#000000"/><text fill="#000000" font-family="sans-serif" font-size="8.4" font-style="italic" lengthAdjust="spacing" textLength="62.4" x="372.942" y="297.7781">historyController</text><line style="stroke:#181818;stroke-width:0.3;" x1="61.392" x2="727.392" y1="303.9" y2="303.9"/><line style="stroke:#181818;stroke-width:0.3;" x1="61.392" x2="727.392" y1="308.7" y2="308.7"/><ellipse cx="67.392" cy="317.5863" fill="#84BE84" rx="1.8" ry="1.8" style="stroke:#038048;stroke-width:0.6;"/><text fill="#000000" font-family="sans-serif" font-size="8.4" lengthAdjust="spacing" textLength="651.6" x="72.792" y="320.1645">List&lt;CommunicationWorkflow&gt; getWorkflows(Optional&lt;String&gt; userId, Optional&lt;String&gt; gatewayId, Optional&lt;int&gt; status, Optional&lt;int&gt; PageNumber, Optional&lt;int&gt; pageSize)</text><ellipse cx="67.392" cy="328.759" fill="#84BE84" rx="1.8" ry="1.8" style="stroke:#038048;stroke-width:0.6;"/><text fill="#000000" font-family="sans-serif" font-size="8.4" lengthAdjust="spacing" textLength="371.4" x="72.792" y="331.3371">int getWorkflowNumber(Optional&lt;String&gt; userId, Optional&lt;String&gt; gatewayId, Optional&lt;int&gt; status)</text><ellipse cx="67.392" cy="339.9316" fill="#84BE84" rx="1.8" ry="1.8" style="stroke:#038048;stroke-width:0.6;"/><text fill="#000000" font-family="sans-serif" font-size="8.4" lengthAdjust="spacing" textLength="194.4" x="72.792" y="342.5098">CommunicationWorkflow getWorkflowById(String id)</text></g><!--class historyService--><g id="elem_historyService"><rect codeLine="69" fill="#F1F1F1" height="62.318" id="historyService" rx="1.5" ry="1.5" style="stroke:#181818;stroke-width:0.3;" width="543" x="80.892" y="489.3"/><ellipse cx="323.442" cy="498.9" fill="#B4A7E5" rx="6.6" ry="6.6" style="stroke:#181818;stroke-width:0.6;"/><path d="M324.0139,496.8844 L324.0139,500.8781 L325.0451,500.8781 Q325.4107,500.8781 325.5701,501.0187 Q325.7295,501.1594 325.7295,501.3937 Q325.7295,501.6188 325.5701,501.7594 Q325.4107,501.9 325.0451,501.9 L321.9607,501.9 Q321.5951,501.9 321.4357,501.7594 Q321.2764,501.6188 321.2764,501.3844 Q321.2764,501.1594 321.4357,501.0187 Q321.5951,500.8781 321.9607,500.8781 L322.992,500.8781 L322.992,496.8844 L321.9607,496.8844 Q321.5951,496.8844 321.4357,496.7438 Q321.2764,496.6031 321.2764,496.3688 Q321.2764,496.1437 321.4357,496.0031 Q321.5951,495.8625 321.9607,495.8625 L325.0451,495.8625 Q325.4107,495.8625 325.5701,496.0031 Q325.7295,496.1437 325.7295,496.3688 Q325.7295,496.6031 325.5701,496.7438 Q325.4107,496.8844 325.0451,496.8844 L324.0139,496.8844 Z " fill="#000000"/><text fill="#000000" font-family="sans-serif" font-size="8.4" font-style="italic" lengthAdjust="spacing" textLength="52.8" x="335.742" y="502.3781">historyService</text><line style="stroke:#181818;stroke-width:0.3;" x1="81.492" x2="623.292" y1="508.5" y2="508.5"/><line style="stroke:#181818;stroke-width:0.3;" x1="81.492" x2="623.292" y1="513.3" y2="513.3"/><ellipse cx="87.492" cy="522.1863" fill="#84BE84" rx="1.8" ry="1.8" style="stroke:#038048;stroke-width:0.6;"/><text fill="#000000" font-family="sans-serif" font-size="8.4" lengthAdjust="spacing" textLength="527.4" x="92.892" y="524.7645">List&lt;CommunicationWorkflow&gt; getWorkflows(Optional&lt;String&gt; userId, Optional&lt;String&gt; gatewayId, int status, int PageNumber, int pageSize)</text><ellipse cx="87.492" cy="533.359" fill="#84BE84" rx="1.8" ry="1.8" style="stroke:#038048;stroke-width:0.6;"/><text fill="#000000" font-family="sans-serif" font-size="8.4" lengthAdjust="spacing" textLength="330" x="92.892" y="535.9371">int getWorkflowNumber(Optional&lt;String&gt; userId, Optional&lt;String&gt; gatewayId, int status)</text><ellipse cx="87.492" cy="544.5316" fill="#84BE84" rx="1.8" ry="1.8" style="stroke:#038048;stroke-width:0.6;"/><text fill="#000000" font-family="sans-serif" font-size="8.4" lengthAdjust="spacing" textLength="194.4" x="92.892" y="547.1098">CommunicationWorkflow getWorkflowById(String id)</text></g><!--entity scheduleApi--><g id="elem_scheduleApi"><rect fill="#F1F1F1" height="29.1727" rx="1.5" ry="1.5" style="stroke:#181818;stroke-width:0.3;" width="70.2" x="734.892" y="157.8"/><rect fill="#F1F1F1" height="6" style="stroke:#181818;stroke-width:0.3;" width="9" x="793.092" y="160.8"/><rect fill="#F1F1F1" height="1.2" style="stroke:#181818;stroke-width:0.3;" width="2.4" x="791.892" y="162"/><rect fill="#F1F1F1" height="1.2" style="stroke:#181818;stroke-width:0.3;" width="2.4" x="791.892" y="164.4"/><text fill="#000000" font-family="sans-serif" font-size="8.4" lengthAdjust="spacing" textLength="46.2" x="743.892" y="178.8645">scheduleApi</text></g><!--entity historyApi--><g id="elem_historyApi"><rect fill="#F1F1F1" height="29.1727" rx="1.5" ry="1.5" style="stroke:#181818;stroke-width:0.3;" width="61.2" x="363.792" y="157.8"/><rect fill="#F1F1F1" height="6" style="stroke:#181818;stroke-width:0.3;" width="9" x="412.992" y="160.8"/><rect fill="#F1F1F1" height="1.2" style="stroke:#181818;stroke-width:0.3;" width="2.4" x="411.792" y="162"/><rect fill="#F1F1F1" height="1.2" style="stroke:#181818;stroke-width:0.3;" width="2.4" x="411.792" y="164.4"/><text fill="#000000" font-family="sans-serif" font-size="8.4" lengthAdjust="spacing" textLength="37.2" x="372.792" y="178.8645">historyApi</text></g><!--entity workflowClient--><g id="elem_workflowClient"><ellipse cx="550.992" cy="88.8" fill="#F1F1F1" rx="4.8" ry="4.8" style="stroke:#181818;stroke-width:0.3;"/><text fill="#000000" font-family="sans-serif" font-size="8.4" lengthAdjust="spacing" textLength="53.4" x="524.292" y="108.0645">workflowClient</text></g><!--entity scheduleClient--><g id="elem_scheduleClient"><ellipse cx="705.192" cy="88.8" fill="#F1F1F1" rx="4.8" ry="4.8" style="stroke:#181818;stroke-width:0.3;"/><text fill="#000000" font-family="sans-serif" font-size="8.4" lengthAdjust="spacing" textLength="55.8" x="677.292" y="108.0645">scheduleClient</text></g><!--entity workflowServiceStubs--><g id="elem_workflowServiceStubs"><ellipse cx="804.192" cy="88.8" fill="#F1F1F1" rx="4.8" ry="4.8" style="stroke:#181818;stroke-width:0.3;"/><text fill="#000000" font-family="sans-serif" font-size="8.4" lengthAdjust="spacing" textLength="81.6" x="763.392" y="108.0645">workflowServiceStubs</text></g><!--link temporal to workflowServiceStubs--><g id="link_temporal_workflowServiceStubs"><path codeLine="14" d="M725.706,33.732 C748.812,49.77 776.0572,68.6835 789.7792,78.1995 " fill="none" id="temporal-to-workflowServiceStubs" style="stroke:#181818;stroke-width:0.6;"/><polygon fill="none" points="798.654,84.354,791.8307,75.2412,787.7277,81.1577,798.654,84.354" style="stroke:#181818;stroke-width:0.6;"/></g><!--link temporal to workflowClient--><g id="link_temporal_workflowClient"><path codeLine="15" d="M676.548,32.262 C638.922,49.026 585.2708,72.9258 566.3408,81.3618 " fill="none" id="temporal-to-workflowClient" style="stroke:#181818;stroke-width:0.6;"/><polygon fill="none" points="556.476,85.758,567.8062,84.6501,564.8754,78.0736,556.476,85.758" style="stroke:#181818;stroke-width:0.6;"/></g><!--link temporal to scheduleClient--><g id="link_temporal_scheduleClient"><path codeLine="16" d="M705.192,33.732 C705.192,49.218 705.192,62.328 705.192,72.522 " fill="none" id="temporal-to-scheduleClient" style="stroke:#181818;stroke-width:0.6;"/><polygon fill="none" points="705.192,83.322,708.792,72.522,701.592,72.522,705.192,83.322" style="stroke:#181818;stroke-width:0.6;"/></g><!--link scheduleApi to scheduleService--><g id="link_scheduleApi_scheduleService"><path codeLine="54" d="M766.638,187.362 C758.682,224.634 742.098,326.904 780.792,397.2 C790.572,414.972 796.1412,423.513 811.4532,437.343 " fill="none" id="scheduleApi-to-scheduleService" style="stroke:#181818;stroke-width:0.6;"/><polygon fill="none" points="819.468,444.582,813.8663,434.6714,809.0402,440.0146,819.468,444.582" style="stroke:#181818;stroke-width:0.6;"/><text fill="#000000" font-family="sans-serif" font-size="7.8" lengthAdjust="spacing" textLength="30" x="781.392" y="319.217">Realises</text></g><!--link scheduleApi to scheduleController--><g id="link_scheduleApi_scheduleController"><path codeLine="55" d="M797.286,187.254 C819.636,198.846 843.6367,211.2917 878.8987,229.5797 " fill="none" id="scheduleApi-to-scheduleController" style="stroke:#181818;stroke-width:0.6;"/><polygon fill="none" points="888.486,234.552,880.5561,226.3839,877.2413,232.7755,888.486,234.552" style="stroke:#181818;stroke-width:0.6;"/><text fill="#000000" font-family="sans-serif" font-size="7.8" lengthAdjust="spacing" textLength="30" x="851.592" y="214.217">Realises</text></g><!--link scheduleController to scheduleService--><g id="link_scheduleController_scheduleService"><path codeLine="56" d="M1008.84,397.476 C1002.066,412.986 996.4439,425.8625 989.7539,441.1925 " fill="none" id="scheduleController-to-scheduleService" style="stroke:#181818;stroke-width:0.6;"/><polygon fill="#181818" points="988.314,444.492,992.6735,440.5027,989.5139,441.7424,988.2742,438.5828,988.314,444.492" style="stroke:#181818;stroke-width:0.6;"/><text fill="#000000" font-family="sans-serif" font-size="7.8" lengthAdjust="spacing" textLength="18" x="1000.392" y="424.217">Uses</text></g><!--link historyApi to historyService--><g id="link_historyApi_historyService"><path codeLine="75" d="M363.588,173.766 C286.764,176.142 89.958,186.864 49.992,234.6 C3.6,290.01 9.624,337.26 49.992,397.2 C80.568,442.608 120.9626,467.6248 172.0826,485.6488 " fill="none" id="historyApi-to-historyService" style="stroke:#181818;stroke-width:0.6;"/><polygon fill="none" points="182.268,489.24,173.2796,482.2536,170.8855,489.0439,182.268,489.24" style="stroke:#181818;stroke-width:0.6;"/></g><!--link historyApi to historyController--><g id="link_historyApi_historyController"><path codeLine="76" d="M394.392,187.254 C394.392,209.802 394.392,243.612 394.392,273.75 " fill="none" id="historyApi-to-historyController" style="stroke:#181818;stroke-width:0.6;"/><polygon fill="none" points="394.392,284.55,397.992,273.75,390.792,273.75,394.392,284.55" style="stroke:#181818;stroke-width:0.6;"/></g><!--link historyController to historyService--><g id="link_historyController_historyService"><path codeLine="77" d="M388.056,347.172 C380.142,385.512 367.394,447.2364 359.468,485.6184 " fill="none" id="historyController-to-historyService" style="stroke:#181818;stroke-width:0.6;"/><polygon fill="#181818" points="358.74,489.144,362.1825,484.3409,359.3467,486.206,357.4817,483.3702,358.74,489.144" style="stroke:#181818;stroke-width:0.6;"/></g><!--link webportalBFFApi to historyController--><g id="link_webportalBFFApi_historyController"><path codeLine="82" d="M944.7,103.692 C933.9,130.686 906.588,188.934 862.992,216.6 C820.566,243.516 800.718,225.054 751.392,234.6 C674.58,249.462 592.5789,267.8699 524.5089,283.8359 " fill="none" id="webportalBFFApi-to-historyController" style="stroke:#181818;stroke-width:0.6;"/><polygon fill="#181818" points="521.004,284.658,526.8094,285.7615,523.9247,283.9729,525.7133,281.0883,521.004,284.658" style="stroke:#181818;stroke-width:0.6;"/></g><!--link webportalBFFApi to scheduleController--><g id="link_webportalBFFApi_scheduleController"><path codeLine="83" d="M955.884,103.53 C966.678,129.42 988.9802,182.9054 1009.1102,231.1694 " fill="none" id="webportalBFFApi-to-scheduleController" style="stroke:#181818;stroke-width:0.6;"/><polygon fill="#181818" points="1010.496,234.492,1010.6324,228.5843,1009.3412,231.7232,1006.2023,230.432,1010.496,234.492" style="stroke:#181818;stroke-width:0.6;"/></g><!--reverse link scheduleClient to scheduleApi--><g id="link_scheduleClient_scheduleApi"><path codeLine="84" d="M711.2736,97.1452 C720.8916,109.3912 743.994,138.798 758.79,157.644 " fill="none" id="scheduleClient-backto-scheduleApi" style="stroke:#181818;stroke-width:0.6;"/><polygon fill="#181818" points="709.05,94.314,710.498,100.0432,710.903,96.6733,714.2729,97.0784,709.05,94.314" style="stroke:#181818;stroke-width:0.6;"/></g><!--reverse link workflowClient to historyApi--><g id="link_workflowClient_historyApi"><path codeLine="85" d="M542.2333,94.0126 C522.6193,104.3506 459.108,137.808 421.236,157.758 " fill="none" id="workflowClient-backto-historyApi" style="stroke:#181818;stroke-width:0.6;"/><polygon fill="#181818" points="545.418,92.334,539.5219,92.7287,542.7641,93.7328,541.76,96.975,545.418,92.334" style="stroke:#181818;stroke-width:0.6;"/></g><!--SRC=[rLVRQkCm47ttLmnzIjdu1qe8D86MmD8DQy8-A_BK5LKi8yaDsRJ_ld9YnR8jkqtgBRj-aJKNpSoHZYvKR3AHOgfXY-jCI4tuxExkDcEm3uAt8A0dlKRp9mat2YCVNSDMoET7BhPppeo-a2ZwX77EiP9OcmZb2wCOwNojWY3mYM7o6kRXAKnG7xwfhOTgQeECq6UI85pDnMQJfumIpKGAjyk5kWAYWBfYKwqgoWNpLVNQ24PRwjwE3KiroaT2iQfNf5eApb7k3nR5zmsYKWjK8j5ekwD8IvOcW6cS2JFMIl8nbB9SeLp4OvWJRjH4HXbIe4vd36iXE98KCcACusjVl3oBQ_6itARhEdrdIa-inHGIrBQZHZ-o0Xt29oRBgGcOu4E-MQCSGriJiTzVCkwBO374oB4gSBPRn1PKvaV4LkxcqUtMa_jiTs-WtHB7Dx42N_eN0rQVmtVYziwm1x7UuJwCnEgmM4UrfNjEHJx_YshfJgIJiUN60_yaN-sQF8KPF7GVEqsSsjAr_V-AYPyeub9odCVOhv_OzmbxBhi-HVF10J1SFxJEkGrX-3fjSVu6VYBXJA7gjwzEzIuNno8CVO5MXKVZNl5ay19oLrwnlBjKQU8Clsy2NhlN_2glIeS9jntdd3q2EpqXsr9qdc5A4vshfdHvribMSC_9w-WuN79kA2ygRd3VLcCNJWj_to7nTy4leBAG5__B3snX0y9RXHy2rA9n5lk1MtLa-qognUzQDHZd6Qvud0JDjqpe63i3UytQv6uzDiBGtJLQBnMZhehw0m00]--></g></svg>