<?xml version="1.0" encoding="us-ascii" standalone="no"?><svg xmlns="http://www.w3.org/2000/svg" xmlns:xlink="http://www.w3.org/1999/xlink" contentStyleType="text/css" height="906px" preserveAspectRatio="none" style="width:2518px;height:906px;background:#FFFFFF;" version="1.1" viewBox="0 0 2518 906" width="2518px" zoomAndPan="magnify"><defs/><g><!--cluster communicationApis--><g id="cluster_communicationApis"><path d="M29.63,226 L172.63,226 A3.75,3.75 0 0 1 175.13,228.5 L182.13,250.6211 L2508.63,250.6211 A2.5,2.5 0 0 1 2511.13,253.1211 L2511.13,896.5 A2.5,2.5 0 0 1 2508.63,899 L29.63,899 A2.5,2.5 0 0 1 27.13,896.5 L27.13,228.5 A2.5,2.5 0 0 1 29.63,226 " fill="none" style="stroke:#000000;stroke-width:1.5;"/><line style="stroke:#000000;stroke-width:1.5;" x1="27.13" x2="182.13" y1="250.6211" y2="250.6211"/><text fill="#000000" font-family="sans-serif" font-size="14" font-weight="bold" lengthAdjust="spacing" textLength="142" x="31.13" y="243.1074">Communication APIs</text></g><!--entity webportalBFFApi--><g id="elem_webportalBFFApi"><rect fill="#F1F1F1" height="48.6211" rx="2.5" ry="2.5" style="stroke:#181818;stroke-width:0.5;" width="148" x="1474.13" y="123.5"/><rect fill="#F1F1F1" height="10" style="stroke:#181818;stroke-width:0.5;" width="15" x="1602.13" y="128.5"/><rect fill="#F1F1F1" height="2" style="stroke:#181818;stroke-width:0.5;" width="4" x="1600.13" y="130.5"/><rect fill="#F1F1F1" height="2" style="stroke:#181818;stroke-width:0.5;" width="4" x="1600.13" y="134.5"/><text fill="#000000" font-family="sans-serif" font-size="14" lengthAdjust="spacing" textLength="108" x="1489.13" y="158.6074">webportalBFFApi</text></g><!--entity temporal--><g id="elem_temporal"><rect fill="#F1F1F1" height="48.6211" rx="2.5" ry="2.5" style="stroke:#181818;stroke-width:0.5;" width="95" x="1093.63" y="7"/><rect fill="#F1F1F1" height="10" style="stroke:#181818;stroke-width:0.5;" width="15" x="1168.63" y="12"/><rect fill="#F1F1F1" height="2" style="stroke:#181818;stroke-width:0.5;" width="4" x="1166.63" y="14"/><rect fill="#F1F1F1" height="2" style="stroke:#181818;stroke-width:0.5;" width="4" x="1166.63" y="18"/><text fill="#000000" font-family="sans-serif" font-size="14" lengthAdjust="spacing" textLength="55" x="1108.63" y="42.1074">temporal</text></g><!--class scheduleController--><g id="elem_scheduleController"><rect codeLine="24" fill="#F1F1F1" height="196.9688" id="scheduleController" rx="2.5" ry="2.5" style="stroke:#181818;stroke-width:0.5;" width="1159" x="1335.63" y="391"/><ellipse cx="1851.38" cy="407" fill="#B4A7E5" rx="11" ry="11" style="stroke:#181818;stroke-width:1.0;"/><path d="M1852.3331,403.6406 L1852.3331,410.2969 L1854.0519,410.2969 Q1854.6613,410.2969 1854.9269,410.5313 Q1855.1925,410.7656 1855.1925,411.1563 Q1855.1925,411.5313 1854.9269,411.7656 Q1854.6613,412 1854.0519,412 L1848.9113,412 Q1848.3019,412 1848.0363,411.7656 Q1847.7706,411.5313 1847.7706,411.1406 Q1847.7706,410.7656 1848.0363,410.5313 Q1848.3019,410.2969 1848.9113,410.2969 L1850.63,410.2969 L1850.63,403.6406 L1848.9113,403.6406 Q1848.3019,403.6406 1848.0363,403.4063 Q1847.7706,403.1719 1847.7706,402.7813 Q1847.7706,402.4063 1848.0363,402.1719 Q1848.3019,401.9375 1848.9113,401.9375 L1854.0519,401.9375 Q1854.6613,401.9375 1854.9269,402.1719 Q1855.1925,402.4063 1855.1925,402.7813 Q1855.1925,403.1719 1854.9269,403.4063 Q1854.6613,403.6406 1854.0519,403.6406 L1852.3331,403.6406 Z " fill="#000000"/><text fill="#000000" font-family="sans-serif" font-size="14" font-style="italic" lengthAdjust="spacing" textLength="119" x="1871.88" y="412.7969">scheduleController</text><line style="stroke:#181818;stroke-width:0.5;" x1="1336.63" x2="2493.63" y1="423" y2="423"/><line style="stroke:#181818;stroke-width:0.5;" x1="1336.63" x2="2493.63" y1="431" y2="431"/><ellipse cx="1346.63" cy="445.8105" fill="#84BE84" rx="3" ry="3" style="stroke:#038048;stroke-width:1.0;"/><text fill="#000000" font-family="sans-serif" font-size="14" lengthAdjust="spacing" textLength="838" x="1355.63" y="450.1074">ResponseEntity&lt;ScheduleDescriptionDTO&gt; createSchedule(CreateScheduleDTO createScheduleDTO, BindingResult bindingResult)</text><ellipse cx="1346.63" cy="464.4316" fill="#84BE84" rx="3" ry="3" style="stroke:#038048;stroke-width:1.0;"/><text fill="#000000" font-family="sans-serif" font-size="14" lengthAdjust="spacing" textLength="842" x="1355.63" y="468.7285">ResponseEntity&lt;ScheduleDescriptionDTO&gt; updateSchedule(CreateScheduleDTO createScheduleDTO, BindingResult bindingResult)</text><ellipse cx="1346.63" cy="483.0527" fill="#84BE84" rx="3" ry="3" style="stroke:#038048;stroke-width:1.0;"/><text fill="#000000" font-family="sans-serif" font-size="14" lengthAdjust="spacing" textLength="1133" x="1355.63" y="487.3496">ResponseEntity&lt;ModifiedDTO&gt; batchUpdateSchedules(Optional&lt;String&gt; userId, Optional&lt;String&gt; gatewayId, SchedulePatchDTO schedulePatchDTO, BindingResult bindingResult)</text><ellipse cx="1346.63" cy="501.6738" fill="#84BE84" rx="3" ry="3" style="stroke:#038048;stroke-width:1.0;"/><text fill="#000000" font-family="sans-serif" font-size="14" lengthAdjust="spacing" textLength="983" x="1355.63" y="505.9707">ResponseEntity&lt;Page&lt;ScheduleListDescription&gt;&gt; getSchedules(String pageNumber, String pageSize, Optional&lt;String&gt; userId, Optional&lt;String&gt; gatewayId)</text><ellipse cx="1346.63" cy="520.2949" fill="#84BE84" rx="3" ry="3" style="stroke:#038048;stroke-width:1.0;"/><text fill="#000000" font-family="sans-serif" font-size="14" lengthAdjust="spacing" textLength="684" x="1355.63" y="524.5918">ResponseEntity&lt;ModifiedDTO&gt; batchDeleteSchedules(Optional&lt;String&gt; userId, Optional&lt;String&gt; gatewayId)</text><ellipse cx="1346.63" cy="538.916" fill="#84BE84" rx="3" ry="3" style="stroke:#038048;stroke-width:1.0;"/><text fill="#000000" font-family="sans-serif" font-size="14" lengthAdjust="spacing" textLength="655" x="1355.63" y="543.2129">ResponseEntity&lt;CountDTO&gt; getScheduleNumber(Optional&lt;String&gt; userId, Optional&lt;String&gt; gatewayId)</text><ellipse cx="1346.63" cy="557.5371" fill="#84BE84" rx="3" ry="3" style="stroke:#038048;stroke-width:1.0;"/><text fill="#000000" font-family="sans-serif" font-size="14" lengthAdjust="spacing" textLength="284" x="1355.63" y="561.834">ResponseEntity&lt;String&gt; deleteById(String id)</text><ellipse cx="1346.63" cy="576.1582" fill="#84BE84" rx="3" ry="3" style="stroke:#038048;stroke-width:1.0;"/><text fill="#000000" font-family="sans-serif" font-size="14" lengthAdjust="spacing" textLength="447" x="1355.63" y="580.4551">ResponseEntity&lt;ScheduleDescriptionDTO&gt; getScheduleById(String id)</text></g><!--class scheduleService--><g id="elem_scheduleService"><rect codeLine="35" fill="#F1F1F1" height="215.5898" id="scheduleService" rx="2.5" ry="2.5" style="stroke:#181818;stroke-width:0.5;" width="909" x="1353.63" y="667"/><ellipse cx="1752.38" cy="683" fill="#B4A7E5" rx="11" ry="11" style="stroke:#181818;stroke-width:1.0;"/><path d="M1753.3331,679.6406 L1753.3331,686.2969 L1755.0519,686.2969 Q1755.6613,686.2969 1755.9269,686.5313 Q1756.1925,686.7656 1756.1925,687.1563 Q1756.1925,687.5313 1755.9269,687.7656 Q1755.6613,688 1755.0519,688 L1749.9113,688 Q1749.3019,688 1749.0363,687.7656 Q1748.7706,687.5313 1748.7706,687.1406 Q1748.7706,686.7656 1749.0363,686.5313 Q1749.3019,686.2969 1749.9113,686.2969 L1751.63,686.2969 L1751.63,679.6406 L1749.9113,679.6406 Q1749.3019,679.6406 1749.0363,679.4063 Q1748.7706,679.1719 1748.7706,678.7813 Q1748.7706,678.4063 1749.0363,678.1719 Q1749.3019,677.9375 1749.9113,677.9375 L1755.0519,677.9375 Q1755.6613,677.9375 1755.9269,678.1719 Q1756.1925,678.4063 1756.1925,678.7813 Q1756.1925,679.1719 1755.9269,679.4063 Q1755.6613,679.6406 1755.0519,679.6406 L1753.3331,679.6406 Z " fill="#000000"/><text fill="#000000" font-family="sans-serif" font-size="14" font-style="italic" lengthAdjust="spacing" textLength="103" x="1772.88" y="688.7969">scheduleService</text><line style="stroke:#181818;stroke-width:0.5;" x1="1354.63" x2="2261.63" y1="699" y2="699"/><line style="stroke:#181818;stroke-width:0.5;" x1="1354.63" x2="2261.63" y1="707" y2="707"/><ellipse cx="1364.63" cy="721.8105" fill="#84BE84" rx="3" ry="3" style="stroke:#038048;stroke-width:1.0;"/><text fill="#000000" font-family="sans-serif" font-size="14" lengthAdjust="spacing" textLength="883" x="1373.63" y="726.1074">Page&lt;ScheduleListDescription&gt; getAllSchedules(String pageNumber, String pageSize, Optional&lt;String&gt; userId, Optional&lt;String&gt; gatewayId)</text><ellipse cx="1364.63" cy="740.4316" fill="#84BE84" rx="3" ry="3" style="stroke:#038048;stroke-width:1.0;"/><text fill="#000000" font-family="sans-serif" font-size="14" lengthAdjust="spacing" textLength="538" x="1373.63" y="744.7285">ScheduleDescriptionDTO createSchedule(CreateScheduleDTO createScheduleDTO)</text><ellipse cx="1364.63" cy="759.0527" fill="#84BE84" rx="3" ry="3" style="stroke:#038048;stroke-width:1.0;"/><text fill="#000000" font-family="sans-serif" font-size="14" lengthAdjust="spacing" textLength="500" x="1373.63" y="763.3496">ScheduleDescriptionDTO updateSchedule(CreateScheduleDTO scheduleDTO)</text><ellipse cx="1364.63" cy="777.6738" fill="#84BE84" rx="3" ry="3" style="stroke:#038048;stroke-width:1.0;"/><text fill="#000000" font-family="sans-serif" font-size="14" lengthAdjust="spacing" textLength="833" x="1373.63" y="781.9707">ModifiedDTO batchUpdateSchedules(Optional&lt;String&gt; userId, Optional&lt;String&gt; gatewayId, SchedulePatchDTO schedulePatchDTO)</text><ellipse cx="1364.63" cy="796.2949" fill="#84BE84" rx="3" ry="3" style="stroke:#038048;stroke-width:1.0;"/><text fill="#000000" font-family="sans-serif" font-size="14" lengthAdjust="spacing" textLength="389" x="1373.63" y="800.5918">ScheduleDescriptionDTO getScheduleById(String scheduleId)</text><ellipse cx="1364.63" cy="814.916" fill="#84BE84" rx="3" ry="3" style="stroke:#038048;stroke-width:1.0;"/><text fill="#000000" font-family="sans-serif" font-size="14" lengthAdjust="spacing" textLength="274" x="1373.63" y="819.2129">void deleteScheduleById(String scheduleId)</text><ellipse cx="1364.63" cy="833.5371" fill="#84BE84" rx="3" ry="3" style="stroke:#038048;stroke-width:1.0;"/><text fill="#000000" font-family="sans-serif" font-size="14" lengthAdjust="spacing" textLength="533" x="1373.63" y="837.834">CountDTO getScheduleCount (Optional&lt;String&gt; userId, Optional&lt;String&gt; gatewayId)</text><ellipse cx="1364.63" cy="852.1582" fill="#84BE84" rx="3" ry="3" style="stroke:#038048;stroke-width:1.0;"/><text fill="#000000" font-family="sans-serif" font-size="14" lengthAdjust="spacing" textLength="580" x="1373.63" y="856.4551">ModifiedDTO deleteSchedulesByFilter(Optional&lt;String&gt; userId, Optional&lt;String&gt; gatewayId)</text><rect fill="#F24D5C" height="6" style="stroke:#C82930;stroke-width:1.0;" width="6" x="1361.63" y="867.7793"/><text fill="#000000" font-family="sans-serif" font-size="14" lengthAdjust="spacing" textLength="539" x="1373.63" y="875.0762">RuntimeException handleScheduleException(ScheduleException e, String scheduleId)</text></g><!--class historyController--><g id="elem_historyController"><rect codeLine="56" fill="#F1F1F1" height="122.4844" id="historyController" rx="2.5" ry="2.5" style="stroke:#181818;stroke-width:0.5;" width="1098" x="80.13" y="428.5"/><ellipse cx="572.88" cy="444.5" fill="#B4A7E5" rx="11" ry="11" style="stroke:#181818;stroke-width:1.0;"/><path d="M573.8331,441.1406 L573.8331,447.7969 L575.5519,447.7969 Q576.1613,447.7969 576.4269,448.0313 Q576.6925,448.2656 576.6925,448.6563 Q576.6925,449.0313 576.4269,449.2656 Q576.1613,449.5 575.5519,449.5 L570.4113,449.5 Q569.8019,449.5 569.5363,449.2656 Q569.2706,449.0313 569.2706,448.6406 Q569.2706,448.2656 569.5363,448.0313 Q569.8019,447.7969 570.4113,447.7969 L572.13,447.7969 L572.13,441.1406 L570.4113,441.1406 Q569.8019,441.1406 569.5363,440.9063 Q569.2706,440.6719 569.2706,440.2813 Q569.2706,439.9063 569.5363,439.6719 Q569.8019,439.4375 570.4113,439.4375 L575.5519,439.4375 Q576.1613,439.4375 576.4269,439.6719 Q576.6925,439.9063 576.6925,440.2813 Q576.6925,440.6719 576.4269,440.9063 Q576.1613,441.1406 575.5519,441.1406 L573.8331,441.1406 Z " fill="#000000"/><text fill="#000000" font-family="sans-serif" font-size="14" font-style="italic" lengthAdjust="spacing" textLength="104" x="593.38" y="450.2969">historyController</text><line style="stroke:#181818;stroke-width:0.5;" x1="81.13" x2="1177.13" y1="460.5" y2="460.5"/><line style="stroke:#181818;stroke-width:0.5;" x1="81.13" x2="1177.13" y1="468.5" y2="468.5"/><ellipse cx="91.13" cy="483.3105" fill="#84BE84" rx="3" ry="3" style="stroke:#038048;stroke-width:1.0;"/><text fill="#000000" font-family="sans-serif" font-size="14" lengthAdjust="spacing" textLength="1072" x="100.13" y="487.6074">ResponseEntity&lt;Page&lt;WorkflowExecutionDTO&gt;&gt; getWorkflows(Optional&lt;String&gt; userId, Optional&lt;String&gt; gatewayId, Integer status, String PageNumber, String pageSize)</text><ellipse cx="91.13" cy="501.9316" fill="#84BE84" rx="3" ry="3" style="stroke:#038048;stroke-width:1.0;"/><text fill="#000000" font-family="sans-serif" font-size="14" lengthAdjust="spacing" textLength="540" x="100.13" y="506.2285">ResponseEntity&lt;WorkflowExecutionDTO&gt; getWorkflow(String workflowId, String runId)</text><ellipse cx="91.13" cy="520.5527" fill="#84BE84" rx="3" ry="3" style="stroke:#038048;stroke-width:1.0;"/><text fill="#000000" font-family="sans-serif" font-size="14" lengthAdjust="spacing" textLength="459" x="100.13" y="524.8496">ResponseEntity&lt;Void&gt; terminateWorkflow(String workflowId, String runId)</text><ellipse cx="91.13" cy="539.1738" fill="#84BE84" rx="3" ry="3" style="stroke:#038048;stroke-width:1.0;"/><text fill="#000000" font-family="sans-serif" font-size="14" lengthAdjust="spacing" textLength="917" x="100.13" y="543.4707">ResponseEntity&lt;TotalDTO&gt; getTotalWorkflows(Optional&lt;String&gt; userId, Optional&lt;String&gt; gatewayId, Optional&lt;String&gt; scheduleId, Integer status)</text></g><!--class historyService--><g id="elem_historyService"><rect codeLine="64" fill="#F1F1F1" height="141.1055" id="historyService" rx="2.5" ry="2.5" style="stroke:#181818;stroke-width:0.5;" width="1169" x="43.63" y="704.5"/><ellipse cx="579.88" cy="720.5" fill="#B4A7E5" rx="11" ry="11" style="stroke:#181818;stroke-width:1.0;"/><path d="M580.8331,717.1406 L580.8331,723.7969 L582.5519,723.7969 Q583.1613,723.7969 583.4269,724.0313 Q583.6925,724.2656 583.6925,724.6563 Q583.6925,725.0313 583.4269,725.2656 Q583.1613,725.5 582.5519,725.5 L577.4113,725.5 Q576.8019,725.5 576.5363,725.2656 Q576.2706,725.0313 576.2706,724.6406 Q576.2706,724.2656 576.5363,724.0313 Q576.8019,723.7969 577.4113,723.7969 L579.13,723.7969 L579.13,717.1406 L577.4113,717.1406 Q576.8019,717.1406 576.5363,716.9063 Q576.2706,716.6719 576.2706,716.2813 Q576.2706,715.9063 576.5363,715.6719 Q576.8019,715.4375 577.4113,715.4375 L582.5519,715.4375 Q583.1613,715.4375 583.4269,715.6719 Q583.6925,715.9063 583.6925,716.2813 Q583.6925,716.6719 583.4269,716.9063 Q583.1613,717.1406 582.5519,717.1406 L580.8331,717.1406 Z " fill="#000000"/><text fill="#000000" font-family="sans-serif" font-size="14" font-style="italic" lengthAdjust="spacing" textLength="88" x="600.38" y="726.2969">historyService</text><line style="stroke:#181818;stroke-width:0.5;" x1="44.63" x2="1211.63" y1="736.5" y2="736.5"/><line style="stroke:#181818;stroke-width:0.5;" x1="44.63" x2="1211.63" y1="744.5" y2="744.5"/><ellipse cx="54.63" cy="759.3105" fill="#84BE84" rx="3" ry="3" style="stroke:#038048;stroke-width:1.0;"/><text fill="#000000" font-family="sans-serif" font-size="14" lengthAdjust="spacing" textLength="1143" x="63.63" y="763.6074">Page&lt;WorkflowExecutionDTO&gt; getWorkflows(Optional&lt;String&gt; userId, Optional&lt;String&gt; gatewayId, Optional&lt;String&gt; scheduleId, Integer status, String PageNumber, String pageSize)</text><ellipse cx="54.63" cy="777.9316" fill="#84BE84" rx="3" ry="3" style="stroke:#038048;stroke-width:1.0;"/><text fill="#000000" font-family="sans-serif" font-size="14" lengthAdjust="spacing" textLength="399" x="63.63" y="782.2285">WorkflowExecutionDTO getWorkflowById(String id, String runId)</text><ellipse cx="54.63" cy="796.5527" fill="#84BE84" rx="3" ry="3" style="stroke:#038048;stroke-width:1.0;"/><text fill="#000000" font-family="sans-serif" font-size="14" lengthAdjust="spacing" textLength="289" x="63.63" y="800.8496">void terminateWorkflow(String id, String runId)</text><ellipse cx="54.63" cy="815.1738" fill="#84BE84" rx="3" ry="3" style="stroke:#038048;stroke-width:1.0;"/><text fill="#000000" font-family="sans-serif" font-size="14" lengthAdjust="spacing" textLength="802" x="63.63" y="819.4707">TotalDTO getTotalWorkflows(Optional&lt;String&gt; userId, Optional&lt;String&gt; gatewayId, Optional&lt;String&gt; scheduleId, Integer status)</text><rect fill="#F24D5C" height="6" style="stroke:#C82930;stroke-width:1.0;" width="6" x="51.63" y="830.7949"/><text fill="#000000" font-family="sans-serif" font-size="14" lengthAdjust="spacing" textLength="814" x="63.63" y="838.0918">String getWorkflowQueryString(Optional&lt;String&gt; userId, Optional&lt;String&gt; gatewayId, Optional&lt;String&gt; scheduleId, Integer status)</text></g><!--entity scheduleApi--><g id="elem_scheduleApi"><rect fill="#F1F1F1" height="48.6211" rx="2.5" ry="2.5" style="stroke:#181818;stroke-width:0.5;" width="117" x="1189.63" y="263"/><rect fill="#F1F1F1" height="10" style="stroke:#181818;stroke-width:0.5;" width="15" x="1286.63" y="268"/><rect fill="#F1F1F1" height="2" style="stroke:#181818;stroke-width:0.5;" width="4" x="1284.63" y="270"/><rect fill="#F1F1F1" height="2" style="stroke:#181818;stroke-width:0.5;" width="4" x="1284.63" y="274"/><text fill="#000000" font-family="sans-serif" font-size="14" lengthAdjust="spacing" textLength="77" x="1204.63" y="298.1074">scheduleApi</text></g><!--entity historyApi--><g id="elem_historyApi"><rect fill="#F1F1F1" height="48.6211" rx="2.5" ry="2.5" style="stroke:#181818;stroke-width:0.5;" width="102" x="578.13" y="263"/><rect fill="#F1F1F1" height="10" style="stroke:#181818;stroke-width:0.5;" width="15" x="660.13" y="268"/><rect fill="#F1F1F1" height="2" style="stroke:#181818;stroke-width:0.5;" width="4" x="658.13" y="270"/><rect fill="#F1F1F1" height="2" style="stroke:#181818;stroke-width:0.5;" width="4" x="658.13" y="274"/><text fill="#000000" font-family="sans-serif" font-size="14" lengthAdjust="spacing" textLength="62" x="593.13" y="298.1074">historyApi</text></g><!--entity workflowClient--><g id="elem_workflowClient"><ellipse cx="886.13" cy="148" fill="#F1F1F1" rx="8" ry="8" style="stroke:#181818;stroke-width:0.5;"/><text fill="#000000" font-family="sans-serif" font-size="14" lengthAdjust="spacing" textLength="89" x="841.63" y="180.1074">workflowClient</text></g><!--entity scheduleClient--><g id="elem_scheduleClient"><ellipse cx="1141.13" cy="148" fill="#F1F1F1" rx="8" ry="8" style="stroke:#181818;stroke-width:0.5;"/><text fill="#000000" font-family="sans-serif" font-size="14" lengthAdjust="spacing" textLength="93" x="1094.63" y="180.1074">scheduleClient</text></g><!--entity workflowServiceStubs--><g id="elem_workflowServiceStubs"><ellipse cx="1306.13" cy="148" fill="#F1F1F1" rx="8" ry="8" style="stroke:#181818;stroke-width:0.5;"/><text fill="#000000" font-family="sans-serif" font-size="14" lengthAdjust="spacing" textLength="136" x="1238.13" y="180.1074">workflowServiceStubs</text></g><!--link temporal to workflowServiceStubs--><g id="link_temporal_workflowServiceStubs"><path codeLine="14" d="M1175.32,56.22 C1213.83,82.95 1259.2387,114.4725 1282.1087,130.3325 " fill="none" id="temporal-to-workflowServiceStubs" style="stroke:#181818;stroke-width:1.0;"/><polygon fill="none" points="1296.9,140.59,1285.5279,125.402,1278.6895,135.2629,1296.9,140.59" style="stroke:#181818;stroke-width:1.0;"/></g><!--link temporal to workflowClient--><g id="link_temporal_workflowClient"><path codeLine="15" d="M1093.47,53.9 C1031.19,81.86 942.8212,121.5481 911.5912,135.5681 " fill="none" id="temporal-to-workflowClient" style="stroke:#181818;stroke-width:1.0;"/><polygon fill="none" points="895.17,142.94,914.0485,141.0418,909.1339,130.0944,895.17,142.94" style="stroke:#181818;stroke-width:1.0;"/></g><!--link temporal to scheduleClient--><g id="link_temporal_scheduleClient"><path codeLine="16" d="M1141.13,56.22 C1141.13,82.03 1141.13,103.88 1141.13,120.87 " fill="none" id="temporal-to-scheduleClient" style="stroke:#181818;stroke-width:1.0;"/><polygon fill="none" points="1141.13,138.87,1147.13,120.87,1135.13,120.87,1141.13,138.87" style="stroke:#181818;stroke-width:1.0;"/></g><!--link scheduleApi to scheduleService--><g id="link_scheduleApi_scheduleService"><path codeLine="48" d="M1241.59,312.08 C1227.93,366.87 1202.6,504.45 1266.13,588 C1290.29,619.78 1305.1563,636.2611 1338.4163,658.1611 " fill="none" id="scheduleApi-to-scheduleService" style="stroke:#181818;stroke-width:1.0;"/><polygon fill="none" points="1353.45,668.06,1341.716,653.1499,1335.1167,663.1723,1353.45,668.06" style="stroke:#181818;stroke-width:1.0;"/><text fill="#000000" font-family="sans-serif" font-size="13" lengthAdjust="spacing" textLength="50" x="1267.13" y="495.0283">Realises</text></g><!--link scheduleApi to scheduleController--><g id="link_scheduleApi_scheduleController"><path codeLine="49" d="M1306.74,306.07 C1371.59,325.52 1464.0984,353.2602 1572.6884,385.8202 " fill="none" id="scheduleApi-to-scheduleController" style="stroke:#181818;stroke-width:1.0;"/><polygon fill="none" points="1589.93,390.99,1574.4116,380.073,1570.9651,391.5674,1589.93,390.99" style="stroke:#181818;stroke-width:1.0;"/><text fill="#000000" font-family="sans-serif" font-size="13" lengthAdjust="spacing" textLength="50" x="1483.13" y="357.0283">Realises</text></g><!--link scheduleController to scheduleService--><g id="link_scheduleController_scheduleService"><path codeLine="50" d="M1878.31,588.06 C1868.76,613.37 1860.5406,635.1572 1850.8006,660.9372 " fill="none" id="scheduleController-to-scheduleService" style="stroke:#181818;stroke-width:1.0;"/><polygon fill="#181818" points="1848.68,666.55,1855.6027,659.5446,1850.4471,661.8727,1848.119,656.7171,1848.68,666.55" style="stroke:#181818;stroke-width:1.0;"/><text fill="#000000" font-family="sans-serif" font-size="13" lengthAdjust="spacing" textLength="30" x="1865.13" y="633.0283">Uses</text></g><!--link historyApi to historyService--><g id="link_historyApi_historyService"><path codeLine="72" d="M577.95,289.73 C451.12,293.96 127.79,312.41 62.13,391 C6,458.19 10.78,517.08 62.13,588 C94.77,633.08 182.6745,668.2585 293.6945,699.5385 " fill="none" id="historyApi-to-historyService" style="stroke:#181818;stroke-width:1.0;"/><polygon fill="none" points="311.02,704.42,295.3217,693.7634,292.0674,705.3137,311.02,704.42" style="stroke:#181818;stroke-width:1.0;"/></g><!--link historyApi to historyController--><g id="link_historyApi_historyController"><path codeLine="73" d="M629.13,312.23 C629.13,340.68 629.13,371.42 629.13,410.45 " fill="none" id="historyApi-to-historyController" style="stroke:#181818;stroke-width:1.0;"/><polygon fill="none" points="629.13,428.45,635.13,410.45,623.13,410.45,629.13,428.45" style="stroke:#181818;stroke-width:1.0;"/></g><!--link historyController to historyService--><g id="link_historyController_historyService"><path codeLine="74" d="M628.92,550.62 C628.76,595.65 628.5604,651.33 628.4004,698.48 " fill="none" id="historyController-to-historyService" style="stroke:#181818;stroke-width:1.0;"/><polygon fill="#181818" points="628.38,704.48,632.4105,695.4936,628.397,699.48,624.4106,695.4665,628.38,704.48" style="stroke:#181818;stroke-width:1.0;"/></g><!--link webportalBFFApi to historyController--><g id="link_webportalBFFApi_historyController"><path codeLine="79" d="M1539.31,172.83 C1521.32,217.83 1475.82,314.92 1403.13,361 C1332.04,406.07 1299.2,377.44 1216.13,391 C1142.59,403.01 1069.8192,415.0088 994.7092,427.4588 " fill="none" id="webportalBFFApi-to-historyController" style="stroke:#181818;stroke-width:1.0;"/><polygon fill="#181818" points="988.79,428.44,998.323,430.9144,993.7227,427.6224,997.0147,423.0221,988.79,428.44" style="stroke:#181818;stroke-width:1.0;"/></g><!--link webportalBFFApi to scheduleController--><g id="link_webportalBFFApi_scheduleController"><path codeLine="80" d="M1573.65,172.6 C1621.68,217.04 1723.6154,311.3357 1804.9554,386.5757 " fill="none" id="webportalBFFApi-to-scheduleController" style="stroke:#181818;stroke-width:1.0;"/><polygon fill="#181818" points="1809.36,390.65,1805.4693,381.6022,1805.6895,387.2548,1800.0369,387.475,1809.36,390.65" style="stroke:#181818;stroke-width:1.0;"/></g><!--reverse link scheduleClient to scheduleApi--><g id="link_scheduleClient_scheduleApi"><path codeLine="81" d="M1151.1844,161.9255 C1167.0644,182.3355 1205.2,231.33 1229.64,262.74 " fill="none" id="scheduleClient-backto-scheduleApi" style="stroke:#181818;stroke-width:1.0;"/><polygon fill="#181818" points="1147.5,157.19,1149.8697,166.7495,1150.5704,161.1362,1156.1837,161.8369,1147.5,157.19" style="stroke:#181818;stroke-width:1.0;"/></g><!--reverse link workflowClient to historyApi--><g id="link_workflowClient_historyApi"><path codeLine="82" d="M871.6901,156.7215 C839.5001,173.9515 735.34,229.68 673.18,262.93 " fill="none" id="workflowClient-backto-historyApi" style="stroke:#181818;stroke-width:1.0;"/><polygon fill="#181818" points="876.98,153.89,867.1575,154.6106,872.5718,156.2495,870.9328,161.6638,876.98,153.89" style="stroke:#181818;stroke-width:1.0;"/></g><!--SRC=[nLTVJ-Cm37_lfuXusWJz0YSqYGsG9jqTEmPtprbhjeWigPAKiGE- -xbPqwR_DjXWjvUkjcF_xDY_f95S9bA0C6G5iqGgG_dm-leYOUGb2Dw282hq1l2VeXmLAE_roKggnmSkLoFEK9z9TBI0EELGIfpD5DGJYs1gqfaEWg1DJCvVmpGimWHLztLjDLHT6oGqUgHp82SZkLocWaNKC2d8nMIiJmZL9FB5cAtEqYNuA_Dr4L2Rwzus3oOCg0SQGPcl54P9pa6zM0ltEoMteD6TXYjXc5cVJ_C5bw0ZnP8i-ENTpO142gW1f-sDAgzeKJD0oHaPCX4pCSS8AJTavh_rzqEH9l4HKVoGCNjW4DlGCsgYnNqblkxTM6YKdq-DGgy8K8CQnsUaePZZkXLTPpgtV99vp43hck0Gp1FigQ9ytvasNWa720DCYNw3ZIIuv6Uwd852RALeolv2IoAxC_nmLI-1mu5LtH5p95DXR42l09kSlo2QiuzjNaDSu4hDuZqRtuFTvQzpzdCA8-NadvAjRP95k-3yY8roIjeJtuDstk5q9uleTdTUvnwJ3jwHKKTxE4_LKZz95kUz-Vv5ReByK5P6UWVkl5_LAYezN5ypRWwTqP3S8awsXAld2AmzML0Hyo9E8Uyr90IALg_N1UVDFhrJc8JXww0nTzzmo2bd6lHs-_ACxbhYMOHXMw3xR4Njbh30wPPgdL-OMfaYD_7S-rpHTiByoQy-LyyGfOwbB74upPxJC4PGSmIW3JMfBee_wQQUVZVKLfG-IDVpxYPdvt4ZKgcezcdDzs-SeW7UvzII2OJ_2Hxl95vj7KBxSc0j6xgoXUk5hhPqepCwZv2T5Vvww1_jaJR8FkBg-TgzUvP6E_T_sqgtqVzjdpUicCFpKl-L0kwr5H-luxA7nr6M4gjjjysav2pVgaQKDNVPrs5G_vWCFKFFQQjPauyRNtjXw1DzurCHrML2_m00]--></g></svg>