<?xml version="1.0" encoding="us-ascii" standalone="no"?><svg xmlns="http://www.w3.org/2000/svg" xmlns:xlink="http://www.w3.org/1999/xlink" contentStyleType="text/css" height="389px" preserveAspectRatio="none" style="width:1874px;height:389px;background:#FFFFFF;" version="1.1" viewBox="0 0 1874 389" width="1874px" zoomAndPan="magnify"><defs/><g><!--cluster workerGroup--><g id="cluster_workerGroup"><path d="M451,6.0137 L501,6.0137 A3.75,3.75 0 0 1 503.5,8.5137 L510.5,30.6348 L1865,30.6348 A2.5,2.5 0 0 1 1867.5,33.1348 L1867.5,379.5137 A2.5,2.5 0 0 1 1865,382.0137 L451,382.0137 A2.5,2.5 0 0 1 448.5,379.5137 L448.5,8.5137 A2.5,2.5 0 0 1 451,6.0137 " fill="none" style="stroke:#000000;stroke-width:1.5;"/><line style="stroke:#000000;stroke-width:1.5;" x1="448.5" x2="510.5" y1="30.6348" y2="30.6348"/><text fill="#000000" font-family="sans-serif" font-size="14" font-weight="bold" lengthAdjust="spacing" textLength="49" x="452.5" y="23.1211">worker</text></g><!--entity temporal--><g id="elem_temporal"><rect fill="#F1F1F1" height="48.6211" rx="2.5" ry="2.5" style="stroke:#181818;stroke-width:0.5;" width="95" x="226" y="43.0137"/><rect fill="#F1F1F1" height="10" style="stroke:#181818;stroke-width:0.5;" width="15" x="301" y="48.0137"/><rect fill="#F1F1F1" height="2" style="stroke:#181818;stroke-width:0.5;" width="4" x="299" y="50.0137"/><rect fill="#F1F1F1" height="2" style="stroke:#181818;stroke-width:0.5;" width="4" x="299" y="54.0137"/><text fill="#000000" font-family="sans-serif" font-size="14" lengthAdjust="spacing" textLength="55" x="241" y="78.1211">temporal</text></g><!--class CommunicationWorkflow--><g id="elem_CommunicationWorkflow"><rect codeLine="19" fill="#F1F1F1" height="66.6211" id="CommunicationWorkflow" rx="2.5" ry="2.5" style="stroke:#181818;stroke-width:0.5;" width="472" x="557.5" y="171.0137"/><ellipse cx="711.25" cy="187.0137" fill="#B4A7E5" rx="11" ry="11" style="stroke:#181818;stroke-width:1.0;"/><path d="M712.2031,183.6543 L712.2031,190.3105 L713.9219,190.3105 Q714.5313,190.3105 714.7969,190.5449 Q715.0625,190.7793 715.0625,191.1699 Q715.0625,191.5449 714.7969,191.7793 Q714.5313,192.0137 713.9219,192.0137 L708.7813,192.0137 Q708.1719,192.0137 707.9063,191.7793 Q707.6406,191.5449 707.6406,191.1543 Q707.6406,190.7793 707.9063,190.5449 Q708.1719,190.3105 708.7813,190.3105 L710.5,190.3105 L710.5,183.6543 L708.7813,183.6543 Q708.1719,183.6543 707.9063,183.4199 Q707.6406,183.1855 707.6406,182.7949 Q707.6406,182.4199 707.9063,182.1855 Q708.1719,181.9512 708.7813,181.9512 L713.9219,181.9512 Q714.5313,181.9512 714.7969,182.1855 Q715.0625,182.4199 715.0625,182.7949 Q715.0625,183.1855 714.7969,183.4199 Q714.5313,183.6543 713.9219,183.6543 L712.2031,183.6543 Z " fill="#000000"/><text fill="#000000" font-family="sans-serif" font-size="14" font-style="italic" lengthAdjust="spacing" textLength="156" x="731.75" y="192.8105">CommunicationWorkflow</text><line style="stroke:#181818;stroke-width:0.5;" x1="558.5" x2="1028.5" y1="203.0137" y2="203.0137"/><line style="stroke:#181818;stroke-width:0.5;" x1="558.5" x2="1028.5" y1="211.0137" y2="211.0137"/><ellipse cx="568.5" cy="225.8242" fill="#84BE84" rx="3" ry="3" style="stroke:#038048;stroke-width:1.0;"/><text fill="#000000" font-family="sans-serif" font-size="14" lengthAdjust="spacing" textLength="446" x="577.5" y="230.1211">Map&lt;String, String&gt; sendCommunication(Map&lt;String, String&gt; payload)</text></g><!--class GetPreferencesActivity--><g id="elem_GetPreferencesActivity"><rect codeLine="23" fill="#F1F1F1" height="66.6211" id="GetPreferencesActivity" rx="2.5" ry="2.5" style="stroke:#181818;stroke-width:0.5;" width="214" x="464.5" y="299.0137"/><ellipse cx="497.05" cy="315.0137" fill="#B4A7E5" rx="11" ry="11" style="stroke:#181818;stroke-width:1.0;"/><path d="M498.0031,311.6543 L498.0031,318.3105 L499.7219,318.3105 Q500.3313,318.3105 500.5969,318.5449 Q500.8625,318.7793 500.8625,319.1699 Q500.8625,319.5449 500.5969,319.7793 Q500.3313,320.0137 499.7219,320.0137 L494.5813,320.0137 Q493.9719,320.0137 493.7063,319.7793 Q493.4406,319.5449 493.4406,319.1543 Q493.4406,318.7793 493.7063,318.5449 Q493.9719,318.3105 494.5813,318.3105 L496.3,318.3105 L496.3,311.6543 L494.5813,311.6543 Q493.9719,311.6543 493.7063,311.4199 Q493.4406,311.1855 493.4406,310.7949 Q493.4406,310.4199 493.7063,310.1855 Q493.9719,309.9512 494.5813,309.9512 L499.7219,309.9512 Q500.3313,309.9512 500.5969,310.1855 Q500.8625,310.4199 500.8625,310.7949 Q500.8625,311.1855 500.5969,311.4199 Q500.3313,311.6543 499.7219,311.6543 L498.0031,311.6543 Z " fill="#000000"/><text fill="#000000" font-family="sans-serif" font-size="14" font-style="italic" lengthAdjust="spacing" textLength="143" x="514.95" y="320.8105">GetPreferencesActivity</text><line style="stroke:#181818;stroke-width:0.5;" x1="465.5" x2="677.5" y1="331.0137" y2="331.0137"/><line style="stroke:#181818;stroke-width:0.5;" x1="465.5" x2="677.5" y1="339.0137" y2="339.0137"/><ellipse cx="475.5" cy="353.8242" fill="#84BE84" rx="3" ry="3" style="stroke:#038048;stroke-width:1.0;"/><text fill="#000000" font-family="sans-serif" font-size="14" lengthAdjust="spacing" textLength="188" x="484.5" y="358.1211">Preferences getPreferences()</text></g><!--class GetGatewayByIdActivity--><g id="elem_GetGatewayByIdActivity"><rect codeLine="27" fill="#F1F1F1" height="66.6211" id="GetGatewayByIdActivity" rx="2.5" ry="2.5" style="stroke:#181818;stroke-width:0.5;" width="339" x="714" y="299.0137"/><ellipse cx="804.75" cy="315.0137" fill="#B4A7E5" rx="11" ry="11" style="stroke:#181818;stroke-width:1.0;"/><path d="M805.7031,311.6543 L805.7031,318.3105 L807.4219,318.3105 Q808.0313,318.3105 808.2969,318.5449 Q808.5625,318.7793 808.5625,319.1699 Q808.5625,319.5449 808.2969,319.7793 Q808.0313,320.0137 807.4219,320.0137 L802.2813,320.0137 Q801.6719,320.0137 801.4063,319.7793 Q801.1406,319.5449 801.1406,319.1543 Q801.1406,318.7793 801.4063,318.5449 Q801.6719,318.3105 802.2813,318.3105 L804,318.3105 L804,311.6543 L802.2813,311.6543 Q801.6719,311.6543 801.4063,311.4199 Q801.1406,311.1855 801.1406,310.7949 Q801.1406,310.4199 801.4063,310.1855 Q801.6719,309.9512 802.2813,309.9512 L807.4219,309.9512 Q808.0313,309.9512 808.2969,310.1855 Q808.5625,310.4199 808.5625,310.7949 Q808.5625,311.1855 808.2969,311.4199 Q808.0313,311.6543 807.4219,311.6543 L805.7031,311.6543 Z " fill="#000000"/><text fill="#000000" font-family="sans-serif" font-size="14" font-style="italic" lengthAdjust="spacing" textLength="149" x="825.25" y="320.8105">GetGatewayByIdActivity</text><line style="stroke:#181818;stroke-width:0.5;" x1="715" x2="1052" y1="331.0137" y2="331.0137"/><line style="stroke:#181818;stroke-width:0.5;" x1="715" x2="1052" y1="339.0137" y2="339.0137"/><ellipse cx="725" cy="353.8242" fill="#84BE84" rx="3" ry="3" style="stroke:#038048;stroke-width:1.0;"/><text fill="#000000" font-family="sans-serif" font-size="14" lengthAdjust="spacing" textLength="313" x="734" y="358.1211">String getGatewayEndpointURL(String gatewayId)</text></g><!--class SendMessageToGatewayActivity--><g id="elem_SendMessageToGatewayActivity"><rect codeLine="31" fill="#F1F1F1" height="66.6211" id="SendMessageToGatewayActivity" rx="2.5" ry="2.5" style="stroke:#181818;stroke-width:0.5;" width="763" x="1088" y="299.0137"/><ellipse cx="1362.25" cy="315.0137" fill="#B4A7E5" rx="11" ry="11" style="stroke:#181818;stroke-width:1.0;"/><path d="M1363.2031,311.6543 L1363.2031,318.3105 L1364.9219,318.3105 Q1365.5313,318.3105 1365.7969,318.5449 Q1366.0625,318.7793 1366.0625,319.1699 Q1366.0625,319.5449 1365.7969,319.7793 Q1365.5313,320.0137 1364.9219,320.0137 L1359.7813,320.0137 Q1359.1719,320.0137 1358.9063,319.7793 Q1358.6406,319.5449 1358.6406,319.1543 Q1358.6406,318.7793 1358.9063,318.5449 Q1359.1719,318.3105 1359.7813,318.3105 L1361.5,318.3105 L1361.5,311.6543 L1359.7813,311.6543 Q1359.1719,311.6543 1358.9063,311.4199 Q1358.6406,311.1855 1358.6406,310.7949 Q1358.6406,310.4199 1358.9063,310.1855 Q1359.1719,309.9512 1359.7813,309.9512 L1364.9219,309.9512 Q1365.5313,309.9512 1365.7969,310.1855 Q1366.0625,310.4199 1366.0625,310.7949 Q1366.0625,311.1855 1365.7969,311.4199 Q1365.5313,311.6543 1364.9219,311.6543 L1363.2031,311.6543 Z " fill="#000000"/><text fill="#000000" font-family="sans-serif" font-size="14" font-style="italic" lengthAdjust="spacing" textLength="206" x="1382.75" y="320.8105">SendMessageToGatewayActivity</text><line style="stroke:#181818;stroke-width:0.5;" x1="1089" x2="1850" y1="331.0137" y2="331.0137"/><line style="stroke:#181818;stroke-width:0.5;" x1="1089" x2="1850" y1="339.0137" y2="339.0137"/><ellipse cx="1099" cy="353.8242" fill="#84BE84" rx="3" ry="3" style="stroke:#038048;stroke-width:1.0;"/><text fill="#000000" font-family="sans-serif" font-size="14" lengthAdjust="spacing" textLength="737" x="1108" y="358.1211">Map&lt;String, String&gt; invokeGateway(String userId, String workflowRunId, String gatewayUrl, Preferences preferences)</text></g><!--entity worker--><g id="elem_worker"><rect fill="#F1F1F1" height="48.6211" rx="2.5" ry="2.5" style="stroke:#181818;stroke-width:0.5;" width="82" x="752.5" y="43.0137"/><rect fill="#F1F1F1" height="10" style="stroke:#181818;stroke-width:0.5;" width="15" x="814.5" y="48.0137"/><rect fill="#F1F1F1" height="2" style="stroke:#181818;stroke-width:0.5;" width="4" x="812.5" y="50.0137"/><rect fill="#F1F1F1" height="2" style="stroke:#181818;stroke-width:0.5;" width="4" x="812.5" y="54.0137"/><text fill="#000000" font-family="sans-serif" font-size="14" lengthAdjust="spacing" textLength="42" x="767.5" y="78.1211">worker</text></g><!--entity workflowClient--><g id="elem_workflowClient"><ellipse cx="50.5" cy="204.5137" fill="#F1F1F1" rx="8" ry="8" style="stroke:#181818;stroke-width:0.5;"/><text fill="#000000" font-family="sans-serif" font-size="14" lengthAdjust="spacing" textLength="89" x="6" y="236.6211">workflowClient</text></g><!--entity scheduleClient--><g id="elem_scheduleClient"><ellipse cx="191.5" cy="204.5137" fill="#F1F1F1" rx="8" ry="8" style="stroke:#181818;stroke-width:0.5;"/><text fill="#000000" font-family="sans-serif" font-size="14" lengthAdjust="spacing" textLength="93" x="145" y="236.6211">scheduleClient</text></g><!--entity workflowServiceStubs--><g id="elem_workflowServiceStubs"><ellipse cx="356.5" cy="204.5137" fill="#F1F1F1" rx="8" ry="8" style="stroke:#181818;stroke-width:0.5;"/><text fill="#000000" font-family="sans-serif" font-size="14" lengthAdjust="spacing" textLength="136" x="288.5" y="236.6211">workflowServiceStubs</text></g><!--link temporal to workflowServiceStubs--><g id="link_temporal_workflowServiceStubs"><path codeLine="10" d="M287.96,92.0337 C306.91,122.8537 329.7509,160.0109 342.0809,180.0609 " fill="none" id="temporal-to-workflowServiceStubs" style="stroke:#181818;stroke-width:1.0;"/><polygon fill="none" points="351.51,195.3937,347.1919,176.9179,336.97,183.204,351.51,195.3937" style="stroke:#181818;stroke-width:1.0;"/></g><!--link temporal to workflowClient--><g id="link_temporal_workflowClient"><path codeLine="11" d="M234.66,92.0337 C181.5,124.2137 104.7083,170.6921 75.2383,188.5321 " fill="none" id="temporal-to-workflowClient" style="stroke:#181818;stroke-width:1.0;"/><polygon fill="none" points="59.84,197.8537,78.3455,193.6649,72.1311,183.3993,59.84,197.8537" style="stroke:#181818;stroke-width:1.0;"/></g><!--link temporal to scheduleClient--><g id="link_temporal_scheduleClient"><path codeLine="12" d="M259.22,92.0337 C240.5,122.8537 217.9554,159.9598 205.7754,180.0098 " fill="none" id="temporal-to-scheduleClient" style="stroke:#181818;stroke-width:1.0;"/><polygon fill="none" points="196.43,195.3937,210.9034,183.1249,200.6475,176.8947,196.43,195.3937" style="stroke:#181818;stroke-width:1.0;"/></g><!--link worker to CommunicationWorkflow--><g id="link_worker_CommunicationWorkflow"><path codeLine="35" d="M793.5,92.0337 C793.5,113.8637 793.5,128.5637 793.5,152.9137 " fill="none" id="worker-to-CommunicationWorkflow" style="stroke:#181818;stroke-width:1.0;"/><polygon fill="none" points="793.5,170.9137,799.5,152.9137,787.5,152.9137,793.5,170.9137" style="stroke:#181818;stroke-width:1.0;"/></g><!--link CommunicationWorkflow to GetPreferencesActivity--><g id="link_CommunicationWorkflow_GetPreferencesActivity"><path codeLine="36" d="M736.04,238.1237 C703.15,256.7937 667.2384,277.1826 634.3184,295.8626 " fill="none" id="CommunicationWorkflow-to-GetPreferencesActivity" style="stroke:#181818;stroke-width:1.0;"/><polygon fill="#181818" points="629.1,298.8237,638.9017,297.8609,633.4487,296.3561,634.9535,290.9031,629.1,298.8237" style="stroke:#181818;stroke-width:1.0;"/></g><!--link CommunicationWorkflow to SendMessageToGatewayActivity--><g id="link_CommunicationWorkflow_SendMessageToGatewayActivity"><path codeLine="37" d="M968.03,238.0437 C1068.57,256.7837 1188.6215,279.1647 1289.1515,297.8947 " fill="none" id="CommunicationWorkflow-to-SendMessageToGatewayActivity" style="stroke:#181818;stroke-width:1.0;"/><polygon fill="#181818" points="1295.05,298.9937,1286.9349,293.4129,1290.1346,298.0779,1285.4696,301.2776,1295.05,298.9937" style="stroke:#181818;stroke-width:1.0;"/></g><!--link CommunicationWorkflow to GetGatewayByIdActivity--><g id="link_CommunicationWorkflow_GetGatewayByIdActivity"><path codeLine="38" d="M816.91,238.2937 C830.24,256.9537 843.4016,275.382 856.7216,294.022 " fill="none" id="CommunicationWorkflow-to-GetGatewayByIdActivity" style="stroke:#181818;stroke-width:1.0;"/><polygon fill="#181818" points="860.21,298.9037,858.2318,289.2555,857.303,294.8356,851.7229,293.9067,860.21,298.9037" style="stroke:#181818;stroke-width:1.0;"/></g><!--link temporal to CommunicationWorkflow--><g id="link_temporal_CommunicationWorkflow"><path codeLine="41" d="M321.03,80.8537 C399,101.0937 550.7625,140.4959 662.4625,169.4959 " fill="none" id="temporal-to-CommunicationWorkflow" style="stroke:#181818;stroke-width:1.0;"/><polygon fill="#181818" points="668.27,171.0037,660.564,164.8704,663.4304,169.7472,658.5536,172.6137,668.27,171.0037" style="stroke:#181818;stroke-width:1.0;"/><text fill="#000000" font-family="sans-serif" font-size="13" lengthAdjust="spacing" textLength="28" x="549.5" y="137.042">uses</text></g><!--SRC=[XLFBQW8n5DtdAowkHkhyG16XbI92XU9KkauprsbmJ48Uob3xxqqw3ut4cat2FIVdt4V2v5v9WSA2HN_Ij8PlyaD8DeQZrBjjBO_pcdiyH0pxmjBLU8xqd0BrWJCihFiqX91K6AQdtEM33Odbhz7OwXebH56senN2ACYW7W4rq1uNMZhbYm2_s51TYxLHNrxOkB2ejvGXpEL-xmHdr78fFhgyEecm7c15rRImcejg0kq-0uEYZ6vcAPQYJIrfEKuxBz2-QToYHi7GF37B3zmsaVK53bL4pswBBgZ58ssUcsMP56sp2teTyqMKIdg9pVerwy4MMTxAlV3rhz0OFuPtsSaapL9juU8WTzZTwXsTGRqiUzBmkDPEN4Ixj3QwdaIzKUTpb70xUSZpqomzw3zM-Wda-Up6YEvS-gytz_qIqmj_SlYXWPOKU0mjDEGN]--></g></svg>