<?xml version="1.0" encoding="us-ascii" standalone="no"?><svg xmlns="http://www.w3.org/2000/svg" xmlns:xlink="http://www.w3.org/1999/xlink" contentStyleType="text/css" height="457px" preserveAspectRatio="none" style="width:1733px;height:457px;background:#FFFFFF;" version="1.1" viewBox="0 0 1733 457" width="1733px" zoomAndPan="magnify"><defs/><g><!--class WorkflowInterface--><g id="elem_WorkflowInterface"><rect codeLine="2" fill="#F1F1F1" height="48" id="WorkflowInterface" rx="2.5" ry="2.5" style="stroke:#181818;stroke-width:0.5;" width="147" x="153.5" y="93"/><ellipse cx="168.5" cy="109" fill="#B4A7E5" rx="11" ry="11" style="stroke:#181818;stroke-width:1.0;"/><path d="M169.4531,105.6406 L169.4531,112.2969 L171.1719,112.2969 Q171.7813,112.2969 172.0469,112.5313 Q172.3125,112.7656 172.3125,113.1563 Q172.3125,113.5313 172.0469,113.7656 Q171.7813,114 171.1719,114 L166.0313,114 Q165.4219,114 165.1563,113.7656 Q164.8906,113.5313 164.8906,113.1406 Q164.8906,112.7656 165.1563,112.5313 Q165.4219,112.2969 166.0313,112.2969 L167.75,112.2969 L167.75,105.6406 L166.0313,105.6406 Q165.4219,105.6406 165.1563,105.4063 Q164.8906,105.1719 164.8906,104.7813 Q164.8906,104.4063 165.1563,104.1719 Q165.4219,103.9375 166.0313,103.9375 L171.1719,103.9375 Q171.7813,103.9375 172.0469,104.1719 Q172.3125,104.4063 172.3125,104.7813 Q172.3125,105.1719 172.0469,105.4063 Q171.7813,105.6406 171.1719,105.6406 L169.4531,105.6406 Z " fill="#000000"/><text fill="#000000" font-family="sans-serif" font-size="14" font-style="italic" lengthAdjust="spacing" textLength="115" x="182.5" y="114.7969">WorkflowInterface</text><line style="stroke:#181818;stroke-width:0.5;" x1="154.5" x2="299.5" y1="125" y2="125"/><line style="stroke:#181818;stroke-width:0.5;" x1="154.5" x2="299.5" y1="133" y2="133"/></g><!--class ActivityInterface--><g id="elem_ActivityInterface"><rect codeLine="5" fill="#F1F1F1" height="48" id="ActivityInterface" rx="2.5" ry="2.5" style="stroke:#181818;stroke-width:0.5;" width="131" x="857.5" y="93"/><ellipse cx="872.5" cy="109" fill="#B4A7E5" rx="11" ry="11" style="stroke:#181818;stroke-width:1.0;"/><path d="M873.4531,105.6406 L873.4531,112.2969 L875.1719,112.2969 Q875.7813,112.2969 876.0469,112.5313 Q876.3125,112.7656 876.3125,113.1563 Q876.3125,113.5313 876.0469,113.7656 Q875.7813,114 875.1719,114 L870.0313,114 Q869.4219,114 869.1563,113.7656 Q868.8906,113.5313 868.8906,113.1406 Q868.8906,112.7656 869.1563,112.5313 Q869.4219,112.2969 870.0313,112.2969 L871.75,112.2969 L871.75,105.6406 L870.0313,105.6406 Q869.4219,105.6406 869.1563,105.4063 Q868.8906,105.1719 868.8906,104.7813 Q868.8906,104.4063 869.1563,104.1719 Q869.4219,103.9375 870.0313,103.9375 L875.1719,103.9375 Q875.7813,103.9375 876.0469,104.1719 Q876.3125,104.4063 876.3125,104.7813 Q876.3125,105.1719 876.0469,105.4063 Q875.7813,105.6406 875.1719,105.6406 L873.4531,105.6406 Z " fill="#000000"/><text fill="#000000" font-family="sans-serif" font-size="14" font-style="italic" lengthAdjust="spacing" textLength="99" x="886.5" y="114.7969">ActivityInterface</text><line style="stroke:#181818;stroke-width:0.5;" x1="858.5" x2="987.5" y1="125" y2="125"/><line style="stroke:#181818;stroke-width:0.5;" x1="858.5" x2="987.5" y1="133" y2="133"/></g><g id="elem_GMN4"><path d="M133.5,6 L133.5,33.291 A0,0 0 0 0 133.5,33.291 L223,33.291 L227,92.72 L231,33.291 L320.5,33.291 A0,0 0 0 0 320.5,33.291 L320.5,16 L310.5,6 L133.5,6 A0,0 0 0 0 133.5,6 " fill="#FEFFDD" style="stroke:#181818;stroke-width:0.5;"/><path d="M310.5,6 L310.5,16 L320.5,16 L310.5,6 " fill="#FEFFDD" style="stroke:#181818;stroke-width:0.5;"/><text fill="#000000" font-family="sans-serif" font-size="13" lengthAdjust="spacing" textLength="166" x="139.5" y="25.0283">Interface from Temporal SDK</text></g><g id="elem_GMN7"><path d="M829.5,6 L829.5,33.291 A0,0 0 0 0 829.5,33.291 L919,33.291 L923,92.72 L927,33.291 L1016.5,33.291 A0,0 0 0 0 1016.5,33.291 L1016.5,16 L1006.5,6 L829.5,6 A0,0 0 0 0 829.5,6 " fill="#FEFFDD" style="stroke:#181818;stroke-width:0.5;"/><path d="M1006.5,6 L1006.5,16 L1016.5,16 L1006.5,6 " fill="#FEFFDD" style="stroke:#181818;stroke-width:0.5;"/><text fill="#000000" font-family="sans-serif" font-size="13" lengthAdjust="spacing" textLength="166" x="835.5" y="25.0283">Interface from Temporal SDK</text></g><!--class CommunicationWorkflow--><g id="elem_CommunicationWorkflow"><rect codeLine="17" fill="#F1F1F1" height="66.6211" id="CommunicationWorkflow" rx="2.5" ry="2.5" style="stroke:#181818;stroke-width:0.5;" width="384" x="35" y="201"/><ellipse cx="144.75" cy="217" fill="#B4A7E5" rx="11" ry="11" style="stroke:#181818;stroke-width:1.0;"/><path d="M145.7031,213.6406 L145.7031,220.2969 L147.4219,220.2969 Q148.0313,220.2969 148.2969,220.5313 Q148.5625,220.7656 148.5625,221.1563 Q148.5625,221.5313 148.2969,221.7656 Q148.0313,222 147.4219,222 L142.2813,222 Q141.6719,222 141.4063,221.7656 Q141.1406,221.5313 141.1406,221.1406 Q141.1406,220.7656 141.4063,220.5313 Q141.6719,220.2969 142.2813,220.2969 L144,220.2969 L144,213.6406 L142.2813,213.6406 Q141.6719,213.6406 141.4063,213.4063 Q141.1406,213.1719 141.1406,212.7813 Q141.1406,212.4063 141.4063,212.1719 Q141.6719,211.9375 142.2813,211.9375 L147.4219,211.9375 Q148.0313,211.9375 148.2969,212.1719 Q148.5625,212.4063 148.5625,212.7813 Q148.5625,213.1719 148.2969,213.4063 Q148.0313,213.6406 147.4219,213.6406 L145.7031,213.6406 Z " fill="#000000"/><text fill="#000000" font-family="sans-serif" font-size="14" font-style="italic" lengthAdjust="spacing" textLength="156" x="165.25" y="222.7969">CommunicationWorkflow</text><line style="stroke:#181818;stroke-width:0.5;" x1="36" x2="418" y1="233" y2="233"/><line style="stroke:#181818;stroke-width:0.5;" x1="36" x2="418" y1="241" y2="241"/><ellipse cx="46" cy="255.8105" fill="#84BE84" rx="3" ry="3" style="stroke:#038048;stroke-width:1.0;"/><text fill="#000000" font-family="sans-serif" font-size="14" lengthAdjust="spacing" textLength="358" x="55" y="260.1074">String sendCommunication(Map&lt;String, String&gt; payload)</text></g><!--class CommunicationWorkflowImpl--><g id="elem_CommunicationWorkflowImpl"><rect codeLine="21" fill="#F1F1F1" height="122.4844" id="CommunicationWorkflowImpl" rx="2.5" ry="2.5" style="stroke:#181818;stroke-width:0.5;" width="440" x="7" y="328"/><ellipse cx="133.25" cy="344" fill="#ADD1B2" rx="11" ry="11" style="stroke:#181818;stroke-width:1.0;"/><path d="M136.0156,339.875 Q136.1719,339.6563 136.3594,339.5469 Q136.5469,339.4375 136.7656,339.4375 Q137.1406,339.4375 137.375,339.7031 Q137.6094,339.9531 137.6094,340.5625 L137.6094,342.0156 Q137.6094,342.625 137.375,342.8906 Q137.1406,343.1563 136.7656,343.1563 Q136.4219,343.1563 136.2188,342.9531 Q136.0156,342.7656 135.9063,342.25 Q135.8594,341.8906 135.6719,341.7031 Q135.3438,341.3281 134.7344,341.1094 Q134.125,340.8906 133.5,340.8906 Q132.7344,340.8906 132.0938,341.2188 Q131.4688,341.5469 130.9688,342.2969 Q130.4844,343.0469 130.4844,344.0781 L130.4844,345.1719 Q130.4844,346.4063 131.375,347.2344 Q132.2656,348.0469 133.8594,348.0469 Q134.7969,348.0469 135.4531,347.7969 Q135.8438,347.6406 136.2656,347.2031 Q136.5313,346.9375 136.6719,346.8594 Q136.8281,346.7813 137.0313,346.7813 Q137.3594,346.7813 137.6094,347.0469 Q137.875,347.2969 137.875,347.6406 Q137.875,347.9844 137.5313,348.3906 Q137.0313,348.9688 136.2344,349.2969 Q135.1563,349.75 133.8594,349.75 Q132.3438,349.75 131.1406,349.125 Q130.1563,348.625 129.4688,347.5625 Q128.7813,346.4844 128.7813,345.2031 L128.7813,344.0469 Q128.7813,342.7188 129.3906,341.5781 Q130.0156,340.4219 131.1094,339.8125 Q132.2031,339.1875 133.4375,339.1875 Q134.1719,339.1875 134.8125,339.3594 Q135.4688,339.5156 136.0156,339.875 Z " fill="#000000"/><text fill="#000000" font-family="sans-serif" font-size="14" lengthAdjust="spacing" textLength="179" x="153.75" y="349.7969">CommunicationWorkflowImpl</text><line style="stroke:#181818;stroke-width:0.5;" x1="8" x2="446" y1="360" y2="360"/><rect fill="none" height="6" style="stroke:#C82930;stroke-width:1.0;" width="6" x="15" y="371.8105"/><text fill="#000000" font-family="sans-serif" font-size="14" lengthAdjust="spacing" textLength="189" x="27" y="379.1074">ActivityOptions activityOptions</text><rect fill="none" height="6" style="stroke:#C82930;stroke-width:1.0;" width="6" x="15" y="390.4316"/><text fill="#000000" font-family="sans-serif" font-size="14" lengthAdjust="spacing" textLength="347" x="27" y="397.7285">GetGatewayFromDbActivity getGatewayFromDbActivity</text><rect fill="none" height="6" style="stroke:#C82930;stroke-width:1.0;" width="6" x="15" y="409.0527"/><text fill="#000000" font-family="sans-serif" font-size="14" lengthAdjust="spacing" textLength="414" x="27" y="416.3496">SendMessageToGatewayActivity sendMessageToGatewayActivity</text><line style="stroke:#181818;stroke-width:0.5;" x1="8" x2="446" y1="423.8633" y2="423.8633"/><ellipse cx="18" cy="438.6738" fill="#84BE84" rx="3" ry="3" style="stroke:#038048;stroke-width:1.0;"/><text fill="#000000" font-family="sans-serif" font-size="14" lengthAdjust="spacing" textLength="358" x="27" y="442.9707">String sendCommunication(Map&lt;String, String&gt; payload)</text></g><!--class GetSettingsActivity--><g id="elem_GetSettingsActivity"><rect codeLine="29" fill="#F1F1F1" height="66.6211" id="GetSettingsActivity" rx="2.5" ry="2.5" style="stroke:#181818;stroke-width:0.5;" width="236" x="482" y="201"/><ellipse cx="537.25" cy="217" fill="#B4A7E5" rx="11" ry="11" style="stroke:#181818;stroke-width:1.0;"/><path d="M538.2031,213.6406 L538.2031,220.2969 L539.9219,220.2969 Q540.5313,220.2969 540.7969,220.5313 Q541.0625,220.7656 541.0625,221.1563 Q541.0625,221.5313 540.7969,221.7656 Q540.5313,222 539.9219,222 L534.7813,222 Q534.1719,222 533.9063,221.7656 Q533.6406,221.5313 533.6406,221.1406 Q533.6406,220.7656 533.9063,220.5313 Q534.1719,220.2969 534.7813,220.2969 L536.5,220.2969 L536.5,213.6406 L534.7813,213.6406 Q534.1719,213.6406 533.9063,213.4063 Q533.6406,213.1719 533.6406,212.7813 Q533.6406,212.4063 533.9063,212.1719 Q534.1719,211.9375 534.7813,211.9375 L539.9219,211.9375 Q540.5313,211.9375 540.7969,212.1719 Q541.0625,212.4063 541.0625,212.7813 Q541.0625,213.1719 540.7969,213.4063 Q540.5313,213.6406 539.9219,213.6406 L538.2031,213.6406 Z " fill="#000000"/><text fill="#000000" font-family="sans-serif" font-size="14" font-style="italic" lengthAdjust="spacing" textLength="117" x="557.75" y="222.7969">GetSettingsActivity</text><line style="stroke:#181818;stroke-width:0.5;" x1="483" x2="717" y1="233" y2="233"/><line style="stroke:#181818;stroke-width:0.5;" x1="483" x2="717" y1="241" y2="241"/><ellipse cx="493" cy="255.8105" fill="#84BE84" rx="3" ry="3" style="stroke:#038048;stroke-width:1.0;"/><text fill="#000000" font-family="sans-serif" font-size="14" lengthAdjust="spacing" textLength="210" x="502" y="260.1074">Map&lt;String, String&gt; getSettings()</text></g><!--class GetSettingsActivityImpl--><g id="elem_GetSettingsActivityImpl"><rect codeLine="33" fill="#F1F1F1" height="85.2422" id="GetSettingsActivityImpl" rx="2.5" ry="2.5" style="stroke:#181818;stroke-width:0.5;" width="236" x="482" y="346.5"/><ellipse cx="524.45" cy="362.5" fill="#ADD1B2" rx="11" ry="11" style="stroke:#181818;stroke-width:1.0;"/><path d="M527.2156,358.375 Q527.3719,358.1563 527.5594,358.0469 Q527.7469,357.9375 527.9656,357.9375 Q528.3406,357.9375 528.575,358.2031 Q528.8094,358.4531 528.8094,359.0625 L528.8094,360.5156 Q528.8094,361.125 528.575,361.3906 Q528.3406,361.6563 527.9656,361.6563 Q527.6219,361.6563 527.4188,361.4531 Q527.2156,361.2656 527.1063,360.75 Q527.0594,360.3906 526.8719,360.2031 Q526.5438,359.8281 525.9344,359.6094 Q525.325,359.3906 524.7,359.3906 Q523.9344,359.3906 523.2938,359.7188 Q522.6688,360.0469 522.1688,360.7969 Q521.6844,361.5469 521.6844,362.5781 L521.6844,363.6719 Q521.6844,364.9063 522.575,365.7344 Q523.4656,366.5469 525.0594,366.5469 Q525.9969,366.5469 526.6531,366.2969 Q527.0438,366.1406 527.4656,365.7031 Q527.7313,365.4375 527.8719,365.3594 Q528.0281,365.2813 528.2313,365.2813 Q528.5594,365.2813 528.8094,365.5469 Q529.075,365.7969 529.075,366.1406 Q529.075,366.4844 528.7313,366.8906 Q528.2313,367.4688 527.4344,367.7969 Q526.3563,368.25 525.0594,368.25 Q523.5438,368.25 522.3406,367.625 Q521.3563,367.125 520.6688,366.0625 Q519.9813,364.9844 519.9813,363.7031 L519.9813,362.5469 Q519.9813,361.2188 520.5906,360.0781 Q521.2156,358.9219 522.3094,358.3125 Q523.4031,357.6875 524.6375,357.6875 Q525.3719,357.6875 526.0125,357.8594 Q526.6688,358.0156 527.2156,358.375 Z " fill="#000000"/><text fill="#000000" font-family="sans-serif" font-size="14" lengthAdjust="spacing" textLength="143" x="544.55" y="368.2969">GetSettingsActivityImpl</text><line style="stroke:#181818;stroke-width:0.5;" x1="483" x2="717" y1="378.5" y2="378.5"/><ellipse cx="493" cy="393.3105" fill="none" rx="3" ry="3" style="stroke:#038048;stroke-width:1.0;"/><text fill="#000000" font-family="sans-serif" font-size="14" lengthAdjust="spacing" textLength="178" x="502" y="397.6074">Map&lt;String, String&gt; settings</text><line style="stroke:#181818;stroke-width:0.5;" x1="483" x2="717" y1="405.1211" y2="405.1211"/><ellipse cx="493" cy="419.9316" fill="#84BE84" rx="3" ry="3" style="stroke:#038048;stroke-width:1.0;"/><text fill="#000000" font-family="sans-serif" font-size="14" lengthAdjust="spacing" textLength="210" x="502" y="424.2285">Map&lt;String, String&gt; getSettings()</text></g><!--class GetGatewayFromDbActivity--><g id="elem_GetGatewayFromDbActivity"><rect codeLine="39" fill="#F1F1F1" height="66.6211" id="GetGatewayFromDbActivity" rx="2.5" ry="2.5" style="stroke:#181818;stroke-width:0.5;" width="339" x="753.5" y="201"/><ellipse cx="832.75" cy="217" fill="#B4A7E5" rx="11" ry="11" style="stroke:#181818;stroke-width:1.0;"/><path d="M833.7031,213.6406 L833.7031,220.2969 L835.4219,220.2969 Q836.0313,220.2969 836.2969,220.5313 Q836.5625,220.7656 836.5625,221.1563 Q836.5625,221.5313 836.2969,221.7656 Q836.0313,222 835.4219,222 L830.2813,222 Q829.6719,222 829.4063,221.7656 Q829.1406,221.5313 829.1406,221.1406 Q829.1406,220.7656 829.4063,220.5313 Q829.6719,220.2969 830.2813,220.2969 L832,220.2969 L832,213.6406 L830.2813,213.6406 Q829.6719,213.6406 829.4063,213.4063 Q829.1406,213.1719 829.1406,212.7813 Q829.1406,212.4063 829.4063,212.1719 Q829.6719,211.9375 830.2813,211.9375 L835.4219,211.9375 Q836.0313,211.9375 836.2969,212.1719 Q836.5625,212.4063 836.5625,212.7813 Q836.5625,213.1719 836.2969,213.4063 Q836.0313,213.6406 835.4219,213.6406 L833.7031,213.6406 Z " fill="#000000"/><text fill="#000000" font-family="sans-serif" font-size="14" font-style="italic" lengthAdjust="spacing" textLength="172" x="853.25" y="222.7969">GetGatewayFromDbActivity</text><line style="stroke:#181818;stroke-width:0.5;" x1="754.5" x2="1091.5" y1="233" y2="233"/><line style="stroke:#181818;stroke-width:0.5;" x1="754.5" x2="1091.5" y1="241" y2="241"/><ellipse cx="764.5" cy="255.8105" fill="#84BE84" rx="3" ry="3" style="stroke:#038048;stroke-width:1.0;"/><text fill="#000000" font-family="sans-serif" font-size="14" lengthAdjust="spacing" textLength="313" x="773.5" y="260.1074">String getGatewayEndpointURL(String gatewayId)</text></g><!--class GetGatewayFromDbActivityImpl--><g id="elem_GetGatewayFromDbActivityImpl"><rect codeLine="43" fill="#F1F1F1" height="103.8633" id="GetGatewayFromDbActivityImpl" rx="2.5" ry="2.5" style="stroke:#181818;stroke-width:0.5;" width="339" x="753.5" y="337"/><ellipse cx="819.75" cy="353" fill="#ADD1B2" rx="11" ry="11" style="stroke:#181818;stroke-width:1.0;"/><path d="M822.5156,348.875 Q822.6719,348.6563 822.8594,348.5469 Q823.0469,348.4375 823.2656,348.4375 Q823.6406,348.4375 823.875,348.7031 Q824.1094,348.9531 824.1094,349.5625 L824.1094,351.0156 Q824.1094,351.625 823.875,351.8906 Q823.6406,352.1563 823.2656,352.1563 Q822.9219,352.1563 822.7188,351.9531 Q822.5156,351.7656 822.4063,351.25 Q822.3594,350.8906 822.1719,350.7031 Q821.8438,350.3281 821.2344,350.1094 Q820.625,349.8906 820,349.8906 Q819.2344,349.8906 818.5938,350.2188 Q817.9688,350.5469 817.4688,351.2969 Q816.9844,352.0469 816.9844,353.0781 L816.9844,354.1719 Q816.9844,355.4063 817.875,356.2344 Q818.7656,357.0469 820.3594,357.0469 Q821.2969,357.0469 821.9531,356.7969 Q822.3438,356.6406 822.7656,356.2031 Q823.0313,355.9375 823.1719,355.8594 Q823.3281,355.7813 823.5313,355.7813 Q823.8594,355.7813 824.1094,356.0469 Q824.375,356.2969 824.375,356.6406 Q824.375,356.9844 824.0313,357.3906 Q823.5313,357.9688 822.7344,358.2969 Q821.6563,358.75 820.3594,358.75 Q818.8438,358.75 817.6406,358.125 Q816.6563,357.625 815.9688,356.5625 Q815.2813,355.4844 815.2813,354.2031 L815.2813,353.0469 Q815.2813,351.7188 815.8906,350.5781 Q816.5156,349.4219 817.6094,348.8125 Q818.7031,348.1875 819.9375,348.1875 Q820.6719,348.1875 821.3125,348.3594 Q821.9688,348.5156 822.5156,348.875 Z " fill="#000000"/><text fill="#000000" font-family="sans-serif" font-size="14" lengthAdjust="spacing" textLength="198" x="840.25" y="358.7969">GetGatewayFromDbActivityImpl</text><line style="stroke:#181818;stroke-width:0.5;" x1="754.5" x2="1091.5" y1="369" y2="369"/><rect fill="none" height="6" style="stroke:#C82930;stroke-width:1.0;" width="6" x="761.5" y="380.8105"/><text fill="#000000" font-family="sans-serif" font-size="14" lengthAdjust="spacing" textLength="247" x="773.5" y="388.1074">GatewayRepository gatewayRepository</text><rect fill="none" height="6" style="stroke:#C82930;stroke-width:1.0;" width="6" x="761.5" y="399.4316"/><text fill="#000000" font-family="sans-serif" font-size="14" lengthAdjust="spacing" textLength="178" x="773.5" y="406.7285">Map&lt;String, String&gt; settings</text><line style="stroke:#181818;stroke-width:0.5;" x1="754.5" x2="1091.5" y1="414.2422" y2="414.2422"/><ellipse cx="764.5" cy="429.0527" fill="#84BE84" rx="3" ry="3" style="stroke:#038048;stroke-width:1.0;"/><text fill="#000000" font-family="sans-serif" font-size="14" lengthAdjust="spacing" textLength="313" x="773.5" y="433.3496">String getGatewayEndpointURL(String gatewayId)</text></g><!--class SendMessageToGatewayActivity--><g id="elem_SendMessageToGatewayActivity"><rect codeLine="49" fill="#F1F1F1" height="66.6211" id="SendMessageToGatewayActivity" rx="2.5" ry="2.5" style="stroke:#181818;stroke-width:0.5;" width="598" x="1128" y="201"/><ellipse cx="1319.75" cy="217" fill="#B4A7E5" rx="11" ry="11" style="stroke:#181818;stroke-width:1.0;"/><path d="M1320.7031,213.6406 L1320.7031,220.2969 L1322.4219,220.2969 Q1323.0313,220.2969 1323.2969,220.5313 Q1323.5625,220.7656 1323.5625,221.1563 Q1323.5625,221.5313 1323.2969,221.7656 Q1323.0313,222 1322.4219,222 L1317.2813,222 Q1316.6719,222 1316.4063,221.7656 Q1316.1406,221.5313 1316.1406,221.1406 Q1316.1406,220.7656 1316.4063,220.5313 Q1316.6719,220.2969 1317.2813,220.2969 L1319,220.2969 L1319,213.6406 L1317.2813,213.6406 Q1316.6719,213.6406 1316.4063,213.4063 Q1316.1406,213.1719 1316.1406,212.7813 Q1316.1406,212.4063 1316.4063,212.1719 Q1316.6719,211.9375 1317.2813,211.9375 L1322.4219,211.9375 Q1323.0313,211.9375 1323.2969,212.1719 Q1323.5625,212.4063 1323.5625,212.7813 Q1323.5625,213.1719 1323.2969,213.4063 Q1323.0313,213.6406 1322.4219,213.6406 L1320.7031,213.6406 Z " fill="#000000"/><text fill="#000000" font-family="sans-serif" font-size="14" font-style="italic" lengthAdjust="spacing" textLength="206" x="1340.25" y="222.7969">SendMessageToGatewayActivity</text><line style="stroke:#181818;stroke-width:0.5;" x1="1129" x2="1725" y1="233" y2="233"/><line style="stroke:#181818;stroke-width:0.5;" x1="1129" x2="1725" y1="241" y2="241"/><ellipse cx="1139" cy="255.8105" fill="#84BE84" rx="3" ry="3" style="stroke:#038048;stroke-width:1.0;"/><text fill="#000000" font-family="sans-serif" font-size="14" lengthAdjust="spacing" textLength="572" x="1148" y="260.1074">Map&lt;String, String&gt; invokeGateway(String userId, String workflowRunId, String gatewayUrl)</text></g><!--class SendMessageToGatewayActivityImpl--><g id="elem_SendMessageToGatewayActivityImpl"><rect codeLine="53" fill="#F1F1F1" height="103.8633" id="SendMessageToGatewayActivityImpl" rx="2.5" ry="2.5" style="stroke:#181818;stroke-width:0.5;" width="371" x="1241.5" y="337"/><ellipse cx="1307.25" cy="353" fill="#ADD1B2" rx="11" ry="11" style="stroke:#181818;stroke-width:1.0;"/><path d="M1310.0156,348.875 Q1310.1719,348.6563 1310.3594,348.5469 Q1310.5469,348.4375 1310.7656,348.4375 Q1311.1406,348.4375 1311.375,348.7031 Q1311.6094,348.9531 1311.6094,349.5625 L1311.6094,351.0156 Q1311.6094,351.625 1311.375,351.8906 Q1311.1406,352.1563 1310.7656,352.1563 Q1310.4219,352.1563 1310.2188,351.9531 Q1310.0156,351.7656 1309.9063,351.25 Q1309.8594,350.8906 1309.6719,350.7031 Q1309.3438,350.3281 1308.7344,350.1094 Q1308.125,349.8906 1307.5,349.8906 Q1306.7344,349.8906 1306.0938,350.2188 Q1305.4688,350.5469 1304.9688,351.2969 Q1304.4844,352.0469 1304.4844,353.0781 L1304.4844,354.1719 Q1304.4844,355.4063 1305.375,356.2344 Q1306.2656,357.0469 1307.8594,357.0469 Q1308.7969,357.0469 1309.4531,356.7969 Q1309.8438,356.6406 1310.2656,356.2031 Q1310.5313,355.9375 1310.6719,355.8594 Q1310.8281,355.7813 1311.0313,355.7813 Q1311.3594,355.7813 1311.6094,356.0469 Q1311.875,356.2969 1311.875,356.6406 Q1311.875,356.9844 1311.5313,357.3906 Q1311.0313,357.9688 1310.2344,358.2969 Q1309.1563,358.75 1307.8594,358.75 Q1306.3438,358.75 1305.1406,358.125 Q1304.1563,357.625 1303.4688,356.5625 Q1302.7813,355.4844 1302.7813,354.2031 L1302.7813,353.0469 Q1302.7813,351.7188 1303.3906,350.5781 Q1304.0156,349.4219 1305.1094,348.8125 Q1306.2031,348.1875 1307.4375,348.1875 Q1308.1719,348.1875 1308.8125,348.3594 Q1309.4688,348.5156 1310.0156,348.875 Z " fill="#000000"/><text fill="#000000" font-family="sans-serif" font-size="14" lengthAdjust="spacing" textLength="231" x="1327.75" y="358.7969">SendMessageToGatewayActivityImpl</text><line style="stroke:#181818;stroke-width:0.5;" x1="1242.5" x2="1611.5" y1="369" y2="369"/><rect fill="none" height="6" style="stroke:#C82930;stroke-width:1.0;" width="6" x="1249.5" y="380.8105"/><text fill="#000000" font-family="sans-serif" font-size="14" lengthAdjust="spacing" textLength="175" x="1261.5" y="388.1074">RestTemplate restTemplate</text><rect fill="none" height="6" style="stroke:#C82930;stroke-width:1.0;" width="6" x="1249.5" y="399.4316"/><text fill="#000000" font-family="sans-serif" font-size="14" lengthAdjust="spacing" textLength="178" x="1261.5" y="406.7285">Map&lt;String, String&gt; settings</text><line style="stroke:#181818;stroke-width:0.5;" x1="1242.5" x2="1611.5" y1="414.2422" y2="414.2422"/><ellipse cx="1252.5" cy="429.0527" fill="#84BE84" rx="3" ry="3" style="stroke:#038048;stroke-width:1.0;"/><text fill="#000000" font-family="sans-serif" font-size="14" lengthAdjust="spacing" textLength="345" x="1261.5" y="433.3496">Map&lt;String, String&gt; invokeGateway(String gatewayUrl)</text></g><!--reverse link WorkflowInterface to CommunicationWorkflow--><g id="link_WorkflowInterface_CommunicationWorkflow"><path d="M227,159.1 C227,176.21 227,181.77 227,200.82 " fill="none" id="WorkflowInterface-backto-CommunicationWorkflow" style="stroke:#181818;stroke-width:1.0;"/><polygon fill="none" points="227,141.1,221,159.1,233,159.1,227,141.1" style="stroke:#181818;stroke-width:1.0;"/></g><!--reverse link CommunicationWorkflow to CommunicationWorkflowImpl--><g id="link_CommunicationWorkflow_CommunicationWorkflowImpl"><path d="M227,286.22 C227,303.63 227,307.6 227,327.96 " fill="none" id="CommunicationWorkflow-backto-CommunicationWorkflowImpl" style="stroke:#181818;stroke-width:1.0;stroke-dasharray:7.0,7.0;"/><polygon fill="none" points="227,268.22,221,286.22,233,286.22,227,268.22" style="stroke:#181818;stroke-width:1.0;"/></g><!--reverse link ActivityInterface to GetSettingsActivity--><g id="link_ActivityInterface_GetSettingsActivity"><path d="M841.4599,147.1576 C793.4999,164.2976 744.4,181.86 691.08,200.93 " fill="none" id="ActivityInterface-backto-GetSettingsActivity" style="stroke:#181818;stroke-width:1.0;"/><polygon fill="none" points="858.41,141.1,839.4407,141.5076,843.4791,152.8077,858.41,141.1" style="stroke:#181818;stroke-width:1.0;"/></g><!--reverse link GetSettingsActivity to GetSettingsActivityImpl--><g id="link_GetSettingsActivity_GetSettingsActivityImpl"><path d="M600,286.22 C600,309.06 600,321.74 600,346.33 " fill="none" id="GetSettingsActivity-backto-GetSettingsActivityImpl" style="stroke:#181818;stroke-width:1.0;stroke-dasharray:7.0,7.0;"/><polygon fill="none" points="600,268.22,594,286.22,606,286.22,600,268.22" style="stroke:#181818;stroke-width:1.0;"/></g><!--reverse link ActivityInterface to GetGatewayFromDbActivity--><g id="link_ActivityInterface_GetGatewayFromDbActivity"><path d="M923,159.1 C923,176.21 923,181.77 923,200.82 " fill="none" id="ActivityInterface-backto-GetGatewayFromDbActivity" style="stroke:#181818;stroke-width:1.0;"/><polygon fill="none" points="923,141.1,917,159.1,929,159.1,923,141.1" style="stroke:#181818;stroke-width:1.0;"/></g><!--reverse link GetGatewayFromDbActivity to GetGatewayFromDbActivityImpl--><g id="link_GetGatewayFromDbActivity_GetGatewayFromDbActivityImpl"><path d="M923,286.22 C923,306.17 923,314.11 923,336.74 " fill="none" id="GetGatewayFromDbActivity-backto-GetGatewayFromDbActivityImpl" style="stroke:#181818;stroke-width:1.0;stroke-dasharray:7.0,7.0;"/><polygon fill="none" points="923,268.22,917,286.22,929,286.22,923,268.22" style="stroke:#181818;stroke-width:1.0;"/></g><!--reverse link ActivityInterface to SendMessageToGatewayActivity--><g id="link_ActivityInterface_SendMessageToGatewayActivity"><path d="M1006.175,137.0614 C1080.955,154.2014 1187.82,178.69 1285.05,200.97 " fill="none" id="ActivityInterface-backto-SendMessageToGatewayActivity" style="stroke:#181818;stroke-width:1.0;"/><polygon fill="none" points="988.63,133.04,1004.8346,142.9098,1007.5155,131.2131,988.63,133.04" style="stroke:#181818;stroke-width:1.0;"/></g><!--reverse link SendMessageToGatewayActivity to SendMessageToGatewayActivityImpl--><g id="link_SendMessageToGatewayActivity_SendMessageToGatewayActivityImpl"><path d="M1427,286.22 C1427,306.17 1427,314.11 1427,336.74 " fill="none" id="SendMessageToGatewayActivity-backto-SendMessageToGatewayActivityImpl" style="stroke:#181818;stroke-width:1.0;stroke-dasharray:7.0,7.0;"/><polygon fill="none" points="1427,268.22,1421,286.22,1433,286.22,1427,268.22" style="stroke:#181818;stroke-width:1.0;"/></g><!--SRC=[fLHTIyCm57tlhxYF4_KVY21EfUWGsWsVOtjNmjea97URHVplfYpfrxAwOHyAoJqvvvvpqt91gDSiG_YGUhCkvJvkTxwZdoZYxV8X8xxZL8y0GX82IGLoVSmHWNsw0sijArXYfQHc9QJprmX53Wt3aET8wWAUNiUFiggsWcUCk1I-Dy0licWJDDp8N4DAcei2Z8KDA6OBfkuEnHi7kWV5wbAo_Ah98YkPCM7Pk58bSFl22WMT01qQk6tzlwkcQe0DrmxrWlJ22FUiVhPvp3_zAIXE5DovrFfQe36imALqmFQicIZ-AvxXPRAzfqXa8QQLzeCvchwVIuY_w8XclHa4-CSJ2BKmfMGS-99cXex3q_hJjikxc-gJo9MqpAlaRUQBXqgS3pC8AWQ22EByRNJ519KqdAIklLgtuv1dn7QvcIx2oOjxCiR9eNAnanjqN5v_Qr37kGV1tdsToLRqTbsJArts8f_gS1pxf1kVVOA6cXzTQUkWUulp4p_RziXHz0i0]--></g></svg>