<?xml version="1.0" encoding="us-ascii" standalone="no"?><svg xmlns="http://www.w3.org/2000/svg" xmlns:xlink="http://www.w3.org/1999/xlink" contentStyleType="text/css" height="389px" preserveAspectRatio="none" style="width:1731px;height:389px;background:#FFFFFF;" version="1.1" viewBox="0 0 1731 389" width="1731px" zoomAndPan="magnify"><defs/><g><!--cluster workerGroup--><g id="cluster_workerGroup"><path d="M451,6.0137 L501,6.0137 A3.75,3.75 0 0 1 503.5,8.5137 L510.5,30.6348 L1722,30.6348 A2.5,2.5 0 0 1 1724.5,33.1348 L1724.5,379.5137 A2.5,2.5 0 0 1 1722,382.0137 L451,382.0137 A2.5,2.5 0 0 1 448.5,379.5137 L448.5,8.5137 A2.5,2.5 0 0 1 451,6.0137 " fill="none" style="stroke:#000000;stroke-width:1.5;"/><line style="stroke:#000000;stroke-width:1.5;" x1="448.5" x2="510.5" y1="30.6348" y2="30.6348"/><text fill="#000000" font-family="sans-serif" font-size="14" font-weight="bold" lengthAdjust="spacing" textLength="49" x="452.5" y="23.1211">worker</text></g><!--entity temporal--><g id="elem_temporal"><rect fill="#F1F1F1" height="48.6211" rx="2.5" ry="2.5" style="stroke:#181818;stroke-width:0.5;" width="95" x="226" y="43.0137"/><rect fill="#F1F1F1" height="10" style="stroke:#181818;stroke-width:0.5;" width="15" x="301" y="48.0137"/><rect fill="#F1F1F1" height="2" style="stroke:#181818;stroke-width:0.5;" width="4" x="299" y="50.0137"/><rect fill="#F1F1F1" height="2" style="stroke:#181818;stroke-width:0.5;" width="4" x="299" y="54.0137"/><text fill="#000000" font-family="sans-serif" font-size="14" lengthAdjust="spacing" textLength="55" x="241" y="78.1211">temporal</text></g><!--class CommunicationWorkflow--><g id="elem_CommunicationWorkflow"><rect codeLine="19" fill="#F1F1F1" height="66.6211" id="CommunicationWorkflow" rx="2.5" ry="2.5" style="stroke:#181818;stroke-width:0.5;" width="384" x="590.5" y="171.0137"/><ellipse cx="700.25" cy="187.0137" fill="#B4A7E5" rx="11" ry="11" style="stroke:#181818;stroke-width:1.0;"/><path d="M701.2031,183.6543 L701.2031,190.3105 L702.9219,190.3105 Q703.5313,190.3105 703.7969,190.5449 Q704.0625,190.7793 704.0625,191.1699 Q704.0625,191.5449 703.7969,191.7793 Q703.5313,192.0137 702.9219,192.0137 L697.7813,192.0137 Q697.1719,192.0137 696.9063,191.7793 Q696.6406,191.5449 696.6406,191.1543 Q696.6406,190.7793 696.9063,190.5449 Q697.1719,190.3105 697.7813,190.3105 L699.5,190.3105 L699.5,183.6543 L697.7813,183.6543 Q697.1719,183.6543 696.9063,183.4199 Q696.6406,183.1855 696.6406,182.7949 Q696.6406,182.4199 696.9063,182.1855 Q697.1719,181.9512 697.7813,181.9512 L702.9219,181.9512 Q703.5313,181.9512 703.7969,182.1855 Q704.0625,182.4199 704.0625,182.7949 Q704.0625,183.1855 703.7969,183.4199 Q703.5313,183.6543 702.9219,183.6543 L701.2031,183.6543 Z " fill="#000000"/><text fill="#000000" font-family="sans-serif" font-size="14" font-style="italic" lengthAdjust="spacing" textLength="156" x="720.75" y="192.8105">CommunicationWorkflow</text><line style="stroke:#181818;stroke-width:0.5;" x1="591.5" x2="973.5" y1="203.0137" y2="203.0137"/><line style="stroke:#181818;stroke-width:0.5;" x1="591.5" x2="973.5" y1="211.0137" y2="211.0137"/><ellipse cx="601.5" cy="225.8242" fill="#84BE84" rx="3" ry="3" style="stroke:#038048;stroke-width:1.0;"/><text fill="#000000" font-family="sans-serif" font-size="14" lengthAdjust="spacing" textLength="358" x="610.5" y="230.1211">String sendCommunication(Map&lt;String, String&gt; payload)</text></g><!--class GetSettingsActivity--><g id="elem_GetSettingsActivity"><rect codeLine="24" fill="#F1F1F1" height="66.6211" id="GetSettingsActivity" rx="2.5" ry="2.5" style="stroke:#181818;stroke-width:0.5;" width="236" x="464.5" y="299.0137"/><ellipse cx="519.75" cy="315.0137" fill="#B4A7E5" rx="11" ry="11" style="stroke:#181818;stroke-width:1.0;"/><path d="M520.7031,311.6543 L520.7031,318.3105 L522.4219,318.3105 Q523.0313,318.3105 523.2969,318.5449 Q523.5625,318.7793 523.5625,319.1699 Q523.5625,319.5449 523.2969,319.7793 Q523.0313,320.0137 522.4219,320.0137 L517.2813,320.0137 Q516.6719,320.0137 516.4063,319.7793 Q516.1406,319.5449 516.1406,319.1543 Q516.1406,318.7793 516.4063,318.5449 Q516.6719,318.3105 517.2813,318.3105 L519,318.3105 L519,311.6543 L517.2813,311.6543 Q516.6719,311.6543 516.4063,311.4199 Q516.1406,311.1855 516.1406,310.7949 Q516.1406,310.4199 516.4063,310.1855 Q516.6719,309.9512 517.2813,309.9512 L522.4219,309.9512 Q523.0313,309.9512 523.2969,310.1855 Q523.5625,310.4199 523.5625,310.7949 Q523.5625,311.1855 523.2969,311.4199 Q523.0313,311.6543 522.4219,311.6543 L520.7031,311.6543 Z " fill="#000000"/><text fill="#000000" font-family="sans-serif" font-size="14" font-style="italic" lengthAdjust="spacing" textLength="117" x="540.25" y="320.8105">GetSettingsActivity</text><line style="stroke:#181818;stroke-width:0.5;" x1="465.5" x2="699.5" y1="331.0137" y2="331.0137"/><line style="stroke:#181818;stroke-width:0.5;" x1="465.5" x2="699.5" y1="339.0137" y2="339.0137"/><ellipse cx="475.5" cy="353.8242" fill="#84BE84" rx="3" ry="3" style="stroke:#038048;stroke-width:1.0;"/><text fill="#000000" font-family="sans-serif" font-size="14" lengthAdjust="spacing" textLength="210" x="484.5" y="358.1211">Map&lt;String, String&gt; getSettings()</text></g><!--class GetGatewayByIdActivity--><g id="elem_GetGatewayByIdActivity"><rect codeLine="29" fill="#F1F1F1" height="66.6211" id="GetGatewayByIdActivity" rx="2.5" ry="2.5" style="stroke:#181818;stroke-width:0.5;" width="339" x="736" y="299.0137"/><ellipse cx="826.75" cy="315.0137" fill="#B4A7E5" rx="11" ry="11" style="stroke:#181818;stroke-width:1.0;"/><path d="M827.7031,311.6543 L827.7031,318.3105 L829.4219,318.3105 Q830.0313,318.3105 830.2969,318.5449 Q830.5625,318.7793 830.5625,319.1699 Q830.5625,319.5449 830.2969,319.7793 Q830.0313,320.0137 829.4219,320.0137 L824.2813,320.0137 Q823.6719,320.0137 823.4063,319.7793 Q823.1406,319.5449 823.1406,319.1543 Q823.1406,318.7793 823.4063,318.5449 Q823.6719,318.3105 824.2813,318.3105 L826,318.3105 L826,311.6543 L824.2813,311.6543 Q823.6719,311.6543 823.4063,311.4199 Q823.1406,311.1855 823.1406,310.7949 Q823.1406,310.4199 823.4063,310.1855 Q823.6719,309.9512 824.2813,309.9512 L829.4219,309.9512 Q830.0313,309.9512 830.2969,310.1855 Q830.5625,310.4199 830.5625,310.7949 Q830.5625,311.1855 830.2969,311.4199 Q830.0313,311.6543 829.4219,311.6543 L827.7031,311.6543 Z " fill="#000000"/><text fill="#000000" font-family="sans-serif" font-size="14" font-style="italic" lengthAdjust="spacing" textLength="149" x="847.25" y="320.8105">GetGatewayByIdActivity</text><line style="stroke:#181818;stroke-width:0.5;" x1="737" x2="1074" y1="331.0137" y2="331.0137"/><line style="stroke:#181818;stroke-width:0.5;" x1="737" x2="1074" y1="339.0137" y2="339.0137"/><ellipse cx="747" cy="353.8242" fill="#84BE84" rx="3" ry="3" style="stroke:#038048;stroke-width:1.0;"/><text fill="#000000" font-family="sans-serif" font-size="14" lengthAdjust="spacing" textLength="313" x="756" y="358.1211">String getGatewayEndpointURL(String gatewayId)</text></g><!--class SendMessageToGatewayActivity--><g id="elem_SendMessageToGatewayActivity"><rect codeLine="34" fill="#F1F1F1" height="66.6211" id="SendMessageToGatewayActivity" rx="2.5" ry="2.5" style="stroke:#181818;stroke-width:0.5;" width="598" x="1110.5" y="299.0137"/><ellipse cx="1302.25" cy="315.0137" fill="#B4A7E5" rx="11" ry="11" style="stroke:#181818;stroke-width:1.0;"/><path d="M1303.2031,311.6543 L1303.2031,318.3105 L1304.9219,318.3105 Q1305.5313,318.3105 1305.7969,318.5449 Q1306.0625,318.7793 1306.0625,319.1699 Q1306.0625,319.5449 1305.7969,319.7793 Q1305.5313,320.0137 1304.9219,320.0137 L1299.7813,320.0137 Q1299.1719,320.0137 1298.9063,319.7793 Q1298.6406,319.5449 1298.6406,319.1543 Q1298.6406,318.7793 1298.9063,318.5449 Q1299.1719,318.3105 1299.7813,318.3105 L1301.5,318.3105 L1301.5,311.6543 L1299.7813,311.6543 Q1299.1719,311.6543 1298.9063,311.4199 Q1298.6406,311.1855 1298.6406,310.7949 Q1298.6406,310.4199 1298.9063,310.1855 Q1299.1719,309.9512 1299.7813,309.9512 L1304.9219,309.9512 Q1305.5313,309.9512 1305.7969,310.1855 Q1306.0625,310.4199 1306.0625,310.7949 Q1306.0625,311.1855 1305.7969,311.4199 Q1305.5313,311.6543 1304.9219,311.6543 L1303.2031,311.6543 Z " fill="#000000"/><text fill="#000000" font-family="sans-serif" font-size="14" font-style="italic" lengthAdjust="spacing" textLength="206" x="1322.75" y="320.8105">SendMessageToGatewayActivity</text><line style="stroke:#181818;stroke-width:0.5;" x1="1111.5" x2="1707.5" y1="331.0137" y2="331.0137"/><line style="stroke:#181818;stroke-width:0.5;" x1="1111.5" x2="1707.5" y1="339.0137" y2="339.0137"/><ellipse cx="1121.5" cy="353.8242" fill="#84BE84" rx="3" ry="3" style="stroke:#038048;stroke-width:1.0;"/><text fill="#000000" font-family="sans-serif" font-size="14" lengthAdjust="spacing" textLength="572" x="1130.5" y="358.1211">Map&lt;String, String&gt; invokeGateway(String userId, String workflowRunId, String gatewayUrl)</text></g><!--entity worker--><g id="elem_worker"><rect fill="#F1F1F1" height="48.6211" rx="2.5" ry="2.5" style="stroke:#181818;stroke-width:0.5;" width="82" x="741.5" y="43.0137"/><rect fill="#F1F1F1" height="10" style="stroke:#181818;stroke-width:0.5;" width="15" x="803.5" y="48.0137"/><rect fill="#F1F1F1" height="2" style="stroke:#181818;stroke-width:0.5;" width="4" x="801.5" y="50.0137"/><rect fill="#F1F1F1" height="2" style="stroke:#181818;stroke-width:0.5;" width="4" x="801.5" y="54.0137"/><text fill="#000000" font-family="sans-serif" font-size="14" lengthAdjust="spacing" textLength="42" x="756.5" y="78.1211">worker</text></g><!--entity workflowClient--><g id="elem_workflowClient"><ellipse cx="50.5" cy="204.5137" fill="#F1F1F1" rx="8" ry="8" style="stroke:#181818;stroke-width:0.5;"/><text fill="#000000" font-family="sans-serif" font-size="14" lengthAdjust="spacing" textLength="89" x="6" y="236.6211">workflowClient</text></g><!--entity scheduleClient--><g id="elem_scheduleClient"><ellipse cx="191.5" cy="204.5137" fill="#F1F1F1" rx="8" ry="8" style="stroke:#181818;stroke-width:0.5;"/><text fill="#000000" font-family="sans-serif" font-size="14" lengthAdjust="spacing" textLength="93" x="145" y="236.6211">scheduleClient</text></g><!--entity workflowServiceStubs--><g id="elem_workflowServiceStubs"><ellipse cx="356.5" cy="204.5137" fill="#F1F1F1" rx="8" ry="8" style="stroke:#181818;stroke-width:0.5;"/><text fill="#000000" font-family="sans-serif" font-size="14" lengthAdjust="spacing" textLength="136" x="288.5" y="236.6211">workflowServiceStubs</text></g><!--link temporal to workflowServiceStubs--><g id="link_temporal_workflowServiceStubs"><path codeLine="10" d="M287.96,92.0337 C306.91,122.8537 329.7509,160.0109 342.0809,180.0609 " fill="none" id="temporal-to-workflowServiceStubs" style="stroke:#181818;stroke-width:1.0;"/><polygon fill="none" points="351.51,195.3937,347.1919,176.9179,336.97,183.204,351.51,195.3937" style="stroke:#181818;stroke-width:1.0;"/></g><!--link temporal to workflowClient--><g id="link_temporal_workflowClient"><path codeLine="11" d="M234.66,92.0337 C181.5,124.2137 104.7083,170.6921 75.2383,188.5321 " fill="none" id="temporal-to-workflowClient" style="stroke:#181818;stroke-width:1.0;"/><polygon fill="none" points="59.84,197.8537,78.3455,193.6649,72.1311,183.3993,59.84,197.8537" style="stroke:#181818;stroke-width:1.0;"/></g><!--link temporal to scheduleClient--><g id="link_temporal_scheduleClient"><path codeLine="12" d="M259.22,92.0337 C240.5,122.8537 217.9554,159.9598 205.7754,180.0098 " fill="none" id="temporal-to-scheduleClient" style="stroke:#181818;stroke-width:1.0;"/><polygon fill="none" points="196.43,195.3937,210.9034,183.1249,200.6475,176.8947,196.43,195.3937" style="stroke:#181818;stroke-width:1.0;"/></g><!--link worker to CommunicationWorkflow--><g id="link_worker_CommunicationWorkflow"><path codeLine="38" d="M782.5,92.0337 C782.5,113.8637 782.5,128.5637 782.5,152.9137 " fill="none" id="worker-to-CommunicationWorkflow" style="stroke:#181818;stroke-width:1.0;"/><polygon fill="none" points="782.5,170.9137,788.5,152.9137,776.5,152.9137,782.5,170.9137" style="stroke:#181818;stroke-width:1.0;"/></g><!--link CommunicationWorkflow to GetSettingsActivity--><g id="link_CommunicationWorkflow_GetSettingsActivity"><path codeLine="39" d="M730.73,238.1237 C701.11,256.7937 669.1265,276.9454 639.4765,295.6254 " fill="none" id="CommunicationWorkflow-to-GetSettingsActivity" style="stroke:#181818;stroke-width:1.0;"/><polygon fill="#181818" points="634.4,298.8237,644.147,297.4106,638.6304,296.1584,639.8826,290.6419,634.4,298.8237" style="stroke:#181818;stroke-width:1.0;"/></g><!--link CommunicationWorkflow to SendMessageToGatewayActivity--><g id="link_CommunicationWorkflow_SendMessageToGatewayActivity"><path codeLine="40" d="M944.38,238.0437 C1037.63,256.7837 1148.5675,279.082 1241.8075,297.812 " fill="none" id="CommunicationWorkflow-to-SendMessageToGatewayActivity" style="stroke:#181818;stroke-width:1.0;"/><polygon fill="#181818" points="1247.69,298.9937,1239.654,293.2995,1242.7879,298.0089,1238.0785,301.1428,1247.69,298.9937" style="stroke:#181818;stroke-width:1.0;"/></g><!--link CommunicationWorkflow to GetGatewayByIdActivity--><g id="link_CommunicationWorkflow_GetGatewayByIdActivity"><path codeLine="41" d="M814.5,238.2937 C832.72,256.9537 851.2795,275.9695 869.4695,294.6095 " fill="none" id="CommunicationWorkflow-to-GetGatewayByIdActivity" style="stroke:#181818;stroke-width:1.0;"/><polygon fill="#181818" points="873.66,298.9037,870.237,289.6688,870.1679,295.3252,864.5115,295.2561,873.66,298.9037" style="stroke:#181818;stroke-width:1.0;"/></g><!--link temporal to CommunicationWorkflow--><g id="link_temporal_CommunicationWorkflow"><path codeLine="44" d="M321.39,81.2137 C398.17,101.5737 545.4104,140.6359 654.1004,169.4559 " fill="none" id="temporal-to-CommunicationWorkflow" style="stroke:#181818;stroke-width:1.0;"/><polygon fill="#181818" points="659.9,170.9937,652.2258,164.8206,655.067,169.7122,650.1754,172.5534,659.9,170.9937" style="stroke:#181818;stroke-width:1.0;"/><text fill="#000000" font-family="sans-serif" font-size="13" lengthAdjust="spacing" textLength="28" x="543.5" y="137.042">uses</text></g><!--SRC=[ZLFBRi8m4BpxArQSWjhyG8MGMbGXf78XHJsxpX8iWXtvaIWg_VVQZHC8Sg6-nDgPdTb7pEInaWA50OFkfcW9N-IRa6GAZLI7NIcRHSaTxYEQxJ6t9PuZFIT3LNE6cR6VcX0I2yFibDfqi25Z-MjqR7MD4b9HTg05miJBe9e0rT1TbqhQoZK1xh2Xkmxheguz_-72eDfHXh2GnwCLd573fVW8TGK9VnuWCugB0ZIAV4HErhIQTU1Z8CsXecqfQJubSRSbcWoDSLJzp0olkMb7NZ79ufoJtD1TKeCDRL_QLHwL3cqK0_DLv9Lq4jlDMzA37RBwi_xC3M6DMhlnlykWy-z6kAZb0KDMRsargbNUauQVQcF5HJJKjLNbzBAkRh6GfgTvV8-_hFY6qtGUsyQTZ5lztpUBhCY_j-7rULfKuCcFIPCV]--></g></svg>