<?xml version="1.0" encoding="us-ascii" standalone="no"?><svg xmlns="http://www.w3.org/2000/svg" xmlns:xlink="http://www.w3.org/1999/xlink" contentStyleType="text/css" height="347px" preserveAspectRatio="none" style="width:444px;height:347px;background:#FFFFFF;" version="1.1" viewBox="0 0 444 347" width="444px" zoomAndPan="magnify"><defs/><g><rect fill="none" height="23.9414" style="stroke:none;stroke-width:1.0;" width="411.5" x="15" y="13.0176"/><ellipse cx="153.25" cy="51.959" fill="#222222" rx="10" ry="10" style="stroke:#222222;stroke-width:1.0;"/><rect fill="#F1F1F1" height="35.9609" rx="12.5" ry="12.5" style="stroke:#181818;stroke-width:0.5;" width="156" x="75.25" y="81.959"/><text fill="#000000" font-family="sans-serif" font-size="12" lengthAdjust="spacing" textLength="136" x="85.25" y="104.9082">GetGatewayFromDbByID</text><polygon fill="#F1F1F1" points="113.75,193.8809,192.75,193.8809,204.75,205.8809,192.75,217.8809,113.75,217.8809,101.75,205.8809,113.75,193.8809" style="stroke:#181818;stroke-width:0.5;"/><text fill="#000000" font-family="sans-serif" font-size="11" lengthAdjust="spacing" textLength="79" x="113.75" y="210.4355">query resolved?</text><text fill="#000000" font-family="sans-serif" font-size="11" lengthAdjust="spacing" textLength="11" x="90.75" y="203.1201">ok</text><text fill="#000000" font-family="sans-serif" font-size="11" lengthAdjust="spacing" textLength="24" x="204.75" y="203.1201">error</text><rect fill="#F1F1F1" height="35.9609" rx="12.5" ry="12.5" style="stroke:#181818;stroke-width:0.5;" width="136" x="21" y="227.8809"/><text fill="#000000" font-family="sans-serif" font-size="12" lengthAdjust="spacing" textLength="116" x="31" y="250.8301">return gateway object</text><rect fill="#F1F1F1" height="35.9609" rx="12.5" ry="12.5" style="stroke:#181818;stroke-width:0.5;" width="81" x="177" y="227.8809"/><text fill="#000000" font-family="sans-serif" font-size="12" lengthAdjust="spacing" textLength="61" x="187" y="250.8301">return error</text><polygon fill="#F1F1F1" points="153.25,269.8418,165.25,281.8418,153.25,293.8418,141.25,281.8418,153.25,269.8418" style="stroke:#181818;stroke-width:0.5;"/><ellipse cx="153.25" cy="324.8418" fill="none" rx="11" ry="11" style="stroke:#222222;stroke-width:1.0;"/><ellipse cx="153.25" cy="324.8418" fill="#222222" rx="6" ry="6" style="stroke:#222222;stroke-width:1.0;"/><line style="stroke:#000000;stroke-width:1.5;" x1="15" x2="15" y1="13.0176" y2="335.8418"/><rect fill="#F1F1F1" height="35.9609" rx="12.5" ry="12.5" style="stroke:#181818;stroke-width:0.5;" width="107" x="291" y="137.9199"/><text fill="#000000" font-family="sans-serif" font-size="12" lengthAdjust="spacing" textLength="87" x="301" y="160.8691">Resolves Query</text><line style="stroke:#000000;stroke-width:1.5;" x1="262" x2="262" y1="13.0176" y2="335.8418"/><line style="stroke:#000000;stroke-width:1.5;" x1="425" x2="425" y1="13.0176" y2="335.8418"/><line style="stroke:#181818;stroke-width:1.0;" x1="153.25" x2="153.25" y1="61.959" y2="81.959"/><polygon fill="#181818" points="149.25,71.959,153.25,81.959,157.25,71.959,153.25,75.959" style="stroke:#181818;stroke-width:1.0;"/><line style="stroke:#181818;stroke-width:1.0;" x1="101.75" x2="89" y1="205.8809" y2="205.8809"/><line style="stroke:#181818;stroke-width:1.0;" x1="89" x2="89" y1="205.8809" y2="227.8809"/><polygon fill="#181818" points="85,217.8809,89,227.8809,93,217.8809,89,221.8809" style="stroke:#181818;stroke-width:1.0;"/><line style="stroke:#181818;stroke-width:1.0;" x1="204.75" x2="217.5" y1="205.8809" y2="205.8809"/><line style="stroke:#181818;stroke-width:1.0;" x1="217.5" x2="217.5" y1="205.8809" y2="227.8809"/><polygon fill="#181818" points="213.5,217.8809,217.5,227.8809,221.5,217.8809,217.5,221.8809" style="stroke:#181818;stroke-width:1.0;"/><line style="stroke:#181818;stroke-width:1.0;" x1="89" x2="89" y1="263.8418" y2="281.8418"/><line style="stroke:#181818;stroke-width:1.0;" x1="89" x2="141.25" y1="281.8418" y2="281.8418"/><polygon fill="#181818" points="131.25,277.8418,141.25,281.8418,131.25,285.8418,135.25,281.8418" style="stroke:#181818;stroke-width:1.0;"/><line style="stroke:#181818;stroke-width:1.0;" x1="217.5" x2="217.5" y1="263.8418" y2="281.8418"/><line style="stroke:#181818;stroke-width:1.0;" x1="217.5" x2="165.25" y1="281.8418" y2="281.8418"/><polygon fill="#181818" points="175.25,277.8418,165.25,281.8418,175.25,285.8418,171.25,281.8418" style="stroke:#181818;stroke-width:1.0;"/><line style="stroke:#181818;stroke-width:1.0;" x1="153.25" x2="153.25" y1="293.8418" y2="313.8418"/><polygon fill="#181818" points="149.25,303.8418,153.25,313.8418,157.25,303.8418,153.25,307.8418" style="stroke:#181818;stroke-width:1.0;"/><line style="stroke:#181818;stroke-width:1.0;" x1="153.25" x2="153.25" y1="117.9199" y2="122.9199"/><line style="stroke:#181818;stroke-width:1.0;" x1="153.25" x2="344.5" y1="122.9199" y2="122.9199"/><line style="stroke:#181818;stroke-width:1.0;" x1="344.5" x2="344.5" y1="122.9199" y2="137.9199"/><polygon fill="#181818" points="340.5,127.9199,344.5,137.9199,348.5,127.9199,344.5,131.9199" style="stroke:#181818;stroke-width:1.0;"/><line style="stroke:#181818;stroke-width:1.0;" x1="344.5" x2="344.5" y1="173.8809" y2="178.8809"/><line style="stroke:#181818;stroke-width:1.0;" x1="344.5" x2="153.25" y1="178.8809" y2="178.8809"/><line style="stroke:#181818;stroke-width:1.0;" x1="153.25" x2="153.25" y1="178.8809" y2="193.8809"/><polygon fill="#181818" points="149.25,183.8809,153.25,193.8809,157.25,183.8809,153.25,187.8809" style="stroke:#181818;stroke-width:1.0;"/><text fill="#000000" font-family="sans-serif" font-size="18" lengthAdjust="spacing" textLength="58" x="109.5" y="32.4414">Worker</text><text fill="#000000" font-family="sans-serif" font-size="18" lengthAdjust="spacing" textLength="153" x="267" y="32.4414">Gateway Database</text><!--SRC=[FOwn3e9044Jx_OejuHUWC34NYQKsreSCYY2hUuk6v3vUJz5othnC9Xv4UsWa2kRLY8eALdd3qyyRbQkhr_FMbKHnWUoy-Te7H2hs238y47WtGUSa_TQwbhDxWgnVfrdbt0NEfC_PpXYfKDYa8v-MMQalE5f9608uWwfe_fS-yTsDJTUcft9x0G00]--></g></svg>