<?xml version="1.0" encoding="us-ascii" standalone="no"?><svg xmlns="http://www.w3.org/2000/svg" xmlns:xlink="http://www.w3.org/1999/xlink" contentStyleType="text/css" height="347px" preserveAspectRatio="none" style="width:467px;height:347px;background:#FFFFFF;" version="1.1" viewBox="0 0 467 347" width="467px" zoomAndPan="magnify"><defs/><g><rect fill="none" height="23.9414" style="stroke:none;stroke-width:1.0;" width="434.5" x="15" y="13.0176"/><ellipse cx="169.75" cy="51.959" fill="#222222" rx="10" ry="10" style="stroke:#222222;stroke-width:1.0;"/><rect fill="#F1F1F1" height="35.9609" rx="12.5" ry="12.5" style="stroke:#181818;stroke-width:0.5;" width="194" x="72.75" y="81.959"/><text fill="#000000" font-family="sans-serif" font-size="12" lengthAdjust="spacing" textLength="174" x="82.75" y="104.9082">GetPreferencesFromConfigMap</text><polygon fill="#F1F1F1" points="139.75,193.8809,199.75,193.8809,211.75,205.8809,199.75,217.8809,139.75,217.8809,127.75,205.8809,139.75,193.8809" style="stroke:#181818;stroke-width:0.5;"/><text fill="#000000" font-family="sans-serif" font-size="11" lengthAdjust="spacing" textLength="60" x="139.75" y="210.4355">Config Map?</text><text fill="#000000" font-family="sans-serif" font-size="11" lengthAdjust="spacing" textLength="11" x="116.75" y="203.1201">ok</text><text fill="#000000" font-family="sans-serif" font-size="11" lengthAdjust="spacing" textLength="24" x="211.75" y="203.1201">error</text><rect fill="#F1F1F1" height="35.9609" rx="12.5" ry="12.5" style="stroke:#181818;stroke-width:0.5;" width="158" x="21" y="227.8809"/><text fill="#000000" font-family="sans-serif" font-size="12" lengthAdjust="spacing" textLength="138" x="31" y="250.8301">return Preferences object</text><rect fill="#F1F1F1" height="35.9609" rx="12.5" ry="12.5" style="stroke:#181818;stroke-width:0.5;" width="81" x="199" y="227.8809"/><text fill="#000000" font-family="sans-serif" font-size="12" lengthAdjust="spacing" textLength="61" x="209" y="250.8301">return error</text><polygon fill="#F1F1F1" points="169.75,269.8418,181.75,281.8418,169.75,293.8418,157.75,281.8418,169.75,269.8418" style="stroke:#181818;stroke-width:0.5;"/><ellipse cx="169.75" cy="324.8418" fill="none" rx="11" ry="11" style="stroke:#222222;stroke-width:1.0;"/><ellipse cx="169.75" cy="324.8418" fill="#222222" rx="6" ry="6" style="stroke:#222222;stroke-width:1.0;"/><line style="stroke:#000000;stroke-width:1.5;" x1="15" x2="15" y1="13.0176" y2="335.8418"/><rect fill="#F1F1F1" height="35.9609" rx="12.5" ry="12.5" style="stroke:#181818;stroke-width:0.5;" width="129" x="302.5" y="137.9199"/><text fill="#000000" font-family="sans-serif" font-size="12" lengthAdjust="spacing" textLength="109" x="312.5" y="160.8691">Returns Config Map</text><line style="stroke:#000000;stroke-width:1.5;" x1="284" x2="284" y1="13.0176" y2="335.8418"/><line style="stroke:#000000;stroke-width:1.5;" x1="448" x2="448" y1="13.0176" y2="335.8418"/><line style="stroke:#181818;stroke-width:1.0;" x1="169.75" x2="169.75" y1="61.959" y2="81.959"/><polygon fill="#181818" points="165.75,71.959,169.75,81.959,173.75,71.959,169.75,75.959" style="stroke:#181818;stroke-width:1.0;"/><line style="stroke:#181818;stroke-width:1.0;" x1="127.75" x2="100" y1="205.8809" y2="205.8809"/><line style="stroke:#181818;stroke-width:1.0;" x1="100" x2="100" y1="205.8809" y2="227.8809"/><polygon fill="#181818" points="96,217.8809,100,227.8809,104,217.8809,100,221.8809" style="stroke:#181818;stroke-width:1.0;"/><line style="stroke:#181818;stroke-width:1.0;" x1="211.75" x2="239.5" y1="205.8809" y2="205.8809"/><line style="stroke:#181818;stroke-width:1.0;" x1="239.5" x2="239.5" y1="205.8809" y2="227.8809"/><polygon fill="#181818" points="235.5,217.8809,239.5,227.8809,243.5,217.8809,239.5,221.8809" style="stroke:#181818;stroke-width:1.0;"/><line style="stroke:#181818;stroke-width:1.0;" x1="100" x2="100" y1="263.8418" y2="281.8418"/><line style="stroke:#181818;stroke-width:1.0;" x1="100" x2="157.75" y1="281.8418" y2="281.8418"/><polygon fill="#181818" points="147.75,277.8418,157.75,281.8418,147.75,285.8418,151.75,281.8418" style="stroke:#181818;stroke-width:1.0;"/><line style="stroke:#181818;stroke-width:1.0;" x1="239.5" x2="239.5" y1="263.8418" y2="281.8418"/><line style="stroke:#181818;stroke-width:1.0;" x1="239.5" x2="181.75" y1="281.8418" y2="281.8418"/><polygon fill="#181818" points="191.75,277.8418,181.75,281.8418,191.75,285.8418,187.75,281.8418" style="stroke:#181818;stroke-width:1.0;"/><line style="stroke:#181818;stroke-width:1.0;" x1="169.75" x2="169.75" y1="293.8418" y2="313.8418"/><polygon fill="#181818" points="165.75,303.8418,169.75,313.8418,173.75,303.8418,169.75,307.8418" style="stroke:#181818;stroke-width:1.0;"/><line style="stroke:#181818;stroke-width:1.0;" x1="169.75" x2="169.75" y1="117.9199" y2="122.9199"/><line style="stroke:#181818;stroke-width:1.0;" x1="169.75" x2="367" y1="122.9199" y2="122.9199"/><line style="stroke:#181818;stroke-width:1.0;" x1="367" x2="367" y1="122.9199" y2="137.9199"/><polygon fill="#181818" points="363,127.9199,367,137.9199,371,127.9199,367,131.9199" style="stroke:#181818;stroke-width:1.0;"/><line style="stroke:#181818;stroke-width:1.0;" x1="367" x2="367" y1="173.8809" y2="178.8809"/><line style="stroke:#181818;stroke-width:1.0;" x1="367" x2="169.75" y1="178.8809" y2="178.8809"/><line style="stroke:#181818;stroke-width:1.0;" x1="169.75" x2="169.75" y1="178.8809" y2="193.8809"/><polygon fill="#181818" points="165.75,183.8809,169.75,193.8809,173.75,183.8809,169.75,187.8809" style="stroke:#181818;stroke-width:1.0;"/><text fill="#000000" font-family="sans-serif" font-size="18" lengthAdjust="spacing" textLength="58" x="120.5" y="32.4414">Worker</text><text fill="#000000" font-family="sans-serif" font-size="18" lengthAdjust="spacing" textLength="154" x="289" y="32.4414">Kubernetes Cluster</text><!--SRC=[JOux3i9034Hxdy9bSeLDGH492eI4QAYJC0jBmZhoEjqUFX_nAyVpnZFvAjf3Cr6oHet87M1dXOSYTaXxbLSjqOVxgHahedoSMcY48N4zJCdMhBl09etBPIFvZNvU1y_5pzcL718NqfTi3qHokeNvhvIbVQApYZ0aS05LqV8BRdBnuYtuTRQCCm00]--></g></svg>