<?xml version="1.0" encoding="us-ascii" standalone="no"?><svg xmlns="http://www.w3.org/2000/svg" xmlns:xlink="http://www.w3.org/1999/xlink" contentStyleType="text/css" height="997px" preserveAspectRatio="none" style="width:1143px;height:997px;background:#FFFFFF;" version="1.1" viewBox="0 0 1143 997" width="1143px" zoomAndPan="magnify"><defs/><g><rect fill="none" height="23.9414" style="stroke:none;stroke-width:1.0;" width="1110.5" x="15" y="13.0176"/><ellipse cx="89.5" cy="51.959" fill="#222222" rx="10" ry="10" style="stroke:#222222;stroke-width:1.0;"/><rect fill="#F1F1F1" height="51.9219" rx="12.5" ry="12.5" style="stroke:#181818;stroke-width:0.5;" width="137" x="21" y="81.959"/><text fill="#000000" font-family="sans-serif" font-size="12" lengthAdjust="spacing" textLength="117" x="31" y="104.9082">Send scheduleId and</text><text fill="#000000" font-family="sans-serif" font-size="12" lengthAdjust="spacing" textLength="116" x="31" y="120.8691">auth token to BFF API</text><rect fill="#F1F1F1" height="35.9609" rx="12.5" ry="12.5" style="stroke:#181818;stroke-width:0.5;" width="135" x="22" y="907.6885"/><text fill="#000000" font-family="sans-serif" font-size="12" lengthAdjust="spacing" textLength="115" x="32" y="930.6377">Display the schedule</text><ellipse cx="89.5" cy="974.6494" fill="none" rx="11" ry="11" style="stroke:#222222;stroke-width:1.0;"/><ellipse cx="89.5" cy="974.6494" fill="#222222" rx="6" ry="6" style="stroke:#222222;stroke-width:1.0;"/><line style="stroke:#000000;stroke-width:1.5;" x1="15" x2="15" y1="13.0176" y2="985.6494"/><rect fill="#F1F1F1" height="51.9219" rx="12.5" ry="12.5" style="stroke:#181818;stroke-width:0.5;" width="151" x="468.875" y="153.8809"/><text fill="#000000" font-family="sans-serif" font-size="12" lengthAdjust="spacing" textLength="131" x="478.875" y="176.8301">Call Schedule API to get</text><text fill="#000000" font-family="sans-serif" font-size="12" lengthAdjust="spacing" textLength="101" x="478.875" y="192.791">the schedule by ID</text><polygon fill="#F1F1F1" points="489.375,281.7637,599.375,281.7637,611.375,293.7637,599.375,305.7637,489.375,305.7637,477.375,293.7637,489.375,281.7637" style="stroke:#181818;stroke-width:0.5;"/><text fill="#000000" font-family="sans-serif" font-size="11" lengthAdjust="spacing" textLength="110" x="489.375" y="298.3184">result code is not 2xx?</text><text fill="#000000" font-family="sans-serif" font-size="11" lengthAdjust="spacing" textLength="18" x="459.375" y="291.0029">yes</text><text fill="#000000" font-family="sans-serif" font-size="11" lengthAdjust="spacing" textLength="12" x="611.375" y="291.0029">no</text><polygon fill="#F1F1F1" points="300.75,325.7637,430.75,325.7637,442.75,337.7637,430.75,349.7637,300.75,349.7637,288.75,337.7637,300.75,325.7637" style="stroke:#181818;stroke-width:0.5;"/><text fill="#000000" font-family="sans-serif" font-size="11" lengthAdjust="spacing" textLength="130" x="300.75" y="342.3184">response code is present?</text><text fill="#000000" font-family="sans-serif" font-size="11" lengthAdjust="spacing" textLength="18" x="270.75" y="335.0029">yes</text><text fill="#000000" font-family="sans-serif" font-size="11" lengthAdjust="spacing" textLength="12" x="442.75" y="335.0029">no</text><rect fill="#F1F1F1" height="51.9219" rx="12.5" ry="12.5" style="stroke:#181818;stroke-width:0.5;" width="194" x="168" y="359.7637"/><text fill="#000000" font-family="sans-serif" font-size="12" lengthAdjust="spacing" textLength="101" x="178" y="382.7129">Forward response</text><text fill="#000000" font-family="sans-serif" font-size="12" lengthAdjust="spacing" textLength="174" x="178" y="398.6738">code and message to the portal</text><rect fill="#F1F1F1" height="35.9609" rx="12.5" ry="12.5" style="stroke:#181818;stroke-width:0.5;" width="169" x="382" y="359.7637"/><text fill="#000000" font-family="sans-serif" font-size="12" lengthAdjust="spacing" textLength="149" x="392" y="382.7129">Send 500 error to the portal</text><polygon fill="#F1F1F1" points="365.75,417.6855,377.75,429.6855,365.75,441.6855,353.75,429.6855,365.75,417.6855" style="stroke:#181818;stroke-width:0.5;"/><rect fill="#F1F1F1" height="51.9219" rx="12.5" ry="12.5" style="stroke:#181818;stroke-width:0.5;" width="154" x="646" y="325.7637"/><text fill="#000000" font-family="sans-serif" font-size="12" lengthAdjust="spacing" textLength="113" x="656" y="348.7129">Call the Gateway API</text><text fill="#000000" font-family="sans-serif" font-size="12" lengthAdjust="spacing" textLength="128" x="662" y="364.6738">to get the gateway by ID</text><rect fill="#F1F1F1" height="51.9219" rx="12.5" ry="12.5" style="stroke:#181818;stroke-width:0.5;" width="264" x="591" y="517.9619"/><text fill="#000000" font-family="sans-serif" font-size="12" lengthAdjust="spacing" textLength="195" x="601" y="540.9111">Set the gateway to be a blank object</text><text fill="#000000" font-family="sans-serif" font-size="12" lengthAdjust="spacing" textLength="244" x="601" y="556.8721">with friendly name set to "Gateway not found"</text><polygon fill="#F1F1F1" points="677,468.6465,769,468.6465,781,480.6465,769,492.6465,677,492.6465,665,480.6465,677,468.6465" style="stroke:#181818;stroke-width:0.5;"/><text fill="#000000" font-family="sans-serif" font-size="11" lengthAdjust="spacing" textLength="12" x="727" y="504.5166">no</text><text fill="#000000" font-family="sans-serif" font-size="11" lengthAdjust="spacing" textLength="92" x="677" y="485.2012">result code is 2xx?</text><text fill="#000000" font-family="sans-serif" font-size="11" lengthAdjust="spacing" textLength="18" x="781" y="477.8857">yes</text><polygon fill="#F1F1F1" points="723,589.8838,735,601.8838,723,613.8838,711,601.8838,723,589.8838" style="stroke:#181818;stroke-width:0.5;"/><rect fill="#F1F1F1" height="35.9609" rx="12.5" ry="12.5" style="stroke:#181818;stroke-width:0.5;" width="247" x="599.5" y="633.8838"/><text fill="#000000" font-family="sans-serif" font-size="12" lengthAdjust="spacing" textLength="227" x="609.5" y="656.833">Convert the Schedule to a ClientSchedule</text><rect fill="#F1F1F1" height="35.9609" rx="12.5" ry="12.5" style="stroke:#181818;stroke-width:0.5;" width="127" x="659.5" y="689.8447"/><text fill="#000000" font-family="sans-serif" font-size="12" lengthAdjust="spacing" textLength="107" x="669.5" y="712.7939">Format date strings</text><rect fill="#F1F1F1" height="51.9219" rx="12.5" ry="12.5" style="stroke:#181818;stroke-width:0.5;" width="198" x="624" y="745.8057"/><text fill="#000000" font-family="sans-serif" font-size="12" lengthAdjust="spacing" textLength="154" x="634" y="768.7549">Set response code to be the</text><text fill="#000000" font-family="sans-serif" font-size="12" lengthAdjust="spacing" textLength="178" x="634" y="784.7158">same as the schedule API result</text><rect fill="#F1F1F1" height="35.9609" rx="12.5" ry="12.5" style="stroke:#181818;stroke-width:0.5;" width="245" x="600.5" y="817.7275"/><text fill="#000000" font-family="sans-serif" font-size="12" lengthAdjust="spacing" textLength="225" x="610.5" y="840.6768">Return the ClientSchedule BFF response</text><polygon fill="#F1F1F1" points="544.375,863.6885,556.375,875.6885,544.375,887.6885,532.375,875.6885,544.375,863.6885" style="stroke:#181818;stroke-width:0.5;"/><line style="stroke:#000000;stroke-width:1.5;" x1="162" x2="162" y1="13.0176" y2="985.6494"/><rect fill="#F1F1F1" height="35.9609" rx="12.5" ry="12.5" style="stroke:#181818;stroke-width:0.5;" width="91" x="900.5" y="225.8027"/><text fill="#000000" font-family="sans-serif" font-size="12" lengthAdjust="spacing" textLength="71" x="910.5" y="248.752">Return result</text><line style="stroke:#000000;stroke-width:1.5;" x1="884" x2="884" y1="13.0176" y2="985.6494"/><rect fill="#F1F1F1" height="35.9609" rx="12.5" ry="12.5" style="stroke:#181818;stroke-width:0.5;" width="91" x="1020.5" y="412.6855"/><text fill="#000000" font-family="sans-serif" font-size="12" lengthAdjust="spacing" textLength="71" x="1030.5" y="435.6348">Return result</text><line style="stroke:#000000;stroke-width:1.5;" x1="1006" x2="1006" y1="13.0176" y2="985.6494"/><line style="stroke:#000000;stroke-width:1.5;" x1="1124" x2="1124" y1="13.0176" y2="985.6494"/><line style="stroke:#181818;stroke-width:1.0;" x1="89.5" x2="89.5" y1="61.959" y2="81.959"/><polygon fill="#181818" points="85.5,71.959,89.5,81.959,93.5,71.959,89.5,75.959" style="stroke:#181818;stroke-width:1.0;"/><line style="stroke:#181818;stroke-width:1.0;" x1="89.5" x2="89.5" y1="943.6494" y2="963.6494"/><polygon fill="#181818" points="85.5,953.6494,89.5,963.6494,93.5,953.6494,89.5,957.6494" style="stroke:#181818;stroke-width:1.0;"/><line style="stroke:#181818;stroke-width:1.0;" x1="288.75" x2="265" y1="337.7637" y2="337.7637"/><line style="stroke:#181818;stroke-width:1.0;" x1="265" x2="265" y1="337.7637" y2="359.7637"/><polygon fill="#181818" points="261,349.7637,265,359.7637,269,349.7637,265,353.7637" style="stroke:#181818;stroke-width:1.0;"/><line style="stroke:#181818;stroke-width:1.0;" x1="442.75" x2="466.5" y1="337.7637" y2="337.7637"/><line style="stroke:#181818;stroke-width:1.0;" x1="466.5" x2="466.5" y1="337.7637" y2="359.7637"/><polygon fill="#181818" points="462.5,349.7637,466.5,359.7637,470.5,349.7637,466.5,353.7637" style="stroke:#181818;stroke-width:1.0;"/><line style="stroke:#181818;stroke-width:1.0;" x1="265" x2="265" y1="411.6855" y2="429.6855"/><line style="stroke:#181818;stroke-width:1.0;" x1="265" x2="353.75" y1="429.6855" y2="429.6855"/><polygon fill="#181818" points="343.75,425.6855,353.75,429.6855,343.75,433.6855,347.75,429.6855" style="stroke:#181818;stroke-width:1.0;"/><line style="stroke:#181818;stroke-width:1.0;" x1="466.5" x2="466.5" y1="395.7246" y2="429.6855"/><line style="stroke:#181818;stroke-width:1.0;" x1="466.5" x2="377.75" y1="429.6855" y2="429.6855"/><polygon fill="#181818" points="387.75,425.6855,377.75,429.6855,387.75,433.6855,383.75,429.6855" style="stroke:#181818;stroke-width:1.0;"/><line style="stroke:#181818;stroke-width:1.0;" x1="723" x2="723" y1="492.6465" y2="517.9619"/><polygon fill="#181818" points="719,507.9619,723,517.9619,727,507.9619,723,511.9619" style="stroke:#181818;stroke-width:1.0;"/><line style="stroke:#181818;stroke-width:1.0;" x1="781" x2="865" y1="480.6465" y2="480.6465"/><polygon fill="#181818" points="861,533.9229,865,543.9229,869,533.9229,865,537.9229" style="stroke:#181818;stroke-width:1.0;"/><line style="stroke:#181818;stroke-width:1.0;" x1="865" x2="865" y1="480.6465" y2="601.8838"/><line style="stroke:#181818;stroke-width:1.0;" x1="865" x2="735" y1="601.8838" y2="601.8838"/><polygon fill="#181818" points="745,597.8838,735,601.8838,745,605.8838,741,601.8838" style="stroke:#181818;stroke-width:1.0;"/><line style="stroke:#181818;stroke-width:1.0;" x1="723" x2="723" y1="569.8838" y2="589.8838"/><polygon fill="#181818" points="719,579.8838,723,589.8838,727,579.8838,723,583.8838" style="stroke:#181818;stroke-width:1.0;"/><line style="stroke:#181818;stroke-width:1.0;" x1="723" x2="723" y1="613.8838" y2="633.8838"/><polygon fill="#181818" points="719,623.8838,723,633.8838,727,623.8838,723,627.8838" style="stroke:#181818;stroke-width:1.0;"/><line style="stroke:#181818;stroke-width:1.0;" x1="723" x2="723" y1="669.8447" y2="689.8447"/><polygon fill="#181818" points="719,679.8447,723,689.8447,727,679.8447,723,683.8447" style="stroke:#181818;stroke-width:1.0;"/><line style="stroke:#181818;stroke-width:1.0;" x1="723" x2="723" y1="725.8057" y2="745.8057"/><polygon fill="#181818" points="719,735.8057,723,745.8057,727,735.8057,723,739.8057" style="stroke:#181818;stroke-width:1.0;"/><line style="stroke:#181818;stroke-width:1.0;" x1="723" x2="723" y1="797.7275" y2="817.7275"/><polygon fill="#181818" points="719,807.7275,723,817.7275,727,807.7275,723,811.7275" style="stroke:#181818;stroke-width:1.0;"/><line style="stroke:#181818;stroke-width:1.0;" x1="477.375" x2="365.75" y1="293.7637" y2="293.7637"/><line style="stroke:#181818;stroke-width:1.0;" x1="365.75" x2="365.75" y1="293.7637" y2="325.7637"/><polygon fill="#181818" points="361.75,315.7637,365.75,325.7637,369.75,315.7637,365.75,319.7637" style="stroke:#181818;stroke-width:1.0;"/><line style="stroke:#181818;stroke-width:1.0;" x1="611.375" x2="723" y1="293.7637" y2="293.7637"/><line style="stroke:#181818;stroke-width:1.0;" x1="723" x2="723" y1="293.7637" y2="325.7637"/><polygon fill="#181818" points="719,315.7637,723,325.7637,727,315.7637,723,319.7637" style="stroke:#181818;stroke-width:1.0;"/><line style="stroke:#181818;stroke-width:1.0;" x1="365.75" x2="365.75" y1="441.6855" y2="875.6885"/><line style="stroke:#181818;stroke-width:1.0;" x1="365.75" x2="532.375" y1="875.6885" y2="875.6885"/><polygon fill="#181818" points="522.375,871.6885,532.375,875.6885,522.375,879.6885,526.375,875.6885" style="stroke:#181818;stroke-width:1.0;"/><line style="stroke:#181818;stroke-width:1.0;" x1="723" x2="723" y1="853.6885" y2="875.6885"/><line style="stroke:#181818;stroke-width:1.0;" x1="723" x2="556.375" y1="875.6885" y2="875.6885"/><polygon fill="#181818" points="566.375,871.6885,556.375,875.6885,566.375,879.6885,562.375,875.6885" style="stroke:#181818;stroke-width:1.0;"/><line style="stroke:#181818;stroke-width:1.0;" x1="89.5" x2="89.5" y1="133.8809" y2="138.8809"/><line style="stroke:#181818;stroke-width:1.0;" x1="89.5" x2="544.375" y1="138.8809" y2="138.8809"/><line style="stroke:#181818;stroke-width:1.0;" x1="544.375" x2="544.375" y1="138.8809" y2="153.8809"/><polygon fill="#181818" points="540.375,143.8809,544.375,153.8809,548.375,143.8809,544.375,147.8809" style="stroke:#181818;stroke-width:1.0;"/><line style="stroke:#181818;stroke-width:1.0;" x1="544.375" x2="544.375" y1="205.8027" y2="210.8027"/><line style="stroke:#181818;stroke-width:1.0;" x1="544.375" x2="946" y1="210.8027" y2="210.8027"/><line style="stroke:#181818;stroke-width:1.0;" x1="946" x2="946" y1="210.8027" y2="225.8027"/><polygon fill="#181818" points="942,215.8027,946,225.8027,950,215.8027,946,219.8027" style="stroke:#181818;stroke-width:1.0;"/><line style="stroke:#181818;stroke-width:1.0;" x1="723" x2="723" y1="377.6855" y2="395.1855"/><line style="stroke:#181818;stroke-width:1.0;" x1="723" x2="1066" y1="395.1855" y2="395.1855"/><line style="stroke:#181818;stroke-width:1.0;" x1="1066" x2="1066" y1="395.1855" y2="412.6855"/><polygon fill="#181818" points="1062,402.6855,1066,412.6855,1070,402.6855,1066,406.6855" style="stroke:#181818;stroke-width:1.0;"/><line style="stroke:#181818;stroke-width:1.0;" x1="1066" x2="1066" y1="448.6465" y2="453.6465"/><line style="stroke:#181818;stroke-width:1.0;" x1="1066" x2="723" y1="453.6465" y2="453.6465"/><line style="stroke:#181818;stroke-width:1.0;" x1="723" x2="723" y1="453.6465" y2="468.6465"/><polygon fill="#181818" points="719,458.6465,723,468.6465,727,458.6465,723,462.6465" style="stroke:#181818;stroke-width:1.0;"/><line style="stroke:#181818;stroke-width:1.0;" x1="946" x2="946" y1="261.7637" y2="266.7637"/><line style="stroke:#181818;stroke-width:1.0;" x1="946" x2="544.375" y1="266.7637" y2="266.7637"/><line style="stroke:#181818;stroke-width:1.0;" x1="544.375" x2="544.375" y1="266.7637" y2="281.7637"/><polygon fill="#181818" points="540.375,271.7637,544.375,281.7637,548.375,271.7637,544.375,275.7637" style="stroke:#181818;stroke-width:1.0;"/><line style="stroke:#181818;stroke-width:1.0;" x1="544.375" x2="544.375" y1="887.6885" y2="892.6885"/><line style="stroke:#181818;stroke-width:1.0;" x1="544.375" x2="89.5" y1="892.6885" y2="892.6885"/><line style="stroke:#181818;stroke-width:1.0;" x1="89.5" x2="89.5" y1="892.6885" y2="907.6885"/><polygon fill="#181818" points="85.5,897.6885,89.5,907.6885,93.5,897.6885,89.5,901.6885" style="stroke:#181818;stroke-width:1.0;"/><text fill="#000000" font-family="sans-serif" font-size="18" lengthAdjust="spacing" textLength="89" x="46.5" y="32.4414">Web Portal</text><text fill="#000000" font-family="sans-serif" font-size="18" lengthAdjust="spacing" textLength="66" x="492.5" y="32.4414">BFF API</text><text fill="#000000" font-family="sans-serif" font-size="18" lengthAdjust="spacing" textLength="107" x="894" y="32.4414">Schedule API</text><text fill="#000000" font-family="sans-serif" font-size="18" lengthAdjust="spacing" textLength="103" x="1016" y="32.4414">Gateway API</text><!--SRC=[TPCzRy8m48Pt_ueJ4soeKfSmL2qL5Hig0xE33qXhxCY-593outld93G1cW4Ht_lUn-DBlLdLiC4SLZwGjYgI3gHKjaPd86uFQ2gBImFQ6QKhEW3vRtJy2s-B1RokbZEbQlvRT-ygcsjhOTrQvKZKUoH51xocXFm2otSnhrbH3_Gg-qIgWeE0iR9qLw7OmRW9mTORX2A2ymHFv_FBH5x65umJu6fE0J-jlFGkujLGyWawUcYG9rluSDB1GEUyHb86nW57Z57lKQQJoSe4SDRgq7AniVEJlum9wVDq2XY23__Od2bsIgc-lG4gsWzDUDAN147K3TSKshUX5gj4wuz4zjPq1pTf1u1xrFgG_mDyEojFEcoA-yoP6UHMks_m-HTkgTMU2jwfNIXuS7i1fu-y8kBsCEeQbxlT-SgPKJDNo-XnszdSknyCJVthKd4w3NFBLQWxQtB9DHyrWU5Q42aKRX_RY0mnN9jc34wS155wrH46MotRte7jmnRHi7xgkii_aojlngflFiZilOYb5OYzEgBd9v8lVm40]--></g></svg>