<?xml version="1.0" encoding="us-ascii" standalone="no"?><svg xmlns="http://www.w3.org/2000/svg" xmlns:xlink="http://www.w3.org/1999/xlink" contentStyleType="text/css" height="347px" preserveAspectRatio="none" style="width:444px;height:347px;background:#FFFFFF;" version="1.1" viewBox="0 0 444 347" width="444px" zoomAndPan="magnify"><defs/><g><rect fill="none" height="23.9414" style="stroke:none;stroke-width:1.0;" width="411.5" x="15" y="13.0176"/><ellipse cx="152.5" cy="51.959" fill="#222222" rx="10" ry="10" style="stroke:#222222;stroke-width:1.0;"/><rect fill="#F1F1F1" height="35.9609" rx="12.5" ry="12.5" style="stroke:#181818;stroke-width:0.5;" width="172" x="66.5" y="81.959"/><text fill="#000000" font-family="sans-serif" font-size="12" lengthAdjust="spacing" textLength="152" x="76.5" y="104.9082">GetSettingsFromConfigMap</text><polygon fill="#F1F1F1" points="122.5,193.8809,182.5,193.8809,194.5,205.8809,182.5,217.8809,122.5,217.8809,110.5,205.8809,122.5,193.8809" style="stroke:#181818;stroke-width:0.5;"/><text fill="#000000" font-family="sans-serif" font-size="11" lengthAdjust="spacing" textLength="60" x="122.5" y="210.4355">Config Map?</text><text fill="#000000" font-family="sans-serif" font-size="11" lengthAdjust="spacing" textLength="11" x="99.5" y="203.1201">ok</text><text fill="#000000" font-family="sans-serif" font-size="11" lengthAdjust="spacing" textLength="24" x="194.5" y="203.1201">error</text><rect fill="#F1F1F1" height="35.9609" rx="12.5" ry="12.5" style="stroke:#181818;stroke-width:0.5;" width="135" x="21" y="227.8809"/><text fill="#000000" font-family="sans-serif" font-size="12" lengthAdjust="spacing" textLength="115" x="31" y="250.8301">return settings object</text><rect fill="#F1F1F1" height="35.9609" rx="12.5" ry="12.5" style="stroke:#181818;stroke-width:0.5;" width="81" x="176" y="227.8809"/><text fill="#000000" font-family="sans-serif" font-size="12" lengthAdjust="spacing" textLength="61" x="186" y="250.8301">return error</text><polygon fill="#F1F1F1" points="152.5,269.8418,164.5,281.8418,152.5,293.8418,140.5,281.8418,152.5,269.8418" style="stroke:#181818;stroke-width:0.5;"/><ellipse cx="152.5" cy="324.8418" fill="none" rx="11" ry="11" style="stroke:#222222;stroke-width:1.0;"/><ellipse cx="152.5" cy="324.8418" fill="#222222" rx="6" ry="6" style="stroke:#222222;stroke-width:1.0;"/><line style="stroke:#000000;stroke-width:1.5;" x1="15" x2="15" y1="13.0176" y2="335.8418"/><rect fill="#F1F1F1" height="35.9609" rx="12.5" ry="12.5" style="stroke:#181818;stroke-width:0.5;" width="129" x="279.5" y="137.9199"/><text fill="#000000" font-family="sans-serif" font-size="12" lengthAdjust="spacing" textLength="109" x="289.5" y="160.8691">Returns Config Map</text><line style="stroke:#000000;stroke-width:1.5;" x1="261" x2="261" y1="13.0176" y2="335.8418"/><line style="stroke:#000000;stroke-width:1.5;" x1="425" x2="425" y1="13.0176" y2="335.8418"/><line style="stroke:#181818;stroke-width:1.0;" x1="152.5" x2="152.5" y1="61.959" y2="81.959"/><polygon fill="#181818" points="148.5,71.959,152.5,81.959,156.5,71.959,152.5,75.959" style="stroke:#181818;stroke-width:1.0;"/><line style="stroke:#181818;stroke-width:1.0;" x1="110.5" x2="88.5" y1="205.8809" y2="205.8809"/><line style="stroke:#181818;stroke-width:1.0;" x1="88.5" x2="88.5" y1="205.8809" y2="227.8809"/><polygon fill="#181818" points="84.5,217.8809,88.5,227.8809,92.5,217.8809,88.5,221.8809" style="stroke:#181818;stroke-width:1.0;"/><line style="stroke:#181818;stroke-width:1.0;" x1="194.5" x2="216.5" y1="205.8809" y2="205.8809"/><line style="stroke:#181818;stroke-width:1.0;" x1="216.5" x2="216.5" y1="205.8809" y2="227.8809"/><polygon fill="#181818" points="212.5,217.8809,216.5,227.8809,220.5,217.8809,216.5,221.8809" style="stroke:#181818;stroke-width:1.0;"/><line style="stroke:#181818;stroke-width:1.0;" x1="88.5" x2="88.5" y1="263.8418" y2="281.8418"/><line style="stroke:#181818;stroke-width:1.0;" x1="88.5" x2="140.5" y1="281.8418" y2="281.8418"/><polygon fill="#181818" points="130.5,277.8418,140.5,281.8418,130.5,285.8418,134.5,281.8418" style="stroke:#181818;stroke-width:1.0;"/><line style="stroke:#181818;stroke-width:1.0;" x1="216.5" x2="216.5" y1="263.8418" y2="281.8418"/><line style="stroke:#181818;stroke-width:1.0;" x1="216.5" x2="164.5" y1="281.8418" y2="281.8418"/><polygon fill="#181818" points="174.5,277.8418,164.5,281.8418,174.5,285.8418,170.5,281.8418" style="stroke:#181818;stroke-width:1.0;"/><line style="stroke:#181818;stroke-width:1.0;" x1="152.5" x2="152.5" y1="293.8418" y2="313.8418"/><polygon fill="#181818" points="148.5,303.8418,152.5,313.8418,156.5,303.8418,152.5,307.8418" style="stroke:#181818;stroke-width:1.0;"/><line style="stroke:#181818;stroke-width:1.0;" x1="152.5" x2="152.5" y1="117.9199" y2="122.9199"/><line style="stroke:#181818;stroke-width:1.0;" x1="152.5" x2="344" y1="122.9199" y2="122.9199"/><line style="stroke:#181818;stroke-width:1.0;" x1="344" x2="344" y1="122.9199" y2="137.9199"/><polygon fill="#181818" points="340,127.9199,344,137.9199,348,127.9199,344,131.9199" style="stroke:#181818;stroke-width:1.0;"/><line style="stroke:#181818;stroke-width:1.0;" x1="344" x2="344" y1="173.8809" y2="178.8809"/><line style="stroke:#181818;stroke-width:1.0;" x1="344" x2="152.5" y1="178.8809" y2="178.8809"/><line style="stroke:#181818;stroke-width:1.0;" x1="152.5" x2="152.5" y1="178.8809" y2="193.8809"/><polygon fill="#181818" points="148.5,183.8809,152.5,193.8809,156.5,183.8809,152.5,187.8809" style="stroke:#181818;stroke-width:1.0;"/><text fill="#000000" font-family="sans-serif" font-size="18" lengthAdjust="spacing" textLength="58" x="109" y="32.4414">Worker</text><text fill="#000000" font-family="sans-serif" font-size="18" lengthAdjust="spacing" textLength="154" x="266" y="32.4414">Kubernetes Cluster</text><!--SRC=[HOwn4e9034JxV4NAunUWi6162yT62slGW2UOC4cku-E16zHois-pEzz51z8PmBnH1oXFv3ToZzpRKULJ2tUnlpHJ1J2VKqlAv6HOZyby2vPNygIyNZA9E_hz6piCV-TGO3GCCXJeBs8eDOVHzaQKzaqFhu168moaAbhyg2nNZv-nsmRBj000]--></g></svg>