<?xml version="1.0" encoding="us-ascii" standalone="no"?><svg xmlns="http://www.w3.org/2000/svg" xmlns:xlink="http://www.w3.org/1999/xlink" contentStyleType="text/css" height="788px" preserveAspectRatio="none" style="width:805px;height:788px;background:#FFFFFF;" version="1.1" viewBox="0 0 805 788" width="805px" zoomAndPan="magnify"><defs/><g><rect fill="none" height="23.9414" style="stroke:none;stroke-width:1.0;" width="772.5" x="15" y="13.0176"/><ellipse cx="87" cy="51.959" fill="#222222" rx="10" ry="10" style="stroke:#222222;stroke-width:1.0;"/><rect fill="#F1F1F1" height="35.9609" rx="12.5" ry="12.5" style="stroke:#181818;stroke-width:0.5;" width="132" x="21" y="81.959"/><text fill="#000000" font-family="sans-serif" font-size="12" lengthAdjust="spacing" textLength="112" x="31" y="104.9082">Schedules Workflow</text><rect fill="#F1F1F1" height="35.9609" rx="12.5" ry="12.5" style="stroke:#181818;stroke-width:0.5;" width="127" x="23.5" y="698.6694"/><text fill="#000000" font-family="sans-serif" font-size="12" lengthAdjust="spacing" textLength="107" x="33.5" y="721.6187">Workflow Complete</text><ellipse cx="87" cy="765.6304" fill="none" rx="11" ry="11" style="stroke:#222222;stroke-width:1.0;"/><ellipse cx="87" cy="765.6304" fill="#222222" rx="6" ry="6" style="stroke:#222222;stroke-width:1.0;"/><line style="stroke:#000000;stroke-width:1.5;" x1="15" x2="15" y1="13.0176" y2="776.6304"/><rect fill="none" height="547.2871" style="stroke:#000000;stroke-width:1.5;" width="619" x="163" y="127.9199"/><path d="M327,127.9199 L327,139.541 L317,149.541 L163,149.541 " fill="none" style="stroke:#000000;stroke-width:1.5;"/><text fill="#000000" font-family="sans-serif" font-size="14" lengthAdjust="spacing" textLength="154" x="166" y="144.0273">CommunicationWorkflow</text><path d="M259.5,214.876 L259.5,242.167 L471.5,242.167 L471.5,224.876 L461.5,214.876 L259.5,214.876 " fill="#FEFFDD" style="stroke:#181818;stroke-width:0.5;"/><path d="M461.5,214.876 L461.5,224.876 L471.5,224.876 L461.5,214.876 " fill="#FEFFDD" style="stroke:#181818;stroke-width:0.5;"/><text fill="#000000" font-family="sans-serif" font-size="13" lengthAdjust="spacing" textLength="191" x="265.5" y="233.9043">See GetPreferencesActivity.puml</text><rect fill="#F1F1F1" height="35.9609" rx="12.5" ry="12.5" style="stroke:#181818;stroke-width:0.5;" width="139" x="491.5" y="210.541"/><text fill="#000000" font-family="sans-serif" font-size="12" lengthAdjust="spacing" textLength="119" x="501.5" y="233.4902">getPreferencesActivity</text><polygon fill="#F1F1F1" points="561,166.541,573,178.541,561,190.541,549,178.541,561,166.541" style="stroke:#181818;stroke-width:0.5;"/><polygon fill="#F1F1F1" points="517,276.502,605,276.502,617,288.502,605,300.502,517,300.502,505,288.502,517,276.502" style="stroke:#181818;stroke-width:0.5;"/><text fill="#000000" font-family="sans-serif" font-size="11" lengthAdjust="spacing" textLength="88" x="517" y="293.0566">Activity completed</text><text fill="#000000" font-family="sans-serif" font-size="11" lengthAdjust="spacing" textLength="12" x="617" y="285.7412">no</text><rect fill="#F1F1F1" height="35.9609" rx="12.5" ry="12.5" style="stroke:#181818;stroke-width:0.5;" width="89" x="654.5" y="210.541"/><text fill="#000000" font-family="sans-serif" font-size="12" lengthAdjust="spacing" textLength="66" x="667.5" y="233.4902">Retry Activity</text><path d="M286.5,392.2285 L286.5,419.5195 L480.5,419.5195 L480.5,402.2285 L470.5,392.2285 L286.5,392.2285 " fill="#FEFFDD" style="stroke:#181818;stroke-width:0.5;"/><path d="M470.5,392.2285 L470.5,402.2285 L480.5,402.2285 L470.5,392.2285 " fill="#FEFFDD" style="stroke:#181818;stroke-width:0.5;"/><text fill="#000000" font-family="sans-serif" font-size="13" lengthAdjust="spacing" textLength="173" x="292.5" y="411.2568">See GetGatewayActivity.puml</text><rect fill="#F1F1F1" height="35.9609" rx="12.5" ry="12.5" style="stroke:#181818;stroke-width:0.5;" width="121" x="500.5" y="387.8936"/><text fill="#000000" font-family="sans-serif" font-size="12" lengthAdjust="spacing" textLength="101" x="510.5" y="410.8428">GetGatewayActivity</text><polygon fill="#F1F1F1" points="561,343.8936,573,355.8936,561,367.8936,549,355.8936,561,343.8936" style="stroke:#181818;stroke-width:0.5;"/><polygon fill="#F1F1F1" points="517,453.8545,605,453.8545,617,465.8545,605,477.8545,517,477.8545,505,465.8545,517,453.8545" style="stroke:#181818;stroke-width:0.5;"/><text fill="#000000" font-family="sans-serif" font-size="11" lengthAdjust="spacing" textLength="88" x="517" y="470.4092">Activity completed</text><text fill="#000000" font-family="sans-serif" font-size="11" lengthAdjust="spacing" textLength="12" x="617" y="463.0938">no</text><rect fill="#F1F1F1" height="35.9609" rx="12.5" ry="12.5" style="stroke:#181818;stroke-width:0.5;" width="89" x="645.5" y="387.8936"/><text fill="#000000" font-family="sans-serif" font-size="12" lengthAdjust="spacing" textLength="66" x="658.5" y="410.8428">Retry Activity</text><path d="M173,569.5811 L173,596.8721 L443,596.8721 L443,579.5811 L433,569.5811 L173,569.5811 " fill="#FEFFDD" style="stroke:#181818;stroke-width:0.5;"/><path d="M433,569.5811 L433,579.5811 L443,579.5811 L433,569.5811 " fill="#FEFFDD" style="stroke:#181818;stroke-width:0.5;"/><text fill="#000000" font-family="sans-serif" font-size="13" lengthAdjust="spacing" textLength="249" x="179" y="588.6094">See SendMessageToGatewayActivity.puml</text><rect fill="#F1F1F1" height="35.9609" rx="12.5" ry="12.5" style="stroke:#181818;stroke-width:0.5;" width="196" x="463" y="565.2461"/><text fill="#000000" font-family="sans-serif" font-size="12" lengthAdjust="spacing" textLength="176" x="473" y="588.1953">SendMessageToGatewayActivity</text><polygon fill="#F1F1F1" points="561,521.2461,573,533.2461,561,545.2461,549,533.2461,561,521.2461" style="stroke:#181818;stroke-width:0.5;"/><polygon fill="#F1F1F1" points="517,631.207,605,631.207,617,643.207,605,655.207,517,655.207,505,643.207,517,631.207" style="stroke:#181818;stroke-width:0.5;"/><text fill="#000000" font-family="sans-serif" font-size="11" lengthAdjust="spacing" textLength="88" x="517" y="647.7617">Activity completed</text><text fill="#000000" font-family="sans-serif" font-size="11" lengthAdjust="spacing" textLength="12" x="617" y="640.4463">no</text><rect fill="#F1F1F1" height="35.9609" rx="12.5" ry="12.5" style="stroke:#181818;stroke-width:0.5;" width="89" x="683" y="565.2461"/><text fill="#000000" font-family="sans-serif" font-size="12" lengthAdjust="spacing" textLength="66" x="696" y="588.1953">Retry Activity</text><line style="stroke:#000000;stroke-width:1.5;" x1="157" x2="157" y1="13.0176" y2="776.6304"/><line style="stroke:#000000;stroke-width:1.5;" x1="786" x2="786" y1="13.0176" y2="776.6304"/><line style="stroke:#181818;stroke-width:1.0;" x1="87" x2="87" y1="61.959" y2="81.959"/><polygon fill="#181818" points="83,71.959,87,81.959,91,71.959,87,75.959" style="stroke:#181818;stroke-width:1.0;"/><line style="stroke:#181818;stroke-width:1.0;" x1="87" x2="87" y1="734.6304" y2="754.6304"/><polygon fill="#181818" points="83,744.6304,87,754.6304,91,744.6304,87,748.6304" style="stroke:#181818;stroke-width:1.0;"/><line style="stroke:#181818;stroke-width:1.0;" x1="561" x2="561" y1="190.541" y2="210.541"/><polygon fill="#181818" points="557,200.541,561,210.541,565,200.541,561,204.541" style="stroke:#181818;stroke-width:1.0;"/><line style="stroke:#181818;stroke-width:1.0;" x1="617" x2="699" y1="288.502" y2="288.502"/><line style="stroke:#181818;stroke-width:1.0;" x1="699" x2="699" y1="246.502" y2="288.502"/><polygon fill="#181818" points="695,256.502,699,246.502,703,256.502,699,252.502" style="stroke:#181818;stroke-width:1.0;"/><line style="stroke:#181818;stroke-width:1.0;" x1="699" x2="699" y1="178.541" y2="210.541"/><line style="stroke:#181818;stroke-width:1.0;" x1="699" x2="573" y1="178.541" y2="178.541"/><polygon fill="#181818" points="583,174.541,573,178.541,583,182.541,579,178.541" style="stroke:#181818;stroke-width:1.0;"/><line style="stroke:#181818;stroke-width:1.0;" x1="561" x2="561" y1="246.502" y2="276.502"/><polygon fill="#181818" points="557,266.502,561,276.502,565,266.502,561,270.502" style="stroke:#181818;stroke-width:1.0;"/><line style="stroke:#181818;stroke-width:1.0;" x1="561" x2="561" y1="367.8936" y2="387.8936"/><polygon fill="#181818" points="557,377.8936,561,387.8936,565,377.8936,561,381.8936" style="stroke:#181818;stroke-width:1.0;"/><line style="stroke:#181818;stroke-width:1.0;" x1="617" x2="690" y1="465.8545" y2="465.8545"/><line style="stroke:#181818;stroke-width:1.0;" x1="690" x2="690" y1="423.8545" y2="465.8545"/><polygon fill="#181818" points="686,433.8545,690,423.8545,694,433.8545,690,429.8545" style="stroke:#181818;stroke-width:1.0;"/><line style="stroke:#181818;stroke-width:1.0;" x1="690" x2="690" y1="355.8936" y2="387.8936"/><line style="stroke:#181818;stroke-width:1.0;" x1="690" x2="573" y1="355.8936" y2="355.8936"/><polygon fill="#181818" points="583,351.8936,573,355.8936,583,359.8936,579,355.8936" style="stroke:#181818;stroke-width:1.0;"/><line style="stroke:#181818;stroke-width:1.0;" x1="561" x2="561" y1="423.8545" y2="453.8545"/><polygon fill="#181818" points="557,443.8545,561,453.8545,565,443.8545,561,447.8545" style="stroke:#181818;stroke-width:1.0;"/><line style="stroke:#181818;stroke-width:1.0;" x1="561" x2="561" y1="300.502" y2="343.8936"/><polygon fill="#181818" points="557,333.8936,561,343.8936,565,333.8936,561,337.8936" style="stroke:#181818;stroke-width:1.0;"/><text fill="#000000" font-family="sans-serif" font-size="11" lengthAdjust="spacing" textLength="18" x="565" y="323.6328">yes</text><line style="stroke:#181818;stroke-width:1.0;" x1="561" x2="561" y1="545.2461" y2="565.2461"/><polygon fill="#181818" points="557,555.2461,561,565.2461,565,555.2461,561,559.2461" style="stroke:#181818;stroke-width:1.0;"/><line style="stroke:#181818;stroke-width:1.0;" x1="617" x2="727.5" y1="643.207" y2="643.207"/><line style="stroke:#181818;stroke-width:1.0;" x1="727.5" x2="727.5" y1="601.207" y2="643.207"/><polygon fill="#181818" points="723.5,611.207,727.5,601.207,731.5,611.207,727.5,607.207" style="stroke:#181818;stroke-width:1.0;"/><line style="stroke:#181818;stroke-width:1.0;" x1="727.5" x2="727.5" y1="533.2461" y2="565.2461"/><line style="stroke:#181818;stroke-width:1.0;" x1="727.5" x2="573" y1="533.2461" y2="533.2461"/><polygon fill="#181818" points="583,529.2461,573,533.2461,583,537.2461,579,533.2461" style="stroke:#181818;stroke-width:1.0;"/><line style="stroke:#181818;stroke-width:1.0;" x1="561" x2="561" y1="601.207" y2="631.207"/><polygon fill="#181818" points="557,621.207,561,631.207,565,621.207,561,625.207" style="stroke:#181818;stroke-width:1.0;"/><line style="stroke:#181818;stroke-width:1.0;" x1="561" x2="561" y1="477.8545" y2="521.2461"/><polygon fill="#181818" points="557,511.2461,561,521.2461,565,511.2461,561,515.2461" style="stroke:#181818;stroke-width:1.0;"/><text fill="#000000" font-family="sans-serif" font-size="11" lengthAdjust="spacing" textLength="18" x="565" y="500.9854">yes</text><line style="stroke:#181818;stroke-width:1.0;" x1="87" x2="87" y1="117.9199" y2="129.7305"/><line style="stroke:#181818;stroke-width:1.0;" x1="87" x2="561" y1="129.7305" y2="129.7305"/><line style="stroke:#181818;stroke-width:1.0;" x1="561" x2="561" y1="129.7305" y2="166.541"/><polygon fill="#181818" points="557,156.541,561,166.541,565,156.541,561,160.541" style="stroke:#181818;stroke-width:1.0;"/><line style="stroke:#181818;stroke-width:1.0;" x1="561" x2="561" y1="655.207" y2="683.6694"/><line style="stroke:#181818;stroke-width:1.0;" x1="561" x2="87" y1="683.6694" y2="683.6694"/><line style="stroke:#181818;stroke-width:1.0;" x1="87" x2="87" y1="683.6694" y2="698.6694"/><polygon fill="#181818" points="83,688.6694,87,698.6694,91,688.6694,87,692.6694" style="stroke:#181818;stroke-width:1.0;"/><text fill="#000000" font-family="sans-serif" font-size="11" lengthAdjust="spacing" textLength="18" x="565" y="677.1694">yes</text><text fill="#000000" font-family="sans-serif" font-size="18" lengthAdjust="spacing" textLength="76" x="48" y="32.4414">Temporal</text><text fill="#000000" font-family="sans-serif" font-size="18" lengthAdjust="spacing" textLength="58" x="442.5" y="32.4414">Worker</text><!--SRC=[lPBDQiCm48Jl-nHxJ0xj0zXGA3daL2Xre6TLdZWYiYIaTOsf- -wLdP_-44fxQFSWTj7Cy2tik44RV5Hsf2Gg2b5HwHtgpYBneu_xhVLzIJHEFU988OkC6EzuvTksSqQhQJf9-OKur_n412YPswcA1d8ViKM4qqYtMiopaQ4y2x8_Pxc6dHSKN06ylcYv3brhYMRZazBxNiMwu0T87FXpx061-vsnuCNfZxLlWuMWNh99l71-UGYxkXcGoelmcMIj1BqQVWh-HNw4_a_c2gw-GqggmSR_Xluxun_iyM6DLnhVBvAAyrcjZguodwaFz0O0]--></g></svg>