<?xml version="1.0" encoding="us-ascii" standalone="no"?><svg xmlns="http://www.w3.org/2000/svg" xmlns:xlink="http://www.w3.org/1999/xlink" contentStyleType="text/css" height="1168px" preserveAspectRatio="none" style="width:878px;height:1168px;background:#FFFFFF;" version="1.1" viewBox="0 0 878 1168" width="878px" zoomAndPan="magnify"><defs/><g><rect fill="none" height="23.9414" style="stroke:none;stroke-width:1.0;" width="845.5" x="15" y="13.0176"/><ellipse cx="116.5" cy="51.959" fill="#222222" rx="10" ry="10" style="stroke:#222222;stroke-width:1.0;"/><rect fill="#F1F1F1" height="51.9219" rx="12.5" ry="12.5" style="stroke:#181818;stroke-width:0.5;" width="191" x="21" y="81.959"/><text fill="#000000" font-family="sans-serif" font-size="12" lengthAdjust="spacing" textLength="171" x="31" y="104.9082">Send UserID, workflowRunId to</text><text fill="#000000" font-family="sans-serif" font-size="12" lengthAdjust="spacing" textLength="142" x="31" y="120.8691">Gateway URL with API key</text><rect fill="#F1F1F1" height="35.9609" rx="12.5" ry="12.5" style="stroke:#181818;stroke-width:0.5;" width="88" x="72.5" y="315.1182"/><text fill="#000000" font-family="sans-serif" font-size="12" lengthAdjust="spacing" textLength="68" x="82.5" y="338.0674">Activity failed</text><ellipse cx="116.5" cy="382.0791" fill="none" rx="11" ry="11" style="stroke:#222222;stroke-width:1.0;"/><ellipse cx="116.5" cy="382.0791" fill="#222222" rx="6" ry="6" style="stroke:#222222;stroke-width:1.0;"/><rect fill="#F1F1F1" height="35.9609" rx="12.5" ry="12.5" style="stroke:#181818;stroke-width:0.5;" width="88" x="222" y="946.7275"/><text fill="#000000" font-family="sans-serif" font-size="12" lengthAdjust="spacing" textLength="68" x="232" y="969.6768">Activity failed</text><ellipse cx="266" cy="1013.6885" fill="none" rx="11" ry="11" style="stroke:#222222;stroke-width:1.0;"/><ellipse cx="266" cy="1013.6885" fill="#222222" rx="6" ry="6" style="stroke:#222222;stroke-width:1.0;"/><rect fill="#F1F1F1" height="35.9609" rx="12.5" ry="12.5" style="stroke:#181818;stroke-width:0.5;" width="116" x="58.5" y="1078.6885"/><text fill="#000000" font-family="sans-serif" font-size="12" lengthAdjust="spacing" textLength="96" x="68.5" y="1101.6377">Activity completed</text><ellipse cx="116.5" cy="1145.6494" fill="none" rx="11" ry="11" style="stroke:#222222;stroke-width:1.0;"/><ellipse cx="116.5" cy="1145.6494" fill="#222222" rx="6" ry="6" style="stroke:#222222;stroke-width:1.0;"/><line style="stroke:#000000;stroke-width:1.5;" x1="15" x2="15" y1="13.0176" y2="1156.6494"/><rect fill="#F1F1F1" height="35.9609" rx="12.5" ry="12.5" style="stroke:#181818;stroke-width:0.5;" width="147" x="472.375" y="153.8809"/><text fill="#000000" font-family="sans-serif" font-size="12" lengthAdjust="spacing" textLength="127" x="482.375" y="176.8301">Check if API key is valid</text><rect fill="#F1F1F1" height="35.9609" rx="12.5" ry="12.5" style="stroke:#181818;stroke-width:0.5;" width="175" x="458.375" y="259.1572"/><text fill="#000000" font-family="sans-serif" font-size="12" lengthAdjust="spacing" textLength="155" x="468.375" y="282.1064">return invalid status 401/403</text><polygon fill="#F1F1F1" points="509.875,209.8418,581.875,209.8418,593.875,221.8418,581.875,233.8418,509.875,233.8418,497.875,221.8418,509.875,209.8418" style="stroke:#181818;stroke-width:0.5;"/><text fill="#000000" font-family="sans-serif" font-size="11" lengthAdjust="spacing" textLength="12" x="549.875" y="245.7119">no</text><text fill="#000000" font-family="sans-serif" font-size="11" lengthAdjust="spacing" textLength="72" x="509.875" y="226.3965">API key is valid</text><text fill="#000000" font-family="sans-serif" font-size="11" lengthAdjust="spacing" textLength="18" x="593.875" y="219.0811">yes</text><rect fill="#F1F1F1" height="35.9609" rx="12.5" ry="12.5" style="stroke:#181818;stroke-width:0.5;" width="178" x="456.875" y="435.0791"/><text fill="#000000" font-family="sans-serif" font-size="12" lengthAdjust="spacing" textLength="158" x="466.875" y="458.0283">Generate Message Contents</text><rect fill="#F1F1F1" height="35.9609" rx="12.5" ry="12.5" style="stroke:#181818;stroke-width:0.5;" width="265" x="413.375" y="491.04"/><text fill="#000000" font-family="sans-serif" font-size="12" lengthAdjust="spacing" textLength="245" x="423.375" y="513.9893">Hash message contents with workflowRunId</text><rect fill="#F1F1F1" height="35.9609" rx="12.5" ry="12.5" style="stroke:#181818;stroke-width:0.5;" width="345" x="373.375" y="547.001"/><text fill="#000000" font-family="sans-serif" font-size="12" lengthAdjust="spacing" textLength="325" x="383.375" y="569.9502">Check if messageHash exists in communication history DB</text><polygon fill="#F1F1F1" points="488.375,602.9619,603.375,602.9619,615.375,614.9619,603.375,626.9619,488.375,626.9619,476.375,614.9619,488.375,602.9619" style="stroke:#181818;stroke-width:0.5;"/><text fill="#000000" font-family="sans-serif" font-size="11" lengthAdjust="spacing" textLength="115" x="488.375" y="619.5166">message already exists</text><text fill="#000000" font-family="sans-serif" font-size="11" lengthAdjust="spacing" textLength="18" x="458.375" y="612.2012">yes</text><text fill="#000000" font-family="sans-serif" font-size="11" lengthAdjust="spacing" textLength="12" x="615.375" y="612.2012">no</text><rect fill="#F1F1F1" height="35.9609" rx="12.5" ry="12.5" style="stroke:#181818;stroke-width:0.5;" width="166" x="320" y="646.9619"/><text fill="#000000" font-family="sans-serif" font-size="12" lengthAdjust="spacing" textLength="146" x="330" y="669.9111">return delivered status 200</text><rect fill="#F1F1F1" height="51.9219" rx="12.5" ry="12.5" style="stroke:#181818;stroke-width:0.5;" width="266" x="555.75" y="646.9619"/><text fill="#000000" font-family="sans-serif" font-size="12" lengthAdjust="spacing" textLength="164" x="565.75" y="669.9111">Stores workflowRunId, userId,</text><text fill="#000000" font-family="sans-serif" font-size="12" lengthAdjust="spacing" textLength="243" x="568.75" y="685.8721">messageHash in communication history DB</text><rect fill="#F1F1F1" height="35.9609" rx="12.5" ry="12.5" style="stroke:#181818;stroke-width:0.5;" width="187" x="595.25" y="718.8838"/><text fill="#000000" font-family="sans-serif" font-size="12" lengthAdjust="spacing" textLength="167" x="605.25" y="741.833">Send Communication To User</text><polygon fill="#F1F1F1" points="640.25,774.8447,737.25,774.8447,749.25,786.8447,737.25,798.8447,640.25,798.8447,628.25,786.8447,640.25,774.8447" style="stroke:#181818;stroke-width:0.5;"/><text fill="#000000" font-family="sans-serif" font-size="11" lengthAdjust="spacing" textLength="97" x="640.25" y="791.3994">message delivered?</text><text fill="#000000" font-family="sans-serif" font-size="11" lengthAdjust="spacing" textLength="18" x="610.25" y="784.084">yes</text><text fill="#000000" font-family="sans-serif" font-size="11" lengthAdjust="spacing" textLength="24" x="749.25" y="784.084">error</text><rect fill="#F1F1F1" height="35.9609" rx="12.5" ry="12.5" style="stroke:#181818;stroke-width:0.5;" width="166" x="516" y="818.8447"/><text fill="#000000" font-family="sans-serif" font-size="12" lengthAdjust="spacing" textLength="146" x="526" y="841.7939">return delivered status 200</text><rect fill="#F1F1F1" height="51.9219" rx="12.5" ry="12.5" style="stroke:#181818;stroke-width:0.5;" width="153" x="702" y="818.8447"/><text fill="#000000" font-family="sans-serif" font-size="12" lengthAdjust="spacing" textLength="133" x="712" y="841.7939">Remove message hash</text><text fill="#000000" font-family="sans-serif" font-size="12" lengthAdjust="spacing" textLength="133" x="712" y="857.7549">from communication DB</text><rect fill="#F1F1F1" height="35.9609" rx="12.5" ry="12.5" style="stroke:#181818;stroke-width:0.5;" width="105" x="726" y="890.7666"/><text fill="#000000" font-family="sans-serif" font-size="12" lengthAdjust="spacing" textLength="85" x="736" y="913.7158">return error 500</text><polygon fill="#F1F1F1" points="545.875,1034.6885,557.875,1046.6885,545.875,1058.6885,533.875,1046.6885,545.875,1034.6885" style="stroke:#181818;stroke-width:0.5;"/><line style="stroke:#000000;stroke-width:1.5;" x1="314" x2="314" y1="13.0176" y2="1156.6494"/><line style="stroke:#000000;stroke-width:1.5;" x1="859" x2="859" y1="13.0176" y2="1156.6494"/><line style="stroke:#181818;stroke-width:1.0;" x1="116.5" x2="116.5" y1="61.959" y2="81.959"/><polygon fill="#181818" points="112.5,71.959,116.5,81.959,120.5,71.959,116.5,75.959" style="stroke:#181818;stroke-width:1.0;"/><line style="stroke:#181818;stroke-width:1.0;" x1="116.5" x2="116.5" y1="351.0791" y2="371.0791"/><polygon fill="#181818" points="112.5,361.0791,116.5,371.0791,120.5,361.0791,116.5,365.0791" style="stroke:#181818;stroke-width:1.0;"/><line style="stroke:#181818;stroke-width:1.0;" x1="266" x2="266" y1="982.6885" y2="1002.6885"/><polygon fill="#181818" points="262,992.6885,266,1002.6885,270,992.6885,266,996.6885" style="stroke:#181818;stroke-width:1.0;"/><line style="stroke:#181818;stroke-width:1.0;" x1="116.5" x2="116.5" y1="1114.6494" y2="1134.6494"/><polygon fill="#181818" points="112.5,1124.6494,116.5,1134.6494,120.5,1124.6494,116.5,1128.6494" style="stroke:#181818;stroke-width:1.0;"/><line style="stroke:#181818;stroke-width:1.0;" x1="545.875" x2="545.875" y1="233.8418" y2="259.1572"/><polygon fill="#181818" points="541.875,249.1572,545.875,259.1572,549.875,249.1572,545.875,253.1572" style="stroke:#181818;stroke-width:1.0;"/><line style="stroke:#181818;stroke-width:1.0;" x1="593.875" x2="643.375" y1="221.8418" y2="221.8418"/><polygon fill="#181818" points="639.375,313.1182,643.375,323.1182,647.375,313.1182,643.375,317.1182" style="stroke:#181818;stroke-width:1.0;"/><line style="stroke:#181818;stroke-width:1.0;" x1="643.375" x2="643.375" y1="221.8418" y2="415.0791"/><line style="stroke:#181818;stroke-width:1.0;" x1="643.375" x2="545.875" y1="415.0791" y2="415.0791"/><line style="stroke:#181818;stroke-width:1.0;" x1="545.875" x2="545.875" y1="415.0791" y2="435.0791"/><polygon fill="#181818" points="541.875,425.0791,545.875,435.0791,549.875,425.0791,545.875,429.0791" style="stroke:#181818;stroke-width:1.0;"/><line style="stroke:#181818;stroke-width:1.0;" x1="545.875" x2="545.875" y1="189.8418" y2="209.8418"/><polygon fill="#181818" points="541.875,199.8418,545.875,209.8418,549.875,199.8418,545.875,203.8418" style="stroke:#181818;stroke-width:1.0;"/><line style="stroke:#181818;stroke-width:1.0;" x1="545.875" x2="545.875" y1="471.04" y2="491.04"/><polygon fill="#181818" points="541.875,481.04,545.875,491.04,549.875,481.04,545.875,485.04" style="stroke:#181818;stroke-width:1.0;"/><line style="stroke:#181818;stroke-width:1.0;" x1="545.875" x2="545.875" y1="527.001" y2="547.001"/><polygon fill="#181818" points="541.875,537.001,545.875,547.001,549.875,537.001,545.875,541.001" style="stroke:#181818;stroke-width:1.0;"/><line style="stroke:#181818;stroke-width:1.0;" x1="688.75" x2="688.75" y1="698.8838" y2="718.8838"/><polygon fill="#181818" points="684.75,708.8838,688.75,718.8838,692.75,708.8838,688.75,712.8838" style="stroke:#181818;stroke-width:1.0;"/><line style="stroke:#181818;stroke-width:1.0;" x1="778.5" x2="778.5" y1="870.7666" y2="890.7666"/><polygon fill="#181818" points="774.5,880.7666,778.5,890.7666,782.5,880.7666,778.5,884.7666" style="stroke:#181818;stroke-width:1.0;"/><line style="stroke:#181818;stroke-width:1.0;" x1="628.25" x2="599" y1="786.8447" y2="786.8447"/><line style="stroke:#181818;stroke-width:1.0;" x1="599" x2="599" y1="786.8447" y2="818.8447"/><polygon fill="#181818" points="595,808.8447,599,818.8447,603,808.8447,599,812.8447" style="stroke:#181818;stroke-width:1.0;"/><line style="stroke:#181818;stroke-width:1.0;" x1="749.25" x2="778.5" y1="786.8447" y2="786.8447"/><line style="stroke:#181818;stroke-width:1.0;" x1="778.5" x2="778.5" y1="786.8447" y2="818.8447"/><polygon fill="#181818" points="774.5,808.8447,778.5,818.8447,782.5,808.8447,778.5,812.8447" style="stroke:#181818;stroke-width:1.0;"/><line style="stroke:#181818;stroke-width:1.0;" x1="599" x2="599" y1="854.8057" y2="1046.6885"/><line style="stroke:#181818;stroke-width:1.0;" x1="599" x2="557.875" y1="1046.6885" y2="1046.6885"/><polygon fill="#181818" points="567.875,1042.6885,557.875,1046.6885,567.875,1050.6885,563.875,1046.6885" style="stroke:#181818;stroke-width:1.0;"/><line style="stroke:#181818;stroke-width:1.0;" x1="688.75" x2="688.75" y1="754.8447" y2="774.8447"/><polygon fill="#181818" points="684.75,764.8447,688.75,774.8447,692.75,764.8447,688.75,768.8447" style="stroke:#181818;stroke-width:1.0;"/><line style="stroke:#181818;stroke-width:1.0;" x1="476.375" x2="403" y1="614.9619" y2="614.9619"/><line style="stroke:#181818;stroke-width:1.0;" x1="403" x2="403" y1="614.9619" y2="646.9619"/><polygon fill="#181818" points="399,636.9619,403,646.9619,407,636.9619,403,640.9619" style="stroke:#181818;stroke-width:1.0;"/><line style="stroke:#181818;stroke-width:1.0;" x1="615.375" x2="688.75" y1="614.9619" y2="614.9619"/><line style="stroke:#181818;stroke-width:1.0;" x1="688.75" x2="688.75" y1="614.9619" y2="646.9619"/><polygon fill="#181818" points="684.75,636.9619,688.75,646.9619,692.75,636.9619,688.75,640.9619" style="stroke:#181818;stroke-width:1.0;"/><line style="stroke:#181818;stroke-width:1.0;" x1="403" x2="403" y1="682.9229" y2="1046.6885"/><line style="stroke:#181818;stroke-width:1.0;" x1="403" x2="533.875" y1="1046.6885" y2="1046.6885"/><polygon fill="#181818" points="523.875,1042.6885,533.875,1046.6885,523.875,1050.6885,527.875,1046.6885" style="stroke:#181818;stroke-width:1.0;"/><line style="stroke:#181818;stroke-width:1.0;" x1="545.875" x2="545.875" y1="582.9619" y2="602.9619"/><polygon fill="#181818" points="541.875,592.9619,545.875,602.9619,549.875,592.9619,545.875,596.9619" style="stroke:#181818;stroke-width:1.0;"/><line style="stroke:#181818;stroke-width:1.0;" x1="116.5" x2="116.5" y1="133.8809" y2="138.8809"/><line style="stroke:#181818;stroke-width:1.0;" x1="116.5" x2="545.875" y1="138.8809" y2="138.8809"/><line style="stroke:#181818;stroke-width:1.0;" x1="545.875" x2="545.875" y1="138.8809" y2="153.8809"/><polygon fill="#181818" points="541.875,143.8809,545.875,153.8809,549.875,143.8809,545.875,147.8809" style="stroke:#181818;stroke-width:1.0;"/><line style="stroke:#181818;stroke-width:1.0;" x1="545.875" x2="545.875" y1="295.1182" y2="300.1182"/><line style="stroke:#181818;stroke-width:1.0;" x1="545.875" x2="116.5" y1="300.1182" y2="300.1182"/><line style="stroke:#181818;stroke-width:1.0;" x1="116.5" x2="116.5" y1="300.1182" y2="315.1182"/><polygon fill="#181818" points="112.5,305.1182,116.5,315.1182,120.5,305.1182,116.5,309.1182" style="stroke:#181818;stroke-width:1.0;"/><line style="stroke:#181818;stroke-width:1.0;" x1="778.5" x2="778.5" y1="926.7275" y2="931.7275"/><line style="stroke:#181818;stroke-width:1.0;" x1="778.5" x2="266" y1="931.7275" y2="931.7275"/><line style="stroke:#181818;stroke-width:1.0;" x1="266" x2="266" y1="931.7275" y2="946.7275"/><polygon fill="#181818" points="262,936.7275,266,946.7275,270,936.7275,266,940.7275" style="stroke:#181818;stroke-width:1.0;"/><line style="stroke:#181818;stroke-width:1.0;" x1="545.875" x2="545.875" y1="1058.6885" y2="1063.6885"/><line style="stroke:#181818;stroke-width:1.0;" x1="545.875" x2="116.5" y1="1063.6885" y2="1063.6885"/><line style="stroke:#181818;stroke-width:1.0;" x1="116.5" x2="116.5" y1="1063.6885" y2="1078.6885"/><polygon fill="#181818" points="112.5,1068.6885,116.5,1078.6885,120.5,1068.6885,116.5,1072.6885" style="stroke:#181818;stroke-width:1.0;"/><text fill="#000000" font-family="sans-serif" font-size="18" lengthAdjust="spacing" textLength="58" x="135.5" y="32.4414">Worker</text><text fill="#000000" font-family="sans-serif" font-size="18" lengthAdjust="spacing" textLength="71" x="551" y="32.4414">Gateway</text><!--SRC=[VP9DJuD048Rl-olcM98cejOB74njazf44rDjF6zWa4rXjzbTG19-lCCka5ADN83vV6RcxJwLFg7k63EMQyjOz8uoXQD1lTykeI5lLgZcKCbz2bQn7RVOy1QEXnTeXCrX_RQ74xOnOztWerhH9iVa128RtI0CrBmGQSp8kBYs1ltNGge0R8wIHHfjfIK8wRn0QBOoi0flRrRXVSow4JfQ9rRKmhQGSL4WLJTMdHaM1c7HeWaOesb4TWaNxL2YfZzuHMFu5y96IOlIcfX5pzpaK0xsPB3xGMUhY2zd7E9TBduBGnb2KdPPLb8at0eb8IUpqYrid_m6nXwyqCZJTiZpU-Z1vuj8iH0rQfnMSHU6yJ0cRQs_6bL7CuTSGjMVCLso6UA_RFxycvd_GpazqCn0poNznFLuJUv2_yVl8_m8gBNIWKyvOAbgd6wG4x5pP5gLLzmzxsKRLmOUnjgJIbpCBwNqLgSMn-5Lubz_o8iQdmkqey9-0000]--></g></svg>