<?xml version="1.0" encoding="us-ascii" standalone="no"?><svg xmlns="http://www.w3.org/2000/svg" xmlns:xlink="http://www.w3.org/1999/xlink" contentStyleType="text/css" height="1076px" preserveAspectRatio="none" style="width:780px;height:1076px;background:#FFFFFF;" version="1.1" viewBox="0 0 780 1076" width="780px" zoomAndPan="magnify"><defs/><g><rect fill="none" height="23.9414" style="stroke:none;stroke-width:1.0;" width="747.5" x="15" y="13.0176"/><ellipse cx="116.5" cy="51.959" fill="#222222" rx="10" ry="10" style="stroke:#222222;stroke-width:1.0;"/><rect fill="#F1F1F1" height="51.9219" rx="12.5" ry="12.5" style="stroke:#181818;stroke-width:0.5;" width="191" x="21" y="81.959"/><text fill="#000000" font-family="sans-serif" font-size="12" lengthAdjust="spacing" textLength="171" x="31" y="104.9082">Send UserID, workflowRunId to</text><text fill="#000000" font-family="sans-serif" font-size="12" lengthAdjust="spacing" textLength="142" x="31" y="120.8691">Gateway URL with API key</text><rect fill="#F1F1F1" height="35.9609" rx="12.5" ry="12.5" style="stroke:#181818;stroke-width:0.5;" width="86" x="73.5" y="315.1182"/><text fill="#000000" font-family="sans-serif" font-size="12" lengthAdjust="spacing" textLength="66" x="83.5" y="338.0674">Retry Activity</text><ellipse cx="116.5" cy="382.0791" fill="none" rx="11" ry="11" style="stroke:#222222;stroke-width:1.0;"/><ellipse cx="116.5" cy="382.0791" fill="#222222" rx="6" ry="6" style="stroke:#222222;stroke-width:1.0;"/><rect fill="#F1F1F1" height="35.9609" rx="12.5" ry="12.5" style="stroke:#181818;stroke-width:0.5;" width="112" x="60.5" y="986.7275"/><text fill="#000000" font-family="sans-serif" font-size="12" lengthAdjust="spacing" textLength="92" x="70.5" y="1009.6768">Complete activity</text><ellipse cx="116.5" cy="1053.6885" fill="none" rx="11" ry="11" style="stroke:#222222;stroke-width:1.0;"/><ellipse cx="116.5" cy="1053.6885" fill="#222222" rx="6" ry="6" style="stroke:#222222;stroke-width:1.0;"/><line style="stroke:#000000;stroke-width:1.5;" x1="15" x2="15" y1="13.0176" y2="1064.6885"/><rect fill="#F1F1F1" height="35.9609" rx="12.5" ry="12.5" style="stroke:#181818;stroke-width:0.5;" width="147" x="374.375" y="153.8809"/><text fill="#000000" font-family="sans-serif" font-size="12" lengthAdjust="spacing" textLength="127" x="384.375" y="176.8301">Check if API key is valid</text><rect fill="#F1F1F1" height="35.9609" rx="12.5" ry="12.5" style="stroke:#181818;stroke-width:0.5;" width="175" x="360.375" y="259.1572"/><text fill="#000000" font-family="sans-serif" font-size="12" lengthAdjust="spacing" textLength="155" x="370.375" y="282.1064">return invalid status 401/403</text><polygon fill="#F1F1F1" points="411.875,209.8418,483.875,209.8418,495.875,221.8418,483.875,233.8418,411.875,233.8418,399.875,221.8418,411.875,209.8418" style="stroke:#181818;stroke-width:0.5;"/><text fill="#000000" font-family="sans-serif" font-size="11" lengthAdjust="spacing" textLength="12" x="451.875" y="245.7119">no</text><text fill="#000000" font-family="sans-serif" font-size="11" lengthAdjust="spacing" textLength="72" x="411.875" y="226.3965">API key is valid</text><text fill="#000000" font-family="sans-serif" font-size="11" lengthAdjust="spacing" textLength="18" x="495.875" y="219.0811">yes</text><rect fill="#F1F1F1" height="35.9609" rx="12.5" ry="12.5" style="stroke:#181818;stroke-width:0.5;" width="178" x="358.875" y="435.0791"/><text fill="#000000" font-family="sans-serif" font-size="12" lengthAdjust="spacing" textLength="158" x="368.875" y="458.0283">Generate Message Contents</text><rect fill="#F1F1F1" height="35.9609" rx="12.5" ry="12.5" style="stroke:#181818;stroke-width:0.5;" width="265" x="315.375" y="491.04"/><text fill="#000000" font-family="sans-serif" font-size="12" lengthAdjust="spacing" textLength="245" x="325.375" y="513.9893">Hash message contents with workflowRunId</text><rect fill="#F1F1F1" height="35.9609" rx="12.5" ry="12.5" style="stroke:#181818;stroke-width:0.5;" width="345" x="275.375" y="547.001"/><text fill="#000000" font-family="sans-serif" font-size="12" lengthAdjust="spacing" textLength="325" x="285.375" y="569.9502">Check if messageHash exists in communication history DB</text><polygon fill="#F1F1F1" points="390.375,602.9619,505.375,602.9619,517.375,614.9619,505.375,626.9619,390.375,626.9619,378.375,614.9619,390.375,602.9619" style="stroke:#181818;stroke-width:0.5;"/><text fill="#000000" font-family="sans-serif" font-size="11" lengthAdjust="spacing" textLength="115" x="390.375" y="619.5166">message already exists</text><text fill="#000000" font-family="sans-serif" font-size="11" lengthAdjust="spacing" textLength="18" x="360.375" y="612.2012">yes</text><text fill="#000000" font-family="sans-serif" font-size="11" lengthAdjust="spacing" textLength="12" x="517.375" y="612.2012">no</text><rect fill="#F1F1F1" height="35.9609" rx="12.5" ry="12.5" style="stroke:#181818;stroke-width:0.5;" width="166" x="222" y="636.9619"/><text fill="#000000" font-family="sans-serif" font-size="12" lengthAdjust="spacing" textLength="146" x="232" y="659.9111">return delivered status 200</text><rect fill="#F1F1F1" height="51.9219" rx="12.5" ry="12.5" style="stroke:#181818;stroke-width:0.5;" width="266" x="457.75" y="636.9619"/><text fill="#000000" font-family="sans-serif" font-size="12" lengthAdjust="spacing" textLength="164" x="467.75" y="659.9111">Stores workflowRunId, userId,</text><text fill="#000000" font-family="sans-serif" font-size="12" lengthAdjust="spacing" textLength="243" x="470.75" y="675.8721">messageHash in communication history DB</text><rect fill="#F1F1F1" height="35.9609" rx="12.5" ry="12.5" style="stroke:#181818;stroke-width:0.5;" width="187" x="497.25" y="708.8838"/><text fill="#000000" font-family="sans-serif" font-size="12" lengthAdjust="spacing" textLength="167" x="507.25" y="731.833">Send Communication To User</text><polygon fill="#F1F1F1" points="542.25,764.8447,639.25,764.8447,651.25,776.8447,639.25,788.8447,542.25,788.8447,530.25,776.8447,542.25,764.8447" style="stroke:#181818;stroke-width:0.5;"/><text fill="#000000" font-family="sans-serif" font-size="11" lengthAdjust="spacing" textLength="97" x="542.25" y="781.3994">message delivered?</text><text fill="#000000" font-family="sans-serif" font-size="11" lengthAdjust="spacing" textLength="18" x="512.25" y="774.084">yes</text><text fill="#000000" font-family="sans-serif" font-size="11" lengthAdjust="spacing" textLength="24" x="651.25" y="774.084">error</text><rect fill="#F1F1F1" height="35.9609" rx="12.5" ry="12.5" style="stroke:#181818;stroke-width:0.5;" width="166" x="418" y="798.8447"/><text fill="#000000" font-family="sans-serif" font-size="12" lengthAdjust="spacing" textLength="146" x="428" y="821.7939">return delivered status 200</text><rect fill="#F1F1F1" height="51.9219" rx="12.5" ry="12.5" style="stroke:#181818;stroke-width:0.5;" width="153" x="604" y="798.8447"/><text fill="#000000" font-family="sans-serif" font-size="12" lengthAdjust="spacing" textLength="133" x="614" y="821.7939">Remove message hash</text><text fill="#000000" font-family="sans-serif" font-size="12" lengthAdjust="spacing" textLength="133" x="614" y="837.7549">from communication DB</text><rect fill="#F1F1F1" height="35.9609" rx="12.5" ry="12.5" style="stroke:#181818;stroke-width:0.5;" width="105" x="628" y="870.7666"/><text fill="#000000" font-family="sans-serif" font-size="12" lengthAdjust="spacing" textLength="85" x="638" y="893.7158">return error 500</text><polygon fill="#F1F1F1" points="590.75,912.7275,602.75,924.7275,590.75,936.7275,578.75,924.7275,590.75,912.7275" style="stroke:#181818;stroke-width:0.5;"/><polygon fill="#F1F1F1" points="447.875,942.7275,459.875,954.7275,447.875,966.7275,435.875,954.7275,447.875,942.7275" style="stroke:#181818;stroke-width:0.5;"/><line style="stroke:#000000;stroke-width:1.5;" x1="216" x2="216" y1="13.0176" y2="1064.6885"/><line style="stroke:#000000;stroke-width:1.5;" x1="761" x2="761" y1="13.0176" y2="1064.6885"/><line style="stroke:#181818;stroke-width:1.0;" x1="116.5" x2="116.5" y1="61.959" y2="81.959"/><polygon fill="#181818" points="112.5,71.959,116.5,81.959,120.5,71.959,116.5,75.959" style="stroke:#181818;stroke-width:1.0;"/><line style="stroke:#181818;stroke-width:1.0;" x1="116.5" x2="116.5" y1="351.0791" y2="371.0791"/><polygon fill="#181818" points="112.5,361.0791,116.5,371.0791,120.5,361.0791,116.5,365.0791" style="stroke:#181818;stroke-width:1.0;"/><line style="stroke:#181818;stroke-width:1.0;" x1="116.5" x2="116.5" y1="1022.6885" y2="1042.6885"/><polygon fill="#181818" points="112.5,1032.6885,116.5,1042.6885,120.5,1032.6885,116.5,1036.6885" style="stroke:#181818;stroke-width:1.0;"/><line style="stroke:#181818;stroke-width:1.0;" x1="447.875" x2="447.875" y1="233.8418" y2="259.1572"/><polygon fill="#181818" points="443.875,249.1572,447.875,259.1572,451.875,249.1572,447.875,253.1572" style="stroke:#181818;stroke-width:1.0;"/><line style="stroke:#181818;stroke-width:1.0;" x1="495.875" x2="545.375" y1="221.8418" y2="221.8418"/><polygon fill="#181818" points="541.375,313.1182,545.375,323.1182,549.375,313.1182,545.375,317.1182" style="stroke:#181818;stroke-width:1.0;"/><line style="stroke:#181818;stroke-width:1.0;" x1="545.375" x2="545.375" y1="221.8418" y2="415.0791"/><line style="stroke:#181818;stroke-width:1.0;" x1="545.375" x2="447.875" y1="415.0791" y2="415.0791"/><line style="stroke:#181818;stroke-width:1.0;" x1="447.875" x2="447.875" y1="415.0791" y2="435.0791"/><polygon fill="#181818" points="443.875,425.0791,447.875,435.0791,451.875,425.0791,447.875,429.0791" style="stroke:#181818;stroke-width:1.0;"/><line style="stroke:#181818;stroke-width:1.0;" x1="447.875" x2="447.875" y1="189.8418" y2="209.8418"/><polygon fill="#181818" points="443.875,199.8418,447.875,209.8418,451.875,199.8418,447.875,203.8418" style="stroke:#181818;stroke-width:1.0;"/><line style="stroke:#181818;stroke-width:1.0;" x1="447.875" x2="447.875" y1="471.04" y2="491.04"/><polygon fill="#181818" points="443.875,481.04,447.875,491.04,451.875,481.04,447.875,485.04" style="stroke:#181818;stroke-width:1.0;"/><line style="stroke:#181818;stroke-width:1.0;" x1="447.875" x2="447.875" y1="527.001" y2="547.001"/><polygon fill="#181818" points="443.875,537.001,447.875,547.001,451.875,537.001,447.875,541.001" style="stroke:#181818;stroke-width:1.0;"/><line style="stroke:#181818;stroke-width:1.0;" x1="590.75" x2="590.75" y1="688.8838" y2="708.8838"/><polygon fill="#181818" points="586.75,698.8838,590.75,708.8838,594.75,698.8838,590.75,702.8838" style="stroke:#181818;stroke-width:1.0;"/><line style="stroke:#181818;stroke-width:1.0;" x1="680.5" x2="680.5" y1="850.7666" y2="870.7666"/><polygon fill="#181818" points="676.5,860.7666,680.5,870.7666,684.5,860.7666,680.5,864.7666" style="stroke:#181818;stroke-width:1.0;"/><line style="stroke:#181818;stroke-width:1.0;" x1="530.25" x2="501" y1="776.8447" y2="776.8447"/><line style="stroke:#181818;stroke-width:1.0;" x1="501" x2="501" y1="776.8447" y2="798.8447"/><polygon fill="#181818" points="497,788.8447,501,798.8447,505,788.8447,501,792.8447" style="stroke:#181818;stroke-width:1.0;"/><line style="stroke:#181818;stroke-width:1.0;" x1="651.25" x2="680.5" y1="776.8447" y2="776.8447"/><line style="stroke:#181818;stroke-width:1.0;" x1="680.5" x2="680.5" y1="776.8447" y2="798.8447"/><polygon fill="#181818" points="676.5,788.8447,680.5,798.8447,684.5,788.8447,680.5,792.8447" style="stroke:#181818;stroke-width:1.0;"/><line style="stroke:#181818;stroke-width:1.0;" x1="501" x2="501" y1="834.8057" y2="924.7275"/><line style="stroke:#181818;stroke-width:1.0;" x1="501" x2="578.75" y1="924.7275" y2="924.7275"/><polygon fill="#181818" points="568.75,920.7275,578.75,924.7275,568.75,928.7275,572.75,924.7275" style="stroke:#181818;stroke-width:1.0;"/><line style="stroke:#181818;stroke-width:1.0;" x1="680.5" x2="680.5" y1="906.7275" y2="924.7275"/><line style="stroke:#181818;stroke-width:1.0;" x1="680.5" x2="602.75" y1="924.7275" y2="924.7275"/><polygon fill="#181818" points="612.75,920.7275,602.75,924.7275,612.75,928.7275,608.75,924.7275" style="stroke:#181818;stroke-width:1.0;"/><line style="stroke:#181818;stroke-width:1.0;" x1="590.75" x2="590.75" y1="744.8447" y2="764.8447"/><polygon fill="#181818" points="586.75,754.8447,590.75,764.8447,594.75,754.8447,590.75,758.8447" style="stroke:#181818;stroke-width:1.0;"/><line style="stroke:#181818;stroke-width:1.0;" x1="378.375" x2="305" y1="614.9619" y2="614.9619"/><line style="stroke:#181818;stroke-width:1.0;" x1="305" x2="305" y1="614.9619" y2="636.9619"/><polygon fill="#181818" points="301,626.9619,305,636.9619,309,626.9619,305,630.9619" style="stroke:#181818;stroke-width:1.0;"/><line style="stroke:#181818;stroke-width:1.0;" x1="517.375" x2="590.75" y1="614.9619" y2="614.9619"/><line style="stroke:#181818;stroke-width:1.0;" x1="590.75" x2="590.75" y1="614.9619" y2="636.9619"/><polygon fill="#181818" points="586.75,626.9619,590.75,636.9619,594.75,626.9619,590.75,630.9619" style="stroke:#181818;stroke-width:1.0;"/><line style="stroke:#181818;stroke-width:1.0;" x1="305" x2="305" y1="672.9229" y2="954.7275"/><line style="stroke:#181818;stroke-width:1.0;" x1="305" x2="435.875" y1="954.7275" y2="954.7275"/><polygon fill="#181818" points="425.875,950.7275,435.875,954.7275,425.875,958.7275,429.875,954.7275" style="stroke:#181818;stroke-width:1.0;"/><line style="stroke:#181818;stroke-width:1.0;" x1="590.75" x2="590.75" y1="936.7275" y2="954.7275"/><line style="stroke:#181818;stroke-width:1.0;" x1="590.75" x2="459.875" y1="954.7275" y2="954.7275"/><polygon fill="#181818" points="469.875,950.7275,459.875,954.7275,469.875,958.7275,465.875,954.7275" style="stroke:#181818;stroke-width:1.0;"/><line style="stroke:#181818;stroke-width:1.0;" x1="447.875" x2="447.875" y1="582.9619" y2="602.9619"/><polygon fill="#181818" points="443.875,592.9619,447.875,602.9619,451.875,592.9619,447.875,596.9619" style="stroke:#181818;stroke-width:1.0;"/><line style="stroke:#181818;stroke-width:1.0;" x1="116.5" x2="116.5" y1="133.8809" y2="138.8809"/><line style="stroke:#181818;stroke-width:1.0;" x1="116.5" x2="447.875" y1="138.8809" y2="138.8809"/><line style="stroke:#181818;stroke-width:1.0;" x1="447.875" x2="447.875" y1="138.8809" y2="153.8809"/><polygon fill="#181818" points="443.875,143.8809,447.875,153.8809,451.875,143.8809,447.875,147.8809" style="stroke:#181818;stroke-width:1.0;"/><line style="stroke:#181818;stroke-width:1.0;" x1="447.875" x2="447.875" y1="295.1182" y2="300.1182"/><line style="stroke:#181818;stroke-width:1.0;" x1="447.875" x2="116.5" y1="300.1182" y2="300.1182"/><line style="stroke:#181818;stroke-width:1.0;" x1="116.5" x2="116.5" y1="300.1182" y2="315.1182"/><polygon fill="#181818" points="112.5,305.1182,116.5,315.1182,120.5,305.1182,116.5,309.1182" style="stroke:#181818;stroke-width:1.0;"/><line style="stroke:#181818;stroke-width:1.0;" x1="447.875" x2="447.875" y1="966.7275" y2="971.7275"/><line style="stroke:#181818;stroke-width:1.0;" x1="447.875" x2="116.5" y1="971.7275" y2="971.7275"/><line style="stroke:#181818;stroke-width:1.0;" x1="116.5" x2="116.5" y1="971.7275" y2="986.7275"/><polygon fill="#181818" points="112.5,976.7275,116.5,986.7275,120.5,976.7275,116.5,980.7275" style="stroke:#181818;stroke-width:1.0;"/><text fill="#000000" font-family="sans-serif" font-size="18" lengthAdjust="spacing" textLength="58" x="86.5" y="32.4414">Worker</text><text fill="#000000" font-family="sans-serif" font-size="18" lengthAdjust="spacing" textLength="71" x="453" y="32.4414">Gateway</text><!--SRC=[VP8zRuCm48Pt_ueRWnIfj4qN6AeqaT98hLJHHfqjE8eLi2FRG97uyJqmeS0G5k2-_BplkVrM-eowPSnOhYrZmIVA14u6zN6_XfgoQQxgg9J71AnY1swnvWsSeZUeXSrW-t64CpOXO-sGerd1BiFu32Azfa4Og7Wkaf1HSBMCUjtNIYeFR8QI1HfjgIK8sMU1q6nfOEFVtstynv2rL-WWGgiRsCPMLC8IXB7gmZ0t2Ai6ZSSOYH7fb2que4HDV_2Enl0VX9sI5gKr8GjUkScW6EBn47SwPqw4Kub3VT-Bly9GXv3KNHIb536tGad8AAo8TF_Y3BYUmNEDF6c6FcT31pxt8S5SLAXnTEB1zyD19fdMBOscevb3hg7ijfYisGpn9flR_cwM_rBzTI3DGC-KVkHwNfBtfRVnkmed0RLMsdCj4HQgmd476H7tYLIhOi7TyKwFwSV0qpZRRTwz_cyCQRlaIEldiqlp1m00]--></g></svg>