<?xml version="1.0" encoding="us-ascii" standalone="no"?><svg xmlns="http://www.w3.org/2000/svg" xmlns:xlink="http://www.w3.org/1999/xlink" contentStyleType="text/css" height="1004px" preserveAspectRatio="none" style="width:790px;height:1004px;background:#FFFFFF;" version="1.1" viewBox="0 0 790 1004" width="790px" zoomAndPan="magnify"><defs/><g><rect fill="none" height="23.9414" style="stroke:none;stroke-width:1.0;" width="757.5" x="15" y="13.0176"/><ellipse cx="116.5" cy="51.959" fill="#222222" rx="10" ry="10" style="stroke:#222222;stroke-width:1.0;"/><rect fill="#F1F1F1" height="51.9219" rx="12.5" ry="12.5" style="stroke:#181818;stroke-width:0.5;" width="191" x="21" y="81.959"/><text fill="#000000" font-family="sans-serif" font-size="12" lengthAdjust="spacing" textLength="171" x="31" y="104.9082">Send UserID, workflowRunId to</text><text fill="#000000" font-family="sans-serif" font-size="12" lengthAdjust="spacing" textLength="142" x="31" y="120.8691">Gateway URL with API key</text><rect fill="#F1F1F1" height="35.9609" rx="12.5" ry="12.5" style="stroke:#181818;stroke-width:0.5;" width="86" x="73.5" y="315.1182"/><text fill="#000000" font-family="sans-serif" font-size="12" lengthAdjust="spacing" textLength="66" x="83.5" y="338.0674">Retry Activity</text><ellipse cx="116.5" cy="382.0791" fill="none" rx="11" ry="11" style="stroke:#222222;stroke-width:1.0;"/><ellipse cx="116.5" cy="382.0791" fill="#222222" rx="6" ry="6" style="stroke:#222222;stroke-width:1.0;"/><rect fill="#F1F1F1" height="35.9609" rx="12.5" ry="12.5" style="stroke:#181818;stroke-width:0.5;" width="112" x="60.5" y="914.8057"/><text fill="#000000" font-family="sans-serif" font-size="12" lengthAdjust="spacing" textLength="92" x="70.5" y="937.7549">Complete activity</text><ellipse cx="116.5" cy="981.7666" fill="none" rx="11" ry="11" style="stroke:#222222;stroke-width:1.0;"/><ellipse cx="116.5" cy="981.7666" fill="#222222" rx="6" ry="6" style="stroke:#222222;stroke-width:1.0;"/><line style="stroke:#000000;stroke-width:1.5;" x1="15" x2="15" y1="13.0176" y2="992.7666"/><rect fill="#F1F1F1" height="35.9609" rx="12.5" ry="12.5" style="stroke:#181818;stroke-width:0.5;" width="147" x="390.125" y="153.8809"/><text fill="#000000" font-family="sans-serif" font-size="12" lengthAdjust="spacing" textLength="127" x="400.125" y="176.8301">Check if API key is valid</text><rect fill="#F1F1F1" height="35.9609" rx="12.5" ry="12.5" style="stroke:#181818;stroke-width:0.5;" width="175" x="376.125" y="259.1572"/><text fill="#000000" font-family="sans-serif" font-size="12" lengthAdjust="spacing" textLength="155" x="386.125" y="282.1064">return invalid status 401/403</text><polygon fill="#F1F1F1" points="427.625,209.8418,499.625,209.8418,511.625,221.8418,499.625,233.8418,427.625,233.8418,415.625,221.8418,427.625,209.8418" style="stroke:#181818;stroke-width:0.5;"/><text fill="#000000" font-family="sans-serif" font-size="11" lengthAdjust="spacing" textLength="12" x="467.625" y="245.7119">no</text><text fill="#000000" font-family="sans-serif" font-size="11" lengthAdjust="spacing" textLength="72" x="427.625" y="226.3965">API key is valid</text><text fill="#000000" font-family="sans-serif" font-size="11" lengthAdjust="spacing" textLength="18" x="511.625" y="219.0811">yes</text><rect fill="#F1F1F1" height="35.9609" rx="12.5" ry="12.5" style="stroke:#181818;stroke-width:0.5;" width="178" x="374.625" y="435.0791"/><text fill="#000000" font-family="sans-serif" font-size="12" lengthAdjust="spacing" textLength="158" x="384.625" y="458.0283">Generate Message Contents</text><rect fill="#F1F1F1" height="35.9609" rx="12.5" ry="12.5" style="stroke:#181818;stroke-width:0.5;" width="265" x="331.125" y="491.04"/><text fill="#000000" font-family="sans-serif" font-size="12" lengthAdjust="spacing" textLength="245" x="341.125" y="513.9893">Hash message contents with workflowRunId</text><rect fill="#F1F1F1" height="35.9609" rx="12.5" ry="12.5" style="stroke:#181818;stroke-width:0.5;" width="306" x="310.625" y="547.001"/><text fill="#000000" font-family="sans-serif" font-size="12" lengthAdjust="spacing" textLength="286" x="320.625" y="569.9502">Check if messageHash exists in communication DB</text><polygon fill="#F1F1F1" points="406.125,602.9619,521.125,602.9619,533.125,614.9619,521.125,626.9619,406.125,626.9619,394.125,614.9619,406.125,602.9619" style="stroke:#181818;stroke-width:0.5;"/><text fill="#000000" font-family="sans-serif" font-size="11" lengthAdjust="spacing" textLength="115" x="406.125" y="619.5166">message already exists</text><text fill="#000000" font-family="sans-serif" font-size="11" lengthAdjust="spacing" textLength="18" x="376.125" y="612.2012">yes</text><text fill="#000000" font-family="sans-serif" font-size="11" lengthAdjust="spacing" textLength="12" x="533.125" y="612.2012">no</text><rect fill="#F1F1F1" height="35.9609" rx="12.5" ry="12.5" style="stroke:#181818;stroke-width:0.5;" width="166" x="222" y="636.9619"/><text fill="#000000" font-family="sans-serif" font-size="12" lengthAdjust="spacing" textLength="146" x="232" y="659.9111">return delivered status 200</text><rect fill="#F1F1F1" height="35.9609" rx="12.5" ry="12.5" style="stroke:#181818;stroke-width:0.5;" width="194" x="525.25" y="636.9619"/><text fill="#000000" font-family="sans-serif" font-size="12" lengthAdjust="spacing" textLength="174" x="535.25" y="659.9111">Sends Communication To User</text><polygon fill="#F1F1F1" points="573.75,692.9229,670.75,692.9229,682.75,704.9229,670.75,716.9229,573.75,716.9229,561.75,704.9229,573.75,692.9229" style="stroke:#181818;stroke-width:0.5;"/><text fill="#000000" font-family="sans-serif" font-size="11" lengthAdjust="spacing" textLength="97" x="573.75" y="709.4775">message delivered?</text><text fill="#000000" font-family="sans-serif" font-size="11" lengthAdjust="spacing" textLength="18" x="543.75" y="702.1621">yes</text><text fill="#000000" font-family="sans-serif" font-size="11" lengthAdjust="spacing" textLength="24" x="682.75" y="702.1621">error</text><rect fill="#F1F1F1" height="51.9219" rx="12.5" ry="12.5" style="stroke:#181818;stroke-width:0.5;" width="224" x="418" y="726.9229"/><text fill="#000000" font-family="sans-serif" font-size="12" lengthAdjust="spacing" textLength="164" x="428" y="749.8721">Stores workflowRunId, userId,</text><text fill="#000000" font-family="sans-serif" font-size="12" lengthAdjust="spacing" textLength="204" x="428" y="765.833">messageHash in communication DB</text><rect fill="#F1F1F1" height="35.9609" rx="12.5" ry="12.5" style="stroke:#181818;stroke-width:0.5;" width="166" x="447" y="798.8447"/><text fill="#000000" font-family="sans-serif" font-size="12" lengthAdjust="spacing" textLength="146" x="457" y="821.7939">return delivered status 200</text><rect fill="#F1F1F1" height="35.9609" rx="12.5" ry="12.5" style="stroke:#181818;stroke-width:0.5;" width="105" x="662" y="726.9229"/><text fill="#000000" font-family="sans-serif" font-size="12" lengthAdjust="spacing" textLength="85" x="672" y="749.8721">return error 500</text><polygon fill="#F1F1F1" points="622.25,840.8057,634.25,852.8057,622.25,864.8057,610.25,852.8057,622.25,840.8057" style="stroke:#181818;stroke-width:0.5;"/><polygon fill="#F1F1F1" points="463.625,870.8057,475.625,882.8057,463.625,894.8057,451.625,882.8057,463.625,870.8057" style="stroke:#181818;stroke-width:0.5;"/><line style="stroke:#000000;stroke-width:1.5;" x1="216" x2="216" y1="13.0176" y2="992.7666"/><line style="stroke:#000000;stroke-width:1.5;" x1="771" x2="771" y1="13.0176" y2="992.7666"/><line style="stroke:#181818;stroke-width:1.0;" x1="116.5" x2="116.5" y1="61.959" y2="81.959"/><polygon fill="#181818" points="112.5,71.959,116.5,81.959,120.5,71.959,116.5,75.959" style="stroke:#181818;stroke-width:1.0;"/><line style="stroke:#181818;stroke-width:1.0;" x1="116.5" x2="116.5" y1="351.0791" y2="371.0791"/><polygon fill="#181818" points="112.5,361.0791,116.5,371.0791,120.5,361.0791,116.5,365.0791" style="stroke:#181818;stroke-width:1.0;"/><line style="stroke:#181818;stroke-width:1.0;" x1="116.5" x2="116.5" y1="950.7666" y2="970.7666"/><polygon fill="#181818" points="112.5,960.7666,116.5,970.7666,120.5,960.7666,116.5,964.7666" style="stroke:#181818;stroke-width:1.0;"/><line style="stroke:#181818;stroke-width:1.0;" x1="463.625" x2="463.625" y1="233.8418" y2="259.1572"/><polygon fill="#181818" points="459.625,249.1572,463.625,259.1572,467.625,249.1572,463.625,253.1572" style="stroke:#181818;stroke-width:1.0;"/><line style="stroke:#181818;stroke-width:1.0;" x1="511.625" x2="561.125" y1="221.8418" y2="221.8418"/><polygon fill="#181818" points="557.125,313.1182,561.125,323.1182,565.125,313.1182,561.125,317.1182" style="stroke:#181818;stroke-width:1.0;"/><line style="stroke:#181818;stroke-width:1.0;" x1="561.125" x2="561.125" y1="221.8418" y2="415.0791"/><line style="stroke:#181818;stroke-width:1.0;" x1="561.125" x2="463.625" y1="415.0791" y2="415.0791"/><line style="stroke:#181818;stroke-width:1.0;" x1="463.625" x2="463.625" y1="415.0791" y2="435.0791"/><polygon fill="#181818" points="459.625,425.0791,463.625,435.0791,467.625,425.0791,463.625,429.0791" style="stroke:#181818;stroke-width:1.0;"/><line style="stroke:#181818;stroke-width:1.0;" x1="463.625" x2="463.625" y1="189.8418" y2="209.8418"/><polygon fill="#181818" points="459.625,199.8418,463.625,209.8418,467.625,199.8418,463.625,203.8418" style="stroke:#181818;stroke-width:1.0;"/><line style="stroke:#181818;stroke-width:1.0;" x1="463.625" x2="463.625" y1="471.04" y2="491.04"/><polygon fill="#181818" points="459.625,481.04,463.625,491.04,467.625,481.04,463.625,485.04" style="stroke:#181818;stroke-width:1.0;"/><line style="stroke:#181818;stroke-width:1.0;" x1="463.625" x2="463.625" y1="527.001" y2="547.001"/><polygon fill="#181818" points="459.625,537.001,463.625,547.001,467.625,537.001,463.625,541.001" style="stroke:#181818;stroke-width:1.0;"/><line style="stroke:#181818;stroke-width:1.0;" x1="530" x2="530" y1="778.8447" y2="798.8447"/><polygon fill="#181818" points="526,788.8447,530,798.8447,534,788.8447,530,792.8447" style="stroke:#181818;stroke-width:1.0;"/><line style="stroke:#181818;stroke-width:1.0;" x1="561.75" x2="530" y1="704.9229" y2="704.9229"/><line style="stroke:#181818;stroke-width:1.0;" x1="530" x2="530" y1="704.9229" y2="726.9229"/><polygon fill="#181818" points="526,716.9229,530,726.9229,534,716.9229,530,720.9229" style="stroke:#181818;stroke-width:1.0;"/><line style="stroke:#181818;stroke-width:1.0;" x1="682.75" x2="714.5" y1="704.9229" y2="704.9229"/><line style="stroke:#181818;stroke-width:1.0;" x1="714.5" x2="714.5" y1="704.9229" y2="726.9229"/><polygon fill="#181818" points="710.5,716.9229,714.5,726.9229,718.5,716.9229,714.5,720.9229" style="stroke:#181818;stroke-width:1.0;"/><line style="stroke:#181818;stroke-width:1.0;" x1="530" x2="530" y1="834.8057" y2="852.8057"/><line style="stroke:#181818;stroke-width:1.0;" x1="530" x2="610.25" y1="852.8057" y2="852.8057"/><polygon fill="#181818" points="600.25,848.8057,610.25,852.8057,600.25,856.8057,604.25,852.8057" style="stroke:#181818;stroke-width:1.0;"/><line style="stroke:#181818;stroke-width:1.0;" x1="714.5" x2="714.5" y1="762.8838" y2="852.8057"/><line style="stroke:#181818;stroke-width:1.0;" x1="714.5" x2="634.25" y1="852.8057" y2="852.8057"/><polygon fill="#181818" points="644.25,848.8057,634.25,852.8057,644.25,856.8057,640.25,852.8057" style="stroke:#181818;stroke-width:1.0;"/><line style="stroke:#181818;stroke-width:1.0;" x1="622.25" x2="622.25" y1="672.9229" y2="692.9229"/><polygon fill="#181818" points="618.25,682.9229,622.25,692.9229,626.25,682.9229,622.25,686.9229" style="stroke:#181818;stroke-width:1.0;"/><line style="stroke:#181818;stroke-width:1.0;" x1="394.125" x2="305" y1="614.9619" y2="614.9619"/><line style="stroke:#181818;stroke-width:1.0;" x1="305" x2="305" y1="614.9619" y2="636.9619"/><polygon fill="#181818" points="301,626.9619,305,636.9619,309,626.9619,305,630.9619" style="stroke:#181818;stroke-width:1.0;"/><line style="stroke:#181818;stroke-width:1.0;" x1="533.125" x2="622.25" y1="614.9619" y2="614.9619"/><line style="stroke:#181818;stroke-width:1.0;" x1="622.25" x2="622.25" y1="614.9619" y2="636.9619"/><polygon fill="#181818" points="618.25,626.9619,622.25,636.9619,626.25,626.9619,622.25,630.9619" style="stroke:#181818;stroke-width:1.0;"/><line style="stroke:#181818;stroke-width:1.0;" x1="305" x2="305" y1="672.9229" y2="882.8057"/><line style="stroke:#181818;stroke-width:1.0;" x1="305" x2="451.625" y1="882.8057" y2="882.8057"/><polygon fill="#181818" points="441.625,878.8057,451.625,882.8057,441.625,886.8057,445.625,882.8057" style="stroke:#181818;stroke-width:1.0;"/><line style="stroke:#181818;stroke-width:1.0;" x1="622.25" x2="622.25" y1="864.8057" y2="882.8057"/><line style="stroke:#181818;stroke-width:1.0;" x1="622.25" x2="475.625" y1="882.8057" y2="882.8057"/><polygon fill="#181818" points="485.625,878.8057,475.625,882.8057,485.625,886.8057,481.625,882.8057" style="stroke:#181818;stroke-width:1.0;"/><line style="stroke:#181818;stroke-width:1.0;" x1="463.625" x2="463.625" y1="582.9619" y2="602.9619"/><polygon fill="#181818" points="459.625,592.9619,463.625,602.9619,467.625,592.9619,463.625,596.9619" style="stroke:#181818;stroke-width:1.0;"/><line style="stroke:#181818;stroke-width:1.0;" x1="116.5" x2="116.5" y1="133.8809" y2="138.8809"/><line style="stroke:#181818;stroke-width:1.0;" x1="116.5" x2="463.625" y1="138.8809" y2="138.8809"/><line style="stroke:#181818;stroke-width:1.0;" x1="463.625" x2="463.625" y1="138.8809" y2="153.8809"/><polygon fill="#181818" points="459.625,143.8809,463.625,153.8809,467.625,143.8809,463.625,147.8809" style="stroke:#181818;stroke-width:1.0;"/><line style="stroke:#181818;stroke-width:1.0;" x1="463.625" x2="463.625" y1="295.1182" y2="300.1182"/><line style="stroke:#181818;stroke-width:1.0;" x1="463.625" x2="116.5" y1="300.1182" y2="300.1182"/><line style="stroke:#181818;stroke-width:1.0;" x1="116.5" x2="116.5" y1="300.1182" y2="315.1182"/><polygon fill="#181818" points="112.5,305.1182,116.5,315.1182,120.5,305.1182,116.5,309.1182" style="stroke:#181818;stroke-width:1.0;"/><line style="stroke:#181818;stroke-width:1.0;" x1="463.625" x2="463.625" y1="894.8057" y2="899.8057"/><line style="stroke:#181818;stroke-width:1.0;" x1="463.625" x2="116.5" y1="899.8057" y2="899.8057"/><line style="stroke:#181818;stroke-width:1.0;" x1="116.5" x2="116.5" y1="899.8057" y2="914.8057"/><polygon fill="#181818" points="112.5,904.8057,116.5,914.8057,120.5,904.8057,116.5,908.8057" style="stroke:#181818;stroke-width:1.0;"/><text fill="#000000" font-family="sans-serif" font-size="18" lengthAdjust="spacing" textLength="58" x="86.5" y="32.4414">Worker</text><text fill="#000000" font-family="sans-serif" font-size="18" lengthAdjust="spacing" textLength="71" x="458" y="32.4414">Gateway</text><!--SRC=[VP9DQuD048Rl-olc625GswQNzL3I1D902oLfwNdHILrYTiFk62luuplg9jLGwaLtFjzdNvjFw_Re6Y4yAKT2o2sQ33uyklLo2XLdTuMjDgLPPq1Mh1HXfMhusBn0fIc7-TiQzbWdGZGXnxFa8iTq3tftJeFsS5A5pXB1mSbrD6g_9iP6G3aQ8HrIwGneqsM1fL7fOHRVtipY-qGqPz5oW-HgcAUaJvfOX2Tx55XuX4cDFXA2OVHkg4skqA3Z4xoYz-eBOM4DeI6V2FciV0w744z3lESStKGoH0prNIz-QyyTsd3tuL0QdIhIri3ogGS_prQ5GvNLeRx7RmMF-JCiz0aTNcxWBewJWCUN5SpoJ33SzMux-rWZy3FSUfdtUBsnhPHRiWxzc7GAPVihPDEkP8Zw9sCtvr_rRKLFWCvP5urQkX0yNEfwy_hNh-cCUooG7LGZtty0]--></g></svg>