<?xml version="1.0" encoding="us-ascii" standalone="no"?><svg xmlns="http://www.w3.org/2000/svg" xmlns:xlink="http://www.w3.org/1999/xlink" contentStyleType="text/css" height="579px" preserveAspectRatio="none" style="width:886px;height:579px;background:#FFFFFF;" version="1.1" viewBox="0 0 886 579" width="886px" zoomAndPan="magnify"><defs/><g><line style="stroke:#181818;stroke-width:0.5;stroke-dasharray:5.0,5.0;" x1="53" x2="53" y1="83.6211" y2="496.1133"/><line style="stroke:#181818;stroke-width:0.5;stroke-dasharray:5.0,5.0;" x1="249" x2="249" y1="83.6211" y2="496.1133"/><line style="stroke:#181818;stroke-width:0.5;stroke-dasharray:5.0,5.0;" x1="432" x2="432" y1="83.6211" y2="496.1133"/><line style="stroke:#181818;stroke-width:0.5;stroke-dasharray:5.0,5.0;" x1="615" x2="615" y1="83.6211" y2="496.1133"/><line style="stroke:#181818;stroke-width:0.5;stroke-dasharray:5.0,5.0;" x1="762" x2="762" y1="83.6211" y2="496.1133"/><line style="stroke:#181818;stroke-width:0.5;stroke-dasharray:5.0,5.0;" x1="843" x2="843" y1="83.6211" y2="496.1133"/><text fill="#000000" font-family="sans-serif" font-size="14" lengthAdjust="spacing" textLength="90" x="5" y="80.1074">Business User</text><ellipse cx="53" cy="13.5" fill="#E2E2F0" rx="8" ry="8" style="stroke:#181818;stroke-width:0.5;"/><path d="M53,21.5 L53,48.5 M40,29.5 L66,29.5 M53,48.5 L40,63.5 M53,48.5 L66,63.5 " fill="none" style="stroke:#181818;stroke-width:0.5;"/><text fill="#000000" font-family="sans-serif" font-size="14" lengthAdjust="spacing" textLength="90" x="5" y="510.2207">Business User</text><ellipse cx="53" cy="522.2344" fill="#E2E2F0" rx="8" ry="8" style="stroke:#181818;stroke-width:0.5;"/><path d="M53,530.2344 L53,557.2344 M40,538.2344 L66,538.2344 M53,557.2344 L40,572.2344 M53,557.2344 L66,572.2344 " fill="none" style="stroke:#181818;stroke-width:0.5;"/><rect fill="#E2E2F0" height="32.6211" rx="2.5" ry="2.5" style="stroke:#181818;stroke-width:0.5;" width="170" x="164" y="50"/><text fill="#000000" font-family="sans-serif" font-size="14" lengthAdjust="spacing" textLength="156" x="171" y="72.1074">Web Management Portal</text><rect fill="#E2E2F0" height="32.6211" rx="2.5" ry="2.5" style="stroke:#181818;stroke-width:0.5;" width="170" x="164" y="495.1133"/><text fill="#000000" font-family="sans-serif" font-size="14" lengthAdjust="spacing" textLength="156" x="171" y="517.2207">Web Management Portal</text><rect fill="#E2E2F0" height="32.6211" rx="2.5" ry="2.5" style="stroke:#181818;stroke-width:0.5;" width="82" x="391" y="50"/><text fill="#000000" font-family="sans-serif" font-size="14" lengthAdjust="spacing" textLength="68" x="398" y="72.1074">Portal BFF</text><rect fill="#E2E2F0" height="32.6211" rx="2.5" ry="2.5" style="stroke:#181818;stroke-width:0.5;" width="82" x="391" y="495.1133"/><text fill="#000000" font-family="sans-serif" font-size="14" lengthAdjust="spacing" textLength="68" x="398" y="517.2207">Portal BFF</text><rect fill="#E2E2F0" height="32.6211" rx="2.5" ry="2.5" style="stroke:#181818;stroke-width:0.5;" width="98" x="566" y="50"/><text fill="#000000" font-family="sans-serif" font-size="14" lengthAdjust="spacing" textLength="84" x="573" y="72.1074">Schedule API</text><rect fill="#E2E2F0" height="32.6211" rx="2.5" ry="2.5" style="stroke:#181818;stroke-width:0.5;" width="98" x="566" y="495.1133"/><text fill="#000000" font-family="sans-serif" font-size="14" lengthAdjust="spacing" textLength="84" x="573" y="517.2207">Schedule API</text><rect fill="#E2E2F0" height="32.6211" rx="2.5" ry="2.5" style="stroke:#181818;stroke-width:0.5;" width="68" x="728" y="50"/><text fill="#000000" font-family="sans-serif" font-size="14" lengthAdjust="spacing" textLength="54" x="735" y="72.1074">Auth API</text><rect fill="#E2E2F0" height="32.6211" rx="2.5" ry="2.5" style="stroke:#181818;stroke-width:0.5;" width="68" x="728" y="495.1133"/><text fill="#000000" font-family="sans-serif" font-size="14" lengthAdjust="spacing" textLength="54" x="735" y="517.2207">Auth API</text><rect fill="#E2E2F0" height="32.6211" rx="2.5" ry="2.5" style="stroke:#181818;stroke-width:0.5;" width="74" x="806" y="50"/><text fill="#000000" font-family="sans-serif" font-size="14" lengthAdjust="spacing" textLength="60" x="813" y="72.1074">Temporal</text><rect fill="#E2E2F0" height="32.6211" rx="2.5" ry="2.5" style="stroke:#181818;stroke-width:0.5;" width="74" x="806" y="495.1133"/><text fill="#000000" font-family="sans-serif" font-size="14" lengthAdjust="spacing" textLength="60" x="813" y="517.2207">Temporal</text><polygon fill="#181818" points="237,112.9121,247,116.9121,237,120.9121,241,116.9121" style="stroke:#181818;stroke-width:1.0;"/><line style="stroke:#181818;stroke-width:1.0;" x1="53" x2="243" y1="116.9121" y2="116.9121"/><text fill="#000000" font-family="sans-serif" font-size="13" font-weight="bold" lengthAdjust="spacing" textLength="7" x="60" y="111.6494">1</text><text fill="#000000" font-family="sans-serif" font-size="13" lengthAdjust="spacing" textLength="161" x="71" y="111.6494">Clicks create new Schedule</text><polygon fill="#181818" points="420,144.2031,430,148.2031,420,152.2031,424,148.2031" style="stroke:#181818;stroke-width:1.0;"/><line style="stroke:#181818;stroke-width:1.0;" x1="249" x2="426" y1="148.2031" y2="148.2031"/><text fill="#000000" font-family="sans-serif" font-size="13" font-weight="bold" lengthAdjust="spacing" textLength="7" x="256" y="142.9404">2</text><text fill="#000000" font-family="sans-serif" font-size="13" lengthAdjust="spacing" textLength="148" x="267" y="142.9404">Create Schedule Request</text><polygon fill="#181818" points="603,175.4941,613,179.4941,603,183.4941,607,179.4941" style="stroke:#181818;stroke-width:1.0;"/><line style="stroke:#181818;stroke-width:1.0;" x1="432" x2="609" y1="179.4941" y2="179.4941"/><text fill="#000000" font-family="sans-serif" font-size="13" font-weight="bold" lengthAdjust="spacing" textLength="7" x="439" y="174.2314">3</text><text fill="#000000" font-family="sans-serif" font-size="13" lengthAdjust="spacing" textLength="148" x="450" y="174.2314">Create Schedule Request</text><polygon fill="#181818" points="750,206.7852,760,210.7852,750,214.7852,754,210.7852" style="stroke:#181818;stroke-width:1.0;"/><line style="stroke:#181818;stroke-width:1.0;" x1="615" x2="756" y1="210.7852" y2="210.7852"/><text fill="#000000" font-family="sans-serif" font-size="13" font-weight="bold" lengthAdjust="spacing" textLength="7" x="622" y="205.5225">4</text><text fill="#000000" font-family="sans-serif" font-size="13" lengthAdjust="spacing" textLength="91" x="633" y="205.5225">Get public JWK</text><polygon fill="#181818" points="626,238.0762,616,242.0762,626,246.0762,622,242.0762" style="stroke:#181818;stroke-width:1.0;"/><line style="stroke:#181818;stroke-width:1.0;stroke-dasharray:2.0,2.0;" x1="620" x2="761" y1="242.0762" y2="242.0762"/><text fill="#000000" font-family="sans-serif" font-size="13" font-weight="bold" lengthAdjust="spacing" textLength="7" x="632" y="236.8135">5</text><text fill="#000000" font-family="sans-serif" font-size="13" lengthAdjust="spacing" textLength="65" x="643" y="236.8135">return JWK</text><line style="stroke:#181818;stroke-width:1.0;" x1="615" x2="657" y1="273.3672" y2="273.3672"/><line style="stroke:#181818;stroke-width:1.0;" x1="657" x2="657" y1="273.3672" y2="286.3672"/><line style="stroke:#181818;stroke-width:1.0;" x1="616" x2="657" y1="286.3672" y2="286.3672"/><polygon fill="#181818" points="626,282.3672,616,286.3672,626,290.3672,622,286.3672" style="stroke:#181818;stroke-width:1.0;"/><text fill="#000000" font-family="sans-serif" font-size="13" font-weight="bold" lengthAdjust="spacing" textLength="7" x="622" y="268.1045">6</text><text fill="#000000" font-family="sans-serif" font-size="13" lengthAdjust="spacing" textLength="122" x="633" y="268.1045">Verify JWT with JWK</text><rect fill="#FEFFDD" height="25" style="stroke:#181818;stroke-width:0.5;" width="185" x="522" y="299.3672"/><text fill="#000000" font-family="sans-serif" font-size="13" lengthAdjust="spacing" textLength="177" x="526" y="317.3955">Checks that gatewayID is valid</text><polygon fill="#181818" points="831,348.9492,841,352.9492,831,356.9492,835,352.9492" style="stroke:#181818;stroke-width:1.0;"/><line style="stroke:#181818;stroke-width:1.0;" x1="615" x2="837" y1="352.9492" y2="352.9492"/><text fill="#000000" font-family="sans-serif" font-size="13" font-weight="bold" lengthAdjust="spacing" textLength="7" x="622" y="347.6865">7</text><text fill="#000000" font-family="sans-serif" font-size="13" lengthAdjust="spacing" textLength="96" x="633" y="347.6865">Create Schedule</text><polygon fill="#181818" points="626,380.2402,616,384.2402,626,388.2402,622,384.2402" style="stroke:#181818;stroke-width:1.0;"/><line style="stroke:#181818;stroke-width:1.0;stroke-dasharray:2.0,2.0;" x1="620" x2="842" y1="384.2402" y2="384.2402"/><text fill="#000000" font-family="sans-serif" font-size="13" font-weight="bold" lengthAdjust="spacing" textLength="7" x="632" y="378.9775">8</text><text fill="#000000" font-family="sans-serif" font-size="13" lengthAdjust="spacing" textLength="89" x="643" y="378.9775">Creation Result</text><polygon fill="#181818" points="443,411.5313,433,415.5313,443,419.5313,439,415.5313" style="stroke:#181818;stroke-width:1.0;"/><line style="stroke:#181818;stroke-width:1.0;stroke-dasharray:2.0,2.0;" x1="437" x2="614" y1="415.5313" y2="415.5313"/><text fill="#000000" font-family="sans-serif" font-size="13" font-weight="bold" lengthAdjust="spacing" textLength="7" x="449" y="410.2686">9</text><text fill="#000000" font-family="sans-serif" font-size="13" lengthAdjust="spacing" textLength="89" x="460" y="410.2686">Creation Result</text><polygon fill="#181818" points="260,442.8223,250,446.8223,260,450.8223,256,446.8223" style="stroke:#181818;stroke-width:1.0;"/><line style="stroke:#181818;stroke-width:1.0;stroke-dasharray:2.0,2.0;" x1="254" x2="431" y1="446.8223" y2="446.8223"/><text fill="#000000" font-family="sans-serif" font-size="13" font-weight="bold" lengthAdjust="spacing" textLength="14" x="266" y="441.5596">10</text><text fill="#000000" font-family="sans-serif" font-size="13" lengthAdjust="spacing" textLength="89" x="284" y="441.5596">Creation Result</text><polygon fill="#181818" points="64,474.1133,54,478.1133,64,482.1133,60,478.1133" style="stroke:#181818;stroke-width:1.0;"/><line style="stroke:#181818;stroke-width:1.0;stroke-dasharray:2.0,2.0;" x1="58" x2="248" y1="478.1133" y2="478.1133"/><text fill="#000000" font-family="sans-serif" font-size="13" font-weight="bold" lengthAdjust="spacing" textLength="14" x="70" y="472.8506">11</text><text fill="#000000" font-family="sans-serif" font-size="13" lengthAdjust="spacing" textLength="150" x="88" y="472.8506">Creation Result Displayed</text><!--SRC=[TP3BJiCm44Nt_efHzlm02wG-L5GGKWM5hiV9jB58R6EF6-NliPqcQeZ8AjOvzjovMB9nKAo3LvgyXqzFhW3q88Emw5YLog9cA4uauGqrNgYbU3uOnzXaisljN1qOh7UxpAqyd-V2HrbJ5Hg2rM6VbJB-p9LLu7h2kC17Qgrnjm1yEmY1WOqEhIGdX0pmy9J2FSAcKULtdE88cK1J1sC24NdIKiRe3S8Kxvr-0daMYIOhnVpVIZHPcArdOh11nidmSdeLcE7qXYCEJcSoNXl05pbrxYCuGgTY1SbmsiHvvafkA0hYjwafhSGrCbnYd0xx_HQKXoisgXAagtnhUdtiQ15VZEGkNLQKqN4r7vfnitbDTtYePohx3yqDHoZ3Wi5MUTjWJvNu1G00]--></g></svg>