<?xml version="1.0" encoding="us-ascii" standalone="no"?><svg xmlns="http://www.w3.org/2000/svg" xmlns:xlink="http://www.w3.org/1999/xlink" contentStyleType="text/css" height="579px" preserveAspectRatio="none" style="width:911px;height:579px;background:#FFFFFF;" version="1.1" viewBox="0 0 911 579" width="911px" zoomAndPan="magnify"><defs/><g><line style="stroke:#181818;stroke-width:0.5;stroke-dasharray:5.0,5.0;" x1="53" x2="53" y1="83.6211" y2="496.1133"/><line style="stroke:#181818;stroke-width:0.5;stroke-dasharray:5.0,5.0;" x1="245" x2="245" y1="83.6211" y2="496.1133"/><line style="stroke:#181818;stroke-width:0.5;stroke-dasharray:5.0,5.0;" x1="427" x2="427" y1="83.6211" y2="496.1133"/><line style="stroke:#181818;stroke-width:0.5;stroke-dasharray:5.0,5.0;" x1="609" x2="609" y1="83.6211" y2="496.1133"/><line style="stroke:#181818;stroke-width:0.5;stroke-dasharray:5.0,5.0;" x1="779" x2="779" y1="83.6211" y2="496.1133"/><line style="stroke:#181818;stroke-width:0.5;stroke-dasharray:5.0,5.0;" x1="868" x2="868" y1="83.6211" y2="496.1133"/><text fill="#000000" font-family="sans-serif" font-size="14" lengthAdjust="spacing" textLength="90" x="5" y="80.1074">Business User</text><ellipse cx="53" cy="13.5" fill="#E2E2F0" rx="8" ry="8" style="stroke:#181818;stroke-width:0.5;"/><path d="M53,21.5 L53,48.5 M40,29.5 L66,29.5 M53,48.5 L40,63.5 M53,48.5 L66,63.5 " fill="none" style="stroke:#181818;stroke-width:0.5;"/><text fill="#000000" font-family="sans-serif" font-size="14" lengthAdjust="spacing" textLength="90" x="5" y="510.2207">Business User</text><ellipse cx="53" cy="522.2344" fill="#E2E2F0" rx="8" ry="8" style="stroke:#181818;stroke-width:0.5;"/><path d="M53,530.2344 L53,557.2344 M40,538.2344 L66,538.2344 M53,557.2344 L40,572.2344 M53,557.2344 L66,572.2344 " fill="none" style="stroke:#181818;stroke-width:0.5;"/><rect fill="#E2E2F0" height="32.6211" rx="2.5" ry="2.5" style="stroke:#181818;stroke-width:0.5;" width="170" x="160" y="50"/><text fill="#000000" font-family="sans-serif" font-size="14" lengthAdjust="spacing" textLength="156" x="167" y="72.1074">Web Management Portal</text><rect fill="#E2E2F0" height="32.6211" rx="2.5" ry="2.5" style="stroke:#181818;stroke-width:0.5;" width="170" x="160" y="495.1133"/><text fill="#000000" font-family="sans-serif" font-size="14" lengthAdjust="spacing" textLength="156" x="167" y="517.2207">Web Management Portal</text><rect fill="#E2E2F0" height="32.6211" rx="2.5" ry="2.5" style="stroke:#181818;stroke-width:0.5;" width="82" x="386" y="50"/><text fill="#000000" font-family="sans-serif" font-size="14" lengthAdjust="spacing" textLength="68" x="393" y="72.1074">Portal BFF</text><rect fill="#E2E2F0" height="32.6211" rx="2.5" ry="2.5" style="stroke:#181818;stroke-width:0.5;" width="82" x="386" y="495.1133"/><text fill="#000000" font-family="sans-serif" font-size="14" lengthAdjust="spacing" textLength="68" x="393" y="517.2207">Portal BFF</text><rect fill="#E2E2F0" height="32.6211" rx="2.5" ry="2.5" style="stroke:#181818;stroke-width:0.5;" width="136" x="541" y="50"/><text fill="#000000" font-family="sans-serif" font-size="14" lengthAdjust="spacing" textLength="122" x="548" y="72.1074">Communication API</text><rect fill="#E2E2F0" height="32.6211" rx="2.5" ry="2.5" style="stroke:#181818;stroke-width:0.5;" width="136" x="541" y="495.1133"/><text fill="#000000" font-family="sans-serif" font-size="14" lengthAdjust="spacing" textLength="122" x="548" y="517.2207">Communication API</text><text fill="#000000" font-family="sans-serif" font-size="14" lengthAdjust="spacing" textLength="78" x="737" y="80.1074">Gateway DB</text><path d="M761,29 C761,19 779,19 779,19 C779,19 797,19 797,29 L797,55 C797,65 779,65 779,65 C779,65 761,65 761,55 L761,29 " fill="#E2E2F0" style="stroke:#181818;stroke-width:1.5;"/><path d="M761,29 C761,39 779,39 779,39 C779,39 797,39 797,29 " fill="none" style="stroke:#181818;stroke-width:1.5;"/><text fill="#000000" font-family="sans-serif" font-size="14" lengthAdjust="spacing" textLength="78" x="737" y="510.2207">Gateway DB</text><path d="M761,523.7344 C761,513.7344 779,513.7344 779,513.7344 C779,513.7344 797,513.7344 797,523.7344 L797,549.7344 C797,559.7344 779,559.7344 779,559.7344 C779,559.7344 761,559.7344 761,549.7344 L761,523.7344 " fill="#E2E2F0" style="stroke:#181818;stroke-width:1.5;"/><path d="M761,523.7344 C761,533.7344 779,533.7344 779,533.7344 C779,533.7344 797,533.7344 797,523.7344 " fill="none" style="stroke:#181818;stroke-width:1.5;"/><rect fill="#E2E2F0" height="32.6211" rx="2.5" ry="2.5" style="stroke:#181818;stroke-width:0.5;" width="74" x="831" y="50"/><text fill="#000000" font-family="sans-serif" font-size="14" lengthAdjust="spacing" textLength="60" x="838" y="72.1074">Temporal</text><rect fill="#E2E2F0" height="32.6211" rx="2.5" ry="2.5" style="stroke:#181818;stroke-width:0.5;" width="74" x="831" y="495.1133"/><text fill="#000000" font-family="sans-serif" font-size="14" lengthAdjust="spacing" textLength="60" x="838" y="517.2207">Temporal</text><polygon fill="#181818" points="233,112.9121,243,116.9121,233,120.9121,237,116.9121" style="stroke:#181818;stroke-width:1.0;"/><line style="stroke:#181818;stroke-width:1.0;" x1="53" x2="239" y1="116.9121" y2="116.9121"/><text fill="#000000" font-family="sans-serif" font-size="13" font-weight="bold" lengthAdjust="spacing" textLength="7" x="60" y="111.6494">1</text><text fill="#000000" font-family="sans-serif" font-size="13" lengthAdjust="spacing" textLength="156" x="71" y="111.6494">Clicks create new workflow</text><polygon fill="#181818" points="415,144.2031,425,148.2031,415,152.2031,419,148.2031" style="stroke:#181818;stroke-width:1.0;"/><line style="stroke:#181818;stroke-width:1.0;" x1="245" x2="421" y1="148.2031" y2="148.2031"/><text fill="#000000" font-family="sans-serif" font-size="13" font-weight="bold" lengthAdjust="spacing" textLength="7" x="252" y="142.9404">2</text><text fill="#000000" font-family="sans-serif" font-size="13" lengthAdjust="spacing" textLength="147" x="263" y="142.9404">Create Workflow Request</text><polygon fill="#181818" points="597,175.4941,607,179.4941,597,183.4941,601,179.4941" style="stroke:#181818;stroke-width:1.0;"/><line style="stroke:#181818;stroke-width:1.0;" x1="427" x2="603" y1="179.4941" y2="179.4941"/><text fill="#000000" font-family="sans-serif" font-size="13" font-weight="bold" lengthAdjust="spacing" textLength="7" x="434" y="174.2314">3</text><text fill="#000000" font-family="sans-serif" font-size="13" lengthAdjust="spacing" textLength="147" x="445" y="174.2314">Create Workflow Request</text><line style="stroke:#181818;stroke-width:1.0;" x1="609" x2="651" y1="210.7852" y2="210.7852"/><line style="stroke:#181818;stroke-width:1.0;" x1="651" x2="651" y1="210.7852" y2="223.7852"/><line style="stroke:#181818;stroke-width:1.0;" x1="610" x2="651" y1="223.7852" y2="223.7852"/><polygon fill="#181818" points="620,219.7852,610,223.7852,620,227.7852,616,223.7852" style="stroke:#181818;stroke-width:1.0;"/><text fill="#000000" font-family="sans-serif" font-size="13" font-weight="bold" lengthAdjust="spacing" textLength="7" x="616" y="205.5225">4</text><text fill="#000000" font-family="sans-serif" font-size="13" lengthAdjust="spacing" textLength="63" x="627" y="205.5225">Verify JWT</text><polygon fill="#181818" points="767,251.0762,777,255.0762,767,259.0762,771,255.0762" style="stroke:#181818;stroke-width:1.0;"/><line style="stroke:#181818;stroke-width:1.0;" x1="609" x2="773" y1="255.0762" y2="255.0762"/><text fill="#000000" font-family="sans-serif" font-size="13" font-weight="bold" lengthAdjust="spacing" textLength="7" x="616" y="249.8135">5</text><text fill="#000000" font-family="sans-serif" font-size="13" lengthAdjust="spacing" textLength="112" x="627" y="249.8135">Get Gateway By ID</text><polygon fill="#181818" points="620,282.3672,610,286.3672,620,290.3672,616,286.3672" style="stroke:#181818;stroke-width:1.0;"/><line style="stroke:#181818;stroke-width:1.0;stroke-dasharray:2.0,2.0;" x1="614" x2="778" y1="286.3672" y2="286.3672"/><text fill="#000000" font-family="sans-serif" font-size="13" font-weight="bold" lengthAdjust="spacing" textLength="7" x="626" y="281.1045">6</text><text fill="#000000" font-family="sans-serif" font-size="13" lengthAdjust="spacing" textLength="135" x="637" y="281.1045">Return Gateway Object</text><rect fill="#FEFFDD" height="25" style="stroke:#181818;stroke-width:0.5;" width="185" x="516" y="299.3672"/><text fill="#000000" font-family="sans-serif" font-size="13" lengthAdjust="spacing" textLength="177" x="520" y="317.3955">Checks that gatewayID is valid</text><polygon fill="#181818" points="856,348.9492,866,352.9492,856,356.9492,860,352.9492" style="stroke:#181818;stroke-width:1.0;"/><line style="stroke:#181818;stroke-width:1.0;" x1="609" x2="862" y1="352.9492" y2="352.9492"/><text fill="#000000" font-family="sans-serif" font-size="13" font-weight="bold" lengthAdjust="spacing" textLength="7" x="616" y="347.6865">7</text><text fill="#000000" font-family="sans-serif" font-size="13" lengthAdjust="spacing" textLength="160" x="627" y="347.6865">Create Scheduled Workflow</text><polygon fill="#181818" points="620,380.2402,610,384.2402,620,388.2402,616,384.2402" style="stroke:#181818;stroke-width:1.0;"/><line style="stroke:#181818;stroke-width:1.0;stroke-dasharray:2.0,2.0;" x1="614" x2="867" y1="384.2402" y2="384.2402"/><text fill="#000000" font-family="sans-serif" font-size="13" font-weight="bold" lengthAdjust="spacing" textLength="7" x="626" y="378.9775">8</text><text fill="#000000" font-family="sans-serif" font-size="13" lengthAdjust="spacing" textLength="89" x="637" y="378.9775">Creation Result</text><polygon fill="#181818" points="438,411.5313,428,415.5313,438,419.5313,434,415.5313" style="stroke:#181818;stroke-width:1.0;"/><line style="stroke:#181818;stroke-width:1.0;stroke-dasharray:2.0,2.0;" x1="432" x2="608" y1="415.5313" y2="415.5313"/><text fill="#000000" font-family="sans-serif" font-size="13" font-weight="bold" lengthAdjust="spacing" textLength="7" x="444" y="410.2686">9</text><text fill="#000000" font-family="sans-serif" font-size="13" lengthAdjust="spacing" textLength="89" x="455" y="410.2686">Creation Result</text><polygon fill="#181818" points="256,442.8223,246,446.8223,256,450.8223,252,446.8223" style="stroke:#181818;stroke-width:1.0;"/><line style="stroke:#181818;stroke-width:1.0;stroke-dasharray:2.0,2.0;" x1="250" x2="426" y1="446.8223" y2="446.8223"/><text fill="#000000" font-family="sans-serif" font-size="13" font-weight="bold" lengthAdjust="spacing" textLength="14" x="262" y="441.5596">10</text><text fill="#000000" font-family="sans-serif" font-size="13" lengthAdjust="spacing" textLength="89" x="280" y="441.5596">Creation Result</text><polygon fill="#181818" points="64,474.1133,54,478.1133,64,482.1133,60,478.1133" style="stroke:#181818;stroke-width:1.0;"/><line style="stroke:#181818;stroke-width:1.0;stroke-dasharray:2.0,2.0;" x1="58" x2="244" y1="478.1133" y2="478.1133"/><text fill="#000000" font-family="sans-serif" font-size="13" font-weight="bold" lengthAdjust="spacing" textLength="14" x="70" y="472.8506">11</text><text fill="#000000" font-family="sans-serif" font-size="13" lengthAdjust="spacing" textLength="150" x="88" y="472.8506">Creation Result Displayed</text><!--SRC=[TP51ReCm44NtFiM8VIwGHQKIb2YLgaPfsgp7C2HEmARsE8ZRruP0Gwkomhnd-_y1SpOMajGxfSav-71a4q07qei6BQjSDQWPaYD9U4MD9wefh7V6CbQzsTRDN1qOfEjrpnjPbdDXPUhQQvKZAwFXURVjlJoyY08P9Jg2P8DCBNQGfJqzjOMSdtAWkZ7s7eBl2o7Giz6-bcI5a1uMJp7W4bQLog_X4alXND3KGclijQnCAmAFMimPl44utY7iwSkJOn5fj6BA_wr8VwnFighiuELuc42iiOGDCOpzqWwscOZVOJ7jt1DxgoVdJLuePs6r2PUQ6zbXM12UrPbYBpuZmsdGjnae1pUiL2585_skAS0ugAd3UtwcmbTKJ6t4w3m4wkNuj_RaV3KMdK_j0G_JccR_Y_O33r3wFmmovPeAEoh4Dm00]--></g></svg>