<?xml version="1.0" encoding="us-ascii" standalone="no"?><svg xmlns="http://www.w3.org/2000/svg" xmlns:xlink="http://www.w3.org/1999/xlink" contentStyleType="text/css" height="543px" preserveAspectRatio="none" style="width:907px;height:543px;background:#FFFFFF;" version="1.1" viewBox="0 0 907 543" width="907px" zoomAndPan="magnify"><defs/><g><rect fill="#4793AF" height="325.9102" style="stroke:#181818;stroke-width:1.0;" width="10" x="245" y="116.9121"/><rect fill="#4793AF" height="263.3281" style="stroke:#181818;stroke-width:1.0;" width="10" x="433" y="148.2031"/><rect fill="#4793AF" height="200.7461" style="stroke:#181818;stroke-width:1.0;" width="10" x="621" y="179.4941"/><rect fill="#4793AF" height="31.291" style="stroke:#181818;stroke-width:1.0;" width="10" x="778" y="210.7852"/><rect fill="#4793AF" height="31.291" style="stroke:#181818;stroke-width:1.0;" width="10" x="859" y="317.6582"/><line style="stroke:#181818;stroke-width:0.5;stroke-dasharray:5.0,5.0;" x1="53" x2="53" y1="83.6211" y2="460.8223"/><line style="stroke:#181818;stroke-width:0.5;stroke-dasharray:5.0,5.0;" x1="250" x2="250" y1="83.6211" y2="460.8223"/><line style="stroke:#181818;stroke-width:0.5;stroke-dasharray:5.0,5.0;" x1="438" x2="438" y1="83.6211" y2="460.8223"/><line style="stroke:#181818;stroke-width:0.5;stroke-dasharray:5.0,5.0;" x1="626" x2="626" y1="83.6211" y2="460.8223"/><line style="stroke:#181818;stroke-width:0.5;stroke-dasharray:5.0,5.0;" x1="783" x2="783" y1="83.6211" y2="460.8223"/><line style="stroke:#181818;stroke-width:0.5;stroke-dasharray:5.0,5.0;" x1="864" x2="864" y1="83.6211" y2="460.8223"/><text fill="#000000" font-family="sans-serif" font-size="14" lengthAdjust="spacing" textLength="90" x="5" y="80.1074">Business User</text><ellipse cx="53" cy="13.5" fill="#E2E2F0" rx="8" ry="8" style="stroke:#181818;stroke-width:0.5;"/><path d="M53,21.5 L53,48.5 M40,29.5 L66,29.5 M53,48.5 L40,63.5 M53,48.5 L66,63.5 " fill="none" style="stroke:#181818;stroke-width:0.5;"/><text fill="#000000" font-family="sans-serif" font-size="14" lengthAdjust="spacing" textLength="90" x="5" y="474.9297">Business User</text><ellipse cx="53" cy="486.9434" fill="#E2E2F0" rx="8" ry="8" style="stroke:#181818;stroke-width:0.5;"/><path d="M53,494.9434 L53,521.9434 M40,502.9434 L66,502.9434 M53,521.9434 L40,536.9434 M53,521.9434 L66,536.9434 " fill="none" style="stroke:#181818;stroke-width:0.5;"/><rect fill="#E2E2F0" height="32.6211" rx="2.5" ry="2.5" style="stroke:#181818;stroke-width:0.5;" width="170" x="165" y="50"/><text fill="#000000" font-family="sans-serif" font-size="14" lengthAdjust="spacing" textLength="156" x="172" y="72.1074">Web Management Portal</text><rect fill="#E2E2F0" height="32.6211" rx="2.5" ry="2.5" style="stroke:#181818;stroke-width:0.5;" width="170" x="165" y="459.8223"/><text fill="#000000" font-family="sans-serif" font-size="14" lengthAdjust="spacing" textLength="156" x="172" y="481.9297">Web Management Portal</text><rect fill="#E2E2F0" height="32.6211" rx="2.5" ry="2.5" style="stroke:#181818;stroke-width:0.5;" width="82" x="397" y="50"/><text fill="#000000" font-family="sans-serif" font-size="14" lengthAdjust="spacing" textLength="68" x="404" y="72.1074">Portal BFF</text><rect fill="#E2E2F0" height="32.6211" rx="2.5" ry="2.5" style="stroke:#181818;stroke-width:0.5;" width="82" x="397" y="459.8223"/><text fill="#000000" font-family="sans-serif" font-size="14" lengthAdjust="spacing" textLength="68" x="404" y="481.9297">Portal BFF</text><rect fill="#E2E2F0" height="32.6211" rx="2.5" ry="2.5" style="stroke:#181818;stroke-width:0.5;" width="98" x="577" y="50"/><text fill="#000000" font-family="sans-serif" font-size="14" lengthAdjust="spacing" textLength="84" x="584" y="72.1074">Schedule API</text><rect fill="#E2E2F0" height="32.6211" rx="2.5" ry="2.5" style="stroke:#181818;stroke-width:0.5;" width="98" x="577" y="459.8223"/><text fill="#000000" font-family="sans-serif" font-size="14" lengthAdjust="spacing" textLength="84" x="584" y="481.9297">Schedule API</text><rect fill="#E2E2F0" height="32.6211" rx="2.5" ry="2.5" style="stroke:#181818;stroke-width:0.5;" width="68" x="749" y="50"/><text fill="#000000" font-family="sans-serif" font-size="14" lengthAdjust="spacing" textLength="54" x="756" y="72.1074">Auth API</text><rect fill="#E2E2F0" height="32.6211" rx="2.5" ry="2.5" style="stroke:#181818;stroke-width:0.5;" width="68" x="749" y="459.8223"/><text fill="#000000" font-family="sans-serif" font-size="14" lengthAdjust="spacing" textLength="54" x="756" y="481.9297">Auth API</text><rect fill="#E2E2F0" height="32.6211" rx="2.5" ry="2.5" style="stroke:#181818;stroke-width:0.5;" width="74" x="827" y="50"/><text fill="#000000" font-family="sans-serif" font-size="14" lengthAdjust="spacing" textLength="60" x="834" y="72.1074">Temporal</text><rect fill="#E2E2F0" height="32.6211" rx="2.5" ry="2.5" style="stroke:#181818;stroke-width:0.5;" width="74" x="827" y="459.8223"/><text fill="#000000" font-family="sans-serif" font-size="14" lengthAdjust="spacing" textLength="60" x="834" y="481.9297">Temporal</text><rect fill="#4793AF" height="325.9102" style="stroke:#181818;stroke-width:1.0;" width="10" x="245" y="116.9121"/><rect fill="#4793AF" height="263.3281" style="stroke:#181818;stroke-width:1.0;" width="10" x="433" y="148.2031"/><rect fill="#4793AF" height="200.7461" style="stroke:#181818;stroke-width:1.0;" width="10" x="621" y="179.4941"/><rect fill="#4793AF" height="31.291" style="stroke:#181818;stroke-width:1.0;" width="10" x="778" y="210.7852"/><rect fill="#4793AF" height="31.291" style="stroke:#181818;stroke-width:1.0;" width="10" x="859" y="317.6582"/><polygon fill="#181818" points="233,112.9121,243,116.9121,233,120.9121,237,116.9121" style="stroke:#181818;stroke-width:1.0;"/><line style="stroke:#181818;stroke-width:1.0;" x1="53" x2="239" y1="116.9121" y2="116.9121"/><text fill="#000000" font-family="sans-serif" font-size="13" font-weight="bold" lengthAdjust="spacing" textLength="7" x="60" y="111.6494">1</text><text fill="#000000" font-family="sans-serif" font-size="13" lengthAdjust="spacing" textLength="161" x="71" y="111.6494">Clicks create new Schedule</text><polygon fill="#181818" points="421,144.2031,431,148.2031,421,152.2031,425,148.2031" style="stroke:#181818;stroke-width:1.0;"/><line style="stroke:#181818;stroke-width:1.0;" x1="255" x2="427" y1="148.2031" y2="148.2031"/><text fill="#000000" font-family="sans-serif" font-size="13" font-weight="bold" lengthAdjust="spacing" textLength="7" x="262" y="142.9404">2</text><text fill="#000000" font-family="sans-serif" font-size="13" lengthAdjust="spacing" textLength="148" x="273" y="142.9404">Create Schedule Request</text><polygon fill="#181818" points="609,175.4941,619,179.4941,609,183.4941,613,179.4941" style="stroke:#181818;stroke-width:1.0;"/><line style="stroke:#181818;stroke-width:1.0;" x1="443" x2="615" y1="179.4941" y2="179.4941"/><text fill="#000000" font-family="sans-serif" font-size="13" font-weight="bold" lengthAdjust="spacing" textLength="7" x="450" y="174.2314">3</text><text fill="#000000" font-family="sans-serif" font-size="13" lengthAdjust="spacing" textLength="148" x="461" y="174.2314">Create Schedule Request</text><polygon fill="#181818" points="766,206.7852,776,210.7852,766,214.7852,770,210.7852" style="stroke:#181818;stroke-width:1.0;"/><line style="stroke:#181818;stroke-width:1.0;" x1="631" x2="772" y1="210.7852" y2="210.7852"/><text fill="#000000" font-family="sans-serif" font-size="13" font-weight="bold" lengthAdjust="spacing" textLength="7" x="638" y="205.5225">4</text><text fill="#000000" font-family="sans-serif" font-size="13" lengthAdjust="spacing" textLength="91" x="649" y="205.5225">Get public JWK</text><polygon fill="#181818" points="642,238.0762,632,242.0762,642,246.0762,638,242.0762" style="stroke:#181818;stroke-width:1.0;"/><line style="stroke:#181818;stroke-width:1.0;stroke-dasharray:2.0,2.0;" x1="636" x2="782" y1="242.0762" y2="242.0762"/><text fill="#000000" font-family="sans-serif" font-size="13" font-weight="bold" lengthAdjust="spacing" textLength="7" x="648" y="236.8135">5</text><text fill="#000000" font-family="sans-serif" font-size="13" lengthAdjust="spacing" textLength="65" x="659" y="236.8135">return JWK</text><line style="stroke:#181818;stroke-width:1.0;" x1="631" x2="673" y1="273.3672" y2="273.3672"/><line style="stroke:#181818;stroke-width:1.0;" x1="673" x2="673" y1="273.3672" y2="286.3672"/><line style="stroke:#181818;stroke-width:1.0;" x1="632" x2="673" y1="286.3672" y2="286.3672"/><polygon fill="#181818" points="642,282.3672,632,286.3672,642,290.3672,638,286.3672" style="stroke:#181818;stroke-width:1.0;"/><text fill="#000000" font-family="sans-serif" font-size="13" font-weight="bold" lengthAdjust="spacing" textLength="7" x="638" y="268.1045">6</text><text fill="#000000" font-family="sans-serif" font-size="13" lengthAdjust="spacing" textLength="122" x="649" y="268.1045">Verify JWT with JWK</text><polygon fill="#181818" points="847,313.6582,857,317.6582,847,321.6582,851,317.6582" style="stroke:#181818;stroke-width:1.0;"/><line style="stroke:#181818;stroke-width:1.0;" x1="631" x2="853" y1="317.6582" y2="317.6582"/><text fill="#000000" font-family="sans-serif" font-size="13" font-weight="bold" lengthAdjust="spacing" textLength="7" x="638" y="312.3955">7</text><text fill="#000000" font-family="sans-serif" font-size="13" lengthAdjust="spacing" textLength="96" x="649" y="312.3955">Create Schedule</text><polygon fill="#181818" points="642,344.9492,632,348.9492,642,352.9492,638,348.9492" style="stroke:#181818;stroke-width:1.0;"/><line style="stroke:#181818;stroke-width:1.0;stroke-dasharray:2.0,2.0;" x1="636" x2="863" y1="348.9492" y2="348.9492"/><text fill="#000000" font-family="sans-serif" font-size="13" font-weight="bold" lengthAdjust="spacing" textLength="7" x="648" y="343.6865">8</text><text fill="#000000" font-family="sans-serif" font-size="13" lengthAdjust="spacing" textLength="89" x="659" y="343.6865">Creation Result</text><polygon fill="#181818" points="454,376.2402,444,380.2402,454,384.2402,450,380.2402" style="stroke:#181818;stroke-width:1.0;"/><line style="stroke:#181818;stroke-width:1.0;stroke-dasharray:2.0,2.0;" x1="448" x2="625" y1="380.2402" y2="380.2402"/><text fill="#000000" font-family="sans-serif" font-size="13" font-weight="bold" lengthAdjust="spacing" textLength="7" x="460" y="374.9775">9</text><text fill="#000000" font-family="sans-serif" font-size="13" lengthAdjust="spacing" textLength="89" x="471" y="374.9775">Creation Result</text><polygon fill="#181818" points="266,407.5313,256,411.5313,266,415.5313,262,411.5313" style="stroke:#181818;stroke-width:1.0;"/><line style="stroke:#181818;stroke-width:1.0;stroke-dasharray:2.0,2.0;" x1="260" x2="437" y1="411.5313" y2="411.5313"/><text fill="#000000" font-family="sans-serif" font-size="13" font-weight="bold" lengthAdjust="spacing" textLength="14" x="272" y="406.2686">10</text><text fill="#000000" font-family="sans-serif" font-size="13" lengthAdjust="spacing" textLength="89" x="290" y="406.2686">Creation Result</text><polygon fill="#181818" points="64,438.8223,54,442.8223,64,446.8223,60,442.8223" style="stroke:#181818;stroke-width:1.0;"/><line style="stroke:#181818;stroke-width:1.0;stroke-dasharray:2.0,2.0;" x1="58" x2="249" y1="442.8223" y2="442.8223"/><text fill="#000000" font-family="sans-serif" font-size="13" font-weight="bold" lengthAdjust="spacing" textLength="14" x="70" y="437.5596">11</text><text fill="#000000" font-family="sans-serif" font-size="13" lengthAdjust="spacing" textLength="150" x="88" y="437.5596">Creation Result Displayed</text><!--SRC=[ZP9DJyCm38Rl-HNMEEy44e83qWOg0eGqmM1d9_DOH9k6V33jt-EaQxDg876hu-TftZX15Le7atdqsf3tyER9JG0zo2Wikg2LjcW2J5OauHaDVb13N2zQ5x3EvAwnOxJhmRogSj_ApMOClAejhMDDC5iyP4JnnnYPnR0TsdZINb9ZMtS840w541X3Qs8ZoGaX8qnlKhXhkAsr-kHT764WCBI3Fe505VHtMcKGpYukhyvdbH2fO3abPxlJXj0lz1N9Xw8chBYvOZcTwHzomegSAvOno_SKm4R9wU5nzLGS73cvcWuxEWhHcIoiQQIKttVaEpczsJEvX9tcSITbGFgXdXoXnEYH4cLOcOu7e5l39_Un3iUPohsf_WX74__ToI_bCEFXUl_6yzlhhfDf6KzWkDFUrhYdzR6MdlGF]--></g></svg>