<?xml version="1.0" encoding="us-ascii" standalone="no"?><svg xmlns="http://www.w3.org/2000/svg" xmlns:xlink="http://www.w3.org/1999/xlink" contentStyleType="text/css" height="811px" preserveAspectRatio="none" style="width:1200px;height:811px;background:#FFFFFF;" version="1.1" viewBox="0 0 1200 811" width="1200px" zoomAndPan="magnify"><defs/><g><line style="stroke:#181818;stroke-width:0.5;stroke-dasharray:5.0,5.0;" x1="35" x2="35" y1="69.6211" y2="730.8594"/><line style="stroke:#181818;stroke-width:0.5;stroke-dasharray:5.0,5.0;" x1="330" x2="330" y1="69.6211" y2="730.8594"/><line style="stroke:#181818;stroke-width:0.5;stroke-dasharray:5.0,5.0;" x1="657" x2="657" y1="69.6211" y2="730.8594"/><line style="stroke:#181818;stroke-width:0.5;stroke-dasharray:5.0,5.0;" x1="807" x2="807" y1="69.6211" y2="730.8594"/><line style="stroke:#181818;stroke-width:0.5;stroke-dasharray:5.0,5.0;" x1="983" x2="983" y1="69.6211" y2="730.8594"/><line style="stroke:#181818;stroke-width:0.5;stroke-dasharray:5.0,5.0;" x1="1137" x2="1137" y1="69.6211" y2="730.8594"/><rect fill="#E2E2F0" height="32.6211" rx="2.5" ry="2.5" style="stroke:#181818;stroke-width:0.5;" width="60" x="5" y="36"/><text fill="#000000" font-family="sans-serif" font-size="14" lengthAdjust="spacing" textLength="46" x="12" y="58.1074">Worker</text><rect fill="#E2E2F0" height="32.6211" rx="2.5" ry="2.5" style="stroke:#181818;stroke-width:0.5;" width="60" x="5" y="729.8594"/><text fill="#000000" font-family="sans-serif" font-size="14" lengthAdjust="spacing" textLength="46" x="12" y="751.9668">Worker</text><rect fill="#E2E2F0" height="32.6211" rx="2.5" ry="2.5" style="stroke:#181818;stroke-width:0.5;" width="230" x="215" y="36"/><text fill="#000000" font-family="sans-serif" font-size="14" lengthAdjust="spacing" textLength="216" x="222" y="58.1074">Communication Gateway Endpoint</text><rect fill="#E2E2F0" height="32.6211" rx="2.5" ry="2.5" style="stroke:#181818;stroke-width:0.5;" width="230" x="215" y="729.8594"/><text fill="#000000" font-family="sans-serif" font-size="14" lengthAdjust="spacing" textLength="216" x="222" y="751.9668">Communication Gateway Endpoint</text><text fill="#000000" font-family="sans-serif" font-size="14" lengthAdjust="spacing" textLength="52" x="628" y="66.1074">User DB</text><path d="M639,15 C639,5 657,5 657,5 C657,5 675,5 675,15 L675,41 C675,51 657,51 657,51 C657,51 639,51 639,41 L639,15 " fill="#E2E2F0" style="stroke:#181818;stroke-width:1.5;"/><path d="M639,15 C639,25 657,25 657,25 C657,25 675,25 675,15 " fill="none" style="stroke:#181818;stroke-width:1.5;"/><text fill="#000000" font-family="sans-serif" font-size="14" lengthAdjust="spacing" textLength="52" x="628" y="744.9668">User DB</text><path d="M639,758.4805 C639,748.4805 657,748.4805 657,748.4805 C657,748.4805 675,748.4805 675,758.4805 L675,784.4805 C675,794.4805 657,794.4805 657,794.4805 C657,794.4805 639,794.4805 639,784.4805 L639,758.4805 " fill="#E2E2F0" style="stroke:#181818;stroke-width:1.5;"/><path d="M639,758.4805 C639,768.4805 657,768.4805 657,768.4805 C657,768.4805 675,768.4805 675,758.4805 " fill="none" style="stroke:#181818;stroke-width:1.5;"/><text fill="#000000" font-family="sans-serif" font-size="14" lengthAdjust="spacing" textLength="154" x="727" y="66.1074">User Product Metrics DB</text><path d="M789,15 C789,5 807,5 807,5 C807,5 825,5 825,15 L825,41 C825,51 807,51 807,51 C807,51 789,51 789,41 L789,15 " fill="#E2E2F0" style="stroke:#181818;stroke-width:1.5;"/><path d="M789,15 C789,25 807,25 807,25 C807,25 825,25 825,15 " fill="none" style="stroke:#181818;stroke-width:1.5;"/><text fill="#000000" font-family="sans-serif" font-size="14" lengthAdjust="spacing" textLength="154" x="727" y="744.9668">User Product Metrics DB</text><path d="M789,758.4805 C789,748.4805 807,748.4805 807,748.4805 C807,748.4805 825,748.4805 825,758.4805 L825,784.4805 C825,794.4805 807,794.4805 807,794.4805 C807,794.4805 789,794.4805 789,784.4805 L789,758.4805 " fill="#E2E2F0" style="stroke:#181818;stroke-width:1.5;"/><path d="M789,758.4805 C789,768.4805 807,768.4805 807,768.4805 C807,768.4805 825,768.4805 825,758.4805 " fill="none" style="stroke:#181818;stroke-width:1.5;"/><text fill="#000000" font-family="sans-serif" font-size="14" lengthAdjust="spacing" textLength="167" x="897" y="66.1074">Communication History DB</text><path d="M965.5,15 C965.5,5 983.5,5 983.5,5 C983.5,5 1001.5,5 1001.5,15 L1001.5,41 C1001.5,51 983.5,51 983.5,51 C983.5,51 965.5,51 965.5,41 L965.5,15 " fill="#E2E2F0" style="stroke:#181818;stroke-width:1.5;"/><path d="M965.5,15 C965.5,25 983.5,25 983.5,25 C983.5,25 1001.5,25 1001.5,15 " fill="none" style="stroke:#181818;stroke-width:1.5;"/><text fill="#000000" font-family="sans-serif" font-size="14" lengthAdjust="spacing" textLength="167" x="897" y="744.9668">Communication History DB</text><path d="M965.5,758.4805 C965.5,748.4805 983.5,748.4805 983.5,748.4805 C983.5,748.4805 1001.5,748.4805 1001.5,758.4805 L1001.5,784.4805 C1001.5,794.4805 983.5,794.4805 983.5,794.4805 C983.5,794.4805 965.5,794.4805 965.5,784.4805 L965.5,758.4805 " fill="#E2E2F0" style="stroke:#181818;stroke-width:1.5;"/><path d="M965.5,758.4805 C965.5,768.4805 983.5,768.4805 983.5,768.4805 C983.5,768.4805 1001.5,768.4805 1001.5,758.4805 " fill="none" style="stroke:#181818;stroke-width:1.5;"/><rect fill="#E2E2F0" height="32.6211" rx="2.5" ry="2.5" style="stroke:#181818;stroke-width:0.5;" width="114" x="1080" y="36"/><text fill="#000000" font-family="sans-serif" font-size="14" lengthAdjust="spacing" textLength="100" x="1087" y="58.1074">SMS Integration</text><rect fill="#E2E2F0" height="32.6211" rx="2.5" ry="2.5" style="stroke:#181818;stroke-width:0.5;" width="114" x="1080" y="729.8594"/><text fill="#000000" font-family="sans-serif" font-size="14" lengthAdjust="spacing" textLength="100" x="1087" y="751.9668">SMS Integration</text><polygon fill="#181818" points="318,98.9121,328,102.9121,318,106.9121,322,102.9121" style="stroke:#181818;stroke-width:1.0;"/><line style="stroke:#181818;stroke-width:1.0;" x1="35" x2="324" y1="102.9121" y2="102.9121"/><text fill="#000000" font-family="sans-serif" font-size="13" font-weight="bold" lengthAdjust="spacing" textLength="7" x="42" y="97.6494">1</text><text fill="#000000" font-family="sans-serif" font-size="13" lengthAdjust="spacing" textLength="260" x="53" y="97.6494">Sends userId, workflowRunId with API Key to</text><line style="stroke:#181818;stroke-width:1.0;" x1="330" x2="372" y1="134.2031" y2="134.2031"/><line style="stroke:#181818;stroke-width:1.0;" x1="372" x2="372" y1="134.2031" y2="147.2031"/><line style="stroke:#181818;stroke-width:1.0;" x1="331" x2="372" y1="147.2031" y2="147.2031"/><polygon fill="#181818" points="341,143.2031,331,147.2031,341,151.2031,337,147.2031" style="stroke:#181818;stroke-width:1.0;"/><text fill="#000000" font-family="sans-serif" font-size="13" font-weight="bold" lengthAdjust="spacing" textLength="7" x="337" y="128.9404">2</text><text fill="#000000" font-family="sans-serif" font-size="13" lengthAdjust="spacing" textLength="104" x="348" y="128.9404">Validates API key</text><polygon fill="#181818" points="645,174.4941,655,178.4941,645,182.4941,649,178.4941" style="stroke:#181818;stroke-width:1.0;"/><line style="stroke:#181818;stroke-width:1.0;" x1="330" x2="651" y1="178.4941" y2="178.4941"/><text fill="#000000" font-family="sans-serif" font-size="13" font-weight="bold" lengthAdjust="spacing" textLength="7" x="337" y="173.2314">3</text><text fill="#000000" font-family="sans-serif" font-size="13" lengthAdjust="spacing" textLength="292" x="348" y="173.2314">Get user By id and left join to user product metrics</text><polygon fill="#181818" points="795,205.7852,805,209.7852,795,213.7852,799,209.7852" style="stroke:#181818;stroke-width:1.0;"/><line style="stroke:#181818;stroke-width:1.0;" x1="657" x2="801" y1="209.7852" y2="209.7852"/><text fill="#000000" font-family="sans-serif" font-size="13" font-weight="bold" lengthAdjust="spacing" textLength="7" x="664" y="204.5225">4</text><text fill="#000000" font-family="sans-serif" font-size="13" lengthAdjust="spacing" textLength="115" x="675" y="204.5225">Get metrics for user</text><polygon fill="#181818" points="668,237.0762,658,241.0762,668,245.0762,664,241.0762" style="stroke:#181818;stroke-width:1.0;"/><line style="stroke:#181818;stroke-width:1.0;stroke-dasharray:2.0,2.0;" x1="662" x2="806" y1="241.0762" y2="241.0762"/><text fill="#000000" font-family="sans-serif" font-size="13" font-weight="bold" lengthAdjust="spacing" textLength="7" x="674" y="235.8135">5</text><text fill="#000000" font-family="sans-serif" font-size="13" lengthAdjust="spacing" textLength="92" x="685" y="235.8135">Returns metrics</text><polygon fill="#181818" points="341,268.3672,331,272.3672,341,276.3672,337,272.3672" style="stroke:#181818;stroke-width:1.0;"/><line style="stroke:#181818;stroke-width:1.0;stroke-dasharray:2.0,2.0;" x1="335" x2="656" y1="272.3672" y2="272.3672"/><text fill="#000000" font-family="sans-serif" font-size="13" font-weight="bold" lengthAdjust="spacing" textLength="7" x="347" y="267.1045">6</text><text fill="#000000" font-family="sans-serif" font-size="13" lengthAdjust="spacing" textLength="194" x="358" y="267.1045">Resolves user object with metrics</text><line style="stroke:#181818;stroke-width:1.0;" x1="330" x2="372" y1="303.6582" y2="303.6582"/><line style="stroke:#181818;stroke-width:1.0;" x1="372" x2="372" y1="303.6582" y2="316.6582"/><line style="stroke:#181818;stroke-width:1.0;" x1="331" x2="372" y1="316.6582" y2="316.6582"/><polygon fill="#181818" points="341,312.6582,331,316.6582,341,320.6582,337,316.6582" style="stroke:#181818;stroke-width:1.0;"/><text fill="#000000" font-family="sans-serif" font-size="13" font-weight="bold" lengthAdjust="spacing" textLength="7" x="337" y="298.3955">7</text><text fill="#000000" font-family="sans-serif" font-size="13" lengthAdjust="spacing" textLength="147" x="348" y="298.3955">Generates SMS contents</text><line style="stroke:#181818;stroke-width:1.0;" x1="330" x2="372" y1="347.9492" y2="347.9492"/><line style="stroke:#181818;stroke-width:1.0;" x1="372" x2="372" y1="347.9492" y2="360.9492"/><line style="stroke:#181818;stroke-width:1.0;" x1="331" x2="372" y1="360.9492" y2="360.9492"/><polygon fill="#181818" points="341,356.9492,331,360.9492,341,364.9492,337,360.9492" style="stroke:#181818;stroke-width:1.0;"/><text fill="#000000" font-family="sans-serif" font-size="13" font-weight="bold" lengthAdjust="spacing" textLength="7" x="337" y="342.6865">8</text><text fill="#000000" font-family="sans-serif" font-size="13" lengthAdjust="spacing" textLength="298" x="348" y="342.6865">Hash the message contents with the workflowRunId</text><polygon fill="#181818" points="971.5,388.2402,981.5,392.2402,971.5,396.2402,975.5,392.2402" style="stroke:#181818;stroke-width:1.0;"/><line style="stroke:#181818;stroke-width:1.0;" x1="330" x2="977.5" y1="392.2402" y2="392.2402"/><text fill="#000000" font-family="sans-serif" font-size="13" font-weight="bold" lengthAdjust="spacing" textLength="7" x="337" y="386.9775">9</text><text fill="#000000" font-family="sans-serif" font-size="13" lengthAdjust="spacing" textLength="268" x="348" y="386.9775">Check for previous message by messageHash</text><polygon fill="#181818" points="341,419.5313,331,423.5313,341,427.5313,337,423.5313" style="stroke:#181818;stroke-width:1.0;"/><line style="stroke:#181818;stroke-width:1.0;stroke-dasharray:2.0,2.0;" x1="335" x2="982.5" y1="423.5313" y2="423.5313"/><text fill="#000000" font-family="sans-serif" font-size="13" font-weight="bold" lengthAdjust="spacing" textLength="14" x="347" y="418.2686">10</text><text fill="#000000" font-family="sans-serif" font-size="13" lengthAdjust="spacing" textLength="81" x="365" y="418.2686">Returns result</text><line style="stroke:#181818;stroke-width:1.0;" x1="330" x2="372" y1="454.8223" y2="454.8223"/><line style="stroke:#181818;stroke-width:1.0;" x1="372" x2="372" y1="454.8223" y2="467.8223"/><line style="stroke:#181818;stroke-width:1.0;" x1="331" x2="372" y1="467.8223" y2="467.8223"/><polygon fill="#181818" points="341,463.8223,331,467.8223,341,471.8223,337,467.8223" style="stroke:#181818;stroke-width:1.0;"/><text fill="#000000" font-family="sans-serif" font-size="13" font-weight="bold" lengthAdjust="spacing" textLength="14" x="337" y="449.5596">11</text><text fill="#000000" font-family="sans-serif" font-size="13" lengthAdjust="spacing" textLength="256" x="355" y="449.5596">Check that message does not exist in result</text><line style="stroke:#181818;stroke-width:1.0;" x1="330" x2="372" y1="499.1133" y2="499.1133"/><line style="stroke:#181818;stroke-width:1.0;" x1="372" x2="372" y1="499.1133" y2="512.1133"/><line style="stroke:#181818;stroke-width:1.0;" x1="331" x2="372" y1="512.1133" y2="512.1133"/><polygon fill="#181818" points="341,508.1133,331,512.1133,341,516.1133,337,512.1133" style="stroke:#181818;stroke-width:1.0;"/><text fill="#000000" font-family="sans-serif" font-size="13" font-weight="bold" lengthAdjust="spacing" textLength="14" x="337" y="493.8506">12</text><text fill="#000000" font-family="sans-serif" font-size="13" lengthAdjust="spacing" textLength="152" x="355" y="493.8506">Gets user's phone number</text><polygon fill="#181818" points="1125,539.4043,1135,543.4043,1125,547.4043,1129,543.4043" style="stroke:#181818;stroke-width:1.0;"/><line style="stroke:#181818;stroke-width:1.0;" x1="330" x2="1131" y1="543.4043" y2="543.4043"/><text fill="#000000" font-family="sans-serif" font-size="13" font-weight="bold" lengthAdjust="spacing" textLength="14" x="337" y="538.1416">13</text><text fill="#000000" font-family="sans-serif" font-size="13" lengthAdjust="spacing" textLength="188" x="355" y="538.1416">Send message to phone number</text><polygon fill="#181818" points="341,570.6953,331,574.6953,341,578.6953,337,574.6953" style="stroke:#181818;stroke-width:1.0;"/><line style="stroke:#181818;stroke-width:1.0;stroke-dasharray:2.0,2.0;" x1="335" x2="1136" y1="574.6953" y2="574.6953"/><text fill="#000000" font-family="sans-serif" font-size="13" font-weight="bold" lengthAdjust="spacing" textLength="14" x="347" y="569.4326">14</text><text fill="#000000" font-family="sans-serif" font-size="13" lengthAdjust="spacing" textLength="81" x="365" y="569.4326">Returns result</text><line style="stroke:#181818;stroke-width:1.0;" x1="330" x2="372" y1="605.9863" y2="605.9863"/><line style="stroke:#181818;stroke-width:1.0;" x1="372" x2="372" y1="605.9863" y2="618.9863"/><line style="stroke:#181818;stroke-width:1.0;" x1="331" x2="372" y1="618.9863" y2="618.9863"/><polygon fill="#181818" points="341,614.9863,331,618.9863,341,622.9863,337,618.9863" style="stroke:#181818;stroke-width:1.0;"/><text fill="#000000" font-family="sans-serif" font-size="13" font-weight="bold" lengthAdjust="spacing" textLength="14" x="337" y="600.7236">15</text><text fill="#000000" font-family="sans-serif" font-size="13" lengthAdjust="spacing" textLength="73" x="355" y="600.7236">Check result</text><polygon fill="#181818" points="971.5,646.2773,981.5,650.2773,971.5,654.2773,975.5,650.2773" style="stroke:#181818;stroke-width:1.0;"/><line style="stroke:#181818;stroke-width:1.0;" x1="330" x2="977.5" y1="650.2773" y2="650.2773"/><text fill="#000000" font-family="sans-serif" font-size="13" font-weight="bold" lengthAdjust="spacing" textLength="14" x="337" y="645.0146">16</text><text fill="#000000" font-family="sans-serif" font-size="13" lengthAdjust="spacing" textLength="287" x="355" y="645.0146">Write workflowRunId, userId and messageHash to</text><polygon fill="#181818" points="341,677.5684,331,681.5684,341,685.5684,337,681.5684" style="stroke:#181818;stroke-width:1.0;"/><line style="stroke:#181818;stroke-width:1.0;stroke-dasharray:2.0,2.0;" x1="335" x2="982.5" y1="681.5684" y2="681.5684"/><text fill="#000000" font-family="sans-serif" font-size="13" font-weight="bold" lengthAdjust="spacing" textLength="14" x="347" y="676.3057">17</text><text fill="#000000" font-family="sans-serif" font-size="13" lengthAdjust="spacing" textLength="95" x="365" y="676.3057">Successful write</text><polygon fill="#181818" points="46,708.8594,36,712.8594,46,716.8594,42,712.8594" style="stroke:#181818;stroke-width:1.0;"/><line style="stroke:#181818;stroke-width:1.0;stroke-dasharray:2.0,2.0;" x1="40" x2="329" y1="712.8594" y2="712.8594"/><text fill="#000000" font-family="sans-serif" font-size="13" font-weight="bold" lengthAdjust="spacing" textLength="14" x="52" y="707.5967">18</text><text fill="#000000" font-family="sans-serif" font-size="13" lengthAdjust="spacing" textLength="203" x="70" y="707.5967">Return success and messageHash</text><!--SRC=[dLF1Rjim3BthAuXSTcb_88S1IpkamL2WIB3rh5XChCQM396gvxyVBTcUdQQNtYJplSV79xhHWMrX6-qOLgy-N32iG1EqwQYQUVd1rtLqjj1ilOEjPcnr1p-TQRnrd6Zd_54PpVge2M7rcp30uoPLevmVDzV5b-1DB1YUaOCjQ0JN-Rh0BnqyMM8Vkf5GvgiG5guFpmVOESPpIAm4fPgKqf6zY_LHnbHvNBZ_FawmXWCwaotlp5tAurJvTX_Tpa1hkOGVBpluXHsmLmDfmV-ZAolEaHBmWjqSbPDOmnOvdM7JWJMWdO4AJmnlagW8vrep13GaeZAvbvaooah35Ku-9AQQwd0_Qxf7Zi7H1xsv-psIhzun1m3- -8PY88qzicuElKM78GtTnrvuoTqntOG-QIg1InH18dt62PtRz9L5w8k6qrkluQ74uf96RWA-MnzfKZnsux5lfjJ4kfurvn6GOiKtpUOcN6gUn8sNAPrdmByY2_9U0_-JO3Xd-OsWARr365Pl1fQjp6itzP0DM805yKNh7m6p25-3vQkqxuRDJoiv2x7VzazYFCIY4E0fLj3sWl-R2Ih_OADXe8ozLbV_0000]--></g></svg>