<?xml version="1.0" encoding="us-ascii" standalone="no"?><svg xmlns="http://www.w3.org/2000/svg" xmlns:xlink="http://www.w3.org/1999/xlink" contentStyleType="text/css" height="846px" preserveAspectRatio="none" style="width:1126px;height:846px;background:#FFFFFF;" version="1.1" viewBox="0 0 1126 846" width="1126px" zoomAndPan="magnify"><defs/><g><rect fill="#4793AF" height="676.8203" style="stroke:#181818;stroke-width:1.0;" width="10" x="30" y="79.6211"/><rect fill="#4793AF" height="627.2383" style="stroke:#181818;stroke-width:1.0;" width="10" x="240" y="120.2031"/><rect fill="#4793AF" height="93.873" style="stroke:#181818;stroke-width:1.0;" width="10" x="573" y="195.7852"/><rect fill="#4793AF" height="31.291" style="stroke:#181818;stroke-width:1.0;" width="10" x="728" y="227.0762"/><rect fill="#4793AF" height="31.291" style="stroke:#181818;stroke-width:1.0;" width="10" x="904.5" y="409.5313"/><rect fill="#4793AF" height="31.291" style="stroke:#181818;stroke-width:1.0;" width="10" x="904.5" y="516.4043"/><rect fill="#4793AF" height="31.291" style="stroke:#181818;stroke-width:1.0;" width="10" x="1058" y="623.2773"/><line style="stroke:#181818;stroke-width:0.5;stroke-dasharray:5.0,5.0;" x1="35" x2="35" y1="69.6211" y2="765.4414"/><line style="stroke:#181818;stroke-width:0.5;stroke-dasharray:5.0,5.0;" x1="245" x2="245" y1="69.6211" y2="765.4414"/><line style="stroke:#181818;stroke-width:0.5;stroke-dasharray:5.0,5.0;" x1="578" x2="578" y1="69.6211" y2="765.4414"/><line style="stroke:#181818;stroke-width:0.5;stroke-dasharray:5.0,5.0;" x1="733" x2="733" y1="69.6211" y2="765.4414"/><line style="stroke:#181818;stroke-width:0.5;stroke-dasharray:5.0,5.0;" x1="909" x2="909" y1="69.6211" y2="765.4414"/><line style="stroke:#181818;stroke-width:0.5;stroke-dasharray:5.0,5.0;" x1="1063" x2="1063" y1="69.6211" y2="765.4414"/><rect fill="#E2E2F0" height="32.6211" rx="2.5" ry="2.5" style="stroke:#181818;stroke-width:0.5;" width="60" x="5" y="36"/><text fill="#000000" font-family="sans-serif" font-size="14" lengthAdjust="spacing" textLength="46" x="12" y="58.1074">Worker</text><rect fill="#E2E2F0" height="32.6211" rx="2.5" ry="2.5" style="stroke:#181818;stroke-width:0.5;" width="60" x="5" y="764.4414"/><text fill="#000000" font-family="sans-serif" font-size="14" lengthAdjust="spacing" textLength="46" x="12" y="786.5488">Worker</text><rect fill="#E2E2F0" height="32.6211" rx="2.5" ry="2.5" style="stroke:#181818;stroke-width:0.5;" width="230" x="130" y="36"/><text fill="#000000" font-family="sans-serif" font-size="14" lengthAdjust="spacing" textLength="216" x="137" y="58.1074">Communication Gateway Endpoint</text><rect fill="#E2E2F0" height="32.6211" rx="2.5" ry="2.5" style="stroke:#181818;stroke-width:0.5;" width="230" x="130" y="764.4414"/><text fill="#000000" font-family="sans-serif" font-size="14" lengthAdjust="spacing" textLength="216" x="137" y="786.5488">Communication Gateway Endpoint</text><text fill="#000000" font-family="sans-serif" font-size="14" lengthAdjust="spacing" textLength="52" x="549" y="66.1074">User DB</text><path d="M560,15 C560,5 578,5 578,5 C578,5 596,5 596,15 L596,41 C596,51 578,51 578,51 C578,51 560,51 560,41 L560,15 " fill="#E2E2F0" style="stroke:#181818;stroke-width:1.5;"/><path d="M560,15 C560,25 578,25 578,25 C578,25 596,25 596,15 " fill="none" style="stroke:#181818;stroke-width:1.5;"/><text fill="#000000" font-family="sans-serif" font-size="14" lengthAdjust="spacing" textLength="52" x="549" y="779.5488">User DB</text><path d="M560,793.0625 C560,783.0625 578,783.0625 578,783.0625 C578,783.0625 596,783.0625 596,793.0625 L596,819.0625 C596,829.0625 578,829.0625 578,829.0625 C578,829.0625 560,829.0625 560,819.0625 L560,793.0625 " fill="#E2E2F0" style="stroke:#181818;stroke-width:1.5;"/><path d="M560,793.0625 C560,803.0625 578,803.0625 578,803.0625 C578,803.0625 596,803.0625 596,793.0625 " fill="none" style="stroke:#181818;stroke-width:1.5;"/><text fill="#000000" font-family="sans-serif" font-size="14" lengthAdjust="spacing" textLength="154" x="653" y="66.1074">User Product Metrics DB</text><path d="M715,15 C715,5 733,5 733,5 C733,5 751,5 751,15 L751,41 C751,51 733,51 733,51 C733,51 715,51 715,41 L715,15 " fill="#E2E2F0" style="stroke:#181818;stroke-width:1.5;"/><path d="M715,15 C715,25 733,25 733,25 C733,25 751,25 751,15 " fill="none" style="stroke:#181818;stroke-width:1.5;"/><text fill="#000000" font-family="sans-serif" font-size="14" lengthAdjust="spacing" textLength="154" x="653" y="779.5488">User Product Metrics DB</text><path d="M715,793.0625 C715,783.0625 733,783.0625 733,783.0625 C733,783.0625 751,783.0625 751,793.0625 L751,819.0625 C751,829.0625 733,829.0625 733,829.0625 C733,829.0625 715,829.0625 715,819.0625 L715,793.0625 " fill="#E2E2F0" style="stroke:#181818;stroke-width:1.5;"/><path d="M715,793.0625 C715,803.0625 733,803.0625 733,803.0625 C733,803.0625 751,803.0625 751,793.0625 " fill="none" style="stroke:#181818;stroke-width:1.5;"/><text fill="#000000" font-family="sans-serif" font-size="14" lengthAdjust="spacing" textLength="167" x="823" y="66.1074">Communication History DB</text><path d="M891.5,15 C891.5,5 909.5,5 909.5,5 C909.5,5 927.5,5 927.5,15 L927.5,41 C927.5,51 909.5,51 909.5,51 C909.5,51 891.5,51 891.5,41 L891.5,15 " fill="#E2E2F0" style="stroke:#181818;stroke-width:1.5;"/><path d="M891.5,15 C891.5,25 909.5,25 909.5,25 C909.5,25 927.5,25 927.5,15 " fill="none" style="stroke:#181818;stroke-width:1.5;"/><text fill="#000000" font-family="sans-serif" font-size="14" lengthAdjust="spacing" textLength="167" x="823" y="779.5488">Communication History DB</text><path d="M891.5,793.0625 C891.5,783.0625 909.5,783.0625 909.5,783.0625 C909.5,783.0625 927.5,783.0625 927.5,793.0625 L927.5,819.0625 C927.5,829.0625 909.5,829.0625 909.5,829.0625 C909.5,829.0625 891.5,829.0625 891.5,819.0625 L891.5,793.0625 " fill="#E2E2F0" style="stroke:#181818;stroke-width:1.5;"/><path d="M891.5,793.0625 C891.5,803.0625 909.5,803.0625 909.5,803.0625 C909.5,803.0625 927.5,803.0625 927.5,793.0625 " fill="none" style="stroke:#181818;stroke-width:1.5;"/><rect fill="#E2E2F0" height="32.6211" rx="2.5" ry="2.5" style="stroke:#181818;stroke-width:0.5;" width="114" x="1006" y="36"/><text fill="#000000" font-family="sans-serif" font-size="14" lengthAdjust="spacing" textLength="100" x="1013" y="58.1074">SMS Integration</text><rect fill="#E2E2F0" height="32.6211" rx="2.5" ry="2.5" style="stroke:#181818;stroke-width:0.5;" width="114" x="1006" y="764.4414"/><text fill="#000000" font-family="sans-serif" font-size="14" lengthAdjust="spacing" textLength="100" x="1013" y="786.5488">SMS Integration</text><rect fill="#4793AF" height="676.8203" style="stroke:#181818;stroke-width:1.0;" width="10" x="30" y="79.6211"/><rect fill="#4793AF" height="627.2383" style="stroke:#181818;stroke-width:1.0;" width="10" x="240" y="120.2031"/><rect fill="#4793AF" height="93.873" style="stroke:#181818;stroke-width:1.0;" width="10" x="573" y="195.7852"/><rect fill="#4793AF" height="31.291" style="stroke:#181818;stroke-width:1.0;" width="10" x="728" y="227.0762"/><rect fill="#4793AF" height="31.291" style="stroke:#181818;stroke-width:1.0;" width="10" x="904.5" y="409.5313"/><rect fill="#4793AF" height="31.291" style="stroke:#181818;stroke-width:1.0;" width="10" x="904.5" y="516.4043"/><rect fill="#4793AF" height="31.291" style="stroke:#181818;stroke-width:1.0;" width="10" x="1058" y="623.2773"/><polygon fill="#181818" points="228,116.2031,238,120.2031,228,124.2031,232,120.2031" style="stroke:#181818;stroke-width:1.0;"/><line style="stroke:#181818;stroke-width:1.0;" x1="40" x2="234" y1="120.2031" y2="120.2031"/><text fill="#000000" font-family="sans-serif" font-size="13" font-weight="bold" lengthAdjust="spacing" textLength="7" x="47" y="106.2949">1</text><text fill="#000000" font-family="sans-serif" font-size="13" lengthAdjust="spacing" textLength="166" x="58" y="97.6494">Sends userId, workflowRunId</text><text fill="#000000" font-family="sans-serif" font-size="13" lengthAdjust="spacing" textLength="90" x="58" y="114.9404">with API Key to</text><line style="stroke:#181818;stroke-width:1.0;" x1="250" x2="292" y1="151.4941" y2="151.4941"/><line style="stroke:#181818;stroke-width:1.0;" x1="292" x2="292" y1="151.4941" y2="164.4941"/><line style="stroke:#181818;stroke-width:1.0;" x1="251" x2="292" y1="164.4941" y2="164.4941"/><polygon fill="#181818" points="261,160.4941,251,164.4941,261,168.4941,257,164.4941" style="stroke:#181818;stroke-width:1.0;"/><text fill="#000000" font-family="sans-serif" font-size="13" font-weight="bold" lengthAdjust="spacing" textLength="7" x="257" y="146.2314">2</text><text fill="#000000" font-family="sans-serif" font-size="13" lengthAdjust="spacing" textLength="104" x="268" y="146.2314">Validates API key</text><polygon fill="#181818" points="561,191.7852,571,195.7852,561,199.7852,565,195.7852" style="stroke:#181818;stroke-width:1.0;"/><line style="stroke:#181818;stroke-width:1.0;" x1="250" x2="567" y1="195.7852" y2="195.7852"/><text fill="#000000" font-family="sans-serif" font-size="13" font-weight="bold" lengthAdjust="spacing" textLength="7" x="257" y="190.5225">3</text><text fill="#000000" font-family="sans-serif" font-size="13" lengthAdjust="spacing" textLength="292" x="268" y="190.5225">Get user By id and left join to user product metrics</text><polygon fill="#181818" points="716,223.0762,726,227.0762,716,231.0762,720,227.0762" style="stroke:#181818;stroke-width:1.0;"/><line style="stroke:#181818;stroke-width:1.0;" x1="583" x2="722" y1="227.0762" y2="227.0762"/><text fill="#000000" font-family="sans-serif" font-size="13" font-weight="bold" lengthAdjust="spacing" textLength="7" x="590" y="221.8135">4</text><text fill="#000000" font-family="sans-serif" font-size="13" lengthAdjust="spacing" textLength="115" x="601" y="221.8135">Get metrics for user</text><polygon fill="#181818" points="594,254.3672,584,258.3672,594,262.3672,590,258.3672" style="stroke:#181818;stroke-width:1.0;"/><line style="stroke:#181818;stroke-width:1.0;stroke-dasharray:2.0,2.0;" x1="588" x2="732" y1="258.3672" y2="258.3672"/><text fill="#000000" font-family="sans-serif" font-size="13" font-weight="bold" lengthAdjust="spacing" textLength="7" x="600" y="253.1045">5</text><text fill="#000000" font-family="sans-serif" font-size="13" lengthAdjust="spacing" textLength="92" x="611" y="253.1045">Returns metrics</text><polygon fill="#181818" points="261,285.6582,251,289.6582,261,293.6582,257,289.6582" style="stroke:#181818;stroke-width:1.0;"/><line style="stroke:#181818;stroke-width:1.0;stroke-dasharray:2.0,2.0;" x1="255" x2="577" y1="289.6582" y2="289.6582"/><text fill="#000000" font-family="sans-serif" font-size="13" font-weight="bold" lengthAdjust="spacing" textLength="7" x="267" y="284.3955">6</text><text fill="#000000" font-family="sans-serif" font-size="13" lengthAdjust="spacing" textLength="194" x="278" y="284.3955">Resolves user object with metrics</text><line style="stroke:#181818;stroke-width:1.0;" x1="250" x2="292" y1="320.9492" y2="320.9492"/><line style="stroke:#181818;stroke-width:1.0;" x1="292" x2="292" y1="320.9492" y2="333.9492"/><line style="stroke:#181818;stroke-width:1.0;" x1="251" x2="292" y1="333.9492" y2="333.9492"/><polygon fill="#181818" points="261,329.9492,251,333.9492,261,337.9492,257,333.9492" style="stroke:#181818;stroke-width:1.0;"/><text fill="#000000" font-family="sans-serif" font-size="13" font-weight="bold" lengthAdjust="spacing" textLength="7" x="257" y="315.6865">7</text><text fill="#000000" font-family="sans-serif" font-size="13" lengthAdjust="spacing" textLength="147" x="268" y="315.6865">Generates SMS contents</text><line style="stroke:#181818;stroke-width:1.0;" x1="250" x2="292" y1="365.2402" y2="365.2402"/><line style="stroke:#181818;stroke-width:1.0;" x1="292" x2="292" y1="365.2402" y2="378.2402"/><line style="stroke:#181818;stroke-width:1.0;" x1="251" x2="292" y1="378.2402" y2="378.2402"/><polygon fill="#181818" points="261,374.2402,251,378.2402,261,382.2402,257,378.2402" style="stroke:#181818;stroke-width:1.0;"/><text fill="#000000" font-family="sans-serif" font-size="13" font-weight="bold" lengthAdjust="spacing" textLength="7" x="257" y="359.9775">8</text><text fill="#000000" font-family="sans-serif" font-size="13" lengthAdjust="spacing" textLength="298" x="268" y="359.9775">Hash the message contents with the workflowRunId</text><polygon fill="#181818" points="892.5,405.5313,902.5,409.5313,892.5,413.5313,896.5,409.5313" style="stroke:#181818;stroke-width:1.0;"/><line style="stroke:#181818;stroke-width:1.0;" x1="250" x2="898.5" y1="409.5313" y2="409.5313"/><text fill="#000000" font-family="sans-serif" font-size="13" font-weight="bold" lengthAdjust="spacing" textLength="7" x="257" y="404.2686">9</text><text fill="#000000" font-family="sans-serif" font-size="13" lengthAdjust="spacing" textLength="268" x="268" y="404.2686">Check for previous message by messageHash</text><polygon fill="#181818" points="261,436.8223,251,440.8223,261,444.8223,257,440.8223" style="stroke:#181818;stroke-width:1.0;"/><line style="stroke:#181818;stroke-width:1.0;stroke-dasharray:2.0,2.0;" x1="255" x2="908.5" y1="440.8223" y2="440.8223"/><text fill="#000000" font-family="sans-serif" font-size="13" font-weight="bold" lengthAdjust="spacing" textLength="14" x="267" y="435.5596">10</text><text fill="#000000" font-family="sans-serif" font-size="13" lengthAdjust="spacing" textLength="81" x="285" y="435.5596">Returns result</text><line style="stroke:#181818;stroke-width:1.0;" x1="250" x2="292" y1="472.1133" y2="472.1133"/><line style="stroke:#181818;stroke-width:1.0;" x1="292" x2="292" y1="472.1133" y2="485.1133"/><line style="stroke:#181818;stroke-width:1.0;" x1="251" x2="292" y1="485.1133" y2="485.1133"/><polygon fill="#181818" points="261,481.1133,251,485.1133,261,489.1133,257,485.1133" style="stroke:#181818;stroke-width:1.0;"/><text fill="#000000" font-family="sans-serif" font-size="13" font-weight="bold" lengthAdjust="spacing" textLength="14" x="257" y="466.8506">11</text><text fill="#000000" font-family="sans-serif" font-size="13" lengthAdjust="spacing" textLength="224" x="275" y="466.8506">Check that messageHash result is null</text><polygon fill="#181818" points="892.5,512.4043,902.5,516.4043,892.5,520.4043,896.5,516.4043" style="stroke:#181818;stroke-width:1.0;"/><line style="stroke:#181818;stroke-width:1.0;" x1="250" x2="898.5" y1="516.4043" y2="516.4043"/><text fill="#000000" font-family="sans-serif" font-size="13" font-weight="bold" lengthAdjust="spacing" textLength="14" x="257" y="511.1416">12</text><text fill="#000000" font-family="sans-serif" font-size="13" lengthAdjust="spacing" textLength="287" x="275" y="511.1416">Write workflowRunId, userId and messageHash to</text><polygon fill="#181818" points="261,543.6953,251,547.6953,261,551.6953,257,547.6953" style="stroke:#181818;stroke-width:1.0;"/><line style="stroke:#181818;stroke-width:1.0;stroke-dasharray:2.0,2.0;" x1="255" x2="908.5" y1="547.6953" y2="547.6953"/><text fill="#000000" font-family="sans-serif" font-size="13" font-weight="bold" lengthAdjust="spacing" textLength="14" x="267" y="542.4326">13</text><text fill="#000000" font-family="sans-serif" font-size="13" lengthAdjust="spacing" textLength="95" x="285" y="542.4326">Successful write</text><line style="stroke:#181818;stroke-width:1.0;" x1="250" x2="292" y1="578.9863" y2="578.9863"/><line style="stroke:#181818;stroke-width:1.0;" x1="292" x2="292" y1="578.9863" y2="591.9863"/><line style="stroke:#181818;stroke-width:1.0;" x1="251" x2="292" y1="591.9863" y2="591.9863"/><polygon fill="#181818" points="261,587.9863,251,591.9863,261,595.9863,257,591.9863" style="stroke:#181818;stroke-width:1.0;"/><text fill="#000000" font-family="sans-serif" font-size="13" font-weight="bold" lengthAdjust="spacing" textLength="14" x="257" y="573.7236">14</text><text fill="#000000" font-family="sans-serif" font-size="13" lengthAdjust="spacing" textLength="152" x="275" y="573.7236">Gets user's phone number</text><polygon fill="#181818" points="1046,619.2773,1056,623.2773,1046,627.2773,1050,623.2773" style="stroke:#181818;stroke-width:1.0;"/><line style="stroke:#181818;stroke-width:1.0;" x1="250" x2="1052" y1="623.2773" y2="623.2773"/><text fill="#000000" font-family="sans-serif" font-size="13" font-weight="bold" lengthAdjust="spacing" textLength="14" x="257" y="618.0146">15</text><text fill="#000000" font-family="sans-serif" font-size="13" lengthAdjust="spacing" textLength="188" x="275" y="618.0146">Send message to phone number</text><polygon fill="#181818" points="261,650.5684,251,654.5684,261,658.5684,257,654.5684" style="stroke:#181818;stroke-width:1.0;"/><line style="stroke:#181818;stroke-width:1.0;stroke-dasharray:2.0,2.0;" x1="255" x2="1062" y1="654.5684" y2="654.5684"/><text fill="#000000" font-family="sans-serif" font-size="13" font-weight="bold" lengthAdjust="spacing" textLength="14" x="267" y="649.3057">16</text><text fill="#000000" font-family="sans-serif" font-size="13" lengthAdjust="spacing" textLength="81" x="285" y="649.3057">Returns result</text><line style="stroke:#181818;stroke-width:1.0;" x1="250" x2="292" y1="685.8594" y2="685.8594"/><line style="stroke:#181818;stroke-width:1.0;" x1="292" x2="292" y1="685.8594" y2="698.8594"/><line style="stroke:#181818;stroke-width:1.0;" x1="251" x2="292" y1="698.8594" y2="698.8594"/><polygon fill="#181818" points="261,694.8594,251,698.8594,261,702.8594,257,698.8594" style="stroke:#181818;stroke-width:1.0;"/><text fill="#000000" font-family="sans-serif" font-size="13" font-weight="bold" lengthAdjust="spacing" textLength="14" x="257" y="680.5967">17</text><text fill="#000000" font-family="sans-serif" font-size="13" lengthAdjust="spacing" textLength="73" x="275" y="680.5967">Check result</text><polygon fill="#181818" points="51,743.4414,41,747.4414,51,751.4414,47,747.4414" style="stroke:#181818;stroke-width:1.0;"/><line style="stroke:#181818;stroke-width:1.0;stroke-dasharray:2.0,2.0;" x1="45" x2="244" y1="747.4414" y2="747.4414"/><text fill="#000000" font-family="sans-serif" font-size="13" font-weight="bold" lengthAdjust="spacing" textLength="14" x="57" y="733.5332">18</text><text fill="#000000" font-family="sans-serif" font-size="13" lengthAdjust="spacing" textLength="120" x="75" y="724.8877">Return 200 success,</text><text fill="#000000" font-family="sans-serif" font-size="13" lengthAdjust="spacing" textLength="147" x="75" y="742.1787">messageHash and userId</text><!--SRC=[dLJ1Rjim3BtxAuZii4iA5Ek0OJaCQDer3OO2HOAjbruKcudLs98XKJ7yzvCbMPQp5DXs4wN7HxudIWrJn7FUC44mUv7gY6e6J4FhbbcJ7j_9kZQ2vuou5B1YX2thuBie6ia5kRI3tymAHcp7DCBifqO5zqjtQkpwVdb- -AnaONA29oJ5Sps0QnzEyDCE7hacgReXeVIXJPXqlNtQmbeG7fJBSb1TwonZXgGmzSxAP3dnasqzo8OFdxzylRbzo49uzMqGje0jYi8hMHTpXzzNijqOiIxWLRISIhXzNiCFx81aDZ87WaWzn2dtBrPnAnQrepXYbwKmxzu2LaXk3SiEU05C553Xdk3DteAjwS-QO6fmSUp3iyGsiX1R_cYuBn52s4lbaaQA28miuyvLqkW6oIWHRp8hy4-AM3_rOODQLYVqDeFSlQ5LugozG1M6wgAXAnIedA7z5EJIZe4WVH7wo7G9LFQjQSqE6D6-S7yokUn9mJXw2xWhCJywqng59owDZeoxRbZsnKO_O_PuA-FMcJ7UKONQL9IwC0x_HNM-AoePfIq47k0QXAcgzoIzA4vdwkVX1RZfIndjpF-7hgt9SqkoDnMqVR5_K6P7rS_9HmrDAGL2UDC9s3vt_t3ZLTXdCW77QXOwTji7V-c_-r7UTpuaH815-Bzbu8HFrzUWlGtpLv5QsblitKuB3Z_jRm00]--></g></svg>