<?xml version="1.0" encoding="us-ascii" standalone="no"?><svg xmlns="http://www.w3.org/2000/svg" xmlns:xlink="http://www.w3.org/1999/xlink" contentStyleType="text/css" height="846px" preserveAspectRatio="none" style="width:1110px;height:846px;background:#FFFFFF;" version="1.1" viewBox="0 0 1110 846" width="1110px" zoomAndPan="magnify"><defs/><g><line style="stroke:#181818;stroke-width:0.5;stroke-dasharray:5.0,5.0;" x1="35" x2="35" y1="69.6211" y2="765.4414"/><line style="stroke:#181818;stroke-width:0.5;stroke-dasharray:5.0,5.0;" x1="240" x2="240" y1="69.6211" y2="765.4414"/><line style="stroke:#181818;stroke-width:0.5;stroke-dasharray:5.0,5.0;" x1="567" x2="567" y1="69.6211" y2="765.4414"/><line style="stroke:#181818;stroke-width:0.5;stroke-dasharray:5.0,5.0;" x1="717" x2="717" y1="69.6211" y2="765.4414"/><line style="stroke:#181818;stroke-width:0.5;stroke-dasharray:5.0,5.0;" x1="893" x2="893" y1="69.6211" y2="765.4414"/><line style="stroke:#181818;stroke-width:0.5;stroke-dasharray:5.0,5.0;" x1="1047" x2="1047" y1="69.6211" y2="765.4414"/><rect fill="#E2E2F0" height="32.6211" rx="2.5" ry="2.5" style="stroke:#181818;stroke-width:0.5;" width="60" x="5" y="36"/><text fill="#000000" font-family="sans-serif" font-size="14" lengthAdjust="spacing" textLength="46" x="12" y="58.1074">Worker</text><rect fill="#E2E2F0" height="32.6211" rx="2.5" ry="2.5" style="stroke:#181818;stroke-width:0.5;" width="60" x="5" y="764.4414"/><text fill="#000000" font-family="sans-serif" font-size="14" lengthAdjust="spacing" textLength="46" x="12" y="786.5488">Worker</text><rect fill="#E2E2F0" height="32.6211" rx="2.5" ry="2.5" style="stroke:#181818;stroke-width:0.5;" width="230" x="125" y="36"/><text fill="#000000" font-family="sans-serif" font-size="14" lengthAdjust="spacing" textLength="216" x="132" y="58.1074">Communication Gateway Endpoint</text><rect fill="#E2E2F0" height="32.6211" rx="2.5" ry="2.5" style="stroke:#181818;stroke-width:0.5;" width="230" x="125" y="764.4414"/><text fill="#000000" font-family="sans-serif" font-size="14" lengthAdjust="spacing" textLength="216" x="132" y="786.5488">Communication Gateway Endpoint</text><text fill="#000000" font-family="sans-serif" font-size="14" lengthAdjust="spacing" textLength="52" x="538" y="66.1074">User DB</text><path d="M549,15 C549,5 567,5 567,5 C567,5 585,5 585,15 L585,41 C585,51 567,51 567,51 C567,51 549,51 549,41 L549,15 " fill="#E2E2F0" style="stroke:#181818;stroke-width:1.5;"/><path d="M549,15 C549,25 567,25 567,25 C567,25 585,25 585,15 " fill="none" style="stroke:#181818;stroke-width:1.5;"/><text fill="#000000" font-family="sans-serif" font-size="14" lengthAdjust="spacing" textLength="52" x="538" y="779.5488">User DB</text><path d="M549,793.0625 C549,783.0625 567,783.0625 567,783.0625 C567,783.0625 585,783.0625 585,793.0625 L585,819.0625 C585,829.0625 567,829.0625 567,829.0625 C567,829.0625 549,829.0625 549,819.0625 L549,793.0625 " fill="#E2E2F0" style="stroke:#181818;stroke-width:1.5;"/><path d="M549,793.0625 C549,803.0625 567,803.0625 567,803.0625 C567,803.0625 585,803.0625 585,793.0625 " fill="none" style="stroke:#181818;stroke-width:1.5;"/><text fill="#000000" font-family="sans-serif" font-size="14" lengthAdjust="spacing" textLength="154" x="637" y="66.1074">User Product Metrics DB</text><path d="M699,15 C699,5 717,5 717,5 C717,5 735,5 735,15 L735,41 C735,51 717,51 717,51 C717,51 699,51 699,41 L699,15 " fill="#E2E2F0" style="stroke:#181818;stroke-width:1.5;"/><path d="M699,15 C699,25 717,25 717,25 C717,25 735,25 735,15 " fill="none" style="stroke:#181818;stroke-width:1.5;"/><text fill="#000000" font-family="sans-serif" font-size="14" lengthAdjust="spacing" textLength="154" x="637" y="779.5488">User Product Metrics DB</text><path d="M699,793.0625 C699,783.0625 717,783.0625 717,783.0625 C717,783.0625 735,783.0625 735,793.0625 L735,819.0625 C735,829.0625 717,829.0625 717,829.0625 C717,829.0625 699,829.0625 699,819.0625 L699,793.0625 " fill="#E2E2F0" style="stroke:#181818;stroke-width:1.5;"/><path d="M699,793.0625 C699,803.0625 717,803.0625 717,803.0625 C717,803.0625 735,803.0625 735,793.0625 " fill="none" style="stroke:#181818;stroke-width:1.5;"/><text fill="#000000" font-family="sans-serif" font-size="14" lengthAdjust="spacing" textLength="167" x="807" y="66.1074">Communication History DB</text><path d="M875.5,15 C875.5,5 893.5,5 893.5,5 C893.5,5 911.5,5 911.5,15 L911.5,41 C911.5,51 893.5,51 893.5,51 C893.5,51 875.5,51 875.5,41 L875.5,15 " fill="#E2E2F0" style="stroke:#181818;stroke-width:1.5;"/><path d="M875.5,15 C875.5,25 893.5,25 893.5,25 C893.5,25 911.5,25 911.5,15 " fill="none" style="stroke:#181818;stroke-width:1.5;"/><text fill="#000000" font-family="sans-serif" font-size="14" lengthAdjust="spacing" textLength="167" x="807" y="779.5488">Communication History DB</text><path d="M875.5,793.0625 C875.5,783.0625 893.5,783.0625 893.5,783.0625 C893.5,783.0625 911.5,783.0625 911.5,793.0625 L911.5,819.0625 C911.5,829.0625 893.5,829.0625 893.5,829.0625 C893.5,829.0625 875.5,829.0625 875.5,819.0625 L875.5,793.0625 " fill="#E2E2F0" style="stroke:#181818;stroke-width:1.5;"/><path d="M875.5,793.0625 C875.5,803.0625 893.5,803.0625 893.5,803.0625 C893.5,803.0625 911.5,803.0625 911.5,793.0625 " fill="none" style="stroke:#181818;stroke-width:1.5;"/><rect fill="#E2E2F0" height="32.6211" rx="2.5" ry="2.5" style="stroke:#181818;stroke-width:0.5;" width="114" x="990" y="36"/><text fill="#000000" font-family="sans-serif" font-size="14" lengthAdjust="spacing" textLength="100" x="997" y="58.1074">SMS Integration</text><rect fill="#E2E2F0" height="32.6211" rx="2.5" ry="2.5" style="stroke:#181818;stroke-width:0.5;" width="114" x="990" y="764.4414"/><text fill="#000000" font-family="sans-serif" font-size="14" lengthAdjust="spacing" textLength="100" x="997" y="786.5488">SMS Integration</text><polygon fill="#181818" points="228,116.2031,238,120.2031,228,124.2031,232,120.2031" style="stroke:#181818;stroke-width:1.0;"/><line style="stroke:#181818;stroke-width:1.0;" x1="35" x2="234" y1="120.2031" y2="120.2031"/><text fill="#000000" font-family="sans-serif" font-size="13" font-weight="bold" lengthAdjust="spacing" textLength="7" x="42" y="106.2949">1</text><text fill="#000000" font-family="sans-serif" font-size="13" lengthAdjust="spacing" textLength="166" x="53" y="97.6494">Sends userId, workflowRunId</text><text fill="#000000" font-family="sans-serif" font-size="13" lengthAdjust="spacing" textLength="90" x="53" y="114.9404">with API Key to</text><line style="stroke:#181818;stroke-width:1.0;" x1="240" x2="282" y1="151.4941" y2="151.4941"/><line style="stroke:#181818;stroke-width:1.0;" x1="282" x2="282" y1="151.4941" y2="164.4941"/><line style="stroke:#181818;stroke-width:1.0;" x1="241" x2="282" y1="164.4941" y2="164.4941"/><polygon fill="#181818" points="251,160.4941,241,164.4941,251,168.4941,247,164.4941" style="stroke:#181818;stroke-width:1.0;"/><text fill="#000000" font-family="sans-serif" font-size="13" font-weight="bold" lengthAdjust="spacing" textLength="7" x="247" y="146.2314">2</text><text fill="#000000" font-family="sans-serif" font-size="13" lengthAdjust="spacing" textLength="104" x="258" y="146.2314">Validates API key</text><polygon fill="#181818" points="555,191.7852,565,195.7852,555,199.7852,559,195.7852" style="stroke:#181818;stroke-width:1.0;"/><line style="stroke:#181818;stroke-width:1.0;" x1="240" x2="561" y1="195.7852" y2="195.7852"/><text fill="#000000" font-family="sans-serif" font-size="13" font-weight="bold" lengthAdjust="spacing" textLength="7" x="247" y="190.5225">3</text><text fill="#000000" font-family="sans-serif" font-size="13" lengthAdjust="spacing" textLength="292" x="258" y="190.5225">Get user By id and left join to user product metrics</text><polygon fill="#181818" points="705,223.0762,715,227.0762,705,231.0762,709,227.0762" style="stroke:#181818;stroke-width:1.0;"/><line style="stroke:#181818;stroke-width:1.0;" x1="567" x2="711" y1="227.0762" y2="227.0762"/><text fill="#000000" font-family="sans-serif" font-size="13" font-weight="bold" lengthAdjust="spacing" textLength="7" x="574" y="221.8135">4</text><text fill="#000000" font-family="sans-serif" font-size="13" lengthAdjust="spacing" textLength="115" x="585" y="221.8135">Get metrics for user</text><polygon fill="#181818" points="578,254.3672,568,258.3672,578,262.3672,574,258.3672" style="stroke:#181818;stroke-width:1.0;"/><line style="stroke:#181818;stroke-width:1.0;stroke-dasharray:2.0,2.0;" x1="572" x2="716" y1="258.3672" y2="258.3672"/><text fill="#000000" font-family="sans-serif" font-size="13" font-weight="bold" lengthAdjust="spacing" textLength="7" x="584" y="253.1045">5</text><text fill="#000000" font-family="sans-serif" font-size="13" lengthAdjust="spacing" textLength="92" x="595" y="253.1045">Returns metrics</text><polygon fill="#181818" points="251,285.6582,241,289.6582,251,293.6582,247,289.6582" style="stroke:#181818;stroke-width:1.0;"/><line style="stroke:#181818;stroke-width:1.0;stroke-dasharray:2.0,2.0;" x1="245" x2="566" y1="289.6582" y2="289.6582"/><text fill="#000000" font-family="sans-serif" font-size="13" font-weight="bold" lengthAdjust="spacing" textLength="7" x="257" y="284.3955">6</text><text fill="#000000" font-family="sans-serif" font-size="13" lengthAdjust="spacing" textLength="194" x="268" y="284.3955">Resolves user object with metrics</text><line style="stroke:#181818;stroke-width:1.0;" x1="240" x2="282" y1="320.9492" y2="320.9492"/><line style="stroke:#181818;stroke-width:1.0;" x1="282" x2="282" y1="320.9492" y2="333.9492"/><line style="stroke:#181818;stroke-width:1.0;" x1="241" x2="282" y1="333.9492" y2="333.9492"/><polygon fill="#181818" points="251,329.9492,241,333.9492,251,337.9492,247,333.9492" style="stroke:#181818;stroke-width:1.0;"/><text fill="#000000" font-family="sans-serif" font-size="13" font-weight="bold" lengthAdjust="spacing" textLength="7" x="247" y="315.6865">7</text><text fill="#000000" font-family="sans-serif" font-size="13" lengthAdjust="spacing" textLength="147" x="258" y="315.6865">Generates SMS contents</text><line style="stroke:#181818;stroke-width:1.0;" x1="240" x2="282" y1="365.2402" y2="365.2402"/><line style="stroke:#181818;stroke-width:1.0;" x1="282" x2="282" y1="365.2402" y2="378.2402"/><line style="stroke:#181818;stroke-width:1.0;" x1="241" x2="282" y1="378.2402" y2="378.2402"/><polygon fill="#181818" points="251,374.2402,241,378.2402,251,382.2402,247,378.2402" style="stroke:#181818;stroke-width:1.0;"/><text fill="#000000" font-family="sans-serif" font-size="13" font-weight="bold" lengthAdjust="spacing" textLength="7" x="247" y="359.9775">8</text><text fill="#000000" font-family="sans-serif" font-size="13" lengthAdjust="spacing" textLength="298" x="258" y="359.9775">Hash the message contents with the workflowRunId</text><polygon fill="#181818" points="881.5,405.5313,891.5,409.5313,881.5,413.5313,885.5,409.5313" style="stroke:#181818;stroke-width:1.0;"/><line style="stroke:#181818;stroke-width:1.0;" x1="240" x2="887.5" y1="409.5313" y2="409.5313"/><text fill="#000000" font-family="sans-serif" font-size="13" font-weight="bold" lengthAdjust="spacing" textLength="7" x="247" y="404.2686">9</text><text fill="#000000" font-family="sans-serif" font-size="13" lengthAdjust="spacing" textLength="268" x="258" y="404.2686">Check for previous message by messageHash</text><polygon fill="#181818" points="251,436.8223,241,440.8223,251,444.8223,247,440.8223" style="stroke:#181818;stroke-width:1.0;"/><line style="stroke:#181818;stroke-width:1.0;stroke-dasharray:2.0,2.0;" x1="245" x2="892.5" y1="440.8223" y2="440.8223"/><text fill="#000000" font-family="sans-serif" font-size="13" font-weight="bold" lengthAdjust="spacing" textLength="14" x="257" y="435.5596">10</text><text fill="#000000" font-family="sans-serif" font-size="13" lengthAdjust="spacing" textLength="81" x="275" y="435.5596">Returns result</text><line style="stroke:#181818;stroke-width:1.0;" x1="240" x2="282" y1="472.1133" y2="472.1133"/><line style="stroke:#181818;stroke-width:1.0;" x1="282" x2="282" y1="472.1133" y2="485.1133"/><line style="stroke:#181818;stroke-width:1.0;" x1="241" x2="282" y1="485.1133" y2="485.1133"/><polygon fill="#181818" points="251,481.1133,241,485.1133,251,489.1133,247,485.1133" style="stroke:#181818;stroke-width:1.0;"/><text fill="#000000" font-family="sans-serif" font-size="13" font-weight="bold" lengthAdjust="spacing" textLength="14" x="247" y="466.8506">11</text><text fill="#000000" font-family="sans-serif" font-size="13" lengthAdjust="spacing" textLength="224" x="265" y="466.8506">Check that messageHash result is null</text><polygon fill="#181818" points="881.5,512.4043,891.5,516.4043,881.5,520.4043,885.5,516.4043" style="stroke:#181818;stroke-width:1.0;"/><line style="stroke:#181818;stroke-width:1.0;" x1="240" x2="887.5" y1="516.4043" y2="516.4043"/><text fill="#000000" font-family="sans-serif" font-size="13" font-weight="bold" lengthAdjust="spacing" textLength="14" x="247" y="511.1416">12</text><text fill="#000000" font-family="sans-serif" font-size="13" lengthAdjust="spacing" textLength="287" x="265" y="511.1416">Write workflowRunId, userId and messageHash to</text><polygon fill="#181818" points="251,543.6953,241,547.6953,251,551.6953,247,547.6953" style="stroke:#181818;stroke-width:1.0;"/><line style="stroke:#181818;stroke-width:1.0;stroke-dasharray:2.0,2.0;" x1="245" x2="892.5" y1="547.6953" y2="547.6953"/><text fill="#000000" font-family="sans-serif" font-size="13" font-weight="bold" lengthAdjust="spacing" textLength="14" x="257" y="542.4326">13</text><text fill="#000000" font-family="sans-serif" font-size="13" lengthAdjust="spacing" textLength="95" x="275" y="542.4326">Successful write</text><line style="stroke:#181818;stroke-width:1.0;" x1="240" x2="282" y1="578.9863" y2="578.9863"/><line style="stroke:#181818;stroke-width:1.0;" x1="282" x2="282" y1="578.9863" y2="591.9863"/><line style="stroke:#181818;stroke-width:1.0;" x1="241" x2="282" y1="591.9863" y2="591.9863"/><polygon fill="#181818" points="251,587.9863,241,591.9863,251,595.9863,247,591.9863" style="stroke:#181818;stroke-width:1.0;"/><text fill="#000000" font-family="sans-serif" font-size="13" font-weight="bold" lengthAdjust="spacing" textLength="14" x="247" y="573.7236">14</text><text fill="#000000" font-family="sans-serif" font-size="13" lengthAdjust="spacing" textLength="152" x="265" y="573.7236">Gets user's phone number</text><polygon fill="#181818" points="1035,619.2773,1045,623.2773,1035,627.2773,1039,623.2773" style="stroke:#181818;stroke-width:1.0;"/><line style="stroke:#181818;stroke-width:1.0;" x1="240" x2="1041" y1="623.2773" y2="623.2773"/><text fill="#000000" font-family="sans-serif" font-size="13" font-weight="bold" lengthAdjust="spacing" textLength="14" x="247" y="618.0146">15</text><text fill="#000000" font-family="sans-serif" font-size="13" lengthAdjust="spacing" textLength="188" x="265" y="618.0146">Send message to phone number</text><polygon fill="#181818" points="251,650.5684,241,654.5684,251,658.5684,247,654.5684" style="stroke:#181818;stroke-width:1.0;"/><line style="stroke:#181818;stroke-width:1.0;stroke-dasharray:2.0,2.0;" x1="245" x2="1046" y1="654.5684" y2="654.5684"/><text fill="#000000" font-family="sans-serif" font-size="13" font-weight="bold" lengthAdjust="spacing" textLength="14" x="257" y="649.3057">16</text><text fill="#000000" font-family="sans-serif" font-size="13" lengthAdjust="spacing" textLength="81" x="275" y="649.3057">Returns result</text><line style="stroke:#181818;stroke-width:1.0;" x1="240" x2="282" y1="685.8594" y2="685.8594"/><line style="stroke:#181818;stroke-width:1.0;" x1="282" x2="282" y1="685.8594" y2="698.8594"/><line style="stroke:#181818;stroke-width:1.0;" x1="241" x2="282" y1="698.8594" y2="698.8594"/><polygon fill="#181818" points="251,694.8594,241,698.8594,251,702.8594,247,698.8594" style="stroke:#181818;stroke-width:1.0;"/><text fill="#000000" font-family="sans-serif" font-size="13" font-weight="bold" lengthAdjust="spacing" textLength="14" x="247" y="680.5967">17</text><text fill="#000000" font-family="sans-serif" font-size="13" lengthAdjust="spacing" textLength="73" x="265" y="680.5967">Check result</text><polygon fill="#181818" points="46,743.4414,36,747.4414,46,751.4414,42,747.4414" style="stroke:#181818;stroke-width:1.0;"/><line style="stroke:#181818;stroke-width:1.0;stroke-dasharray:2.0,2.0;" x1="40" x2="239" y1="747.4414" y2="747.4414"/><text fill="#000000" font-family="sans-serif" font-size="13" font-weight="bold" lengthAdjust="spacing" textLength="14" x="52" y="733.5332">18</text><text fill="#000000" font-family="sans-serif" font-size="13" lengthAdjust="spacing" textLength="120" x="70" y="724.8877">Return 200 success,</text><text fill="#000000" font-family="sans-serif" font-size="13" lengthAdjust="spacing" textLength="147" x="70" y="742.1787">messageHash and userId</text><!--SRC=[dLEnRkCm3Dtr5KIMBYbGt9YXmAKzfC6XG97WhaiNnMPYDRPaY5GD__t9ectOkMJf9fdlFV8zqRNsR39JQykmU7V-Z7u1cg19HrLFoq-kge8rcMRZB6mqOwDR-6NpsXdBYNQIZohNh0-Q41P_23qyhrCrnFFp-hBuvbqUCePNP6yo6i2LN6Vu-GGlXjZvTY0KSes4sTJxrpriBUF99rQ2KaLAwS3EXkeGRIgn2_UFWuCLxD7cCl8sNwOyZgLhTi5kS_YmZU42VhvjuJUsm4xrj9d2NrsQE3jI0fwndQ8aYnLiaDCPrYsO7BJDeSGZmsVCD0fBhUuZwZDHGkvanfH4gR_2qVd4L6CTxYTDTyZ1M_fFRphz3icLNoWHW3jyOXmWsHvOLqrlqA9FfhlWCnUJjqnNeI-Q2k02eo2HFk68bZPTPHRxhE7usYjuAZ0x9ykrno_Z0esAXtOuTisK6bcNNYKFZnHAlZgiDE52yrInPu0XiA4iRmpuxWrVU5dscvKUV2eOT-d6aFkGPH5u32KqdU2j_5cUx8wWBfn5w7Ty0exhB_izvXGNRGQEY6ycT0c82Fcv1WtuyV0095wM7tRglSj2Ob7g7m00]--></g></svg>