<?xml version="1.0" encoding="us-ascii" standalone="no"?><svg xmlns="http://www.w3.org/2000/svg" xmlns:xlink="http://www.w3.org/1999/xlink" contentStyleType="text/css" height="853px" preserveAspectRatio="none" style="width:852px;height:853px;background:#FFFFFF;" version="1.1" viewBox="0 0 852 853" width="852px" zoomAndPan="magnify"><defs/><g><rect fill="#4793AF" height="684.1113" style="stroke:#181818;stroke-width:1.0;" width="10" x="37" y="79.6211"/><rect fill="#DD5746" height="612.5293" style="stroke:#181818;stroke-width:1.0;" width="10" x="42" y="142.2031"/><rect fill="#8576FF" height="93.873" style="stroke:#181818;stroke-width:1.0;" width="10" x="47" y="222.7852"/><rect fill="#8576FF" height="93.873" style="stroke:#181818;stroke-width:1.0;" width="10" x="47" y="347.9492"/><rect fill="#8576FF" height="93.873" style="stroke:#181818;stroke-width:1.0;" width="10" x="47" y="473.1133"/><rect fill="#8576FF" height="93.873" style="stroke:#181818;stroke-width:1.0;" width="10" x="47" y="598.2773"/><rect fill="#4793AF" height="660.8203" style="stroke:#181818;stroke-width:1.0;" width="10" x="321" y="102.9121"/><rect fill="#DD5746" height="568.2383" style="stroke:#181818;stroke-width:1.0;" width="10" x="326" y="186.4941"/><rect fill="#8576FF" height="93.873" style="stroke:#181818;stroke-width:1.0;" width="10" x="331" y="222.7852"/><rect fill="#8576FF" height="93.873" style="stroke:#181818;stroke-width:1.0;" width="10" x="331" y="347.9492"/><rect fill="#8576FF" height="93.873" style="stroke:#181818;stroke-width:1.0;" width="10" x="331" y="473.1133"/><rect fill="#8576FF" height="93.873" style="stroke:#181818;stroke-width:1.0;" width="10" x="331" y="598.2773"/><rect fill="#4793AF" height="31.291" style="stroke:#181818;stroke-width:1.0;" width="10" x="492" y="254.0762"/><rect fill="#4793AF" height="31.291" style="stroke:#181818;stroke-width:1.0;" width="10" x="619.5" y="379.2402"/><rect fill="#4793AF" height="31.291" style="stroke:#181818;stroke-width:1.0;" width="10" x="756.5" y="504.4043"/><rect fill="#4793AF" height="31.291" style="stroke:#181818;stroke-width:1.0;" width="10" x="756.5" y="629.5684"/><line style="stroke:#181818;stroke-width:0.5;stroke-dasharray:5.0,5.0;" x1="42" x2="42" y1="69.6211" y2="772.7324"/><line style="stroke:#181818;stroke-width:0.5;stroke-dasharray:5.0,5.0;" x1="326" x2="326" y1="69.6211" y2="772.7324"/><line style="stroke:#181818;stroke-width:0.5;stroke-dasharray:5.0,5.0;" x1="496.5" x2="496.5" y1="69.6211" y2="772.7324"/><line style="stroke:#181818;stroke-width:0.5;stroke-dasharray:5.0,5.0;" x1="624.5" x2="624.5" y1="69.6211" y2="772.7324"/><line style="stroke:#181818;stroke-width:0.5;stroke-dasharray:5.0,5.0;" x1="761.5" x2="761.5" y1="69.6211" y2="772.7324"/><rect fill="#E2E2F0" height="32.6211" rx="2.5" ry="2.5" style="stroke:#181818;stroke-width:0.5;" width="74" x="5" y="36"/><text fill="#000000" font-family="sans-serif" font-size="14" lengthAdjust="spacing" textLength="60" x="12" y="58.1074">Temporal</text><rect fill="#E2E2F0" height="32.6211" rx="2.5" ry="2.5" style="stroke:#181818;stroke-width:0.5;" width="74" x="5" y="771.7324"/><text fill="#000000" font-family="sans-serif" font-size="14" lengthAdjust="spacing" textLength="60" x="12" y="793.8398">Temporal</text><rect fill="#E2E2F0" height="32.6211" rx="2.5" ry="2.5" style="stroke:#181818;stroke-width:0.5;" width="60" x="296" y="36"/><text fill="#000000" font-family="sans-serif" font-size="14" lengthAdjust="spacing" textLength="46" x="303" y="58.1074">Worker</text><rect fill="#E2E2F0" height="32.6211" rx="2.5" ry="2.5" style="stroke:#181818;stroke-width:0.5;" width="60" x="296" y="771.7324"/><text fill="#000000" font-family="sans-serif" font-size="14" lengthAdjust="spacing" textLength="46" x="303" y="793.8398">Worker</text><text fill="#000000" font-family="sans-serif" font-size="14" lengthAdjust="spacing" textLength="145" x="421.5" y="66.1074">Kubernetes Configmap</text><path d="M479,15 C479,5 497,5 497,5 C497,5 515,5 515,15 L515,41 C515,51 497,51 497,51 C497,51 479,51 479,41 L479,15 " fill="#E2E2F0" style="stroke:#181818;stroke-width:1.5;"/><path d="M479,15 C479,25 497,25 497,25 C497,25 515,25 515,15 " fill="none" style="stroke:#181818;stroke-width:1.5;"/><text fill="#000000" font-family="sans-serif" font-size="14" lengthAdjust="spacing" textLength="145" x="421.5" y="786.8398">Kubernetes Configmap</text><path d="M479,800.3535 C479,790.3535 497,790.3535 497,790.3535 C497,790.3535 515,790.3535 515,800.3535 L515,826.3535 C515,836.3535 497,836.3535 497,836.3535 C497,836.3535 479,836.3535 479,826.3535 L479,800.3535 " fill="#E2E2F0" style="stroke:#181818;stroke-width:1.5;"/><path d="M479,800.3535 C479,810.3535 497,810.3535 497,810.3535 C497,810.3535 515,810.3535 515,800.3535 " fill="none" style="stroke:#181818;stroke-width:1.5;"/><text fill="#000000" font-family="sans-serif" font-size="14" lengthAdjust="spacing" textLength="78" x="582.5" y="66.1074">Gateway DB</text><path d="M606.5,15 C606.5,5 624.5,5 624.5,5 C624.5,5 642.5,5 642.5,15 L642.5,41 C642.5,51 624.5,51 624.5,51 C624.5,51 606.5,51 606.5,41 L606.5,15 " fill="#E2E2F0" style="stroke:#181818;stroke-width:1.5;"/><path d="M606.5,15 C606.5,25 624.5,25 624.5,25 C624.5,25 642.5,25 642.5,15 " fill="none" style="stroke:#181818;stroke-width:1.5;"/><text fill="#000000" font-family="sans-serif" font-size="14" lengthAdjust="spacing" textLength="78" x="582.5" y="786.8398">Gateway DB</text><path d="M606.5,800.3535 C606.5,790.3535 624.5,790.3535 624.5,790.3535 C624.5,790.3535 642.5,790.3535 642.5,800.3535 L642.5,826.3535 C642.5,836.3535 624.5,836.3535 624.5,836.3535 C624.5,836.3535 606.5,836.3535 606.5,826.3535 L606.5,800.3535 " fill="#E2E2F0" style="stroke:#181818;stroke-width:1.5;"/><path d="M606.5,800.3535 C606.5,810.3535 624.5,810.3535 624.5,810.3535 C624.5,810.3535 642.5,810.3535 642.5,800.3535 " fill="none" style="stroke:#181818;stroke-width:1.5;"/><rect fill="#E2E2F0" height="32.6211" rx="2.5" ry="2.5" style="stroke:#181818;stroke-width:0.5;" width="170" x="676.5" y="36"/><text fill="#000000" font-family="sans-serif" font-size="14" lengthAdjust="spacing" textLength="156" x="683.5" y="58.1074">Communication Gateway</text><rect fill="#E2E2F0" height="32.6211" rx="2.5" ry="2.5" style="stroke:#181818;stroke-width:0.5;" width="170" x="676.5" y="771.7324"/><text fill="#000000" font-family="sans-serif" font-size="14" lengthAdjust="spacing" textLength="156" x="683.5" y="793.8398">Communication Gateway</text><rect fill="#4793AF" height="684.1113" style="stroke:#181818;stroke-width:1.0;" width="10" x="37" y="79.6211"/><rect fill="#DD5746" height="612.5293" style="stroke:#181818;stroke-width:1.0;" width="10" x="42" y="142.2031"/><rect fill="#8576FF" height="93.873" style="stroke:#181818;stroke-width:1.0;" width="10" x="47" y="222.7852"/><rect fill="#8576FF" height="93.873" style="stroke:#181818;stroke-width:1.0;" width="10" x="47" y="347.9492"/><rect fill="#8576FF" height="93.873" style="stroke:#181818;stroke-width:1.0;" width="10" x="47" y="473.1133"/><rect fill="#8576FF" height="93.873" style="stroke:#181818;stroke-width:1.0;" width="10" x="47" y="598.2773"/><rect fill="#4793AF" height="660.8203" style="stroke:#181818;stroke-width:1.0;" width="10" x="321" y="102.9121"/><rect fill="#DD5746" height="568.2383" style="stroke:#181818;stroke-width:1.0;" width="10" x="326" y="186.4941"/><rect fill="#8576FF" height="93.873" style="stroke:#181818;stroke-width:1.0;" width="10" x="331" y="222.7852"/><rect fill="#8576FF" height="93.873" style="stroke:#181818;stroke-width:1.0;" width="10" x="331" y="347.9492"/><rect fill="#8576FF" height="93.873" style="stroke:#181818;stroke-width:1.0;" width="10" x="331" y="473.1133"/><rect fill="#8576FF" height="93.873" style="stroke:#181818;stroke-width:1.0;" width="10" x="331" y="598.2773"/><rect fill="#4793AF" height="31.291" style="stroke:#181818;stroke-width:1.0;" width="10" x="492" y="254.0762"/><rect fill="#4793AF" height="31.291" style="stroke:#181818;stroke-width:1.0;" width="10" x="619.5" y="379.2402"/><rect fill="#4793AF" height="31.291" style="stroke:#181818;stroke-width:1.0;" width="10" x="756.5" y="504.4043"/><rect fill="#4793AF" height="31.291" style="stroke:#181818;stroke-width:1.0;" width="10" x="756.5" y="629.5684"/><polygon fill="#181818" points="58,98.9121,48,102.9121,58,106.9121,54,102.9121" style="stroke:#181818;stroke-width:1.0;"/><line style="stroke:#181818;stroke-width:1.0;" x1="52" x2="320" y1="102.9121" y2="102.9121"/><text fill="#000000" font-family="sans-serif" font-size="13" font-weight="bold" lengthAdjust="spacing" textLength="7" x="64" y="97.6494">1</text><text fill="#000000" font-family="sans-serif" font-size="13" lengthAdjust="spacing" textLength="97" x="75" y="97.6494">Polls task queue</text><line style="stroke:#181818;stroke-width:1.0;" x1="47" x2="94" y1="129.2031" y2="129.2031"/><line style="stroke:#181818;stroke-width:1.0;" x1="94" x2="94" y1="129.2031" y2="142.2031"/><line style="stroke:#181818;stroke-width:1.0;" x1="53" x2="94" y1="142.2031" y2="142.2031"/><polygon fill="#181818" points="63,138.2031,53,142.2031,63,146.2031,59,142.2031" style="stroke:#181818;stroke-width:1.0;"/><text fill="#000000" font-family="sans-serif" font-size="13" font-weight="bold" lengthAdjust="spacing" textLength="7" x="59" y="123.9404">2</text><text fill="#000000" font-family="sans-serif" font-size="13" lengthAdjust="spacing" textLength="114" x="70" y="123.9404">Schedules workflow</text><line style="stroke:#181818;stroke-width:1.0;" x1="331" x2="378" y1="173.4941" y2="173.4941"/><line style="stroke:#181818;stroke-width:1.0;" x1="378" x2="378" y1="173.4941" y2="186.4941"/><line style="stroke:#181818;stroke-width:1.0;" x1="337" x2="378" y1="186.4941" y2="186.4941"/><polygon fill="#181818" points="347,182.4941,337,186.4941,347,190.4941,343,186.4941" style="stroke:#181818;stroke-width:1.0;"/><text fill="#000000" font-family="sans-serif" font-size="13" font-weight="bold" lengthAdjust="spacing" textLength="7" x="343" y="168.2314">3</text><text fill="#000000" font-family="sans-serif" font-size="13" lengthAdjust="spacing" textLength="88" x="354" y="168.2314">Starts workflow</text><polygon fill="#181818" points="319,218.7852,329,222.7852,319,226.7852,323,222.7852" style="stroke:#181818;stroke-width:1.0;"/><line style="stroke:#181818;stroke-width:1.0;" x1="57" x2="325" y1="222.7852" y2="222.7852"/><text fill="#000000" font-family="sans-serif" font-size="13" font-weight="bold" lengthAdjust="spacing" textLength="7" x="64" y="217.5225">4</text><text fill="#000000" font-family="sans-serif" font-size="13" lengthAdjust="spacing" textLength="197" x="75" y="217.5225">Schedules GetPreferencesActivity</text><polygon fill="#181818" points="480,250.0762,490,254.0762,480,258.0762,484,254.0762" style="stroke:#181818;stroke-width:1.0;"/><line style="stroke:#181818;stroke-width:1.0;" x1="341" x2="486" y1="254.0762" y2="254.0762"/><text fill="#000000" font-family="sans-serif" font-size="13" font-weight="bold" lengthAdjust="spacing" textLength="7" x="348" y="248.8135">5</text><text fill="#000000" font-family="sans-serif" font-size="13" lengthAdjust="spacing" textLength="94" x="359" y="248.8135">Get Preferences</text><polygon fill="#181818" points="352,281.3672,342,285.3672,352,289.3672,348,285.3672" style="stroke:#181818;stroke-width:1.0;"/><line style="stroke:#181818;stroke-width:1.0;stroke-dasharray:2.0,2.0;" x1="346" x2="496" y1="285.3672" y2="285.3672"/><text fill="#000000" font-family="sans-serif" font-size="13" font-weight="bold" lengthAdjust="spacing" textLength="7" x="358" y="280.1045">6</text><text fill="#000000" font-family="sans-serif" font-size="13" lengthAdjust="spacing" textLength="116" x="369" y="280.1045">Returns preferences</text><polygon fill="#181818" points="63,312.6582,53,316.6582,63,320.6582,59,316.6582" style="stroke:#181818;stroke-width:1.0;"/><line style="stroke:#181818;stroke-width:1.0;stroke-dasharray:2.0,2.0;" x1="57" x2="325" y1="316.6582" y2="316.6582"/><text fill="#000000" font-family="sans-serif" font-size="13" font-weight="bold" lengthAdjust="spacing" textLength="7" x="69" y="311.3955">7</text><text fill="#000000" font-family="sans-serif" font-size="13" lengthAdjust="spacing" textLength="106" x="80" y="311.3955">Activity completed</text><polygon fill="#181818" points="319,343.9492,329,347.9492,319,351.9492,323,347.9492" style="stroke:#181818;stroke-width:1.0;"/><line style="stroke:#181818;stroke-width:1.0;" x1="57" x2="325" y1="347.9492" y2="347.9492"/><text fill="#000000" font-family="sans-serif" font-size="13" font-weight="bold" lengthAdjust="spacing" textLength="7" x="64" y="342.6865">8</text><text fill="#000000" font-family="sans-serif" font-size="13" lengthAdjust="spacing" textLength="179" x="75" y="342.6865">Schedules GetGatewayActivity</text><polygon fill="#181818" points="607.5,375.2402,617.5,379.2402,607.5,383.2402,611.5,379.2402" style="stroke:#181818;stroke-width:1.0;"/><line style="stroke:#181818;stroke-width:1.0;" x1="341" x2="613.5" y1="379.2402" y2="379.2402"/><text fill="#000000" font-family="sans-serif" font-size="13" font-weight="bold" lengthAdjust="spacing" textLength="7" x="348" y="373.9775">9</text><text fill="#000000" font-family="sans-serif" font-size="13" lengthAdjust="spacing" textLength="105" x="359" y="373.9775">Get gateway by id</text><polygon fill="#181818" points="352,406.5313,342,410.5313,352,414.5313,348,410.5313" style="stroke:#181818;stroke-width:1.0;"/><line style="stroke:#181818;stroke-width:1.0;stroke-dasharray:2.0,2.0;" x1="346" x2="623.5" y1="410.5313" y2="410.5313"/><text fill="#000000" font-family="sans-serif" font-size="13" font-weight="bold" lengthAdjust="spacing" textLength="14" x="358" y="405.2686">10</text><text fill="#000000" font-family="sans-serif" font-size="13" lengthAdjust="spacing" textLength="136" x="376" y="405.2686">Returns gateway object</text><polygon fill="#181818" points="63,437.8223,53,441.8223,63,445.8223,59,441.8223" style="stroke:#181818;stroke-width:1.0;"/><line style="stroke:#181818;stroke-width:1.0;stroke-dasharray:2.0,2.0;" x1="57" x2="325" y1="441.8223" y2="441.8223"/><text fill="#000000" font-family="sans-serif" font-size="13" font-weight="bold" lengthAdjust="spacing" textLength="14" x="69" y="436.5596">11</text><text fill="#000000" font-family="sans-serif" font-size="13" lengthAdjust="spacing" textLength="106" x="87" y="436.5596">Activity completed</text><polygon fill="#181818" points="319,469.1133,329,473.1133,319,477.1133,323,473.1133" style="stroke:#181818;stroke-width:1.0;"/><line style="stroke:#181818;stroke-width:1.0;" x1="57" x2="325" y1="473.1133" y2="473.1133"/><text fill="#000000" font-family="sans-serif" font-size="13" font-weight="bold" lengthAdjust="spacing" textLength="14" x="64" y="467.8506">12</text><text fill="#000000" font-family="sans-serif" font-size="13" lengthAdjust="spacing" textLength="227" x="82" y="467.8506">Schedules SendCommunicationActivity</text><polygon fill="#181818" points="744.5,500.4043,754.5,504.4043,744.5,508.4043,748.5,504.4043" style="stroke:#181818;stroke-width:1.0;"/><line style="stroke:#181818;stroke-width:1.0;" x1="341" x2="750.5" y1="504.4043" y2="504.4043"/><text fill="#000000" font-family="sans-serif" font-size="13" font-weight="bold" lengthAdjust="spacing" textLength="14" x="348" y="499.1416">13</text><text fill="#000000" font-family="sans-serif" font-size="13" lengthAdjust="spacing" textLength="189" x="366" y="499.1416">Send user id with workflow run id</text><polygon fill="#181818" points="352,531.6953,342,535.6953,352,539.6953,348,535.6953" style="stroke:#181818;stroke-width:1.0;"/><line style="stroke:#181818;stroke-width:1.0;stroke-dasharray:2.0,2.0;" x1="346" x2="760.5" y1="535.6953" y2="535.6953"/><text fill="#000000" font-family="sans-serif" font-size="13" font-weight="bold" lengthAdjust="spacing" textLength="14" x="358" y="530.4326">14</text><text fill="#000000" font-family="sans-serif" font-size="13" lengthAdjust="spacing" textLength="132" x="376" y="530.4326">Returns error response</text><polygon fill="#181818" points="63,562.9863,53,566.9863,63,570.9863,59,566.9863" style="stroke:#181818;stroke-width:1.0;"/><line style="stroke:#181818;stroke-width:1.0;stroke-dasharray:2.0,2.0;" x1="57" x2="325" y1="566.9863" y2="566.9863"/><text fill="#000000" font-family="sans-serif" font-size="13" font-weight="bold" lengthAdjust="spacing" textLength="14" x="69" y="561.7236">15</text><text fill="#000000" font-family="sans-serif" font-size="13" lengthAdjust="spacing" textLength="76" x="87" y="561.7236">Activity failed</text><polygon fill="#181818" points="319,594.2773,329,598.2773,319,602.2773,323,598.2773" style="stroke:#181818;stroke-width:1.0;"/><line style="stroke:#181818;stroke-width:1.0;" x1="57" x2="325" y1="598.2773" y2="598.2773"/><text fill="#000000" font-family="sans-serif" font-size="13" font-weight="bold" lengthAdjust="spacing" textLength="14" x="64" y="593.0146">16</text><text fill="#000000" font-family="sans-serif" font-size="13" lengthAdjust="spacing" textLength="197" x="82" y="593.0146">Retry SendCommunicationActivity</text><polygon fill="#181818" points="744.5,625.5684,754.5,629.5684,744.5,633.5684,748.5,629.5684" style="stroke:#181818;stroke-width:1.0;"/><line style="stroke:#181818;stroke-width:1.0;" x1="341" x2="750.5" y1="629.5684" y2="629.5684"/><text fill="#000000" font-family="sans-serif" font-size="13" font-weight="bold" lengthAdjust="spacing" textLength="14" x="348" y="624.3057">17</text><text fill="#000000" font-family="sans-serif" font-size="13" lengthAdjust="spacing" textLength="189" x="366" y="624.3057">Send user id with workflow run id</text><polygon fill="#181818" points="352,656.8594,342,660.8594,352,664.8594,348,660.8594" style="stroke:#181818;stroke-width:1.0;"/><line style="stroke:#181818;stroke-width:1.0;stroke-dasharray:2.0,2.0;" x1="346" x2="760.5" y1="660.8594" y2="660.8594"/><text fill="#000000" font-family="sans-serif" font-size="13" font-weight="bold" lengthAdjust="spacing" textLength="14" x="358" y="655.5967">18</text><text fill="#000000" font-family="sans-serif" font-size="13" lengthAdjust="spacing" textLength="358" x="376" y="655.5967">Returns delivery response 200 with message hash and user id</text><polygon fill="#181818" points="63,688.1504,53,692.1504,63,696.1504,59,692.1504" style="stroke:#181818;stroke-width:1.0;"/><line style="stroke:#181818;stroke-width:1.0;stroke-dasharray:2.0,2.0;" x1="57" x2="325" y1="692.1504" y2="692.1504"/><text fill="#000000" font-family="sans-serif" font-size="13" font-weight="bold" lengthAdjust="spacing" textLength="14" x="69" y="686.8877">19</text><text fill="#000000" font-family="sans-serif" font-size="13" lengthAdjust="spacing" textLength="106" x="87" y="686.8877">Activity completed</text><polygon fill="#181818" points="314,719.4414,324,723.4414,314,727.4414,318,723.4414" style="stroke:#181818;stroke-width:1.0;"/><line style="stroke:#181818;stroke-width:1.0;" x1="52" x2="320" y1="723.4414" y2="723.4414"/><text fill="#000000" font-family="sans-serif" font-size="13" font-weight="bold" lengthAdjust="spacing" textLength="14" x="59" y="718.1787">20</text><text fill="#000000" font-family="sans-serif" font-size="13" lengthAdjust="spacing" textLength="108" x="77" y="718.1787">Complete workflow</text><polygon fill="#181818" points="58,750.7324,48,754.7324,58,758.7324,54,754.7324" style="stroke:#181818;stroke-width:1.0;"/><line style="stroke:#181818;stroke-width:1.0;stroke-dasharray:2.0,2.0;" x1="52" x2="320" y1="754.7324" y2="754.7324"/><text fill="#000000" font-family="sans-serif" font-size="13" font-weight="bold" lengthAdjust="spacing" textLength="14" x="64" y="749.4697">21</text><text fill="#000000" font-family="sans-serif" font-size="13" lengthAdjust="spacing" textLength="110" x="82" y="749.4697">Workflow complete</text><!--SRC=[rPH9Rzim48Nl_1K3znmWQ1QtFXH8RJY7NeAcGCuZSIopaKYLImJ_-r8B5y52sw15WTn4whrvmqz3jQYjA4MBqiBg6pMjqbYl00tOQS7QNFAaz3FfGT0DZuoZnG8DmUgBAqXBicHWg-H1L0ssWx8CgqnyZvOwFC7kyo2fEbwmUTHMDOsJeaGhb8H9FzQhEiRGMILTuoCPbbQy-FUnPtXtlVvuTRTdOuzmyIc-si23gcj_F3JFyCEHesIVrC4SgytiZ-MHkAjf172eLRUKlzlThAzlMTR0-EJzrXzooHpI9skU7hqn-vxiWwO3QP8bcRk-Xh2dfKu-tAnlz_lpc6a_wp1-farV7hBwoHqraLBQkSWw_KhMQMcWpOfmEY-JycUGmu6yi6bhFr8yTuV9exFZijzZcmRfBv0bOltKZh2gQPoB4mYUdBqWacB3QebISAlYEvKsFzXuB_uheqUIV7Rt_WagVsStGsbmnky83fsmntWDG3iv8-VrQSJyyn8sqbffq6HQ9GtDvgl_G_oQsW55FKSM0PrZN4Jcsz2dDuIBKorUoBSSYC7xoyknRaF6O4LmH7C4JAclPFhQILoYkfrgf3_aOkPJ814o_opo9m00]--></g></svg>