<?xml version="1.0" encoding="us-ascii" standalone="no"?><svg xmlns="http://www.w3.org/2000/svg" xmlns:xlink="http://www.w3.org/1999/xlink" contentStyleType="text/css" height="709px" preserveAspectRatio="none" style="width:798px;height:709px;background:#FFFFFF;" version="1.1" viewBox="0 0 798 709" width="798px" zoomAndPan="magnify"><defs/><g><line style="stroke:#181818;stroke-width:0.5;stroke-dasharray:5.0,5.0;" x1="42" x2="42" y1="69.6211" y2="629.2773"/><line style="stroke:#181818;stroke-width:0.5;stroke-dasharray:5.0,5.0;" x1="311" x2="311" y1="69.6211" y2="629.2773"/><line style="stroke:#181818;stroke-width:0.5;stroke-dasharray:5.0,5.0;" x1="482" x2="482" y1="69.6211" y2="629.2773"/><line style="stroke:#181818;stroke-width:0.5;stroke-dasharray:5.0,5.0;" x1="707" x2="707" y1="69.6211" y2="629.2773"/><rect fill="#E2E2F0" height="32.6211" rx="2.5" ry="2.5" style="stroke:#181818;stroke-width:0.5;" width="74" x="5" y="36"/><text fill="#000000" font-family="sans-serif" font-size="14" lengthAdjust="spacing" textLength="60" x="12" y="58.1074">Temporal</text><rect fill="#E2E2F0" height="32.6211" rx="2.5" ry="2.5" style="stroke:#181818;stroke-width:0.5;" width="74" x="5" y="628.2773"/><text fill="#000000" font-family="sans-serif" font-size="14" lengthAdjust="spacing" textLength="60" x="12" y="650.3848">Temporal</text><rect fill="#E2E2F0" height="32.6211" rx="2.5" ry="2.5" style="stroke:#181818;stroke-width:0.5;" width="60" x="281" y="36"/><text fill="#000000" font-family="sans-serif" font-size="14" lengthAdjust="spacing" textLength="46" x="288" y="58.1074">Worker</text><rect fill="#E2E2F0" height="32.6211" rx="2.5" ry="2.5" style="stroke:#181818;stroke-width:0.5;" width="60" x="281" y="628.2773"/><text fill="#000000" font-family="sans-serif" font-size="14" lengthAdjust="spacing" textLength="46" x="288" y="650.3848">Worker</text><text fill="#000000" font-family="sans-serif" font-size="14" lengthAdjust="spacing" textLength="78" x="440" y="66.1074">Gateway DB</text><path d="M464,15 C464,5 482,5 482,5 C482,5 500,5 500,15 L500,41 C500,51 482,51 482,51 C482,51 464,51 464,41 L464,15 " fill="#E2E2F0" style="stroke:#181818;stroke-width:1.5;"/><path d="M464,15 C464,25 482,25 482,25 C482,25 500,25 500,15 " fill="none" style="stroke:#181818;stroke-width:1.5;"/><text fill="#000000" font-family="sans-serif" font-size="14" lengthAdjust="spacing" textLength="78" x="440" y="643.3848">Gateway DB</text><path d="M464,656.8984 C464,646.8984 482,646.8984 482,646.8984 C482,646.8984 500,646.8984 500,656.8984 L500,682.8984 C500,692.8984 482,692.8984 482,692.8984 C482,692.8984 464,692.8984 464,682.8984 L464,656.8984 " fill="#E2E2F0" style="stroke:#181818;stroke-width:1.5;"/><path d="M464,656.8984 C464,666.8984 482,666.8984 482,666.8984 C482,666.8984 500,666.8984 500,656.8984 " fill="none" style="stroke:#181818;stroke-width:1.5;"/><rect fill="#E2E2F0" height="32.6211" rx="2.5" ry="2.5" style="stroke:#181818;stroke-width:0.5;" width="170" x="622" y="36"/><text fill="#000000" font-family="sans-serif" font-size="14" lengthAdjust="spacing" textLength="156" x="629" y="58.1074">Communication Gateway</text><rect fill="#E2E2F0" height="32.6211" rx="2.5" ry="2.5" style="stroke:#181818;stroke-width:0.5;" width="170" x="622" y="628.2773"/><text fill="#000000" font-family="sans-serif" font-size="14" lengthAdjust="spacing" textLength="156" x="629" y="650.3848">Communication Gateway</text><polygon fill="#181818" points="53,98.9121,43,102.9121,53,106.9121,49,102.9121" style="stroke:#181818;stroke-width:1.0;"/><line style="stroke:#181818;stroke-width:1.0;" x1="47" x2="310" y1="102.9121" y2="102.9121"/><text fill="#000000" font-family="sans-serif" font-size="13" font-weight="bold" lengthAdjust="spacing" textLength="7" x="59" y="97.6494">1</text><text fill="#000000" font-family="sans-serif" font-size="13" lengthAdjust="spacing" textLength="97" x="70" y="97.6494">Polls task queue</text><line style="stroke:#181818;stroke-width:1.0;" x1="42" x2="84" y1="134.2031" y2="134.2031"/><line style="stroke:#181818;stroke-width:1.0;" x1="84" x2="84" y1="134.2031" y2="147.2031"/><line style="stroke:#181818;stroke-width:1.0;" x1="43" x2="84" y1="147.2031" y2="147.2031"/><polygon fill="#181818" points="53,143.2031,43,147.2031,53,151.2031,49,147.2031" style="stroke:#181818;stroke-width:1.0;"/><text fill="#000000" font-family="sans-serif" font-size="13" font-weight="bold" lengthAdjust="spacing" textLength="7" x="49" y="128.9404">2</text><text fill="#000000" font-family="sans-serif" font-size="13" lengthAdjust="spacing" textLength="114" x="60" y="128.9404">Schedules workflow</text><line style="stroke:#181818;stroke-width:1.0;" x1="311" x2="353" y1="178.4941" y2="178.4941"/><line style="stroke:#181818;stroke-width:1.0;" x1="353" x2="353" y1="178.4941" y2="191.4941"/><line style="stroke:#181818;stroke-width:1.0;" x1="312" x2="353" y1="191.4941" y2="191.4941"/><polygon fill="#181818" points="322,187.4941,312,191.4941,322,195.4941,318,191.4941" style="stroke:#181818;stroke-width:1.0;"/><text fill="#000000" font-family="sans-serif" font-size="13" font-weight="bold" lengthAdjust="spacing" textLength="7" x="318" y="173.2314">3</text><text fill="#000000" font-family="sans-serif" font-size="13" lengthAdjust="spacing" textLength="88" x="329" y="173.2314">Starts workflow</text><polygon fill="#181818" points="299,218.7852,309,222.7852,299,226.7852,303,222.7852" style="stroke:#181818;stroke-width:1.0;"/><line style="stroke:#181818;stroke-width:1.0;" x1="42" x2="305" y1="222.7852" y2="222.7852"/><text fill="#000000" font-family="sans-serif" font-size="13" font-weight="bold" lengthAdjust="spacing" textLength="7" x="49" y="217.5225">4</text><text fill="#000000" font-family="sans-serif" font-size="13" lengthAdjust="spacing" textLength="197" x="60" y="217.5225">Schedules GetPreferencesActivity</text><line style="stroke:#181818;stroke-width:1.0;" x1="311" x2="353" y1="254.0762" y2="254.0762"/><line style="stroke:#181818;stroke-width:1.0;" x1="353" x2="353" y1="254.0762" y2="267.0762"/><line style="stroke:#181818;stroke-width:1.0;" x1="312" x2="353" y1="267.0762" y2="267.0762"/><polygon fill="#181818" points="322,263.0762,312,267.0762,322,271.0762,318,267.0762" style="stroke:#181818;stroke-width:1.0;"/><text fill="#000000" font-family="sans-serif" font-size="13" font-weight="bold" lengthAdjust="spacing" textLength="7" x="318" y="248.8135">5</text><text fill="#000000" font-family="sans-serif" font-size="13" lengthAdjust="spacing" textLength="94" x="329" y="248.8135">Get Preferences</text><polygon fill="#181818" points="53,294.3672,43,298.3672,53,302.3672,49,298.3672" style="stroke:#181818;stroke-width:1.0;"/><line style="stroke:#181818;stroke-width:1.0;stroke-dasharray:2.0,2.0;" x1="47" x2="310" y1="298.3672" y2="298.3672"/><text fill="#000000" font-family="sans-serif" font-size="13" font-weight="bold" lengthAdjust="spacing" textLength="7" x="59" y="293.1045">6</text><text fill="#000000" font-family="sans-serif" font-size="13" lengthAdjust="spacing" textLength="106" x="70" y="293.1045">Activity completed</text><polygon fill="#181818" points="299,325.6582,309,329.6582,299,333.6582,303,329.6582" style="stroke:#181818;stroke-width:1.0;"/><line style="stroke:#181818;stroke-width:1.0;" x1="42" x2="305" y1="329.6582" y2="329.6582"/><text fill="#000000" font-family="sans-serif" font-size="13" font-weight="bold" lengthAdjust="spacing" textLength="7" x="49" y="324.3955">7</text><text fill="#000000" font-family="sans-serif" font-size="13" lengthAdjust="spacing" textLength="179" x="60" y="324.3955">Schedules GetGatewayActivity</text><polygon fill="#181818" points="470,356.9492,480,360.9492,470,364.9492,474,360.9492" style="stroke:#181818;stroke-width:1.0;"/><line style="stroke:#181818;stroke-width:1.0;" x1="311" x2="476" y1="360.9492" y2="360.9492"/><text fill="#000000" font-family="sans-serif" font-size="13" font-weight="bold" lengthAdjust="spacing" textLength="7" x="318" y="355.6865">8</text><text fill="#000000" font-family="sans-serif" font-size="13" lengthAdjust="spacing" textLength="105" x="329" y="355.6865">Get gateway by id</text><polygon fill="#181818" points="322,388.2402,312,392.2402,322,396.2402,318,392.2402" style="stroke:#181818;stroke-width:1.0;"/><line style="stroke:#181818;stroke-width:1.0;stroke-dasharray:2.0,2.0;" x1="316" x2="481" y1="392.2402" y2="392.2402"/><text fill="#000000" font-family="sans-serif" font-size="13" font-weight="bold" lengthAdjust="spacing" textLength="7" x="328" y="386.9775">9</text><text fill="#000000" font-family="sans-serif" font-size="13" lengthAdjust="spacing" textLength="136" x="339" y="386.9775">Returns gateway object</text><polygon fill="#181818" points="53,419.5313,43,423.5313,53,427.5313,49,423.5313" style="stroke:#181818;stroke-width:1.0;"/><line style="stroke:#181818;stroke-width:1.0;stroke-dasharray:2.0,2.0;" x1="47" x2="310" y1="423.5313" y2="423.5313"/><text fill="#000000" font-family="sans-serif" font-size="13" font-weight="bold" lengthAdjust="spacing" textLength="14" x="59" y="418.2686">10</text><text fill="#000000" font-family="sans-serif" font-size="13" lengthAdjust="spacing" textLength="106" x="77" y="418.2686">Activity completed</text><polygon fill="#181818" points="299,450.8223,309,454.8223,299,458.8223,303,454.8223" style="stroke:#181818;stroke-width:1.0;"/><line style="stroke:#181818;stroke-width:1.0;" x1="42" x2="305" y1="454.8223" y2="454.8223"/><text fill="#000000" font-family="sans-serif" font-size="13" font-weight="bold" lengthAdjust="spacing" textLength="14" x="49" y="449.5596">11</text><text fill="#000000" font-family="sans-serif" font-size="13" lengthAdjust="spacing" textLength="227" x="67" y="449.5596">Schedules SendCommunicationActivity</text><polygon fill="#181818" points="695,482.1133,705,486.1133,695,490.1133,699,486.1133" style="stroke:#181818;stroke-width:1.0;"/><line style="stroke:#181818;stroke-width:1.0;" x1="311" x2="701" y1="486.1133" y2="486.1133"/><text fill="#000000" font-family="sans-serif" font-size="13" font-weight="bold" lengthAdjust="spacing" textLength="14" x="318" y="480.8506">12</text><text fill="#000000" font-family="sans-serif" font-size="13" lengthAdjust="spacing" textLength="187" x="336" y="480.8506">Send user id and workflow run id</text><polygon fill="#181818" points="322,513.4043,312,517.4043,322,521.4043,318,517.4043" style="stroke:#181818;stroke-width:1.0;"/><line style="stroke:#181818;stroke-width:1.0;stroke-dasharray:2.0,2.0;" x1="316" x2="706" y1="517.4043" y2="517.4043"/><text fill="#000000" font-family="sans-serif" font-size="13" font-weight="bold" lengthAdjust="spacing" textLength="14" x="328" y="512.1416">13</text><text fill="#000000" font-family="sans-serif" font-size="13" lengthAdjust="spacing" textLength="354" x="346" y="512.1416">Returns delivery response 200 with message hash and userId</text><polygon fill="#181818" points="53,544.6953,43,548.6953,53,552.6953,49,548.6953" style="stroke:#181818;stroke-width:1.0;"/><line style="stroke:#181818;stroke-width:1.0;stroke-dasharray:2.0,2.0;" x1="47" x2="310" y1="548.6953" y2="548.6953"/><text fill="#000000" font-family="sans-serif" font-size="13" font-weight="bold" lengthAdjust="spacing" textLength="14" x="59" y="543.4326">14</text><text fill="#000000" font-family="sans-serif" font-size="13" lengthAdjust="spacing" textLength="106" x="77" y="543.4326">Activity completed</text><polygon fill="#181818" points="299,575.9863,309,579.9863,299,583.9863,303,579.9863" style="stroke:#181818;stroke-width:1.0;"/><line style="stroke:#181818;stroke-width:1.0;" x1="42" x2="305" y1="579.9863" y2="579.9863"/><text fill="#000000" font-family="sans-serif" font-size="13" font-weight="bold" lengthAdjust="spacing" textLength="14" x="49" y="574.7236">15</text><text fill="#000000" font-family="sans-serif" font-size="13" lengthAdjust="spacing" textLength="108" x="67" y="574.7236">Complete workflow</text><polygon fill="#181818" points="53,607.2773,43,611.2773,53,615.2773,49,611.2773" style="stroke:#181818;stroke-width:1.0;"/><line style="stroke:#181818;stroke-width:1.0;stroke-dasharray:2.0,2.0;" x1="47" x2="310" y1="611.2773" y2="611.2773"/><text fill="#000000" font-family="sans-serif" font-size="13" font-weight="bold" lengthAdjust="spacing" textLength="14" x="59" y="606.0146">16</text><text fill="#000000" font-family="sans-serif" font-size="13" lengthAdjust="spacing" textLength="110" x="77" y="606.0146">Workflow complete</text><!--SRC=[hP8zQyCm48Pt_Oh3Uo5qp51eKmZTGbF8V9OkjXfRSgLJZFzzPVa3cnewj9kiU_JSQvqQTAobRj0mP1zKDzPXbG5wuF53D4laOjsDN0BQj1GA6NFq1DaHcLhiuFKbrOjMvM9z-c3hEXWjaRKrCF89baKh10Qs9jHvj8h13WzFSv0zd6nLnM3eR_0LA92OIcliB4jIeQ8XuhMoxS8sh2B4CTY2MAfcPXOTYK-EhkJ8IFBFalLTSxUXZI0io9bO1PpEWxHrKn6J-htzU5aRhVjx7XeNum3o3hGI_NvgFFdUYOCpViPi_acI_odYcOnQZNSZQHpoFe4GVDpH2Z2kfn602wRF7QdDs8egVIVNWIFVM1DVtEDk1wtc4cho7Wk24dsPdBt_JVtfrmvZzUSZMjakK_h9zWq0]--></g></svg>