<?xml version="1.0" encoding="us-ascii" standalone="no"?><svg xmlns="http://www.w3.org/2000/svg" xmlns:xlink="http://www.w3.org/1999/xlink" contentStyleType="text/css" height="803px" preserveAspectRatio="none" style="width:710px;height:803px;background:#FFFFFF;" version="1.1" viewBox="0 0 710 803" width="710px" zoomAndPan="magnify"><defs/><g><line style="stroke:#181818;stroke-width:0.5;stroke-dasharray:5.0,5.0;" x1="42" x2="42" y1="69.6211" y2="723.1504"/><line style="stroke:#181818;stroke-width:0.5;stroke-dasharray:5.0,5.0;" x1="311" x2="311" y1="69.6211" y2="723.1504"/><line style="stroke:#181818;stroke-width:0.5;stroke-dasharray:5.0,5.0;" x1="482" x2="482" y1="69.6211" y2="723.1504"/><line style="stroke:#181818;stroke-width:0.5;stroke-dasharray:5.0,5.0;" x1="619" x2="619" y1="69.6211" y2="723.1504"/><rect fill="#E2E2F0" height="32.6211" rx="2.5" ry="2.5" style="stroke:#181818;stroke-width:0.5;" width="74" x="5" y="36"/><text fill="#000000" font-family="sans-serif" font-size="14" lengthAdjust="spacing" textLength="60" x="12" y="58.1074">Temporal</text><rect fill="#E2E2F0" height="32.6211" rx="2.5" ry="2.5" style="stroke:#181818;stroke-width:0.5;" width="74" x="5" y="722.1504"/><text fill="#000000" font-family="sans-serif" font-size="14" lengthAdjust="spacing" textLength="60" x="12" y="744.2578">Temporal</text><rect fill="#E2E2F0" height="32.6211" rx="2.5" ry="2.5" style="stroke:#181818;stroke-width:0.5;" width="60" x="281" y="36"/><text fill="#000000" font-family="sans-serif" font-size="14" lengthAdjust="spacing" textLength="46" x="288" y="58.1074">Worker</text><rect fill="#E2E2F0" height="32.6211" rx="2.5" ry="2.5" style="stroke:#181818;stroke-width:0.5;" width="60" x="281" y="722.1504"/><text fill="#000000" font-family="sans-serif" font-size="14" lengthAdjust="spacing" textLength="46" x="288" y="744.2578">Worker</text><text fill="#000000" font-family="sans-serif" font-size="14" lengthAdjust="spacing" textLength="78" x="440" y="66.1074">Gateway DB</text><path d="M464,15 C464,5 482,5 482,5 C482,5 500,5 500,15 L500,41 C500,51 482,51 482,51 C482,51 464,51 464,41 L464,15 " fill="#E2E2F0" style="stroke:#181818;stroke-width:1.5;"/><path d="M464,15 C464,25 482,25 482,25 C482,25 500,25 500,15 " fill="none" style="stroke:#181818;stroke-width:1.5;"/><text fill="#000000" font-family="sans-serif" font-size="14" lengthAdjust="spacing" textLength="78" x="440" y="737.2578">Gateway DB</text><path d="M464,750.7715 C464,740.7715 482,740.7715 482,740.7715 C482,740.7715 500,740.7715 500,750.7715 L500,776.7715 C500,786.7715 482,786.7715 482,786.7715 C482,786.7715 464,786.7715 464,776.7715 L464,750.7715 " fill="#E2E2F0" style="stroke:#181818;stroke-width:1.5;"/><path d="M464,750.7715 C464,760.7715 482,760.7715 482,760.7715 C482,760.7715 500,760.7715 500,750.7715 " fill="none" style="stroke:#181818;stroke-width:1.5;"/><rect fill="#E2E2F0" height="32.6211" rx="2.5" ry="2.5" style="stroke:#181818;stroke-width:0.5;" width="170" x="534" y="36"/><text fill="#000000" font-family="sans-serif" font-size="14" lengthAdjust="spacing" textLength="156" x="541" y="58.1074">Communication Gateway</text><rect fill="#E2E2F0" height="32.6211" rx="2.5" ry="2.5" style="stroke:#181818;stroke-width:0.5;" width="170" x="534" y="722.1504"/><text fill="#000000" font-family="sans-serif" font-size="14" lengthAdjust="spacing" textLength="156" x="541" y="744.2578">Communication Gateway</text><polygon fill="#181818" points="53,98.9121,43,102.9121,53,106.9121,49,102.9121" style="stroke:#181818;stroke-width:1.0;"/><line style="stroke:#181818;stroke-width:1.0;" x1="47" x2="310" y1="102.9121" y2="102.9121"/><text fill="#000000" font-family="sans-serif" font-size="13" font-weight="bold" lengthAdjust="spacing" textLength="7" x="59" y="97.6494">1</text><text fill="#000000" font-family="sans-serif" font-size="13" lengthAdjust="spacing" textLength="97" x="70" y="97.6494">Polls task queue</text><line style="stroke:#181818;stroke-width:1.0;" x1="42" x2="84" y1="134.2031" y2="134.2031"/><line style="stroke:#181818;stroke-width:1.0;" x1="84" x2="84" y1="134.2031" y2="147.2031"/><line style="stroke:#181818;stroke-width:1.0;" x1="43" x2="84" y1="147.2031" y2="147.2031"/><polygon fill="#181818" points="53,143.2031,43,147.2031,53,151.2031,49,147.2031" style="stroke:#181818;stroke-width:1.0;"/><text fill="#000000" font-family="sans-serif" font-size="13" font-weight="bold" lengthAdjust="spacing" textLength="7" x="49" y="128.9404">2</text><text fill="#000000" font-family="sans-serif" font-size="13" lengthAdjust="spacing" textLength="114" x="60" y="128.9404">Schedules workflow</text><line style="stroke:#181818;stroke-width:1.0;" x1="311" x2="353" y1="178.4941" y2="178.4941"/><line style="stroke:#181818;stroke-width:1.0;" x1="353" x2="353" y1="178.4941" y2="191.4941"/><line style="stroke:#181818;stroke-width:1.0;" x1="312" x2="353" y1="191.4941" y2="191.4941"/><polygon fill="#181818" points="322,187.4941,312,191.4941,322,195.4941,318,191.4941" style="stroke:#181818;stroke-width:1.0;"/><text fill="#000000" font-family="sans-serif" font-size="13" font-weight="bold" lengthAdjust="spacing" textLength="7" x="318" y="173.2314">3</text><text fill="#000000" font-family="sans-serif" font-size="13" lengthAdjust="spacing" textLength="88" x="329" y="173.2314">Starts workflow</text><polygon fill="#181818" points="299,218.7852,309,222.7852,299,226.7852,303,222.7852" style="stroke:#181818;stroke-width:1.0;"/><line style="stroke:#181818;stroke-width:1.0;" x1="42" x2="305" y1="222.7852" y2="222.7852"/><text fill="#000000" font-family="sans-serif" font-size="13" font-weight="bold" lengthAdjust="spacing" textLength="7" x="49" y="217.5225">4</text><text fill="#000000" font-family="sans-serif" font-size="13" lengthAdjust="spacing" textLength="176" x="60" y="217.5225">Schedules GetSettingsActivity</text><line style="stroke:#181818;stroke-width:1.0;" x1="311" x2="353" y1="254.0762" y2="254.0762"/><line style="stroke:#181818;stroke-width:1.0;" x1="353" x2="353" y1="254.0762" y2="267.0762"/><line style="stroke:#181818;stroke-width:1.0;" x1="312" x2="353" y1="267.0762" y2="267.0762"/><polygon fill="#181818" points="322,263.0762,312,267.0762,322,271.0762,318,267.0762" style="stroke:#181818;stroke-width:1.0;"/><text fill="#000000" font-family="sans-serif" font-size="13" font-weight="bold" lengthAdjust="spacing" textLength="7" x="318" y="248.8135">5</text><text fill="#000000" font-family="sans-serif" font-size="13" lengthAdjust="spacing" textLength="73" x="329" y="248.8135">Get Settings</text><polygon fill="#181818" points="299,294.3672,309,298.3672,299,302.3672,303,298.3672" style="stroke:#181818;stroke-width:1.0;"/><line style="stroke:#181818;stroke-width:1.0;" x1="42" x2="305" y1="298.3672" y2="298.3672"/><text fill="#000000" font-family="sans-serif" font-size="13" font-weight="bold" lengthAdjust="spacing" textLength="7" x="49" y="293.1045">6</text><text fill="#000000" font-family="sans-serif" font-size="13" lengthAdjust="spacing" textLength="179" x="60" y="293.1045">Schedules GetGatewayActivity</text><polygon fill="#181818" points="470,325.6582,480,329.6582,470,333.6582,474,329.6582" style="stroke:#181818;stroke-width:1.0;"/><line style="stroke:#181818;stroke-width:1.0;" x1="311" x2="476" y1="329.6582" y2="329.6582"/><text fill="#000000" font-family="sans-serif" font-size="13" font-weight="bold" lengthAdjust="spacing" textLength="7" x="318" y="324.3955">7</text><text fill="#000000" font-family="sans-serif" font-size="13" lengthAdjust="spacing" textLength="105" x="329" y="324.3955">Get gateway by id</text><polygon fill="#181818" points="322,356.9492,312,360.9492,322,364.9492,318,360.9492" style="stroke:#181818;stroke-width:1.0;"/><line style="stroke:#181818;stroke-width:1.0;stroke-dasharray:2.0,2.0;" x1="316" x2="481" y1="360.9492" y2="360.9492"/><text fill="#000000" font-family="sans-serif" font-size="13" font-weight="bold" lengthAdjust="spacing" textLength="7" x="328" y="355.6865">8</text><text fill="#000000" font-family="sans-serif" font-size="13" lengthAdjust="spacing" textLength="136" x="339" y="355.6865">Returns gateway object</text><polygon fill="#181818" points="53,388.2402,43,392.2402,53,396.2402,49,392.2402" style="stroke:#181818;stroke-width:1.0;"/><line style="stroke:#181818;stroke-width:1.0;stroke-dasharray:2.0,2.0;" x1="47" x2="310" y1="392.2402" y2="392.2402"/><text fill="#000000" font-family="sans-serif" font-size="13" font-weight="bold" lengthAdjust="spacing" textLength="7" x="59" y="386.9775">9</text><text fill="#000000" font-family="sans-serif" font-size="13" lengthAdjust="spacing" textLength="106" x="70" y="386.9775">Activity completed</text><polygon fill="#181818" points="299,419.5313,309,423.5313,299,427.5313,303,423.5313" style="stroke:#181818;stroke-width:1.0;"/><line style="stroke:#181818;stroke-width:1.0;" x1="42" x2="305" y1="423.5313" y2="423.5313"/><text fill="#000000" font-family="sans-serif" font-size="13" font-weight="bold" lengthAdjust="spacing" textLength="14" x="49" y="418.2686">10</text><text fill="#000000" font-family="sans-serif" font-size="13" lengthAdjust="spacing" textLength="227" x="67" y="418.2686">Schedules SendCommunicationActivity</text><polygon fill="#181818" points="607,450.8223,617,454.8223,607,458.8223,611,454.8223" style="stroke:#181818;stroke-width:1.0;"/><line style="stroke:#181818;stroke-width:1.0;" x1="311" x2="613" y1="454.8223" y2="454.8223"/><text fill="#000000" font-family="sans-serif" font-size="13" font-weight="bold" lengthAdjust="spacing" textLength="14" x="318" y="449.5596">11</text><text fill="#000000" font-family="sans-serif" font-size="13" lengthAdjust="spacing" textLength="189" x="336" y="449.5596">Send user id with workflow run id</text><polygon fill="#181818" points="322,482.1133,312,486.1133,322,490.1133,318,486.1133" style="stroke:#181818;stroke-width:1.0;"/><line style="stroke:#181818;stroke-width:1.0;stroke-dasharray:2.0,2.0;" x1="316" x2="618" y1="486.1133" y2="486.1133"/><text fill="#000000" font-family="sans-serif" font-size="13" font-weight="bold" lengthAdjust="spacing" textLength="14" x="328" y="480.8506">12</text><text fill="#000000" font-family="sans-serif" font-size="13" lengthAdjust="spacing" textLength="132" x="346" y="480.8506">Returns error response</text><polygon fill="#181818" points="53,513.4043,43,517.4043,53,521.4043,49,517.4043" style="stroke:#181818;stroke-width:1.0;"/><line style="stroke:#181818;stroke-width:1.0;stroke-dasharray:2.0,2.0;" x1="47" x2="310" y1="517.4043" y2="517.4043"/><text fill="#000000" font-family="sans-serif" font-size="13" font-weight="bold" lengthAdjust="spacing" textLength="14" x="59" y="512.1416">13</text><text fill="#000000" font-family="sans-serif" font-size="13" lengthAdjust="spacing" textLength="76" x="77" y="512.1416">Activity failed</text><polygon fill="#181818" points="299,544.6953,309,548.6953,299,552.6953,303,548.6953" style="stroke:#181818;stroke-width:1.0;"/><line style="stroke:#181818;stroke-width:1.0;" x1="42" x2="305" y1="548.6953" y2="548.6953"/><text fill="#000000" font-family="sans-serif" font-size="13" font-weight="bold" lengthAdjust="spacing" textLength="14" x="49" y="543.4326">14</text><text fill="#000000" font-family="sans-serif" font-size="13" lengthAdjust="spacing" textLength="197" x="67" y="543.4326">Retry SendCommunicationActivity</text><polygon fill="#181818" points="607,575.9863,617,579.9863,607,583.9863,611,579.9863" style="stroke:#181818;stroke-width:1.0;"/><line style="stroke:#181818;stroke-width:1.0;" x1="311" x2="613" y1="579.9863" y2="579.9863"/><text fill="#000000" font-family="sans-serif" font-size="13" font-weight="bold" lengthAdjust="spacing" textLength="14" x="318" y="574.7236">15</text><text fill="#000000" font-family="sans-serif" font-size="13" lengthAdjust="spacing" textLength="189" x="336" y="574.7236">Send user id with workflow run id</text><polygon fill="#181818" points="322,607.2773,312,611.2773,322,615.2773,318,611.2773" style="stroke:#181818;stroke-width:1.0;"/><line style="stroke:#181818;stroke-width:1.0;stroke-dasharray:2.0,2.0;" x1="316" x2="618" y1="611.2773" y2="611.2773"/><text fill="#000000" font-family="sans-serif" font-size="13" font-weight="bold" lengthAdjust="spacing" textLength="14" x="328" y="606.0146">16</text><text fill="#000000" font-family="sans-serif" font-size="13" lengthAdjust="spacing" textLength="265" x="346" y="606.0146">Returns delivery response with message hash</text><polygon fill="#181818" points="53,638.5684,43,642.5684,53,646.5684,49,642.5684" style="stroke:#181818;stroke-width:1.0;"/><line style="stroke:#181818;stroke-width:1.0;stroke-dasharray:2.0,2.0;" x1="47" x2="310" y1="642.5684" y2="642.5684"/><text fill="#000000" font-family="sans-serif" font-size="13" font-weight="bold" lengthAdjust="spacing" textLength="14" x="59" y="637.3057">17</text><text fill="#000000" font-family="sans-serif" font-size="13" lengthAdjust="spacing" textLength="106" x="77" y="637.3057">Activity completed</text><polygon fill="#181818" points="299,669.8594,309,673.8594,299,677.8594,303,673.8594" style="stroke:#181818;stroke-width:1.0;"/><line style="stroke:#181818;stroke-width:1.0;" x1="42" x2="305" y1="673.8594" y2="673.8594"/><text fill="#000000" font-family="sans-serif" font-size="13" font-weight="bold" lengthAdjust="spacing" textLength="14" x="49" y="668.5967">18</text><text fill="#000000" font-family="sans-serif" font-size="13" lengthAdjust="spacing" textLength="108" x="67" y="668.5967">Complete workflow</text><polygon fill="#181818" points="53,701.1504,43,705.1504,53,709.1504,49,705.1504" style="stroke:#181818;stroke-width:1.0;"/><line style="stroke:#181818;stroke-width:1.0;stroke-dasharray:2.0,2.0;" x1="47" x2="310" y1="705.1504" y2="705.1504"/><text fill="#000000" font-family="sans-serif" font-size="13" font-weight="bold" lengthAdjust="spacing" textLength="14" x="59" y="699.8877">19</text><text fill="#000000" font-family="sans-serif" font-size="13" lengthAdjust="spacing" textLength="110" x="77" y="699.8877">Workflow complete</text><!--SRC=[lPBBReCm403l_efLxlc172grgPHhLIhblDWRS6DiQg-3-FkQfq2bub2fDsCFmx1GesSjTOsMuV11LUqycWDW01ulHBr4hixVoVT0qo-5GiOS0y7XWamDjl3wqfyNZSh5-kwpgwfejKJMpiB8zx0i6Y4mihEnofDL37OuFiqX9tXpngGm37VuYXH9J4ThB9CbgMXeIBmPronimof1dC8Mn58rCxFeGfmHixP5U9Qi7vhR3MUYOCBsXUFhR_YwoGssOXnfte9Mejk7uyBtJXoz3JFcya-IF9jMKvcU0z9LjI4cjPEOaLMh3xPHcZxRgGSXXhIZ5JIQotcguAFjmXEssKtUEm-UGkrie9tk6shpItJo-VO_WXKP_Q3qhAbvkBsY4B0WA36KVvh-UJpz-UUkRDSfTx9z0m00]--></g></svg>