<?xml version="1.0" encoding="us-ascii" standalone="no"?><svg xmlns="http://www.w3.org/2000/svg" xmlns:xlink="http://www.w3.org/1999/xlink" contentStyleType="text/css" height="946.4px" preserveAspectRatio="none" style="width:1107px;height:946px;background:#FFFFFF;" version="1.1" viewBox="0 0 1107 946" width="1107.6px" zoomAndPan="magnify"><defs/><g><rect fill="#4793AF" height="726.6314" style="stroke:#181818;stroke-width:1.3;" width="13" x="48.1" y="103.5074"/><rect fill="#DD5746" height="633.5748" style="stroke:#181818;stroke-width:1.3;" width="13" x="54.6" y="184.8641"/><rect fill="#8576FF" height="122.035" style="stroke:#181818;stroke-width:1.3;" width="13" x="61.1" y="289.6207"/><rect fill="#8576FF" height="122.035" style="stroke:#181818;stroke-width:1.3;" width="13" x="61.1" y="452.334"/><rect fill="#8576FF" height="122.035" style="stroke:#181818;stroke-width:1.3;" width="13" x="61.1" y="615.0473"/><rect fill="#4793AF" height="696.3531" style="stroke:#181818;stroke-width:1.3;" width="13" x="417.3" y="133.7857"/><rect fill="#DD5746" height="575.9965" style="stroke:#181818;stroke-width:1.3;" width="13" x="423.8" y="242.4424"/><rect fill="#8576FF" height="122.035" style="stroke:#181818;stroke-width:1.3;" width="13" x="430.3" y="289.6207"/><rect fill="#8576FF" height="122.035" style="stroke:#181818;stroke-width:1.3;" width="13" x="430.3" y="452.334"/><rect fill="#8576FF" height="122.035" style="stroke:#181818;stroke-width:1.3;" width="13" x="430.3" y="615.0473"/><rect fill="#4793AF" height="40.6783" style="stroke:#181818;stroke-width:1.3;" width="13" x="639.6" y="330.299"/><rect fill="#4793AF" height="40.6783" style="stroke:#181818;stroke-width:1.3;" width="13" x="805.35" y="493.0123"/><rect fill="#4793AF" height="40.6783" style="stroke:#181818;stroke-width:1.3;" width="13" x="983.45" y="655.7256"/><line style="stroke:#181818;stroke-width:0.65;stroke-dasharray:5.0,5.0;" x1="54.6" x2="54.6" y1="90.5074" y2="841.8389"/><line style="stroke:#181818;stroke-width:0.65;stroke-dasharray:5.0,5.0;" x1="423.8" x2="423.8" y1="90.5074" y2="841.8389"/><line style="stroke:#181818;stroke-width:0.65;stroke-dasharray:5.0,5.0;" x1="645.45" x2="645.45" y1="90.5074" y2="841.8389"/><line style="stroke:#181818;stroke-width:0.65;stroke-dasharray:5.0,5.0;" x1="811.85" x2="811.85" y1="90.5074" y2="841.8389"/><line style="stroke:#181818;stroke-width:0.65;stroke-dasharray:5.0,5.0;" x1="989.95" x2="989.95" y1="90.5074" y2="841.8389"/><rect fill="#E2E2F0" height="42.4074" rx="3.25" ry="3.25" style="stroke:#181818;stroke-width:0.65;" width="96.2" x="6.5" y="46.8"/><text fill="#000000" font-family="sans-serif" font-size="18.2" lengthAdjust="spacing" textLength="78" x="15.6" y="75.5396">Temporal</text><rect fill="#E2E2F0" height="42.4074" rx="3.25" ry="3.25" style="stroke:#181818;stroke-width:0.65;" width="96.2" x="6.5" y="840.5389"/><text fill="#000000" font-family="sans-serif" font-size="18.2" lengthAdjust="spacing" textLength="78" x="15.6" y="869.2785">Temporal</text><rect fill="#E2E2F0" height="42.4074" rx="3.25" ry="3.25" style="stroke:#181818;stroke-width:0.65;" width="78" x="384.8" y="46.8"/><text fill="#000000" font-family="sans-serif" font-size="18.2" lengthAdjust="spacing" textLength="59.8" x="393.9" y="75.5396">Worker</text><rect fill="#E2E2F0" height="42.4074" rx="3.25" ry="3.25" style="stroke:#181818;stroke-width:0.65;" width="78" x="384.8" y="840.5389"/><text fill="#000000" font-family="sans-serif" font-size="18.2" lengthAdjust="spacing" textLength="59.8" x="393.9" y="869.2785">Worker</text><text fill="#000000" font-family="sans-serif" font-size="18.2" lengthAdjust="spacing" textLength="188.5" x="547.95" y="85.9396">Kubernetes Configmap</text><path d="M622.7,19.5 C622.7,6.5 646.1,6.5 646.1,6.5 C646.1,6.5 669.5,6.5 669.5,19.5 L669.5,53.3 C669.5,66.3 646.1,66.3 646.1,66.3 C646.1,66.3 622.7,66.3 622.7,53.3 L622.7,19.5 " fill="#E2E2F0" style="stroke:#181818;stroke-width:1.9500000000000002;"/><path d="M622.7,19.5 C622.7,32.5 646.1,32.5 646.1,32.5 C646.1,32.5 669.5,32.5 669.5,19.5 " fill="none" style="stroke:#181818;stroke-width:1.9500000000000002;"/><text fill="#000000" font-family="sans-serif" font-size="18.2" lengthAdjust="spacing" textLength="188.5" x="547.95" y="860.1785">Kubernetes Configmap</text><path d="M622.7,877.7463 C622.7,864.7463 646.1,864.7463 646.1,864.7463 C646.1,864.7463 669.5,864.7463 669.5,877.7463 L669.5,911.5463 C669.5,924.5463 646.1,924.5463 646.1,924.5463 C646.1,924.5463 622.7,924.5463 622.7,911.5463 L622.7,877.7463 " fill="#E2E2F0" style="stroke:#181818;stroke-width:1.9500000000000002;"/><path d="M622.7,877.7463 C622.7,890.7463 646.1,890.7463 646.1,890.7463 C646.1,890.7463 669.5,890.7463 669.5,877.7463 " fill="none" style="stroke:#181818;stroke-width:1.9500000000000002;"/><text fill="#000000" font-family="sans-serif" font-size="18.2" lengthAdjust="spacing" textLength="101.4" x="757.25" y="85.9396">Gateway DB</text><path d="M788.45,19.5 C788.45,6.5 811.85,6.5 811.85,6.5 C811.85,6.5 835.25,6.5 835.25,19.5 L835.25,53.3 C835.25,66.3 811.85,66.3 811.85,66.3 C811.85,66.3 788.45,66.3 788.45,53.3 L788.45,19.5 " fill="#E2E2F0" style="stroke:#181818;stroke-width:1.9500000000000002;"/><path d="M788.45,19.5 C788.45,32.5 811.85,32.5 811.85,32.5 C811.85,32.5 835.25,32.5 835.25,19.5 " fill="none" style="stroke:#181818;stroke-width:1.9500000000000002;"/><text fill="#000000" font-family="sans-serif" font-size="18.2" lengthAdjust="spacing" textLength="101.4" x="757.25" y="860.1785">Gateway DB</text><path d="M788.45,877.7463 C788.45,864.7463 811.85,864.7463 811.85,864.7463 C811.85,864.7463 835.25,864.7463 835.25,877.7463 L835.25,911.5463 C835.25,924.5463 811.85,924.5463 811.85,924.5463 C811.85,924.5463 788.45,924.5463 788.45,911.5463 L788.45,877.7463 " fill="#E2E2F0" style="stroke:#181818;stroke-width:1.9500000000000002;"/><path d="M788.45,877.7463 C788.45,890.7463 811.85,890.7463 811.85,890.7463 C811.85,890.7463 835.25,890.7463 835.25,877.7463 " fill="none" style="stroke:#181818;stroke-width:1.9500000000000002;"/><rect fill="#E2E2F0" height="42.4074" rx="3.25" ry="3.25" style="stroke:#181818;stroke-width:0.65;" width="221" x="879.45" y="46.8"/><text fill="#000000" font-family="sans-serif" font-size="18.2" lengthAdjust="spacing" textLength="202.8" x="888.55" y="75.5396">Communication Gateway</text><rect fill="#E2E2F0" height="42.4074" rx="3.25" ry="3.25" style="stroke:#181818;stroke-width:0.65;" width="221" x="879.45" y="840.5389"/><text fill="#000000" font-family="sans-serif" font-size="18.2" lengthAdjust="spacing" textLength="202.8" x="888.55" y="869.2785">Communication Gateway</text><rect fill="#4793AF" height="726.6314" style="stroke:#181818;stroke-width:1.3;" width="13" x="48.1" y="103.5074"/><rect fill="#DD5746" height="633.5748" style="stroke:#181818;stroke-width:1.3;" width="13" x="54.6" y="184.8641"/><rect fill="#8576FF" height="122.035" style="stroke:#181818;stroke-width:1.3;" width="13" x="61.1" y="289.6207"/><rect fill="#8576FF" height="122.035" style="stroke:#181818;stroke-width:1.3;" width="13" x="61.1" y="452.334"/><rect fill="#8576FF" height="122.035" style="stroke:#181818;stroke-width:1.3;" width="13" x="61.1" y="615.0473"/><rect fill="#4793AF" height="696.3531" style="stroke:#181818;stroke-width:1.3;" width="13" x="417.3" y="133.7857"/><rect fill="#DD5746" height="575.9965" style="stroke:#181818;stroke-width:1.3;" width="13" x="423.8" y="242.4424"/><rect fill="#8576FF" height="122.035" style="stroke:#181818;stroke-width:1.3;" width="13" x="430.3" y="289.6207"/><rect fill="#8576FF" height="122.035" style="stroke:#181818;stroke-width:1.3;" width="13" x="430.3" y="452.334"/><rect fill="#8576FF" height="122.035" style="stroke:#181818;stroke-width:1.3;" width="13" x="430.3" y="615.0473"/><rect fill="#4793AF" height="40.6783" style="stroke:#181818;stroke-width:1.3;" width="13" x="639.6" y="330.299"/><rect fill="#4793AF" height="40.6783" style="stroke:#181818;stroke-width:1.3;" width="13" x="805.35" y="493.0123"/><rect fill="#4793AF" height="40.6783" style="stroke:#181818;stroke-width:1.3;" width="13" x="983.45" y="655.7256"/><polygon fill="#181818" points="75.4,128.5857,62.4,133.7857,75.4,138.9857,70.2,133.7857" style="stroke:#181818;stroke-width:1.3;"/><line style="stroke:#181818;stroke-width:1.3;" x1="67.6" x2="416" y1="133.7857" y2="133.7857"/><text fill="#000000" font-family="sans-serif" font-size="16.9" font-weight="bold" lengthAdjust="spacing" textLength="9.1" x="83.2" y="126.9442">1</text><text fill="#000000" font-family="sans-serif" font-size="16.9" lengthAdjust="spacing" textLength="126.1" x="97.5" y="126.9442">Polls task queue</text><line style="stroke:#181818;stroke-width:1.3;" x1="61.1" x2="122.2" y1="167.9641" y2="167.9641"/><line style="stroke:#181818;stroke-width:1.3;" x1="122.2" x2="122.2" y1="167.9641" y2="184.8641"/><line style="stroke:#181818;stroke-width:1.3;" x1="68.9" x2="122.2" y1="184.8641" y2="184.8641"/><polygon fill="#181818" points="81.9,179.6641,68.9,184.8641,81.9,190.0641,76.7,184.8641" style="stroke:#181818;stroke-width:1.3;"/><text fill="#000000" font-family="sans-serif" font-size="16.9" font-weight="bold" lengthAdjust="spacing" textLength="9.1" x="76.7" y="161.1226">2</text><text fill="#000000" font-family="sans-serif" font-size="16.9" lengthAdjust="spacing" textLength="148.2" x="91" y="161.1226">Schedules workflow</text><line style="stroke:#181818;stroke-width:1.3;" x1="430.3" x2="491.4" y1="225.5424" y2="225.5424"/><line style="stroke:#181818;stroke-width:1.3;" x1="491.4" x2="491.4" y1="225.5424" y2="242.4424"/><line style="stroke:#181818;stroke-width:1.3;" x1="438.1" x2="491.4" y1="242.4424" y2="242.4424"/><polygon fill="#181818" points="451.1,237.2424,438.1,242.4424,451.1,247.6424,445.9,242.4424" style="stroke:#181818;stroke-width:1.3;"/><text fill="#000000" font-family="sans-serif" font-size="16.9" font-weight="bold" lengthAdjust="spacing" textLength="9.1" x="445.9" y="218.7009">3</text><text fill="#000000" font-family="sans-serif" font-size="16.9" lengthAdjust="spacing" textLength="114.4" x="460.2" y="218.7009">Starts workflow</text><polygon fill="#181818" points="414.7,284.4207,427.7,289.6207,414.7,294.8207,419.9,289.6207" style="stroke:#181818;stroke-width:1.3;"/><line style="stroke:#181818;stroke-width:1.3;" x1="74.1" x2="422.5" y1="289.6207" y2="289.6207"/><text fill="#000000" font-family="sans-serif" font-size="16.9" font-weight="bold" lengthAdjust="spacing" textLength="9.1" x="83.2" y="282.7792">4</text><text fill="#000000" font-family="sans-serif" font-size="16.9" lengthAdjust="spacing" textLength="256.1" x="97.5" y="282.7792">Schedules GetPreferencesActivity</text><polygon fill="#181818" points="624,325.099,637,330.299,624,335.499,629.2,330.299" style="stroke:#181818;stroke-width:1.3;"/><line style="stroke:#181818;stroke-width:1.3;" x1="443.3" x2="631.8" y1="330.299" y2="330.299"/><text fill="#000000" font-family="sans-serif" font-size="16.9" font-weight="bold" lengthAdjust="spacing" textLength="9.1" x="452.4" y="323.4575">5</text><text fill="#000000" font-family="sans-serif" font-size="16.9" lengthAdjust="spacing" textLength="122.2" x="466.7" y="323.4575">Get Preferences</text><polygon fill="#181818" points="457.6,365.7773,444.6,370.9773,457.6,376.1773,452.4,370.9773" style="stroke:#181818;stroke-width:1.3;"/><line style="stroke:#181818;stroke-width:1.3;stroke-dasharray:2.0,2.0;" x1="449.8" x2="644.8" y1="370.9773" y2="370.9773"/><text fill="#000000" font-family="sans-serif" font-size="16.9" font-weight="bold" lengthAdjust="spacing" textLength="9.1" x="465.4" y="364.1358">6</text><text fill="#000000" font-family="sans-serif" font-size="16.9" lengthAdjust="spacing" textLength="150.8" x="479.7" y="364.1358">Returns preferences</text><polygon fill="#181818" points="81.9,406.4557,68.9,411.6557,81.9,416.8557,76.7,411.6557" style="stroke:#181818;stroke-width:1.3;"/><line style="stroke:#181818;stroke-width:1.3;stroke-dasharray:2.0,2.0;" x1="74.1" x2="422.5" y1="411.6557" y2="411.6557"/><text fill="#000000" font-family="sans-serif" font-size="16.9" font-weight="bold" lengthAdjust="spacing" textLength="9.1" x="89.7" y="404.8142">7</text><text fill="#000000" font-family="sans-serif" font-size="16.9" lengthAdjust="spacing" textLength="137.8" x="104" y="404.8142">Activity completed</text><polygon fill="#181818" points="414.7,447.134,427.7,452.334,414.7,457.534,419.9,452.334" style="stroke:#181818;stroke-width:1.3;"/><line style="stroke:#181818;stroke-width:1.3;" x1="74.1" x2="422.5" y1="452.334" y2="452.334"/><text fill="#000000" font-family="sans-serif" font-size="16.9" font-weight="bold" lengthAdjust="spacing" textLength="9.1" x="83.2" y="445.4925">8</text><text fill="#000000" font-family="sans-serif" font-size="16.9" lengthAdjust="spacing" textLength="232.7" x="97.5" y="445.4925">Schedules GetGatewayActivity</text><polygon fill="#181818" points="789.75,487.8123,802.75,493.0123,789.75,498.2123,794.95,493.0123" style="stroke:#181818;stroke-width:1.3;"/><line style="stroke:#181818;stroke-width:1.3;" x1="443.3" x2="797.55" y1="493.0123" y2="493.0123"/><text fill="#000000" font-family="sans-serif" font-size="16.9" font-weight="bold" lengthAdjust="spacing" textLength="9.1" x="452.4" y="486.1708">9</text><text fill="#000000" font-family="sans-serif" font-size="16.9" lengthAdjust="spacing" textLength="136.5" x="466.7" y="486.1708">Get gateway by id</text><polygon fill="#181818" points="457.6,528.4906,444.6,533.6906,457.6,538.8906,452.4,533.6906" style="stroke:#181818;stroke-width:1.3;"/><line style="stroke:#181818;stroke-width:1.3;stroke-dasharray:2.0,2.0;" x1="449.8" x2="810.55" y1="533.6906" y2="533.6906"/><text fill="#000000" font-family="sans-serif" font-size="16.9" font-weight="bold" lengthAdjust="spacing" textLength="18.2" x="465.4" y="526.8491">10</text><text fill="#000000" font-family="sans-serif" font-size="16.9" lengthAdjust="spacing" textLength="176.8" x="488.8" y="526.8491">Returns gateway object</text><polygon fill="#181818" points="81.9,569.1689,68.9,574.3689,81.9,579.5689,76.7,574.3689" style="stroke:#181818;stroke-width:1.3;"/><line style="stroke:#181818;stroke-width:1.3;stroke-dasharray:2.0,2.0;" x1="74.1" x2="422.5" y1="574.3689" y2="574.3689"/><text fill="#000000" font-family="sans-serif" font-size="16.9" font-weight="bold" lengthAdjust="spacing" textLength="18.2" x="89.7" y="567.5274">11</text><text fill="#000000" font-family="sans-serif" font-size="16.9" lengthAdjust="spacing" textLength="137.8" x="113.1" y="567.5274">Activity completed</text><polygon fill="#181818" points="414.7,609.8473,427.7,615.0473,414.7,620.2473,419.9,615.0473" style="stroke:#181818;stroke-width:1.3;"/><line style="stroke:#181818;stroke-width:1.3;" x1="74.1" x2="422.5" y1="615.0473" y2="615.0473"/><text fill="#000000" font-family="sans-serif" font-size="16.9" font-weight="bold" lengthAdjust="spacing" textLength="18.2" x="83.2" y="608.2058">12</text><text fill="#000000" font-family="sans-serif" font-size="16.9" lengthAdjust="spacing" textLength="295.1" x="106.6" y="608.2058">Schedules SendCommunicationActivity</text><polygon fill="#181818" points="967.85,650.5256,980.85,655.7256,967.85,660.9256,973.05,655.7256" style="stroke:#181818;stroke-width:1.3;"/><line style="stroke:#181818;stroke-width:1.3;" x1="443.3" x2="975.65" y1="655.7256" y2="655.7256"/><text fill="#000000" font-family="sans-serif" font-size="16.9" font-weight="bold" lengthAdjust="spacing" textLength="18.2" x="452.4" y="648.8841">13</text><text fill="#000000" font-family="sans-serif" font-size="16.9" lengthAdjust="spacing" textLength="243.1" x="475.8" y="648.8841">Send user id and workflow run id</text><polygon fill="#181818" points="457.6,691.2039,444.6,696.4039,457.6,701.6039,452.4,696.4039" style="stroke:#181818;stroke-width:1.3;"/><line style="stroke:#181818;stroke-width:1.3;stroke-dasharray:2.0,2.0;" x1="449.8" x2="988.65" y1="696.4039" y2="696.4039"/><text fill="#000000" font-family="sans-serif" font-size="16.9" font-weight="bold" lengthAdjust="spacing" textLength="18.2" x="465.4" y="689.5624">14</text><text fill="#000000" font-family="sans-serif" font-size="16.9" lengthAdjust="spacing" textLength="460.2" x="488.8" y="689.5624">Returns delivery response 200 with message hash and userId</text><polygon fill="#181818" points="81.9,731.8822,68.9,737.0822,81.9,742.2822,76.7,737.0822" style="stroke:#181818;stroke-width:1.3;"/><line style="stroke:#181818;stroke-width:1.3;stroke-dasharray:2.0,2.0;" x1="74.1" x2="422.5" y1="737.0822" y2="737.0822"/><text fill="#000000" font-family="sans-serif" font-size="16.9" font-weight="bold" lengthAdjust="spacing" textLength="18.2" x="89.7" y="730.2407">15</text><text fill="#000000" font-family="sans-serif" font-size="16.9" lengthAdjust="spacing" textLength="137.8" x="113.1" y="730.2407">Activity completed</text><polygon fill="#181818" points="408.2,772.5605,421.2,777.7605,408.2,782.9605,413.4,777.7605" style="stroke:#181818;stroke-width:1.3;"/><line style="stroke:#181818;stroke-width:1.3;" x1="67.6" x2="416" y1="777.7605" y2="777.7605"/><text fill="#000000" font-family="sans-serif" font-size="16.9" font-weight="bold" lengthAdjust="spacing" textLength="18.2" x="76.7" y="770.919">16</text><text fill="#000000" font-family="sans-serif" font-size="16.9" lengthAdjust="spacing" textLength="140.4" x="100.1" y="770.919">Complete workflow</text><polygon fill="#181818" points="75.4,813.2389,62.4,818.4389,75.4,823.6389,70.2,818.4389" style="stroke:#181818;stroke-width:1.3;"/><line style="stroke:#181818;stroke-width:1.3;stroke-dasharray:2.0,2.0;" x1="67.6" x2="416" y1="818.4389" y2="818.4389"/><text fill="#000000" font-family="sans-serif" font-size="16.9" font-weight="bold" lengthAdjust="spacing" textLength="18.2" x="83.2" y="811.5974">17</text><text fill="#000000" font-family="sans-serif" font-size="16.9" lengthAdjust="spacing" textLength="143" x="106.6" y="811.5974">Workflow complete</text><!--SRC=[lLHDJ-Cm4BtxLuowPoIq2vJjOQLkgoB41G4IvqayJRqaTl07KVyzpeTZHusqI21kO_kzUJClCwbHMv6B6gM5nHDLjT9OBW0DsE70wXJohFGBwGxGT27ZQ353Gx2uSnbfIPOCR9JSYwB2kaFcuPI0Rz1IWqVO_kqWHSCpDfNQgAfoKkHeXP8muFjyHSCOEgkagxmamzoAD_y-rWm_BfQ_VwrtZFL5mjcVyMq5zweiVNzeNk3LaQF87z21FQQRq1_p0t5NKk_0lbJDN07RxUNouYeje8yyt_ekvyX1VQ2cwYDtrBuXUwzfJvfaJcRTvX3sE5V9zUNoQhSxbHdkamh7xxHgqqEIFx97pEXIl3bBAdqWwxGqK2T9E9scYVeJaqD37bZLfPyfdhB3wD59k-p_jWsJz0dBecFjsFPc5SCyPqSGF39RG9p6xZJdKc2hx1_bDcsiNunlzUYH99yitvTOvPTsrQK6P_oDu80-3bi0sic9SHuU9yp7SwvnAiKRwIDeChMI_hVoy_mS6c4FK94nM10Sq1mweLRqTc9GznVvMcFdVDqCEUB2pse-1oE2vWSbtm40]--></g></svg>